ISO-10303-21;
HEADER;
FILE_DESCRIPTION(('Open CASCADE Model'),'2;1');
FILE_NAME('Open CASCADE Shape Model','2026-08-16T23:33:06',('Author'),(
    'Open CASCADE'),'Open CASCADE STEP processor 7.8','Open CASCADE 7.8'
  ,'Unknown');
FILE_SCHEMA(('AUTOMOTIVE_DESIGN { 1 0 10303 214 1 1 1 1 }'));
ENDSEC;
DATA;
#1 = APPLICATION_PROTOCOL_DEFINITION('international standard',
  'automotive_design',2000,#2);
#2 = APPLICATION_CONTEXT(
  'core data for automotive mechanical design processes');
#3 = SHAPE_DEFINITION_REPRESENTATION(#4,#10);
#4 = PRODUCT_DEFINITION_SHAPE('','',#5);
#5 = PRODUCT_DEFINITION('design','',#6,#9);
#6 = PRODUCT_DEFINITION_FORMATION('','',#7);
#7 = PRODUCT('Open CASCADE STEP translator 7.8 56',
  'Open CASCADE STEP translator 7.8 56','',(#8));
#8 = PRODUCT_CONTEXT('',#2,'mechanical');
#9 = PRODUCT_DEFINITION_CONTEXT('part definition',#2,'design');
#10 = ADVANCED_BREP_SHAPE_REPRESENTATION('',(#11,#15),#1116);
#11 = AXIS2_PLACEMENT_3D('',#12,#13,#14);
#12 = CARTESIAN_POINT('',(0.,0.,0.));
#13 = DIRECTION('',(0.,0.,1.));
#14 = DIRECTION('',(1.,0.,-0.));
#15 = MANIFOLD_SOLID_BREP('',#16);
#16 = CLOSED_SHELL('',(#17,#557,#1112));
#17 = ADVANCED_FACE('',(#18),#197,.F.);
#18 = FACE_BOUND('',#19,.F.);
#19 = EDGE_LOOP('',(#20));
#20 = ORIENTED_EDGE('',*,*,#21,.T.);
#21 = EDGE_CURVE('',#22,#22,#24,.T.);
#22 = VERTEX_POINT('',#23);
#23 = CARTESIAN_POINT('',(30.5,0.,66.527366910188));
#24 = SURFACE_CURVE('',#25,(#196,#375),.PCURVE_S1.);
#25 = B_SPLINE_CURVE_WITH_KNOTS('',7,(#26,#27,#28,#29,#30,#31,#32,#33,
    #34,#35,#36,#37,#38,#39,#40,#41,#42,#43,#44,#45,#46,#47,#48,#49,#50,
    #51,#52,#53,#54,#55,#56,#57,#58,#59,#60,#61,#62,#63,#64,#65,#66,#67,
    #68,#69,#70,#71,#72,#73,#74,#75,#76,#77,#78,#79,#80,#81,#82,#83,#84,
    #85,#86,#87,#88,#89,#90,#91,#92,#93,#94,#95,#96,#97,#98,#99,#100,
    #101,#102,#103,#104,#105,#106,#107,#108,#109,#110,#111,#112,#113,
    #114,#115,#116,#117,#118,#119,#120,#121,#122,#123,#124,#125,#126,
    #127,#128,#129,#130,#131,#132,#133,#134,#135,#136,#137,#138,#139,
    #140,#141,#142,#143,#144,#145,#146,#147,#148,#149,#150,#151,#152,
    #153,#154,#155,#156,#157,#158,#159,#160,#161,#162,#163,#164,#165,
    #166,#167,#168,#169,#170,#171,#172,#173,#174,#175,#176,#177,#178,
    #179,#180,#181,#182,#183,#184,#185,#186,#187,#188,#189,#190,#191,
    #192,#193,#194,#195),.UNSPECIFIED.,.T.,.F.,(8,6,6,6,6,6,6,6,6,6,6,6,
    6,6,6,6,6,6,6,6,6,6,6,6,6,6,6,6,8),(0.,6.505046559204E-02,
    8.875771257811E-02,0.104749857875,0.143186294607,0.195276823776,
    0.249598468923,0.287000054935,0.305133980336,0.356807783705,
    0.39522862913,0.411281694739,0.435166483676,0.457843092194,
    0.499876081619,0.542259444017,0.564630399645,0.588330744909,
    0.604318833812,0.642748551612,0.694835573398,0.750174020283,
    0.787137464771,0.805271696109,0.856945272273,0.895364510814,
    0.911416569313,0.93529971876,1.),.UNSPECIFIED.);
#26 = CARTESIAN_POINT('',(30.5,-3.552713678801E-15,66.527366910188));
#27 = CARTESIAN_POINT('',(30.5,-1.242526190326,66.527366910188));
#28 = CARTESIAN_POINT('',(30.369277217732,-2.48539505847,66.487684162405
    ));
#29 = CARTESIAN_POINT('',(30.107704767388,-3.717987165972,
    66.408279049854));
#30 = CARTESIAN_POINT('',(29.718315470083,-4.930998923612,
    66.291246601505));
#31 = CARTESIAN_POINT('',(29.205963156999,-6.116222425081,
    66.140395913337));
#32 = CARTESIAN_POINT('',(28.576891375533,-7.266429015024,
    65.960661985847));
#33 = CARTESIAN_POINT('',(27.569309840156,-8.779408942803,
    65.683609125934));
#34 = CARTESIAN_POINT('',(27.285609964122,-9.178104366741,65.60649839467
    ));
#35 = CARTESIAN_POINT('',(26.987659183445,-9.571102513207,
    65.526539195444));
#36 = CARTESIAN_POINT('',(26.675786848199,-9.958150056379,
    65.444000691134));
#37 = CARTESIAN_POINT('',(26.350325021289,-10.33901312326,
    65.359157196921));
#38 = CARTESIAN_POINT('',(26.011605081164,-10.71347536574,65.27228542074
    ));
#39 = CARTESIAN_POINT('',(25.422742049451,-11.32948299119,65.12387899845
    ));
#40 = CARTESIAN_POINT('',(25.179645982505,-11.57462569969,
    65.063299166508));
#41 = CARTESIAN_POINT('',(24.930766647171,-11.81670258601,
    65.002007091665));
#42 = CARTESIAN_POINT('',(24.676204275045,-12.05565479496,
    64.940087755482));
#43 = CARTESIAN_POINT('',(24.416058563459,-12.29142599593,
    64.877625990102));
#44 = CARTESIAN_POINT('',(24.150428433089,-12.52396219047,
    64.814706231048));
#45 = CARTESIAN_POINT('',(23.228034873165,-13.30420247118,
    64.599287943766));
#46 = CARTESIAN_POINT('',(22.545556308687,-13.83619456767,
    64.445005085083));
#47 = CARTESIAN_POINT('',(21.833318235716,-14.3484858479,64.289723685446
    ));
#48 = CARTESIAN_POINT('',(21.092660712615,-14.84041113315,
    64.134589211035));
#49 = CARTESIAN_POINT('',(20.324921475944,-15.31133813368,
    63.980720928149));
#50 = CARTESIAN_POINT('',(19.531435703882,-15.76066355485,
    63.829200228611));
#51 = CARTESIAN_POINT('',(17.605086519471,-16.76669332334,
    63.480292235342));
#52 = CARTESIAN_POINT('',(16.451832393318,-17.30482197673,
    63.285739283471));
#53 = CARTESIAN_POINT('',(15.257121823628,-17.80074513251,
    63.099974968075));
#54 = CARTESIAN_POINT('',(14.024472143856,-18.25301784572,
    62.925442272752));
#55 = CARTESIAN_POINT('',(12.75761644332,-18.66024137579,62.764399235867
    ));
#56 = CARTESIAN_POINT('',(11.46055549312,-19.02111206671,62.618860381777
    ));
#57 = CARTESIAN_POINT('',(8.758010464725,-19.66126584674,62.356708434743
    ));
#58 = CARTESIAN_POINT('',(7.350174176064,-19.93641357979,62.241592712718
    ));
#59 = CARTESIAN_POINT('',(5.919230227059,-20.15855006743,62.147147241633
    ));
#60 = CARTESIAN_POINT('',(4.470539236292,-20.32658313554,62.07493459359)
  );
#61 = CARTESIAN_POINT('',(3.00970796575,-20.43971527905,62.026053067028)
  );
#62 = CARTESIAN_POINT('',(1.542605964731,-20.49749980209,62.001080512276
    ));
#63 = CARTESIAN_POINT('',(-0.934820503098,-20.5016156965,61.999301743374
    ));
#64 = CARTESIAN_POINT('',(-1.945153348363,-20.47705604278,
    62.009915383337));
#65 = CARTESIAN_POINT('',(-2.953632225185,-20.42625399304,
    62.031874470314));
#66 = CARTESIAN_POINT('',(-3.958323943638,-20.34929865442,
    62.065059082491));
#67 = CARTESIAN_POINT('',(-4.957338434355,-20.24636610751,
    62.109229271634));
#68 = CARTESIAN_POINT('',(-5.948827741337,-20.11771285088,
    62.164031444626));
#69 = CARTESIAN_POINT('',(-7.407177835102,-19.88898216553,
    62.260506643907));
#70 = CARTESIAN_POINT('',(-7.881182347884,-19.80832571683,
    62.294399887302));
#71 = CARTESIAN_POINT('',(-8.352796063159,-19.72173691704,
    62.330632324982));
#72 = CARTESIAN_POINT('',(-8.821821389273,-19.62925629732,
    62.369146213217));
#73 = CARTESIAN_POINT('',(-9.2880654465,-19.53092756109,62.40987854488)
  );
#74 = CARTESIAN_POINT('',(-9.751339880663,-19.42679724268,
    62.452761379595));
#75 = CARTESIAN_POINT('',(-11.52260490053,-19.00379594069,
    62.625840890155));
#76 = CARTESIAN_POINT('',(-12.80811065306,-18.64397380946,
    62.770829698638));
#77 = CARTESIAN_POINT('',(-14.06376565942,-18.23857734939,
    62.931012647723));
#78 = CARTESIAN_POINT('',(-15.28567077616,-17.78888136207,
    63.104417439094));
#79 = CARTESIAN_POINT('',(-16.4701852638,-17.29625195065,63.288836868934
    ));
#80 = CARTESIAN_POINT('',(-17.61387686836,-16.76209968441,
    63.481885027433));
#81 = CARTESIAN_POINT('',(-19.53105840426,-15.76086275969,
    63.829131407879));
#82 = CARTESIAN_POINT('',(-20.32424512664,-15.31172298881,
    63.980591402516));
#83 = CARTESIAN_POINT('',(-21.0917060252,-14.84099826571,64.134397602802
    ));
#84 = CARTESIAN_POINT('',(-21.83210747781,-14.34929117537,
    64.289469903872));
#85 = CARTESIAN_POINT('',(-22.54411332459,-13.83723324259,
    64.444690384098));
#86 = CARTESIAN_POINT('',(-23.22638509856,-13.30548881417,
    64.598914955484));
#87 = CARTESIAN_POINT('',(-24.14966660483,-12.52465201097,
    64.814523194984));
#88 = CARTESIAN_POINT('',(-24.4163236352,-12.29123277666,64.877684713568
    ));
#89 = CARTESIAN_POINT('',(-24.67745432291,-12.05455368498,64.94038481583
    ));
#90 = CARTESIAN_POINT('',(-24.93295860741,-11.81466935543,
    65.002538093118));
#91 = CARTESIAN_POINT('',(-25.18273563932,-11.57163677615,
    65.064058734175));
#92 = CARTESIAN_POINT('',(-25.42668402764,-11.32551550012,
    65.124860777198));
#93 = CARTESIAN_POINT('',(-26.01884074485,-10.70566984561,
    65.274126647594));
#94 = CARTESIAN_POINT('',(-26.35985058631,-10.32827279783,
    65.361613891908));
#95 = CARTESIAN_POINT('',(-26.68739687694,-9.944382116761,
    65.447037492523));
#96 = CARTESIAN_POINT('',(-27.0011406764,-9.554219308798,65.530114474114
    ));
#97 = CARTESIAN_POINT('',(-27.30074237622,-9.15802397111,65.610564360407
    ));
#98 = CARTESIAN_POINT('',(-27.58586523776,-8.756055794827,
    65.688112046238));
#99 = CARTESIAN_POINT('',(-28.11281916215,-7.961748127047,
    65.833106948846));
#100 = CARTESIAN_POINT('',(-28.3561106976,-7.569949837234,
    65.900866724388));
#101 = CARTESIAN_POINT('',(-28.58576974401,-7.173445131041,
    65.965541454858));
#102 = CARTESIAN_POINT('',(-28.80151832411,-6.772495169799,
    66.026909545179));
#103 = CARTESIAN_POINT('',(-29.0030883551,-6.367380377513,
    66.084759416435));
#104 = CARTESIAN_POINT('',(-29.19022572799,-5.958401974445,
    66.138892575717));
#105 = CARTESIAN_POINT('',(-29.68237946303,-4.781246055748,
    66.282239808393));
#106 = CARTESIAN_POINT('',(-29.95169841893,-4.004369521826,
    66.361966005996));
#107 = CARTESIAN_POINT('',(-30.16908641555,-3.217416555067,
    66.427127249608));
#108 = CARTESIAN_POINT('',(-30.33329946874,-2.422687746387,
    66.476764694225));
#109 = CARTESIAN_POINT('',(-30.44343537543,-1.622626941285,
    66.510195975058));
#110 = CARTESIAN_POINT('',(-30.49899578915,-0.81982970329,
    66.527062066785));
#111 = CARTESIAN_POINT('',(-30.50099138344,0.792411503766,
    66.527667859636));
#112 = CARTESIAN_POINT('',(-30.4465132265,1.601983600907,66.511130309139
    ));
#113 = CARTESIAN_POINT('',(-30.33653390778,2.408830902217,
    66.477741530025));
#114 = CARTESIAN_POINT('',(-30.17155775866,3.210290882753,
    66.427864308214));
#115 = CARTESIAN_POINT('',(-29.95250699449,4.003857103224,
    66.362196163256));
#116 = CARTESIAN_POINT('',(-29.68065731699,4.787170583734,66.28172069473
    ));
#117 = CARTESIAN_POINT('',(-29.18710800865,5.964884260233,
    66.137993948205));
#118 = CARTESIAN_POINT('',(-29.00232827471,6.368302259673,
    66.084549128192));
#119 = CARTESIAN_POINT('',(-28.80350436073,6.767958107155,66.02748871476
    ));
#120 = CARTESIAN_POINT('',(-28.59088025218,7.163562645046,
    65.967003298636));
#121 = CARTESIAN_POINT('',(-28.3647131746,7.554846414811,65.903295868041
    ));
#122 = CARTESIAN_POINT('',(-28.12526977802,7.941558223746,
    65.836578938379));
#123 = CARTESIAN_POINT('',(-27.60537322397,8.728063858125,
    65.693433970462));
#124 = CARTESIAN_POINT('',(-27.32332844773,9.127269758515,
    65.616664383735));
#125 = CARTESIAN_POINT('',(-27.02701051948,9.520805269132,
    65.537023355967));
#126 = CARTESIAN_POINT('',(-26.71674828836,9.908415757554,
    65.454779405162));
#127 = CARTESIAN_POINT('',(-26.39287349504,10.28986616952,
    65.370206353622));
#128 = CARTESIAN_POINT('',(-26.05571734115,10.664939095763,
    65.28358054845));
#129 = CARTESIAN_POINT('',(-25.46942508491,11.282016167878,
    65.135542389977));
#130 = CARTESIAN_POINT('',(-25.22734825936,11.527605221145,
    65.075098259333));
#131 = CARTESIAN_POINT('',(-24.97947708992,11.770138136377,
    65.013930505357));
#132 = CARTESIAN_POINT('',(-24.72591180497,12.009555799648,
    64.952124061678));
#133 = CARTESIAN_POINT('',(-24.46675210648,12.245801651008,
    64.889763730788));
#134 = CARTESIAN_POINT('',(-24.20209692298,12.478821490123,
    64.826933934528));
#135 = CARTESIAN_POINT('',(-23.28293272536,13.260781391171,
    64.611770806137));
#136 = CARTESIAN_POINT('',(-22.60265083295,13.79404852202,
    64.457598000168));
#137 = CARTESIAN_POINT('',(-21.89254104877,14.307660212583,
    64.302360323374));
#138 = CARTESIAN_POINT('',(-21.15394357758,14.800949600337,
    64.147203907997));
#139 = CARTESIAN_POINT('',(-20.3881957957,15.27328334998,63.993249012674
    ));
#140 = CARTESIAN_POINT('',(-19.59663178104,15.724057581319,
    63.841578293303));
#141 = CARTESIAN_POINT('',(-17.67452087481,16.733660434171,
    63.492149504995));
#142 = CARTESIAN_POINT('',(-16.52351434236,17.27393903604,
    63.297175452206));
#143 = CARTESIAN_POINT('',(-15.33090549137,17.772079038424,
    63.110882135593));
#144 = CARTESIAN_POINT('',(-14.10020439113,18.226634406943,
    62.935718106514));
#145 = CARTESIAN_POINT('',(-12.83513483913,18.63620450911,
    62.773948337897));
#146 = CARTESIAN_POINT('',(-11.53968622021,18.999482528642,
    62.627595871974));
#147 = CARTESIAN_POINT('',(-8.814161511461,19.65085528413,
    62.361094020992));
#148 = CARTESIAN_POINT('',(-7.380631725456,19.932865085011,
    62.24314098789));
#149 = CARTESIAN_POINT('',(-5.922991601403,20.159881209725,
    62.146607176519));
#150 = CARTESIAN_POINT('',(-4.446904968188,20.330744556396,
    62.073152424533));
#151 = CARTESIAN_POINT('',(-2.95829940707,20.444612660608,
    62.023936715568));
#152 = CARTESIAN_POINT('',(-1.463384301993,20.501020958535,
    61.999558770631));
#153 = CARTESIAN_POINT('',(1.029717261523,20.499300016037,
    62.000302513249));
#154 = CARTESIAN_POINT('',(2.028087592531,20.472983085106,62.01167569441
    ));
#155 = CARTESIAN_POINT('',(3.024526672206,20.421039536977,
    62.034123223529));
#156 = CARTESIAN_POINT('',(4.017169581624,20.343559572009,
    62.067523644457));
#157 = CARTESIAN_POINT('',(5.004193370754,20.240716147934,
    62.111641164379));
#158 = CARTESIAN_POINT('',(5.98381600327,20.112758677717,62.166131781098
    ));
#159 = CARTESIAN_POINT('',(7.430411538486,19.885066763263,
    62.262152639058));
#160 = CARTESIAN_POINT('',(7.90433226361,19.804158337727,62.296145541518
    ));
#161 = CARTESIAN_POINT('',(8.375855088003,19.717318572848,
    62.332475805194));
#162 = CARTESIAN_POINT('',(8.844782526957,19.624588096331,
    62.371085530461));
#163 = CARTESIAN_POINT('',(9.310921812701,19.526010699867,62.41191156108
    ));
#164 = CARTESIAN_POINT('',(9.774084707295,19.42163299747,62.454885814694
    ));
#165 = CARTESIAN_POINT('',(11.544866877626,18.997691234394,
    62.628305223135));
#166 = CARTESIAN_POINT('',(12.829954855033,18.637187674801,
    62.773524573705));
#167 = CARTESIAN_POINT('',(14.085142392058,18.231124262868,
    62.933914743328));
#168 = CARTESIAN_POINT('',(15.306533170992,17.780776765842,
    63.107500939979));
#169 = CARTESIAN_POINT('',(16.490488730172,17.287511916242,
    63.292073873754));
#170 = CARTESIAN_POINT('',(17.633578557572,16.752740697411,
    63.48524590472));
#171 = CARTESIAN_POINT('',(19.549607655496,15.750469808555,
    63.832648595934));
#172 = CARTESIAN_POINT('',(20.34226405477,15.300909275129,63.98415463062
    ));
#173 = CARTESIAN_POINT('',(21.109173821029,14.829774903906,
    64.137988951438));
#174 = CARTESIAN_POINT('',(21.849003571547,14.337669479232,
    64.293071030223));
#175 = CARTESIAN_POINT('',(22.560417174363,13.825224857509,
    64.448282596262));
#176 = CARTESIAN_POINT('',(23.242076045082,13.293105900361,
    64.602479303106));
#177 = CARTESIAN_POINT('',(24.164453308998,12.511761200998,
    64.818019624334));
#178 = CARTESIAN_POINT('',(24.430836442044,12.27819808583,
    64.881156871896));
#179 = CARTESIAN_POINT('',(24.691689810166,12.041377563267,
    64.943829378546));
#180 = CARTESIAN_POINT('',(24.946913344159,11.80135431435,
    65.005951733978));
#181 = CARTESIAN_POINT('',(25.196406186813,11.558185396944,
    65.067438129862));
#182 = CARTESIAN_POINT('',(25.44006694147,11.311930442492,
    65.128202612603));
#183 = CARTESIAN_POINT('',(26.0314974017,10.691761240023,65.277366299038
    ));
#184 = CARTESIAN_POINT('',(26.372064598296,10.314177730575,
    65.364784935936));
#185 = CARTESIAN_POINT('',(26.699160768136,9.930107036021,
    65.450132694586));
#186 = CARTESIAN_POINT('',(27.01244699547,9.539770991132,65.533126682723
    ));
#187 = CARTESIAN_POINT('',(27.31158373932,9.143409558874,65.613486546412
    ));
#188 = CARTESIAN_POINT('',(27.596234381763,8.741282835418,
    65.690937348441));
#189 = CARTESIAN_POINT('',(28.597059521282,7.229444005441,
    65.966426267269));
#190 = CARTESIAN_POINT('',(29.219650471199,6.084470049105,
    66.144426493581));
#191 = CARTESIAN_POINT('',(29.726638256015,4.905002439458,
    66.293748158309));
#192 = CARTESIAN_POINT('',(30.111898276828,3.698174131351,
    66.409552081516));
#193 = CARTESIAN_POINT('',(30.370674216988,2.472075832166,
    66.488108236694));
#194 = CARTESIAN_POINT('',(30.5,1.23586913475,66.527366910188));
#195 = CARTESIAN_POINT('',(30.5,0.,66.527366910188));
#196 = PCURVE('',#197,#202);
#197 = CYLINDRICAL_SURFACE('',#198,105.);
#198 = AXIS2_PLACEMENT_3D('',#199,#200,#201);
#199 = CARTESIAN_POINT('',(0.,-120.,167.));
#200 = DIRECTION('',(0.,1.,0.));
#201 = DIRECTION('',(0.,-0.,1.));
#202 = DEFINITIONAL_REPRESENTATION('',(#203),#374);
#203 = B_SPLINE_CURVE_WITH_KNOTS('',7,(#204,#205,#206,#207,#208,#209,
    #210,#211,#212,#213,#214,#215,#216,#217,#218,#219,#220,#221,#222,
    #223,#224,#225,#226,#227,#228,#229,#230,#231,#232,#233,#234,#235,
    #236,#237,#238,#239,#240,#241,#242,#243,#244,#245,#246,#247,#248,
    #249,#250,#251,#252,#253,#254,#255,#256,#257,#258,#259,#260,#261,
    #262,#263,#264,#265,#266,#267,#268,#269,#270,#271,#272,#273,#274,
    #275,#276,#277,#278,#279,#280,#281,#282,#283,#284,#285,#286,#287,
    #288,#289,#290,#291,#292,#293,#294,#295,#296,#297,#298,#299,#300,
    #301,#302,#303,#304,#305,#306,#307,#308,#309,#310,#311,#312,#313,
    #314,#315,#316,#317,#318,#319,#320,#321,#322,#323,#324,#325,#326,
    #327,#328,#329,#330,#331,#332,#333,#334,#335,#336,#337,#338,#339,
    #340,#341,#342,#343,#344,#345,#346,#347,#348,#349,#350,#351,#352,
    #353,#354,#355,#356,#357,#358,#359,#360,#361,#362,#363,#364,#365,
    #366,#367,#368,#369,#370,#371,#372,#373),.UNSPECIFIED.,.F.,.F.,(8,6,
    6,6,6,6,6,6,6,6,6,6,6,6,6,6,6,6,6,6,6,6,6,6,6,6,6,6,8),(0.,
    6.505046559204E-02,8.875771257811E-02,0.104749857875,0.143186294607,
    0.195276823776,0.249598468923,0.287000054935,0.305133980336,
    0.356807783705,0.39522862913,0.411281694739,0.435166483676,
    0.457843092194,0.499876081619,0.542259444017,0.564630399645,
    0.588330744909,0.604318833812,0.642748551612,0.694835573398,
    0.750174020283,0.787137464771,0.805271696109,0.856945272273,
    0.895364510814,0.911416569313,0.93529971876,1.),.UNSPECIFIED.);
#204 = CARTESIAN_POINT('',(2.846868205453,120.));
#205 = CARTESIAN_POINT('',(2.846868205453,118.75747380967));
#206 = CARTESIAN_POINT('',(2.848169283713,117.51460494153));
#207 = CARTESIAN_POINT('',(2.850772704793,116.28201283403));
#208 = CARTESIAN_POINT('',(2.85464504012,115.06900107638));
#209 = CARTESIAN_POINT('',(2.859731499045,113.88377757491));
#210 = CARTESIAN_POINT('',(2.865962087831,112.73357098497));
#211 = CARTESIAN_POINT('',(2.875914258426,111.22059105719));
#212 = CARTESIAN_POINT('',(2.878714176433,110.82189563325));
#213 = CARTESIAN_POINT('',(2.881652183285,110.42889748679));
#214 = CARTESIAN_POINT('',(2.884724620504,110.04184994362));
#215 = CARTESIAN_POINT('',(2.887927809122,109.66098687673));
#216 = CARTESIAN_POINT('',(2.891258090237,109.28652463425));
#217 = CARTESIAN_POINT('',(2.897041671159,108.6705170088));
#218 = CARTESIAN_POINT('',(2.899427669088,108.4253743003));
#219 = CARTESIAN_POINT('',(2.901868754083,108.18329741398));
#220 = CARTESIAN_POINT('',(2.904363827874,107.94434520503));
#221 = CARTESIAN_POINT('',(2.906911802229,107.70857400406));
#222 = CARTESIAN_POINT('',(2.909511601999,107.47603780952));
#223 = CARTESIAN_POINT('',(2.918532690509,106.69579752881));
#224 = CARTESIAN_POINT('',(2.925196333525,106.16380543232));
#225 = CARTESIAN_POINT('',(2.932138555827,105.65151415209));
#226 = CARTESIAN_POINT('',(2.939345050238,105.15958886684));
#227 = CARTESIAN_POINT('',(2.946801774015,104.68866186631));
#228 = CARTESIAN_POINT('',(2.954494979074,104.23933644514));
#229 = CARTESIAN_POINT('',(2.973139664791,103.23330667665));
#230 = CARTESIAN_POINT('',(2.984277421447,102.69517802326));
#231 = CARTESIAN_POINT('',(2.995790780158,102.19925486748));
#232 = CARTESIAN_POINT('',(3.007645339789,101.74698215427));
#233 = CARTESIAN_POINT('',(3.019805660659,101.3397586242));
#234 = CARTESIAN_POINT('',(3.032234736815,100.97888793328));
#235 = CARTESIAN_POINT('',(3.058094068958,100.33873415325));
#236 = CARTESIAN_POINT('',(3.071545245678,100.0635864202));
#237 = CARTESIAN_POINT('',(3.085200216406,99.841449932569));
#238 = CARTESIAN_POINT('',(3.099011132457,99.673416864458));
#239 = CARTESIAN_POINT('',(3.112928597001,99.56028472095));
#240 = CARTESIAN_POINT('',(3.126901164548,99.502500197901));
#241 = CARTESIAN_POINT('',(3.150495708418,99.498384303496));
#242 = CARTESIAN_POINT('',(3.160117850303,99.522943957215));
#243 = CARTESIAN_POINT('',(3.169723714102,99.573746006955));
#244 = CARTESIAN_POINT('',(3.179296342735,99.650701345578));
#245 = CARTESIAN_POINT('',(3.188819127887,99.753633892486));
#246 = CARTESIAN_POINT('',(3.198275741181,99.88228714912));
#247 = CARTESIAN_POINT('',(3.212195147885,100.11101783446));
#248 = CARTESIAN_POINT('',(3.216720938175,100.19167428316));
#249 = CARTESIAN_POINT('',(3.221225632586,100.27826308295));
#250 = CARTESIAN_POINT('',(3.225707464519,100.37074370267));
#251 = CARTESIAN_POINT('',(3.230164701647,100.4690724389));
#252 = CARTESIAN_POINT('',(3.23459564316,100.57320275732));
#253 = CARTESIAN_POINT('',(3.251545178201,100.9962040593));
#254 = CARTESIAN_POINT('',(3.263864346059,101.35602619053));
#255 = CARTESIAN_POINT('',(3.275917868033,101.7614226506));
#256 = CARTESIAN_POINT('',(3.287669656982,102.21111863792));
#257 = CARTESIAN_POINT('',(3.299085134259,102.70374804935));
#258 = CARTESIAN_POINT('',(3.310130723233,103.23790031558));
#259 = CARTESIAN_POINT('',(3.328686675491,104.2391372403));
#260 = CARTESIAN_POINT('',(3.336376974979,104.68827701118));
#261 = CARTESIAN_POINT('',(3.34383098395,105.15900173428));
#262 = CARTESIAN_POINT('',(3.351034970478,105.65070882463));
#263 = CARTESIAN_POINT('',(3.357974908593,106.1627667574));
#264 = CARTESIAN_POINT('',(3.364636508383,106.69451118582));
#265 = CARTESIAN_POINT('',(3.373666243353,107.47534798902));
#266 = CARTESIAN_POINT('',(3.376276090336,107.70876722333));
#267 = CARTESIAN_POINT('',(3.378833715901,107.94544631501));
#268 = CARTESIAN_POINT('',(3.38133803251,108.18533064456));
#269 = CARTESIAN_POINT('',(3.383787939338,108.42836322384));
#270 = CARTESIAN_POINT('',(3.386182325377,108.67448449988));
#271 = CARTESIAN_POINT('',(3.391998323938,109.29433015438));
#272 = CARTESIAN_POINT('',(3.395351185509,109.67172720216));
#273 = CARTESIAN_POINT('',(3.398574977075,110.05561788323));
#274 = CARTESIAN_POINT('',(3.401665956013,110.4457806912));
#275 = CARTESIAN_POINT('',(3.404620359484,110.84197602889));
#276 = CARTESIAN_POINT('',(3.407434446652,111.24394420517));
#277 = CARTESIAN_POINT('',(3.412639571985,112.03825187295));
#278 = CARTESIAN_POINT('',(3.415044810749,112.43005016276));
#279 = CARTESIAN_POINT('',(3.417317100489,112.82655486895));
#280 = CARTESIAN_POINT('',(3.419453343046,113.2275048302));
#281 = CARTESIAN_POINT('',(3.421450546583,113.63261962248));
#282 = CARTESIAN_POINT('',(3.42330587334,114.04159802555));
#283 = CARTESIAN_POINT('',(3.428187824253,115.21875394425));
#284 = CARTESIAN_POINT('',(3.430862767837,115.99563047817));
#285 = CARTESIAN_POINT('',(3.433024125236,116.78258344493));
#286 = CARTESIAN_POINT('',(3.434657944086,117.57731225361));
#287 = CARTESIAN_POINT('',(3.435754116823,118.37737305871));
#288 = CARTESIAN_POINT('',(3.436307106857,119.18017029671));
#289 = CARTESIAN_POINT('',(3.436326968925,120.79241150376));
#290 = CARTESIAN_POINT('',(3.435784750573,121.6019836009));
#291 = CARTESIAN_POINT('',(3.434690122397,122.40883090221));
#292 = CARTESIAN_POINT('',(3.433048686032,123.21029088275));
#293 = CARTESIAN_POINT('',(3.430870773692,124.00385710322));
#294 = CARTESIAN_POINT('',(3.428170694677,124.78717058373));
#295 = CARTESIAN_POINT('',(3.423274972101,125.96488426023));
#296 = CARTESIAN_POINT('',(3.421443036298,126.36830225967));
#297 = CARTESIAN_POINT('',(3.419473045261,126.76795810715));
#298 = CARTESIAN_POINT('',(3.417367723663,127.16356264504));
#299 = CARTESIAN_POINT('',(3.415129942169,127.55484641481));
#300 = CARTESIAN_POINT('',(3.412762672763,127.94155822374));
#301 = CARTESIAN_POINT('',(3.407627026065,128.72806385812));
#302 = CARTESIAN_POINT('',(3.404843170817,129.12726975851));
#303 = CARTESIAN_POINT('',(3.401920968272,129.52080526913));
#304 = CARTESIAN_POINT('',(3.398864071954,129.90841575755));
#305 = CARTESIAN_POINT('',(3.39567615806,130.28986616952));
#306 = CARTESIAN_POINT('',(3.392360884537,130.66493909576));
#307 = CARTESIAN_POINT('',(3.386601901365,131.28201616787));
#308 = CARTESIAN_POINT('',(3.384225634586,131.52760522114));
#309 = CARTESIAN_POINT('',(3.381794155287,131.77013813637));
#310 = CARTESIAN_POINT('',(3.379308562135,132.00955579964));
#311 = CARTESIAN_POINT('',(3.376769943897,132.245801651));
#312 = CARTESIAN_POINT('',(3.374179376346,132.47882149012));
#313 = CARTESIAN_POINT('',(3.36518878921,133.26078139117));
#314 = CARTESIAN_POINT('',(3.358545780375,133.79404852202));
#315 = CARTESIAN_POINT('',(3.351623446825,134.30766021258));
#316 = CARTESIAN_POINT('',(3.344436107492,134.80094960033));
#317 = CARTESIAN_POINT('',(3.336997813256,135.27328334998));
#318 = CARTESIAN_POINT('',(3.329322314124,135.72405758131));
#319 = CARTESIAN_POINT('',(3.31071645882,136.73366043417));
#320 = CARTESIAN_POINT('',(3.299599134794,137.27393903604));
#321 = CARTESIAN_POINT('',(3.288104769523,137.77207903842));
#322 = CARTESIAN_POINT('',(3.276267729255,138.22663440694));
#323 = CARTESIAN_POINT('',(3.264123399795,138.63620450911));
#324 = CARTESIAN_POINT('',(3.25170871181,138.99948252864));
#325 = CARTESIAN_POINT('',(3.225627540463,139.65085528413));
#326 = CARTESIAN_POINT('',(3.211930356212,139.93286508501));
#327 = CARTESIAN_POINT('',(3.198020531989,140.15988120972));
#328 = CARTESIAN_POINT('',(3.183948630318,140.33074455639));
#329 = CARTESIAN_POINT('',(3.169766864822,140.4446126606));
#330 = CARTESIAN_POINT('',(3.155529647571,140.50102095853));
#331 = CARTESIAN_POINT('',(3.1317858221,140.49930001603));
#332 = CARTESIAN_POINT('',(3.122277501946,140.4729830851));
#333 = CARTESIAN_POINT('',(3.112786137396,140.42103953697));
#334 = CARTESIAN_POINT('',(3.10332808857,140.343559572));
#335 = CARTESIAN_POINT('',(3.093919376937,140.24071614793));
#336 = CARTESIAN_POINT('',(3.08457575104,140.11275867771));
#337 = CARTESIAN_POINT('',(3.070768333638,139.88506676326));
#338 = CARTESIAN_POINT('',(3.066243271462,139.80415833772));
#339 = CARTESIAN_POINT('',(3.061739368607,139.71731857284));
#340 = CARTESIAN_POINT('',(3.057258390937,139.62458809633));
#341 = CARTESIAN_POINT('',(3.052802070014,139.52601069986));
#342 = CARTESIAN_POINT('',(3.048372105864,139.42163299747));
#343 = CARTESIAN_POINT('',(3.031426832378,138.99769123439));
#344 = CARTESIAN_POINT('',(3.019111370908,138.6371876748));
#345 = CARTESIAN_POINT('',(3.007062013305,138.23112426286));
#346 = CARTESIAN_POINT('',(2.995314828837,137.78077676584));
#347 = CARTESIAN_POINT('',(2.983904383998,137.28751191624));
#348 = CARTESIAN_POINT('',(2.972864248383,136.75274069741));
#349 = CARTESIAN_POINT('',(2.954318830373,135.75046980855));
#350 = CARTESIAN_POINT('',(2.946633408982,135.30090927512));
#351 = CARTESIAN_POINT('',(2.939184492875,134.8297749039));
#352 = CARTESIAN_POINT('',(2.931985815286,134.33766947923));
#353 = CARTESIAN_POINT('',(2.925051405293,133.8252248575));
#354 = CARTESIAN_POINT('',(2.918395556976,133.29310590036));
#355 = CARTESIAN_POINT('',(2.909374355207,132.51176120099));
#356 = CARTESIAN_POINT('',(2.906767099749,132.27819808583));
#357 = CARTESIAN_POINT('',(2.904212103607,132.04137756326));
#358 = CARTESIAN_POINT('',(2.901710454571,131.80135431435));
#359 = CARTESIAN_POINT('',(2.899263253692,131.55818539694));
#360 = CARTESIAN_POINT('',(2.896871612164,131.31193044249));
#361 = CARTESIAN_POINT('',(2.89106255836,130.69176124002));
#362 = CARTESIAN_POINT('',(2.887713942456,130.31417773057));
#363 = CARTESIAN_POINT('',(2.884494481109,129.93010703602));
#364 = CARTESIAN_POINT('',(2.881407916965,129.53977099113));
#365 = CARTESIAN_POINT('',(2.878458012351,129.14340955887));
#366 = CARTESIAN_POINT('',(2.87564850694,128.74128283541));
#367 = CARTESIAN_POINT('',(2.865762328842,127.22944400544));
#368 = CARTESIAN_POINT('',(2.859595614236,126.0844700491));
#369 = CARTESIAN_POINT('',(2.85456227272,124.90500243945));
#370 = CARTESIAN_POINT('',(2.850730966909,123.69817413135));
#371 = CARTESIAN_POINT('',(2.84815537945,122.47207583216));
#372 = CARTESIAN_POINT('',(2.846868205453,121.23586913475));
#373 = CARTESIAN_POINT('',(2.846868205453,120.));
#374 = ( GEOMETRIC_REPRESENTATION_CONTEXT(2) 
PARAMETRIC_REPRESENTATION_CONTEXT() REPRESENTATION_CONTEXT('2D SPACE',''
  ) );
#375 = PCURVE('',#376,#384);
#376 = SURFACE_OF_LINEAR_EXTRUSION('',#377,#382);
#377 = ELLIPSE('',#378,30.5,20.5);
#378 = AXIS2_PLACEMENT_3D('',#379,#380,#381);
#379 = CARTESIAN_POINT('',(0.,0.,-150.));
#380 = DIRECTION('',(0.,0.,1.));
#381 = DIRECTION('',(1.,0.,0.));
#382 = VECTOR('',#383,1.);
#383 = DIRECTION('',(-0.,-0.,-1.));
#384 = DEFINITIONAL_REPRESENTATION('',(#385),#556);
#385 = B_SPLINE_CURVE_WITH_KNOTS('',7,(#386,#387,#388,#389,#390,#391,
    #392,#393,#394,#395,#396,#397,#398,#399,#400,#401,#402,#403,#404,
    #405,#406,#407,#408,#409,#410,#411,#412,#413,#414,#415,#416,#417,
    #418,#419,#420,#421,#422,#423,#424,#425,#426,#427,#428,#429,#430,
    #431,#432,#433,#434,#435,#436,#437,#438,#439,#440,#441,#442,#443,
    #444,#445,#446,#447,#448,#449,#450,#451,#452,#453,#454,#455,#456,
    #457,#458,#459,#460,#461,#462,#463,#464,#465,#466,#467,#468,#469,
    #470,#471,#472,#473,#474,#475,#476,#477,#478,#479,#480,#481,#482,
    #483,#484,#485,#486,#487,#488,#489,#490,#491,#492,#493,#494,#495,
    #496,#497,#498,#499,#500,#501,#502,#503,#504,#505,#506,#507,#508,
    #509,#510,#511,#512,#513,#514,#515,#516,#517,#518,#519,#520,#521,
    #522,#523,#524,#525,#526,#527,#528,#529,#530,#531,#532,#533,#534,
    #535,#536,#537,#538,#539,#540,#541,#542,#543,#544,#545,#546,#547,
    #548,#549,#550,#551,#552,#553,#554,#555),.UNSPECIFIED.,.F.,.F.,(8,6,
    6,6,6,6,6,6,6,6,6,6,6,6,6,6,6,6,6,6,6,6,6,6,6,6,6,6,8),(0.,
    6.505046559204E-02,8.875771257811E-02,0.104749857875,0.143186294607,
    0.195276823776,0.249598468923,0.287000054935,0.305133980336,
    0.356807783705,0.39522862913,0.411281694739,0.435166483676,
    0.457843092194,0.499876081619,0.542259444017,0.564630399645,
    0.588330744909,0.604318833812,0.642748551612,0.694835573398,
    0.750174020283,0.787137464771,0.805271696109,0.856945272273,
    0.895364510814,0.911416569313,0.93529971876,1.),.UNSPECIFIED.);
#386 = CARTESIAN_POINT('',(6.28318530718,-216.5273669101));
#387 = CARTESIAN_POINT('',(6.222574273505,-216.5273669101));
#388 = CARTESIAN_POINT('',(6.161946534509,-216.4876841624));
#389 = CARTESIAN_POINT('',(6.101456341052,-216.4082790498));
#390 = CARTESIAN_POINT('',(6.041193253267,-216.2912466015));
#391 = CARTESIAN_POINT('',(5.981219842134,-216.1403959133));
#392 = CARTESIAN_POINT('',(5.92158190587,-215.9606619858));
#393 = CARTESIAN_POINT('',(5.840721797508,-215.6836091259));
#394 = CARTESIAN_POINT('',(5.819170218866,-215.6064983946));
#395 = CARTESIAN_POINT('',(5.7976649503,-215.5265391954));
#396 = CARTESIAN_POINT('',(5.776205554627,-215.4440006911));
#397 = CARTESIAN_POINT('',(5.754791100142,-215.3591571969));
#398 = CARTESIAN_POINT('',(5.733420200616,-215.2722854207));
#399 = CARTESIAN_POINT('',(5.697703100794,-215.1238789984));
#400 = CARTESIAN_POINT('',(5.683334160628,-215.0632991665));
#401 = CARTESIAN_POINT('',(5.668983677959,-215.0020070916));
#402 = CARTESIAN_POINT('',(5.654651038107,-214.9400877554));
#403 = CARTESIAN_POINT('',(5.640335569641,-214.8776259901));
#404 = CARTESIAN_POINT('',(5.626036545481,-214.814706231));
#405 = CARTESIAN_POINT('',(5.577423735998,-214.5992879437));
#406 = CARTESIAN_POINT('',(5.543185509413,-214.445005085));
#407 = CARTESIAN_POINT('',(5.509026604652,-214.2897236854));
#408 = CARTESIAN_POINT('',(5.474935261609,-214.134589211));
#409 = CARTESIAN_POINT('',(5.440899722752,-213.9807209281));
#410 = CARTESIAN_POINT('',(5.406908096215,-213.8292002286));
#411 = CARTESIAN_POINT('',(5.326924494257,-213.4802922353));
#412 = CARTESIAN_POINT('',(5.280960565964,-213.2857392834));
#413 = CARTESIAN_POINT('',(5.235027285077,-213.099974968));
#414 = CARTESIAN_POINT('',(5.189101613603,-212.9254422727));
#415 = CARTESIAN_POINT('',(5.143165413247,-212.7643992358));
#416 = CARTESIAN_POINT('',(5.097205614798,-212.6188603817));
#417 = CARTESIAN_POINT('',(5.003256106968,-212.3567084347));
#418 = CARTESIAN_POINT('',(4.955260723891,-212.2415927127));
#419 = CARTESIAN_POINT('',(4.907230059356,-212.1471472416));
#420 = CARTESIAN_POINT('',(4.859166361162,-212.0749345935));
#421 = CARTESIAN_POINT('',(4.811074888254,-212.026053067));
#422 = CARTESIAN_POINT('',(4.762966374601,-212.0010805122));
#423 = CARTESIAN_POINT('',(4.68173902916,-211.9993017433));
#424 = CARTESIAN_POINT('',(4.648616431787,-212.0099153833));
#425 = CARTESIAN_POINT('',(4.615498413011,-212.0318744703));
#426 = CARTESIAN_POINT('',(4.582389024134,-212.0650590824));
#427 = CARTESIAN_POINT('',(4.549291329518,-212.1092292716));
#428 = CARTESIAN_POINT('',(4.516207820296,-212.1640314446));
#429 = CARTESIAN_POINT('',(4.467108503433,-212.2605066439));
#430 = CARTESIAN_POINT('',(4.451079878375,-212.2943998873));
#431 = CARTESIAN_POINT('',(4.435055096993,-212.3306323249));
#432 = CARTESIAN_POINT('',(4.419034201764,-212.3691462132));
#433 = CARTESIAN_POINT('',(4.403017141296,-212.4098785448));
#434 = CARTESIAN_POINT('',(4.387003778057,-212.4527613795));
#435 = CARTESIAN_POINT('',(4.3253726931,-212.6258408901));
#436 = CARTESIAN_POINT('',(4.279780827967,-212.7708296986));
#437 = CARTESIAN_POINT('',(4.234211790512,-212.9310126477));
#438 = CARTESIAN_POINT('',(4.188652693822,-213.104417439));
#439 = CARTESIAN_POINT('',(4.143085744385,-213.2888368689));
#440 = CARTESIAN_POINT('',(4.097488396993,-213.4818850274));
#441 = CARTESIAN_POINT('',(4.017885595032,-213.8291314078));
#442 = CARTESIAN_POINT('',(3.983907270696,-213.9805914025));
#443 = CARTESIAN_POINT('',(3.949885073742,-214.1343976028));
#444 = CARTESIAN_POINT('',(3.915807126675,-214.2894699038));
#445 = CARTESIAN_POINT('',(3.881661685506,-214.444690384));
#446 = CARTESIAN_POINT('',(3.847437003081,-214.5989149554));
#447 = CARTESIAN_POINT('',(3.798783299692,-214.8145231949));
#448 = CARTESIAN_POINT('',(3.784429628065,-214.8776847135));
#449 = CARTESIAN_POINT('',(3.770059386654,-214.9403848158));
#450 = CARTESIAN_POINT('',(3.755671839988,-215.0025380931));
#451 = CARTESIAN_POINT('',(3.741266309133,-215.0640587341));
#452 = CARTESIAN_POINT('',(3.726842172807,-215.1248607771));
#453 = CARTESIAN_POINT('',(3.690909186509,-215.2741266475));
#454 = CARTESIAN_POINT('',(3.669377103787,-215.3616138919));
#455 = CARTESIAN_POINT('',(3.647800781708,-215.4470374925));
#456 = CARTESIAN_POINT('',(3.626178809087,-215.5301144741));
#457 = CARTESIAN_POINT('',(3.604510243951,-215.6105643604));
#458 = CARTESIAN_POINT('',(3.582794655319,-215.6881120462));
#459 = CARTESIAN_POINT('',(3.54037050139,-215.8331069488));
#460 = CARTESIAN_POINT('',(3.519666546708,-215.9008667243));
#461 = CARTESIAN_POINT('',(3.498920537963,-215.9655414548));
#462 = CARTESIAN_POINT('',(3.478133139052,-216.0269095451));
#463 = CARTESIAN_POINT('',(3.457305510521,-216.0847594164));
#464 = CARTESIAN_POINT('',(3.436439379361,-216.1388925757));
#465 = CARTESIAN_POINT('',(3.376793003079,-216.2822398083));
#466 = CARTESIAN_POINT('',(3.337920879564,-216.3619660059));
#467 = CARTESIAN_POINT('',(3.298941146509,-216.4271272496));
#468 = CARTESIAN_POINT('',(3.259875150617,-216.4767646942));
#469 = CARTESIAN_POINT('',(3.220746696233,-216.510195975));
#470 = CARTESIAN_POINT('',(3.181584360081,-216.5270620667));
#471 = CARTESIAN_POINT('',(3.102938420325,-216.5276678596));
#472 = CARTESIAN_POINT('',(3.06344860525,-216.5111303091));
#473 = CARTESIAN_POINT('',(3.023992631837,-216.47774153));
#474 = CARTESIAN_POINT('',(2.984599822584,-216.4278643082));
#475 = CARTESIAN_POINT('',(2.945294583375,-216.3621961632));
#476 = CARTESIAN_POINT('',(2.906098811362,-216.2817206947));
#477 = CARTESIAN_POINT('',(2.846413852097,-216.1379939482));
#478 = CARTESIAN_POINT('',(2.825829448931,-216.0845491281));
#479 = CARTESIAN_POINT('',(2.805282523916,-216.0274887147));
#480 = CARTESIAN_POINT('',(2.784774734246,-215.9670032986));
#481 = CARTESIAN_POINT('',(2.764307200548,-215.903295868));
#482 = CARTESIAN_POINT('',(2.743880572213,-215.8365789383));
#483 = CARTESIAN_POINT('',(2.701898210113,-215.6934339704));
#484 = CARTESIAN_POINT('',(2.680347497195,-215.6166643837));
#485 = CARTESIAN_POINT('',(2.658843096199,-215.5370233559));
#486 = CARTESIAN_POINT('',(2.637384609989,-215.4547794051));
#487 = CARTESIAN_POINT('',(2.615971142844,-215.3702063536));
#488 = CARTESIAN_POINT('',(2.594601341221,-215.2835805484));
#489 = CARTESIAN_POINT('',(2.558885776289,-215.1355423899));
#490 = CARTESIAN_POINT('',(2.544517197278,-215.0750982593));
#491 = CARTESIAN_POINT('',(2.530167149412,-215.0139305053));
#492 = CARTESIAN_POINT('',(2.51583502571,-214.9521240616));
#493 = CARTESIAN_POINT('',(2.50152016149,-214.8897637307));
#494 = CARTESIAN_POINT('',(2.487221835538,-214.8269339345));
#495 = CARTESIAN_POINT('',(2.438609032248,-214.6117708061));
#496 = CARTESIAN_POINT('',(2.404370604133,-214.4575980001));
#497 = CARTESIAN_POINT('',(2.37021214922,-214.3023603233));
#498 = CARTESIAN_POINT('',(2.336121942164,-214.1472039079));
#499 = CARTESIAN_POINT('',(2.302088234448,-213.9932490126));
#500 = CARTESIAN_POINT('',(2.268099118843,-213.8415782933));
#501 = CARTESIAN_POINT('',(2.188117994621,-213.4921495049));
#502 = CARTESIAN_POINT('',(2.142154618005,-213.2971754522));
#503 = CARTESIAN_POINT('',(2.096222958231,-213.1108821355));
#504 = CARTESIAN_POINT('',(2.050299809976,-212.9357181065));
#505 = CARTESIAN_POINT('',(2.00436684869,-212.7739483378));
#506 = CARTESIAN_POINT('',(1.958410783472,-212.6275958719));
#507 = CARTESIAN_POINT('',(1.863568406349,-212.3610940209));
#508 = CARTESIAN_POINT('',(1.814674861187,-212.2431409878));
#509 = CARTESIAN_POINT('',(1.765744690011,-212.1466071765));
#510 = CARTESIAN_POINT('',(1.716780208941,-212.0731524245));
#511 = CARTESIAN_POINT('',(1.667786910592,-212.0239367155));
#512 = CARTESIAN_POINT('',(1.618776165639,-211.9995587706));
#513 = CARTESIAN_POINT('',(1.537035087662,-212.0003025132));
#514 = CARTESIAN_POINT('',(1.504300339951,-212.0116756944));
#515 = CARTESIAN_POINT('',(1.471570316585,-212.0341232235));
#516 = CARTESIAN_POINT('',(1.438848908447,-212.0675236444));
#517 = CARTESIAN_POINT('',(1.406139051037,-212.1116411643));
#518 = CARTESIAN_POINT('',(1.373443115294,-212.166131781));
#519 = CARTESIAN_POINT('',(1.324730610815,-212.262152639));
#520 = CARTESIAN_POINT('',(1.308701627511,-212.2961455415));
#521 = CARTESIAN_POINT('',(1.292676490264,-212.3324758051));
#522 = CARTESIAN_POINT('',(1.276655239126,-212.3710855304));
#523 = CARTESIAN_POINT('',(1.260637820171,-212.411911561));
#524 = CARTESIAN_POINT('',(1.244624093195,-212.4548858146));
#525 = CARTESIAN_POINT('',(1.182992547199,-212.6283052231));
#526 = CARTESIAN_POINT('',(1.137400534029,-212.7735245737));
#527 = CARTESIAN_POINT('',(1.09183121198,-212.9339147433));
#528 = CARTESIAN_POINT('',(1.046271632081,-213.1075009399));
#529 = CARTESIAN_POINT('',(1.00070394801,-213.2920738737));
#530 = CARTESIAN_POINT('',(0.955105566534,-213.4852459047));
#531 = CARTESIAN_POINT('',(0.875501630347,-213.8326485959));
#532 = CARTESIAN_POINT('',(0.841523368022,-213.9841546306));
#533 = CARTESIAN_POINT('',(0.807501038315,-214.1379889514));
#534 = CARTESIAN_POINT('',(0.77342275856,-214.2930710302));
#535 = CARTESIAN_POINT('',(0.739276786534,-214.4482825962));
#536 = CARTESIAN_POINT('',(0.705051384158,-214.6024793031));
#537 = CARTESIAN_POINT('',(0.656396715515,-214.8180196243));
#538 = CARTESIAN_POINT('',(0.642042941677,-214.8811568718));
#539 = CARTESIAN_POINT('',(0.627672570197,-214.9438293785));
#540 = CARTESIAN_POINT('',(0.613284867246,-215.0059517339));
#541 = CARTESIAN_POINT('',(0.598879155789,-215.0674381298));
#542 = CARTESIAN_POINT('',(0.584454816726,-215.1282026126));
#543 = CARTESIAN_POINT('',(0.548521404086,-215.277366299));
#544 = CARTESIAN_POINT('',(0.526989074047,-215.3647849359));
#545 = CARTESIAN_POINT('',(0.50541246998,-215.4501326945));
#546 = CARTESIAN_POINT('',(0.483790190164,-215.5331266827));
#547 = CARTESIAN_POINT('',(0.462121303116,-215.6134865464));
#548 = CARTESIAN_POINT('',(0.440405389602,-215.6909373484));
#549 = CARTESIAN_POINT('',(0.359686390302,-215.9664262672));
#550 = CARTESIAN_POINT('',(0.300359080468,-216.1444264935));
#551 = CARTESIAN_POINT('',(0.24070065816,-216.2937481583));
#552 = CARTESIAN_POINT('',(0.180756660281,-216.4095520815));
#553 = CARTESIAN_POINT('',(0.120589054747,-216.4881082366));
#554 = CARTESIAN_POINT('',(6.028629925608E-02,-216.5273669101));
#555 = CARTESIAN_POINT('',(0.,-216.5273669101));
#556 = ( GEOMETRIC_REPRESENTATION_CONTEXT(2) 
PARAMETRIC_REPRESENTATION_CONTEXT() REPRESENTATION_CONTEXT('2D SPACE',''
  ) );
#557 = ADVANCED_FACE('',(#558),#376,.F.);
#558 = FACE_BOUND('',#559,.F.);
#559 = EDGE_LOOP('',(#560,#1089,#1110,#1111));
#560 = ORIENTED_EDGE('',*,*,#561,.T.);
#561 = EDGE_CURVE('',#562,#562,#564,.T.);
#562 = VERTEX_POINT('',#563);
#563 = CARTESIAN_POINT('',(30.5,0.,66.127366910188));
#564 = SURFACE_CURVE('',#565,(#736,#910),.PCURVE_S1.);
#565 = B_SPLINE_CURVE_WITH_KNOTS('',7,(#566,#567,#568,#569,#570,#571,
    #572,#573,#574,#575,#576,#577,#578,#579,#580,#581,#582,#583,#584,
    #585,#586,#587,#588,#589,#590,#591,#592,#593,#594,#595,#596,#597,
    #598,#599,#600,#601,#602,#603,#604,#605,#606,#607,#608,#609,#610,
    #611,#612,#613,#614,#615,#616,#617,#618,#619,#620,#621,#622,#623,
    #624,#625,#626,#627,#628,#629,#630,#631,#632,#633,#634,#635,#636,
    #637,#638,#639,#640,#641,#642,#643,#644,#645,#646,#647,#648,#649,
    #650,#651,#652,#653,#654,#655,#656,#657,#658,#659,#660,#661,#662,
    #663,#664,#665,#666,#667,#668,#669,#670,#671,#672,#673,#674,#675,
    #676,#677,#678,#679,#680,#681,#682,#683,#684,#685,#686,#687,#688,
    #689,#690,#691,#692,#693,#694,#695,#696,#697,#698,#699,#700,#701,
    #702,#703,#704,#705,#706,#707,#708,#709,#710,#711,#712,#713,#714,
    #715,#716,#717,#718,#719,#720,#721,#722,#723,#724,#725,#726,#727,
    #728,#729,#730,#731,#732,#733,#734,#735),.UNSPECIFIED.,.T.,.F.,(8,6,
    6,6,6,6,6,6,6,6,6,6,6,6,6,6,6,6,6,6,6,6,6,6,6,6,6,6,8),(0.,
    6.505046559207E-02,8.875771257807E-02,0.104749857875,0.143186294607,
    0.195276823776,0.249598468923,0.28700005494,0.30513398034,
    0.35680778371,0.395228629135,0.411281694744,0.435166483681,
    0.457843092199,0.499876081624,0.542259444038,0.564630399667,
    0.588330744931,0.604318833834,0.642748551635,0.694835573421,
    0.750174020306,0.787137464807,0.805271696145,0.856945272309,
    0.89536451085,0.911416569348,0.935299718795,1.),.UNSPECIFIED.);
#566 = CARTESIAN_POINT('',(30.5,-3.552713678801E-15,66.127366910188));
#567 = CARTESIAN_POINT('',(30.5,-1.24252619033,66.127366910188));
#568 = CARTESIAN_POINT('',(30.369277217725,-2.48539505848,
    66.087684162405));
#569 = CARTESIAN_POINT('',(30.107704767401,-3.717987165986,
    66.008279049853));
#570 = CARTESIAN_POINT('',(29.718315470061,-4.93099892363,
    65.891246601503));
#571 = CARTESIAN_POINT('',(29.205963156995,-6.116222425105,
    65.740395913333));
#572 = CARTESIAN_POINT('',(28.576891375519,-7.266429015051,
    65.560661985843));
#573 = CARTESIAN_POINT('',(27.569309840135,-8.779408942834,
    65.283609125928));
#574 = CARTESIAN_POINT('',(27.2856099641,-9.178104366771,65.206498394664
    ));
#575 = CARTESIAN_POINT('',(26.987659183422,-9.571102513236,
    65.126539195438));
#576 = CARTESIAN_POINT('',(26.675786848175,-9.958150056408,
    65.044000691127));
#577 = CARTESIAN_POINT('',(26.350325021264,-10.33901312329,
    64.959157196915));
#578 = CARTESIAN_POINT('',(26.011605081139,-10.71347536577,
    64.872285420733));
#579 = CARTESIAN_POINT('',(25.422742049424,-11.32948299122,
    64.723878998444));
#580 = CARTESIAN_POINT('',(25.179645982477,-11.57462569971,
    64.663299166501));
#581 = CARTESIAN_POINT('',(24.930766647142,-11.81670258604,
    64.602007091658));
#582 = CARTESIAN_POINT('',(24.676204275016,-12.05565479499,
    64.540087755475));
#583 = CARTESIAN_POINT('',(24.416058563429,-12.29142599595,
    64.477625990095));
#584 = CARTESIAN_POINT('',(24.150428433058,-12.52396219049,
    64.414706231041));
#585 = CARTESIAN_POINT('',(23.228034873133,-13.30420247121,
    64.199287943759));
#586 = CARTESIAN_POINT('',(22.545556308653,-13.8361945677,
    64.045005085076));
#587 = CARTESIAN_POINT('',(21.833318235681,-14.34848584792,
    63.889723685438));
#588 = CARTESIAN_POINT('',(21.09266071258,-14.84041113317,
    63.734589211028));
#589 = CARTESIAN_POINT('',(20.324921475907,-15.3113381337,
    63.580720928142));
#590 = CARTESIAN_POINT('',(19.531435703844,-15.76066355487,
    63.429200228604));
#591 = CARTESIAN_POINT('',(17.605086519427,-16.76669332336,
    63.080292235335));
#592 = CARTESIAN_POINT('',(16.451832393284,-17.30482197674,
    62.885739283465));
#593 = CARTESIAN_POINT('',(15.25712182358,-17.80074513252,
    62.699974968068));
#594 = CARTESIAN_POINT('',(14.024472143807,-18.25301784574,
    62.525442272746));
#595 = CARTESIAN_POINT('',(12.757616443282,-18.6602413758,
    62.364399235862));
#596 = CARTESIAN_POINT('',(11.46055549307,-19.02111206672,
    62.218860381772));
#597 = CARTESIAN_POINT('',(8.758010464677,-19.66126584675,
    61.956708434739));
#598 = CARTESIAN_POINT('',(7.350174176015,-19.9364135798,61.841592712714
    ));
#599 = CARTESIAN_POINT('',(5.919230227009,-20.15855006743,61.74714724163
    ));
#600 = CARTESIAN_POINT('',(4.470539236242,-20.32658313554,
    61.674934593587));
#601 = CARTESIAN_POINT('',(3.0097079657,-20.43971527905,61.626053067026)
  );
#602 = CARTESIAN_POINT('',(1.542605964681,-20.4974998021,61.601080512275
    ));
#603 = CARTESIAN_POINT('',(-0.93482050328,-20.5016156965,61.599301743375
    ));
#604 = CARTESIAN_POINT('',(-1.945153348678,-20.47705604277,
    61.609915383341));
#605 = CARTESIAN_POINT('',(-2.953632225631,-20.42625399302,
    61.631874470324));
#606 = CARTESIAN_POINT('',(-3.958323944213,-20.34929865437,
    61.66505908251));
#607 = CARTESIAN_POINT('',(-4.957338435058,-20.24636610744,
    61.709229271666));
#608 = CARTESIAN_POINT('',(-5.948827742165,-20.11771285077,
    61.764031444672));
#609 = CARTESIAN_POINT('',(-7.407177836047,-19.88898216537,
    61.860506643974));
#610 = CARTESIAN_POINT('',(-7.881182348826,-19.80832571666,
    61.894399887373));
#611 = CARTESIAN_POINT('',(-8.352796064096,-19.72173691686,
    61.930632325057));
#612 = CARTESIAN_POINT('',(-8.821821390206,-19.62925629713,
    61.969146213296));
#613 = CARTESIAN_POINT('',(-9.28806544743,-19.53092756089,
    62.009878544962));
#614 = CARTESIAN_POINT('',(-9.751339881587,-19.42679724247,
    62.052761379682));
#615 = CARTESIAN_POINT('',(-11.52260490144,-19.00379594045,
    62.225840890255));
#616 = CARTESIAN_POINT('',(-12.80811065395,-18.64397380918,
    62.370829698748));
#617 = CARTESIAN_POINT('',(-14.06376566029,-18.23857734909,
    62.531012647841));
#618 = CARTESIAN_POINT('',(-15.28567077701,-17.78888136175,
    62.70441743922));
#619 = CARTESIAN_POINT('',(-16.47018526463,-17.29625195029,
    62.888836869066));
#620 = CARTESIAN_POINT('',(-17.61387686916,-16.76209968404,
    63.08188502757));
#621 = CARTESIAN_POINT('',(-19.53105840501,-15.76086275927,
    63.429131408022));
#622 = CARTESIAN_POINT('',(-20.32424512737,-15.31172298837,
    63.58059140266));
#623 = CARTESIAN_POINT('',(-21.09170602591,-14.84099826526,
    63.734397602947));
#624 = CARTESIAN_POINT('',(-21.83210747849,-14.34929117489,
    63.889469904018));
#625 = CARTESIAN_POINT('',(-22.54411332525,-13.8372332421,
    64.044690384244));
#626 = CARTESIAN_POINT('',(-23.22638509919,-13.30548881366,
    64.198914955628));
#627 = CARTESIAN_POINT('',(-24.14966660543,-12.52465201045,
    64.414523195126));
#628 = CARTESIAN_POINT('',(-24.41632363579,-12.29123277613,
    64.477684713709));
#629 = CARTESIAN_POINT('',(-24.67745432349,-12.05455368445,
    64.54038481597));
#630 = CARTESIAN_POINT('',(-24.93295860798,-11.81466935489,
    64.602538093256));
#631 = CARTESIAN_POINT('',(-25.18273563987,-11.5716367756,
    64.664058734312));
#632 = CARTESIAN_POINT('',(-25.42668402818,-11.32551549956,
    64.724860777334));
#633 = CARTESIAN_POINT('',(-26.01884074536,-10.70566984504,
    64.874126647726));
#634 = CARTESIAN_POINT('',(-26.35985058681,-10.32827279725,
    64.961613892037));
#635 = CARTESIAN_POINT('',(-26.68739687742,-9.944382116181,
    65.047037492649));
#636 = CARTESIAN_POINT('',(-27.00114067686,-9.554219308211,
    65.130114474237));
#637 = CARTESIAN_POINT('',(-27.30074237666,-9.158023970517,
    65.210564360525));
#638 = CARTESIAN_POINT('',(-27.58586523818,-8.756055794227,
    65.288112046353));
#639 = CARTESIAN_POINT('',(-28.11281916253,-7.961748126434,
    65.433106948953));
#640 = CARTESIAN_POINT('',(-28.35611069797,-7.569949836616,
    65.50086672449));
#641 = CARTESIAN_POINT('',(-28.58576974436,-7.173445130417,
    65.565541454956));
#642 = CARTESIAN_POINT('',(-28.80151832444,-6.77249516917,
    65.626909545273));
#643 = CARTESIAN_POINT('',(-29.00308835541,-6.36738037688,
    65.684759416523));
#644 = CARTESIAN_POINT('',(-29.19022572828,-5.958401973808,65.7388925758
    ));
#645 = CARTESIAN_POINT('',(-29.68237946326,-4.7812460551,65.882239808461
    ));
#646 = CARTESIAN_POINT('',(-29.95169841913,-4.004369521172,
    65.961966006054));
#647 = CARTESIAN_POINT('',(-30.1690864157,-3.21741655441,66.027127249654
    ));
#648 = CARTESIAN_POINT('',(-30.33329946885,-2.422687745727,
    66.07676469426));
#649 = CARTESIAN_POINT('',(-30.44343537551,-1.622626940622,
    66.110195975081));
#650 = CARTESIAN_POINT('',(-30.49899578919,-0.81982970263,
    66.127062066797));
#651 = CARTESIAN_POINT('',(-30.5009913834,0.79241150475,66.127667859625)
  );
#652 = CARTESIAN_POINT('',(-30.44651322638,1.601983602214,
    66.111130309103));
#653 = CARTESIAN_POINT('',(-30.33653390754,2.408830903844,66.07774152995
    ));
#654 = CARTESIAN_POINT('',(-30.17155775824,3.21029088469,66.027864308088
    ));
#655 = CARTESIAN_POINT('',(-29.95250699386,4.00385710546,65.962196163067
    ));
#656 = CARTESIAN_POINT('',(-29.68065731611,4.787170586257,
    65.881720694469));
#657 = CARTESIAN_POINT('',(-29.18710800739,5.964884263013,
    65.737993947841));
#658 = CARTESIAN_POINT('',(-29.00232827336,6.368302262437,
    65.684549127805));
#659 = CARTESIAN_POINT('',(-28.8035043593,6.767958109902,65.627488714352
    ));
#660 = CARTESIAN_POINT('',(-28.59088025066,7.163562647774,
    65.567003298208));
#661 = CARTESIAN_POINT('',(-28.36471317301,7.554846417518,
    65.503295867593));
#662 = CARTESIAN_POINT('',(-28.12526977634,7.941558226432,
    65.436578937913));
#663 = CARTESIAN_POINT('',(-27.60537322213,8.728063860763,
    65.293433969959));
#664 = CARTESIAN_POINT('',(-27.3233284458,9.127269761126,65.216664383214
    ));
#665 = CARTESIAN_POINT('',(-27.02701051746,9.520805271716,65.13702335543
    ));
#666 = CARTESIAN_POINT('',(-26.71674828626,9.908415760109,
    65.054779404609));
#667 = CARTESIAN_POINT('',(-26.39287349287,10.289866172045,
    64.970206353056));
#668 = CARTESIAN_POINT('',(-26.05571733889,10.664939098256,
    64.883580547871));
#669 = CARTESIAN_POINT('',(-25.46942508252,11.282016170317,
    64.735542389378));
#670 = CARTESIAN_POINT('',(-25.22734825692,11.527605223561,
    64.675098258728));
#671 = CARTESIAN_POINT('',(-24.97947708742,11.77013813877,
    64.613930504746));
#672 = CARTESIAN_POINT('',(-24.72591180243,12.009555802017,
    64.55212406106));
#673 = CARTESIAN_POINT('',(-24.46675210388,12.245801653353,
    64.489763730166));
#674 = CARTESIAN_POINT('',(-24.20209692034,12.478821492443,
    64.426933933901));
#675 = CARTESIAN_POINT('',(-23.28293272255,13.260781393403,
    64.211770805496));
#676 = CARTESIAN_POINT('',(-22.60265083003,13.794048524186,
    64.057597999521));
#677 = CARTESIAN_POINT('',(-21.89254104574,14.307660214682,
    63.902360322725));
#678 = CARTESIAN_POINT('',(-21.15394357444,14.800949602366,
    63.74720390735));
#679 = CARTESIAN_POINT('',(-20.38819579245,15.273283351937,
    63.593249012031));
#680 = CARTESIAN_POINT('',(-19.5966317777,15.724057583201,
    63.441578292667));
#681 = CARTESIAN_POINT('',(-17.67452087124,16.73366043587,
    63.092149504386));
#682 = CARTESIAN_POINT('',(-16.52351433868,17.273939037629,
    62.897175451618));
#683 = CARTESIAN_POINT('',(-15.33090548759,17.7720790399,62.710882135032
    ));
#684 = CARTESIAN_POINT('',(-14.10020438725,18.226634408302,
    62.535718105985));
#685 = CARTESIAN_POINT('',(-12.83513483515,18.636204510347,
    62.373948337405));
#686 = CARTESIAN_POINT('',(-11.53968621615,18.999482529757,
    62.227595871524));
#687 = CARTESIAN_POINT('',(-8.81416150726,19.650855284981,
    61.961094020637));
#688 = CARTESIAN_POINT('',(-7.380631721199,19.932865085724,
    61.843140987589));
#689 = CARTESIAN_POINT('',(-5.922991597102,20.159881210295,
    61.746607176275));
#690 = CARTESIAN_POINT('',(-4.446904963855,20.330744556823,
    61.673152424349));
#691 = CARTESIAN_POINT('',(-2.958299402717,20.444612660892,
    61.623936715445));
#692 = CARTESIAN_POINT('',(-1.463384297634,20.501020958675,
    61.599558770571));
#693 = CARTESIAN_POINT('',(1.029717266211,20.499300015938,
    61.600302513292));
#694 = CARTESIAN_POINT('',(2.02808759755,20.472983084893,61.611675694502
    ));
#695 = CARTESIAN_POINT('',(3.024526677548,20.421039536635,
    61.634123223676));
#696 = CARTESIAN_POINT('',(4.017169587279,20.343559571519,
    61.667523644668));
#697 = CARTESIAN_POINT('',(5.004193376711,20.240716147281,
    61.711641164659));
#698 = CARTESIAN_POINT('',(5.983816009516,20.112758676885,
    61.766131781452));
#699 = CARTESIAN_POINT('',(7.430411544985,19.885066762166,
    61.862152639519));
#700 = CARTESIAN_POINT('',(7.904332270086,19.804158336559,
    61.896145542007));
#701 = CARTESIAN_POINT('',(8.375855094453,19.71731857161,61.93247580571)
  );
#702 = CARTESIAN_POINT('',(8.844782533379,19.624588095023,
    61.971085531004));
#703 = CARTESIAN_POINT('',(9.310921819094,19.52601069849,62.011911561649
    ));
#704 = CARTESIAN_POINT('',(9.774084713656,19.421632996023,
    62.054885815289));
#705 = CARTESIAN_POINT('',(11.544866883853,18.997691232685,
    62.228305223825));
#706 = CARTESIAN_POINT('',(12.829954861142,18.637187672901,
    62.373524574459));
#707 = CARTESIAN_POINT('',(14.085142398038,18.231124260781,
    62.533914744141));
#708 = CARTESIAN_POINT('',(15.306533176827,17.780776763573,
    62.707500940842));
#709 = CARTESIAN_POINT('',(16.490488735849,17.287511913796,
    62.89207387466));
#710 = CARTESIAN_POINT('',(17.633578563083,16.752740694791,
    63.085245905661));
#711 = CARTESIAN_POINT('',(19.549607660684,15.750469805646,
    63.432648596919));
#712 = CARTESIAN_POINT('',(20.342264059809,15.300909272102,
    63.584154631617));
#713 = CARTESIAN_POINT('',(21.109173825914,14.829774900765,
    63.737988952443));
#714 = CARTESIAN_POINT('',(21.849003576272,14.337669475979,
    63.89307103123));
#715 = CARTESIAN_POINT('',(22.560417178923,13.825224854148,
    64.048282597267));
#716 = CARTESIAN_POINT('',(23.24207604947,13.293105896896,
    64.202479304103));
#717 = CARTESIAN_POINT('',(24.164453313133,12.511761197391,
    64.418019625312));
#718 = CARTESIAN_POINT('',(24.430836446103,12.278198082182,
    64.481156872867));
#719 = CARTESIAN_POINT('',(24.691689814147,12.041377559579,
    64.54382937951));
#720 = CARTESIAN_POINT('',(24.946913348062,11.801354310623,
    64.605951734933));
#721 = CARTESIAN_POINT('',(25.196406190636,11.558185393179,
    64.667438130807));
#722 = CARTESIAN_POINT('',(25.440066945212,11.31193043869,
    64.728202613538));
#723 = CARTESIAN_POINT('',(26.031497405239,10.69176123613,
    64.877366299944));
#724 = CARTESIAN_POINT('',(26.372064601711,10.31417772663,
    64.964784936823));
#725 = CARTESIAN_POINT('',(26.699160771425,9.930107032025,
    65.050132695452));
#726 = CARTESIAN_POINT('',(27.012446998632,9.539770987088,
    65.133126683566));
#727 = CARTESIAN_POINT('',(27.311583742352,9.143409554783,
    65.213486547229));
#728 = CARTESIAN_POINT('',(27.596234384662,8.741282831283,
    65.290937349231));
#729 = CARTESIAN_POINT('',(28.597059523299,7.229444001731,
    65.566426267846));
#730 = CARTESIAN_POINT('',(29.219650472573,6.084470045911,
    65.744426493986));
#731 = CARTESIAN_POINT('',(29.726638256841,4.905002436867,
    65.893748158557));
#732 = CARTESIAN_POINT('',(30.111898277254,3.698174129345,
    66.009552081645));
#733 = CARTESIAN_POINT('',(30.370674217125,2.47207583084,66.088108236736
    ));
#734 = CARTESIAN_POINT('',(30.5,1.23586913408,66.127366910188));
#735 = CARTESIAN_POINT('',(30.5,0.,66.127366910188));
#736 = PCURVE('',#376,#737);
#737 = DEFINITIONAL_REPRESENTATION('',(#738),#909);
#738 = B_SPLINE_CURVE_WITH_KNOTS('',7,(#739,#740,#741,#742,#743,#744,
    #745,#746,#747,#748,#749,#750,#751,#752,#753,#754,#755,#756,#757,
    #758,#759,#760,#761,#762,#763,#764,#765,#766,#767,#768,#769,#770,
    #771,#772,#773,#774,#775,#776,#777,#778,#779,#780,#781,#782,#783,
    #784,#785,#786,#787,#788,#789,#790,#791,#792,#793,#794,#795,#796,
    #797,#798,#799,#800,#801,#802,#803,#804,#805,#806,#807,#808,#809,
    #810,#811,#812,#813,#814,#815,#816,#817,#818,#819,#820,#821,#822,
    #823,#824,#825,#826,#827,#828,#829,#830,#831,#832,#833,#834,#835,
    #836,#837,#838,#839,#840,#841,#842,#843,#844,#845,#846,#847,#848,
    #849,#850,#851,#852,#853,#854,#855,#856,#857,#858,#859,#860,#861,
    #862,#863,#864,#865,#866,#867,#868,#869,#870,#871,#872,#873,#874,
    #875,#876,#877,#878,#879,#880,#881,#882,#883,#884,#885,#886,#887,
    #888,#889,#890,#891,#892,#893,#894,#895,#896,#897,#898,#899,#900,
    #901,#902,#903,#904,#905,#906,#907,#908),.UNSPECIFIED.,.F.,.F.,(8,6,
    6,6,6,6,6,6,6,6,6,6,6,6,6,6,6,6,6,6,6,6,6,6,6,6,6,6,8),(0.,
    6.505046559207E-02,8.875771257807E-02,0.104749857875,0.143186294607,
    0.195276823776,0.249598468923,0.28700005494,0.30513398034,
    0.35680778371,0.395228629135,0.411281694744,0.435166483681,
    0.457843092199,0.499876081624,0.542259444038,0.564630399667,
    0.588330744931,0.604318833834,0.642748551635,0.694835573421,
    0.750174020306,0.787137464807,0.805271696145,0.856945272309,
    0.89536451085,0.911416569348,0.935299718795,1.),.UNSPECIFIED.);
#739 = CARTESIAN_POINT('',(6.28318530718,-216.1273669101));
#740 = CARTESIAN_POINT('',(6.222574273505,-216.1273669101));
#741 = CARTESIAN_POINT('',(6.161946534508,-216.0876841624));
#742 = CARTESIAN_POINT('',(6.101456341052,-216.0082790498));
#743 = CARTESIAN_POINT('',(6.041193253265,-215.8912466015));
#744 = CARTESIAN_POINT('',(5.981219842133,-215.7403959133));
#745 = CARTESIAN_POINT('',(5.921581905869,-215.5606619858));
#746 = CARTESIAN_POINT('',(5.840721797507,-215.2836091259));
#747 = CARTESIAN_POINT('',(5.819170218864,-215.2064983946));
#748 = CARTESIAN_POINT('',(5.797664950298,-215.1265391954));
#749 = CARTESIAN_POINT('',(5.776205554625,-215.0440006911));
#750 = CARTESIAN_POINT('',(5.75479110014,-214.9591571969));
#751 = CARTESIAN_POINT('',(5.733420200615,-214.8722854207));
#752 = CARTESIAN_POINT('',(5.697703100792,-214.7238789984));
#753 = CARTESIAN_POINT('',(5.683334160626,-214.6632991665));
#754 = CARTESIAN_POINT('',(5.668983677958,-214.6020070916));
#755 = CARTESIAN_POINT('',(5.654651038105,-214.5400877554));
#756 = CARTESIAN_POINT('',(5.640335569639,-214.47762599));
#757 = CARTESIAN_POINT('',(5.626036545479,-214.414706231));
#758 = CARTESIAN_POINT('',(5.577423735997,-214.1992879437));
#759 = CARTESIAN_POINT('',(5.543185509412,-214.045005085));
#760 = CARTESIAN_POINT('',(5.50902660465,-213.8897236854));
#761 = CARTESIAN_POINT('',(5.474935261607,-213.734589211));
#762 = CARTESIAN_POINT('',(5.44089972275,-213.5807209281));
#763 = CARTESIAN_POINT('',(5.406908096213,-213.4292002286));
#764 = CARTESIAN_POINT('',(5.326924494255,-213.0802922353));
#765 = CARTESIAN_POINT('',(5.280960565963,-212.8857392834));
#766 = CARTESIAN_POINT('',(5.235027285075,-212.699974968));
#767 = CARTESIAN_POINT('',(5.189101613601,-212.5254422727));
#768 = CARTESIAN_POINT('',(5.143165413246,-212.3643992358));
#769 = CARTESIAN_POINT('',(5.097205614796,-212.2188603817));
#770 = CARTESIAN_POINT('',(5.003256106966,-211.9567084347));
#771 = CARTESIAN_POINT('',(4.955260723889,-211.8415927127));
#772 = CARTESIAN_POINT('',(4.907230059354,-211.7471472416));
#773 = CARTESIAN_POINT('',(4.85916636116,-211.6749345935));
#774 = CARTESIAN_POINT('',(4.811074888253,-211.626053067));
#775 = CARTESIAN_POINT('',(4.7629663746,-211.6010805122));
#776 = CARTESIAN_POINT('',(4.681739029154,-211.5993017433));
#777 = CARTESIAN_POINT('',(4.648616431777,-211.6099153833));
#778 = CARTESIAN_POINT('',(4.615498412996,-211.6318744703));
#779 = CARTESIAN_POINT('',(4.582389024115,-211.6650590825));
#780 = CARTESIAN_POINT('',(4.549291329494,-211.7092292716));
#781 = CARTESIAN_POINT('',(4.516207820268,-211.7640314446));
#782 = CARTESIAN_POINT('',(4.467108503401,-211.8605066439));
#783 = CARTESIAN_POINT('',(4.451079878343,-211.8943998873));
#784 = CARTESIAN_POINT('',(4.435055096962,-211.930632325));
#785 = CARTESIAN_POINT('',(4.419034201732,-211.9691462132));
#786 = CARTESIAN_POINT('',(4.403017141264,-212.0098785449));
#787 = CARTESIAN_POINT('',(4.387003778025,-212.0527613796));
#788 = CARTESIAN_POINT('',(4.325372693068,-212.2258408902));
#789 = CARTESIAN_POINT('',(4.279780827935,-212.3708296987));
#790 = CARTESIAN_POINT('',(4.23421179048,-212.5310126478));
#791 = CARTESIAN_POINT('',(4.18865269379,-212.7044174392));
#792 = CARTESIAN_POINT('',(4.143085744353,-212.888836869));
#793 = CARTESIAN_POINT('',(4.097488396961,-213.0818850275));
#794 = CARTESIAN_POINT('',(4.017885595,-213.429131408));
#795 = CARTESIAN_POINT('',(3.983907270664,-213.5805914026));
#796 = CARTESIAN_POINT('',(3.949885073709,-213.7343976029));
#797 = CARTESIAN_POINT('',(3.915807126643,-213.889469904));
#798 = CARTESIAN_POINT('',(3.881661685473,-214.0446903842));
#799 = CARTESIAN_POINT('',(3.847437003049,-214.1989149556));
#800 = CARTESIAN_POINT('',(3.798783299659,-214.4145231951));
#801 = CARTESIAN_POINT('',(3.784429628033,-214.4776847137));
#802 = CARTESIAN_POINT('',(3.770059386621,-214.5403848159));
#803 = CARTESIAN_POINT('',(3.755671839956,-214.6025380932));
#804 = CARTESIAN_POINT('',(3.7412663091,-214.6640587343));
#805 = CARTESIAN_POINT('',(3.726842172774,-214.7248607773));
#806 = CARTESIAN_POINT('',(3.690909186477,-214.8741266477));
#807 = CARTESIAN_POINT('',(3.669377103754,-214.961613892));
#808 = CARTESIAN_POINT('',(3.647800781676,-215.0470374926));
#809 = CARTESIAN_POINT('',(3.626178809054,-215.1301144742));
#810 = CARTESIAN_POINT('',(3.604510243919,-215.2105643605));
#811 = CARTESIAN_POINT('',(3.582794655287,-215.2881120463));
#812 = CARTESIAN_POINT('',(3.540370501358,-215.4331069489));
#813 = CARTESIAN_POINT('',(3.519666546675,-215.5008667244));
#814 = CARTESIAN_POINT('',(3.498920537931,-215.5655414549));
#815 = CARTESIAN_POINT('',(3.47813313902,-215.6269095452));
#816 = CARTESIAN_POINT('',(3.457305510489,-215.6847594165));
#817 = CARTESIAN_POINT('',(3.436439379329,-215.7388925758));
#818 = CARTESIAN_POINT('',(3.376793003046,-215.8822398084));
#819 = CARTESIAN_POINT('',(3.337920879532,-215.961966006));
#820 = CARTESIAN_POINT('',(3.298941146477,-216.0271272496));
#821 = CARTESIAN_POINT('',(3.259875150584,-216.0767646942));
#822 = CARTESIAN_POINT('',(3.2207466962,-216.110195975));
#823 = CARTESIAN_POINT('',(3.181584360049,-216.1270620667));
#824 = CARTESIAN_POINT('',(3.102938420277,-216.1276678596));
#825 = CARTESIAN_POINT('',(3.063448605186,-216.1111303091));
#826 = CARTESIAN_POINT('',(3.023992631757,-216.0777415299));
#827 = CARTESIAN_POINT('',(2.984599822489,-216.027864308));
#828 = CARTESIAN_POINT('',(2.945294583264,-215.962196163));
#829 = CARTESIAN_POINT('',(2.906098811235,-215.8817206944));
#830 = CARTESIAN_POINT('',(2.846413851955,-215.7379939478));
#831 = CARTESIAN_POINT('',(2.825829448789,-215.6845491278));
#832 = CARTESIAN_POINT('',(2.805282523774,-215.6274887143));
#833 = CARTESIAN_POINT('',(2.784774734104,-215.5670032982));
#834 = CARTESIAN_POINT('',(2.764307200406,-215.5032958675));
#835 = CARTESIAN_POINT('',(2.743880572071,-215.4365789379));
#836 = CARTESIAN_POINT('',(2.70189820997,-215.2934339699));
#837 = CARTESIAN_POINT('',(2.680347497053,-215.2166643832));
#838 = CARTESIAN_POINT('',(2.658843096056,-215.1370233554));
#839 = CARTESIAN_POINT('',(2.637384609847,-215.0547794046));
#840 = CARTESIAN_POINT('',(2.615971142701,-214.970206353));
#841 = CARTESIAN_POINT('',(2.594601341079,-214.8835805478));
#842 = CARTESIAN_POINT('',(2.558885776146,-214.7355423893));
#843 = CARTESIAN_POINT('',(2.544517197136,-214.6750982587));
#844 = CARTESIAN_POINT('',(2.530167149269,-214.6139305047));
#845 = CARTESIAN_POINT('',(2.515835025568,-214.552124061));
#846 = CARTESIAN_POINT('',(2.501520161348,-214.4897637301));
#847 = CARTESIAN_POINT('',(2.487221835395,-214.4269339339));
#848 = CARTESIAN_POINT('',(2.438609032105,-214.2117708054));
#849 = CARTESIAN_POINT('',(2.404370603991,-214.0575979995));
#850 = CARTESIAN_POINT('',(2.370212149078,-213.9023603227));
#851 = CARTESIAN_POINT('',(2.336121942021,-213.7472039073));
#852 = CARTESIAN_POINT('',(2.302088234306,-213.593249012));
#853 = CARTESIAN_POINT('',(2.2680991187,-213.4415782926));
#854 = CARTESIAN_POINT('',(2.188117994478,-213.0921495043));
#855 = CARTESIAN_POINT('',(2.142154617862,-212.8971754516));
#856 = CARTESIAN_POINT('',(2.096222958088,-212.710882135));
#857 = CARTESIAN_POINT('',(2.050299809833,-212.5357181059));
#858 = CARTESIAN_POINT('',(2.004366848546,-212.3739483374));
#859 = CARTESIAN_POINT('',(1.958410783328,-212.2275958715));
#860 = CARTESIAN_POINT('',(1.863568406205,-211.9610940206));
#861 = CARTESIAN_POINT('',(1.814674861044,-211.8431409875));
#862 = CARTESIAN_POINT('',(1.765744689867,-211.7466071762));
#863 = CARTESIAN_POINT('',(1.716780208798,-211.6731524243));
#864 = CARTESIAN_POINT('',(1.667786910449,-211.6239367154));
#865 = CARTESIAN_POINT('',(1.618776165496,-211.5995587705));
#866 = CARTESIAN_POINT('',(1.537035087508,-211.6003025132));
#867 = CARTESIAN_POINT('',(1.504300339787,-211.6116756945));
#868 = CARTESIAN_POINT('',(1.471570316409,-211.6341232236));
#869 = CARTESIAN_POINT('',(1.438848908261,-211.6675236446));
#870 = CARTESIAN_POINT('',(1.406139050839,-211.7116411646));
#871 = CARTESIAN_POINT('',(1.373443115085,-211.7661317814));
#872 = CARTESIAN_POINT('',(1.324730610595,-211.8621526395));
#873 = CARTESIAN_POINT('',(1.308701627291,-211.896145542));
#874 = CARTESIAN_POINT('',(1.292676490044,-211.9324758057));
#875 = CARTESIAN_POINT('',(1.276655238906,-211.971085531));
#876 = CARTESIAN_POINT('',(1.260637819951,-212.0119115616));
#877 = CARTESIAN_POINT('',(1.244624092975,-212.0548858152));
#878 = CARTESIAN_POINT('',(1.182992546979,-212.2283052238));
#879 = CARTESIAN_POINT('',(1.137400533809,-212.3735245744));
#880 = CARTESIAN_POINT('',(1.091831211759,-212.5339147441));
#881 = CARTESIAN_POINT('',(1.04627163186,-212.7075009408));
#882 = CARTESIAN_POINT('',(1.00070394779,-212.8920738746));
#883 = CARTESIAN_POINT('',(0.955105566313,-213.0852459056));
#884 = CARTESIAN_POINT('',(0.875501630126,-213.4326485969));
#885 = CARTESIAN_POINT('',(0.8415233678,-213.5841546316));
#886 = CARTESIAN_POINT('',(0.807501038094,-213.7379889524));
#887 = CARTESIAN_POINT('',(0.773422758339,-213.8930710312));
#888 = CARTESIAN_POINT('',(0.739276786313,-214.0482825972));
#889 = CARTESIAN_POINT('',(0.705051383936,-214.2024793041));
#890 = CARTESIAN_POINT('',(0.656396715292,-214.4180196253));
#891 = CARTESIAN_POINT('',(0.642042941454,-214.4811568728));
#892 = CARTESIAN_POINT('',(0.627672569975,-214.5438293795));
#893 = CARTESIAN_POINT('',(0.613284867024,-214.6059517349));
#894 = CARTESIAN_POINT('',(0.598879155567,-214.6674381308));
#895 = CARTESIAN_POINT('',(0.584454816504,-214.7282026135));
#896 = CARTESIAN_POINT('',(0.548521403863,-214.8773662999));
#897 = CARTESIAN_POINT('',(0.526989073825,-214.9647849368));
#898 = CARTESIAN_POINT('',(0.505412469757,-215.0501326954));
#899 = CARTESIAN_POINT('',(0.483790189941,-215.1331266835));
#900 = CARTESIAN_POINT('',(0.462121302893,-215.2134865472));
#901 = CARTESIAN_POINT('',(0.440405389379,-215.2909373492));
#902 = CARTESIAN_POINT('',(0.359686390109,-215.5664262678));
#903 = CARTESIAN_POINT('',(0.300359080307,-215.7444264939));
#904 = CARTESIAN_POINT('',(0.240700658032,-215.8937481585));
#905 = CARTESIAN_POINT('',(0.180756660182,-216.0095520816));
#906 = CARTESIAN_POINT('',(0.120589054682,-216.0881082367));
#907 = CARTESIAN_POINT('',(6.02862992234E-02,-216.1273669101));
#908 = CARTESIAN_POINT('',(0.,-216.1273669101));
#909 = ( GEOMETRIC_REPRESENTATION_CONTEXT(2) 
PARAMETRIC_REPRESENTATION_CONTEXT() REPRESENTATION_CONTEXT('2D SPACE',''
  ) );
#910 = PCURVE('',#911,#916);
#911 = CYLINDRICAL_SURFACE('',#912,105.);
#912 = AXIS2_PLACEMENT_3D('',#913,#914,#915);
#913 = CARTESIAN_POINT('',(0.,-120.,166.6));
#914 = DIRECTION('',(0.,1.,0.));
#915 = DIRECTION('',(0.,-0.,1.));
#916 = DEFINITIONAL_REPRESENTATION('',(#917),#1088);
#917 = B_SPLINE_CURVE_WITH_KNOTS('',7,(#918,#919,#920,#921,#922,#923,
    #924,#925,#926,#927,#928,#929,#930,#931,#932,#933,#934,#935,#936,
    #937,#938,#939,#940,#941,#942,#943,#944,#945,#946,#947,#948,#949,
    #950,#951,#952,#953,#954,#955,#956,#957,#958,#959,#960,#961,#962,
    #963,#964,#965,#966,#967,#968,#969,#970,#971,#972,#973,#974,#975,
    #976,#977,#978,#979,#980,#981,#982,#983,#984,#985,#986,#987,#988,
    #989,#990,#991,#992,#993,#994,#995,#996,#997,#998,#999,#1000,#1001,
    #1002,#1003,#1004,#1005,#1006,#1007,#1008,#1009,#1010,#1011,#1012,
    #1013,#1014,#1015,#1016,#1017,#1018,#1019,#1020,#1021,#1022,#1023,
    #1024,#1025,#1026,#1027,#1028,#1029,#1030,#1031,#1032,#1033,#1034,
    #1035,#1036,#1037,#1038,#1039,#1040,#1041,#1042,#1043,#1044,#1045,
    #1046,#1047,#1048,#1049,#1050,#1051,#1052,#1053,#1054,#1055,#1056,
    #1057,#1058,#1059,#1060,#1061,#1062,#1063,#1064,#1065,#1066,#1067,
    #1068,#1069,#1070,#1071,#1072,#1073,#1074,#1075,#1076,#1077,#1078,
    #1079,#1080,#1081,#1082,#1083,#1084,#1085,#1086,#1087),
  .UNSPECIFIED.,.T.,.F.,(8,6,6,6,6,6,6,6,6,6,6,6,6,6,6,6,6,6,6,6,6,6,6,6
    ,6,6,6,6,8),(0.,6.505046559207E-02,8.875771257807E-02,0.104749857875
    ,0.143186294607,0.195276823776,0.249598468923,0.28700005494,
    0.30513398034,0.35680778371,0.395228629135,0.411281694744,
    0.435166483681,0.457843092199,0.499876081624,0.542259444038,
    0.564630399667,0.588330744931,0.604318833834,0.642748551635,
    0.694835573421,0.750174020306,0.787137464807,0.805271696145,
    0.856945272309,0.89536451085,0.911416569348,0.935299718795,1.),
  .UNSPECIFIED.);
#918 = CARTESIAN_POINT('',(2.846868205453,120.));
#919 = CARTESIAN_POINT('',(2.846868205453,118.75747380967));
#920 = CARTESIAN_POINT('',(2.848169283713,117.51460494152));
#921 = CARTESIAN_POINT('',(2.850772704793,116.28201283401));
#922 = CARTESIAN_POINT('',(2.85464504012,115.06900107637));
#923 = CARTESIAN_POINT('',(2.859731499045,113.88377757489));
#924 = CARTESIAN_POINT('',(2.865962087831,112.73357098494));
#925 = CARTESIAN_POINT('',(2.875914258426,111.22059105716));
#926 = CARTESIAN_POINT('',(2.878714176433,110.82189563322));
#927 = CARTESIAN_POINT('',(2.881652183286,110.42889748676));
#928 = CARTESIAN_POINT('',(2.884724620504,110.04184994359));
#929 = CARTESIAN_POINT('',(2.887927809122,109.66098687671));
#930 = CARTESIAN_POINT('',(2.891258090237,109.28652463422));
#931 = CARTESIAN_POINT('',(2.897041671159,108.67051700877));
#932 = CARTESIAN_POINT('',(2.899427669088,108.42537430028));
#933 = CARTESIAN_POINT('',(2.901868754083,108.18329741395));
#934 = CARTESIAN_POINT('',(2.904363827874,107.944345205));
#935 = CARTESIAN_POINT('',(2.906911802229,107.70857400404));
#936 = CARTESIAN_POINT('',(2.909511601999,107.4760378095));
#937 = CARTESIAN_POINT('',(2.918532690509,106.69579752879));
#938 = CARTESIAN_POINT('',(2.925196333526,106.16380543229));
#939 = CARTESIAN_POINT('',(2.932138555828,105.65151415207));
#940 = CARTESIAN_POINT('',(2.939345050238,105.15958886682));
#941 = CARTESIAN_POINT('',(2.946801774015,104.68866186629));
#942 = CARTESIAN_POINT('',(2.954494979074,104.23933644512));
#943 = CARTESIAN_POINT('',(2.973139664791,103.23330667663));
#944 = CARTESIAN_POINT('',(2.984277421447,102.69517802325));
#945 = CARTESIAN_POINT('',(2.995790780159,102.19925486747));
#946 = CARTESIAN_POINT('',(3.007645339789,101.74698215425));
#947 = CARTESIAN_POINT('',(3.01980566066,101.33975862419));
#948 = CARTESIAN_POINT('',(3.032234736816,100.97888793327));
#949 = CARTESIAN_POINT('',(3.058094068958,100.33873415324));
#950 = CARTESIAN_POINT('',(3.071545245679,100.0635864202));
#951 = CARTESIAN_POINT('',(3.085200216407,99.841449932563));
#952 = CARTESIAN_POINT('',(3.099011132457,99.673416864453));
#953 = CARTESIAN_POINT('',(3.112928597001,99.560284720947));
#954 = CARTESIAN_POINT('',(3.126901164548,99.502500197899));
#955 = CARTESIAN_POINT('',(3.15049570842,99.498384303497));
#956 = CARTESIAN_POINT('',(3.160117850306,99.522943957224));
#957 = CARTESIAN_POINT('',(3.169723714106,99.573746006979));
#958 = CARTESIAN_POINT('',(3.17929634274,99.650701345622));
#959 = CARTESIAN_POINT('',(3.188819127893,99.753633892559));
#960 = CARTESIAN_POINT('',(3.198275741189,99.882287149228));
#961 = CARTESIAN_POINT('',(3.212195147894,100.11101783462));
#962 = CARTESIAN_POINT('',(3.216720938184,100.19167428333));
#963 = CARTESIAN_POINT('',(3.221225632595,100.27826308313));
#964 = CARTESIAN_POINT('',(3.225707464528,100.37074370286));
#965 = CARTESIAN_POINT('',(3.230164701655,100.4690724391));
#966 = CARTESIAN_POINT('',(3.234595643169,100.57320275753));
#967 = CARTESIAN_POINT('',(3.25154517821,100.99620405954));
#968 = CARTESIAN_POINT('',(3.263864346068,101.35602619081));
#969 = CARTESIAN_POINT('',(3.275917868041,101.76142265091));
#970 = CARTESIAN_POINT('',(3.287669656991,102.21111863825));
#971 = CARTESIAN_POINT('',(3.299085134267,102.7037480497));
#972 = CARTESIAN_POINT('',(3.310130723241,103.23790031596));
#973 = CARTESIAN_POINT('',(3.328686675498,104.23913724072));
#974 = CARTESIAN_POINT('',(3.336376974986,104.68827701162));
#975 = CARTESIAN_POINT('',(3.343830983957,105.15900173473));
#976 = CARTESIAN_POINT('',(3.351034970485,105.6507088251));
#977 = CARTESIAN_POINT('',(3.3579749086,106.16276675789));
#978 = CARTESIAN_POINT('',(3.364636508389,106.69451118633));
#979 = CARTESIAN_POINT('',(3.373666243359,107.47534798954));
#980 = CARTESIAN_POINT('',(3.376276090342,107.70876722386));
#981 = CARTESIAN_POINT('',(3.378833715907,107.94544631554));
#982 = CARTESIAN_POINT('',(3.381338032516,108.1853306451));
#983 = CARTESIAN_POINT('',(3.383787939343,108.42836322439));
#984 = CARTESIAN_POINT('',(3.386182325382,108.67448450043));
#985 = CARTESIAN_POINT('',(3.391998323943,109.29433015495));
#986 = CARTESIAN_POINT('',(3.395351185514,109.67172720274));
#987 = CARTESIAN_POINT('',(3.39857497708,110.05561788381));
#988 = CARTESIAN_POINT('',(3.401665956018,110.44578069178));
#989 = CARTESIAN_POINT('',(3.404620359488,110.84197602948));
#990 = CARTESIAN_POINT('',(3.407434446657,111.24394420577));
#991 = CARTESIAN_POINT('',(3.412639571988,112.03825187356));
#992 = CARTESIAN_POINT('',(3.415044810753,112.43005016338));
#993 = CARTESIAN_POINT('',(3.417317100492,112.82655486958));
#994 = CARTESIAN_POINT('',(3.41945334305,113.22750483083));
#995 = CARTESIAN_POINT('',(3.421450546586,113.63261962312));
#996 = CARTESIAN_POINT('',(3.423305873343,114.04159802619));
#997 = CARTESIAN_POINT('',(3.428187824255,115.2187539449));
#998 = CARTESIAN_POINT('',(3.430862767839,115.99563047882));
#999 = CARTESIAN_POINT('',(3.433024125238,116.78258344559));
#1000 = CARTESIAN_POINT('',(3.434657944087,117.57731225427));
#1001 = CARTESIAN_POINT('',(3.435754116824,118.37737305937));
#1002 = CARTESIAN_POINT('',(3.436307106858,119.18017029737));
#1003 = CARTESIAN_POINT('',(3.436326968925,120.79241150475));
#1004 = CARTESIAN_POINT('',(3.435784750572,121.60198360221));
#1005 = CARTESIAN_POINT('',(3.434690122395,122.40883090384));
#1006 = CARTESIAN_POINT('',(3.433048686028,123.21029088469));
#1007 = CARTESIAN_POINT('',(3.430870773686,124.00385710546));
#1008 = CARTESIAN_POINT('',(3.428170694668,124.78717058625));
#1009 = CARTESIAN_POINT('',(3.423274972089,125.96488426301));
#1010 = CARTESIAN_POINT('',(3.421443036285,126.36830226243));
#1011 = CARTESIAN_POINT('',(3.419473045247,126.7679581099));
#1012 = CARTESIAN_POINT('',(3.417367723648,127.16356264777));
#1013 = CARTESIAN_POINT('',(3.415129942153,127.55484641751));
#1014 = CARTESIAN_POINT('',(3.412762672746,127.94155822643));
#1015 = CARTESIAN_POINT('',(3.407627026047,128.72806386076));
#1016 = CARTESIAN_POINT('',(3.404843170798,129.12726976112));
#1017 = CARTESIAN_POINT('',(3.401920968252,129.52080527171));
#1018 = CARTESIAN_POINT('',(3.398864071933,129.9084157601));
#1019 = CARTESIAN_POINT('',(3.395676158038,130.28986617204));
#1020 = CARTESIAN_POINT('',(3.392360884514,130.66493909825));
#1021 = CARTESIAN_POINT('',(3.386601901341,131.28201617031));
#1022 = CARTESIAN_POINT('',(3.384225634562,131.52760522356));
#1023 = CARTESIAN_POINT('',(3.381794155263,131.77013813877));
#1024 = CARTESIAN_POINT('',(3.37930856211,132.00955580201));
#1025 = CARTESIAN_POINT('',(3.376769943872,132.24580165335));
#1026 = CARTESIAN_POINT('',(3.37417937632,132.47882149244));
#1027 = CARTESIAN_POINT('',(3.365188789182,133.2607813934));
#1028 = CARTESIAN_POINT('',(3.358545780346,133.79404852418));
#1029 = CARTESIAN_POINT('',(3.351623446795,134.30766021468));
#1030 = CARTESIAN_POINT('',(3.344436107462,134.80094960236));
#1031 = CARTESIAN_POINT('',(3.336997813225,135.27328335193));
#1032 = CARTESIAN_POINT('',(3.329322314092,135.7240575832));
#1033 = CARTESIAN_POINT('',(3.310716458785,136.73366043587));
#1034 = CARTESIAN_POINT('',(3.299599134759,137.27393903762));
#1035 = CARTESIAN_POINT('',(3.288104769487,137.7720790399));
#1036 = CARTESIAN_POINT('',(3.276267729218,138.2266344083));
#1037 = CARTESIAN_POINT('',(3.264123399757,138.63620451034));
#1038 = CARTESIAN_POINT('',(3.251708711771,138.99948252975));
#1039 = CARTESIAN_POINT('',(3.225627540422,139.65085528498));
#1040 = CARTESIAN_POINT('',(3.211930356171,139.93286508572));
#1041 = CARTESIAN_POINT('',(3.198020531948,140.15988121029));
#1042 = CARTESIAN_POINT('',(3.183948630277,140.33074455682));
#1043 = CARTESIAN_POINT('',(3.169766864781,140.44461266089));
#1044 = CARTESIAN_POINT('',(3.15552964753,140.50102095867));
#1045 = CARTESIAN_POINT('',(3.131785822055,140.49930001593));
#1046 = CARTESIAN_POINT('',(3.122277501898,140.47298308489));
#1047 = CARTESIAN_POINT('',(3.112786137345,140.42103953663));
#1048 = CARTESIAN_POINT('',(3.103328088516,140.34355957151));
#1049 = CARTESIAN_POINT('',(3.093919376881,140.24071614728));
#1050 = CARTESIAN_POINT('',(3.08457575098,140.11275867688));
#1051 = CARTESIAN_POINT('',(3.070768333576,139.88506676216));
#1052 = CARTESIAN_POINT('',(3.0662432714,139.80415833655));
#1053 = CARTESIAN_POINT('',(3.061739368546,139.71731857161));
#1054 = CARTESIAN_POINT('',(3.057258390876,139.62458809502));
#1055 = CARTESIAN_POINT('',(3.052802069953,139.52601069849));
#1056 = CARTESIAN_POINT('',(3.048372105803,139.42163299602));
#1057 = CARTESIAN_POINT('',(3.031426832319,138.99769123268));
#1058 = CARTESIAN_POINT('',(3.019111370849,138.6371876729));
#1059 = CARTESIAN_POINT('',(3.007062013247,138.23112426078));
#1060 = CARTESIAN_POINT('',(2.995314828781,137.78077676357));
#1061 = CARTESIAN_POINT('',(2.983904383943,137.28751191379));
#1062 = CARTESIAN_POINT('',(2.972864248329,136.75274069479));
#1063 = CARTESIAN_POINT('',(2.954318830323,135.75046980564));
#1064 = CARTESIAN_POINT('',(2.946633408933,135.3009092721));
#1065 = CARTESIAN_POINT('',(2.939184492827,134.82977490076));
#1066 = CARTESIAN_POINT('',(2.93198581524,134.33766947597));
#1067 = CARTESIAN_POINT('',(2.925051405248,133.82522485414));
#1068 = CARTESIAN_POINT('',(2.918395556933,133.29310589689));
#1069 = CARTESIAN_POINT('',(2.909374355166,132.51176119739));
#1070 = CARTESIAN_POINT('',(2.906767099709,132.27819808218));
#1071 = CARTESIAN_POINT('',(2.904212103568,132.04137755957));
#1072 = CARTESIAN_POINT('',(2.901710454532,131.80135431062));
#1073 = CARTESIAN_POINT('',(2.899263253654,131.55818539317));
#1074 = CARTESIAN_POINT('',(2.896871612127,131.31193043869));
#1075 = CARTESIAN_POINT('',(2.891062558326,130.69176123613));
#1076 = CARTESIAN_POINT('',(2.887713942422,130.31417772663));
#1077 = CARTESIAN_POINT('',(2.884494481076,129.93010703202));
#1078 = CARTESIAN_POINT('',(2.881407916933,129.53977098708));
#1079 = CARTESIAN_POINT('',(2.878458012321,129.14340955478));
#1080 = CARTESIAN_POINT('',(2.875648506912,128.74128283128));
#1081 = CARTESIAN_POINT('',(2.865762328822,127.22944400173));
#1082 = CARTESIAN_POINT('',(2.859595614222,126.08447004591));
#1083 = CARTESIAN_POINT('',(2.854562272712,124.90500243686));
#1084 = CARTESIAN_POINT('',(2.850730966905,123.69817412934));
#1085 = CARTESIAN_POINT('',(2.848155379448,122.47207583083));
#1086 = CARTESIAN_POINT('',(2.846868205453,121.23586913408));
#1087 = CARTESIAN_POINT('',(2.846868205453,120.));
#1088 = ( GEOMETRIC_REPRESENTATION_CONTEXT(2) 
PARAMETRIC_REPRESENTATION_CONTEXT() REPRESENTATION_CONTEXT('2D SPACE',''
  ) );
#1089 = ORIENTED_EDGE('',*,*,#1090,.T.);
#1090 = EDGE_CURVE('',#562,#22,#1091,.T.);
#1091 = SEAM_CURVE('',#1092,(#1096,#1103),.PCURVE_S1.);
#1092 = LINE('',#1093,#1094);
#1093 = CARTESIAN_POINT('',(30.5,0.,-150.));
#1094 = VECTOR('',#1095,1.);
#1095 = DIRECTION('',(0.,0.,1.));
#1096 = PCURVE('',#376,#1097);
#1097 = DEFINITIONAL_REPRESENTATION('',(#1098),#1102);
#1098 = LINE('',#1099,#1100);
#1099 = CARTESIAN_POINT('',(6.28318530718,0.));
#1100 = VECTOR('',#1101,1.);
#1101 = DIRECTION('',(0.,-1.));
#1102 = ( GEOMETRIC_REPRESENTATION_CONTEXT(2) 
PARAMETRIC_REPRESENTATION_CONTEXT() REPRESENTATION_CONTEXT('2D SPACE',''
  ) );
#1103 = PCURVE('',#376,#1104);
#1104 = DEFINITIONAL_REPRESENTATION('',(#1105),#1109);
#1105 = LINE('',#1106,#1107);
#1106 = CARTESIAN_POINT('',(0.,0.));
#1107 = VECTOR('',#1108,1.);
#1108 = DIRECTION('',(0.,-1.));
#1109 = ( GEOMETRIC_REPRESENTATION_CONTEXT(2) 
PARAMETRIC_REPRESENTATION_CONTEXT() REPRESENTATION_CONTEXT('2D SPACE',''
  ) );
#1110 = ORIENTED_EDGE('',*,*,#21,.F.);
#1111 = ORIENTED_EDGE('',*,*,#1090,.F.);
#1112 = ADVANCED_FACE('',(#1113),#911,.T.);
#1113 = FACE_BOUND('',#1114,.T.);
#1114 = EDGE_LOOP('',(#1115));
#1115 = ORIENTED_EDGE('',*,*,#561,.T.);
#1116 = ( GEOMETRIC_REPRESENTATION_CONTEXT(3) 
GLOBAL_UNCERTAINTY_ASSIGNED_CONTEXT((#1120)) 
GLOBAL_UNIT_ASSIGNED_CONTEXT((#1117,#1118,#1119)) REPRESENTATION_CONTEXT
('Context #1','3D Context with UNIT and UNCERTAINTY') );
#1117 = ( LENGTH_UNIT() NAMED_UNIT(*) SI_UNIT(.MILLI.,.METRE.) );
#1118 = ( NAMED_UNIT(*) PLANE_ANGLE_UNIT() SI_UNIT($,.RADIAN.) );
#1119 = ( NAMED_UNIT(*) SI_UNIT($,.STERADIAN.) SOLID_ANGLE_UNIT() );
#1120 = UNCERTAINTY_MEASURE_WITH_UNIT(LENGTH_MEASURE(5.E-06),#1117,
  'distance_accuracy_value','confusion accuracy');
#1121 = PRODUCT_RELATED_PRODUCT_CATEGORY('part',$,(#7));
ENDSEC;
END-ISO-10303-21;
