ISO-10303-21;
HEADER;
FILE_DESCRIPTION(('Open CASCADE Model'),'2;1');
FILE_NAME('Open CASCADE Shape Model','2026-08-16T23:33:06',('Author'),(
    'Open CASCADE'),'Open CASCADE STEP processor 7.8','Open CASCADE 7.8'
  ,'Unknown');
FILE_SCHEMA(('AUTOMOTIVE_DESIGN { 1 0 10303 214 1 1 1 1 }'));
ENDSEC;
DATA;
#1 = APPLICATION_PROTOCOL_DEFINITION('international standard',
  'automotive_design',2000,#2);
#2 = APPLICATION_CONTEXT(
  'core data for automotive mechanical design processes');
#3 = SHAPE_DEFINITION_REPRESENTATION(#4,#10);
#4 = PRODUCT_DEFINITION_SHAPE('','',#5);
#5 = PRODUCT_DEFINITION('design','',#6,#9);
#6 = PRODUCT_DEFINITION_FORMATION('','',#7);
#7 = PRODUCT('Open CASCADE STEP translator 7.8 43',
  'Open CASCADE STEP translator 7.8 43','',(#8));
#8 = PRODUCT_CONTEXT('',#2,'mechanical');
#9 = PRODUCT_DEFINITION_CONTEXT('part definition',#2,'design');
#10 = ADVANCED_BREP_SHAPE_REPRESENTATION('',(#11,#15),#1324);
#11 = AXIS2_PLACEMENT_3D('',#12,#13,#14);
#12 = CARTESIAN_POINT('',(0.,0.,0.));
#13 = DIRECTION('',(0.,0.,1.));
#14 = DIRECTION('',(1.,0.,-0.));
#15 = MANIFOLD_SOLID_BREP('',#16);
#16 = CLOSED_SHELL('',(#17,#703,#788,#966,#1021,#1289,#1316));
#17 = ADVANCED_FACE('',(#18),#32,.F.);
#18 = FACE_BOUND('',#19,.F.);
#19 = EDGE_LOOP('',(#20,#55,#83,#425,#453));
#20 = ORIENTED_EDGE('',*,*,#21,.F.);
#21 = EDGE_CURVE('',#22,#24,#26,.T.);
#22 = VERTEX_POINT('',#23);
#23 = CARTESIAN_POINT('',(-1.5,-50.,-82.));
#24 = VERTEX_POINT('',#25);
#25 = CARTESIAN_POINT('',(-1.5,-50.,-55.87316308009));
#26 = SURFACE_CURVE('',#27,(#31,#43),.PCURVE_S1.);
#27 = LINE('',#28,#29);
#28 = CARTESIAN_POINT('',(-1.5,-50.,-82.));
#29 = VECTOR('',#30,1.);
#30 = DIRECTION('',(0.,0.,1.));
#31 = PCURVE('',#32,#37);
#32 = PLANE('',#33);
#33 = AXIS2_PLACEMENT_3D('',#34,#35,#36);
#34 = CARTESIAN_POINT('',(-1.5,-50.,-82.));
#35 = DIRECTION('',(1.,0.,0.));
#36 = DIRECTION('',(0.,0.,1.));
#37 = DEFINITIONAL_REPRESENTATION('',(#38),#42);
#38 = LINE('',#39,#40);
#39 = CARTESIAN_POINT('',(0.,0.));
#40 = VECTOR('',#41,1.);
#41 = DIRECTION('',(1.,0.));
#42 = ( GEOMETRIC_REPRESENTATION_CONTEXT(2) 
PARAMETRIC_REPRESENTATION_CONTEXT() REPRESENTATION_CONTEXT('2D SPACE',''
  ) );
#43 = PCURVE('',#44,#49);
#44 = PLANE('',#45);
#45 = AXIS2_PLACEMENT_3D('',#46,#47,#48);
#46 = CARTESIAN_POINT('',(-1.5,-50.,-82.));
#47 = DIRECTION('',(0.,1.,0.));
#48 = DIRECTION('',(0.,0.,1.));
#49 = DEFINITIONAL_REPRESENTATION('',(#50),#54);
#50 = LINE('',#51,#52);
#51 = CARTESIAN_POINT('',(0.,0.));
#52 = VECTOR('',#53,1.);
#53 = DIRECTION('',(1.,0.));
#54 = ( GEOMETRIC_REPRESENTATION_CONTEXT(2) 
PARAMETRIC_REPRESENTATION_CONTEXT() REPRESENTATION_CONTEXT('2D SPACE',''
  ) );
#55 = ORIENTED_EDGE('',*,*,#56,.T.);
#56 = EDGE_CURVE('',#22,#57,#59,.T.);
#57 = VERTEX_POINT('',#58);
#58 = CARTESIAN_POINT('',(-1.5,-22.87625746282,-82.));
#59 = SURFACE_CURVE('',#60,(#64,#71),.PCURVE_S1.);
#60 = LINE('',#61,#62);
#61 = CARTESIAN_POINT('',(-1.5,-50.,-82.));
#62 = VECTOR('',#63,1.);
#63 = DIRECTION('',(0.,1.,0.));
#64 = PCURVE('',#32,#65);
#65 = DEFINITIONAL_REPRESENTATION('',(#66),#70);
#66 = LINE('',#67,#68);
#67 = CARTESIAN_POINT('',(0.,0.));
#68 = VECTOR('',#69,1.);
#69 = DIRECTION('',(0.,-1.));
#70 = ( GEOMETRIC_REPRESENTATION_CONTEXT(2) 
PARAMETRIC_REPRESENTATION_CONTEXT() REPRESENTATION_CONTEXT('2D SPACE',''
  ) );
#71 = PCURVE('',#72,#77);
#72 = PLANE('',#73);
#73 = AXIS2_PLACEMENT_3D('',#74,#75,#76);
#74 = CARTESIAN_POINT('',(-1.5,-50.,-82.));
#75 = DIRECTION('',(0.,0.,1.));
#76 = DIRECTION('',(1.,0.,0.));
#77 = DEFINITIONAL_REPRESENTATION('',(#78),#82);
#78 = LINE('',#79,#80);
#79 = CARTESIAN_POINT('',(0.,0.));
#80 = VECTOR('',#81,1.);
#81 = DIRECTION('',(0.,1.));
#82 = ( GEOMETRIC_REPRESENTATION_CONTEXT(2) 
PARAMETRIC_REPRESENTATION_CONTEXT() REPRESENTATION_CONTEXT('2D SPACE',''
  ) );
#83 = ORIENTED_EDGE('',*,*,#84,.T.);
#84 = EDGE_CURVE('',#57,#85,#87,.T.);
#85 = VERTEX_POINT('',#86);
#86 = CARTESIAN_POINT('',(-1.5,19.899644004642,-10.));
#87 = SURFACE_CURVE('',#88,(#163,#241),.PCURVE_S1.);
#88 = B_SPLINE_CURVE_WITH_KNOTS('',7,(#89,#90,#91,#92,#93,#94,#95,#96,
    #97,#98,#99,#100,#101,#102,#103,#104,#105,#106,#107,#108,#109,#110,
    #111,#112,#113,#114,#115,#116,#117,#118,#119,#120,#121,#122,#123,
    #124,#125,#126,#127,#128,#129,#130,#131,#132,#133,#134,#135,#136,
    #137,#138,#139,#140,#141,#142,#143,#144,#145,#146,#147,#148,#149,
    #150,#151,#152,#153,#154,#155,#156,#157,#158,#159,#160,#161,#162),
  .UNSPECIFIED.,.F.,.F.,(8,6,6,6,6,6,6,6,6,6,6,6,8),(0.,0.156290345287,
    0.209700293946,0.246978913377,0.310443106007,0.437861819522,
    0.622910549232,0.65699732042,0.688538471198,0.722554792549,
    0.826579851202,0.940818227105,1.),.UNSPECIFIED.);
#89 = CARTESIAN_POINT('',(-1.5,-22.87625746282,-82.));
#90 = CARTESIAN_POINT('',(-1.5,-21.71982630686,-80.52625210817));
#91 = CARTESIAN_POINT('',(-1.5,-20.63049032913,-79.00030695055));
#92 = CARTESIAN_POINT('',(-1.5,-19.60481910544,-77.43046793239));
#93 = CARTESIAN_POINT('',(-1.5,-18.63502856869,-75.82591966623));
#94 = CARTESIAN_POINT('',(-1.5,-17.7108939964,-74.19558839332));
#95 = CARTESIAN_POINT('',(-1.5,-16.82183298611,-72.54683871576));
#96 = CARTESIAN_POINT('',(-1.5,-15.66204771658,-70.31727698562));
#97 = CARTESIAN_POINT('',(-1.5,-15.36954213252,-69.74791548318));
#98 = CARTESIAN_POINT('',(-1.5,-15.07951547274,-69.17728507228));
#99 = CARTESIAN_POINT('',(-1.5,-14.79156931324,-68.60560404104));
#100 = CARTESIAN_POINT('',(-1.5,-14.5053176331,-68.03307712214));
#101 = CARTESIAN_POINT('',(-1.5,-14.22038880291,-67.45989448551));
#102 = CARTESIAN_POINT('',(-1.5,-13.73823074121,-66.48582980702));
#103 = CARTESIAN_POINT('',(-1.5,-13.5405058417,-66.0851955137));
#104 = CARTESIAN_POINT('',(-1.5,-13.34313214433,-65.68438801472));
#105 = CARTESIAN_POINT('',(-1.5,-13.14599350955,-65.28346492288));
#106 = CARTESIAN_POINT('',(-1.5,-12.94897838862,-64.8824813001));
#107 = CARTESIAN_POINT('',(-1.5,-12.75197982355,-64.48148965735));
#108 = CARTESIAN_POINT('',(-1.5,-12.21937334298,-63.39795166276));
#109 = CARTESIAN_POINT('',(-1.5,-11.88360357969,-62.71548645878));
#110 = CARTESIAN_POINT('',(-1.5,-11.54708136865,-62.03339000836));
#111 = CARTESIAN_POINT('',(-1.5,-11.20934511257,-61.35189124637));
#112 = CARTESIAN_POINT('',(-1.5,-10.86997707422,-60.67120204786));
#113 = CARTESIAN_POINT('',(-1.5,-10.52860404522,-59.99151689896));
#114 = CARTESIAN_POINT('',(-1.5,-9.494830460158,-57.95076173916));
#115 = CARTESIAN_POINT('',(-1.5,-8.795345359944,-56.59324475592));
#116 = CARTESIAN_POINT('',(-1.5,-8.083814237893,-55.24194944626));
#117 = CARTESIAN_POINT('',(-1.5,-7.358327723659,-53.89805170365));
#118 = CARTESIAN_POINT('',(-1.5,-6.617698229166,-52.56241432905));
#119 = CARTESIAN_POINT('',(-1.5,-5.861436503939,-51.23559990999));
#120 = CARTESIAN_POINT('',(-1.5,-3.968921041052,-48.00421405045));
#121 = CARTESIAN_POINT('',(-1.5,-2.81539558133,-46.10956038839));
#122 = CARTESIAN_POINT('',(-1.5,-1.62962857267,-44.23487587024));
#123 = CARTESIAN_POINT('',(-1.5,-0.414594417918,-42.37914189184));
#124 = CARTESIAN_POINT('',(-1.5,0.824700762758,-40.53967271074));
#125 = CARTESIAN_POINT('',(-1.5,2.081768320298,-38.71247363616));
#126 = CARTESIAN_POINT('',(-1.5,3.582590196946,-36.55733437202));
#127 = CARTESIAN_POINT('',(-1.5,3.816396164872,-36.22234485971));
#128 = CARTESIAN_POINT('',(-1.5,4.050507170123,-35.88756839517));
#129 = CARTESIAN_POINT('',(-1.5,4.284875779063,-35.55297228974));
#130 = CARTESIAN_POINT('',(-1.5,4.519453540839,-35.21852291843));
#131 = CARTESIAN_POINT('',(-1.5,4.754190987384,-34.88418571993));
#132 = CARTESIAN_POINT('',(-1.5,5.206345791807,-34.24062744856));
#133 = CARTESIAN_POINT('',(-1.5,5.423747492382,-33.93139547183));
#134 = CARTESIAN_POINT('',(-1.5,5.641202748229,-33.62220114583));
#135 = CARTESIAN_POINT('',(-1.5,5.858670984662,-33.31301594414));
#136 = CARTESIAN_POINT('',(-1.5,6.076111039225,-33.00381093451));
#137 = CARTESIAN_POINT('',(-1.5,6.29348116169,-32.69455677887));
#138 = CARTESIAN_POINT('',(-1.5,6.745046030122,-32.05161598525));
#139 = CARTESIAN_POINT('',(-1.5,6.97922251802,-31.71791664659));
#140 = CARTESIAN_POINT('',(-1.5,7.213215343464,-31.38408836224));
#141 = CARTESIAN_POINT('',(-1.5,7.446970810268,-31.05009367083));
#142 = CARTESIAN_POINT('',(-1.5,7.68043466035,-30.71589500473));
#143 = CARTESIAN_POINT('',(-1.5,7.913552073727,-30.38145469001));
#144 = CARTESIAN_POINT('',(-1.5,8.857933493524,-29.0231309949));
#145 = CARTESIAN_POINT('',(-1.5,9.565835362337,-27.99692418183));
#146 = CARTESIAN_POINT('',(-1.5,10.268405322057,-26.96702140697));
#147 = CARTESIAN_POINT('',(-1.5,10.964022110305,-25.93236719786));
#148 = CARTESIAN_POINT('',(-1.5,11.651051316064,-24.89197062171));
#149 = CARTESIAN_POINT('',(-1.5,12.327905904592,-23.84494583764));
#150 = CARTESIAN_POINT('',(-1.5,13.723660601882,-21.6326663684));
#151 = CARTESIAN_POINT('',(-1.5,14.440180529263,-20.46587035021));
#152 = CARTESIAN_POINT('',(-1.5,15.140708008662,-19.28929033956));
#153 = CARTESIAN_POINT('',(-1.5,15.823467268127,-18.10224879231));
#154 = CARTESIAN_POINT('',(-1.5,16.487030537253,-16.90436114444));
#155 = CARTESIAN_POINT('',(-1.5,17.130479122867,-15.6956282373));
#156 = CARTESIAN_POINT('',(-1.5,18.076381597504,-13.84498290715));
#157 = CARTESIAN_POINT('',(-1.5,18.393727960152,-13.21063549268));
#158 = CARTESIAN_POINT('',(-1.5,18.705589485863,-12.5735586302));
#159 = CARTESIAN_POINT('',(-1.5,19.011991868098,-11.93383599561));
#160 = CARTESIAN_POINT('',(-1.5,19.313021690322,-11.29157497096));
#161 = CARTESIAN_POINT('',(-1.5,19.608831353675,-10.64690900937));
#162 = CARTESIAN_POINT('',(-1.5,19.899644004642,-10.));
#163 = PCURVE('',#32,#164);
#164 = DEFINITIONAL_REPRESENTATION('',(#165),#240);
#165 = B_SPLINE_CURVE_WITH_KNOTS('',7,(#166,#167,#168,#169,#170,#171,
    #172,#173,#174,#175,#176,#177,#178,#179,#180,#181,#182,#183,#184,
    #185,#186,#187,#188,#189,#190,#191,#192,#193,#194,#195,#196,#197,
    #198,#199,#200,#201,#202,#203,#204,#205,#206,#207,#208,#209,#210,
    #211,#212,#213,#214,#215,#216,#217,#218,#219,#220,#221,#222,#223,
    #224,#225,#226,#227,#228,#229,#230,#231,#232,#233,#234,#235,#236,
    #237,#238,#239),.UNSPECIFIED.,.F.,.F.,(8,6,6,6,6,6,6,6,6,6,6,6,8),(
    0.,0.156290345287,0.209700293946,0.246978913377,0.310443106007,
    0.437861819522,0.622910549232,0.65699732042,0.688538471198,
    0.722554792549,0.826579851202,0.940818227105,1.),.UNSPECIFIED.);
#166 = CARTESIAN_POINT('',(0.,-27.12374253717));
#167 = CARTESIAN_POINT('',(1.47374789183,-28.28017369313));
#168 = CARTESIAN_POINT('',(2.999693049441,-29.36950967087));
#169 = CARTESIAN_POINT('',(4.569532067606,-30.39518089455));
#170 = CARTESIAN_POINT('',(6.174080333763,-31.3649714313));
#171 = CARTESIAN_POINT('',(7.804411606672,-32.2891060036));
#172 = CARTESIAN_POINT('',(9.453161284233,-33.17816701388));
#173 = CARTESIAN_POINT('',(11.682723014377,-34.33795228341));
#174 = CARTESIAN_POINT('',(12.252084516815,-34.63045786747));
#175 = CARTESIAN_POINT('',(12.822714927711,-34.92048452725));
#176 = CARTESIAN_POINT('',(13.394395958956,-35.20843068675));
#177 = CARTESIAN_POINT('',(13.966922877853,-35.49468236689));
#178 = CARTESIAN_POINT('',(14.540105514481,-35.77961119708));
#179 = CARTESIAN_POINT('',(15.514170192974,-36.26176925878));
#180 = CARTESIAN_POINT('',(15.914804486292,-36.45949415829));
#181 = CARTESIAN_POINT('',(16.315611985278,-36.65686785567));
#182 = CARTESIAN_POINT('',(16.716535077114,-36.85400649044));
#183 = CARTESIAN_POINT('',(17.117518699896,-37.05102161137));
#184 = CARTESIAN_POINT('',(17.518510342643,-37.24802017644));
#185 = CARTESIAN_POINT('',(18.602048337233,-37.78062665701));
#186 = CARTESIAN_POINT('',(19.284513541213,-38.1163964203));
#187 = CARTESIAN_POINT('',(19.966609991636,-38.45291863134));
#188 = CARTESIAN_POINT('',(20.648108753626,-38.79065488742));
#189 = CARTESIAN_POINT('',(21.328797952133,-39.13002292577));
#190 = CARTESIAN_POINT('',(22.008483101034,-39.47139595477));
#191 = CARTESIAN_POINT('',(24.049238260831,-40.50516953984));
#192 = CARTESIAN_POINT('',(25.406755244079,-41.20465464005));
#193 = CARTESIAN_POINT('',(26.758050553734,-41.9161857621));
#194 = CARTESIAN_POINT('',(28.101948296344,-42.64167227634));
#195 = CARTESIAN_POINT('',(29.43758567095,-43.38230177083));
#196 = CARTESIAN_POINT('',(30.764400090008,-44.13856349606));
#197 = CARTESIAN_POINT('',(33.995785949546,-46.03107895894));
#198 = CARTESIAN_POINT('',(35.890439611605,-47.18460441867));
#199 = CARTESIAN_POINT('',(37.765124129757,-48.37037142733));
#200 = CARTESIAN_POINT('',(39.620858108159,-49.58540558208));
#201 = CARTESIAN_POINT('',(41.460327289253,-50.82470076275));
#202 = CARTESIAN_POINT('',(43.287526363837,-52.08176832029));
#203 = CARTESIAN_POINT('',(45.442665627972,-53.58259019694));
#204 = CARTESIAN_POINT('',(45.77765514029,-53.81639616487));
#205 = CARTESIAN_POINT('',(46.11243160483,-54.05050717012));
#206 = CARTESIAN_POINT('',(46.447027710257,-54.28487577906));
#207 = CARTESIAN_POINT('',(46.781477081561,-54.51945354083));
#208 = CARTESIAN_POINT('',(47.115814280062,-54.75419098738));
#209 = CARTESIAN_POINT('',(47.759372551437,-55.2063457918));
#210 = CARTESIAN_POINT('',(48.068604528161,-55.42374749238));
#211 = CARTESIAN_POINT('',(48.377798854162,-55.64120274822));
#212 = CARTESIAN_POINT('',(48.686984055855,-55.85867098466));
#213 = CARTESIAN_POINT('',(48.996189065484,-56.07611103922));
#214 = CARTESIAN_POINT('',(49.305443221125,-56.29348116169));
#215 = CARTESIAN_POINT('',(49.948384014746,-56.74504603012));
#216 = CARTESIAN_POINT('',(50.282083353405,-56.97922251802));
#217 = CARTESIAN_POINT('',(50.615911637755,-57.21321534346));
#218 = CARTESIAN_POINT('',(50.949906329162,-57.44697081026));
#219 = CARTESIAN_POINT('',(51.284104995267,-57.68043466035));
#220 = CARTESIAN_POINT('',(51.618545309989,-57.91355207372));
#221 = CARTESIAN_POINT('',(52.976869005097,-58.85793349352));
#222 = CARTESIAN_POINT('',(54.003075818161,-59.56583536233));
#223 = CARTESIAN_POINT('',(55.032978593022,-60.26840532205));
#224 = CARTESIAN_POINT('',(56.067632802138,-60.9640221103));
#225 = CARTESIAN_POINT('',(57.108029378288,-61.65105131606));
#226 = CARTESIAN_POINT('',(58.155054162353,-62.32790590459));
#227 = CARTESIAN_POINT('',(60.367333631595,-63.72366060188));
#228 = CARTESIAN_POINT('',(61.534129649786,-64.44018052926));
#229 = CARTESIAN_POINT('',(62.710709660438,-65.14070800866));
#230 = CARTESIAN_POINT('',(63.89775120769,-65.82346726812));
#231 = CARTESIAN_POINT('',(65.095638855555,-66.48703053725));
#232 = CARTESIAN_POINT('',(66.304371762697,-67.13047912286));
#233 = CARTESIAN_POINT('',(68.155017092847,-68.0763815975));
#234 = CARTESIAN_POINT('',(68.789364507316,-68.39372796015));
#235 = CARTESIAN_POINT('',(69.426441369795,-68.70558948586));
#236 = CARTESIAN_POINT('',(70.066164004387,-69.01199186809));
#237 = CARTESIAN_POINT('',(70.70842502904,-69.31302169032));
#238 = CARTESIAN_POINT('',(71.353090990622,-69.60883135367));
#239 = CARTESIAN_POINT('',(72.,-69.89964400464));
#240 = ( GEOMETRIC_REPRESENTATION_CONTEXT(2) 
PARAMETRIC_REPRESENTATION_CONTEXT() REPRESENTATION_CONTEXT('2D SPACE',''
  ) );
#241 = PCURVE('',#242,#348);
#242 = ( BOUNDED_SURFACE() B_SPLINE_SURFACE(14,6,(
    (#243,#244,#245,#246,#247,#248,#249)
    ,(#250,#251,#252,#253,#254,#255,#256)
    ,(#257,#258,#259,#260,#261,#262,#263)
    ,(#264,#265,#266,#267,#268,#269,#270)
    ,(#271,#272,#273,#274,#275,#276,#277)
    ,(#278,#279,#280,#281,#282,#283,#284)
    ,(#285,#286,#287,#288,#289,#290,#291)
    ,(#292,#293,#294,#295,#296,#297,#298)
    ,(#299,#300,#301,#302,#303,#304,#305)
    ,(#306,#307,#308,#309,#310,#311,#312)
    ,(#313,#314,#315,#316,#317,#318,#319)
    ,(#320,#321,#322,#323,#324,#325,#326)
    ,(#327,#328,#329,#330,#331,#332,#333)
    ,(#334,#335,#336,#337,#338,#339,#340)
    ,(#341,#342,#343,#344,#345,#346,#347
)),.UNSPECIFIED.,.T.,.F.,.F.) B_SPLINE_SURFACE_WITH_KNOTS((15,15),(7,7),
  (0.,1.),(0.,1.),.PIECEWISE_BEZIER_KNOTS.) 
GEOMETRIC_REPRESENTATION_ITEM() RATIONAL_B_SPLINE_SURFACE((
    (1.,1.,1.,1.,1.,1.,1.)
    ,(1.,1.,1.,1.,1.,1.,1.)
    ,(1.,1.,1.,1.,1.,1.,1.)
    ,(1.,1.,1.,1.,1.,1.,1.)
    ,(1.,1.,1.,1.,1.,1.,1.)
    ,(1.,1.,1.,1.,1.,1.,1.)
    ,(1.,1.,1.,1.,1.,1.,1.)
    ,(1.,1.,1.,1.,1.,1.,1.)
    ,(1.,1.,1.,1.,1.,1.,1.)
    ,(1.,1.,1.,1.,1.,1.,1.)
    ,(1.,1.,1.,1.,1.,1.,1.)
    ,(1.,1.,1.,1.,1.,1.,1.)
    ,(1.,1.,1.,1.,1.,1.,1.)
    ,(1.,1.,1.,1.,1.,1.,1.)
,(1.,1.,1.,1.,1.,1.,1.))) REPRESENTATION_ITEM('') SURFACE() );
#243 = CARTESIAN_POINT('',(23.,-42.,-84.));
#244 = CARTESIAN_POINT('',(29.641655582445,-34.95073296893,
    -70.12860299017));
#245 = CARTESIAN_POINT('',(23.436722547952,-26.26855404717,
    -53.21501549349));
#246 = CARTESIAN_POINT('',(29.824773752888,-27.83468103672,
    -35.80865665334));
#247 = CARTESIAN_POINT('',(36.616847298916,-5.652860175088,
    -27.69446660503));
#248 = CARTESIAN_POINT('',(31.035997239754,-4.91384139844,
    -8.429467067994));
#249 = CARTESIAN_POINT('',(36.,-2.495388277643E-14,7.));
#250 = CARTESIAN_POINT('',(23.000000000002,-34.14601836602,-84.));
#251 = CARTESIAN_POINT('',(29.641655582445,-24.7891125089,
    -70.12860299017));
#252 = CARTESIAN_POINT('',(23.436722547984,-18.77055271239,
    -53.21501549349));
#253 = CARTESIAN_POINT('',(29.824773752835,-16.41978213297,
    -35.80865665334));
#254 = CARTESIAN_POINT('',(36.616847298978,5.323710405559,
    -27.69446660503));
#255 = CARTESIAN_POINT('',(31.035997239732,5.958097496413,
    -8.429467067994));
#256 = CARTESIAN_POINT('',(36.000000000008,12.117571663854,7.));
#257 = CARTESIAN_POINT('',(18.010969692408,-26.29203383296,-84.));
#258 = CARTESIAN_POINT('',(23.211954796886,-14.627488298,-70.12860299017
    ));
#259 = CARTESIAN_POINT('',(18.352960847719,-11.27254860993,
    -53.21501549349));
#260 = CARTESIAN_POINT('',(23.355352006594,-5.004879015781,
    -35.80865665334));
#261 = CARTESIAN_POINT('',(28.67412725767,16.300285037886,
    -27.69446660503));
#262 = CARTESIAN_POINT('',(24.303843724406,16.830040404339,
    -8.429467067994));
#263 = CARTESIAN_POINT('',(28.191082996787,24.235147800565,7.));
#264 = CARTESIAN_POINT('',(8.032902699235,-20.42566143498,-84.));
#265 = CARTESIAN_POINT('',(10.352545005984,-7.037471849791,
    -70.12860299017));
#266 = CARTESIAN_POINT('',(8.185430948912,-5.672068481451,
    -53.21501549349));
#267 = CARTESIAN_POINT('',(10.416500242125,3.521248364757,
    -35.80865665334));
#268 = CARTESIAN_POINT('',(12.788677022651,24.499011961384,
    -27.69446660503));
#269 = CARTESIAN_POINT('',(10.839528086692,24.950614810754,
    -8.429467067994));
#270 = CARTESIAN_POINT('',(12.573239007572,33.286122357475,7.));
#271 = CARTESIAN_POINT('',(-5.442044138944,-18.53429207301,-84.));
#272 = CARTESIAN_POINT('',(-7.013530349149,-4.590384690583,
    -70.12860299017));
#273 = CARTESIAN_POINT('',(-5.545377330209,-3.866425094322,
    -53.21501549349));
#274 = CARTESIAN_POINT('',(-7.056858050796,6.270145810742,
    -35.80865665334));
#275 = CARTESIAN_POINT('',(-8.663934750493,27.142352659398,
    -27.69446660503));
#276 = CARTESIAN_POINT('',(-7.343446385277,27.568758459309,
    -8.429467067994));
#277 = CARTESIAN_POINT('',(-8.51798213068,36.204235087305,7.));
#278 = CARTESIAN_POINT('',(-19.42984018936,-21.89290493236,-84.));
#279 = CARTESIAN_POINT('',(-25.04054917024,-8.935817458062,
    -70.12860299017));
#280 = CARTESIAN_POINT('',(-19.79877276709,-7.072809432167,
    -53.21501549349));
#281 = CARTESIAN_POINT('',(-25.19524294548,1.388771237918,
    -35.80865665334));
#282 = CARTESIAN_POINT('',(-30.93302135684,22.448421247381,
    -27.69446660503));
#283 = CARTESIAN_POINT('',(-26.21845506551,22.919570890481,
    -8.429467067994));
#284 = CARTESIAN_POINT('',(-30.41192377438,31.022375247273,7.));
#285 = CARTESIAN_POINT('',(-30.10795913802,-30.3470082078,-84.));
#286 = CARTESIAN_POINT('',(-38.80216326346,-19.87388592071,
    -70.12860299017));
#287 = CARTESIAN_POINT('',(-30.67964716675,-15.14373200378,
    -53.21501549349));
#288 = CARTESIAN_POINT('',(-39.04187258259,-10.89833849966,
    -35.80865665334));
#289 = CARTESIAN_POINT('',(-47.93298009996,10.63313243868,
    -27.69446660503));
#290 = CARTESIAN_POINT('',(-40.62741463807,11.216908660777,
    -8.429467067994));
#291 = CARTESIAN_POINT('',(-47.12550125988,17.978901622136,7.));
#292 = CARTESIAN_POINT('',(-34.12805784726,-41.99999999984,-84.));
#293 = CARTESIAN_POINT('',(-43.98313636543,-34.95073296858,
    -70.12860299017));
#294 = CARTESIAN_POINT('',(-34.77607925363,-26.26855404666,
    -53.21501549349));
#295 = CARTESIAN_POINT('',(-44.25485234666,-27.83468103645,
    -35.80865665334));
#296 = CARTESIAN_POINT('',(-54.33312533652,-5.65286017434,
    -27.69446660503));
#297 = CARTESIAN_POINT('',(-46.05210039882,-4.913841398336,
    -8.429467067994));
#298 = CARTESIAN_POINT('',(-53.41782967355,3.62907517548E-10,7.));
#299 = CARTESIAN_POINT('',(-30.107959138,-53.65299179247,-84.));
#300 = CARTESIAN_POINT('',(-38.80216326354,-50.0275800178,
    -70.12860299017));
#301 = CARTESIAN_POINT('',(-30.67964716655,-37.39337609149,
    -53.21501549349));
#302 = CARTESIAN_POINT('',(-39.04187258293,-44.77102357427,
    -35.80865665334));
#303 = CARTESIAN_POINT('',(-47.93298009964,-21.93885279023,
    -27.69446660503));
#304 = CARTESIAN_POINT('',(-40.6274146382,-21.04459145784,
    -8.429467067994));
#305 = CARTESIAN_POINT('',(-47.12550125989,-17.9789016228,7.));
#306 = CARTESIAN_POINT('',(-19.42984018938,-62.10709506741,-84.));
#307 = CARTESIAN_POINT('',(-25.04054917012,-60.9656484793,
    -70.12860299017));
#308 = CARTESIAN_POINT('',(-19.79877276736,-45.46429866149,
    -53.21501549349));
#309 = CARTESIAN_POINT('',(-25.19524294501,-57.05813331099,
    -35.80865665334));
#310 = CARTESIAN_POINT('',(-30.93302135729,-33.75414159647,
    -27.69446660503));
#311 = CARTESIAN_POINT('',(-26.21845506534,-32.74725368723,
    -8.429467067994));
#312 = CARTESIAN_POINT('',(-30.41192377437,-31.02237524676,7.));
#313 = CARTESIAN_POINT('',(-5.442044138928,-65.46570792711,-84.));
#314 = CARTESIAN_POINT('',(-7.013530349247,-65.31108124762,
    -70.12860299017));
#315 = CARTESIAN_POINT('',(-5.545377329988,-48.67068300044,
    -53.21501549349));
#316 = CARTESIAN_POINT('',(-7.056858051178,-61.93950788441,
    -35.80865665334));
#317 = CARTESIAN_POINT('',(-8.663934750141,-38.44807301026,
    -27.69446660503));
#318 = CARTESIAN_POINT('',(-7.343446385417,-37.39644125626,
    -8.429467067994));
#319 = CARTESIAN_POINT('',(-8.517982130688,-36.20423508762,7.));
#320 = CARTESIAN_POINT('',(8.032902699226,-63.57433856495,-84.));
#321 = CARTESIAN_POINT('',(10.352545006041,-62.86399408791,
    -70.12860299017));
#322 = CARTESIAN_POINT('',(8.185430948788,-46.8650396127,-53.21501549349
    ));
#323 = CARTESIAN_POINT('',(10.416500242332,-59.19061043809,
    -35.80865665334));
#324 = CARTESIAN_POINT('',(12.788677022461,-35.8047323112,
    -27.69446660503));
#325 = CARTESIAN_POINT('',(10.839528086767,-34.7782976076,
    -8.429467067994));
#326 = CARTESIAN_POINT('',(12.573239007577,-33.28612235731,7.));
#327 = CARTESIAN_POINT('',(18.010969692412,-57.70796616706,-84.));
#328 = CARTESIAN_POINT('',(23.211954796863,-55.27397763993,
    -70.12860299017));
#329 = CARTESIAN_POINT('',(18.352960847766,-41.26455948448,
    -53.21501549349));
#330 = CARTESIAN_POINT('',(23.355352006518,-50.6644830577,
    -35.80865665334));
#331 = CARTESIAN_POINT('',(28.67412725774,-27.60600538819,
    -27.69446660503));
#332 = CARTESIAN_POINT('',(24.303843724378,-26.65772320123,
    -8.429467067994));
#333 = CARTESIAN_POINT('',(28.191082996785,-24.23514780062,7.));
#334 = CARTESIAN_POINT('',(23.000000000001,-49.85398163397,-84.));
#335 = CARTESIAN_POINT('',(29.641655582451,-45.11235342895,
    -70.12860299017));
#336 = CARTESIAN_POINT('',(23.436722547972,-33.76655538194,
    -53.21501549349));
#337 = CARTESIAN_POINT('',(29.824773752856,-39.24957994046,
    -35.80865665334));
#338 = CARTESIAN_POINT('',(36.61684729896,-16.6294307557,-27.69446660503
    ));
#339 = CARTESIAN_POINT('',(31.035997239739,-15.78578029329,
    -8.429467067994));
#340 = CARTESIAN_POINT('',(36.000000000009,-12.11757166384,7.));
#341 = CARTESIAN_POINT('',(23.,-42.,-84.));
#342 = CARTESIAN_POINT('',(29.641655582445,-34.95073296893,
    -70.12860299017));
#343 = CARTESIAN_POINT('',(23.436722547953,-26.26855404717,
    -53.21501549349));
#344 = CARTESIAN_POINT('',(29.824773752888,-27.83468103672,
    -35.80865665334));
#345 = CARTESIAN_POINT('',(36.616847298916,-5.652860175088,
    -27.69446660503));
#346 = CARTESIAN_POINT('',(31.035997239754,-4.913841398441,
    -8.429467067994));
#347 = CARTESIAN_POINT('',(36.,3.467826405124E-15,7.));
#348 = DEFINITIONAL_REPRESENTATION('',(#349),#424);
#349 = B_SPLINE_CURVE_WITH_KNOTS('',7,(#350,#351,#352,#353,#354,#355,
    #356,#357,#358,#359,#360,#361,#362,#363,#364,#365,#366,#367,#368,
    #369,#370,#371,#372,#373,#374,#375,#376,#377,#378,#379,#380,#381,
    #382,#383,#384,#385,#386,#387,#388,#389,#390,#391,#392,#393,#394,
    #395,#396,#397,#398,#399,#400,#401,#402,#403,#404,#405,#406,#407,
    #408,#409,#410,#411,#412,#413,#414,#415,#416,#417,#418,#419,#420,
    #421,#422,#423),.UNSPECIFIED.,.F.,.F.,(8,6,6,6,6,6,6,6,6,6,6,6,8),(
    0.,0.156290345287,0.209700293946,0.246978913377,0.310443106007,
    0.437861819522,0.622910549232,0.65699732042,0.688538471198,
    0.722554792549,0.826579851202,0.940818227105,1.),.UNSPECIFIED.);
#350 = CARTESIAN_POINT('',(0.260018983661,2.373009526522E-02));
#351 = CARTESIAN_POINT('',(0.259789756936,4.100681297299E-02));
#352 = CARTESIAN_POINT('',(0.259615572583,5.855525605485E-02));
#353 = CARTESIAN_POINT('',(0.259481031274,7.62943674664E-02));
#354 = CARTESIAN_POINT('',(0.259375702622,9.415299058496E-02));
#355 = CARTESIAN_POINT('',(0.259291373034,0.112076569577));
#356 = CARTESIAN_POINT('',(0.259221766718,0.130030527571));
#357 = CARTESIAN_POINT('',(0.259141536833,0.154140910232));
#358 = CARTESIAN_POINT('',(0.259122248859,0.160283425862));
#359 = CARTESIAN_POINT('',(0.259103912014,0.16642689942));
#360 = CARTESIAN_POINT('',(0.259086350378,0.172570727958));
#361 = CARTESIAN_POINT('',(0.259069405727,0.178714427623));
#362 = CARTESIAN_POINT('',(0.259052935974,0.184857630118));
#363 = CARTESIAN_POINT('',(0.25902556067,0.195287333241));
#364 = CARTESIAN_POINT('',(0.259014476916,0.199574208827));
#365 = CARTESIAN_POINT('',(0.259003519272,0.203860612435));
#366 = CARTESIAN_POINT('',(0.258992647926,0.208146463207));
#367 = CARTESIAN_POINT('',(0.258981826332,0.212431692909));
#368 = CARTESIAN_POINT('',(0.258971021214,0.216716245932));
#369 = CARTESIAN_POINT('',(0.258941784584,0.228293000265));
#370 = CARTESIAN_POINT('',(0.258923327164,0.235583816765));
#371 = CARTESIAN_POINT('',(0.258904681263,0.24287231874));
#372 = CARTESIAN_POINT('',(0.258885723204,0.250158332956));
#373 = CARTESIAN_POINT('',(0.258866352691,0.257441713949));
#374 = CARTESIAN_POINT('',(0.258846490818,0.264722334968));
#375 = CARTESIAN_POINT('',(0.258785094891,0.286611795123));
#376 = CARTESIAN_POINT('',(0.258741890503,0.301212193519));
#377 = CARTESIAN_POINT('',(0.258695984756,0.315799725657));
#378 = CARTESIAN_POINT('',(0.258647214408,0.330373281375));
#379 = CARTESIAN_POINT('',(0.258595667987,0.34493191399));
#380 = CARTESIAN_POINT('',(0.258541619081,0.359474606261));
#381 = CARTESIAN_POINT('',(0.258403896042,0.395095251174));
#382 = CARTESIAN_POINT('',(0.258317871576,0.416156184561));
#383 = CARTESIAN_POINT('',(0.25822858084,0.437178435681));
#384 = CARTESIAN_POINT('',(0.2581377238,0.458164491208));
#385 = CARTESIAN_POINT('',(0.258047050647,0.479121964317));
#386 = CARTESIAN_POINT('',(0.257958126812,0.500062341748));
#387 = CARTESIAN_POINT('',(0.257856447198,0.524856897419));
#388 = CARTESIAN_POINT('',(0.257840734528,0.528713659905));
#389 = CARTESIAN_POINT('',(0.25782513375,0.532570461325));
#390 = CARTESIAN_POINT('',(0.25780965273,0.536427401068));
#391 = CARTESIAN_POINT('',(0.257794299017,0.540284580718));
#392 = CARTESIAN_POINT('',(0.257779079843,0.544142104056));
#393 = CARTESIAN_POINT('',(0.257750050411,0.551569934336));
#394 = CARTESIAN_POINT('',(0.257736219809,0.555140175754));
#395 = CARTESIAN_POINT('',(0.257722515787,0.55871088528));
#396 = CARTESIAN_POINT('',(0.257708943564,0.562282146703));
#397 = CARTESIAN_POINT('',(0.257695508104,0.565854043627));
#398 = CARTESIAN_POINT('',(0.257682214117,0.569426659476));
#399 = CARTESIAN_POINT('',(0.257654886212,0.576853917081));
#400 = CARTESIAN_POINT('',(0.257640876089,0.580708688463));
#401 = CARTESIAN_POINT('',(0.257627041278,0.584564496321));
#402 = CARTESIAN_POINT('',(0.257613386998,0.588421442247));
#403 = CARTESIAN_POINT('',(0.257599918099,0.592279624743));
#404 = CARTESIAN_POINT('',(0.257586639062,0.596139139221));
#405 = CARTESIAN_POINT('',(0.25753353866,0.611807186102));
#406 = CARTESIAN_POINT('',(0.257495337662,0.623627499266));
#407 = CARTESIAN_POINT('',(0.257459067499,0.635463833116));
#408 = CARTESIAN_POINT('',(0.257424812092,0.647318313713));
#409 = CARTESIAN_POINT('',(0.257392619124,0.659192313593));
#410 = CARTESIAN_POINT('',(0.25736249421,0.671086369169));
#411 = CARTESIAN_POINT('',(0.257303532599,0.696083493559));
#412 = CARTESIAN_POINT('',(0.257275112121,0.709190906805));
#413 = CARTESIAN_POINT('',(0.257249074527,0.722320949004));
#414 = CARTESIAN_POINT('',(0.257225289285,0.735471139206));
#415 = CARTESIAN_POINT('',(0.257203537686,0.74863782973));
#416 = CARTESIAN_POINT('',(0.257183498878,0.761816168596));
#417 = CARTESIAN_POINT('',(0.257155016615,0.781830073051));
#418 = CARTESIAN_POINT('',(0.257145639087,0.788661693267));
#419 = CARTESIAN_POINT('',(0.257136543326,0.795494153296));
#420 = CARTESIAN_POINT('',(0.257127660182,0.80232672393));
#421 = CARTESIAN_POINT('',(0.25711891179,0.809158739462));
#422 = CARTESIAN_POINT('',(0.257110211389,0.815989602679));
#423 = CARTESIAN_POINT('',(0.257101463124,0.822818789865));
#424 = ( GEOMETRIC_REPRESENTATION_CONTEXT(2) 
PARAMETRIC_REPRESENTATION_CONTEXT() REPRESENTATION_CONTEXT('2D SPACE',''
  ) );
#425 = ORIENTED_EDGE('',*,*,#426,.F.);
#426 = EDGE_CURVE('',#427,#85,#429,.T.);
#427 = VERTEX_POINT('',#428);
#428 = CARTESIAN_POINT('',(-1.5,-30.3189623089,-10.));
#429 = SURFACE_CURVE('',#430,(#434,#441),.PCURVE_S1.);
#430 = LINE('',#431,#432);
#431 = CARTESIAN_POINT('',(-1.5,-50.,-10.));
#432 = VECTOR('',#433,1.);
#433 = DIRECTION('',(0.,1.,0.));
#434 = PCURVE('',#32,#435);
#435 = DEFINITIONAL_REPRESENTATION('',(#436),#440);
#436 = LINE('',#437,#438);
#437 = CARTESIAN_POINT('',(72.,0.));
#438 = VECTOR('',#439,1.);
#439 = DIRECTION('',(0.,-1.));
#440 = ( GEOMETRIC_REPRESENTATION_CONTEXT(2) 
PARAMETRIC_REPRESENTATION_CONTEXT() REPRESENTATION_CONTEXT('2D SPACE',''
  ) );
#441 = PCURVE('',#442,#447);
#442 = PLANE('',#443);
#443 = AXIS2_PLACEMENT_3D('',#444,#445,#446);
#444 = CARTESIAN_POINT('',(-1.5,-50.,-10.));
#445 = DIRECTION('',(0.,0.,1.));
#446 = DIRECTION('',(1.,0.,0.));
#447 = DEFINITIONAL_REPRESENTATION('',(#448),#452);
#448 = LINE('',#449,#450);
#449 = CARTESIAN_POINT('',(0.,0.));
#450 = VECTOR('',#451,1.);
#451 = DIRECTION('',(0.,1.));
#452 = ( GEOMETRIC_REPRESENTATION_CONTEXT(2) 
PARAMETRIC_REPRESENTATION_CONTEXT() REPRESENTATION_CONTEXT('2D SPACE',''
  ) );
#453 = ORIENTED_EDGE('',*,*,#454,.F.);
#454 = EDGE_CURVE('',#24,#427,#455,.T.);
#455 = SURFACE_CURVE('',#456,(#501,#549),.PCURVE_S1.);
#456 = B_SPLINE_CURVE_WITH_KNOTS('',7,(#457,#458,#459,#460,#461,#462,
    #463,#464,#465,#466,#467,#468,#469,#470,#471,#472,#473,#474,#475,
    #476,#477,#478,#479,#480,#481,#482,#483,#484,#485,#486,#487,#488,
    #489,#490,#491,#492,#493,#494,#495,#496,#497,#498,#499,#500),
  .UNSPECIFIED.,.F.,.F.,(8,6,6,6,6,6,6,8),(0.,0.101607400729,
    0.305915231829,0.536528225137,0.592744712699,0.645319662463,
    0.74522234837,1.),.UNSPECIFIED.);
#457 = CARTESIAN_POINT('',(-1.5,-50.,-55.87316308009));
#458 = CARTESIAN_POINT('',(-1.5,-49.75619535062,-55.19010281819));
#459 = CARTESIAN_POINT('',(-1.5,-49.51177241858,-54.50726400138));
#460 = CARTESIAN_POINT('',(-1.5,-49.26647133306,-53.82473901086));
#461 = CARTESIAN_POINT('',(-1.5,-49.0200216199,-53.14262659045));
#462 = CARTESIAN_POINT('',(-1.5,-48.77215002325,-52.46102902083));
#463 = CARTESIAN_POINT('',(-1.5,-48.52258832723,-51.78004929374));
#464 = CARTESIAN_POINT('',(-1.5,-47.76536131987,-49.73194844333));
#465 = CARTESIAN_POINT('',(-1.5,-47.25176740709,-48.36699417658));
#466 = CARTESIAN_POINT('',(-1.5,-46.72824030894,-47.00578021141));
#467 = CARTESIAN_POINT('',(-1.5,-46.19292010193,-45.64913463918));
#468 = CARTESIAN_POINT('',(-1.5,-45.64443430394,-44.29774494348));
#469 = CARTESIAN_POINT('',(-1.5,-45.08209419877,-42.95208116746));
#470 = CARTESIAN_POINT('',(-1.5,-43.85573058699,-40.10013822134));
#471 = CARTESIAN_POINT('',(-1.5,-43.18790436436,-38.59541316031));
#472 = CARTESIAN_POINT('',(-1.5,-42.50266961038,-37.09852219077));
#473 = CARTESIAN_POINT('',(-1.5,-41.8013283528,-35.60915090414));
#474 = CARTESIAN_POINT('',(-1.5,-41.08645429676,-34.12627579338));
#475 = CARTESIAN_POINT('',(-1.5,-40.36164632844,-32.6482821606));
#476 = CARTESIAN_POINT('',(-1.5,-39.45315779274,-30.81351042529));
#477 = CARTESIAN_POINT('',(-1.5,-39.27476545273,-30.45407455968));
#478 = CARTESIAN_POINT('',(-1.5,-39.09610035576,-30.09477412869));
#479 = CARTESIAN_POINT('',(-1.5,-38.91722712762,-29.73557728564));
#480 = CARTESIAN_POINT('',(-1.5,-38.73821256792,-29.37645092349));
#481 = CARTESIAN_POINT('',(-1.5,-38.55912565012,-29.01736067489));
#482 = CARTESIAN_POINT('',(-1.5,-38.21255019212,-28.32244192212));
#483 = CARTESIAN_POINT('',(-1.5,-38.0450616466,-27.98661358367));
#484 = CARTESIAN_POINT('',(-1.5,-37.87763004805,-27.65075675571));
#485 = CARTESIAN_POINT('',(-1.5,-37.7103147311,-27.31484186312));
#486 = CARTESIAN_POINT('',(-1.5,-37.54317620189,-26.9788388967));
#487 = CARTESIAN_POINT('',(-1.5,-37.37627613802,-26.64271741318));
#488 = CARTESIAN_POINT('',(-1.5,-36.89310718535,-25.66746610725));
#489 = CARTESIAN_POINT('',(-1.5,-36.57762557793,-25.02794836516));
#490 = CARTESIAN_POINT('',(-1.5,-36.26366095202,-24.3876800838));
#491 = CARTESIAN_POINT('',(-1.5,-35.95165589713,-23.74644949876));
#492 = CARTESIAN_POINT('',(-1.5,-35.64206191862,-23.1040488779));
#493 = CARTESIAN_POINT('',(-1.5,-35.33533414974,-22.46027709275));
#494 = CARTESIAN_POINT('',(-1.5,-34.25815708109,-20.16917151283));
#495 = CARTESIAN_POINT('',(-1.5,-33.50593941855,-18.51315300784));
#496 = CARTESIAN_POINT('',(-1.5,-32.78284853775,-16.84380268091));
#497 = CARTESIAN_POINT('',(-1.5,-32.09648093623,-15.15867991805));
#498 = CARTESIAN_POINT('',(-1.5,-31.45381288565,-13.4562473763));
#499 = CARTESIAN_POINT('',(-1.5,-30.86033495359,-11.73621954823));
#500 = CARTESIAN_POINT('',(-1.5,-30.3189623089,-10.));
#501 = PCURVE('',#32,#502);
#502 = DEFINITIONAL_REPRESENTATION('',(#503),#548);
#503 = B_SPLINE_CURVE_WITH_KNOTS('',7,(#504,#505,#506,#507,#508,#509,
    #510,#511,#512,#513,#514,#515,#516,#517,#518,#519,#520,#521,#522,
    #523,#524,#525,#526,#527,#528,#529,#530,#531,#532,#533,#534,#535,
    #536,#537,#538,#539,#540,#541,#542,#543,#544,#545,#546,#547),
  .UNSPECIFIED.,.F.,.F.,(8,6,6,6,6,6,6,8),(0.,0.101607400729,
    0.305915231829,0.536528225137,0.592744712699,0.645319662463,
    0.74522234837,1.),.UNSPECIFIED.);
#504 = CARTESIAN_POINT('',(26.126836919909,0.));
#505 = CARTESIAN_POINT('',(26.809897181809,-0.243804649373));
#506 = CARTESIAN_POINT('',(27.492735998611,-0.488227581413));
#507 = CARTESIAN_POINT('',(28.175260989135,-0.733528666931));
#508 = CARTESIAN_POINT('',(28.857373409547,-0.979978380092));
#509 = CARTESIAN_POINT('',(29.538970979166,-1.227849976747));
#510 = CARTESIAN_POINT('',(30.219950706258,-1.477411672769));
#511 = CARTESIAN_POINT('',(32.268051556665,-2.234638680127));
#512 = CARTESIAN_POINT('',(33.633005823418,-2.748232592902));
#513 = CARTESIAN_POINT('',(34.994219788581,-3.271759691059));
#514 = CARTESIAN_POINT('',(36.350865360813,-3.807079898068));
#515 = CARTESIAN_POINT('',(37.70225505652,-4.355565696058));
#516 = CARTESIAN_POINT('',(39.047918832539,-4.917905801221));
#517 = CARTESIAN_POINT('',(41.899861778657,-6.144269413001));
#518 = CARTESIAN_POINT('',(43.404586839686,-6.812095635633));
#519 = CARTESIAN_POINT('',(44.901477809225,-7.497330389611));
#520 = CARTESIAN_POINT('',(46.390849095857,-8.198671647191));
#521 = CARTESIAN_POINT('',(47.873724206616,-8.913545703239));
#522 = CARTESIAN_POINT('',(49.351717839399,-9.638353671557));
#523 = CARTESIAN_POINT('',(51.18648957471,-10.54684220726));
#524 = CARTESIAN_POINT('',(51.545925440313,-10.72523454726));
#525 = CARTESIAN_POINT('',(51.905225871302,-10.90389964423));
#526 = CARTESIAN_POINT('',(52.264422714357,-11.08277287237));
#527 = CARTESIAN_POINT('',(52.623549076502,-11.26178743207));
#528 = CARTESIAN_POINT('',(52.982639325108,-11.44087434987));
#529 = CARTESIAN_POINT('',(53.677558077877,-11.78744980787));
#530 = CARTESIAN_POINT('',(54.013386416328,-11.95493835339));
#531 = CARTESIAN_POINT('',(54.349243244289,-12.12236995194));
#532 = CARTESIAN_POINT('',(54.68515813688,-12.28968526889));
#533 = CARTESIAN_POINT('',(55.021161103298,-12.4568237981));
#534 = CARTESIAN_POINT('',(55.357282586813,-12.62372386197));
#535 = CARTESIAN_POINT('',(56.332533892742,-13.10689281465));
#536 = CARTESIAN_POINT('',(56.972051634831,-13.42237442207));
#537 = CARTESIAN_POINT('',(57.612319916198,-13.73633904797));
#538 = CARTESIAN_POINT('',(58.253550501233,-14.04834410286));
#539 = CARTESIAN_POINT('',(58.895951122094,-14.35793808137));
#540 = CARTESIAN_POINT('',(59.539722907243,-14.66466585025));
#541 = CARTESIAN_POINT('',(61.83082848717,-15.74184291891));
#542 = CARTESIAN_POINT('',(63.486846992159,-16.49406058144));
#543 = CARTESIAN_POINT('',(65.156197319088,-17.21715146224));
#544 = CARTESIAN_POINT('',(66.841320081949,-17.90351906376));
#545 = CARTESIAN_POINT('',(68.543752623696,-18.54618711434));
#546 = CARTESIAN_POINT('',(70.263780451765,-19.1396650464));
#547 = CARTESIAN_POINT('',(72.,-19.68103769109));
#548 = ( GEOMETRIC_REPRESENTATION_CONTEXT(2) 
PARAMETRIC_REPRESENTATION_CONTEXT() REPRESENTATION_CONTEXT('2D SPACE',''
  ) );
#549 = PCURVE('',#550,#656);
#550 = ( BOUNDED_SURFACE() B_SPLINE_SURFACE(14,6,(
    (#551,#552,#553,#554,#555,#556,#557)
    ,(#558,#559,#560,#561,#562,#563,#564)
    ,(#565,#566,#567,#568,#569,#570,#571)
    ,(#572,#573,#574,#575,#576,#577,#578)
    ,(#579,#580,#581,#582,#583,#584,#585)
    ,(#586,#587,#588,#589,#590,#591,#592)
    ,(#593,#594,#595,#596,#597,#598,#599)
    ,(#600,#601,#602,#603,#604,#605,#606)
    ,(#607,#608,#609,#610,#611,#612,#613)
    ,(#614,#615,#616,#617,#618,#619,#620)
    ,(#621,#622,#623,#624,#625,#626,#627)
    ,(#628,#629,#630,#631,#632,#633,#634)
    ,(#635,#636,#637,#638,#639,#640,#641)
    ,(#642,#643,#644,#645,#646,#647,#648)
    ,(#649,#650,#651,#652,#653,#654,#655
)),.UNSPECIFIED.,.T.,.F.,.F.) B_SPLINE_SURFACE_WITH_KNOTS((15,15),(7,7),
  (0.,1.),(0.,1.),.PIECEWISE_BEZIER_KNOTS.) 
GEOMETRIC_REPRESENTATION_ITEM() RATIONAL_B_SPLINE_SURFACE((
    (1.,1.,1.,1.,1.,1.,1.)
    ,(1.,1.,1.,1.,1.,1.,1.)
    ,(1.,1.,1.,1.,1.,1.,1.)
    ,(1.,1.,1.,1.,1.,1.,1.)
    ,(1.,1.,1.,1.,1.,1.,1.)
    ,(1.,1.,1.,1.,1.,1.,1.)
    ,(1.,1.,1.,1.,1.,1.,1.)
    ,(1.,1.,1.,1.,1.,1.,1.)
    ,(1.,1.,1.,1.,1.,1.,1.)
    ,(1.,1.,1.,1.,1.,1.,1.)
    ,(1.,1.,1.,1.,1.,1.,1.)
    ,(1.,1.,1.,1.,1.,1.,1.)
    ,(1.,1.,1.,1.,1.,1.,1.)
    ,(1.,1.,1.,1.,1.,1.,1.)
,(1.,1.,1.,1.,1.,1.,1.))) REPRESENTATION_ITEM('') SURFACE() );
#551 = CARTESIAN_POINT('',(23.,-42.,-84.));
#552 = CARTESIAN_POINT('',(29.641655582445,-34.95073296893,
    -70.12860299017));
#553 = CARTESIAN_POINT('',(23.436722547952,-26.26855404717,
    -53.21501549349));
#554 = CARTESIAN_POINT('',(29.824773752888,-27.83468103672,
    -35.80865665334));
#555 = CARTESIAN_POINT('',(36.616847298916,-5.652860175088,
    -27.69446660503));
#556 = CARTESIAN_POINT('',(31.035997239754,-4.91384139844,
    -8.429467067994));
#557 = CARTESIAN_POINT('',(36.,-2.495388277643E-14,7.));
#558 = CARTESIAN_POINT('',(23.000000000002,-34.14601836602,-84.));
#559 = CARTESIAN_POINT('',(29.641655582445,-24.7891125089,
    -70.12860299017));
#560 = CARTESIAN_POINT('',(23.436722547984,-18.77055271239,
    -53.21501549349));
#561 = CARTESIAN_POINT('',(29.824773752835,-16.41978213297,
    -35.80865665334));
#562 = CARTESIAN_POINT('',(36.616847298978,5.323710405559,
    -27.69446660503));
#563 = CARTESIAN_POINT('',(31.035997239732,5.958097496413,
    -8.429467067994));
#564 = CARTESIAN_POINT('',(36.000000000008,12.117571663854,7.));
#565 = CARTESIAN_POINT('',(18.010969692408,-26.29203383296,-84.));
#566 = CARTESIAN_POINT('',(23.211954796886,-14.627488298,-70.12860299017
    ));
#567 = CARTESIAN_POINT('',(18.352960847719,-11.27254860993,
    -53.21501549349));
#568 = CARTESIAN_POINT('',(23.355352006594,-5.004879015781,
    -35.80865665334));
#569 = CARTESIAN_POINT('',(28.67412725767,16.300285037886,
    -27.69446660503));
#570 = CARTESIAN_POINT('',(24.303843724406,16.830040404339,
    -8.429467067994));
#571 = CARTESIAN_POINT('',(28.191082996787,24.235147800565,7.));
#572 = CARTESIAN_POINT('',(8.032902699235,-20.42566143498,-84.));
#573 = CARTESIAN_POINT('',(10.352545005984,-7.037471849791,
    -70.12860299017));
#574 = CARTESIAN_POINT('',(8.185430948912,-5.672068481451,
    -53.21501549349));
#575 = CARTESIAN_POINT('',(10.416500242125,3.521248364757,
    -35.80865665334));
#576 = CARTESIAN_POINT('',(12.788677022651,24.499011961384,
    -27.69446660503));
#577 = CARTESIAN_POINT('',(10.839528086692,24.950614810754,
    -8.429467067994));
#578 = CARTESIAN_POINT('',(12.573239007572,33.286122357475,7.));
#579 = CARTESIAN_POINT('',(-5.442044138944,-18.53429207301,-84.));
#580 = CARTESIAN_POINT('',(-7.013530349149,-4.590384690583,
    -70.12860299017));
#581 = CARTESIAN_POINT('',(-5.545377330209,-3.866425094322,
    -53.21501549349));
#582 = CARTESIAN_POINT('',(-7.056858050796,6.270145810742,
    -35.80865665334));
#583 = CARTESIAN_POINT('',(-8.663934750493,27.142352659398,
    -27.69446660503));
#584 = CARTESIAN_POINT('',(-7.343446385277,27.568758459309,
    -8.429467067994));
#585 = CARTESIAN_POINT('',(-8.51798213068,36.204235087305,7.));
#586 = CARTESIAN_POINT('',(-19.42984018936,-21.89290493236,-84.));
#587 = CARTESIAN_POINT('',(-25.04054917024,-8.935817458062,
    -70.12860299017));
#588 = CARTESIAN_POINT('',(-19.79877276709,-7.072809432167,
    -53.21501549349));
#589 = CARTESIAN_POINT('',(-25.19524294548,1.388771237918,
    -35.80865665334));
#590 = CARTESIAN_POINT('',(-30.93302135684,22.448421247381,
    -27.69446660503));
#591 = CARTESIAN_POINT('',(-26.21845506551,22.919570890481,
    -8.429467067994));
#592 = CARTESIAN_POINT('',(-30.41192377438,31.022375247273,7.));
#593 = CARTESIAN_POINT('',(-30.10795913802,-30.3470082078,-84.));
#594 = CARTESIAN_POINT('',(-38.80216326346,-19.87388592071,
    -70.12860299017));
#595 = CARTESIAN_POINT('',(-30.67964716675,-15.14373200378,
    -53.21501549349));
#596 = CARTESIAN_POINT('',(-39.04187258259,-10.89833849966,
    -35.80865665334));
#597 = CARTESIAN_POINT('',(-47.93298009996,10.63313243868,
    -27.69446660503));
#598 = CARTESIAN_POINT('',(-40.62741463807,11.216908660777,
    -8.429467067994));
#599 = CARTESIAN_POINT('',(-47.12550125988,17.978901622136,7.));
#600 = CARTESIAN_POINT('',(-34.12805784726,-41.99999999984,-84.));
#601 = CARTESIAN_POINT('',(-43.98313636543,-34.95073296858,
    -70.12860299017));
#602 = CARTESIAN_POINT('',(-34.77607925363,-26.26855404666,
    -53.21501549349));
#603 = CARTESIAN_POINT('',(-44.25485234666,-27.83468103645,
    -35.80865665334));
#604 = CARTESIAN_POINT('',(-54.33312533652,-5.65286017434,
    -27.69446660503));
#605 = CARTESIAN_POINT('',(-46.05210039882,-4.913841398336,
    -8.429467067994));
#606 = CARTESIAN_POINT('',(-53.41782967355,3.62907517548E-10,7.));
#607 = CARTESIAN_POINT('',(-30.107959138,-53.65299179247,-84.));
#608 = CARTESIAN_POINT('',(-38.80216326354,-50.0275800178,
    -70.12860299017));
#609 = CARTESIAN_POINT('',(-30.67964716655,-37.39337609149,
    -53.21501549349));
#610 = CARTESIAN_POINT('',(-39.04187258293,-44.77102357427,
    -35.80865665334));
#611 = CARTESIAN_POINT('',(-47.93298009964,-21.93885279023,
    -27.69446660503));
#612 = CARTESIAN_POINT('',(-40.6274146382,-21.04459145784,
    -8.429467067994));
#613 = CARTESIAN_POINT('',(-47.12550125989,-17.9789016228,7.));
#614 = CARTESIAN_POINT('',(-19.42984018938,-62.10709506741,-84.));
#615 = CARTESIAN_POINT('',(-25.04054917012,-60.9656484793,
    -70.12860299017));
#616 = CARTESIAN_POINT('',(-19.79877276736,-45.46429866149,
    -53.21501549349));
#617 = CARTESIAN_POINT('',(-25.19524294501,-57.05813331099,
    -35.80865665334));
#618 = CARTESIAN_POINT('',(-30.93302135729,-33.75414159647,
    -27.69446660503));
#619 = CARTESIAN_POINT('',(-26.21845506534,-32.74725368723,
    -8.429467067994));
#620 = CARTESIAN_POINT('',(-30.41192377437,-31.02237524676,7.));
#621 = CARTESIAN_POINT('',(-5.442044138928,-65.46570792711,-84.));
#622 = CARTESIAN_POINT('',(-7.013530349247,-65.31108124762,
    -70.12860299017));
#623 = CARTESIAN_POINT('',(-5.545377329988,-48.67068300044,
    -53.21501549349));
#624 = CARTESIAN_POINT('',(-7.056858051178,-61.93950788441,
    -35.80865665334));
#625 = CARTESIAN_POINT('',(-8.663934750141,-38.44807301026,
    -27.69446660503));
#626 = CARTESIAN_POINT('',(-7.343446385417,-37.39644125626,
    -8.429467067994));
#627 = CARTESIAN_POINT('',(-8.517982130688,-36.20423508762,7.));
#628 = CARTESIAN_POINT('',(8.032902699226,-63.57433856495,-84.));
#629 = CARTESIAN_POINT('',(10.352545006041,-62.86399408791,
    -70.12860299017));
#630 = CARTESIAN_POINT('',(8.185430948788,-46.8650396127,-53.21501549349
    ));
#631 = CARTESIAN_POINT('',(10.416500242332,-59.19061043809,
    -35.80865665334));
#632 = CARTESIAN_POINT('',(12.788677022461,-35.8047323112,
    -27.69446660503));
#633 = CARTESIAN_POINT('',(10.839528086767,-34.7782976076,
    -8.429467067994));
#634 = CARTESIAN_POINT('',(12.573239007577,-33.28612235731,7.));
#635 = CARTESIAN_POINT('',(18.010969692412,-57.70796616706,-84.));
#636 = CARTESIAN_POINT('',(23.211954796863,-55.27397763993,
    -70.12860299017));
#637 = CARTESIAN_POINT('',(18.352960847766,-41.26455948448,
    -53.21501549349));
#638 = CARTESIAN_POINT('',(23.355352006518,-50.6644830577,
    -35.80865665334));
#639 = CARTESIAN_POINT('',(28.67412725774,-27.60600538819,
    -27.69446660503));
#640 = CARTESIAN_POINT('',(24.303843724378,-26.65772320123,
    -8.429467067994));
#641 = CARTESIAN_POINT('',(28.191082996785,-24.23514780062,7.));
#642 = CARTESIAN_POINT('',(23.000000000001,-49.85398163397,-84.));
#643 = CARTESIAN_POINT('',(29.641655582451,-45.11235342895,
    -70.12860299017));
#644 = CARTESIAN_POINT('',(23.436722547972,-33.76655538194,
    -53.21501549349));
#645 = CARTESIAN_POINT('',(29.824773752856,-39.24957994046,
    -35.80865665334));
#646 = CARTESIAN_POINT('',(36.61684729896,-16.6294307557,-27.69446660503
    ));
#647 = CARTESIAN_POINT('',(31.035997239739,-15.78578029329,
    -8.429467067994));
#648 = CARTESIAN_POINT('',(36.000000000009,-12.11757166384,7.));
#649 = CARTESIAN_POINT('',(23.,-42.,-84.));
#650 = CARTESIAN_POINT('',(29.641655582445,-34.95073296893,
    -70.12860299017));
#651 = CARTESIAN_POINT('',(23.436722547953,-26.26855404717,
    -53.21501549349));
#652 = CARTESIAN_POINT('',(29.824773752888,-27.83468103672,
    -35.80865665334));
#653 = CARTESIAN_POINT('',(36.616847298916,-5.652860175088,
    -27.69446660503));
#654 = CARTESIAN_POINT('',(31.035997239754,-4.913841398441,
    -8.429467067994));
#655 = CARTESIAN_POINT('',(36.,3.467826405124E-15,7.));
#656 = DEFINITIONAL_REPRESENTATION('',(#657),#702);
#657 = B_SPLINE_CURVE_WITH_KNOTS('',7,(#658,#659,#660,#661,#662,#663,
    #664,#665,#666,#667,#668,#669,#670,#671,#672,#673,#674,#675,#676,
    #677,#678,#679,#680,#681,#682,#683,#684,#685,#686,#687,#688,#689,
    #690,#691,#692,#693,#694,#695,#696,#697,#698,#699,#700,#701),
  .UNSPECIFIED.,.F.,.F.,(8,6,6,6,6,6,6,8),(0.,0.101607400729,
    0.305915231829,0.536528225137,0.592744712699,0.645319662463,
    0.74522234837,1.),.UNSPECIFIED.);
#658 = CARTESIAN_POINT('',(0.741284612059,0.309027437987));
#659 = CARTESIAN_POINT('',(0.741308137855,0.316410407001));
#660 = CARTESIAN_POINT('',(0.741332411215,0.32380692564));
#661 = CARTESIAN_POINT('',(0.741357449801,0.33121743371));
#662 = CARTESIAN_POINT('',(0.741383254271,0.338642133362));
#663 = CARTESIAN_POINT('',(0.741409810124,0.346081000467));
#664 = CARTESIAN_POINT('',(0.741437089541,0.353533795993));
#665 = CARTESIAN_POINT('',(0.741521281427,0.37601295779));
#666 = CARTESIAN_POINT('',(0.741580276563,0.391080592122));
#667 = CARTESIAN_POINT('',(0.741641717369,0.406199017102));
#668 = CARTESIAN_POINT('',(0.741705087038,0.421360957627));
#669 = CARTESIAN_POINT('',(0.741769742953,0.436556461958));
#670 = CARTESIAN_POINT('',(0.741834987791,0.451773721664));
#671 = CARTESIAN_POINT('',(0.741973685034,0.484186863523));
#672 = CARTESIAN_POINT('',(0.742047115888,0.501386077129));
#673 = CARTESIAN_POINT('',(0.742119454401,0.518579143043));
#674 = CARTESIAN_POINT('',(0.742189752822,0.535748831304));
#675 = CARTESIAN_POINT('',(0.742257216931,0.552881147284));
#676 = CARTESIAN_POINT('',(0.74232124728,0.569966517113));
#677 = CARTESIAN_POINT('',(0.742396111832,0.591152345742));
#678 = CARTESIAN_POINT('',(0.742410556706,0.595301556436));
#679 = CARTESIAN_POINT('',(0.742424767705,0.599447646363));
#680 = CARTESIAN_POINT('',(0.742438739675,0.603590567747));
#681 = CARTESIAN_POINT('',(0.742452468145,0.607730288508));
#682 = CARTESIAN_POINT('',(0.74246594933,0.61186679226));
#683 = CARTESIAN_POINT('',(0.74249155388,0.619865622319));
#684 = CARTESIAN_POINT('',(0.742503708628,0.623728350673));
#685 = CARTESIAN_POINT('',(0.742515641841,0.627588263057));
#686 = CARTESIAN_POINT('',(0.742527351495,0.631445368648));
#687 = CARTESIAN_POINT('',(0.742538836083,0.635299686115));
#688 = CARTESIAN_POINT('',(0.742550094607,0.63915124362));
#689 = CARTESIAN_POINT('',(0.742582089492,0.65031361836));
#690 = CARTESIAN_POINT('',(0.742602234321,0.657617306166));
#691 = CARTESIAN_POINT('',(0.742621557847,0.664911425701));
#692 = CARTESIAN_POINT('',(0.742640063263,0.672196323748));
#693 = CARTESIAN_POINT('',(0.742657760322,0.679472409123));
#694 = CARTESIAN_POINT('',(0.742674665487,0.686740151401));
#695 = CARTESIAN_POINT('',(0.742731954567,0.712514771707));
#696 = CARTESIAN_POINT('',(0.742768110142,0.730979564718));
#697 = CARTESIAN_POINT('',(0.742799654786,0.749402063583));
#698 = CARTESIAN_POINT('',(0.742827257835,0.767789653726));
#699 = CARTESIAN_POINT('',(0.742851924125,0.786149780317));
#700 = CARTESIAN_POINT('',(0.742875057672,0.804490140676));
#701 = CARTESIAN_POINT('',(0.742898536876,0.822818789865));
#702 = ( GEOMETRIC_REPRESENTATION_CONTEXT(2) 
PARAMETRIC_REPRESENTATION_CONTEXT() REPRESENTATION_CONTEXT('2D SPACE',''
  ) );
#703 = ADVANCED_FACE('',(#704),#44,.F.);
#704 = FACE_BOUND('',#705,.F.);
#705 = EDGE_LOOP('',(#706,#736,#757,#758));
#706 = ORIENTED_EDGE('',*,*,#707,.F.);
#707 = EDGE_CURVE('',#708,#710,#712,.T.);
#708 = VERTEX_POINT('',#709);
#709 = CARTESIAN_POINT('',(1.5,-50.,-82.));
#710 = VERTEX_POINT('',#711);
#711 = CARTESIAN_POINT('',(1.5,-50.,-55.87316308289));
#712 = SURFACE_CURVE('',#713,(#717,#724),.PCURVE_S1.);
#713 = LINE('',#714,#715);
#714 = CARTESIAN_POINT('',(1.5,-50.,-82.));
#715 = VECTOR('',#716,1.);
#716 = DIRECTION('',(0.,0.,1.));
#717 = PCURVE('',#44,#718);
#718 = DEFINITIONAL_REPRESENTATION('',(#719),#723);
#719 = LINE('',#720,#721);
#720 = CARTESIAN_POINT('',(0.,3.));
#721 = VECTOR('',#722,1.);
#722 = DIRECTION('',(1.,0.));
#723 = ( GEOMETRIC_REPRESENTATION_CONTEXT(2) 
PARAMETRIC_REPRESENTATION_CONTEXT() REPRESENTATION_CONTEXT('2D SPACE',''
  ) );
#724 = PCURVE('',#725,#730);
#725 = PLANE('',#726);
#726 = AXIS2_PLACEMENT_3D('',#727,#728,#729);
#727 = CARTESIAN_POINT('',(1.5,-50.,-82.));
#728 = DIRECTION('',(1.,0.,0.));
#729 = DIRECTION('',(0.,0.,1.));
#730 = DEFINITIONAL_REPRESENTATION('',(#731),#735);
#731 = LINE('',#732,#733);
#732 = CARTESIAN_POINT('',(0.,0.));
#733 = VECTOR('',#734,1.);
#734 = DIRECTION('',(1.,0.));
#735 = ( GEOMETRIC_REPRESENTATION_CONTEXT(2) 
PARAMETRIC_REPRESENTATION_CONTEXT() REPRESENTATION_CONTEXT('2D SPACE',''
  ) );
#736 = ORIENTED_EDGE('',*,*,#737,.F.);
#737 = EDGE_CURVE('',#22,#708,#738,.T.);
#738 = SURFACE_CURVE('',#739,(#743,#750),.PCURVE_S1.);
#739 = LINE('',#740,#741);
#740 = CARTESIAN_POINT('',(-1.5,-50.,-82.));
#741 = VECTOR('',#742,1.);
#742 = DIRECTION('',(1.,0.,0.));
#743 = PCURVE('',#44,#744);
#744 = DEFINITIONAL_REPRESENTATION('',(#745),#749);
#745 = LINE('',#746,#747);
#746 = CARTESIAN_POINT('',(0.,0.));
#747 = VECTOR('',#748,1.);
#748 = DIRECTION('',(0.,1.));
#749 = ( GEOMETRIC_REPRESENTATION_CONTEXT(2) 
PARAMETRIC_REPRESENTATION_CONTEXT() REPRESENTATION_CONTEXT('2D SPACE',''
  ) );
#750 = PCURVE('',#72,#751);
#751 = DEFINITIONAL_REPRESENTATION('',(#752),#756);
#752 = LINE('',#753,#754);
#753 = CARTESIAN_POINT('',(0.,0.));
#754 = VECTOR('',#755,1.);
#755 = DIRECTION('',(1.,0.));
#756 = ( GEOMETRIC_REPRESENTATION_CONTEXT(2) 
PARAMETRIC_REPRESENTATION_CONTEXT() REPRESENTATION_CONTEXT('2D SPACE',''
  ) );
#757 = ORIENTED_EDGE('',*,*,#21,.T.);
#758 = ORIENTED_EDGE('',*,*,#759,.T.);
#759 = EDGE_CURVE('',#24,#710,#760,.T.);
#760 = SURFACE_CURVE('',#761,(#768,#778),.PCURVE_S1.);
#761 = B_SPLINE_CURVE_WITH_KNOTS('',5,(#762,#763,#764,#765,#766,#767),
  .UNSPECIFIED.,.F.,.F.,(6,6),(0.,1.),.PIECEWISE_BEZIER_KNOTS.);
#762 = CARTESIAN_POINT('',(-1.5,-50.,-55.87316308009));
#763 = CARTESIAN_POINT('',(-0.902709397894,-50.,-55.80344786475));
#764 = CARTESIAN_POINT('',(-0.301352968034,-50.,-55.76813079462));
#765 = CARTESIAN_POINT('',(0.301356209799,-50.,-55.76813139843));
#766 = CARTESIAN_POINT('',(0.902707671001,-50.,-55.803447665));
#767 = CARTESIAN_POINT('',(1.5,-50.,-55.87316308289));
#768 = PCURVE('',#44,#769);
#769 = DEFINITIONAL_REPRESENTATION('',(#770),#777);
#770 = B_SPLINE_CURVE_WITH_KNOTS('',5,(#771,#772,#773,#774,#775,#776),
  .UNSPECIFIED.,.F.,.F.,(6,6),(0.,1.),.PIECEWISE_BEZIER_KNOTS.);
#771 = CARTESIAN_POINT('',(26.126836919909,0.));
#772 = CARTESIAN_POINT('',(26.196552135249,0.597290602106));
#773 = CARTESIAN_POINT('',(26.231869205374,1.198647031966));
#774 = CARTESIAN_POINT('',(26.231868601569,1.801356209799));
#775 = CARTESIAN_POINT('',(26.196552334994,2.402707671001));
#776 = CARTESIAN_POINT('',(26.126836917104,3.));
#777 = ( GEOMETRIC_REPRESENTATION_CONTEXT(2) 
PARAMETRIC_REPRESENTATION_CONTEXT() REPRESENTATION_CONTEXT('2D SPACE',''
  ) );
#778 = PCURVE('',#550,#779);
#779 = DEFINITIONAL_REPRESENTATION('',(#780),#787);
#780 = B_SPLINE_CURVE_WITH_KNOTS('',5,(#781,#782,#783,#784,#785,#786),
  .UNSPECIFIED.,.F.,.F.,(6,6),(0.,1.),.PIECEWISE_BEZIER_KNOTS.);
#781 = CARTESIAN_POINT('',(0.741284611915,0.309027439117));
#782 = CARTESIAN_POINT('',(0.744760899042,0.309780967471));
#783 = CARTESIAN_POINT('',(0.74825206415,0.310162877256));
#784 = CARTESIAN_POINT('',(0.751747954711,0.310162870777));
#785 = CARTESIAN_POINT('',(0.75523909093,0.30978096963));
#786 = CARTESIAN_POINT('',(0.758715388107,0.309027439087));
#787 = ( GEOMETRIC_REPRESENTATION_CONTEXT(2) 
PARAMETRIC_REPRESENTATION_CONTEXT() REPRESENTATION_CONTEXT('2D SPACE',''
  ) );
#788 = ADVANCED_FACE('',(#789),#550,.T.);
#789 = FACE_BOUND('',#790,.T.);
#790 = EDGE_LOOP('',(#791,#792,#793,#939));
#791 = ORIENTED_EDGE('',*,*,#454,.F.);
#792 = ORIENTED_EDGE('',*,*,#759,.T.);
#793 = ORIENTED_EDGE('',*,*,#794,.T.);
#794 = EDGE_CURVE('',#710,#795,#797,.T.);
#795 = VERTEX_POINT('',#796);
#796 = CARTESIAN_POINT('',(1.5,-30.3189623079,-10.));
#797 = SURFACE_CURVE('',#798,(#843,#891),.PCURVE_S1.);
#798 = B_SPLINE_CURVE_WITH_KNOTS('',7,(#799,#800,#801,#802,#803,#804,
    #805,#806,#807,#808,#809,#810,#811,#812,#813,#814,#815,#816,#817,
    #818,#819,#820,#821,#822,#823,#824,#825,#826,#827,#828,#829,#830,
    #831,#832,#833,#834,#835,#836,#837,#838,#839,#840,#841,#842),
  .UNSPECIFIED.,.F.,.F.,(8,6,6,6,6,6,6,8),(0.,0.101607400783,
    0.30591523187,0.536528225164,0.592744712724,0.645319662484,
    0.745222348385,1.),.UNSPECIFIED.);
#799 = CARTESIAN_POINT('',(1.5,-50.,-55.87316308289));
#800 = CARTESIAN_POINT('',(1.5,-49.75619535048,-55.19010282059));
#801 = CARTESIAN_POINT('',(1.5,-49.5117724183,-54.50726400339));
#802 = CARTESIAN_POINT('',(1.5,-49.26647133264,-53.82473901246));
#803 = CARTESIAN_POINT('',(1.5,-49.02002161934,-53.14262659165));
#804 = CARTESIAN_POINT('',(1.5,-48.77215002254,-52.46102902163));
#805 = CARTESIAN_POINT('',(1.5,-48.52258832637,-51.78004929414));
#806 = CARTESIAN_POINT('',(1.5,-47.76536131886,-49.73194844333));
#807 = CARTESIAN_POINT('',(1.5,-47.25176740609,-48.36699417658));
#808 = CARTESIAN_POINT('',(1.5,-46.72824030793,-47.00578021141));
#809 = CARTESIAN_POINT('',(1.5,-46.19292010092,-45.64913463918));
#810 = CARTESIAN_POINT('',(1.5,-45.64443430293,-44.29774494348));
#811 = CARTESIAN_POINT('',(1.5,-45.08209419777,-42.95208116746));
#812 = CARTESIAN_POINT('',(1.5,-43.85573058599,-40.10013822134));
#813 = CARTESIAN_POINT('',(1.5,-43.18790436336,-38.59541316032));
#814 = CARTESIAN_POINT('',(1.5,-42.50266960937,-37.09852219075));
#815 = CARTESIAN_POINT('',(1.5,-41.80132835181,-35.60915090416));
#816 = CARTESIAN_POINT('',(1.5,-41.08645429575,-34.12627579337));
#817 = CARTESIAN_POINT('',(1.5,-40.36164632744,-32.6482821606));
#818 = CARTESIAN_POINT('',(1.5,-39.45315779173,-30.81351042529));
#819 = CARTESIAN_POINT('',(1.5,-39.27476545173,-30.45407455968));
#820 = CARTESIAN_POINT('',(1.5,-39.09610035476,-30.09477412869));
#821 = CARTESIAN_POINT('',(1.5,-38.91722712662,-29.73557728564));
#822 = CARTESIAN_POINT('',(1.5,-38.73821256692,-29.37645092349));
#823 = CARTESIAN_POINT('',(1.5,-38.55912564912,-29.01736067489));
#824 = CARTESIAN_POINT('',(1.5,-38.21255019112,-28.32244192212));
#825 = CARTESIAN_POINT('',(1.5,-38.0450616456,-27.98661358367));
#826 = CARTESIAN_POINT('',(1.5,-37.87763004705,-27.65075675571));
#827 = CARTESIAN_POINT('',(1.5,-37.7103147301,-27.31484186312));
#828 = CARTESIAN_POINT('',(1.5,-37.54317620089,-26.9788388967));
#829 = CARTESIAN_POINT('',(1.5,-37.37627613702,-26.64271741318));
#830 = CARTESIAN_POINT('',(1.5,-36.89310718435,-25.66746610725));
#831 = CARTESIAN_POINT('',(1.5,-36.57762557693,-25.02794836516));
#832 = CARTESIAN_POINT('',(1.5,-36.26366095103,-24.3876800838));
#833 = CARTESIAN_POINT('',(1.5,-35.95165589614,-23.74644949876));
#834 = CARTESIAN_POINT('',(1.5,-35.64206191762,-23.1040488779));
#835 = CARTESIAN_POINT('',(1.5,-35.33533414874,-22.46027709275));
#836 = CARTESIAN_POINT('',(1.5,-34.25815708009,-20.16917151283));
#837 = CARTESIAN_POINT('',(1.5,-33.50593941755,-18.51315300784));
#838 = CARTESIAN_POINT('',(1.5,-32.78284853676,-16.84380268091));
#839 = CARTESIAN_POINT('',(1.5,-32.09648093523,-15.15867991805));
#840 = CARTESIAN_POINT('',(1.5,-31.45381288465,-13.4562473763));
#841 = CARTESIAN_POINT('',(1.5,-30.86033495258,-11.73621954823));
#842 = CARTESIAN_POINT('',(1.5,-30.3189623079,-10.));
#843 = PCURVE('',#550,#844);
#844 = DEFINITIONAL_REPRESENTATION('',(#845),#890);
#845 = B_SPLINE_CURVE_WITH_KNOTS('',7,(#846,#847,#848,#849,#850,#851,
    #852,#853,#854,#855,#856,#857,#858,#859,#860,#861,#862,#863,#864,
    #865,#866,#867,#868,#869,#870,#871,#872,#873,#874,#875,#876,#877,
    #878,#879,#880,#881,#882,#883,#884,#885,#886,#887,#888,#889),
  .UNSPECIFIED.,.F.,.F.,(8,6,6,6,6,6,6,8),(0.,0.101607400783,
    0.30591523187,0.536528225164,0.592744712724,0.645319662484,
    0.745222348385,1.),.UNSPECIFIED.);
#846 = CARTESIAN_POINT('',(0.758715387963,0.309027437957));
#847 = CARTESIAN_POINT('',(0.758691862166,0.316410406975));
#848 = CARTESIAN_POINT('',(0.758667588807,0.323806925618));
#849 = CARTESIAN_POINT('',(0.758642550221,0.331217433693));
#850 = CARTESIAN_POINT('',(0.758616745751,0.338642133349));
#851 = CARTESIAN_POINT('',(0.758590189898,0.346081000458));
#852 = CARTESIAN_POINT('',(0.758562910481,0.353533795989));
#853 = CARTESIAN_POINT('',(0.758478718595,0.37601295779));
#854 = CARTESIAN_POINT('',(0.758419723459,0.391080592122));
#855 = CARTESIAN_POINT('',(0.758358282653,0.406199017102));
#856 = CARTESIAN_POINT('',(0.758294912983,0.421360957627));
#857 = CARTESIAN_POINT('',(0.758230257069,0.436556461958));
#858 = CARTESIAN_POINT('',(0.75816501223,0.451773721664));
#859 = CARTESIAN_POINT('',(0.758026314987,0.484186863523));
#860 = CARTESIAN_POINT('',(0.757952884133,0.501386077129));
#861 = CARTESIAN_POINT('',(0.757880545621,0.518579143043));
#862 = CARTESIAN_POINT('',(0.7578102472,0.535748831304));
#863 = CARTESIAN_POINT('',(0.757742783091,0.552881147284));
#864 = CARTESIAN_POINT('',(0.757678752741,0.569966517113));
#865 = CARTESIAN_POINT('',(0.75760388819,0.591152345742));
#866 = CARTESIAN_POINT('',(0.757589443316,0.595301556436));
#867 = CARTESIAN_POINT('',(0.757575232316,0.599447646363));
#868 = CARTESIAN_POINT('',(0.757561260347,0.603590567747));
#869 = CARTESIAN_POINT('',(0.757547531877,0.607730288508));
#870 = CARTESIAN_POINT('',(0.757534050692,0.61186679226));
#871 = CARTESIAN_POINT('',(0.757508446141,0.619865622319));
#872 = CARTESIAN_POINT('',(0.757496291393,0.623728350673));
#873 = CARTESIAN_POINT('',(0.757484358181,0.627588263057));
#874 = CARTESIAN_POINT('',(0.757472648526,0.631445368648));
#875 = CARTESIAN_POINT('',(0.757461163939,0.635299686115));
#876 = CARTESIAN_POINT('',(0.757449905415,0.63915124362));
#877 = CARTESIAN_POINT('',(0.757417910529,0.65031361836));
#878 = CARTESIAN_POINT('',(0.757397765701,0.657617306166));
#879 = CARTESIAN_POINT('',(0.757378442175,0.664911425701));
#880 = CARTESIAN_POINT('',(0.757359936758,0.672196323748));
#881 = CARTESIAN_POINT('',(0.7573422397,0.679472409123));
#882 = CARTESIAN_POINT('',(0.757325334535,0.686740151401));
#883 = CARTESIAN_POINT('',(0.757268045455,0.712514771707));
#884 = CARTESIAN_POINT('',(0.757231889879,0.730979564718));
#885 = CARTESIAN_POINT('',(0.757200345236,0.749402063583));
#886 = CARTESIAN_POINT('',(0.757172742187,0.767789653726));
#887 = CARTESIAN_POINT('',(0.757148075896,0.786149780317));
#888 = CARTESIAN_POINT('',(0.75712494235,0.804490140676));
#889 = CARTESIAN_POINT('',(0.757101463146,0.822818789865));
#890 = ( GEOMETRIC_REPRESENTATION_CONTEXT(2) 
PARAMETRIC_REPRESENTATION_CONTEXT() REPRESENTATION_CONTEXT('2D SPACE',''
  ) );
#891 = PCURVE('',#725,#892);
#892 = DEFINITIONAL_REPRESENTATION('',(#893),#938);
#893 = B_SPLINE_CURVE_WITH_KNOTS('',7,(#894,#895,#896,#897,#898,#899,
    #900,#901,#902,#903,#904,#905,#906,#907,#908,#909,#910,#911,#912,
    #913,#914,#915,#916,#917,#918,#919,#920,#921,#922,#923,#924,#925,
    #926,#927,#928,#929,#930,#931,#932,#933,#934,#935,#936,#937),
  .UNSPECIFIED.,.F.,.F.,(8,6,6,6,6,6,6,8),(0.,0.101607400783,
    0.30591523187,0.536528225164,0.592744712724,0.645319662484,
    0.745222348385,1.),.UNSPECIFIED.);
#894 = CARTESIAN_POINT('',(26.126836917104,0.));
#895 = CARTESIAN_POINT('',(26.809897179405,-0.243804649514));
#896 = CARTESIAN_POINT('',(27.492735996609,-0.488227581695));
#897 = CARTESIAN_POINT('',(28.175260987534,-0.733528667355));
#898 = CARTESIAN_POINT('',(28.857373408348,-0.979978380658));
#899 = CARTESIAN_POINT('',(29.538970978366,-1.227849977458));
#900 = CARTESIAN_POINT('',(30.219950705859,-1.477411673625));
#901 = CARTESIAN_POINT('',(32.268051556666,-2.234638681132));
#902 = CARTESIAN_POINT('',(33.633005823417,-2.748232593906));
#903 = CARTESIAN_POINT('',(34.994219788582,-3.271759692065));
#904 = CARTESIAN_POINT('',(36.350865360814,-3.807079899075));
#905 = CARTESIAN_POINT('',(37.702255056518,-4.355565697064));
#906 = CARTESIAN_POINT('',(39.047918832539,-4.917905802228));
#907 = CARTESIAN_POINT('',(41.899861778658,-6.144269414008));
#908 = CARTESIAN_POINT('',(43.404586839678,-6.812095636636));
#909 = CARTESIAN_POINT('',(44.901477809241,-7.497330390622));
#910 = CARTESIAN_POINT('',(46.390849095838,-8.198671648189));
#911 = CARTESIAN_POINT('',(47.873724206626,-8.913545704247));
#912 = CARTESIAN_POINT('',(49.351717839397,-9.638353672559));
#913 = CARTESIAN_POINT('',(51.18648957471,-10.54684220826));
#914 = CARTESIAN_POINT('',(51.545925440313,-10.72523454826));
#915 = CARTESIAN_POINT('',(51.905225871302,-10.90389964523));
#916 = CARTESIAN_POINT('',(52.264422714357,-11.08277287337));
#917 = CARTESIAN_POINT('',(52.623549076502,-11.26178743307));
#918 = CARTESIAN_POINT('',(52.982639325108,-11.44087435087));
#919 = CARTESIAN_POINT('',(53.677558077877,-11.78744980887));
#920 = CARTESIAN_POINT('',(54.013386416328,-11.95493835439));
#921 = CARTESIAN_POINT('',(54.349243244289,-12.12236995294));
#922 = CARTESIAN_POINT('',(54.68515813688,-12.28968526989));
#923 = CARTESIAN_POINT('',(55.021161103298,-12.4568237991));
#924 = CARTESIAN_POINT('',(55.357282586813,-12.62372386297));
#925 = CARTESIAN_POINT('',(56.332533892742,-13.10689281565));
#926 = CARTESIAN_POINT('',(56.972051634832,-13.42237442307));
#927 = CARTESIAN_POINT('',(57.612319916199,-13.73633904897));
#928 = CARTESIAN_POINT('',(58.253550501233,-14.04834410385));
#929 = CARTESIAN_POINT('',(58.895951122093,-14.35793808237));
#930 = CARTESIAN_POINT('',(59.539722907244,-14.66466585125));
#931 = CARTESIAN_POINT('',(61.830828487169,-15.7418429199));
#932 = CARTESIAN_POINT('',(63.48684699216,-16.49406058244));
#933 = CARTESIAN_POINT('',(65.156197319089,-17.21715146324));
#934 = CARTESIAN_POINT('',(66.841320081949,-17.90351906476));
#935 = CARTESIAN_POINT('',(68.543752623697,-18.54618711535));
#936 = CARTESIAN_POINT('',(70.263780451765,-19.13966504741));
#937 = CARTESIAN_POINT('',(72.,-19.68103769209));
#938 = ( GEOMETRIC_REPRESENTATION_CONTEXT(2) 
PARAMETRIC_REPRESENTATION_CONTEXT() REPRESENTATION_CONTEXT('2D SPACE',''
  ) );
#939 = ORIENTED_EDGE('',*,*,#940,.T.);
#940 = EDGE_CURVE('',#795,#427,#941,.T.);
#941 = SURFACE_CURVE('',#942,(#948,#957),.PCURVE_S1.);
#942 = B_SPLINE_CURVE_WITH_KNOTS('',4,(#943,#944,#945,#946,#947),
  .UNSPECIFIED.,.F.,.F.,(5,5),(0.,1.),.PIECEWISE_BEZIER_KNOTS.);
#943 = CARTESIAN_POINT('',(1.5,-30.3189623079,-10.));
#944 = CARTESIAN_POINT('',(0.750278227304,-30.34398163477,-10.));
#945 = CARTESIAN_POINT('',(1.163158458439E-11,-30.3523129381,-10.));
#946 = CARTESIAN_POINT('',(-0.750278227288,-30.34398163531,-10.));
#947 = CARTESIAN_POINT('',(-1.5,-30.3189623089,-10.));
#948 = PCURVE('',#550,#949);
#949 = DEFINITIONAL_REPRESENTATION('',(#950),#956);
#950 = B_SPLINE_CURVE_WITH_KNOTS('',4,(#951,#952,#953,#954,#955),
  .UNSPECIFIED.,.F.,.F.,(5,5),(0.,1.),.PIECEWISE_BEZIER_KNOTS.);
#951 = CARTESIAN_POINT('',(0.757101463146,0.822818789865));
#952 = CARTESIAN_POINT('',(0.753549691373,0.822818789865));
#953 = CARTESIAN_POINT('',(0.750000000011,0.822818789865));
#954 = CARTESIAN_POINT('',(0.746450308649,0.822818789865));
#955 = CARTESIAN_POINT('',(0.742898536876,0.822818789865));
#956 = ( GEOMETRIC_REPRESENTATION_CONTEXT(2) 
PARAMETRIC_REPRESENTATION_CONTEXT() REPRESENTATION_CONTEXT('2D SPACE',''
  ) );
#957 = PCURVE('',#442,#958);
#958 = DEFINITIONAL_REPRESENTATION('',(#959),#965);
#959 = B_SPLINE_CURVE_WITH_KNOTS('',4,(#960,#961,#962,#963,#964),
  .UNSPECIFIED.,.F.,.F.,(5,5),(0.,1.),.PIECEWISE_BEZIER_KNOTS.);
#960 = CARTESIAN_POINT('',(3.,19.681037692099));
#961 = CARTESIAN_POINT('',(2.250278227304,19.656018365221));
#962 = CARTESIAN_POINT('',(1.500000000012,19.647687061894));
#963 = CARTESIAN_POINT('',(0.749721772712,19.656018364681));
#964 = CARTESIAN_POINT('',(0.,19.681037691095));
#965 = ( GEOMETRIC_REPRESENTATION_CONTEXT(2) 
PARAMETRIC_REPRESENTATION_CONTEXT() REPRESENTATION_CONTEXT('2D SPACE',''
  ) );
#966 = ADVANCED_FACE('',(#967),#442,.T.);
#967 = FACE_BOUND('',#968,.T.);
#968 = EDGE_LOOP('',(#969,#970,#971,#994));
#969 = ORIENTED_EDGE('',*,*,#426,.F.);
#970 = ORIENTED_EDGE('',*,*,#940,.F.);
#971 = ORIENTED_EDGE('',*,*,#972,.T.);
#972 = EDGE_CURVE('',#795,#973,#975,.T.);
#973 = VERTEX_POINT('',#974);
#974 = CARTESIAN_POINT('',(1.5,19.899644003638,-10.));
#975 = SURFACE_CURVE('',#976,(#980,#987),.PCURVE_S1.);
#976 = LINE('',#977,#978);
#977 = CARTESIAN_POINT('',(1.5,-50.,-10.));
#978 = VECTOR('',#979,1.);
#979 = DIRECTION('',(0.,1.,0.));
#980 = PCURVE('',#442,#981);
#981 = DEFINITIONAL_REPRESENTATION('',(#982),#986);
#982 = LINE('',#983,#984);
#983 = CARTESIAN_POINT('',(3.,0.));
#984 = VECTOR('',#985,1.);
#985 = DIRECTION('',(0.,1.));
#986 = ( GEOMETRIC_REPRESENTATION_CONTEXT(2) 
PARAMETRIC_REPRESENTATION_CONTEXT() REPRESENTATION_CONTEXT('2D SPACE',''
  ) );
#987 = PCURVE('',#725,#988);
#988 = DEFINITIONAL_REPRESENTATION('',(#989),#993);
#989 = LINE('',#990,#991);
#990 = CARTESIAN_POINT('',(72.,0.));
#991 = VECTOR('',#992,1.);
#992 = DIRECTION('',(0.,-1.));
#993 = ( GEOMETRIC_REPRESENTATION_CONTEXT(2) 
PARAMETRIC_REPRESENTATION_CONTEXT() REPRESENTATION_CONTEXT('2D SPACE',''
  ) );
#994 = ORIENTED_EDGE('',*,*,#995,.F.);
#995 = EDGE_CURVE('',#85,#973,#996,.T.);
#996 = SURFACE_CURVE('',#997,(#1003,#1012),.PCURVE_S1.);
#997 = B_SPLINE_CURVE_WITH_KNOTS('',4,(#998,#999,#1000,#1001,#1002),
  .UNSPECIFIED.,.F.,.F.,(5,5),(0.,1.),.PIECEWISE_BEZIER_KNOTS.);
#998 = CARTESIAN_POINT('',(-1.5,19.899644004642,-10.));
#999 = CARTESIAN_POINT('',(-0.750278227288,19.924663331057,-10.));
#1000 = CARTESIAN_POINT('',(1.152500317403E-11,19.932994633844,-10.));
#1001 = CARTESIAN_POINT('',(0.750278227304,19.924663330516,-10.));
#1002 = CARTESIAN_POINT('',(1.5,19.899644003638,-10.));
#1003 = PCURVE('',#442,#1004);
#1004 = DEFINITIONAL_REPRESENTATION('',(#1005),#1011);
#1005 = B_SPLINE_CURVE_WITH_KNOTS('',4,(#1006,#1007,#1008,#1009,#1010),
  .UNSPECIFIED.,.F.,.F.,(5,5),(0.,1.),.PIECEWISE_BEZIER_KNOTS.);
#1006 = CARTESIAN_POINT('',(0.,69.899644004642));
#1007 = CARTESIAN_POINT('',(0.749721772712,69.924663331057));
#1008 = CARTESIAN_POINT('',(1.500000000012,69.932994633844));
#1009 = CARTESIAN_POINT('',(2.250278227304,69.924663330516));
#1010 = CARTESIAN_POINT('',(3.,69.899644003638));
#1011 = ( GEOMETRIC_REPRESENTATION_CONTEXT(2) 
PARAMETRIC_REPRESENTATION_CONTEXT() REPRESENTATION_CONTEXT('2D SPACE',''
  ) );
#1012 = PCURVE('',#242,#1013);
#1013 = DEFINITIONAL_REPRESENTATION('',(#1014),#1020);
#1014 = B_SPLINE_CURVE_WITH_KNOTS('',4,(#1015,#1016,#1017,#1018,#1019),
  .UNSPECIFIED.,.F.,.F.,(5,5),(0.,1.),.PIECEWISE_BEZIER_KNOTS.);
#1015 = CARTESIAN_POINT('',(0.257101463124,0.822818789865));
#1016 = CARTESIAN_POINT('',(0.253549691351,0.822818789865));
#1017 = CARTESIAN_POINT('',(0.249999999989,0.822818789865));
#1018 = CARTESIAN_POINT('',(0.246450308627,0.822818789865));
#1019 = CARTESIAN_POINT('',(0.242898536854,0.822818789865));
#1020 = ( GEOMETRIC_REPRESENTATION_CONTEXT(2) 
PARAMETRIC_REPRESENTATION_CONTEXT() REPRESENTATION_CONTEXT('2D SPACE',''
  ) );
#1021 = ADVANCED_FACE('',(#1022),#242,.T.);
#1022 = FACE_BOUND('',#1023,.T.);
#1023 = EDGE_LOOP('',(#1024,#1053,#1054,#1055));
#1024 = ORIENTED_EDGE('',*,*,#1025,.F.);
#1025 = EDGE_CURVE('',#57,#1026,#1028,.T.);
#1026 = VERTEX_POINT('',#1027);
#1027 = CARTESIAN_POINT('',(1.5,-22.87625746381,-82.));
#1028 = SURFACE_CURVE('',#1029,(#1035,#1044),.PCURVE_S1.);
#1029 = B_SPLINE_CURVE_WITH_KNOTS('',4,(#1030,#1031,#1032,#1033,#1034),
  .UNSPECIFIED.,.F.,.F.,(5,5),(0.,1.),.PIECEWISE_BEZIER_KNOTS.);
#1030 = CARTESIAN_POINT('',(-1.5,-22.87625746282,-82.));
#1031 = CARTESIAN_POINT('',(-0.750574346923,-22.84030796336,-82.));
#1032 = CARTESIAN_POINT('',(1.675259930778E-11,-22.82834644322,-82.));
#1033 = CARTESIAN_POINT('',(0.750574346943,-22.84030796393,-82.));
#1034 = CARTESIAN_POINT('',(1.5,-22.87625746381,-82.));
#1035 = PCURVE('',#242,#1036);
#1036 = DEFINITIONAL_REPRESENTATION('',(#1037),#1043);
#1037 = B_SPLINE_CURVE_WITH_KNOTS('',4,(#1038,#1039,#1040,#1041,#1042),
  .UNSPECIFIED.,.F.,.F.,(5,5),(0.,1.),.PIECEWISE_BEZIER_KNOTS.);
#1038 = CARTESIAN_POINT('',(0.260018983661,2.373009526522E-02));
#1039 = CARTESIAN_POINT('',(0.255006705363,2.373009526522E-02));
#1040 = CARTESIAN_POINT('',(0.249999999989,2.373009526522E-02));
#1041 = CARTESIAN_POINT('',(0.244993294615,2.373009526522E-02));
#1042 = CARTESIAN_POINT('',(0.239981016318,2.373009526522E-02));
#1043 = ( GEOMETRIC_REPRESENTATION_CONTEXT(2) 
PARAMETRIC_REPRESENTATION_CONTEXT() REPRESENTATION_CONTEXT('2D SPACE',''
  ) );
#1044 = PCURVE('',#72,#1045);
#1045 = DEFINITIONAL_REPRESENTATION('',(#1046),#1052);
#1046 = B_SPLINE_CURVE_WITH_KNOTS('',4,(#1047,#1048,#1049,#1050,#1051),
  .UNSPECIFIED.,.F.,.F.,(5,5),(0.,1.),.PIECEWISE_BEZIER_KNOTS.);
#1047 = CARTESIAN_POINT('',(0.,27.123742537174));
#1048 = CARTESIAN_POINT('',(0.749425653077,27.159692036632));
#1049 = CARTESIAN_POINT('',(1.500000000017,27.171653556778));
#1050 = CARTESIAN_POINT('',(2.250574346943,27.159692036063));
#1051 = CARTESIAN_POINT('',(3.,27.12374253619));
#1052 = ( GEOMETRIC_REPRESENTATION_CONTEXT(2) 
PARAMETRIC_REPRESENTATION_CONTEXT() REPRESENTATION_CONTEXT('2D SPACE',''
  ) );
#1053 = ORIENTED_EDGE('',*,*,#84,.T.);
#1054 = ORIENTED_EDGE('',*,*,#995,.T.);
#1055 = ORIENTED_EDGE('',*,*,#1056,.F.);
#1056 = EDGE_CURVE('',#1026,#973,#1057,.T.);
#1057 = SURFACE_CURVE('',#1058,(#1133,#1211),.PCURVE_S1.);
#1058 = B_SPLINE_CURVE_WITH_KNOTS('',7,(#1059,#1060,#1061,#1062,#1063,
    #1064,#1065,#1066,#1067,#1068,#1069,#1070,#1071,#1072,#1073,#1074,
    #1075,#1076,#1077,#1078,#1079,#1080,#1081,#1082,#1083,#1084,#1085,
    #1086,#1087,#1088,#1089,#1090,#1091,#1092,#1093,#1094,#1095,#1096,
    #1097,#1098,#1099,#1100,#1101,#1102,#1103,#1104,#1105,#1106,#1107,
    #1108,#1109,#1110,#1111,#1112,#1113,#1114,#1115,#1116,#1117,#1118,
    #1119,#1120,#1121,#1122,#1123,#1124,#1125,#1126,#1127,#1128,#1129,
    #1130,#1131,#1132),.UNSPECIFIED.,.F.,.F.,(8,6,6,6,6,6,6,6,6,6,6,6,8)
  ,(0.,0.156290345287,0.209700293946,0.246978913377,0.310443106007,
    0.437861819522,0.622910549233,0.65699732042,0.688538471198,
    0.722554792549,0.826579851202,0.940818227105,1.),.UNSPECIFIED.);
#1059 = CARTESIAN_POINT('',(1.5,-22.87625746381,-82.));
#1060 = CARTESIAN_POINT('',(1.5,-21.71982630785,-80.52625210817));
#1061 = CARTESIAN_POINT('',(1.5,-20.63049033011,-79.00030695055));
#1062 = CARTESIAN_POINT('',(1.5,-19.60481910643,-77.43046793238));
#1063 = CARTESIAN_POINT('',(1.5,-18.63502856969,-75.82591966624));
#1064 = CARTESIAN_POINT('',(1.5,-17.71089399738,-74.19558839332));
#1065 = CARTESIAN_POINT('',(1.5,-16.8218329871,-72.54683871576));
#1066 = CARTESIAN_POINT('',(1.5,-15.66204771757,-70.31727698562));
#1067 = CARTESIAN_POINT('',(1.5,-15.36954213352,-69.74791548318));
#1068 = CARTESIAN_POINT('',(1.5,-15.07951547374,-69.17728507229));
#1069 = CARTESIAN_POINT('',(1.5,-14.79156931423,-68.60560404104));
#1070 = CARTESIAN_POINT('',(1.5,-14.5053176341,-68.03307712214));
#1071 = CARTESIAN_POINT('',(1.5,-14.22038880391,-67.45989448551));
#1072 = CARTESIAN_POINT('',(1.5,-13.73823074221,-66.48582980702));
#1073 = CARTESIAN_POINT('',(1.5,-13.5405058427,-66.0851955137));
#1074 = CARTESIAN_POINT('',(1.5,-13.34313214532,-65.68438801472));
#1075 = CARTESIAN_POINT('',(1.5,-13.14599351055,-65.28346492288));
#1076 = CARTESIAN_POINT('',(1.5,-12.94897838962,-64.8824813001));
#1077 = CARTESIAN_POINT('',(1.5,-12.75197982455,-64.48148965735));
#1078 = CARTESIAN_POINT('',(1.5,-12.21937334398,-63.39795166276));
#1079 = CARTESIAN_POINT('',(1.5,-11.88360358069,-62.71548645878));
#1080 = CARTESIAN_POINT('',(1.5,-11.54708136965,-62.03339000836));
#1081 = CARTESIAN_POINT('',(1.5,-11.20934511357,-61.35189124637));
#1082 = CARTESIAN_POINT('',(1.5,-10.86997707522,-60.67120204786));
#1083 = CARTESIAN_POINT('',(1.5,-10.52860404622,-59.99151689896));
#1084 = CARTESIAN_POINT('',(1.5,-9.494830461158,-57.95076173916));
#1085 = CARTESIAN_POINT('',(1.5,-8.795345360944,-56.59324475592));
#1086 = CARTESIAN_POINT('',(1.5,-8.083814238895,-55.24194944626));
#1087 = CARTESIAN_POINT('',(1.5,-7.358327724661,-53.89805170365));
#1088 = CARTESIAN_POINT('',(1.5,-6.617698230168,-52.56241432904));
#1089 = CARTESIAN_POINT('',(1.5,-5.861436504944,-51.23559990999));
#1090 = CARTESIAN_POINT('',(1.5,-3.968921042055,-48.00421405045));
#1091 = CARTESIAN_POINT('',(1.5,-2.815395582341,-46.10956038841));
#1092 = CARTESIAN_POINT('',(1.5,-1.629628573669,-44.2348758702));
#1093 = CARTESIAN_POINT('',(1.5,-0.414594418933,-42.37914189187));
#1094 = CARTESIAN_POINT('',(1.5,0.82470076176,-40.53967271072));
#1095 = CARTESIAN_POINT('',(1.5,2.08176831929,-38.71247363616));
#1096 = CARTESIAN_POINT('',(1.5,3.582590195941,-36.55733437202));
#1097 = CARTESIAN_POINT('',(1.5,3.816396163868,-36.22234485971));
#1098 = CARTESIAN_POINT('',(1.5,4.050507169119,-35.88756839517));
#1099 = CARTESIAN_POINT('',(1.5,4.284875778058,-35.55297228974));
#1100 = CARTESIAN_POINT('',(1.5,4.519453539835,-35.21852291843));
#1101 = CARTESIAN_POINT('',(1.5,4.75419098638,-34.88418571993));
#1102 = CARTESIAN_POINT('',(1.5,5.206345790803,-34.24062744856));
#1103 = CARTESIAN_POINT('',(1.5,5.423747491378,-33.93139547183));
#1104 = CARTESIAN_POINT('',(1.5,5.641202747225,-33.62220114583));
#1105 = CARTESIAN_POINT('',(1.5,5.858670983658,-33.31301594414));
#1106 = CARTESIAN_POINT('',(1.5,6.076111038222,-33.00381093451));
#1107 = CARTESIAN_POINT('',(1.5,6.293481160687,-32.69455677887));
#1108 = CARTESIAN_POINT('',(1.5,6.745046029119,-32.05161598525));
#1109 = CARTESIAN_POINT('',(1.5,6.979222517017,-31.71791664659));
#1110 = CARTESIAN_POINT('',(1.5,7.213215342461,-31.38408836224));
#1111 = CARTESIAN_POINT('',(1.5,7.446970809266,-31.05009367083));
#1112 = CARTESIAN_POINT('',(1.5,7.680434659348,-30.71589500473));
#1113 = CARTESIAN_POINT('',(1.5,7.913552072726,-30.38145469001));
#1114 = CARTESIAN_POINT('',(1.5,8.857933492523,-29.0231309949));
#1115 = CARTESIAN_POINT('',(1.5,9.565835361336,-27.99692418183));
#1116 = CARTESIAN_POINT('',(1.5,10.268405321057,-26.96702140697));
#1117 = CARTESIAN_POINT('',(1.5,10.964022109306,-25.93236719786));
#1118 = CARTESIAN_POINT('',(1.5,11.651051315065,-24.89197062171));
#1119 = CARTESIAN_POINT('',(1.5,12.327905903593,-23.84494583764));
#1120 = CARTESIAN_POINT('',(1.5,13.723660600883,-21.6326663684));
#1121 = CARTESIAN_POINT('',(1.5,14.440180528265,-20.46587035021));
#1122 = CARTESIAN_POINT('',(1.5,15.140708007663,-19.28929033956));
#1123 = CARTESIAN_POINT('',(1.5,15.823467267128,-18.10224879231));
#1124 = CARTESIAN_POINT('',(1.5,16.487030536254,-16.90436114444));
#1125 = CARTESIAN_POINT('',(1.5,17.130479121868,-15.6956282373));
#1126 = CARTESIAN_POINT('',(1.5,18.076381596504,-13.84498290715));
#1127 = CARTESIAN_POINT('',(1.5,18.39372795915,-13.21063549268));
#1128 = CARTESIAN_POINT('',(1.5,18.705589484861,-12.5735586302));
#1129 = CARTESIAN_POINT('',(1.5,19.011991867096,-11.93383599561));
#1130 = CARTESIAN_POINT('',(1.5,19.31302168932,-11.29157497096));
#1131 = CARTESIAN_POINT('',(1.5,19.608831352672,-10.64690900937));
#1132 = CARTESIAN_POINT('',(1.5,19.899644003638,-10.));
#1133 = PCURVE('',#242,#1134);
#1134 = DEFINITIONAL_REPRESENTATION('',(#1135),#1210);
#1135 = B_SPLINE_CURVE_WITH_KNOTS('',7,(#1136,#1137,#1138,#1139,#1140,
    #1141,#1142,#1143,#1144,#1145,#1146,#1147,#1148,#1149,#1150,#1151,
    #1152,#1153,#1154,#1155,#1156,#1157,#1158,#1159,#1160,#1161,#1162,
    #1163,#1164,#1165,#1166,#1167,#1168,#1169,#1170,#1171,#1172,#1173,
    #1174,#1175,#1176,#1177,#1178,#1179,#1180,#1181,#1182,#1183,#1184,
    #1185,#1186,#1187,#1188,#1189,#1190,#1191,#1192,#1193,#1194,#1195,
    #1196,#1197,#1198,#1199,#1200,#1201,#1202,#1203,#1204,#1205,#1206,
    #1207,#1208,#1209),.UNSPECIFIED.,.F.,.F.,(8,6,6,6,6,6,6,6,6,6,6,6,8)
  ,(0.,0.156290345287,0.209700293946,0.246978913377,0.310443106007,
    0.437861819522,0.622910549233,0.65699732042,0.688538471198,
    0.722554792549,0.826579851202,0.940818227105,1.),.UNSPECIFIED.);
#1136 = CARTESIAN_POINT('',(0.239981016318,2.373009526522E-02));
#1137 = CARTESIAN_POINT('',(0.240210243043,4.1006812973E-02));
#1138 = CARTESIAN_POINT('',(0.240384427395,5.855525605486E-02));
#1139 = CARTESIAN_POINT('',(0.240518968705,7.629436746645E-02));
#1140 = CARTESIAN_POINT('',(0.240624297357,9.415299058492E-02));
#1141 = CARTESIAN_POINT('',(0.240708626945,0.112076569577));
#1142 = CARTESIAN_POINT('',(0.240778233261,0.130030527571));
#1143 = CARTESIAN_POINT('',(0.240858463146,0.154140910232));
#1144 = CARTESIAN_POINT('',(0.24087775112,0.160283425862));
#1145 = CARTESIAN_POINT('',(0.240896087964,0.16642689942));
#1146 = CARTESIAN_POINT('',(0.240913649601,0.172570727958));
#1147 = CARTESIAN_POINT('',(0.240930594252,0.178714427623));
#1148 = CARTESIAN_POINT('',(0.240947064004,0.184857630118));
#1149 = CARTESIAN_POINT('',(0.240974439309,0.195287333241));
#1150 = CARTESIAN_POINT('',(0.240985523063,0.199574208827));
#1151 = CARTESIAN_POINT('',(0.240996480706,0.203860612435));
#1152 = CARTESIAN_POINT('',(0.241007352053,0.208146463207));
#1153 = CARTESIAN_POINT('',(0.241018173647,0.212431692909));
#1154 = CARTESIAN_POINT('',(0.241028978765,0.216716245932));
#1155 = CARTESIAN_POINT('',(0.241058215394,0.228293000265));
#1156 = CARTESIAN_POINT('',(0.241076672814,0.235583816765));
#1157 = CARTESIAN_POINT('',(0.241095318716,0.24287231874));
#1158 = CARTESIAN_POINT('',(0.241114276775,0.250158332956));
#1159 = CARTESIAN_POINT('',(0.241133647287,0.257441713949));
#1160 = CARTESIAN_POINT('',(0.241153509161,0.264722334968));
#1161 = CARTESIAN_POINT('',(0.241214905088,0.286611795123));
#1162 = CARTESIAN_POINT('',(0.241258109476,0.301212193519));
#1163 = CARTESIAN_POINT('',(0.241304015223,0.315799725657));
#1164 = CARTESIAN_POINT('',(0.241352785571,0.330373281375));
#1165 = CARTESIAN_POINT('',(0.241404331992,0.34493191399));
#1166 = CARTESIAN_POINT('',(0.241458380898,0.359474606261));
#1167 = CARTESIAN_POINT('',(0.241596103936,0.395095251174));
#1168 = CARTESIAN_POINT('',(0.241682128403,0.416156184561));
#1169 = CARTESIAN_POINT('',(0.241771419139,0.437178435682));
#1170 = CARTESIAN_POINT('',(0.241862276178,0.458164491207));
#1171 = CARTESIAN_POINT('',(0.241952949331,0.479121964317));
#1172 = CARTESIAN_POINT('',(0.242041873167,0.500062341748));
#1173 = CARTESIAN_POINT('',(0.242143552781,0.524856897419));
#1174 = CARTESIAN_POINT('',(0.24215926545,0.528713659905));
#1175 = CARTESIAN_POINT('',(0.242174866228,0.532570461325));
#1176 = CARTESIAN_POINT('',(0.242190347248,0.536427401068));
#1177 = CARTESIAN_POINT('',(0.242205700961,0.540284580718));
#1178 = CARTESIAN_POINT('',(0.242220920136,0.544142104056));
#1179 = CARTESIAN_POINT('',(0.242249949567,0.551569934336));
#1180 = CARTESIAN_POINT('',(0.24226378017,0.555140175754));
#1181 = CARTESIAN_POINT('',(0.242277484192,0.55871088528));
#1182 = CARTESIAN_POINT('',(0.242291056415,0.562282146703));
#1183 = CARTESIAN_POINT('',(0.242304491874,0.565854043627));
#1184 = CARTESIAN_POINT('',(0.242317785861,0.569426659476));
#1185 = CARTESIAN_POINT('',(0.242345113766,0.576853917081));
#1186 = CARTESIAN_POINT('',(0.242359123889,0.580708688463));
#1187 = CARTESIAN_POINT('',(0.2423729587,0.584564496321));
#1188 = CARTESIAN_POINT('',(0.24238661298,0.588421442247));
#1189 = CARTESIAN_POINT('',(0.242400081879,0.592279624743));
#1190 = CARTESIAN_POINT('',(0.242413360916,0.596139139221));
#1191 = CARTESIAN_POINT('',(0.242466461319,0.611807186102));
#1192 = CARTESIAN_POINT('',(0.242504662316,0.623627499265));
#1193 = CARTESIAN_POINT('',(0.24254093248,0.635463833116));
#1194 = CARTESIAN_POINT('',(0.242575187886,0.647318313713));
#1195 = CARTESIAN_POINT('',(0.242607380854,0.659192313593));
#1196 = CARTESIAN_POINT('',(0.242637505769,0.671086369169));
#1197 = CARTESIAN_POINT('',(0.24269646738,0.696083493559));
#1198 = CARTESIAN_POINT('',(0.242724887857,0.709190906805));
#1199 = CARTESIAN_POINT('',(0.242750925451,0.722320949004));
#1200 = CARTESIAN_POINT('',(0.242774710693,0.735471139206));
#1201 = CARTESIAN_POINT('',(0.242796462292,0.74863782973));
#1202 = CARTESIAN_POINT('',(0.2428165011,0.761816168596));
#1203 = CARTESIAN_POINT('',(0.242844983364,0.781830073051));
#1204 = CARTESIAN_POINT('',(0.242854360891,0.788661693267));
#1205 = CARTESIAN_POINT('',(0.242863456652,0.795494153296));
#1206 = CARTESIAN_POINT('',(0.242872339797,0.80232672393));
#1207 = CARTESIAN_POINT('',(0.242881088188,0.809158739462));
#1208 = CARTESIAN_POINT('',(0.242889788589,0.815989602679));
#1209 = CARTESIAN_POINT('',(0.242898536854,0.822818789865));
#1210 = ( GEOMETRIC_REPRESENTATION_CONTEXT(2) 
PARAMETRIC_REPRESENTATION_CONTEXT() REPRESENTATION_CONTEXT('2D SPACE',''
  ) );
#1211 = PCURVE('',#725,#1212);
#1212 = DEFINITIONAL_REPRESENTATION('',(#1213),#1288);
#1213 = B_SPLINE_CURVE_WITH_KNOTS('',7,(#1214,#1215,#1216,#1217,#1218,
    #1219,#1220,#1221,#1222,#1223,#1224,#1225,#1226,#1227,#1228,#1229,
    #1230,#1231,#1232,#1233,#1234,#1235,#1236,#1237,#1238,#1239,#1240,
    #1241,#1242,#1243,#1244,#1245,#1246,#1247,#1248,#1249,#1250,#1251,
    #1252,#1253,#1254,#1255,#1256,#1257,#1258,#1259,#1260,#1261,#1262,
    #1263,#1264,#1265,#1266,#1267,#1268,#1269,#1270,#1271,#1272,#1273,
    #1274,#1275,#1276,#1277,#1278,#1279,#1280,#1281,#1282,#1283,#1284,
    #1285,#1286,#1287),.UNSPECIFIED.,.F.,.F.,(8,6,6,6,6,6,6,6,6,6,6,6,8)
  ,(0.,0.156290345287,0.209700293946,0.246978913377,0.310443106007,
    0.437861819522,0.622910549233,0.65699732042,0.688538471198,
    0.722554792549,0.826579851202,0.940818227105,1.),.UNSPECIFIED.);
#1214 = CARTESIAN_POINT('',(0.,-27.12374253619));
#1215 = CARTESIAN_POINT('',(1.47374789183,-28.28017369214));
#1216 = CARTESIAN_POINT('',(2.999693049442,-29.36950966988));
#1217 = CARTESIAN_POINT('',(4.569532067611,-30.39518089357));
#1218 = CARTESIAN_POINT('',(6.17408033376,-31.3649714303));
#1219 = CARTESIAN_POINT('',(7.804411606676,-32.28910600261));
#1220 = CARTESIAN_POINT('',(9.453161284233,-33.17816701289));
#1221 = CARTESIAN_POINT('',(11.682723014377,-34.33795228242));
#1222 = CARTESIAN_POINT('',(12.252084516815,-34.63045786647));
#1223 = CARTESIAN_POINT('',(12.82271492771,-34.92048452625));
#1224 = CARTESIAN_POINT('',(13.394395958956,-35.20843068576));
#1225 = CARTESIAN_POINT('',(13.966922877853,-35.49468236589));
#1226 = CARTESIAN_POINT('',(14.540105514481,-35.77961119608));
#1227 = CARTESIAN_POINT('',(15.514170192974,-36.26176925778));
#1228 = CARTESIAN_POINT('',(15.914804486292,-36.45949415729));
#1229 = CARTESIAN_POINT('',(16.315611985278,-36.65686785467));
#1230 = CARTESIAN_POINT('',(16.716535077114,-36.85400648944));
#1231 = CARTESIAN_POINT('',(17.117518699896,-37.05102161037));
#1232 = CARTESIAN_POINT('',(17.518510342643,-37.24802017544));
#1233 = CARTESIAN_POINT('',(18.602048337233,-37.78062665601));
#1234 = CARTESIAN_POINT('',(19.284513541213,-38.1163964193));
#1235 = CARTESIAN_POINT('',(19.966609991636,-38.45291863034));
#1236 = CARTESIAN_POINT('',(20.648108753626,-38.79065488642));
#1237 = CARTESIAN_POINT('',(21.328797952133,-39.13002292477));
#1238 = CARTESIAN_POINT('',(22.008483101033,-39.47139595377));
#1239 = CARTESIAN_POINT('',(24.049238260831,-40.50516953884));
#1240 = CARTESIAN_POINT('',(25.406755244079,-41.20465463905));
#1241 = CARTESIAN_POINT('',(26.758050553734,-41.9161857611));
#1242 = CARTESIAN_POINT('',(28.101948296345,-42.64167227533));
#1243 = CARTESIAN_POINT('',(29.437585670951,-43.38230176983));
#1244 = CARTESIAN_POINT('',(30.764400090007,-44.13856349505));
#1245 = CARTESIAN_POINT('',(33.99578594955,-46.03107895794));
#1246 = CARTESIAN_POINT('',(35.890439611588,-47.18460441765));
#1247 = CARTESIAN_POINT('',(37.765124129791,-48.37037142633));
#1248 = CARTESIAN_POINT('',(39.620858108126,-49.58540558106));
#1249 = CARTESIAN_POINT('',(41.460327289272,-50.82470076176));
#1250 = CARTESIAN_POINT('',(43.287526363833,-52.08176831929));
#1251 = CARTESIAN_POINT('',(45.442665627972,-53.58259019594));
#1252 = CARTESIAN_POINT('',(45.77765514029,-53.81639616386));
#1253 = CARTESIAN_POINT('',(46.11243160483,-54.05050716911));
#1254 = CARTESIAN_POINT('',(46.447027710257,-54.28487577805));
#1255 = CARTESIAN_POINT('',(46.781477081561,-54.51945353983));
#1256 = CARTESIAN_POINT('',(47.115814280062,-54.75419098638));
#1257 = CARTESIAN_POINT('',(47.759372551437,-55.2063457908));
#1258 = CARTESIAN_POINT('',(48.068604528161,-55.42374749137));
#1259 = CARTESIAN_POINT('',(48.377798854162,-55.64120274722));
#1260 = CARTESIAN_POINT('',(48.686984055855,-55.85867098365));
#1261 = CARTESIAN_POINT('',(48.996189065484,-56.07611103822));
#1262 = CARTESIAN_POINT('',(49.305443221125,-56.29348116068));
#1263 = CARTESIAN_POINT('',(49.948384014746,-56.74504602911));
#1264 = CARTESIAN_POINT('',(50.282083353405,-56.97922251701));
#1265 = CARTESIAN_POINT('',(50.615911637755,-57.21321534246));
#1266 = CARTESIAN_POINT('',(50.949906329162,-57.44697080926));
#1267 = CARTESIAN_POINT('',(51.284104995267,-57.68043465934));
#1268 = CARTESIAN_POINT('',(51.618545309989,-57.91355207272));
#1269 = CARTESIAN_POINT('',(52.976869005097,-58.85793349252));
#1270 = CARTESIAN_POINT('',(54.003075818161,-59.56583536133));
#1271 = CARTESIAN_POINT('',(55.032978593022,-60.26840532105));
#1272 = CARTESIAN_POINT('',(56.067632802137,-60.9640221093));
#1273 = CARTESIAN_POINT('',(57.108029378288,-61.65105131506));
#1274 = CARTESIAN_POINT('',(58.155054162353,-62.32790590359));
#1275 = CARTESIAN_POINT('',(60.367333631595,-63.72366060088));
#1276 = CARTESIAN_POINT('',(61.534129649787,-64.44018052826));
#1277 = CARTESIAN_POINT('',(62.710709660438,-65.14070800766));
#1278 = CARTESIAN_POINT('',(63.897751207689,-65.82346726712));
#1279 = CARTESIAN_POINT('',(65.095638855555,-66.48703053625));
#1280 = CARTESIAN_POINT('',(66.304371762698,-67.13047912186));
#1281 = CARTESIAN_POINT('',(68.155017092847,-68.0763815965));
#1282 = CARTESIAN_POINT('',(68.789364507315,-68.39372795915));
#1283 = CARTESIAN_POINT('',(69.426441369794,-68.70558948486));
#1284 = CARTESIAN_POINT('',(70.066164004388,-69.01199186709));
#1285 = CARTESIAN_POINT('',(70.70842502904,-69.31302168932));
#1286 = CARTESIAN_POINT('',(71.353090990621,-69.60883135267));
#1287 = CARTESIAN_POINT('',(72.,-69.89964400363));
#1288 = ( GEOMETRIC_REPRESENTATION_CONTEXT(2) 
PARAMETRIC_REPRESENTATION_CONTEXT() REPRESENTATION_CONTEXT('2D SPACE',''
  ) );
#1289 = ADVANCED_FACE('',(#1290),#72,.F.);
#1290 = FACE_BOUND('',#1291,.F.);
#1291 = EDGE_LOOP('',(#1292,#1293,#1294,#1315));
#1292 = ORIENTED_EDGE('',*,*,#56,.F.);
#1293 = ORIENTED_EDGE('',*,*,#737,.T.);
#1294 = ORIENTED_EDGE('',*,*,#1295,.T.);
#1295 = EDGE_CURVE('',#708,#1026,#1296,.T.);
#1296 = SURFACE_CURVE('',#1297,(#1301,#1308),.PCURVE_S1.);
#1297 = LINE('',#1298,#1299);
#1298 = CARTESIAN_POINT('',(1.5,-50.,-82.));
#1299 = VECTOR('',#1300,1.);
#1300 = DIRECTION('',(0.,1.,0.));
#1301 = PCURVE('',#72,#1302);
#1302 = DEFINITIONAL_REPRESENTATION('',(#1303),#1307);
#1303 = LINE('',#1304,#1305);
#1304 = CARTESIAN_POINT('',(3.,0.));
#1305 = VECTOR('',#1306,1.);
#1306 = DIRECTION('',(0.,1.));
#1307 = ( GEOMETRIC_REPRESENTATION_CONTEXT(2) 
PARAMETRIC_REPRESENTATION_CONTEXT() REPRESENTATION_CONTEXT('2D SPACE',''
  ) );
#1308 = PCURVE('',#725,#1309);
#1309 = DEFINITIONAL_REPRESENTATION('',(#1310),#1314);
#1310 = LINE('',#1311,#1312);
#1311 = CARTESIAN_POINT('',(0.,0.));
#1312 = VECTOR('',#1313,1.);
#1313 = DIRECTION('',(0.,-1.));
#1314 = ( GEOMETRIC_REPRESENTATION_CONTEXT(2) 
PARAMETRIC_REPRESENTATION_CONTEXT() REPRESENTATION_CONTEXT('2D SPACE',''
  ) );
#1315 = ORIENTED_EDGE('',*,*,#1025,.F.);
#1316 = ADVANCED_FACE('',(#1317),#725,.T.);
#1317 = FACE_BOUND('',#1318,.T.);
#1318 = EDGE_LOOP('',(#1319,#1320,#1321,#1322,#1323));
#1319 = ORIENTED_EDGE('',*,*,#707,.F.);
#1320 = ORIENTED_EDGE('',*,*,#1295,.T.);
#1321 = ORIENTED_EDGE('',*,*,#1056,.T.);
#1322 = ORIENTED_EDGE('',*,*,#972,.F.);
#1323 = ORIENTED_EDGE('',*,*,#794,.F.);
#1324 = ( GEOMETRIC_REPRESENTATION_CONTEXT(3) 
GLOBAL_UNCERTAINTY_ASSIGNED_CONTEXT((#1328)) 
GLOBAL_UNIT_ASSIGNED_CONTEXT((#1325,#1326,#1327)) REPRESENTATION_CONTEXT
('Context #1','3D Context with UNIT and UNCERTAINTY') );
#1325 = ( LENGTH_UNIT() NAMED_UNIT(*) SI_UNIT(.MILLI.,.METRE.) );
#1326 = ( NAMED_UNIT(*) PLANE_ANGLE_UNIT() SI_UNIT($,.RADIAN.) );
#1327 = ( NAMED_UNIT(*) SI_UNIT($,.STERADIAN.) SOLID_ANGLE_UNIT() );
#1328 = UNCERTAINTY_MEASURE_WITH_UNIT(LENGTH_MEASURE(2.E-06),#1325,
  'distance_accuracy_value','confusion accuracy');
#1329 = PRODUCT_RELATED_PRODUCT_CATEGORY('part',$,(#7));
ENDSEC;
END-ISO-10303-21;
