ISO-10303-21;
HEADER;
FILE_DESCRIPTION(('Open CASCADE Model'),'2;1');
FILE_NAME('Open CASCADE Shape Model','2026-08-16T23:33:06',('Author'),(
    'Open CASCADE'),'Open CASCADE STEP processor 7.8','Open CASCADE 7.8'
  ,'Unknown');
FILE_SCHEMA(('AUTOMOTIVE_DESIGN { 1 0 10303 214 1 1 1 1 }'));
ENDSEC;
DATA;
#1 = APPLICATION_PROTOCOL_DEFINITION('international standard',
  'automotive_design',2000,#2);
#2 = APPLICATION_CONTEXT(
  'core data for automotive mechanical design processes');
#3 = SHAPE_DEFINITION_REPRESENTATION(#4,#10);
#4 = PRODUCT_DEFINITION_SHAPE('','',#5);
#5 = PRODUCT_DEFINITION('design','',#6,#9);
#6 = PRODUCT_DEFINITION_FORMATION('','',#7);
#7 = PRODUCT('Open CASCADE STEP translator 7.8 45',
  'Open CASCADE STEP translator 7.8 45','',(#8));
#8 = PRODUCT_CONTEXT('',#2,'mechanical');
#9 = PRODUCT_DEFINITION_CONTEXT('part definition',#2,'design');
#10 = ADVANCED_BREP_SHAPE_REPRESENTATION('',(#11,#15),#1295);
#11 = AXIS2_PLACEMENT_3D('',#12,#13,#14);
#12 = CARTESIAN_POINT('',(0.,0.,0.));
#13 = DIRECTION('',(0.,0.,1.));
#14 = DIRECTION('',(1.,0.,-0.));
#15 = MANIFOLD_SOLID_BREP('',#16);
#16 = CLOSED_SHELL('',(#17,#612,#706,#773,#1212,#1263,#1289));
#17 = ADVANCED_FACE('',(#18),#32,.F.);
#18 = FACE_BOUND('',#19,.F.);
#19 = EDGE_LOOP('',(#20,#55,#586));
#20 = ORIENTED_EDGE('',*,*,#21,.F.);
#21 = EDGE_CURVE('',#22,#24,#26,.T.);
#22 = VERTEX_POINT('',#23);
#23 = CARTESIAN_POINT('',(-22.35,-22.66608152456,-18.));
#24 = VERTEX_POINT('',#25);
#25 = CARTESIAN_POINT('',(-22.35,-6.,-18.));
#26 = SURFACE_CURVE('',#27,(#31,#43),.PCURVE_S1.);
#27 = LINE('',#28,#29);
#28 = CARTESIAN_POINT('',(-22.35,-42.,-18.));
#29 = VECTOR('',#30,1.);
#30 = DIRECTION('',(0.,1.,0.));
#31 = PCURVE('',#32,#37);
#32 = PLANE('',#33);
#33 = AXIS2_PLACEMENT_3D('',#34,#35,#36);
#34 = CARTESIAN_POINT('',(-22.35,-42.,-69.));
#35 = DIRECTION('',(1.,0.,0.));
#36 = DIRECTION('',(0.,0.,1.));
#37 = DEFINITIONAL_REPRESENTATION('',(#38),#42);
#38 = LINE('',#39,#40);
#39 = CARTESIAN_POINT('',(51.,0.));
#40 = VECTOR('',#41,1.);
#41 = DIRECTION('',(0.,-1.));
#42 = ( GEOMETRIC_REPRESENTATION_CONTEXT(2) 
PARAMETRIC_REPRESENTATION_CONTEXT() REPRESENTATION_CONTEXT('2D SPACE',''
  ) );
#43 = PCURVE('',#44,#49);
#44 = PLANE('',#45);
#45 = AXIS2_PLACEMENT_3D('',#46,#47,#48);
#46 = CARTESIAN_POINT('',(-22.35,-42.,-18.));
#47 = DIRECTION('',(0.,0.,1.));
#48 = DIRECTION('',(1.,0.,0.));
#49 = DEFINITIONAL_REPRESENTATION('',(#50),#54);
#50 = LINE('',#51,#52);
#51 = CARTESIAN_POINT('',(0.,0.));
#52 = VECTOR('',#53,1.);
#53 = DIRECTION('',(0.,1.));
#54 = ( GEOMETRIC_REPRESENTATION_CONTEXT(2) 
PARAMETRIC_REPRESENTATION_CONTEXT() REPRESENTATION_CONTEXT('2D SPACE',''
  ) );
#55 = ORIENTED_EDGE('',*,*,#56,.T.);
#56 = EDGE_CURVE('',#22,#57,#59,.T.);
#57 = VERTEX_POINT('',#58);
#58 = CARTESIAN_POINT('',(-22.35,-6.,-30.72982469396));
#59 = SURFACE_CURVE('',#60,(#203,#349),.PCURVE_S1.);
#60 = B_SPLINE_CURVE_WITH_KNOTS('',8,(#61,#62,#63,#64,#65,#66,#67,#68,
    #69,#70,#71,#72,#73,#74,#75,#76,#77,#78,#79,#80,#81,#82,#83,#84,#85,
    #86,#87,#88,#89,#90,#91,#92,#93,#94,#95,#96,#97,#98,#99,#100,#101,
    #102,#103,#104,#105,#106,#107,#108,#109,#110,#111,#112,#113,#114,
    #115,#116,#117,#118,#119,#120,#121,#122,#123,#124,#125,#126,#127,
    #128,#129,#130,#131,#132,#133,#134,#135,#136,#137,#138,#139,#140,
    #141,#142,#143,#144,#145,#146,#147,#148,#149,#150,#151,#152,#153,
    #154,#155,#156,#157,#158,#159,#160,#161,#162,#163,#164,#165,#166,
    #167,#168,#169,#170,#171,#172,#173,#174,#175,#176,#177,#178,#179,
    #180,#181,#182,#183,#184,#185,#186,#187,#188,#189,#190,#191,#192,
    #193,#194,#195,#196,#197,#198,#199,#200,#201,#202),.UNSPECIFIED.,.F.
  ,.F.,(9,7,7,7,7,7,7,7,7,7,7,7,7,7,7,7,7,7,7,7,9),(0.,0.116785544436,
    0.304234621299,0.351170340321,0.41597852685,0.45320997871,
    0.483303552135,0.503515112968,0.516448261921,0.530504726607,
    0.538487969182,0.552073440762,0.580370027342,0.625674129859,
    0.677229538826,0.718204627461,0.751717155439,0.805333250176,
    0.868217831743,0.979055154167,1.),.UNSPECIFIED.);
#61 = CARTESIAN_POINT('',(-22.35,-22.66608152456,-18.));
#62 = CARTESIAN_POINT('',(-22.35,-23.17912633072,-19.15701731291));
#63 = CARTESIAN_POINT('',(-22.35,-23.68360689451,-20.31788072442));
#64 = CARTESIAN_POINT('',(-22.35,-24.17701809824,-21.48354907061));
#65 = CARTESIAN_POINT('',(-22.35,-24.65732331875,-22.65472299086));
#66 = CARTESIAN_POINT('',(-22.35,-25.12295945211,-23.83184301432));
#67 = CARTESIAN_POINT('',(-22.35,-25.57285353933,-25.01508269723));
#68 = CARTESIAN_POINT('',(-22.35,-26.00642492157,-26.20434740001));
#69 = CARTESIAN_POINT('',(-22.35,-27.09305712102,-29.31725573272));
#70 = CARTESIAN_POINT('',(-22.35,-27.72024307996,-31.25000369983));
#71 = CARTESIAN_POINT('',(-22.35,-28.30460592819,-33.19618596673));
#72 = CARTESIAN_POINT('',(-22.35,-28.84900750784,-35.15387648593));
#73 = CARTESIAN_POINT('',(-22.35,-29.35915724343,-37.12070077662));
#74 = CARTESIAN_POINT('',(-22.35,-29.84215742033,-39.09421119564));
#75 = CARTESIAN_POINT('',(-22.35,-30.3054717018,-41.07216466692));
#76 = CARTESIAN_POINT('',(-22.35,-30.86672162073,-43.54922614294));
#77 = CARTESIAN_POINT('',(-22.35,-30.97820884399,-44.04546381348));
#78 = CARTESIAN_POINT('',(-22.35,-31.08887409669,-44.5418858518));
#79 = CARTESIAN_POINT('',(-22.35,-31.19879088046,-45.03847431743));
#80 = CARTESIAN_POINT('',(-22.35,-31.30802072129,-45.53521421565));
#81 = CARTESIAN_POINT('',(-22.35,-31.41660918658,-46.03209437096));
#82 = CARTESIAN_POINT('',(-22.35,-31.52458190225,-46.52910830059));
#83 = CARTESIAN_POINT('',(-22.35,-31.78017992122,-47.71270844159));
#84 = CARTESIAN_POINT('',(-22.35,-31.92724656968,-48.39940729295));
#85 = CARTESIAN_POINT('',(-22.35,-32.0731429031,-49.08635748268));
#86 = CARTESIAN_POINT('',(-22.35,-32.21778167033,-49.77357867846));
#87 = CARTESIAN_POINT('',(-22.35,-32.36094147837,-50.46111350841));
#88 = CARTESIAN_POINT('',(-22.35,-32.50223648062,-51.14903390015));
#89 = CARTESIAN_POINT('',(-22.35,-32.64103683938,-51.8374576207));
#90 = CARTESIAN_POINT('',(-22.35,-32.85396998143,-52.92248436957));
#91 = CARTESIAN_POINT('',(-22.35,-32.93048601953,-53.31860255443));
#92 = CARTESIAN_POINT('',(-22.35,-33.00562322594,-53.71498881278));
#93 = CARTESIAN_POINT('',(-22.35,-33.07913159853,-54.11168879469));
#94 = CARTESIAN_POINT('',(-22.35,-33.15069390378,-54.50875082185));
#95 = CARTESIAN_POINT('',(-22.35,-33.21991115401,-54.90622851965));
#96 = CARTESIAN_POINT('',(-22.35,-33.28626679603,-55.30418725821));
#97 = CARTESIAN_POINT('',(-22.35,-33.3997861153,-56.02484540992));
#98 = CARTESIAN_POINT('',(-22.35,-33.44818247044,-56.34729344726));
#99 = CARTESIAN_POINT('',(-22.35,-33.49385947388,-56.67015629924));
#100 = CARTESIAN_POINT('',(-22.35,-33.53636010531,-56.99349369241));
#101 = CARTESIAN_POINT('',(-22.35,-33.57508281697,-57.31733755275));
#102 = CARTESIAN_POINT('',(-22.35,-33.60926736326,-57.64169405427));
#103 = CARTESIAN_POINT('',(-22.35,-33.63789791515,-57.96655508029));
#104 = CARTESIAN_POINT('',(-22.35,-33.67383067194,-58.5104633499));
#105 = CARTESIAN_POINT('',(-22.35,-33.68503796038,-58.72906530834));
#106 = CARTESIAN_POINT('',(-22.35,-33.69255450983,-58.94787414363));
#107 = CARTESIAN_POINT('',(-22.35,-33.69577212174,-59.16690182122));
#108 = CARTESIAN_POINT('',(-22.35,-33.69393643898,-59.38603948909));
#109 = CARTESIAN_POINT('',(-22.35,-33.68598571403,-59.60504865046));
#110 = CARTESIAN_POINT('',(-22.35,-33.6705829815,-59.8235659592));
#111 = CARTESIAN_POINT('',(-22.35,-33.62925428564,-60.18026825988));
#112 = CARTESIAN_POINT('',(-22.35,-33.60915811276,-60.31867097824));
#113 = CARTESIAN_POINT('',(-22.35,-33.58447962239,-60.45647298053));
#114 = CARTESIAN_POINT('',(-22.35,-33.55442669251,-60.5934913484));
#115 = CARTESIAN_POINT('',(-22.35,-33.51803429428,-60.72918804898));
#116 = CARTESIAN_POINT('',(-22.35,-33.47404888435,-60.86262199153));
#117 = CARTESIAN_POINT('',(-22.35,-33.42097199826,-60.99247398187));
#118 = CARTESIAN_POINT('',(-22.35,-33.28649389285,-61.25208285774));
#119 = CARTESIAN_POINT('',(-22.35,-33.20082870831,-61.38510502077));
#120 = CARTESIAN_POINT('',(-22.35,-33.0980593601,-61.50720014514));
#121 = CARTESIAN_POINT('',(-22.35,-32.97753058358,-61.61036635499));
#122 = CARTESIAN_POINT('',(-22.35,-32.84021205087,-61.68860286842));
#123 = CARTESIAN_POINT('',(-22.35,-32.68946556054,-61.73885702528));
#124 = CARTESIAN_POINT('',(-22.35,-32.53210296038,-61.76278820748));
#125 = CARTESIAN_POINT('',(-22.35,-32.2912386956,-61.76853948345));
#126 = CARTESIAN_POINT('',(-22.35,-32.2039652159,-61.76409858052));
#127 = CARTESIAN_POINT('',(-22.35,-32.11707725753,-61.75399596231));
#128 = CARTESIAN_POINT('',(-22.35,-32.03088699538,-61.73899517968));
#129 = CARTESIAN_POINT('',(-22.35,-31.94560584868,-61.71976091428));
#130 = CARTESIAN_POINT('',(-22.35,-31.86134448103,-61.6968589786));
#131 = CARTESIAN_POINT('',(-22.35,-31.77811280035,-61.67075631597));
#132 = CARTESIAN_POINT('',(-22.35,-31.55577823428,-61.59258036907));
#133 = CARTESIAN_POINT('',(-22.35,-31.41869142761,-61.53530076467));
#134 = CARTESIAN_POINT('',(-22.35,-31.28439364815,-61.47153167092));
#135 = CARTESIAN_POINT('',(-22.35,-31.15270484853,-61.40254572418));
#136 = CARTESIAN_POINT('',(-22.35,-31.02343082476,-61.32933871356));
#137 = CARTESIAN_POINT('',(-22.35,-30.89636321623,-61.25262958095));
#138 = CARTESIAN_POINT('',(-22.35,-30.77127950569,-61.17286042101));
#139 = CARTESIAN_POINT('',(-22.35,-30.39105082789,-60.91801936402));
#140 = CARTESIAN_POINT('',(-22.35,-30.14229913966,-60.73406541187));
#141 = CARTESIAN_POINT('',(-22.35,-29.89983783327,-60.54166538554));
#142 = CARTESIAN_POINT('',(-22.35,-29.6628570684,-60.34257768402));
#143 = CARTESIAN_POINT('',(-22.35,-29.43061648473,-60.13820157362));
#144 = CARTESIAN_POINT('',(-22.35,-29.20256494538,-59.92941128687));
#145 = CARTESIAN_POINT('',(-22.35,-28.97813201471,-59.71683545246));
#146 = CARTESIAN_POINT('',(-22.35,-28.40231140759,-59.15495282102));
#147 = CARTESIAN_POINT('',(-22.35,-28.05615920974,-58.80071443841));
#148 = CARTESIAN_POINT('',(-22.35,-27.71652634953,-58.44014018727));
#149 = CARTESIAN_POINT('',(-22.35,-27.38238332954,-58.07448008931));
#150 = CARTESIAN_POINT('',(-22.35,-27.05289395294,-57.70470042929));
#151 = CARTESIAN_POINT('',(-22.35,-26.72741052286,-57.33148583067));
#152 = CARTESIAN_POINT('',(-22.35,-26.40535569373,-56.95535172495));
#153 = CARTESIAN_POINT('',(-22.35,-25.72303170604,-56.14569710833));
#154 = CARTESIAN_POINT('',(-22.35,-25.36370037115,-55.71151409327));
#155 = CARTESIAN_POINT('',(-22.35,-25.00753091812,-55.27472268156));
#156 = CARTESIAN_POINT('',(-22.35,-24.65400479084,-54.83578990327));
#157 = CARTESIAN_POINT('',(-22.35,-24.30270173398,-54.39508703015));
#158 = CARTESIAN_POINT('',(-22.35,-23.95326844457,-53.95291482906));
#159 = CARTESIAN_POINT('',(-22.35,-23.60540518351,-53.50951431775));
#160 = CARTESIAN_POINT('',(-22.35,-22.98341416984,-52.71185399918));
#161 = CARTESIAN_POINT('',(-22.35,-22.70880950004,-52.35798105324));
#162 = CARTESIAN_POINT('',(-22.35,-22.43490772241,-52.00356328332));
#163 = CARTESIAN_POINT('',(-22.35,-22.16159850387,-51.64868845236));
#164 = CARTESIAN_POINT('',(-22.35,-21.88878617305,-51.29343210934));
#165 = CARTESIAN_POINT('',(-22.35,-21.61638728449,-50.93785946743));
#166 = CARTESIAN_POINT('',(-22.35,-21.34432818289,-50.58202728199));
#167 = CARTESIAN_POINT('',(-22.35,-20.8502557254,-49.93478800557));
#168 = CARTESIAN_POINT('',(-22.35,-20.62815214993,-49.64345046746));
#169 = CARTESIAN_POINT('',(-22.35,-20.40619609502,-49.35200051782));
#170 = CARTESIAN_POINT('',(-22.35,-20.18435555943,-49.06046265235));
#171 = CARTESIAN_POINT('',(-22.35,-19.96260188846,-48.76885876181));
#172 = CARTESIAN_POINT('',(-22.35,-19.74090937599,-48.4772084349));
#173 = CARTESIAN_POINT('',(-22.35,-19.51925486644,-48.18552926103));
#174 = CARTESIAN_POINT('',(-22.35,-18.94302346511,-47.42716410966));
#175 = CARTESIAN_POINT('',(-22.35,-18.5884730878,-46.96045813457));
#176 = CARTESIAN_POINT('',(-22.35,-18.23388101425,-46.49378382558));
#177 = CARTESIAN_POINT('',(-22.35,-17.87917615659,-46.02719518317));
#178 = CARTESIAN_POINT('',(-22.35,-17.5242997056,-45.56073699195));
#179 = CARTESIAN_POINT('',(-22.35,-17.16920328656,-45.09444622184));
#180 = CARTESIAN_POINT('',(-22.35,-16.81384711524,-44.62835342932));
#181 = CARTESIAN_POINT('',(-22.35,-16.04106900184,-43.61608117469));
#182 = CARTESIAN_POINT('',(-22.35,-15.62353707022,-43.0699855818));
#183 = CARTESIAN_POINT('',(-22.35,-15.20555028437,-42.52423785863));
#184 = CARTESIAN_POINT('',(-22.35,-14.7870696889,-41.97886856339));
#185 = CARTESIAN_POINT('',(-22.35,-14.36806813473,-41.43389933948));
#186 = CARTESIAN_POINT('',(-22.35,-13.94852896633,-40.88934392118));
#187 = CARTESIAN_POINT('',(-22.35,-13.52844470894,-40.34520913926));
#188 = CARTESIAN_POINT('',(-22.35,-12.36643550416,-38.84317331178));
#189 = CARTESIAN_POINT('',(-22.35,-11.62336243758,-37.88615889384));
#190 = CARTESIAN_POINT('',(-22.35,-10.87860194022,-36.93045637556));
#191 = CARTESIAN_POINT('',(-22.35,-10.13223822888,-35.97600602388));
#192 = CARTESIAN_POINT('',(-22.35,-9.38442758271,-35.02268994302));
#193 = CARTESIAN_POINT('',(-22.35,-8.635396418658,-34.07033356354));
#194 = CARTESIAN_POINT('',(-22.35,-7.88544421269,-33.11870334723));
#195 = CARTESIAN_POINT('',(-22.35,-6.993131176618,-31.98775265739));
#196 = CARTESIAN_POINT('',(-22.35,-6.851291761652,-31.80801985941));
#197 = CARTESIAN_POINT('',(-22.35,-6.709435579042,-31.62830029973));
#198 = CARTESIAN_POINT('',(-22.35,-6.567565290956,-31.44859188005));
#199 = CARTESIAN_POINT('',(-22.35,-6.425683664496,-31.26889241802));
#200 = CARTESIAN_POINT('',(-22.35,-6.283793571707,-31.08919964727));
#201 = CARTESIAN_POINT('',(-22.35,-6.141897989569,-30.9095112174));
#202 = CARTESIAN_POINT('',(-22.35,-6.,-30.72982469396));
#203 = PCURVE('',#32,#204);
#204 = DEFINITIONAL_REPRESENTATION('',(#205),#348);
#205 = B_SPLINE_CURVE_WITH_KNOTS('',8,(#206,#207,#208,#209,#210,#211,
    #212,#213,#214,#215,#216,#217,#218,#219,#220,#221,#222,#223,#224,
    #225,#226,#227,#228,#229,#230,#231,#232,#233,#234,#235,#236,#237,
    #238,#239,#240,#241,#242,#243,#244,#245,#246,#247,#248,#249,#250,
    #251,#252,#253,#254,#255,#256,#257,#258,#259,#260,#261,#262,#263,
    #264,#265,#266,#267,#268,#269,#270,#271,#272,#273,#274,#275,#276,
    #277,#278,#279,#280,#281,#282,#283,#284,#285,#286,#287,#288,#289,
    #290,#291,#292,#293,#294,#295,#296,#297,#298,#299,#300,#301,#302,
    #303,#304,#305,#306,#307,#308,#309,#310,#311,#312,#313,#314,#315,
    #316,#317,#318,#319,#320,#321,#322,#323,#324,#325,#326,#327,#328,
    #329,#330,#331,#332,#333,#334,#335,#336,#337,#338,#339,#340,#341,
    #342,#343,#344,#345,#346,#347),.UNSPECIFIED.,.F.,.F.,(9,7,7,7,7,7,7,
    7,7,7,7,7,7,7,7,7,7,7,7,7,9),(0.,0.116785544436,0.304234621299,
    0.351170340321,0.41597852685,0.45320997871,0.483303552135,
    0.503515112968,0.516448261921,0.530504726607,0.538487969182,
    0.552073440762,0.580370027342,0.625674129859,0.677229538826,
    0.718204627461,0.751717155439,0.805333250176,0.868217831743,
    0.979055154167,1.),.UNSPECIFIED.);
#206 = CARTESIAN_POINT('',(51.,-19.33391847543));
#207 = CARTESIAN_POINT('',(49.842982687084,-18.82087366927));
#208 = CARTESIAN_POINT('',(48.682119275575,-18.31639310548));
#209 = CARTESIAN_POINT('',(47.516450929386,-17.82298190175));
#210 = CARTESIAN_POINT('',(46.345277009139,-17.34267668124));
#211 = CARTESIAN_POINT('',(45.168156985673,-16.87704054788));
#212 = CARTESIAN_POINT('',(43.984917302766,-16.42714646066));
#213 = CARTESIAN_POINT('',(42.795652599986,-15.99357507842));
#214 = CARTESIAN_POINT('',(39.682744267275,-14.90694287897));
#215 = CARTESIAN_POINT('',(37.749996300165,-14.27975692003));
#216 = CARTESIAN_POINT('',(35.803814033264,-13.69539407181));
#217 = CARTESIAN_POINT('',(33.846123514066,-13.15099249215));
#218 = CARTESIAN_POINT('',(31.87929922338,-12.64084275657));
#219 = CARTESIAN_POINT('',(29.905788804352,-12.15784257966));
#220 = CARTESIAN_POINT('',(27.927835333079,-11.69452829819));
#221 = CARTESIAN_POINT('',(25.450773857058,-11.13327837926));
#222 = CARTESIAN_POINT('',(24.954536186515,-11.02179115601));
#223 = CARTESIAN_POINT('',(24.458114148193,-10.9111259033));
#224 = CARTESIAN_POINT('',(23.961525682562,-10.80120911953));
#225 = CARTESIAN_POINT('',(23.464785784345,-10.6919792787));
#226 = CARTESIAN_POINT('',(22.967905629034,-10.58339081341));
#227 = CARTESIAN_POINT('',(22.47089169941,-10.47541809774));
#228 = CARTESIAN_POINT('',(21.28729155841,-10.21982007877));
#229 = CARTESIAN_POINT('',(20.600592707041,-10.07275343031));
#230 = CARTESIAN_POINT('',(19.913642517318,-9.926857096894));
#231 = CARTESIAN_POINT('',(19.226421321535,-9.782218329668));
#232 = CARTESIAN_POINT('',(18.538886491586,-9.639058521623));
#233 = CARTESIAN_POINT('',(17.850966099841,-9.497763519376));
#234 = CARTESIAN_POINT('',(17.162542379294,-9.358963160618));
#235 = CARTESIAN_POINT('',(16.077515630422,-9.146030018564));
#236 = CARTESIAN_POINT('',(15.681397445564,-9.06951398047));
#237 = CARTESIAN_POINT('',(15.285011187215,-8.994376774053));
#238 = CARTESIAN_POINT('',(14.888311205304,-8.920868401464));
#239 = CARTESIAN_POINT('',(14.491249178146,-8.849306096215));
#240 = CARTESIAN_POINT('',(14.093771480345,-8.780088845982));
#241 = CARTESIAN_POINT('',(13.695812741787,-8.713733203967));
#242 = CARTESIAN_POINT('',(12.975154590074,-8.600213884694));
#243 = CARTESIAN_POINT('',(12.652706552731,-8.551817529559));
#244 = CARTESIAN_POINT('',(12.329843700755,-8.506140526114));
#245 = CARTESIAN_POINT('',(12.006506307588,-8.46363989469));
#246 = CARTESIAN_POINT('',(11.682662447246,-8.424917183029));
#247 = CARTESIAN_POINT('',(11.358305945723,-8.390732636737));
#248 = CARTESIAN_POINT('',(11.033444919706,-8.362102084848));
#249 = CARTESIAN_POINT('',(10.489536650095,-8.326169328059));
#250 = CARTESIAN_POINT('',(10.27093469166,-8.314962039617));
#251 = CARTESIAN_POINT('',(10.05212585637,-8.307445490164));
#252 = CARTESIAN_POINT('',(9.833098178771,-8.304227878253));
#253 = CARTESIAN_POINT('',(9.613960510903,-8.306063561019));
#254 = CARTESIAN_POINT('',(9.394951349534,-8.314014285968));
#255 = CARTESIAN_POINT('',(9.176434040791,-8.329417018494));
#256 = CARTESIAN_POINT('',(8.819731740116,-8.370745714351));
#257 = CARTESIAN_POINT('',(8.681329021757,-8.390841887237));
#258 = CARTESIAN_POINT('',(8.543527019461,-8.415520377609));
#259 = CARTESIAN_POINT('',(8.406508651593,-8.445573307486));
#260 = CARTESIAN_POINT('',(8.270811951016,-8.481965705717));
#261 = CARTESIAN_POINT('',(8.137378008469,-8.525951115647));
#262 = CARTESIAN_POINT('',(8.007526018121,-8.579028001735));
#263 = CARTESIAN_POINT('',(7.747917142257,-8.713506107147));
#264 = CARTESIAN_POINT('',(7.614894979228,-8.799171291685));
#265 = CARTESIAN_POINT('',(7.492799854859,-8.901940639892));
#266 = CARTESIAN_POINT('',(7.38963364501,-9.022469416417));
#267 = CARTESIAN_POINT('',(7.311397131578,-9.159787949125));
#268 = CARTESIAN_POINT('',(7.261142974719,-9.310534439458));
#269 = CARTESIAN_POINT('',(7.237211792518,-9.467897039612));
#270 = CARTESIAN_POINT('',(7.231460516549,-9.708761304398));
#271 = CARTESIAN_POINT('',(7.23590141948,-9.796034784098));
#272 = CARTESIAN_POINT('',(7.246004037681,-9.882922742467));
#273 = CARTESIAN_POINT('',(7.261004820315,-9.969113004616));
#274 = CARTESIAN_POINT('',(7.280239085716,-10.05439415131));
#275 = CARTESIAN_POINT('',(7.303141021392,-10.13865551896));
#276 = CARTESIAN_POINT('',(7.329243684022,-10.22188719964));
#277 = CARTESIAN_POINT('',(7.407419630929,-10.44422176571));
#278 = CARTESIAN_POINT('',(7.464699235328,-10.58130857239));
#279 = CARTESIAN_POINT('',(7.528468329072,-10.71560635184));
#280 = CARTESIAN_POINT('',(7.597454275813,-10.84729515146));
#281 = CARTESIAN_POINT('',(7.670661286431,-10.97656917523));
#282 = CARTESIAN_POINT('',(7.747370419041,-11.10363678376));
#283 = CARTESIAN_POINT('',(7.827139578988,-11.2287204943));
#284 = CARTESIAN_POINT('',(8.081980635979,-11.6089491721));
#285 = CARTESIAN_POINT('',(8.265934588125,-11.85770086033));
#286 = CARTESIAN_POINT('',(8.458334614454,-12.10016216672));
#287 = CARTESIAN_POINT('',(8.657422315976,-12.33714293159));
#288 = CARTESIAN_POINT('',(8.861798426375,-12.56938351526));
#289 = CARTESIAN_POINT('',(9.070588713125,-12.79743505461));
#290 = CARTESIAN_POINT('',(9.28316454754,-13.02186798528));
#291 = CARTESIAN_POINT('',(9.845047178973,-13.5976885924));
#292 = CARTESIAN_POINT('',(10.199285561585,-13.94384079025));
#293 = CARTESIAN_POINT('',(10.559859812724,-14.28347365047));
#294 = CARTESIAN_POINT('',(10.925519910683,-14.61761667045));
#295 = CARTESIAN_POINT('',(11.29529957071,-14.94710604705));
#296 = CARTESIAN_POINT('',(11.66851416933,-15.27258947713));
#297 = CARTESIAN_POINT('',(12.044648275041,-15.59464430626));
#298 = CARTESIAN_POINT('',(12.854302891667,-16.27696829395));
#299 = CARTESIAN_POINT('',(13.288485906724,-16.63629962884));
#300 = CARTESIAN_POINT('',(13.725277318431,-16.99246908187));
#301 = CARTESIAN_POINT('',(14.164210096722,-17.34599520915));
#302 = CARTESIAN_POINT('',(14.604912969842,-17.69729826601));
#303 = CARTESIAN_POINT('',(15.047085170937,-18.04673155542));
#304 = CARTESIAN_POINT('',(15.490485682245,-18.39459481648));
#305 = CARTESIAN_POINT('',(16.288146000814,-19.01658583016));
#306 = CARTESIAN_POINT('',(16.642018946755,-19.29119049995));
#307 = CARTESIAN_POINT('',(16.996436716673,-19.56509227759));
#308 = CARTESIAN_POINT('',(17.351311547638,-19.83840149612));
#309 = CARTESIAN_POINT('',(17.706567890652,-20.11121382694));
#310 = CARTESIAN_POINT('',(18.062140532567,-20.3836127155));
#311 = CARTESIAN_POINT('',(18.417972718008,-20.65567181711));
#312 = CARTESIAN_POINT('',(19.065211994424,-21.14974427459));
#313 = CARTESIAN_POINT('',(19.356549532533,-21.37184785007));
#314 = CARTESIAN_POINT('',(19.647999482173,-21.59380390497));
#315 = CARTESIAN_POINT('',(19.939537347648,-21.81564444056));
#316 = CARTESIAN_POINT('',(20.231141238185,-22.03739811153));
#317 = CARTESIAN_POINT('',(20.522791565099,-22.259090624));
#318 = CARTESIAN_POINT('',(20.814470738962,-22.48074513355));
#319 = CARTESIAN_POINT('',(21.572835890339,-23.05697653488));
#320 = CARTESIAN_POINT('',(22.039541865424,-23.41152691219));
#321 = CARTESIAN_POINT('',(22.506216174417,-23.76611898574));
#322 = CARTESIAN_POINT('',(22.972804816825,-24.1208238434));
#323 = CARTESIAN_POINT('',(23.439263008049,-24.47570029439));
#324 = CARTESIAN_POINT('',(23.905553778159,-24.83079671343));
#325 = CARTESIAN_POINT('',(24.371646570678,-25.18615288475));
#326 = CARTESIAN_POINT('',(25.383918825304,-25.95893099815));
#327 = CARTESIAN_POINT('',(25.930014418199,-26.37646292977));
#328 = CARTESIAN_POINT('',(26.475762141369,-26.79444971562));
#329 = CARTESIAN_POINT('',(27.021131436608,-27.21293031109));
#330 = CARTESIAN_POINT('',(27.566100660511,-27.63193186526));
#331 = CARTESIAN_POINT('',(28.110656078815,-28.05147103366));
#332 = CARTESIAN_POINT('',(28.654790860734,-28.47155529105));
#333 = CARTESIAN_POINT('',(30.15682668822,-29.63356449583));
#334 = CARTESIAN_POINT('',(31.113841106159,-30.37663756241));
#335 = CARTESIAN_POINT('',(32.069543624433,-31.12139805977));
#336 = CARTESIAN_POINT('',(33.023993976117,-31.86776177111));
#337 = CARTESIAN_POINT('',(33.977310056973,-32.61557241729));
#338 = CARTESIAN_POINT('',(34.929666436452,-33.36460358134));
#339 = CARTESIAN_POINT('',(35.881296652768,-34.11455578731));
#340 = CARTESIAN_POINT('',(37.012247342603,-35.00686882338));
#341 = CARTESIAN_POINT('',(37.191980140584,-35.14870823834));
#342 = CARTESIAN_POINT('',(37.371699700262,-35.29056442095));
#343 = CARTESIAN_POINT('',(37.551408119946,-35.43243470904));
#344 = CARTESIAN_POINT('',(37.731107581977,-35.5743163355));
#345 = CARTESIAN_POINT('',(37.910800352727,-35.71620642829));
#346 = CARTESIAN_POINT('',(38.0904887826,-35.85810201043));
#347 = CARTESIAN_POINT('',(38.270175306031,-36.));
#348 = ( GEOMETRIC_REPRESENTATION_CONTEXT(2) 
PARAMETRIC_REPRESENTATION_CONTEXT() REPRESENTATION_CONTEXT('2D SPACE',''
  ) );
#349 = PCURVE('',#350,#441);
#350 = ( BOUNDED_SURFACE() B_SPLINE_SURFACE(14,5,(
    (#351,#352,#353,#354,#355,#356)
    ,(#357,#358,#359,#360,#361,#362)
    ,(#363,#364,#365,#366,#367,#368)
    ,(#369,#370,#371,#372,#373,#374)
    ,(#375,#376,#377,#378,#379,#380)
    ,(#381,#382,#383,#384,#385,#386)
    ,(#387,#388,#389,#390,#391,#392)
    ,(#393,#394,#395,#396,#397,#398)
    ,(#399,#400,#401,#402,#403,#404)
    ,(#405,#406,#407,#408,#409,#410)
    ,(#411,#412,#413,#414,#415,#416)
    ,(#417,#418,#419,#420,#421,#422)
    ,(#423,#424,#425,#426,#427,#428)
    ,(#429,#430,#431,#432,#433,#434)
    ,(#435,#436,#437,#438,#439,#440
)),.UNSPECIFIED.,.T.,.F.,.F.) B_SPLINE_SURFACE_WITH_KNOTS((1,14,14,1),(6
    ,6),(-1.,0.,1.,2.),(0.,1.),.UNSPECIFIED.) 
GEOMETRIC_REPRESENTATION_ITEM() RATIONAL_B_SPLINE_SURFACE((
    (1.,1.,1.,1.,1.,1.)
    ,(1.,1.,1.,1.,1.,1.)
    ,(1.,1.,1.,1.,1.,1.)
    ,(1.,1.,1.,1.,1.,1.)
    ,(1.,1.,1.,1.,1.,1.)
    ,(1.,1.,1.,1.,1.,1.)
    ,(1.,1.,1.,1.,1.,1.)
    ,(1.,1.,1.,1.,1.,1.)
    ,(1.,1.,1.,1.,1.,1.)
    ,(1.,1.,1.,1.,1.,1.)
    ,(1.,1.,1.,1.,1.,1.)
    ,(1.,1.,1.,1.,1.,1.)
    ,(1.,1.,1.,1.,1.,1.)
    ,(1.,1.,1.,1.,1.,1.)
,(1.,1.,1.,1.,1.,1.))) REPRESENTATION_ITEM('') SURFACE() );
#351 = CARTESIAN_POINT('',(19.,-39.5,-76.));
#352 = CARTESIAN_POINT('',(26.123044569638,-31.99413370891,
    -60.56609949556));
#353 = CARTESIAN_POINT('',(18.446256865827,-20.970921322,-42.36281686344
    ));
#354 = CARTESIAN_POINT('',(32.849170364805,-19.98045879275,
    -25.95429108986));
#355 = CARTESIAN_POINT('',(28.769192019074,-0.104288645744,
    -12.74783882291));
#356 = CARTESIAN_POINT('',(30.,2.606519132579E-15,7.));
#357 = CARTESIAN_POINT('',(19.000000000005,-33.44121416807,-76.));
#358 = CARTESIAN_POINT('',(26.123044569632,-23.559953842,-60.56609949556
    ));
#359 = CARTESIAN_POINT('',(18.446256865842,-14.9258404115,
    -42.36281686344));
#360 = CARTESIAN_POINT('',(32.849170364797,-9.726407995956,
    -25.95429108986));
#361 = CARTESIAN_POINT('',(28.769192019074,9.484455769287,
    -12.74783882291));
#362 = CARTESIAN_POINT('',(30.000000000004,9.873576911289,7.));
#363 = CARTESIAN_POINT('',(14.878627137192,-27.38242609971,-76.));
#364 = CARTESIAN_POINT('',(20.456581044264,-15.12577086188,
    -60.56609949556));
#365 = CARTESIAN_POINT('',(14.444998841191,-8.880757269646,
    -42.36281686344));
#366 = CARTESIAN_POINT('',(25.723713559232,0.527646585869,
    -25.95429108986));
#367 = CARTESIAN_POINT('',(22.528741110033,19.073203723689,
    -12.74783882291));
#368 = CARTESIAN_POINT('',(23.492569164001,19.747157467127,7.));
#369 = CARTESIAN_POINT('',(6.63587614289,-22.85693882126,-76.));
#370 = CARTESIAN_POINT('',(9.123646749275,-8.826031153147,
    -60.56609949556));
#371 = CARTESIAN_POINT('',(6.442477677037,-4.365506604458,
    -42.36281686344));
#372 = CARTESIAN_POINT('',(11.472790838629,8.186702000639,
    -25.95429108986));
#373 = CARTESIAN_POINT('',(10.047831314101,26.235322021146,
    -12.74783882291));
#374 = CARTESIAN_POINT('',(10.477699172943,27.122025624609,7.));
#375 = CARTESIAN_POINT('',(-4.49560168009,-21.39788245634,-76.));
#376 = CARTESIAN_POINT('',(-6.180989634211,-6.794940410138,
    -60.56609949556));
#377 = CARTESIAN_POINT('',(-4.364580176906,-2.909750612558,
    -42.36281686344));
#378 = CARTESIAN_POINT('',(-7.772462393418,10.656047922045,
    -25.95429108986));
#379 = CARTESIAN_POINT('',(-6.807096209055,28.544451103577,
    -12.74783882291));
#380 = CARTESIAN_POINT('',(-7.098318442164,29.499747108174,7.));
#381 = CARTESIAN_POINT('',(-16.05073754757,-23.98881237636,-76.));
#382 = CARTESIAN_POINT('',(-22.06811222847,-10.40166452504,
    -60.56609949556));
#383 = CARTESIAN_POINT('',(-15.58294882544,-5.494819871234,
    -42.36281686344));
#384 = CARTESIAN_POINT('',(-27.75017958895,6.27108899616,-25.95429108986
    ));
#385 = CARTESIAN_POINT('',(-24.30351318741,24.443998391336,
    -12.74783882291));
#386 = CARTESIAN_POINT('',(-25.34326981209,25.277490942222,7.));
#387 = CARTESIAN_POINT('',(-24.87179233162,-30.51054918893,-76.));
#388 = CARTESIAN_POINT('',(-34.19615471539,-19.48029889978,
    -60.56609949556));
#389 = CARTESIAN_POINT('',(-24.14691947723,-12.00180457149,
    -42.36281686344));
#390 = CARTESIAN_POINT('',(-43.00093387213,-4.766472391532,
    -25.95429108986));
#391 = CARTESIAN_POINT('',(-37.66007207561,14.122579351813,
    -12.74783882291));
#392 = CARTESIAN_POINT('',(-39.27125104975,14.649475395817,7.));
#393 = CARTESIAN_POINT('',(-28.1927434388,-39.49999999981,-76.));
#394 = CARTESIAN_POINT('',(-38.76212070561,-31.99413370856,
    -60.56609949556));
#395 = CARTESIAN_POINT('',(-27.37108353795,-20.97092132161,
    -42.36281686344));
#396 = CARTESIAN_POINT('',(-48.74253854099,-19.980458793,-25.95429108986
    ));
#397 = CARTESIAN_POINT('',(-42.68854997622,-0.104288644992,
    -12.74783882291));
#398 = CARTESIAN_POINT('',(-44.51485806145,2.913297794736E-10,7.));
#399 = CARTESIAN_POINT('',(-24.87179233162,-48.4894508114,-76.));
#400 = CARTESIAN_POINT('',(-34.19615471541,-44.50796851866,
    -60.56609949556));
#401 = CARTESIAN_POINT('',(-24.14691947705,-29.94003807322,
    -42.36281686344));
#402 = CARTESIAN_POINT('',(-43.00093387246,-35.19444519352,
    -25.95429108986));
#403 = CARTESIAN_POINT('',(-37.66007207547,-14.33115664466,
    -12.74783882291));
#404 = CARTESIAN_POINT('',(-39.27125104976,-14.64947539635,7.));
#405 = CARTESIAN_POINT('',(-16.05073754757,-55.01118762338,-76.));
#406 = CARTESIAN_POINT('',(-22.06811222844,-53.58660289229,
    -60.56609949556));
#407 = CARTESIAN_POINT('',(-15.58294882572,-36.44702277223,
    -42.36281686344));
#408 = CARTESIAN_POINT('',(-27.75017958847,-46.23200658198,
    -25.95429108986));
#409 = CARTESIAN_POINT('',(-24.30351318761,-24.65257568179,
    -12.74783882291));
#410 = CARTESIAN_POINT('',(-25.34326981208,-25.27749094181,7.));
#411 = CARTESIAN_POINT('',(-4.495601680088,-57.60211754381,-76.));
#412 = CARTESIAN_POINT('',(-6.180989634247,-57.19332700798,
    -60.56609949556));
#413 = CARTESIAN_POINT('',(-4.364580176666,-39.03209203177,
    -42.36281686344));
#414 = CARTESIAN_POINT('',(-7.772462393832,-50.61696550737,
    -25.95429108986));
#415 = CARTESIAN_POINT('',(-6.807096208891,-28.75302839569,
    -12.74783882291));
#416 = CARTESIAN_POINT('',(-7.098318442175,-29.49974710843,7.));
#417 = CARTESIAN_POINT('',(6.635876142889,-56.14306117865,-76.));
#418 = CARTESIAN_POINT('',(9.123646749297,-55.16223626452,
    -60.56609949556));
#419 = CARTESIAN_POINT('',(6.442477676893,-37.57633603939,
    -42.36281686344));
#420 = CARTESIAN_POINT('',(11.472790838871,-48.14761958621,
    -25.95429108986));
#421 = CARTESIAN_POINT('',(10.047831314009,-26.44389931232,
    -12.74783882291));
#422 = CARTESIAN_POINT('',(10.47769917295,-27.12202562447,7.));
#423 = CARTESIAN_POINT('',(14.878627137192,-51.61757390031,-76.));
#424 = CARTESIAN_POINT('',(20.456581044254,-48.86249655599,
    -60.56609949556));
#425 = CARTESIAN_POINT('',(14.444998841251,-33.06108537441,
    -42.36281686344));
#426 = CARTESIAN_POINT('',(25.723713559135,-40.48856417135,
    -25.95429108986));
#427 = CARTESIAN_POINT('',(22.528741110068,-19.28178101528,
    -12.74783882291));
#428 = CARTESIAN_POINT('',(23.492569163999,-19.74715746717,7.));
#429 = CARTESIAN_POINT('',(19.000000000005,-45.55878583192,-76.));
#430 = CARTESIAN_POINT('',(26.123044569634,-40.4283135758,
    -60.56609949556));
#431 = CARTESIAN_POINT('',(18.446256865828,-27.01600223248,
    -42.36281686344));
#432 = CARTESIAN_POINT('',(32.849170364819,-30.23450958955,
    -25.95429108986));
#433 = CARTESIAN_POINT('',(28.769192019067,-9.69303306075,
    -12.74783882291));
#434 = CARTESIAN_POINT('',(30.000000000005,-9.873576911278,7.));
#435 = CARTESIAN_POINT('',(19.,-39.5,-76.));
#436 = CARTESIAN_POINT('',(26.123044569638,-31.99413370891,
    -60.56609949556));
#437 = CARTESIAN_POINT('',(18.446256865827,-20.970921322,-42.36281686344
    ));
#438 = CARTESIAN_POINT('',(32.849170364805,-19.98045879275,
    -25.95429108986));
#439 = CARTESIAN_POINT('',(28.769192019074,-0.104288645744,
    -12.74783882291));
#440 = CARTESIAN_POINT('',(30.,2.606519132579E-15,7.));
#441 = DEFINITIONAL_REPRESENTATION('',(#442),#585);
#442 = B_SPLINE_CURVE_WITH_KNOTS('',8,(#443,#444,#445,#446,#447,#448,
    #449,#450,#451,#452,#453,#454,#455,#456,#457,#458,#459,#460,#461,
    #462,#463,#464,#465,#466,#467,#468,#469,#470,#471,#472,#473,#474,
    #475,#476,#477,#478,#479,#480,#481,#482,#483,#484,#485,#486,#487,
    #488,#489,#490,#491,#492,#493,#494,#495,#496,#497,#498,#499,#500,
    #501,#502,#503,#504,#505,#506,#507,#508,#509,#510,#511,#512,#513,
    #514,#515,#516,#517,#518,#519,#520,#521,#522,#523,#524,#525,#526,
    #527,#528,#529,#530,#531,#532,#533,#534,#535,#536,#537,#538,#539,
    #540,#541,#542,#543,#544,#545,#546,#547,#548,#549,#550,#551,#552,
    #553,#554,#555,#556,#557,#558,#559,#560,#561,#562,#563,#564,#565,
    #566,#567,#568,#569,#570,#571,#572,#573,#574,#575,#576,#577,#578,
    #579,#580,#581,#582,#583,#584),.UNSPECIFIED.,.F.,.F.,(9,7,7,7,7,7,7,
    7,7,7,7,7,7,7,7,7,7,7,7,7,9),(0.,0.116785544436,0.304234621299,
    0.351170340321,0.41597852685,0.45320997871,0.483303552135,
    0.503515112968,0.516448261921,0.530504726607,0.538487969182,
    0.552073440762,0.580370027342,0.625674129859,0.677229538826,
    0.718204627461,0.751717155439,0.805333250176,0.868217831743,
    0.979055154167,1.),.UNSPECIFIED.);
#443 = CARTESIAN_POINT('',(0.609142866528,0.711638308331));
#444 = CARTESIAN_POINT('',(0.608276620899,0.697220318508));
#445 = CARTESIAN_POINT('',(0.607305787639,0.682712810101));
#446 = CARTESIAN_POINT('',(0.606225257995,0.668116512772));
#447 = CARTESIAN_POINT('',(0.605030967629,0.653434690659));
#448 = CARTESIAN_POINT('',(0.603719979968,0.638673125052));
#449 = CARTESIAN_POINT('',(0.602290699087,0.623840025319));
#450 = CARTESIAN_POINT('',(0.600743103819,0.608945817522));
#451 = CARTESIAN_POINT('',(0.596407721366,0.570018093862));
#452 = CARTESIAN_POINT('',(0.593435898465,0.545905632879));
#453 = CARTESIAN_POINT('',(0.590170291094,0.521714942187));
#454 = CARTESIAN_POINT('',(0.586627352787,0.497494035418));
#455 = CARTESIAN_POINT('',(0.58283397161,0.473285926805));
#456 = CARTESIAN_POINT('',(0.578824202653,0.44912389097));
#457 = CARTESIAN_POINT('',(0.574636707468,0.425029840704));
#458 = CARTESIAN_POINT('',(0.569201109063,0.3949928051));
#459 = CARTESIAN_POINT('',(0.568102595759,0.388982238137));
#460 = CARTESIAN_POINT('',(0.566994322356,0.382976086597));
#461 = CARTESIAN_POINT('',(0.565876494311,0.376974341725));
#462 = CARTESIAN_POINT('',(0.564749210207,0.37097693174));
#463 = CARTESIAN_POINT('',(0.563612420266,0.364983712613));
#464 = CARTESIAN_POINT('',(0.562465884848,0.358994458833));
#465 = CARTESIAN_POINT('',(0.559711906079,0.344744014709));
#466 = CARTESIAN_POINT('',(0.558095215586,0.336486226485));
#467 = CARTESIAN_POINT('',(0.556457761528,0.328234557025));
#468 = CARTESIAN_POINT('',(0.554797400341,0.319987821517));
#469 = CARTESIAN_POINT('',(0.553110659593,0.311744476979));
#470 = CARTESIAN_POINT('',(0.551392404835,0.303502549738));
#471 = CARTESIAN_POINT('',(0.549634955239,0.295259437758));
#472 = CARTESIAN_POINT('',(0.546786691941,0.282273056795));
#473 = CARTESIAN_POINT('',(0.545730451961,0.277533204704));
#474 = CARTESIAN_POINT('',(0.544654852015,0.272791077076));
#475 = CARTESIAN_POINT('',(0.543557043516,0.268045875969));
#476 = CARTESIAN_POINT('',(0.542433498474,0.263296761476));
#477 = CARTESIAN_POINT('',(0.541279850194,0.258542819563));
#478 = CARTESIAN_POINT('',(0.540090501131,0.253782983968));
#479 = CARTESIAN_POINT('',(0.537861284666,0.245162668817));
#480 = CARTESIAN_POINT('',(0.536836642079,0.241305347889));
#481 = CARTESIAN_POINT('',(0.535779549913,0.237442621827));
#482 = CARTESIAN_POINT('',(0.534685083385,0.233573613134));
#483 = CARTESIAN_POINT('',(0.533546996692,0.229697769856));
#484 = CARTESIAN_POINT('',(0.532357571941,0.225814841295));
#485 = CARTESIAN_POINT('',(0.531106594737,0.221924741145));
#486 = CARTESIAN_POINT('',(0.528885842528,0.215409416598));
#487 = CARTESIAN_POINT('',(0.527959275888,0.212790250131));
#488 = CARTESIAN_POINT('',(0.526993111742,0.21016795429));
#489 = CARTESIAN_POINT('',(0.525981175964,0.207542326254));
#490 = CARTESIAN_POINT('',(0.524916404096,0.204914609346));
#491 = CARTESIAN_POINT('',(0.523789285313,0.202287602713));
#492 = CARTESIAN_POINT('',(0.52258816474,0.199665609432));
#493 = CARTESIAN_POINT('',(0.520462657456,0.195384004918));
#494 = CARTESIAN_POINT('',(0.519596598376,0.193722332649));
#495 = CARTESIAN_POINT('',(0.518686867217,0.192067479761));
#496 = CARTESIAN_POINT('',(0.517726434092,0.190421631501));
#497 = CARTESIAN_POINT('',(0.516708262023,0.188791241428));
#498 = CARTESIAN_POINT('',(0.515624415334,0.187187617937));
#499 = CARTESIAN_POINT('',(0.514466397495,0.185626637148));
#500 = CARTESIAN_POINT('',(0.511866973674,0.182505057591));
#501 = CARTESIAN_POINT('',(0.510367093004,0.180905127325));
#502 = CARTESIAN_POINT('',(0.508748922324,0.17943614771));
#503 = CARTESIAN_POINT('',(0.507045275533,0.178194501628));
#504 = CARTESIAN_POINT('',(0.50529588878,0.177252687452));
#505 = CARTESIAN_POINT('',(0.503550263912,0.176647686904));
#506 = CARTESIAN_POINT('',(0.501868725598,0.176359579225));
#507 = CARTESIAN_POINT('',(0.499447737965,0.176290339553));
#508 = CARTESIAN_POINT('',(0.49860283039,0.176343805176));
#509 = CARTESIAN_POINT('',(0.497789854117,0.176465431251));
#510 = CARTESIAN_POINT('',(0.497008187749,0.17664602159));
#511 = CARTESIAN_POINT('',(0.496256681929,0.176877569042));
#512 = CARTESIAN_POINT('',(0.495533659338,0.177153255487));
#513 = CARTESIAN_POINT('',(0.494836914702,0.177467451848));
#514 = CARTESIAN_POINT('',(0.493018097791,0.178408379633));
#515 = CARTESIAN_POINT('',(0.491942229064,0.179097731733));
#516 = CARTESIAN_POINT('',(0.49092677941,0.179865089264));
#517 = CARTESIAN_POINT('',(0.489963642375,0.180695104527));
#518 = CARTESIAN_POINT('',(0.489045934235,0.181575767229));
#519 = CARTESIAN_POINT('',(0.488167994002,0.182498404487));
#520 = CARTESIAN_POINT('',(0.487325383424,0.18345768083));
#521 = CARTESIAN_POINT('',(0.48482673927,0.186521785349));
#522 = CARTESIAN_POINT('',(0.483279623694,0.188732846595));
#523 = CARTESIAN_POINT('',(0.481838361654,0.191044592045));
#524 = CARTESIAN_POINT('',(0.480485913862,0.193435816087));
#525 = CARTESIAN_POINT('',(0.479207761282,0.19588967009));
#526 = CARTESIAN_POINT('',(0.47799390841,0.19839564622));
#527 = CARTESIAN_POINT('',(0.47683543024,0.200946202281));
#528 = CARTESIAN_POINT('',(0.47394693377,0.207685706968));
#529 = CARTESIAN_POINT('',(0.472294207496,0.211932535015));
#530 = CARTESIAN_POINT('',(0.470738569393,0.216253329995));
#531 = CARTESIAN_POINT('',(0.469263298424,0.220633259572));
#532 = CARTESIAN_POINT('',(0.46785513556,0.225060940011));
#533 = CARTESIAN_POINT('',(0.466504200729,0.229528395685));
#534 = CARTESIAN_POINT('',(0.465202239883,0.23402969318));
#535 = CARTESIAN_POINT('',(0.462508876096,0.243717228631));
#536 = CARTESIAN_POINT('',(0.461130228579,0.248911144271));
#537 = CARTESIAN_POINT('',(0.459796785237,0.254135538267));
#538 = CARTESIAN_POINT('',(0.458501350563,0.259385204366));
#539 = CARTESIAN_POINT('',(0.457238267642,0.264656086617));
#540 = CARTESIAN_POINT('',(0.456002961878,0.269944969499));
#541 = CARTESIAN_POINT('',(0.454791740446,0.275249345392));
#542 = CARTESIAN_POINT('',(0.452655610778,0.284793801931));
#543 = CARTESIAN_POINT('',(0.451722970776,0.289028825582));
#544 = CARTESIAN_POINT('',(0.45080211934,0.293271286228));
#545 = CARTESIAN_POINT('',(0.449891802313,0.297520313418));
#546 = CARTESIAN_POINT('',(0.448990984217,0.30177517799));
#547 = CARTESIAN_POINT('',(0.448098811778,0.306035269096));
#548 = CARTESIAN_POINT('',(0.447214577456,0.310300071209));
#549 = CARTESIAN_POINT('',(0.445620492298,0.318060709573));
#550 = CARTESIAN_POINT('',(0.44490821347,0.321555130035));
#551 = CARTESIAN_POINT('',(0.444200524819,0.325052160721));
#552 = CARTESIAN_POINT('',(0.443497158001,0.328551591817));
#553 = CARTESIAN_POINT('',(0.442797891774,0.332053241819));
#554 = CARTESIAN_POINT('',(0.442102545774,0.33555695384));
#555 = CARTESIAN_POINT('',(0.441410974299,0.339062591919));
#556 = CARTESIAN_POINT('',(0.43962247843,0.348181536564));
#557 = CARTESIAN_POINT('',(0.438531256843,0.353797659409));
#558 = CARTESIAN_POINT('',(0.437448926013,0.359417925323));
#559 = CARTESIAN_POINT('',(0.436375200299,0.365041960744));
#560 = CARTESIAN_POINT('',(0.435309946429,0.37066948197));
#561 = CARTESIAN_POINT('',(0.434253152201,0.376300278036));
#562 = CARTESIAN_POINT('',(0.433204895182,0.381934193595));
#563 = CARTESIAN_POINT('',(0.430946017254,0.394182470659));
#564 = CARTESIAN_POINT('',(0.429738654472,0.400797961125));
#565 = CARTESIAN_POINT('',(0.4285434598,0.407417403451));
#566 = CARTESIAN_POINT('',(0.427360786307,0.414040696121));
#567 = CARTESIAN_POINT('',(0.426191075455,0.420667803034));
#568 = CARTESIAN_POINT('',(0.425034829157,0.427298740688));
#569 = CARTESIAN_POINT('',(0.423892581841,0.433933565358));
#570 = CARTESIAN_POINT('',(0.420777226583,0.452273579177));
#571 = CARTESIAN_POINT('',(0.418834745855,0.46398714951));
#572 = CARTESIAN_POINT('',(0.416940426195,0.475713543767));
#573 = CARTESIAN_POINT('',(0.415097378164,0.487453571552));
#574 = CARTESIAN_POINT('',(0.413308599028,0.499208302729));
#575 = CARTESIAN_POINT('',(0.411576827153,0.510979031735));
#576 = CARTESIAN_POINT('',(0.409904478763,0.522767283034));
#577 = CARTESIAN_POINT('',(0.407989273192,0.536806126282));
#578 = CARTESIAN_POINT('',(0.407687076658,0.539038085047));
#579 = CARTESIAN_POINT('',(0.407387091678,0.541270746189));
#580 = CARTESIAN_POINT('',(0.407089332042,0.54350412222));
#581 = CARTESIAN_POINT('',(0.406793811126,0.545738226001));
#582 = CARTESIAN_POINT('',(0.406500541886,0.547973070745));
#583 = CARTESIAN_POINT('',(0.406209536862,0.550208670016));
#584 = CARTESIAN_POINT('',(0.405920808177,0.552445037727));
#585 = ( GEOMETRIC_REPRESENTATION_CONTEXT(2) 
PARAMETRIC_REPRESENTATION_CONTEXT() REPRESENTATION_CONTEXT('2D SPACE',''
  ) );
#586 = ORIENTED_EDGE('',*,*,#587,.T.);
#587 = EDGE_CURVE('',#57,#24,#588,.T.);
#588 = SURFACE_CURVE('',#589,(#593,#600),.PCURVE_S1.);
#589 = LINE('',#590,#591);
#590 = CARTESIAN_POINT('',(-22.35,-6.,-69.));
#591 = VECTOR('',#592,1.);
#592 = DIRECTION('',(0.,0.,1.));
#593 = PCURVE('',#32,#594);
#594 = DEFINITIONAL_REPRESENTATION('',(#595),#599);
#595 = LINE('',#596,#597);
#596 = CARTESIAN_POINT('',(0.,-36.));
#597 = VECTOR('',#598,1.);
#598 = DIRECTION('',(1.,0.));
#599 = ( GEOMETRIC_REPRESENTATION_CONTEXT(2) 
PARAMETRIC_REPRESENTATION_CONTEXT() REPRESENTATION_CONTEXT('2D SPACE',''
  ) );
#600 = PCURVE('',#601,#606);
#601 = PLANE('',#602);
#602 = AXIS2_PLACEMENT_3D('',#603,#604,#605);
#603 = CARTESIAN_POINT('',(-22.35,-6.,-69.));
#604 = DIRECTION('',(0.,1.,0.));
#605 = DIRECTION('',(0.,0.,1.));
#606 = DEFINITIONAL_REPRESENTATION('',(#607),#611);
#607 = LINE('',#608,#609);
#608 = CARTESIAN_POINT('',(0.,0.));
#609 = VECTOR('',#610,1.);
#610 = DIRECTION('',(1.,0.));
#611 = ( GEOMETRIC_REPRESENTATION_CONTEXT(2) 
PARAMETRIC_REPRESENTATION_CONTEXT() REPRESENTATION_CONTEXT('2D SPACE',''
  ) );
#612 = ADVANCED_FACE('',(#613),#44,.T.);
#613 = FACE_BOUND('',#614,.T.);
#614 = EDGE_LOOP('',(#615,#616,#657,#685));
#615 = ORIENTED_EDGE('',*,*,#21,.F.);
#616 = ORIENTED_EDGE('',*,*,#617,.F.);
#617 = EDGE_CURVE('',#618,#22,#620,.T.);
#618 = VERTEX_POINT('',#619);
#619 = CARTESIAN_POINT('',(-9.65,-29.12561143756,-18.));
#620 = SURFACE_CURVE('',#621,(#631,#644),.PCURVE_S1.);
#621 = B_SPLINE_CURVE_WITH_KNOTS('',8,(#622,#623,#624,#625,#626,#627,
    #628,#629,#630),.UNSPECIFIED.,.F.,.F.,(9,9),(0.,1.),
  .PIECEWISE_BEZIER_KNOTS.);
#622 = CARTESIAN_POINT('',(-9.65,-29.12561143756,-18.));
#623 = CARTESIAN_POINT('',(-11.39171681073,-28.67896985731,-18.));
#624 = CARTESIAN_POINT('',(-13.1070624119,-28.13537963226,-18.));
#625 = CARTESIAN_POINT('',(-14.79075524549,-27.49228346778,-18.));
#626 = CARTESIAN_POINT('',(-16.43447738791,-26.74630043355,-18.));
#627 = CARTESIAN_POINT('',(-18.02722756696,-25.89396261491,-18.));
#628 = CARTESIAN_POINT('',(-19.55533502678,-24.93186080099,-18.));
#629 = CARTESIAN_POINT('',(-21.00267447833,-23.85707042561,-18.));
#630 = CARTESIAN_POINT('',(-22.35,-22.66608152456,-18.));
#631 = PCURVE('',#44,#632);
#632 = DEFINITIONAL_REPRESENTATION('',(#633),#643);
#633 = B_SPLINE_CURVE_WITH_KNOTS('',8,(#634,#635,#636,#637,#638,#639,
    #640,#641,#642),.UNSPECIFIED.,.F.,.F.,(9,9),(0.,1.),
  .PIECEWISE_BEZIER_KNOTS.);
#634 = CARTESIAN_POINT('',(12.7,12.874388562431));
#635 = CARTESIAN_POINT('',(10.958283189269,13.321030142687));
#636 = CARTESIAN_POINT('',(9.242937588099,13.864620367737));
#637 = CARTESIAN_POINT('',(7.55924475451,14.507716532218));
#638 = CARTESIAN_POINT('',(5.915522612081,15.253699566449));
#639 = CARTESIAN_POINT('',(4.322772433035,16.106037385089));
#640 = CARTESIAN_POINT('',(2.794664973214,17.068139199005));
#641 = CARTESIAN_POINT('',(1.34732552167,18.14292957439));
#642 = CARTESIAN_POINT('',(0.,19.333918475434));
#643 = ( GEOMETRIC_REPRESENTATION_CONTEXT(2) 
PARAMETRIC_REPRESENTATION_CONTEXT() REPRESENTATION_CONTEXT('2D SPACE',''
  ) );
#644 = PCURVE('',#350,#645);
#645 = DEFINITIONAL_REPRESENTATION('',(#646),#656);
#646 = B_SPLINE_CURVE_WITH_KNOTS('',8,(#647,#648,#649,#650,#651,#652,
    #653,#654,#655),.UNSPECIFIED.,.F.,.F.,(9,9),(0.,1.),
  .PIECEWISE_BEZIER_KNOTS.);
#647 = CARTESIAN_POINT('',(0.695773735885,0.711638308331));
#648 = CARTESIAN_POINT('',(0.685589330905,0.711638308331));
#649 = CARTESIAN_POINT('',(0.675295057252,0.711638308331));
#650 = CARTESIAN_POINT('',(0.664848330459,0.711638308331));
#651 = CARTESIAN_POINT('',(0.654214295399,0.711638308331));
#652 = CARTESIAN_POINT('',(0.643361545606,0.711638308331));
#653 = CARTESIAN_POINT('',(0.632257837505,0.711638308331));
#654 = CARTESIAN_POINT('',(0.620868437414,0.711638308331));
#655 = CARTESIAN_POINT('',(0.609142866528,0.711638308331));
#656 = ( GEOMETRIC_REPRESENTATION_CONTEXT(2) 
PARAMETRIC_REPRESENTATION_CONTEXT() REPRESENTATION_CONTEXT('2D SPACE',''
  ) );
#657 = ORIENTED_EDGE('',*,*,#658,.T.);
#658 = EDGE_CURVE('',#618,#659,#661,.T.);
#659 = VERTEX_POINT('',#660);
#660 = CARTESIAN_POINT('',(-9.65,-6.,-18.));
#661 = SURFACE_CURVE('',#662,(#666,#673),.PCURVE_S1.);
#662 = LINE('',#663,#664);
#663 = CARTESIAN_POINT('',(-9.65,-42.,-18.));
#664 = VECTOR('',#665,1.);
#665 = DIRECTION('',(0.,1.,0.));
#666 = PCURVE('',#44,#667);
#667 = DEFINITIONAL_REPRESENTATION('',(#668),#672);
#668 = LINE('',#669,#670);
#669 = CARTESIAN_POINT('',(12.7,0.));
#670 = VECTOR('',#671,1.);
#671 = DIRECTION('',(0.,1.));
#672 = ( GEOMETRIC_REPRESENTATION_CONTEXT(2) 
PARAMETRIC_REPRESENTATION_CONTEXT() REPRESENTATION_CONTEXT('2D SPACE',''
  ) );
#673 = PCURVE('',#674,#679);
#674 = PLANE('',#675);
#675 = AXIS2_PLACEMENT_3D('',#676,#677,#678);
#676 = CARTESIAN_POINT('',(-9.65,-42.,-69.));
#677 = DIRECTION('',(1.,0.,0.));
#678 = DIRECTION('',(0.,0.,1.));
#679 = DEFINITIONAL_REPRESENTATION('',(#680),#684);
#680 = LINE('',#681,#682);
#681 = CARTESIAN_POINT('',(51.,0.));
#682 = VECTOR('',#683,1.);
#683 = DIRECTION('',(0.,-1.));
#684 = ( GEOMETRIC_REPRESENTATION_CONTEXT(2) 
PARAMETRIC_REPRESENTATION_CONTEXT() REPRESENTATION_CONTEXT('2D SPACE',''
  ) );
#685 = ORIENTED_EDGE('',*,*,#686,.F.);
#686 = EDGE_CURVE('',#24,#659,#687,.T.);
#687 = SURFACE_CURVE('',#688,(#692,#699),.PCURVE_S1.);
#688 = LINE('',#689,#690);
#689 = CARTESIAN_POINT('',(-22.35,-6.,-18.));
#690 = VECTOR('',#691,1.);
#691 = DIRECTION('',(1.,0.,0.));
#692 = PCURVE('',#44,#693);
#693 = DEFINITIONAL_REPRESENTATION('',(#694),#698);
#694 = LINE('',#695,#696);
#695 = CARTESIAN_POINT('',(0.,36.));
#696 = VECTOR('',#697,1.);
#697 = DIRECTION('',(1.,0.));
#698 = ( GEOMETRIC_REPRESENTATION_CONTEXT(2) 
PARAMETRIC_REPRESENTATION_CONTEXT() REPRESENTATION_CONTEXT('2D SPACE',''
  ) );
#699 = PCURVE('',#601,#700);
#700 = DEFINITIONAL_REPRESENTATION('',(#701),#705);
#701 = LINE('',#702,#703);
#702 = CARTESIAN_POINT('',(51.,0.));
#703 = VECTOR('',#704,1.);
#704 = DIRECTION('',(0.,1.));
#705 = ( GEOMETRIC_REPRESENTATION_CONTEXT(2) 
PARAMETRIC_REPRESENTATION_CONTEXT() REPRESENTATION_CONTEXT('2D SPACE',''
  ) );
#706 = ADVANCED_FACE('',(#707),#601,.T.);
#707 = FACE_BOUND('',#708,.T.);
#708 = EDGE_LOOP('',(#709,#732,#771,#772));
#709 = ORIENTED_EDGE('',*,*,#710,.F.);
#710 = EDGE_CURVE('',#711,#659,#713,.T.);
#711 = VERTEX_POINT('',#712);
#712 = CARTESIAN_POINT('',(-9.65,-6.,-41.65716172116));
#713 = SURFACE_CURVE('',#714,(#718,#725),.PCURVE_S1.);
#714 = LINE('',#715,#716);
#715 = CARTESIAN_POINT('',(-9.65,-6.,-69.));
#716 = VECTOR('',#717,1.);
#717 = DIRECTION('',(0.,0.,1.));
#718 = PCURVE('',#601,#719);
#719 = DEFINITIONAL_REPRESENTATION('',(#720),#724);
#720 = LINE('',#721,#722);
#721 = CARTESIAN_POINT('',(0.,12.7));
#722 = VECTOR('',#723,1.);
#723 = DIRECTION('',(1.,0.));
#724 = ( GEOMETRIC_REPRESENTATION_CONTEXT(2) 
PARAMETRIC_REPRESENTATION_CONTEXT() REPRESENTATION_CONTEXT('2D SPACE',''
  ) );
#725 = PCURVE('',#674,#726);
#726 = DEFINITIONAL_REPRESENTATION('',(#727),#731);
#727 = LINE('',#728,#729);
#728 = CARTESIAN_POINT('',(0.,-36.));
#729 = VECTOR('',#730,1.);
#730 = DIRECTION('',(1.,0.));
#731 = ( GEOMETRIC_REPRESENTATION_CONTEXT(2) 
PARAMETRIC_REPRESENTATION_CONTEXT() REPRESENTATION_CONTEXT('2D SPACE',''
  ) );
#732 = ORIENTED_EDGE('',*,*,#733,.F.);
#733 = EDGE_CURVE('',#57,#711,#734,.T.);
#734 = SURFACE_CURVE('',#735,(#745,#758),.PCURVE_S1.);
#735 = B_SPLINE_CURVE_WITH_KNOTS('',8,(#736,#737,#738,#739,#740,#741,
    #742,#743,#744),.UNSPECIFIED.,.F.,.F.,(9,9),(0.,1.),
  .PIECEWISE_BEZIER_KNOTS.);
#736 = CARTESIAN_POINT('',(-22.35,-6.,-30.72982469396));
#737 = CARTESIAN_POINT('',(-21.09300568342,-6.,-32.43132175751));
#738 = CARTESIAN_POINT('',(-19.73756032327,-6.,-34.05649819693));
#739 = CARTESIAN_POINT('',(-18.28761641609,-6.,-35.60374078863));
#740 = CARTESIAN_POINT('',(-16.74470883478,-6.,-37.06396628083));
#741 = CARTESIAN_POINT('',(-15.1092594218,-6.,-38.42199836085));
#742 = CARTESIAN_POINT('',(-13.38102049185,-6.,-39.65710308696));
#743 = CARTESIAN_POINT('',(-11.56046448597,-6.,-40.74458514725));
#744 = CARTESIAN_POINT('',(-9.65,-6.,-41.65716172116));
#745 = PCURVE('',#601,#746);
#746 = DEFINITIONAL_REPRESENTATION('',(#747),#757);
#747 = B_SPLINE_CURVE_WITH_KNOTS('',8,(#748,#749,#750,#751,#752,#753,
    #754,#755,#756),.UNSPECIFIED.,.F.,.F.,(9,9),(0.,1.),
  .PIECEWISE_BEZIER_KNOTS.);
#748 = CARTESIAN_POINT('',(38.270175306031,0.));
#749 = CARTESIAN_POINT('',(36.56867824249,1.256994316576));
#750 = CARTESIAN_POINT('',(34.943501803065,2.612439676727));
#751 = CARTESIAN_POINT('',(33.396259211361,4.062383583909));
#752 = CARTESIAN_POINT('',(31.936033719167,5.605291165215));
#753 = CARTESIAN_POINT('',(30.578001639148,7.240740578195));
#754 = CARTESIAN_POINT('',(29.34289691304,8.968979508144));
#755 = CARTESIAN_POINT('',(28.255414852743,10.789535514029));
#756 = CARTESIAN_POINT('',(27.342838278832,12.7));
#757 = ( GEOMETRIC_REPRESENTATION_CONTEXT(2) 
PARAMETRIC_REPRESENTATION_CONTEXT() REPRESENTATION_CONTEXT('2D SPACE',''
  ) );
#758 = PCURVE('',#350,#759);
#759 = DEFINITIONAL_REPRESENTATION('',(#760),#770);
#760 = B_SPLINE_CURVE_WITH_KNOTS('',8,(#761,#762,#763,#764,#765,#766,
    #767,#768,#769),.UNSPECIFIED.,.F.,.F.,(9,9),(0.,1.),
  .PIECEWISE_BEZIER_KNOTS.);
#761 = CARTESIAN_POINT('',(0.405920808177,0.552445037727));
#762 = CARTESIAN_POINT('',(0.395318398094,0.531268307162));
#763 = CARTESIAN_POINT('',(0.384523872281,0.511112490459));
#764 = CARTESIAN_POINT('',(0.373477461264,0.49200040266));
#765 = CARTESIAN_POINT('',(0.362133000623,0.474036762554));
#766 = CARTESIAN_POINT('',(0.350456086108,0.457394330305));
#767 = CARTESIAN_POINT('',(0.338421648058,0.442307699248));
#768 = CARTESIAN_POINT('',(0.326009329408,0.429058250268));
#769 = CARTESIAN_POINT('',(0.313202259196,0.417960332288));
#770 = ( GEOMETRIC_REPRESENTATION_CONTEXT(2) 
PARAMETRIC_REPRESENTATION_CONTEXT() REPRESENTATION_CONTEXT('2D SPACE',''
  ) );
#771 = ORIENTED_EDGE('',*,*,#587,.T.);
#772 = ORIENTED_EDGE('',*,*,#686,.T.);
#773 = ADVANCED_FACE('',(#774),#350,.T.);
#774 = FACE_BOUND('',#775,.T.);
#775 = EDGE_LOOP('',(#776,#777,#778,#779,#874,#1025,#1104));
#776 = ORIENTED_EDGE('',*,*,#617,.T.);
#777 = ORIENTED_EDGE('',*,*,#56,.T.);
#778 = ORIENTED_EDGE('',*,*,#733,.T.);
#779 = ORIENTED_EDGE('',*,*,#780,.F.);
#780 = EDGE_CURVE('',#781,#711,#783,.T.);
#781 = VERTEX_POINT('',#782);
#782 = CARTESIAN_POINT('',(-9.65,-22.48310535967,-69.));
#783 = SURFACE_CURVE('',#784,(#812,#843),.PCURVE_S1.);
#784 = B_SPLINE_CURVE_WITH_KNOTS('',6,(#785,#786,#787,#788,#789,#790,
    #791,#792,#793,#794,#795,#796,#797,#798,#799,#800,#801,#802,#803,
    #804,#805,#806,#807,#808,#809,#810,#811),.UNSPECIFIED.,.F.,.F.,(7,5,
    5,5,5,7),(0.,0.312823111828,0.442881484061,0.527504730613,
    0.648422688965,1.),.UNSPECIFIED.);
#785 = CARTESIAN_POINT('',(-9.65,-22.48310535967,-69.));
#786 = CARTESIAN_POINT('',(-9.65,-21.54232376651,-67.62639421569));
#787 = CARTESIAN_POINT('',(-9.65,-20.62981146028,-66.23352789561));
#788 = CARTESIAN_POINT('',(-9.65,-19.74079577889,-64.8255210056));
#789 = CARTESIAN_POINT('',(-9.65,-18.87046910262,-63.40606440269));
#790 = CARTESIAN_POINT('',(-9.65,-18.01419344396,-61.97829400939));
#791 = CARTESIAN_POINT('',(-9.65,-16.81568215093,-59.94867464361));
#792 = CARTESIAN_POINT('',(-9.65,-16.46540988267,-59.35165270783));
#793 = CARTESIAN_POINT('',(-9.65,-16.11651800713,-58.75382286947));
#794 = CARTESIAN_POINT('',(-9.65,-15.76871405672,-58.15536089158));
#795 = CARTESIAN_POINT('',(-9.65,-15.42172012079,-57.55643051894));
#796 = CARTESIAN_POINT('',(-9.65,-14.8498548839,-56.56727985848));
#797 = CARTESIAN_POINT('',(-9.65,-14.62466858883,-56.1772423609));
#798 = CARTESIAN_POINT('',(-9.65,-14.39964164259,-55.78711290796));
#799 = CARTESIAN_POINT('',(-9.65,-14.17470480923,-55.39693153714));
#800 = CARTESIAN_POINT('',(-9.65,-13.94979193465,-55.00673640068));
#801 = CARTESIAN_POINT('',(-9.65,-13.40340657907,-54.05904700331));
#802 = CARTESIAN_POINT('',(-9.65,-13.08189353779,-53.50157633814));
#803 = CARTESIAN_POINT('',(-9.65,-12.76011675401,-52.94425753629));
#804 = CARTESIAN_POINT('',(-9.65,-12.4379060666,-52.38718914589));
#805 = CARTESIAN_POINT('',(-9.65,-12.1151052221,-51.83046249704));
#806 = CARTESIAN_POINT('',(-9.65,-10.8508763333,-49.65667873749));
#807 = CARTESIAN_POINT('',(-9.65,-9.903983730224,-48.04278712589));
#808 = CARTESIAN_POINT('',(-9.65,-8.947409287522,-46.43457471265));
#809 = CARTESIAN_POINT('',(-9.65,-7.978684181633,-44.83361447653));
#810 = CARTESIAN_POINT('',(-9.65,-6.996365129922,-43.24095915607));
#811 = CARTESIAN_POINT('',(-9.65,-6.,-41.65716172116));
#812 = PCURVE('',#350,#813);
#813 = DEFINITIONAL_REPRESENTATION('',(#814),#842);
#814 = B_SPLINE_CURVE_WITH_KNOTS('',6,(#815,#816,#817,#818,#819,#820,
    #821,#822,#823,#824,#825,#826,#827,#828,#829,#830,#831,#832,#833,
    #834,#835,#836,#837,#838,#839,#840,#841),.UNSPECIFIED.,.F.,.F.,(7,5,
    5,5,5,7),(0.,0.312823111828,0.442881484061,0.527504730613,
    0.648422688965,1.),.UNSPECIFIED.);
#815 = CARTESIAN_POINT('',(0.325129331422,8.830527298961E-02));
#816 = CARTESIAN_POINT('',(0.324020779371,0.105255266855));
#817 = CARTESIAN_POINT('',(0.323124849811,0.122303422166));
#818 = CARTESIAN_POINT('',(0.322371715715,0.139421471076));
#819 = CARTESIAN_POINT('',(0.321716043965,0.156587730759));
#820 = CARTESIAN_POINT('',(0.321123082753,0.173786297034));
#821 = CARTESIAN_POINT('',(0.320337129267,0.198167100867));
#822 = CARTESIAN_POINT('',(0.320112853017,0.205330619496));
#823 = CARTESIAN_POINT('',(0.319893328743,0.212497084418));
#824 = CARTESIAN_POINT('',(0.319677021159,0.219665774529));
#825 = CARTESIAN_POINT('',(0.319462637752,0.226836054248));
#826 = CARTESIAN_POINT('',(0.319110207914,0.238673434677));
#827 = CARTESIAN_POINT('',(0.318971654202,0.243339932947));
#828 = CARTESIAN_POINT('',(0.318833175404,0.248006714419));
#829 = CARTESIAN_POINT('',(0.318694514866,0.252673635344));
#830 = CARTESIAN_POINT('',(0.31855545153,0.257340562132));
#831 = CARTESIAN_POINT('',(0.318216252086,0.268675764082));
#832 = CARTESIAN_POINT('',(0.318015498862,0.275343914122));
#833 = CARTESIAN_POINT('',(0.317813003837,0.282011462452));
#834 = CARTESIAN_POINT('',(0.317608351521,0.288678079433));
#835 = CARTESIAN_POINT('',(0.317401247347,0.295343464799));
#836 = CARTESIAN_POINT('',(0.316581714184,0.321383047099));
#837 = CARTESIAN_POINT('',(0.315949686827,0.340746145096));
#838 = CARTESIAN_POINT('',(0.315290924257,0.360089705897));
#839 = CARTESIAN_POINT('',(0.314608488498,0.379408695405));
#840 = CARTESIAN_POINT('',(0.313909455361,0.398699642795));
#841 = CARTESIAN_POINT('',(0.313202259196,0.417960332288));
#842 = ( GEOMETRIC_REPRESENTATION_CONTEXT(2) 
PARAMETRIC_REPRESENTATION_CONTEXT() REPRESENTATION_CONTEXT('2D SPACE',''
  ) );
#843 = PCURVE('',#674,#844);
#844 = DEFINITIONAL_REPRESENTATION('',(#845),#873);
#845 = B_SPLINE_CURVE_WITH_KNOTS('',6,(#846,#847,#848,#849,#850,#851,
    #852,#853,#854,#855,#856,#857,#858,#859,#860,#861,#862,#863,#864,
    #865,#866,#867,#868,#869,#870,#871,#872),.UNSPECIFIED.,.F.,.F.,(7,5,
    5,5,5,7),(0.,0.312823111828,0.442881484061,0.527504730613,
    0.648422688965,1.),.UNSPECIFIED.);
#846 = CARTESIAN_POINT('',(0.,-19.51689464032));
#847 = CARTESIAN_POINT('',(1.373605784305,-20.45767623348));
#848 = CARTESIAN_POINT('',(2.766472104385,-21.37018853971));
#849 = CARTESIAN_POINT('',(4.174478994396,-22.2592042211));
#850 = CARTESIAN_POINT('',(5.593935597303,-23.12953089737));
#851 = CARTESIAN_POINT('',(7.021705990603,-23.98580655603));
#852 = CARTESIAN_POINT('',(9.051325356388,-25.18431784906));
#853 = CARTESIAN_POINT('',(9.648347292168,-25.53459011733));
#854 = CARTESIAN_POINT('',(10.246177130528,-25.88348199286));
#855 = CARTESIAN_POINT('',(10.844639108417,-26.23128594327));
#856 = CARTESIAN_POINT('',(11.44356948106,-26.5782798792));
#857 = CARTESIAN_POINT('',(12.432720141517,-27.15014511609));
#858 = CARTESIAN_POINT('',(12.822757639098,-27.37533141116));
#859 = CARTESIAN_POINT('',(13.212887092033,-27.6003583574));
#860 = CARTESIAN_POINT('',(13.603068462859,-27.82529519076));
#861 = CARTESIAN_POINT('',(13.99326359932,-28.05020806534));
#862 = CARTESIAN_POINT('',(14.940952996687,-28.59659342093));
#863 = CARTESIAN_POINT('',(15.498423661854,-28.9181064622));
#864 = CARTESIAN_POINT('',(16.055742463704,-29.23988324598));
#865 = CARTESIAN_POINT('',(16.612810854105,-29.56209393339));
#866 = CARTESIAN_POINT('',(17.169537502956,-29.88489477789));
#867 = CARTESIAN_POINT('',(19.343321262507,-31.14912366669));
#868 = CARTESIAN_POINT('',(20.957212874103,-32.09601626977));
#869 = CARTESIAN_POINT('',(22.565425287347,-33.05259071247));
#870 = CARTESIAN_POINT('',(24.166385523465,-34.02131581836));
#871 = CARTESIAN_POINT('',(25.759040843927,-35.00363487007));
#872 = CARTESIAN_POINT('',(27.342838278832,-36.));
#873 = ( GEOMETRIC_REPRESENTATION_CONTEXT(2) 
PARAMETRIC_REPRESENTATION_CONTEXT() REPRESENTATION_CONTEXT('2D SPACE',''
  ) );
#874 = ORIENTED_EDGE('',*,*,#875,.F.);
#875 = EDGE_CURVE('',#876,#781,#878,.T.);
#876 = VERTEX_POINT('',#877);
#877 = CARTESIAN_POINT('',(-19.48683251259,-42.,-69.));
#878 = SURFACE_CURVE('',#879,(#924,#972),.PCURVE_S1.);
#879 = B_SPLINE_CURVE_WITH_KNOTS('',8,(#880,#881,#882,#883,#884,#885,
    #886,#887,#888,#889,#890,#891,#892,#893,#894,#895,#896,#897,#898,
    #899,#900,#901,#902,#903,#904,#905,#906,#907,#908,#909,#910,#911,
    #912,#913,#914,#915,#916,#917,#918,#919,#920,#921,#922,#923),
  .UNSPECIFIED.,.F.,.F.,(9,7,7,7,7,7,9),(0.,8.650876285205E-02,
    0.250473279627,0.391157313893,0.457674086405,0.584261195324,1.),
  .UNSPECIFIED.);
#880 = CARTESIAN_POINT('',(-19.48683251259,-42.,-69.));
#881 = CARTESIAN_POINT('',(-19.62804696947,-41.76598561698,-69.));
#882 = CARTESIAN_POINT('',(-19.76379594485,-41.528671887,-69.));
#883 = CARTESIAN_POINT('',(-19.89387793774,-41.28814163917,-69.));
#884 = CARTESIAN_POINT('',(-20.01808988825,-41.04449123276,-69.));
#885 = CARTESIAN_POINT('',(-20.13622951305,-40.79783168268,-69.));
#886 = CARTESIAN_POINT('',(-20.24809764089,-40.54828978502,-69.));
#887 = CARTESIAN_POINT('',(-20.35350054803,-40.29600924258,-69.));
#888 = CARTESIAN_POINT('',(-20.63942156699,-39.55810732628,-69.));
#889 = CARTESIAN_POINT('',(-20.8027411481,-39.06569446874,-69.));
#890 = CARTESIAN_POINT('',(-20.94087535593,-38.56513962911,-69.));
#891 = CARTESIAN_POINT('',(-21.05267868162,-38.05780051283,-69.));
#892 = CARTESIAN_POINT('',(-21.13721946655,-37.54517053845,-69.));
#893 = CARTESIAN_POINT('',(-21.19381991919,-37.02888580059,-69.));
#894 = CARTESIAN_POINT('',(-21.22211247095,-36.51073457703,-69.));
#895 = CARTESIAN_POINT('',(-21.22211247095,-35.54816160824,-69.));
#896 = CARTESIAN_POINT('',(-21.20128387907,-35.103608711,-69.));
#897 = CARTESIAN_POINT('',(-21.15961963417,-34.66022395624,-69.));
#898 = CARTESIAN_POINT('',(-21.09731563714,-34.21914228542,-69.));
#899 = CARTESIAN_POINT('',(-21.01474041909,-33.7814247136,-69.));
#900 = CARTESIAN_POINT('',(-20.91241126703,-33.34806182736,-69.));
#901 = CARTESIAN_POINT('',(-20.79097680738,-32.91997638001,-69.));
#902 = CARTESIAN_POINT('',(-20.5851210793,-32.29852228203,-69.));
#903 = CARTESIAN_POINT('',(-20.5149328887,-32.10037838952,-69.));
#904 = CARTESIAN_POINT('',(-20.44071961774,-31.90367727587,-69.));
#905 = CARTESIAN_POINT('',(-20.36256338974,-31.7084965287,-69.));
#906 = CARTESIAN_POINT('',(-20.28054960367,-31.51490763925,-69.));
#907 = CARTESIAN_POINT('',(-20.1947662291,-31.32297628747,-69.));
#908 = CARTESIAN_POINT('',(-20.10530310105,-31.13276262707,-69.));
#909 = CARTESIAN_POINT('',(-19.83516551444,-30.58570211833,-69.));
#910 = CARTESIAN_POINT('',(-19.64508416611,-30.23350633581,-69.));
#911 = CARTESIAN_POINT('',(-19.44263147052,-29.88810425386,-69.));
#912 = CARTESIAN_POINT('',(-19.22844364795,-29.5497930848,-69.));
#913 = CARTESIAN_POINT('',(-19.00315496349,-29.21880608557,-69.));
#914 = CARTESIAN_POINT('',(-18.76738593865,-28.89532013878,-69.));
#915 = CARTESIAN_POINT('',(-18.5217336494,-28.57946205162,-69.));
#916 = CARTESIAN_POINT('',(-17.42939028788,-27.25928887802,-69.));
#917 = CARTESIAN_POINT('',(-16.49300585718,-26.33221575547,-69.));
#918 = CARTESIAN_POINT('',(-15.47615561705,-25.48991789065,-69.));
#919 = CARTESIAN_POINT('',(-14.39469350167,-24.73136802453,-69.));
#920 = CARTESIAN_POINT('',(-13.26208901529,-24.05436963754,-69.));
#921 = CARTESIAN_POINT('',(-12.0890882801,-23.45606425786,-69.));
#922 = CARTESIAN_POINT('',(-10.88355512515,-22.93324598568,-69.));
#923 = CARTESIAN_POINT('',(-9.65,-22.48310535967,-69.));
#924 = PCURVE('',#350,#925);
#925 = DEFINITIONAL_REPRESENTATION('',(#926),#971);
#926 = B_SPLINE_CURVE_WITH_KNOTS('',8,(#927,#928,#929,#930,#931,#932,
    #933,#934,#935,#936,#937,#938,#939,#940,#941,#942,#943,#944,#945,
    #946,#947,#948,#949,#950,#951,#952,#953,#954,#955,#956,#957,#958,
    #959,#960,#961,#962,#963,#964,#965,#966,#967,#968,#969,#970),
  .UNSPECIFIED.,.F.,.F.,(9,7,7,7,7,7,9),(0.,8.650876285205E-02,
    0.250473279627,0.391157313893,0.457674086405,0.584261195324,1.),
  .UNSPECIFIED.);
#927 = CARTESIAN_POINT('',(0.564808244005,8.830527298961E-02));
#928 = CARTESIAN_POINT('',(0.56213419358,8.830527298961E-02));
#929 = CARTESIAN_POINT('',(0.559444587804,8.830527298961E-02));
#930 = CARTESIAN_POINT('',(0.556739674939,8.830527298961E-02));
#931 = CARTESIAN_POINT('',(0.554019778531,8.830527298961E-02));
#932 = CARTESIAN_POINT('',(0.551285306998,8.830527298961E-02));
#933 = CARTESIAN_POINT('',(0.548536763203,8.830527298961E-02));
#934 = CARTESIAN_POINT('',(0.545774754037,8.830527298961E-02));
#935 = CARTESIAN_POINT('',(0.537740865667,8.830527298961E-02));
#936 = CARTESIAN_POINT('',(0.532434739374,8.830527298961E-02));
#937 = CARTESIAN_POINT('',(0.527087936576,8.830527298961E-02));
#938 = CARTESIAN_POINT('',(0.521707086208,8.830527298961E-02));
#939 = CARTESIAN_POINT('',(0.516299310201,8.830527298961E-02));
#940 = CARTESIAN_POINT('',(0.510872516834,8.830527298961E-02));
#941 = CARTESIAN_POINT('',(0.50543580795,8.830527298961E-02));
#942 = CARTESIAN_POINT('',(0.495335994599,8.830527298961E-02));
#943 = CARTESIAN_POINT('',(0.490671516289,8.830527298961E-02));
#944 = CARTESIAN_POINT('',(0.486013189288,8.830527298961E-02));
#945 = CARTESIAN_POINT('',(0.481366818156,8.830527298961E-02));
#946 = CARTESIAN_POINT('',(0.476737617769,8.830527298961E-02));
#947 = CARTESIAN_POINT('',(0.472130401363,8.830527298961E-02));
#948 = CARTESIAN_POINT('',(0.467549726648,8.830527298961E-02));
#949 = CARTESIAN_POINT('',(0.460848845223,8.830527298961E-02));
#950 = CARTESIAN_POINT('',(0.458704474818,8.830527298961E-02));
#951 = CARTESIAN_POINT('',(0.456567281863,8.830527298961E-02));
#952 = CARTESIAN_POINT('',(0.454437617839,8.830527298961E-02));
#953 = CARTESIAN_POINT('',(0.452315795762,8.830527298961E-02));
#954 = CARTESIAN_POINT('',(0.450202093305,8.830527298961E-02));
#955 = CARTESIAN_POINT('',(0.448096755928,8.830527298961E-02));
#956 = CARTESIAN_POINT('',(0.442009694082,8.830527298961E-02));
#957 = CARTESIAN_POINT('',(0.438050509563,8.830527298961E-02));
#958 = CARTESIAN_POINT('',(0.43412384271,8.830527298961E-02));
#959 = CARTESIAN_POINT('',(0.430230652338,8.830527298961E-02));
#960 = CARTESIAN_POINT('',(0.426371534012,8.830527298961E-02));
#961 = CARTESIAN_POINT('',(0.422546770094,8.830527298961E-02));
#962 = CARTESIAN_POINT('',(0.418756355615,8.830527298961E-02));
#963 = CARTESIAN_POINT('',(0.402663334705,8.830527298961E-02));
#964 = CARTESIAN_POINT('',(0.390715915326,8.830527298961E-02));
#965 = CARTESIAN_POINT('',(0.379114026441,8.830527298961E-02));
#966 = CARTESIAN_POINT('',(0.367825769347,8.830527298961E-02));
#967 = CARTESIAN_POINT('',(0.356819687555,8.830527298961E-02));
#968 = CARTESIAN_POINT('',(0.346062875941,8.830527298961E-02));
#969 = CARTESIAN_POINT('',(0.335516309058,8.830527298961E-02));
#970 = CARTESIAN_POINT('',(0.325129331422,8.830527298961E-02));
#971 = ( GEOMETRIC_REPRESENTATION_CONTEXT(2) 
PARAMETRIC_REPRESENTATION_CONTEXT() REPRESENTATION_CONTEXT('2D SPACE',''
  ) );
#972 = PCURVE('',#973,#978);
#973 = PLANE('',#974);
#974 = AXIS2_PLACEMENT_3D('',#975,#976,#977);
#975 = CARTESIAN_POINT('',(-22.35,-42.,-69.));
#976 = DIRECTION('',(0.,0.,1.));
#977 = DIRECTION('',(1.,0.,0.));
#978 = DEFINITIONAL_REPRESENTATION('',(#979),#1024);
#979 = B_SPLINE_CURVE_WITH_KNOTS('',8,(#980,#981,#982,#983,#984,#985,
    #986,#987,#988,#989,#990,#991,#992,#993,#994,#995,#996,#997,#998,
    #999,#1000,#1001,#1002,#1003,#1004,#1005,#1006,#1007,#1008,#1009,
    #1010,#1011,#1012,#1013,#1014,#1015,#1016,#1017,#1018,#1019,#1020,
    #1021,#1022,#1023),.UNSPECIFIED.,.F.,.F.,(9,7,7,7,7,7,9),(0.,
    8.650876285205E-02,0.250473279627,0.391157313893,0.457674086405,
    0.584261195324,1.),.UNSPECIFIED.);
#980 = CARTESIAN_POINT('',(2.863167487404,0.));
#981 = CARTESIAN_POINT('',(2.721953030525,0.234014383015));
#982 = CARTESIAN_POINT('',(2.586204055145,0.471328112997));
#983 = CARTESIAN_POINT('',(2.456122062253,0.711858360821));
#984 = CARTESIAN_POINT('',(2.331910111746,0.955508767231));
#985 = CARTESIAN_POINT('',(2.213770486943,1.202168317313));
#986 = CARTESIAN_POINT('',(2.101902359109,1.451710214974));
#987 = CARTESIAN_POINT('',(1.996499451968,1.703990757412));
#988 = CARTESIAN_POINT('',(1.71057843301,2.441892673719));
#989 = CARTESIAN_POINT('',(1.547258851893,2.934305531253));
#990 = CARTESIAN_POINT('',(1.409124644065,3.434860370884));
#991 = CARTESIAN_POINT('',(1.297321318376,3.942199487162));
#992 = CARTESIAN_POINT('',(1.212780533446,4.454829461546));
#993 = CARTESIAN_POINT('',(1.156180080803,4.971114199404));
#994 = CARTESIAN_POINT('',(1.127887529047,5.489265422964));
#995 = CARTESIAN_POINT('',(1.127887529047,6.451838391755));
#996 = CARTESIAN_POINT('',(1.148716120923,6.896391289));
#997 = CARTESIAN_POINT('',(1.190380365829,7.339776043752));
#998 = CARTESIAN_POINT('',(1.252684362853,7.780857714579));
#999 = CARTESIAN_POINT('',(1.335259580908,8.218575286398));
#1000 = CARTESIAN_POINT('',(1.437588732966,8.65193817264));
#1001 = CARTESIAN_POINT('',(1.559023192611,9.08002361999));
#1002 = CARTESIAN_POINT('',(1.764878920695,9.701477717964));
#1003 = CARTESIAN_POINT('',(1.835067111298,9.899621610476));
#1004 = CARTESIAN_POINT('',(1.909280382252,10.09632272413));
#1005 = CARTESIAN_POINT('',(1.987436610258,10.291503471296));
#1006 = CARTESIAN_POINT('',(2.069450396327,10.485092360741));
#1007 = CARTESIAN_POINT('',(2.155233770897,10.677023712527));
#1008 = CARTESIAN_POINT('',(2.244696898949,10.867237372925));
#1009 = CARTESIAN_POINT('',(2.514834485551,11.414297881661));
#1010 = CARTESIAN_POINT('',(2.70491583389,11.766493664183));
#1011 = CARTESIAN_POINT('',(2.907368529475,12.111895746132));
#1012 = CARTESIAN_POINT('',(3.121556352041,12.450206915197));
#1013 = CARTESIAN_POINT('',(3.346845036503,12.781193914426));
#1014 = CARTESIAN_POINT('',(3.582614061345,13.104679861216));
#1015 = CARTESIAN_POINT('',(3.828266350596,13.420537948371));
#1016 = CARTESIAN_POINT('',(4.920609712119,14.740711121977));
#1017 = CARTESIAN_POINT('',(5.856994142812,15.667784244526));
#1018 = CARTESIAN_POINT('',(6.873844382949,16.510082109349));
#1019 = CARTESIAN_POINT('',(7.95530649833,17.268631975462));
#1020 = CARTESIAN_POINT('',(9.087910984706,17.945630362459));
#1021 = CARTESIAN_POINT('',(10.260911719896,18.543935742139));
#1022 = CARTESIAN_POINT('',(11.466444874847,19.066754014313));
#1023 = CARTESIAN_POINT('',(12.7,19.516894640328));
#1024 = ( GEOMETRIC_REPRESENTATION_CONTEXT(2) 
PARAMETRIC_REPRESENTATION_CONTEXT() REPRESENTATION_CONTEXT('2D SPACE',''
  ) );
#1025 = ORIENTED_EDGE('',*,*,#1026,.T.);
#1026 = EDGE_CURVE('',#876,#1027,#1029,.T.);
#1027 = VERTEX_POINT('',#1028);
#1028 = CARTESIAN_POINT('',(-9.65,-42.,-49.70055502509));
#1029 = SURFACE_CURVE('',#1030,(#1051,#1075),.PCURVE_S1.);
#1030 = B_SPLINE_CURVE_WITH_KNOTS('',7,(#1031,#1032,#1033,#1034,#1035,
    #1036,#1037,#1038,#1039,#1040,#1041,#1042,#1043,#1044,#1045,#1046,
    #1047,#1048,#1049,#1050),.UNSPECIFIED.,.F.,.F.,(8,6,6,8),(0.,
    0.47304362858,0.843782170428,1.),.UNSPECIFIED.);
#1031 = CARTESIAN_POINT('',(-19.48683251259,-42.,-69.));
#1032 = CARTESIAN_POINT('',(-19.37550873983,-42.,-67.50454822625));
#1033 = CARTESIAN_POINT('',(-19.14271363885,-42.,-66.02020860424));
#1034 = CARTESIAN_POINT('',(-18.8060168781,-42.,-64.55394162933));
#1035 = CARTESIAN_POINT('',(-18.37964775075,-42.,-63.11130560649));
#1036 = CARTESIAN_POINT('',(-17.87354494954,-42.,-61.69670308596));
#1037 = CARTESIAN_POINT('',(-17.29377315276,-42.,-60.31326400954));
#1038 = CARTESIAN_POINT('',(-16.12972698559,-42.,-57.9052884733));
#1039 = CARTESIAN_POINT('',(-15.57412706796,-42.,-56.86904649728));
#1040 = CARTESIAN_POINT('',(-14.97523920578,-42.,-55.85615207346));
#1041 = CARTESIAN_POINT('',(-14.33292178931,-42.,-54.86952882125));
#1042 = CARTESIAN_POINT('',(-13.64633402608,-42.,-53.91325629476));
#1043 = CARTESIAN_POINT('',(-12.91399936236,-42.,-52.99253929474));
#1044 = CARTESIAN_POINT('',(-11.80481077292,-42.,-51.74357444215));
#1045 = CARTESIAN_POINT('',(-11.46752189287,-42.,-51.3808439463));
#1046 = CARTESIAN_POINT('',(-11.12163320082,-42.,-51.02615668733));
#1047 = CARTESIAN_POINT('',(-10.76702417939,-42.,-50.68010043645));
#1048 = CARTESIAN_POINT('',(-10.40359367508,-42.,-50.34332965713));
#1049 = CARTESIAN_POINT('',(-10.03126649439,-42.,-50.01655870453));
#1050 = CARTESIAN_POINT('',(-9.65,-42.,-49.70055502509));
#1051 = PCURVE('',#350,#1052);
#1052 = DEFINITIONAL_REPRESENTATION('',(#1053),#1074);
#1053 = B_SPLINE_CURVE_WITH_KNOTS('',7,(#1054,#1055,#1056,#1057,#1058,
    #1059,#1060,#1061,#1062,#1063,#1064,#1065,#1066,#1067,#1068,#1069,
    #1070,#1071,#1072,#1073),.UNSPECIFIED.,.F.,.F.,(8,6,6,8),(0.,
    0.47304362858,0.843782170428,1.),.UNSPECIFIED.);
#1054 = CARTESIAN_POINT('',(0.564808244005,8.830527298961E-02));
#1055 = CARTESIAN_POINT('',(0.572397033298,0.106758819619));
#1056 = CARTESIAN_POINT('',(0.580024037588,0.124914479795));
#1057 = CARTESIAN_POINT('',(0.587692298086,0.142725688554));
#1058 = CARTESIAN_POINT('',(0.595399154947,0.16015909146));
#1059 = CARTESIAN_POINT('',(0.603146618952,0.17718926994));
#1060 = CARTESIAN_POINT('',(0.610946194395,0.193800582728));
#1061 = CARTESIAN_POINT('',(0.62501001039,0.2226645886));
#1062 = CARTESIAN_POINT('',(0.631234458469,0.235068499084));
#1063 = CARTESIAN_POINT('',(0.637516336539,0.247183456743));
#1064 = CARTESIAN_POINT('',(0.64386590267,0.258980925979));
#1065 = CARTESIAN_POINT('',(0.650293321871,0.270416965477));
#1066 = CARTESIAN_POINT('',(0.656811198767,0.28143260597));
#1067 = CARTESIAN_POINT('',(0.666229895263,0.29638477217));
#1068 = CARTESIAN_POINT('',(0.66904086117,0.300728471827));
#1069 = CARTESIAN_POINT('',(0.671871669433,0.30497721996));
#1070 = CARTESIAN_POINT('',(0.674723286409,0.309124046105));
#1071 = CARTESIAN_POINT('',(0.677596588641,0.31316112655));
#1072 = CARTESIAN_POINT('',(0.680492384537,0.317079865828));
#1073 = CARTESIAN_POINT('',(0.683411436062,0.320870978207));
#1074 = ( GEOMETRIC_REPRESENTATION_CONTEXT(2) 
PARAMETRIC_REPRESENTATION_CONTEXT() REPRESENTATION_CONTEXT('2D SPACE',''
  ) );
#1075 = PCURVE('',#1076,#1081);
#1076 = PLANE('',#1077);
#1077 = AXIS2_PLACEMENT_3D('',#1078,#1079,#1080);
#1078 = CARTESIAN_POINT('',(-22.35,-42.,-69.));
#1079 = DIRECTION('',(0.,1.,0.));
#1080 = DIRECTION('',(0.,0.,1.));
#1081 = DEFINITIONAL_REPRESENTATION('',(#1082),#1103);
#1082 = B_SPLINE_CURVE_WITH_KNOTS('',7,(#1083,#1084,#1085,#1086,#1087,
    #1088,#1089,#1090,#1091,#1092,#1093,#1094,#1095,#1096,#1097,#1098,
    #1099,#1100,#1101,#1102),.UNSPECIFIED.,.F.,.F.,(8,6,6,8),(0.,
    0.47304362858,0.843782170428,1.),.UNSPECIFIED.);
#1083 = CARTESIAN_POINT('',(0.,2.863167487404));
#1084 = CARTESIAN_POINT('',(1.495451773744,2.97449126017));
#1085 = CARTESIAN_POINT('',(2.97979139576,3.207286361149));
#1086 = CARTESIAN_POINT('',(4.446058370669,3.543983121895));
#1087 = CARTESIAN_POINT('',(5.888694393506,3.970352249249));
#1088 = CARTESIAN_POINT('',(7.303296914036,4.476455050453));
#1089 = CARTESIAN_POINT('',(8.686735990452,5.056226847231));
#1090 = CARTESIAN_POINT('',(11.0947115267,6.220273014405));
#1091 = CARTESIAN_POINT('',(12.130953502715,6.775872932033));
#1092 = CARTESIAN_POINT('',(13.143847926532,7.37476079422));
#1093 = CARTESIAN_POINT('',(14.130471178742,8.017078210689));
#1094 = CARTESIAN_POINT('',(15.086743705233,8.703665973917));
#1095 = CARTESIAN_POINT('',(16.007460705253,9.436000637638));
#1096 = CARTESIAN_POINT('',(17.256425557847,10.54518922708));
#1097 = CARTESIAN_POINT('',(17.619156053694,10.882478107121));
#1098 = CARTESIAN_POINT('',(17.973843312666,11.228366799174));
#1099 = CARTESIAN_POINT('',(18.319899563542,11.582975820602));
#1100 = CARTESIAN_POINT('',(18.656670342869,11.946406324913));
#1101 = CARTESIAN_POINT('',(18.983441295462,12.318733505602));
#1102 = CARTESIAN_POINT('',(19.299444974906,12.7));
#1103 = ( GEOMETRIC_REPRESENTATION_CONTEXT(2) 
PARAMETRIC_REPRESENTATION_CONTEXT() REPRESENTATION_CONTEXT('2D SPACE',''
  ) );
#1104 = ORIENTED_EDGE('',*,*,#1105,.T.);
#1105 = EDGE_CURVE('',#1027,#618,#1106,.T.);
#1106 = SURFACE_CURVE('',#1107,(#1140,#1176),.PCURVE_S1.);
#1107 = B_SPLINE_CURVE_WITH_KNOTS('',6,(#1108,#1109,#1110,#1111,#1112,
    #1113,#1114,#1115,#1116,#1117,#1118,#1119,#1120,#1121,#1122,#1123,
    #1124,#1125,#1126,#1127,#1128,#1129,#1130,#1131,#1132,#1133,#1134,
    #1135,#1136,#1137,#1138,#1139),.UNSPECIFIED.,.F.,.F.,(7,5,5,5,5,5,7)
  ,(0.,0.192117330425,0.256304577143,0.315114299324,0.442312536099,
    0.726192965894,1.),.UNSPECIFIED.);
#1108 = CARTESIAN_POINT('',(-9.65,-42.,-49.70055502509));
#1109 = CARTESIAN_POINT('',(-9.65,-41.60644952293,-48.67758803665));
#1110 = CARTESIAN_POINT('',(-9.65,-41.21590169732,-47.65346543631));
#1111 = CARTESIAN_POINT('',(-9.65,-40.82818560122,-46.62826805904));
#1112 = CARTESIAN_POINT('',(-9.65,-40.44287244025,-45.6021678296));
#1113 = CARTESIAN_POINT('',(-9.65,-40.05933068002,-44.5754070238));
#1114 = CARTESIAN_POINT('',(-9.65,-39.5489697044,-43.20510903965));
#1115 = CARTESIAN_POINT('',(-9.65,-39.42126907383,-42.86189932221));
#1116 = CARTESIAN_POINT('',(-9.65,-39.29365010118,-42.51865927955));
#1117 = CARTESIAN_POINT('',(-9.65,-39.16608212727,-42.17540033558));
#1118 = CARTESIAN_POINT('',(-9.65,-39.03853301947,-41.83213443612));
#1119 = CARTESIAN_POINT('',(-9.65,-38.79409245827,-41.17437157321));
#1120 = CARTESIAN_POINT('',(-9.65,-38.67720347044,-40.85987370365));
#1121 = CARTESIAN_POINT('',(-9.65,-38.56027637206,-40.54539002445));
#1122 = CARTESIAN_POINT('',(-9.65,-38.44328473528,-40.23093037107));
#1123 = CARTESIAN_POINT('',(-9.65,-38.32620154063,-39.91650483031));
#1124 = CARTESIAN_POINT('',(-9.65,-37.95550479812,-38.9221558907));
#1125 = CARTESIAN_POINT('',(-9.65,-37.70145325578,-38.24239626652));
#1126 = CARTESIAN_POINT('',(-9.65,-37.44656642133,-37.56294836913));
#1127 = CARTESIAN_POINT('',(-9.65,-37.19055837982,-36.88392123237));
#1128 = CARTESIAN_POINT('',(-9.65,-36.9331471026,-36.20542503177));
#1129 = CARTESIAN_POINT('',(-9.65,-36.09585039482,-34.01472562606));
#1130 = CARTESIAN_POINT('',(-9.65,-35.50931019551,-32.50504270506));
#1131 = CARTESIAN_POINT('',(-9.65,-34.91150270143,-30.99974321428));
#1132 = CARTESIAN_POINT('',(-9.65,-34.2998620454,-29.49998304951));
#1133 = CARTESIAN_POINT('',(-9.65,-33.67294256507,-28.00654904186));
#1134 = CARTESIAN_POINT('',(-9.65,-32.41156827397,-25.08557655141));
#1135 = CARTESIAN_POINT('',(-9.65,-31.77814897507,-23.65753105321));
#1136 = CARTESIAN_POINT('',(-9.65,-31.13071472974,-22.23578979721));
#1137 = CARTESIAN_POINT('',(-9.65,-30.47063944997,-20.81991175427));
#1138 = CARTESIAN_POINT('',(-9.65,-29.80080542063,-19.40866052937));
#1139 = CARTESIAN_POINT('',(-9.65,-29.12561143756,-18.));
#1140 = PCURVE('',#350,#1141);
#1141 = DEFINITIONAL_REPRESENTATION('',(#1142),#1175);
#1142 = B_SPLINE_CURVE_WITH_KNOTS('',6,(#1143,#1144,#1145,#1146,#1147,
    #1148,#1149,#1150,#1151,#1152,#1153,#1154,#1155,#1156,#1157,#1158,
    #1159,#1160,#1161,#1162,#1163,#1164,#1165,#1166,#1167,#1168,#1169,
    #1170,#1171,#1172,#1173,#1174),.UNSPECIFIED.,.F.,.F.,(7,5,5,5,5,5,7)
  ,(0.,0.192117330425,0.256304577143,0.315114299324,0.442312536099,
    0.726192965894,1.),.UNSPECIFIED.);
#1143 = CARTESIAN_POINT('',(0.683411436062,0.320870978207));
#1144 = CARTESIAN_POINT('',(0.683809911683,0.333143565727));
#1145 = CARTESIAN_POINT('',(0.684219245268,0.345446713045));
#1146 = CARTESIAN_POINT('',(0.684639987927,0.357783708491));
#1147 = CARTESIAN_POINT('',(0.685071624932,0.370156225606));
#1148 = CARTESIAN_POINT('',(0.685512829921,0.382564460617));
#1149 = CARTESIAN_POINT('',(0.686111694942,0.39916446732));
#1150 = CARTESIAN_POINT('',(0.686262528818,0.40332552476));
#1151 = CARTESIAN_POINT('',(0.686414149873,0.407490399561));
#1152 = CARTESIAN_POINT('',(0.686566481461,0.411659032789));
#1153 = CARTESIAN_POINT('',(0.686719441127,0.415831349243));
#1154 = CARTESIAN_POINT('',(0.687013580112,0.423833313465));
#1155 = CARTESIAN_POINT('',(0.687154673085,0.427662384702));
#1156 = CARTESIAN_POINT('',(0.687296151742,0.431494400821));
#1157 = CARTESIAN_POINT('',(0.68743794565,0.43532928064));
#1158 = CARTESIAN_POINT('',(0.687579981742,0.43916693213));
#1159 = CARTESIAN_POINT('',(0.688029751073,0.451313395535));
#1160 = CARTESIAN_POINT('',(0.6883380972,0.459632019472));
#1161 = CARTESIAN_POINT('',(0.688646460707,0.467962095003));
#1162 = CARTESIAN_POINT('',(0.68895403739,0.476302345633));
#1163 = CARTESIAN_POINT('',(0.689260010311,0.484651286803));
#1164 = CARTESIAN_POINT('',(0.690241083106,0.51165609841));
#1165 = CARTESIAN_POINT('',(0.690906621182,0.530340217597));
#1166 = CARTESIAN_POINT('',(0.691551275361,0.549040801947));
#1167 = CARTESIAN_POINT('',(0.692166500925,0.567734735393));
#1168 = CARTESIAN_POINT('',(0.692745594478,0.586397707124));
#1169 = CARTESIAN_POINT('',(0.693803077739,0.622956706013));
#1170 = CARTESIAN_POINT('',(0.694284330851,0.640857061632));
#1171 = CARTESIAN_POINT('',(0.694723436467,0.658688084063));
#1172 = CARTESIAN_POINT('',(0.695118067824,0.676433689886));
#1173 = CARTESIAN_POINT('',(0.695467783399,0.694084506024));
#1174 = CARTESIAN_POINT('',(0.695773735885,0.711638308331));
#1175 = ( GEOMETRIC_REPRESENTATION_CONTEXT(2) 
PARAMETRIC_REPRESENTATION_CONTEXT() REPRESENTATION_CONTEXT('2D SPACE',''
  ) );
#1176 = PCURVE('',#674,#1177);
#1177 = DEFINITIONAL_REPRESENTATION('',(#1178),#1211);
#1178 = B_SPLINE_CURVE_WITH_KNOTS('',6,(#1179,#1180,#1181,#1182,#1183,
    #1184,#1185,#1186,#1187,#1188,#1189,#1190,#1191,#1192,#1193,#1194,
    #1195,#1196,#1197,#1198,#1199,#1200,#1201,#1202,#1203,#1204,#1205,
    #1206,#1207,#1208,#1209,#1210),.UNSPECIFIED.,.F.,.F.,(7,5,5,5,5,5,7)
  ,(0.,0.192117330425,0.256304577143,0.315114299324,0.442312536099,
    0.726192965894,1.),.UNSPECIFIED.);
#1179 = CARTESIAN_POINT('',(19.299444974906,0.));
#1180 = CARTESIAN_POINT('',(20.322411963343,-0.393550477067));
#1181 = CARTESIAN_POINT('',(21.346534563685,-0.784098302675));
#1182 = CARTESIAN_POINT('',(22.371731940953,-1.171814398773));
#1183 = CARTESIAN_POINT('',(23.3978321704,-1.55712755975));
#1184 = CARTESIAN_POINT('',(24.424592976192,-1.940669319977));
#1185 = CARTESIAN_POINT('',(25.794890960348,-2.451030295596));
#1186 = CARTESIAN_POINT('',(26.138100677785,-2.578730926162));
#1187 = CARTESIAN_POINT('',(26.481340720441,-2.706349898813));
#1188 = CARTESIAN_POINT('',(26.82459966442,-2.833917872729));
#1189 = CARTESIAN_POINT('',(27.16786556388,-2.961466980524));
#1190 = CARTESIAN_POINT('',(27.825628426788,-3.205907541726));
#1191 = CARTESIAN_POINT('',(28.140126296345,-3.322796529554));
#1192 = CARTESIAN_POINT('',(28.454609975549,-3.439723627936));
#1193 = CARTESIAN_POINT('',(28.769069628926,-3.556715264717));
#1194 = CARTESIAN_POINT('',(29.083495169684,-3.673798459366));
#1195 = CARTESIAN_POINT('',(30.077844109291,-4.044495201876));
#1196 = CARTESIAN_POINT('',(30.757603733476,-4.298546744215));
#1197 = CARTESIAN_POINT('',(31.43705163087,-4.553433578664));
#1198 = CARTESIAN_POINT('',(32.116078767628,-4.809441620176));
#1199 = CARTESIAN_POINT('',(32.794574968225,-5.066852897396));
#1200 = CARTESIAN_POINT('',(34.98527437394,-5.90414960518));
#1201 = CARTESIAN_POINT('',(36.494957294937,-6.490689804481));
#1202 = CARTESIAN_POINT('',(38.000256785714,-7.088497298565));
#1203 = CARTESIAN_POINT('',(39.500016950489,-7.7001379546));
#1204 = CARTESIAN_POINT('',(40.993450958131,-8.32705743493));
#1205 = CARTESIAN_POINT('',(43.914423448586,-9.588431726029));
#1206 = CARTESIAN_POINT('',(45.342468946782,-10.22185102492));
#1207 = CARTESIAN_POINT('',(46.764210202784,-10.86928527025));
#1208 = CARTESIAN_POINT('',(48.180088245723,-11.52936055002));
#1209 = CARTESIAN_POINT('',(49.59133947063,-12.19919457936));
#1210 = CARTESIAN_POINT('',(51.,-12.87438856243));
#1211 = ( GEOMETRIC_REPRESENTATION_CONTEXT(2) 
PARAMETRIC_REPRESENTATION_CONTEXT() REPRESENTATION_CONTEXT('2D SPACE',''
  ) );
#1212 = ADVANCED_FACE('',(#1213),#674,.T.);
#1213 = FACE_BOUND('',#1214,.T.);
#1214 = EDGE_LOOP('',(#1215,#1238,#1259,#1260,#1261,#1262));
#1215 = ORIENTED_EDGE('',*,*,#1216,.F.);
#1216 = EDGE_CURVE('',#1217,#1027,#1219,.T.);
#1217 = VERTEX_POINT('',#1218);
#1218 = CARTESIAN_POINT('',(-9.65,-42.,-69.));
#1219 = SURFACE_CURVE('',#1220,(#1224,#1231),.PCURVE_S1.);
#1220 = LINE('',#1221,#1222);
#1221 = CARTESIAN_POINT('',(-9.65,-42.,-69.));
#1222 = VECTOR('',#1223,1.);
#1223 = DIRECTION('',(0.,0.,1.));
#1224 = PCURVE('',#674,#1225);
#1225 = DEFINITIONAL_REPRESENTATION('',(#1226),#1230);
#1226 = LINE('',#1227,#1228);
#1227 = CARTESIAN_POINT('',(0.,0.));
#1228 = VECTOR('',#1229,1.);
#1229 = DIRECTION('',(1.,0.));
#1230 = ( GEOMETRIC_REPRESENTATION_CONTEXT(2) 
PARAMETRIC_REPRESENTATION_CONTEXT() REPRESENTATION_CONTEXT('2D SPACE',''
  ) );
#1231 = PCURVE('',#1076,#1232);
#1232 = DEFINITIONAL_REPRESENTATION('',(#1233),#1237);
#1233 = LINE('',#1234,#1235);
#1234 = CARTESIAN_POINT('',(0.,12.7));
#1235 = VECTOR('',#1236,1.);
#1236 = DIRECTION('',(1.,0.));
#1237 = ( GEOMETRIC_REPRESENTATION_CONTEXT(2) 
PARAMETRIC_REPRESENTATION_CONTEXT() REPRESENTATION_CONTEXT('2D SPACE',''
  ) );
#1238 = ORIENTED_EDGE('',*,*,#1239,.T.);
#1239 = EDGE_CURVE('',#1217,#781,#1240,.T.);
#1240 = SURFACE_CURVE('',#1241,(#1245,#1252),.PCURVE_S1.);
#1241 = LINE('',#1242,#1243);
#1242 = CARTESIAN_POINT('',(-9.65,-42.,-69.));
#1243 = VECTOR('',#1244,1.);
#1244 = DIRECTION('',(0.,1.,0.));
#1245 = PCURVE('',#674,#1246);
#1246 = DEFINITIONAL_REPRESENTATION('',(#1247),#1251);
#1247 = LINE('',#1248,#1249);
#1248 = CARTESIAN_POINT('',(0.,0.));
#1249 = VECTOR('',#1250,1.);
#1250 = DIRECTION('',(0.,-1.));
#1251 = ( GEOMETRIC_REPRESENTATION_CONTEXT(2) 
PARAMETRIC_REPRESENTATION_CONTEXT() REPRESENTATION_CONTEXT('2D SPACE',''
  ) );
#1252 = PCURVE('',#973,#1253);
#1253 = DEFINITIONAL_REPRESENTATION('',(#1254),#1258);
#1254 = LINE('',#1255,#1256);
#1255 = CARTESIAN_POINT('',(12.7,0.));
#1256 = VECTOR('',#1257,1.);
#1257 = DIRECTION('',(0.,1.));
#1258 = ( GEOMETRIC_REPRESENTATION_CONTEXT(2) 
PARAMETRIC_REPRESENTATION_CONTEXT() REPRESENTATION_CONTEXT('2D SPACE',''
  ) );
#1259 = ORIENTED_EDGE('',*,*,#780,.T.);
#1260 = ORIENTED_EDGE('',*,*,#710,.T.);
#1261 = ORIENTED_EDGE('',*,*,#658,.F.);
#1262 = ORIENTED_EDGE('',*,*,#1105,.F.);
#1263 = ADVANCED_FACE('',(#1264),#1076,.F.);
#1264 = FACE_BOUND('',#1265,.F.);
#1265 = EDGE_LOOP('',(#1266,#1287,#1288));
#1266 = ORIENTED_EDGE('',*,*,#1267,.F.);
#1267 = EDGE_CURVE('',#876,#1217,#1268,.T.);
#1268 = SURFACE_CURVE('',#1269,(#1273,#1280),.PCURVE_S1.);
#1269 = LINE('',#1270,#1271);
#1270 = CARTESIAN_POINT('',(-22.35,-42.,-69.));
#1271 = VECTOR('',#1272,1.);
#1272 = DIRECTION('',(1.,0.,0.));
#1273 = PCURVE('',#1076,#1274);
#1274 = DEFINITIONAL_REPRESENTATION('',(#1275),#1279);
#1275 = LINE('',#1276,#1277);
#1276 = CARTESIAN_POINT('',(0.,0.));
#1277 = VECTOR('',#1278,1.);
#1278 = DIRECTION('',(0.,1.));
#1279 = ( GEOMETRIC_REPRESENTATION_CONTEXT(2) 
PARAMETRIC_REPRESENTATION_CONTEXT() REPRESENTATION_CONTEXT('2D SPACE',''
  ) );
#1280 = PCURVE('',#973,#1281);
#1281 = DEFINITIONAL_REPRESENTATION('',(#1282),#1286);
#1282 = LINE('',#1283,#1284);
#1283 = CARTESIAN_POINT('',(0.,0.));
#1284 = VECTOR('',#1285,1.);
#1285 = DIRECTION('',(1.,0.));
#1286 = ( GEOMETRIC_REPRESENTATION_CONTEXT(2) 
PARAMETRIC_REPRESENTATION_CONTEXT() REPRESENTATION_CONTEXT('2D SPACE',''
  ) );
#1287 = ORIENTED_EDGE('',*,*,#1026,.T.);
#1288 = ORIENTED_EDGE('',*,*,#1216,.F.);
#1289 = ADVANCED_FACE('',(#1290),#973,.F.);
#1290 = FACE_BOUND('',#1291,.F.);
#1291 = EDGE_LOOP('',(#1292,#1293,#1294));
#1292 = ORIENTED_EDGE('',*,*,#875,.F.);
#1293 = ORIENTED_EDGE('',*,*,#1267,.T.);
#1294 = ORIENTED_EDGE('',*,*,#1239,.T.);
#1295 = ( GEOMETRIC_REPRESENTATION_CONTEXT(3) 
GLOBAL_UNCERTAINTY_ASSIGNED_CONTEXT((#1299)) 
GLOBAL_UNIT_ASSIGNED_CONTEXT((#1296,#1297,#1298)) REPRESENTATION_CONTEXT
('Context #1','3D Context with UNIT and UNCERTAINTY') );
#1296 = ( LENGTH_UNIT() NAMED_UNIT(*) SI_UNIT(.MILLI.,.METRE.) );
#1297 = ( NAMED_UNIT(*) PLANE_ANGLE_UNIT() SI_UNIT($,.RADIAN.) );
#1298 = ( NAMED_UNIT(*) SI_UNIT($,.STERADIAN.) SOLID_ANGLE_UNIT() );
#1299 = UNCERTAINTY_MEASURE_WITH_UNIT(LENGTH_MEASURE(5.E-06),#1296,
  'distance_accuracy_value','confusion accuracy');
#1300 = PRODUCT_RELATED_PRODUCT_CATEGORY('part',$,(#7));
ENDSEC;
END-ISO-10303-21;
