ISO-10303-21;
HEADER;
FILE_DESCRIPTION(('Open CASCADE Model'),'2;1');
FILE_NAME('Open CASCADE Shape Model','2026-09-09T16:23:47',('Author'),(
    'Open CASCADE'),'Open CASCADE STEP processor 7.9','Open CASCADE 7.9'
  ,'Unknown');
FILE_SCHEMA(('AUTOMOTIVE_DESIGN { 1 0 10303 214 1 1 1 1 }'));
ENDSEC;
DATA;
#1 = APPLICATION_PROTOCOL_DEFINITION('international standard',
  'automotive_design',2000,#2);
#2 = APPLICATION_CONTEXT(
  'core data for automotive mechanical design processes');
#3 = SHAPE_DEFINITION_REPRESENTATION(#4,#10);
#4 = PRODUCT_DEFINITION_SHAPE('','',#5);
#5 = PRODUCT_DEFINITION('design','',#6,#9);
#6 = PRODUCT_DEFINITION_FORMATION('','',#7);
#7 = PRODUCT('Open CASCADE STEP translator 7.9 7',
  'Open CASCADE STEP translator 7.9 7','',(#8));
#8 = PRODUCT_CONTEXT('',#2,'mechanical');
#9 = PRODUCT_DEFINITION_CONTEXT('part definition',#2,'design');
#10 = ADVANCED_BREP_SHAPE_REPRESENTATION('',(#11,#15),#1306);
#11 = AXIS2_PLACEMENT_3D('',#12,#13,#14);
#12 = CARTESIAN_POINT('',(0.,0.,0.));
#13 = DIRECTION('',(0.,0.,1.));
#14 = DIRECTION('',(1.,0.,-0.));
#15 = MANIFOLD_SOLID_BREP('',#16);
#16 = CLOSED_SHELL('',(#17,#433,#579,#688,#1173,#1218,#1300));
#17 = ADVANCED_FACE('',(#18),#32,.F.);
#18 = FACE_BOUND('',#19,.F.);
#19 = EDGE_LOOP('',(#20,#55,#83,#269,#297,#325));
#20 = ORIENTED_EDGE('',*,*,#21,.F.);
#21 = EDGE_CURVE('',#22,#24,#26,.T.);
#22 = VERTEX_POINT('',#23);
#23 = CARTESIAN_POINT('',(9.65,-42.,-69.));
#24 = VERTEX_POINT('',#25);
#25 = CARTESIAN_POINT('',(9.65,-42.,-49.70055501197));
#26 = SURFACE_CURVE('',#27,(#31,#43),.PCURVE_S1.);
#27 = LINE('',#28,#29);
#28 = CARTESIAN_POINT('',(9.65,-42.,-69.));
#29 = VECTOR('',#30,1.);
#30 = DIRECTION('',(0.,0.,1.));
#31 = PCURVE('',#32,#37);
#32 = PLANE('',#33);
#33 = AXIS2_PLACEMENT_3D('',#34,#35,#36);
#34 = CARTESIAN_POINT('',(9.65,-42.,-69.));
#35 = DIRECTION('',(1.,0.,0.));
#36 = DIRECTION('',(0.,0.,1.));
#37 = DEFINITIONAL_REPRESENTATION('',(#38),#42);
#38 = LINE('',#39,#40);
#39 = CARTESIAN_POINT('',(0.,0.));
#40 = VECTOR('',#41,1.);
#41 = DIRECTION('',(1.,0.));
#42 = ( GEOMETRIC_REPRESENTATION_CONTEXT(2) 
PARAMETRIC_REPRESENTATION_CONTEXT() REPRESENTATION_CONTEXT('2D SPACE',''
  ) );
#43 = PCURVE('',#44,#49);
#44 = PLANE('',#45);
#45 = AXIS2_PLACEMENT_3D('',#46,#47,#48);
#46 = CARTESIAN_POINT('',(9.65,-42.,-69.));
#47 = DIRECTION('',(0.,1.,0.));
#48 = DIRECTION('',(0.,0.,1.));
#49 = DEFINITIONAL_REPRESENTATION('',(#50),#54);
#50 = LINE('',#51,#52);
#51 = CARTESIAN_POINT('',(0.,0.));
#52 = VECTOR('',#53,1.);
#53 = DIRECTION('',(1.,0.));
#54 = ( GEOMETRIC_REPRESENTATION_CONTEXT(2) 
PARAMETRIC_REPRESENTATION_CONTEXT() REPRESENTATION_CONTEXT('2D SPACE',''
  ) );
#55 = ORIENTED_EDGE('',*,*,#56,.T.);
#56 = EDGE_CURVE('',#22,#57,#59,.T.);
#57 = VERTEX_POINT('',#58);
#58 = CARTESIAN_POINT('',(9.65,-22.48310535413,-69.));
#59 = SURFACE_CURVE('',#60,(#64,#71),.PCURVE_S1.);
#60 = LINE('',#61,#62);
#61 = CARTESIAN_POINT('',(9.65,-42.,-69.));
#62 = VECTOR('',#63,1.);
#63 = DIRECTION('',(0.,1.,0.));
#64 = PCURVE('',#32,#65);
#65 = DEFINITIONAL_REPRESENTATION('',(#66),#70);
#66 = LINE('',#67,#68);
#67 = CARTESIAN_POINT('',(0.,0.));
#68 = VECTOR('',#69,1.);
#69 = DIRECTION('',(0.,-1.));
#70 = ( GEOMETRIC_REPRESENTATION_CONTEXT(2) 
PARAMETRIC_REPRESENTATION_CONTEXT() REPRESENTATION_CONTEXT('2D SPACE',''
  ) );
#71 = PCURVE('',#72,#77);
#72 = PLANE('',#73);
#73 = AXIS2_PLACEMENT_3D('',#74,#75,#76);
#74 = CARTESIAN_POINT('',(9.65,-42.,-69.));
#75 = DIRECTION('',(0.,0.,1.));
#76 = DIRECTION('',(1.,0.,0.));
#77 = DEFINITIONAL_REPRESENTATION('',(#78),#82);
#78 = LINE('',#79,#80);
#79 = CARTESIAN_POINT('',(0.,0.));
#80 = VECTOR('',#81,1.);
#81 = DIRECTION('',(0.,1.));
#82 = ( GEOMETRIC_REPRESENTATION_CONTEXT(2) 
PARAMETRIC_REPRESENTATION_CONTEXT() REPRESENTATION_CONTEXT('2D SPACE',''
  ) );
#83 = ORIENTED_EDGE('',*,*,#84,.T.);
#84 = EDGE_CURVE('',#57,#85,#87,.T.);
#85 = VERTEX_POINT('',#86);
#86 = CARTESIAN_POINT('',(9.65,-6.,-41.65716172852));
#87 = SURFACE_CURVE('',#88,(#116,#147),.PCURVE_S1.);
#88 = B_SPLINE_CURVE_WITH_KNOTS('',6,(#89,#90,#91,#92,#93,#94,#95,#96,
    #97,#98,#99,#100,#101,#102,#103,#104,#105,#106,#107,#108,#109,#110,
    #111,#112,#113,#114,#115),.UNSPECIFIED.,.F.,.F.,(7,5,5,5,5,7),(0.,
    0.312823111915,0.442881484185,0.52750473076,0.648422689144,1.),
  .UNSPECIFIED.);
#89 = CARTESIAN_POINT('',(9.65,-22.48310535413,-69.));
#90 = CARTESIAN_POINT('',(9.65,-21.54232376098,-67.6263942157));
#91 = CARTESIAN_POINT('',(9.65,-20.62981145478,-66.23352789562));
#92 = CARTESIAN_POINT('',(9.65,-19.74079577341,-64.8255210056));
#93 = CARTESIAN_POINT('',(9.65,-18.87046909717,-63.4060644027));
#94 = CARTESIAN_POINT('',(9.65,-18.01419343854,-61.9782940094));
#95 = CARTESIAN_POINT('',(9.65,-16.81568214556,-59.94867464361));
#96 = CARTESIAN_POINT('',(9.65,-16.46540987731,-59.35165270783));
#97 = CARTESIAN_POINT('',(9.65,-16.11651800179,-58.75382286947));
#98 = CARTESIAN_POINT('',(9.65,-15.76871405139,-58.15536089158));
#99 = CARTESIAN_POINT('',(9.65,-15.42172011548,-57.55643051894));
#100 = CARTESIAN_POINT('',(9.65,-14.84985487862,-56.56727985848));
#101 = CARTESIAN_POINT('',(9.65,-14.62466858355,-56.1772423609));
#102 = CARTESIAN_POINT('',(9.65,-14.39964163733,-55.78711290796));
#103 = CARTESIAN_POINT('',(9.65,-14.17470480398,-55.39693153714));
#104 = CARTESIAN_POINT('',(9.65,-13.94979192941,-55.00673640068));
#105 = CARTESIAN_POINT('',(9.65,-13.40340657386,-54.05904700331));
#106 = CARTESIAN_POINT('',(9.65,-13.0818935326,-53.50157633814));
#107 = CARTESIAN_POINT('',(9.65,-12.76011674884,-52.94425753629));
#108 = CARTESIAN_POINT('',(9.65,-12.43790606145,-52.38718914589));
#109 = CARTESIAN_POINT('',(9.65,-12.11510521696,-51.83046249704));
#110 = CARTESIAN_POINT('',(9.65,-10.85087632898,-49.65667873875));
#111 = CARTESIAN_POINT('',(9.65,-9.903983726719,-48.04278712841));
#112 = CARTESIAN_POINT('',(9.65,-8.947409284849,-46.4345747164));
#113 = CARTESIAN_POINT('',(9.65,-7.978684179823,-44.83361448151));
#114 = CARTESIAN_POINT('',(9.65,-6.996365129003,-43.24095916224));
#115 = CARTESIAN_POINT('',(9.65,-6.,-41.65716172852));
#116 = PCURVE('',#32,#117);
#117 = DEFINITIONAL_REPRESENTATION('',(#118),#146);
#118 = B_SPLINE_CURVE_WITH_KNOTS('',6,(#119,#120,#121,#122,#123,#124,
    #125,#126,#127,#128,#129,#130,#131,#132,#133,#134,#135,#136,#137,
    #138,#139,#140,#141,#142,#143,#144,#145),.UNSPECIFIED.,.F.,.F.,(7,5,
    5,5,5,7),(0.,0.312823111915,0.442881484185,0.52750473076,
    0.648422689144,1.),.UNSPECIFIED.);
#119 = CARTESIAN_POINT('',(0.,-19.51689464586));
#120 = CARTESIAN_POINT('',(1.373605784297,-20.45767623901));
#121 = CARTESIAN_POINT('',(2.766472104374,-21.37018854521));
#122 = CARTESIAN_POINT('',(4.174478994391,-22.25920422658));
#123 = CARTESIAN_POINT('',(5.593935597295,-23.12953090282));
#124 = CARTESIAN_POINT('',(7.021705990599,-23.98580656145));
#125 = CARTESIAN_POINT('',(9.051325356387,-25.18431785443));
#126 = CARTESIAN_POINT('',(9.648347292167,-25.53459012268));
#127 = CARTESIAN_POINT('',(10.246177130527,-25.8834819982));
#128 = CARTESIAN_POINT('',(10.844639108416,-26.2312859486));
#129 = CARTESIAN_POINT('',(11.443569481059,-26.57827988451));
#130 = CARTESIAN_POINT('',(12.432720141516,-27.15014512137));
#131 = CARTESIAN_POINT('',(12.822757639097,-27.37533141644));
#132 = CARTESIAN_POINT('',(13.212887092032,-27.60035836266));
#133 = CARTESIAN_POINT('',(13.603068462858,-27.82529519601));
#134 = CARTESIAN_POINT('',(13.993263599319,-28.05020807058));
#135 = CARTESIAN_POINT('',(14.940952996686,-28.59659342613));
#136 = CARTESIAN_POINT('',(15.498423661852,-28.91810646739));
#137 = CARTESIAN_POINT('',(16.055742463702,-29.23988325115));
#138 = CARTESIAN_POINT('',(16.612810854103,-29.56209393854));
#139 = CARTESIAN_POINT('',(17.169537502954,-29.88489478303));
#140 = CARTESIAN_POINT('',(19.343321261245,-31.14912367101));
#141 = CARTESIAN_POINT('',(20.957212871587,-32.09601627328));
#142 = CARTESIAN_POINT('',(22.565425283594,-33.05259071515));
#143 = CARTESIAN_POINT('',(24.16638551849,-34.02131582017));
#144 = CARTESIAN_POINT('',(25.759040837751,-35.00363487099));
#145 = CARTESIAN_POINT('',(27.342838271473,-36.));
#146 = ( GEOMETRIC_REPRESENTATION_CONTEXT(2) 
PARAMETRIC_REPRESENTATION_CONTEXT() REPRESENTATION_CONTEXT('2D SPACE',''
  ) );
#147 = PCURVE('',#148,#239);
#148 = ( BOUNDED_SURFACE() B_SPLINE_SURFACE(14,5,(
    (#149,#150,#151,#152,#153,#154)
    ,(#155,#156,#157,#158,#159,#160)
    ,(#161,#162,#163,#164,#165,#166)
    ,(#167,#168,#169,#170,#171,#172)
    ,(#173,#174,#175,#176,#177,#178)
    ,(#179,#180,#181,#182,#183,#184)
    ,(#185,#186,#187,#188,#189,#190)
    ,(#191,#192,#193,#194,#195,#196)
    ,(#197,#198,#199,#200,#201,#202)
    ,(#203,#204,#205,#206,#207,#208)
    ,(#209,#210,#211,#212,#213,#214)
    ,(#215,#216,#217,#218,#219,#220)
    ,(#221,#222,#223,#224,#225,#226)
    ,(#227,#228,#229,#230,#231,#232)
    ,(#233,#234,#235,#236,#237,#238
)),.UNSPECIFIED.,.T.,.F.,.F.) B_SPLINE_SURFACE_WITH_KNOTS((1,14,14,1),(6
    ,6),(-1.,0.,1.,2.),(0.,1.),.UNSPECIFIED.) 
GEOMETRIC_REPRESENTATION_ITEM() RATIONAL_B_SPLINE_SURFACE((
    (1.,1.,1.,1.,1.,1.)
    ,(1.,1.,1.,1.,1.,1.)
    ,(1.,1.,1.,1.,1.,1.)
    ,(1.,1.,1.,1.,1.,1.)
    ,(1.,1.,1.,1.,1.,1.)
    ,(1.,1.,1.,1.,1.,1.)
    ,(1.,1.,1.,1.,1.,1.)
    ,(1.,1.,1.,1.,1.,1.)
    ,(1.,1.,1.,1.,1.,1.)
    ,(1.,1.,1.,1.,1.,1.)
    ,(1.,1.,1.,1.,1.,1.)
    ,(1.,1.,1.,1.,1.,1.)
    ,(1.,1.,1.,1.,1.,1.)
    ,(1.,1.,1.,1.,1.,1.)
,(1.,1.,1.,1.,1.,1.))) REPRESENTATION_ITEM('') SURFACE() );
#149 = CARTESIAN_POINT('',(19.,-39.5,-76.));
#150 = CARTESIAN_POINT('',(26.123044569638,-31.99413370891,
    -60.56609949556));
#151 = CARTESIAN_POINT('',(18.446256865827,-20.970921322,-42.36281686344
    ));
#152 = CARTESIAN_POINT('',(32.849170364805,-19.98045879275,
    -25.95429108986));
#153 = CARTESIAN_POINT('',(28.769192019074,-0.104288645744,
    -12.74783882291));
#154 = CARTESIAN_POINT('',(30.,2.606519132579E-15,7.));
#155 = CARTESIAN_POINT('',(19.000000000005,-33.44121416807,-76.));
#156 = CARTESIAN_POINT('',(26.123044569632,-23.559953842,-60.56609949556
    ));
#157 = CARTESIAN_POINT('',(18.446256865842,-14.9258404115,
    -42.36281686344));
#158 = CARTESIAN_POINT('',(32.849170364797,-9.726407995956,
    -25.95429108986));
#159 = CARTESIAN_POINT('',(28.769192019074,9.484455769287,
    -12.74783882291));
#160 = CARTESIAN_POINT('',(30.000000000004,9.873576911289,7.));
#161 = CARTESIAN_POINT('',(14.878627137192,-27.38242609971,-76.));
#162 = CARTESIAN_POINT('',(20.456581044264,-15.12577086188,
    -60.56609949556));
#163 = CARTESIAN_POINT('',(14.444998841191,-8.880757269646,
    -42.36281686344));
#164 = CARTESIAN_POINT('',(25.723713559232,0.527646585869,
    -25.95429108986));
#165 = CARTESIAN_POINT('',(22.528741110033,19.073203723689,
    -12.74783882291));
#166 = CARTESIAN_POINT('',(23.492569164001,19.747157467127,7.));
#167 = CARTESIAN_POINT('',(6.63587614289,-22.85693882126,-76.));
#168 = CARTESIAN_POINT('',(9.123646749275,-8.826031153147,
    -60.56609949556));
#169 = CARTESIAN_POINT('',(6.442477677037,-4.365506604458,
    -42.36281686344));
#170 = CARTESIAN_POINT('',(11.472790838629,8.186702000639,
    -25.95429108986));
#171 = CARTESIAN_POINT('',(10.047831314101,26.235322021146,
    -12.74783882291));
#172 = CARTESIAN_POINT('',(10.477699172943,27.122025624609,7.));
#173 = CARTESIAN_POINT('',(-4.49560168009,-21.39788245634,-76.));
#174 = CARTESIAN_POINT('',(-6.180989634211,-6.794940410138,
    -60.56609949556));
#175 = CARTESIAN_POINT('',(-4.364580176906,-2.909750612558,
    -42.36281686344));
#176 = CARTESIAN_POINT('',(-7.772462393418,10.656047922045,
    -25.95429108986));
#177 = CARTESIAN_POINT('',(-6.807096209055,28.544451103577,
    -12.74783882291));
#178 = CARTESIAN_POINT('',(-7.098318442164,29.499747108174,7.));
#179 = CARTESIAN_POINT('',(-16.05073754757,-23.98881237636,-76.));
#180 = CARTESIAN_POINT('',(-22.06811222847,-10.40166452504,
    -60.56609949556));
#181 = CARTESIAN_POINT('',(-15.58294882544,-5.494819871234,
    -42.36281686344));
#182 = CARTESIAN_POINT('',(-27.75017958895,6.27108899616,-25.95429108986
    ));
#183 = CARTESIAN_POINT('',(-24.30351318741,24.443998391336,
    -12.74783882291));
#184 = CARTESIAN_POINT('',(-25.34326981209,25.277490942222,7.));
#185 = CARTESIAN_POINT('',(-24.87179233162,-30.51054918893,-76.));
#186 = CARTESIAN_POINT('',(-34.19615471539,-19.48029889978,
    -60.56609949556));
#187 = CARTESIAN_POINT('',(-24.14691947723,-12.00180457149,
    -42.36281686344));
#188 = CARTESIAN_POINT('',(-43.00093387213,-4.766472391532,
    -25.95429108986));
#189 = CARTESIAN_POINT('',(-37.66007207561,14.122579351813,
    -12.74783882291));
#190 = CARTESIAN_POINT('',(-39.27125104975,14.649475395817,7.));
#191 = CARTESIAN_POINT('',(-28.1927434388,-39.49999999981,-76.));
#192 = CARTESIAN_POINT('',(-38.76212070561,-31.99413370856,
    -60.56609949556));
#193 = CARTESIAN_POINT('',(-27.37108353795,-20.97092132161,
    -42.36281686344));
#194 = CARTESIAN_POINT('',(-48.74253854099,-19.980458793,-25.95429108986
    ));
#195 = CARTESIAN_POINT('',(-42.68854997622,-0.104288644992,
    -12.74783882291));
#196 = CARTESIAN_POINT('',(-44.51485806145,2.913297794736E-10,7.));
#197 = CARTESIAN_POINT('',(-24.87179233162,-48.4894508114,-76.));
#198 = CARTESIAN_POINT('',(-34.19615471541,-44.50796851866,
    -60.56609949556));
#199 = CARTESIAN_POINT('',(-24.14691947705,-29.94003807322,
    -42.36281686344));
#200 = CARTESIAN_POINT('',(-43.00093387246,-35.19444519352,
    -25.95429108986));
#201 = CARTESIAN_POINT('',(-37.66007207547,-14.33115664466,
    -12.74783882291));
#202 = CARTESIAN_POINT('',(-39.27125104976,-14.64947539635,7.));
#203 = CARTESIAN_POINT('',(-16.05073754757,-55.01118762338,-76.));
#204 = CARTESIAN_POINT('',(-22.06811222844,-53.58660289229,
    -60.56609949556));
#205 = CARTESIAN_POINT('',(-15.58294882572,-36.44702277223,
    -42.36281686344));
#206 = CARTESIAN_POINT('',(-27.75017958847,-46.23200658198,
    -25.95429108986));
#207 = CARTESIAN_POINT('',(-24.30351318761,-24.65257568179,
    -12.74783882291));
#208 = CARTESIAN_POINT('',(-25.34326981208,-25.27749094181,7.));
#209 = CARTESIAN_POINT('',(-4.495601680088,-57.60211754381,-76.));
#210 = CARTESIAN_POINT('',(-6.180989634247,-57.19332700798,
    -60.56609949556));
#211 = CARTESIAN_POINT('',(-4.364580176666,-39.03209203177,
    -42.36281686344));
#212 = CARTESIAN_POINT('',(-7.772462393832,-50.61696550737,
    -25.95429108986));
#213 = CARTESIAN_POINT('',(-6.807096208891,-28.75302839569,
    -12.74783882291));
#214 = CARTESIAN_POINT('',(-7.098318442175,-29.49974710843,7.));
#215 = CARTESIAN_POINT('',(6.635876142889,-56.14306117865,-76.));
#216 = CARTESIAN_POINT('',(9.123646749297,-55.16223626452,
    -60.56609949556));
#217 = CARTESIAN_POINT('',(6.442477676893,-37.57633603939,
    -42.36281686344));
#218 = CARTESIAN_POINT('',(11.472790838871,-48.14761958621,
    -25.95429108986));
#219 = CARTESIAN_POINT('',(10.047831314009,-26.44389931232,
    -12.74783882291));
#220 = CARTESIAN_POINT('',(10.47769917295,-27.12202562447,7.));
#221 = CARTESIAN_POINT('',(14.878627137192,-51.61757390031,-76.));
#222 = CARTESIAN_POINT('',(20.456581044254,-48.86249655599,
    -60.56609949556));
#223 = CARTESIAN_POINT('',(14.444998841251,-33.06108537441,
    -42.36281686344));
#224 = CARTESIAN_POINT('',(25.723713559135,-40.48856417135,
    -25.95429108986));
#225 = CARTESIAN_POINT('',(22.528741110068,-19.28178101528,
    -12.74783882291));
#226 = CARTESIAN_POINT('',(23.492569163999,-19.74715746717,7.));
#227 = CARTESIAN_POINT('',(19.000000000005,-45.55878583192,-76.));
#228 = CARTESIAN_POINT('',(26.123044569634,-40.4283135758,
    -60.56609949556));
#229 = CARTESIAN_POINT('',(18.446256865828,-27.01600223248,
    -42.36281686344));
#230 = CARTESIAN_POINT('',(32.849170364819,-30.23450958955,
    -25.95429108986));
#231 = CARTESIAN_POINT('',(28.769192019067,-9.69303306075,
    -12.74783882291));
#232 = CARTESIAN_POINT('',(30.000000000005,-9.873576911278,7.));
#233 = CARTESIAN_POINT('',(19.,-39.5,-76.));
#234 = CARTESIAN_POINT('',(26.123044569638,-31.99413370891,
    -60.56609949556));
#235 = CARTESIAN_POINT('',(18.446256865827,-20.970921322,-42.36281686344
    ));
#236 = CARTESIAN_POINT('',(32.849170364805,-19.98045879275,
    -25.95429108986));
#237 = CARTESIAN_POINT('',(28.769192019074,-0.104288645744,
    -12.74783882291));
#238 = CARTESIAN_POINT('',(30.,2.606519132579E-15,7.));
#239 = DEFINITIONAL_REPRESENTATION('',(#240),#268);
#240 = B_SPLINE_CURVE_WITH_KNOTS('',6,(#241,#242,#243,#244,#245,#246,
    #247,#248,#249,#250,#251,#252,#253,#254,#255,#256,#257,#258,#259,
    #260,#261,#262,#263,#264,#265,#266,#267),.UNSPECIFIED.,.F.,.F.,(7,5,
    5,5,5,7),(0.,0.312823111915,0.442881484185,0.52750473076,
    0.648422689144,1.),.UNSPECIFIED.);
#241 = CARTESIAN_POINT('',(1.174870668606,8.830527298961E-02));
#242 = CARTESIAN_POINT('',(1.175979220657,0.105255266855));
#243 = CARTESIAN_POINT('',(1.176875150215,0.122303422166));
#244 = CARTESIAN_POINT('',(1.177628284311,0.139421471076));
#245 = CARTESIAN_POINT('',(1.17828395606,0.156587730759));
#246 = CARTESIAN_POINT('',(1.178876917272,0.173786297034));
#247 = CARTESIAN_POINT('',(1.179662870758,0.198167100867));
#248 = CARTESIAN_POINT('',(1.179887147007,0.205330619496));
#249 = CARTESIAN_POINT('',(1.180106671281,0.212497084418));
#250 = CARTESIAN_POINT('',(1.180322978865,0.219665774529));
#251 = CARTESIAN_POINT('',(1.180537362272,0.226836054248));
#252 = CARTESIAN_POINT('',(1.180889792109,0.238673434677));
#253 = CARTESIAN_POINT('',(1.181028345821,0.243339932947));
#254 = CARTESIAN_POINT('',(1.18116682462,0.248006714419));
#255 = CARTESIAN_POINT('',(1.181305485157,0.252673635344));
#256 = CARTESIAN_POINT('',(1.181444548493,0.257340562132));
#257 = CARTESIAN_POINT('',(1.181783747937,0.268675764082));
#258 = CARTESIAN_POINT('',(1.181984501161,0.275343914122));
#259 = CARTESIAN_POINT('',(1.182186996185,0.282011462452));
#260 = CARTESIAN_POINT('',(1.182391648501,0.288678079433));
#261 = CARTESIAN_POINT('',(1.182598752675,0.295343464799));
#262 = CARTESIAN_POINT('',(1.183418285837,0.321383047084));
#263 = CARTESIAN_POINT('',(1.184050313193,0.340746145066));
#264 = CARTESIAN_POINT('',(1.184709075761,0.360089705852));
#265 = CARTESIAN_POINT('',(1.185391511519,0.379408695345));
#266 = CARTESIAN_POINT('',(1.186090544656,0.39869964272));
#267 = CARTESIAN_POINT('',(1.186797740819,0.417960332199));
#268 = ( GEOMETRIC_REPRESENTATION_CONTEXT(2) 
PARAMETRIC_REPRESENTATION_CONTEXT() REPRESENTATION_CONTEXT('2D SPACE',''
  ) );
#269 = ORIENTED_EDGE('',*,*,#270,.T.);
#270 = EDGE_CURVE('',#85,#271,#273,.T.);
#271 = VERTEX_POINT('',#272);
#272 = CARTESIAN_POINT('',(9.65,-6.,-18.));
#273 = SURFACE_CURVE('',#274,(#278,#285),.PCURVE_S1.);
#274 = LINE('',#275,#276);
#275 = CARTESIAN_POINT('',(9.65,-6.,-69.));
#276 = VECTOR('',#277,1.);
#277 = DIRECTION('',(0.,0.,1.));
#278 = PCURVE('',#32,#279);
#279 = DEFINITIONAL_REPRESENTATION('',(#280),#284);
#280 = LINE('',#281,#282);
#281 = CARTESIAN_POINT('',(0.,-36.));
#282 = VECTOR('',#283,1.);
#283 = DIRECTION('',(1.,0.));
#284 = ( GEOMETRIC_REPRESENTATION_CONTEXT(2) 
PARAMETRIC_REPRESENTATION_CONTEXT() REPRESENTATION_CONTEXT('2D SPACE',''
  ) );
#285 = PCURVE('',#286,#291);
#286 = PLANE('',#287);
#287 = AXIS2_PLACEMENT_3D('',#288,#289,#290);
#288 = CARTESIAN_POINT('',(9.65,-6.,-69.));
#289 = DIRECTION('',(0.,1.,0.));
#290 = DIRECTION('',(0.,0.,1.));
#291 = DEFINITIONAL_REPRESENTATION('',(#292),#296);
#292 = LINE('',#293,#294);
#293 = CARTESIAN_POINT('',(0.,0.));
#294 = VECTOR('',#295,1.);
#295 = DIRECTION('',(1.,0.));
#296 = ( GEOMETRIC_REPRESENTATION_CONTEXT(2) 
PARAMETRIC_REPRESENTATION_CONTEXT() REPRESENTATION_CONTEXT('2D SPACE',''
  ) );
#297 = ORIENTED_EDGE('',*,*,#298,.F.);
#298 = EDGE_CURVE('',#299,#271,#301,.T.);
#299 = VERTEX_POINT('',#300);
#300 = CARTESIAN_POINT('',(9.65,-29.12561144066,-18.));
#301 = SURFACE_CURVE('',#302,(#306,#313),.PCURVE_S1.);
#302 = LINE('',#303,#304);
#303 = CARTESIAN_POINT('',(9.65,-42.,-18.));
#304 = VECTOR('',#305,1.);
#305 = DIRECTION('',(0.,1.,0.));
#306 = PCURVE('',#32,#307);
#307 = DEFINITIONAL_REPRESENTATION('',(#308),#312);
#308 = LINE('',#309,#310);
#309 = CARTESIAN_POINT('',(51.,0.));
#310 = VECTOR('',#311,1.);
#311 = DIRECTION('',(0.,-1.));
#312 = ( GEOMETRIC_REPRESENTATION_CONTEXT(2) 
PARAMETRIC_REPRESENTATION_CONTEXT() REPRESENTATION_CONTEXT('2D SPACE',''
  ) );
#313 = PCURVE('',#314,#319);
#314 = PLANE('',#315);
#315 = AXIS2_PLACEMENT_3D('',#316,#317,#318);
#316 = CARTESIAN_POINT('',(9.65,-42.,-18.));
#317 = DIRECTION('',(0.,0.,1.));
#318 = DIRECTION('',(1.,0.,0.));
#319 = DEFINITIONAL_REPRESENTATION('',(#320),#324);
#320 = LINE('',#321,#322);
#321 = CARTESIAN_POINT('',(0.,0.));
#322 = VECTOR('',#323,1.);
#323 = DIRECTION('',(0.,1.));
#324 = ( GEOMETRIC_REPRESENTATION_CONTEXT(2) 
PARAMETRIC_REPRESENTATION_CONTEXT() REPRESENTATION_CONTEXT('2D SPACE',''
  ) );
#325 = ORIENTED_EDGE('',*,*,#326,.F.);
#326 = EDGE_CURVE('',#24,#299,#327,.T.);
#327 = SURFACE_CURVE('',#328,(#361,#397),.PCURVE_S1.);
#328 = B_SPLINE_CURVE_WITH_KNOTS('',6,(#329,#330,#331,#332,#333,#334,
    #335,#336,#337,#338,#339,#340,#341,#342,#343,#344,#345,#346,#347,
    #348,#349,#350,#351,#352,#353,#354,#355,#356,#357,#358,#359,#360),
  .UNSPECIFIED.,.F.,.F.,(7,5,5,5,5,5,7),(0.,0.192117330092,
    0.256304576836,0.315114299042,0.442312535869,0.726192965781,1.),
  .UNSPECIFIED.);
#329 = CARTESIAN_POINT('',(9.65,-42.,-49.70055501197));
#330 = CARTESIAN_POINT('',(9.65,-41.60644952376,-48.6775880257));
#331 = CARTESIAN_POINT('',(9.65,-41.21590169896,-47.65346542754));
#332 = CARTESIAN_POINT('',(9.65,-40.82818560366,-46.62826805246));
#333 = CARTESIAN_POINT('',(9.65,-40.44287244346,-45.6021678252));
#334 = CARTESIAN_POINT('',(9.65,-40.059330684,-44.57540702161));
#335 = CARTESIAN_POINT('',(9.65,-39.54896970912,-43.20510903965));
#336 = CARTESIAN_POINT('',(9.65,-39.42126907854,-42.86189932221));
#337 = CARTESIAN_POINT('',(9.65,-39.29365010587,-42.51865927955));
#338 = CARTESIAN_POINT('',(9.65,-39.16608213193,-42.17540033558));
#339 = CARTESIAN_POINT('',(9.65,-39.03853302411,-41.83213443612));
#340 = CARTESIAN_POINT('',(9.65,-38.79409246287,-41.17437157321));
#341 = CARTESIAN_POINT('',(9.65,-38.67720347502,-40.85987370365));
#342 = CARTESIAN_POINT('',(9.65,-38.56027637662,-40.54539002445));
#343 = CARTESIAN_POINT('',(9.65,-38.44328473982,-40.23093037107));
#344 = CARTESIAN_POINT('',(9.65,-38.32620154515,-39.91650483031));
#345 = CARTESIAN_POINT('',(9.65,-37.95550480257,-38.9221558907));
#346 = CARTESIAN_POINT('',(9.65,-37.70145326019,-38.24239626652));
#347 = CARTESIAN_POINT('',(9.65,-37.44656642569,-37.56294836912));
#348 = CARTESIAN_POINT('',(9.65,-37.19055838413,-36.88392123237));
#349 = CARTESIAN_POINT('',(9.65,-36.93314710686,-36.20542503177));
#350 = CARTESIAN_POINT('',(9.65,-36.09585039892,-34.01472562605));
#351 = CARTESIAN_POINT('',(9.65,-35.50931019951,-32.50504270506));
#352 = CARTESIAN_POINT('',(9.65,-34.91150270531,-30.99974321428));
#353 = CARTESIAN_POINT('',(9.65,-34.29986204917,-29.49998304951));
#354 = CARTESIAN_POINT('',(9.65,-33.67294256873,-28.00654904186));
#355 = CARTESIAN_POINT('',(9.65,-32.41156827744,-25.08557655141));
#356 = CARTESIAN_POINT('',(9.65,-31.77814897846,-23.65753105323));
#357 = CARTESIAN_POINT('',(9.65,-31.13071473304,-22.23578979722));
#358 = CARTESIAN_POINT('',(9.65,-30.4706394532,-20.81991175429));
#359 = CARTESIAN_POINT('',(9.65,-29.80080542379,-19.40866052937));
#360 = CARTESIAN_POINT('',(9.65,-29.12561144066,-18.));
#361 = PCURVE('',#32,#362);
#362 = DEFINITIONAL_REPRESENTATION('',(#363),#396);
#363 = B_SPLINE_CURVE_WITH_KNOTS('',6,(#364,#365,#366,#367,#368,#369,
    #370,#371,#372,#373,#374,#375,#376,#377,#378,#379,#380,#381,#382,
    #383,#384,#385,#386,#387,#388,#389,#390,#391,#392,#393,#394,#395),
  .UNSPECIFIED.,.F.,.F.,(7,5,5,5,5,5,7),(0.,0.192117330092,
    0.256304576836,0.315114299042,0.442312535869,0.726192965781,1.),
  .UNSPECIFIED.);
#364 = CARTESIAN_POINT('',(19.299444988029,0.));
#365 = CARTESIAN_POINT('',(20.322411974293,-0.393550476237));
#366 = CARTESIAN_POINT('',(21.346534572456,-0.784098301032));
#367 = CARTESIAN_POINT('',(22.371731947539,-1.171814396336));
#368 = CARTESIAN_POINT('',(23.397832174794,-1.557127556533));
#369 = CARTESIAN_POINT('',(24.42459297839,-1.940669315993));
#370 = CARTESIAN_POINT('',(25.794890960348,-2.451030290873));
#371 = CARTESIAN_POINT('',(26.138100677785,-2.578730921459));
#372 = CARTESIAN_POINT('',(26.481340720441,-2.70634989413));
#373 = CARTESIAN_POINT('',(26.82459966442,-2.833917868068));
#374 = CARTESIAN_POINT('',(27.16786556388,-2.961466975883));
#375 = CARTESIAN_POINT('',(27.825628426788,-3.205907537126));
#376 = CARTESIAN_POINT('',(28.140126296345,-3.322796524974));
#377 = CARTESIAN_POINT('',(28.454609975549,-3.439723623377));
#378 = CARTESIAN_POINT('',(28.769069628926,-3.556715260178));
#379 = CARTESIAN_POINT('',(29.083495169683,-3.673798454847));
#380 = CARTESIAN_POINT('',(30.077844109291,-4.044495197423));
#381 = CARTESIAN_POINT('',(30.757603733477,-4.298546739809));
#382 = CARTESIAN_POINT('',(31.437051630871,-4.553433574305));
#383 = CARTESIAN_POINT('',(32.116078767629,-4.809441615864));
#384 = CARTESIAN_POINT('',(32.794574968225,-5.066852893133));
#385 = CARTESIAN_POINT('',(34.985274373942,-5.904149601075));
#386 = CARTESIAN_POINT('',(36.494957294933,-6.490689800485));
#387 = CARTESIAN_POINT('',(38.00025678572,-7.088497294685));
#388 = CARTESIAN_POINT('',(39.500016950483,-7.700137950824));
#389 = CARTESIAN_POINT('',(40.993450958131,-8.327057431261));
#390 = CARTESIAN_POINT('',(43.914423448581,-9.588431722553));
#391 = CARTESIAN_POINT('',(45.34246894677,-10.22185102153));
#392 = CARTESIAN_POINT('',(46.764210202779,-10.86928526695));
#393 = CARTESIAN_POINT('',(48.180088245709,-11.5293605468));
#394 = CARTESIAN_POINT('',(49.591339470624,-12.1991945762));
#395 = CARTESIAN_POINT('',(51.,-12.87438855933));
#396 = ( GEOMETRIC_REPRESENTATION_CONTEXT(2) 
PARAMETRIC_REPRESENTATION_CONTEXT() REPRESENTATION_CONTEXT('2D SPACE',''
  ) );
#397 = PCURVE('',#148,#398);
#398 = DEFINITIONAL_REPRESENTATION('',(#399),#432);
#399 = B_SPLINE_CURVE_WITH_KNOTS('',6,(#400,#401,#402,#403,#404,#405,
    #406,#407,#408,#409,#410,#411,#412,#413,#414,#415,#416,#417,#418,
    #419,#420,#421,#422,#423,#424,#425,#426,#427,#428,#429,#430,#431),
  .UNSPECIFIED.,.F.,.F.,(7,5,5,5,5,5,7),(0.,0.192117330092,
    0.256304576836,0.315114299042,0.442312535869,0.726192965781,1.),
  .UNSPECIFIED.);
#400 = CARTESIAN_POINT('',(0.816588563912,0.320870978364));
#401 = CARTESIAN_POINT('',(0.816190088292,0.333143565858));
#402 = CARTESIAN_POINT('',(0.815780754708,0.345446713151));
#403 = CARTESIAN_POINT('',(0.815360012051,0.35778370857));
#404 = CARTESIAN_POINT('',(0.814928375046,0.370156225659));
#405 = CARTESIAN_POINT('',(0.814487170058,0.382564460644));
#406 = CARTESIAN_POINT('',(0.813888305039,0.39916446732));
#407 = CARTESIAN_POINT('',(0.813737471164,0.40332552476));
#408 = CARTESIAN_POINT('',(0.813585850108,0.407490399561));
#409 = CARTESIAN_POINT('',(0.813433518521,0.411659032789));
#410 = CARTESIAN_POINT('',(0.813280558855,0.415831349243));
#411 = CARTESIAN_POINT('',(0.812986419871,0.423833313465));
#412 = CARTESIAN_POINT('',(0.812845326897,0.427662384702));
#413 = CARTESIAN_POINT('',(0.81270384824,0.431494400821));
#414 = CARTESIAN_POINT('',(0.812562054332,0.43532928064));
#415 = CARTESIAN_POINT('',(0.812420018241,0.43916693213));
#416 = CARTESIAN_POINT('',(0.81197024891,0.451313395535));
#417 = CARTESIAN_POINT('',(0.811661902783,0.459632019472));
#418 = CARTESIAN_POINT('',(0.811353539276,0.467962095003));
#419 = CARTESIAN_POINT('',(0.811045962594,0.476302345633));
#420 = CARTESIAN_POINT('',(0.810739989673,0.484651286803));
#421 = CARTESIAN_POINT('',(0.809758916879,0.51165609841));
#422 = CARTESIAN_POINT('',(0.809093378804,0.530340217597));
#423 = CARTESIAN_POINT('',(0.808448724625,0.549040801947));
#424 = CARTESIAN_POINT('',(0.807833499062,0.567734735393));
#425 = CARTESIAN_POINT('',(0.80725440551,0.586397707124));
#426 = CARTESIAN_POINT('',(0.806196922249,0.622956706013));
#427 = CARTESIAN_POINT('',(0.805715669138,0.640857061632));
#428 = CARTESIAN_POINT('',(0.805276563522,0.658688084063));
#429 = CARTESIAN_POINT('',(0.804881932166,0.676433689885));
#430 = CARTESIAN_POINT('',(0.804532216592,0.694084506024));
#431 = CARTESIAN_POINT('',(0.804226264105,0.711638308331));
#432 = ( GEOMETRIC_REPRESENTATION_CONTEXT(2) 
PARAMETRIC_REPRESENTATION_CONTEXT() REPRESENTATION_CONTEXT('2D SPACE',''
  ) );
#433 = ADVANCED_FACE('',(#434),#72,.F.);
#434 = FACE_BOUND('',#435,.F.);
#435 = EDGE_LOOP('',(#436,#437,#460));
#436 = ORIENTED_EDGE('',*,*,#56,.F.);
#437 = ORIENTED_EDGE('',*,*,#438,.T.);
#438 = EDGE_CURVE('',#22,#439,#441,.T.);
#439 = VERTEX_POINT('',#440);
#440 = CARTESIAN_POINT('',(19.486832515573,-42.,-69.));
#441 = SURFACE_CURVE('',#442,(#446,#453),.PCURVE_S1.);
#442 = LINE('',#443,#444);
#443 = CARTESIAN_POINT('',(9.65,-42.,-69.));
#444 = VECTOR('',#445,1.);
#445 = DIRECTION('',(1.,0.,0.));
#446 = PCURVE('',#72,#447);
#447 = DEFINITIONAL_REPRESENTATION('',(#448),#452);
#448 = LINE('',#449,#450);
#449 = CARTESIAN_POINT('',(0.,0.));
#450 = VECTOR('',#451,1.);
#451 = DIRECTION('',(1.,0.));
#452 = ( GEOMETRIC_REPRESENTATION_CONTEXT(2) 
PARAMETRIC_REPRESENTATION_CONTEXT() REPRESENTATION_CONTEXT('2D SPACE',''
  ) );
#453 = PCURVE('',#44,#454);
#454 = DEFINITIONAL_REPRESENTATION('',(#455),#459);
#455 = LINE('',#456,#457);
#456 = CARTESIAN_POINT('',(0.,0.));
#457 = VECTOR('',#458,1.);
#458 = DIRECTION('',(0.,1.));
#459 = ( GEOMETRIC_REPRESENTATION_CONTEXT(2) 
PARAMETRIC_REPRESENTATION_CONTEXT() REPRESENTATION_CONTEXT('2D SPACE',''
  ) );
#460 = ORIENTED_EDGE('',*,*,#461,.T.);
#461 = EDGE_CURVE('',#439,#57,#462,.T.);
#462 = SURFACE_CURVE('',#463,(#494,#528),.PCURVE_S1.);
#463 = B_SPLINE_CURVE_WITH_KNOTS('',8,(#464,#465,#466,#467,#468,#469,
    #470,#471,#472,#473,#474,#475,#476,#477,#478,#479,#480,#481,#482,
    #483,#484,#485,#486,#487,#488,#489,#490,#491,#492,#493),
  .UNSPECIFIED.,.F.,.F.,(9,7,7,7,9),(0.,1.,1.827223519275,2.332716787557
    ,3.992863475357),.UNSPECIFIED.);
#464 = CARTESIAN_POINT('',(19.486832515573,-42.,-69.));
#465 = CARTESIAN_POINT('',(19.89551459005,-41.32275006834,-69.));
#466 = CARTESIAN_POINT('',(20.258832148762,-40.61718431969,-69.));
#467 = CARTESIAN_POINT('',(20.571310505248,-39.88591732624,-69.));
#468 = CARTESIAN_POINT('',(20.827840076195,-39.13231825922,-69.));
#469 = CARTESIAN_POINT('',(21.023952007224,-38.36057842929,-69.));
#470 = CARTESIAN_POINT('',(21.156095240021,-37.5757834642,-69.));
#471 = CARTESIAN_POINT('',(21.222112473765,-36.78403532714,-69.));
#472 = CARTESIAN_POINT('',(21.222112473765,-35.33803285577,-69.));
#473 = CARTESIAN_POINT('',(21.176937187065,-34.6831852032,-69.));
#474 = CARTESIAN_POINT('',(21.08653615666,-34.03218218611,-69.));
#475 = CARTESIAN_POINT('',(20.951885705897,-33.38857323257,-69.));
#476 = CARTESIAN_POINT('',(20.774688103035,-32.75546523339,-69.));
#477 = CARTESIAN_POINT('',(20.55718658152,-32.13556219716,-69.));
#478 = CARTESIAN_POINT('',(20.302046286008,-31.53119075874,-69.));
#479 = CARTESIAN_POINT('',(19.8351655117,-30.58570209236,-69.));
#480 = CARTESIAN_POINT('',(19.645084161287,-30.23350631638,-69.));
#481 = CARTESIAN_POINT('',(19.442631463852,-29.88810424106,-69.));
#482 = CARTESIAN_POINT('',(19.22844363991,-29.54979307853,-69.));
#483 = CARTESIAN_POINT('',(19.003154954732,-29.21880608559,-69.));
#484 = CARTESIAN_POINT('',(18.767385929938,-28.89532014471,-69.));
#485 = CARTESIAN_POINT('',(18.521733641517,-28.57946206299,-69.));
#486 = CARTESIAN_POINT('',(17.42939027688,-27.25928889842,-69.));
#487 = CARTESIAN_POINT('',(16.493005846075,-26.33221577474,-69.));
#488 = CARTESIAN_POINT('',(15.476155610362,-25.48991790282,-69.));
#489 = CARTESIAN_POINT('',(14.394693500085,-24.73136802896,-69.));
#490 = CARTESIAN_POINT('',(13.262089016551,-24.05436963607,-69.));
#491 = CARTESIAN_POINT('',(12.089088282038,-23.45606425301,-69.));
#492 = CARTESIAN_POINT('',(10.883555126038,-22.93324597966,-69.));
#493 = CARTESIAN_POINT('',(9.65,-22.48310535413,-69.));
#494 = PCURVE('',#72,#495);
#495 = DEFINITIONAL_REPRESENTATION('',(#496),#527);
#496 = B_SPLINE_CURVE_WITH_KNOTS('',8,(#497,#498,#499,#500,#501,#502,
    #503,#504,#505,#506,#507,#508,#509,#510,#511,#512,#513,#514,#515,
    #516,#517,#518,#519,#520,#521,#522,#523,#524,#525,#526),
  .UNSPECIFIED.,.F.,.F.,(9,7,7,7,9),(0.,1.,1.827223519275,2.332716787557
    ,3.992863475357),.UNSPECIFIED.);
#497 = CARTESIAN_POINT('',(9.836832515573,0.));
#498 = CARTESIAN_POINT('',(10.24551459005,0.677249931655));
#499 = CARTESIAN_POINT('',(10.608832148762,1.382815680309));
#500 = CARTESIAN_POINT('',(10.921310505248,2.114082673753));
#501 = CARTESIAN_POINT('',(11.177840076195,2.867681740779));
#502 = CARTESIAN_POINT('',(11.373952007224,3.639421570703));
#503 = CARTESIAN_POINT('',(11.506095240021,4.424216535796));
#504 = CARTESIAN_POINT('',(11.572112473765,5.215964672857));
#505 = CARTESIAN_POINT('',(11.572112473765,6.66196714423));
#506 = CARTESIAN_POINT('',(11.526937187065,7.316814796796));
#507 = CARTESIAN_POINT('',(11.43653615666,7.967817813885));
#508 = CARTESIAN_POINT('',(11.301885705897,8.611426767428));
#509 = CARTESIAN_POINT('',(11.124688103035,9.244534766605));
#510 = CARTESIAN_POINT('',(10.90718658152,9.864437802831));
#511 = CARTESIAN_POINT('',(10.652046286008,10.468809241257));
#512 = CARTESIAN_POINT('',(10.1851655117,11.414297907633));
#513 = CARTESIAN_POINT('',(9.995084161287,11.766493683614));
#514 = CARTESIAN_POINT('',(9.792631463852,12.11189575894));
#515 = CARTESIAN_POINT('',(9.57844363991,12.45020692147));
#516 = CARTESIAN_POINT('',(9.353154954732,12.78119391441));
#517 = CARTESIAN_POINT('',(9.117385929938,13.104679855286));
#518 = CARTESIAN_POINT('',(8.871733641517,13.420537937004));
#519 = CARTESIAN_POINT('',(7.77939027688,14.740711101574));
#520 = CARTESIAN_POINT('',(6.843005846075,15.667784225252));
#521 = CARTESIAN_POINT('',(5.826155610362,16.510082097177));
#522 = CARTESIAN_POINT('',(4.744693500085,17.268631971032));
#523 = CARTESIAN_POINT('',(3.612089016551,17.945630363924));
#524 = CARTESIAN_POINT('',(2.439088282038,18.543935746986));
#525 = CARTESIAN_POINT('',(1.233555126038,19.06675402034));
#526 = CARTESIAN_POINT('',(0.,19.516894645867));
#527 = ( GEOMETRIC_REPRESENTATION_CONTEXT(2) 
PARAMETRIC_REPRESENTATION_CONTEXT() REPRESENTATION_CONTEXT('2D SPACE',''
  ) );
#528 = PCURVE('',#148,#529);
#529 = DEFINITIONAL_REPRESENTATION('',(#530),#578);
#530 = B_SPLINE_CURVE_WITH_KNOTS('',3,(#531,#532,#533,#534,#535,#536,
    #537,#538,#539,#540,#541,#542,#543,#544,#545,#546,#547,#548,#549,
    #550,#551,#552,#553,#554,#555,#556,#557,#558,#559,#560,#561,#562,
    #563,#564,#565,#566,#567,#568,#569,#570,#571,#572,#573,#574,#575,
    #576,#577),.UNSPECIFIED.,.F.,.F.,(4,1,1,1,1,1,1,1,1,1,1,1,1,1,1,1,1,
    1,1,1,1,1,1,1,1,1,1,1,1,1,1,1,1,1,1,1,1,1,1,1,1,1,1,1,4),(0.,
    9.07468971672E-02,0.181493794334,0.272240691502,0.362987588669,
    0.453734485836,0.544481383003,0.63522828017,0.725975177338,
    0.816722074505,0.907468971672,0.998215868839,1.088962766006,
    1.179709663174,1.270456560341,1.361203457508,1.451950354675,
    1.542697251842,1.63344414901,1.724191046177,1.814937943344,
    1.905684840511,1.996431737678,2.087178634846,2.177925532013,
    2.26867242918,2.359419326347,2.450166223514,2.540913120682,
    2.631660017849,2.722406915016,2.813153812183,2.90390070935,
    2.994647606517,3.085394503685,3.176141400852,3.266888298019,
    3.357635195186,3.448382092353,3.539128989521,3.629875886688,
    3.720622783855,3.811369681022,3.902116578189,3.992863475357),
  .QUASI_UNIFORM_KNOTS.);
#531 = CARTESIAN_POINT('',(0.935191756129,8.830527298961E-02));
#532 = CARTESIAN_POINT('',(0.937064469207,8.830527300206E-02));
#533 = CARTESIAN_POINT('',(0.940831205485,8.830527300768E-02));
#534 = CARTESIAN_POINT('',(0.946541415237,8.830527298861E-02));
#535 = CARTESIAN_POINT('',(0.952308022798,8.830527298871E-02));
#536 = CARTESIAN_POINT('',(0.95812690941,8.830527299739E-02));
#537 = CARTESIAN_POINT('',(0.96399361859,8.830527297992E-02));
#538 = CARTESIAN_POINT('',(0.969903253924,8.830527296707E-02));
#539 = CARTESIAN_POINT('',(0.975850401875,8.830527299953E-02));
#540 = CARTESIAN_POINT('',(0.981829045466,8.830527303599E-02));
#541 = CARTESIAN_POINT('',(0.987832389871,8.830527298382E-02));
#542 = CARTESIAN_POINT('',(0.993852930441,8.830527289291E-02));
#543 = CARTESIAN_POINT('',(0.9998814975,8.830527302182E-02));
#544 = CARTESIAN_POINT('',(1.0059099867,8.830527295691E-02));
#545 = CARTESIAN_POINT('',(1.01193088682,8.830527299913E-02));
#546 = CARTESIAN_POINT('',(1.01793511175,8.830527300719E-02));
#547 = CARTESIAN_POINT('',(1.02391520466,8.830527297727E-02));
#548 = CARTESIAN_POINT('',(1.029864275731,8.830527297278E-02));
#549 = CARTESIAN_POINT('',(1.03577611943,8.830527300611E-02));
#550 = CARTESIAN_POINT('',(1.041645017615,8.830527300891E-02));
#551 = CARTESIAN_POINT('',(1.047465739068,8.830527294815E-02));
#552 = CARTESIAN_POINT('',(1.053233167669,8.830527300915E-02));
#553 = CARTESIAN_POINT('',(1.058943305119,8.830527294185E-02));
#554 = CARTESIAN_POINT('',(1.06459550201,8.830527302786E-02));
#555 = CARTESIAN_POINT('',(1.07018754948,8.830527298043E-02));
#556 = CARTESIAN_POINT('',(1.075718485701,8.830527296382E-02));
#557 = CARTESIAN_POINT('',(1.08118752512,8.830527303776E-02));
#558 = CARTESIAN_POINT('',(1.086595330079,8.830527296696E-02));
#559 = CARTESIAN_POINT('',(1.091938861495,8.830527312021E-02));
#560 = CARTESIAN_POINT('',(1.097220204761,8.830527304318E-02));
#561 = CARTESIAN_POINT('',(1.102441543914,8.830527293903E-02));
#562 = CARTESIAN_POINT('',(1.107604897054,8.830527290861E-02));
#563 = CARTESIAN_POINT('',(1.112712221262,8.8305272961E-02));
#564 = CARTESIAN_POINT('',(1.117765414107,8.830527303196E-02));
#565 = CARTESIAN_POINT('',(1.122766339482,8.830527306032E-02));
#566 = CARTESIAN_POINT('',(1.12771684437,8.830527302876E-02));
#567 = CARTESIAN_POINT('',(1.132618776153,8.830527296701E-02));
#568 = CARTESIAN_POINT('',(1.137473998424,8.830527292476E-02));
#569 = CARTESIAN_POINT('',(1.142284406268,8.83052729356E-02));
#570 = CARTESIAN_POINT('',(1.147051941152,8.830527299274E-02));
#571 = CARTESIAN_POINT('',(1.151778605531,8.830527305084E-02));
#572 = CARTESIAN_POINT('',(1.156466477976,8.830527305506E-02));
#573 = CARTESIAN_POINT('',(1.161117726786,8.830527298967E-02));
#574 = CARTESIAN_POINT('',(1.165734630667,8.830527290166E-02));
#575 = CARTESIAN_POINT('',(1.1703195754,8.83052729205E-02));
#576 = CARTESIAN_POINT('',(1.173356620883,8.830527296253E-02));
#577 = CARTESIAN_POINT('',(1.174870668606,8.830527298961E-02));
#578 = ( GEOMETRIC_REPRESENTATION_CONTEXT(2) 
PARAMETRIC_REPRESENTATION_CONTEXT() REPRESENTATION_CONTEXT('2D SPACE',''
  ) );
#579 = ADVANCED_FACE('',(#580),#286,.T.);
#580 = FACE_BOUND('',#581,.T.);
#581 = EDGE_LOOP('',(#582,#612,#666,#667));
#582 = ORIENTED_EDGE('',*,*,#583,.F.);
#583 = EDGE_CURVE('',#584,#586,#588,.T.);
#584 = VERTEX_POINT('',#585);
#585 = CARTESIAN_POINT('',(22.35,-6.,-30.72982464989));
#586 = VERTEX_POINT('',#587);
#587 = CARTESIAN_POINT('',(22.35,-6.,-18.));
#588 = SURFACE_CURVE('',#589,(#593,#600),.PCURVE_S1.);
#589 = LINE('',#590,#591);
#590 = CARTESIAN_POINT('',(22.35,-6.,-69.));
#591 = VECTOR('',#592,1.);
#592 = DIRECTION('',(0.,0.,1.));
#593 = PCURVE('',#286,#594);
#594 = DEFINITIONAL_REPRESENTATION('',(#595),#599);
#595 = LINE('',#596,#597);
#596 = CARTESIAN_POINT('',(0.,12.7));
#597 = VECTOR('',#598,1.);
#598 = DIRECTION('',(1.,0.));
#599 = ( GEOMETRIC_REPRESENTATION_CONTEXT(2) 
PARAMETRIC_REPRESENTATION_CONTEXT() REPRESENTATION_CONTEXT('2D SPACE',''
  ) );
#600 = PCURVE('',#601,#606);
#601 = PLANE('',#602);
#602 = AXIS2_PLACEMENT_3D('',#603,#604,#605);
#603 = CARTESIAN_POINT('',(22.35,-42.,-69.));
#604 = DIRECTION('',(1.,0.,0.));
#605 = DIRECTION('',(0.,0.,1.));
#606 = DEFINITIONAL_REPRESENTATION('',(#607),#611);
#607 = LINE('',#608,#609);
#608 = CARTESIAN_POINT('',(0.,-36.));
#609 = VECTOR('',#610,1.);
#610 = DIRECTION('',(1.,0.));
#611 = ( GEOMETRIC_REPRESENTATION_CONTEXT(2) 
PARAMETRIC_REPRESENTATION_CONTEXT() REPRESENTATION_CONTEXT('2D SPACE',''
  ) );
#612 = ORIENTED_EDGE('',*,*,#613,.F.);
#613 = EDGE_CURVE('',#85,#584,#614,.T.);
#614 = SURFACE_CURVE('',#615,(#630,#648),.PCURVE_S1.);
#615 = B_SPLINE_CURVE_WITH_KNOTS('',7,(#616,#617,#618,#619,#620,#621,
    #622,#623,#624,#625,#626,#627,#628,#629),.UNSPECIFIED.,.F.,.F.,(8,6,
    8),(0.,0.817368431414,1.),.UNSPECIFIED.);
#616 = CARTESIAN_POINT('',(9.65,-6.,-41.65716172852));
#617 = CARTESIAN_POINT('',(11.433446606182,-6.,-40.80525812175));
#618 = CARTESIAN_POINT('',(13.138870662799,-6.,-39.79682255997));
#619 = CARTESIAN_POINT('',(14.761983304224,-6.,-38.65591524575));
#620 = CARTESIAN_POINT('',(16.301811829454,-6.,-37.4050097117));
#621 = CARTESIAN_POINT('',(17.758495586595,-6.,-36.06223268995));
#622 = CARTESIAN_POINT('',(19.132292749454,-6.,-34.64005465664));
#623 = CARTESIAN_POINT('',(20.710584361229,-6.,-32.80950235607));
#624 = CARTESIAN_POINT('',(20.994602543071,-6.,-32.47154234785));
#625 = CARTESIAN_POINT('',(21.274364858056,-6.,-32.13002438403));
#626 = CARTESIAN_POINT('',(21.549834789364,-6.,-31.78502654734));
#627 = CARTESIAN_POINT('',(21.820967479305,-6.,-31.43661958869));
#628 = CARTESIAN_POINT('',(22.087709729325,-6.,-31.08486692714));
#629 = CARTESIAN_POINT('',(22.35,-6.,-30.72982464989));
#630 = PCURVE('',#286,#631);
#631 = DEFINITIONAL_REPRESENTATION('',(#632),#647);
#632 = B_SPLINE_CURVE_WITH_KNOTS('',7,(#633,#634,#635,#636,#637,#638,
    #639,#640,#641,#642,#643,#644,#645,#646),.UNSPECIFIED.,.F.,.F.,(8,6,
    8),(0.,0.817368431414,1.),.UNSPECIFIED.);
#633 = CARTESIAN_POINT('',(27.342838271473,0.));
#634 = CARTESIAN_POINT('',(28.19474187825,1.783446606182));
#635 = CARTESIAN_POINT('',(29.203177440023,3.488870662799));
#636 = CARTESIAN_POINT('',(30.344084754249,5.111983304224));
#637 = CARTESIAN_POINT('',(31.594990288291,6.651811829454));
#638 = CARTESIAN_POINT('',(32.93776731005,8.108495586595));
#639 = CARTESIAN_POINT('',(34.359945343357,9.482292749454));
#640 = CARTESIAN_POINT('',(36.190497643921,11.060584361229));
#641 = CARTESIAN_POINT('',(36.528457652142,11.344602543071));
#642 = CARTESIAN_POINT('',(36.869975615969,11.624364858056));
#643 = CARTESIAN_POINT('',(37.214973452657,11.899834789364));
#644 = CARTESIAN_POINT('',(37.563380411306,12.170967479305));
#645 = CARTESIAN_POINT('',(37.91513307286,12.437709729325));
#646 = CARTESIAN_POINT('',(38.270175350103,12.7));
#647 = ( GEOMETRIC_REPRESENTATION_CONTEXT(2) 
PARAMETRIC_REPRESENTATION_CONTEXT() REPRESENTATION_CONTEXT('2D SPACE',''
  ) );
#648 = PCURVE('',#148,#649);
#649 = DEFINITIONAL_REPRESENTATION('',(#650),#665);
#650 = B_SPLINE_CURVE_WITH_KNOTS('',7,(#651,#652,#653,#654,#655,#656,
    #657,#658,#659,#660,#661,#662,#663,#664),.UNSPECIFIED.,.F.,.F.,(8,6,
    8),(0.,0.817368431414,1.),.UNSPECIFIED.);
#651 = CARTESIAN_POINT('',(1.186797740819,0.417960332199));
#652 = CARTESIAN_POINT('',(1.174842153025,0.428320401287));
#653 = CARTESIAN_POINT('',(1.163224611146,0.4406058617));
#654 = CARTESIAN_POINT('',(1.15194423198,0.454539364791));
#655 = CARTESIAN_POINT('',(1.140987747609,0.469864408818));
#656 = CARTESIAN_POINT('',(1.130333022896,0.48637510877));
#657 = CARTESIAN_POINT('',(1.119944633359,0.503929582222));
#658 = CARTESIAN_POINT('',(1.107498362927,0.526609067036));
#659 = CARTESIAN_POINT('',(1.105236390309,0.53079946446));
#660 = CARTESIAN_POINT('',(1.102985114252,0.53503727216));
#661 = CARTESIAN_POINT('',(1.100744135487,0.539321560812));
#662 = CARTESIAN_POINT('',(1.09851306818,0.543651469027));
#663 = CARTESIAN_POINT('',(1.096291539941,0.548026203353));
#664 = CARTESIAN_POINT('',(1.094079191818,0.552445038275));
#665 = ( GEOMETRIC_REPRESENTATION_CONTEXT(2) 
PARAMETRIC_REPRESENTATION_CONTEXT() REPRESENTATION_CONTEXT('2D SPACE',''
  ) );
#666 = ORIENTED_EDGE('',*,*,#270,.T.);
#667 = ORIENTED_EDGE('',*,*,#668,.T.);
#668 = EDGE_CURVE('',#271,#586,#669,.T.);
#669 = SURFACE_CURVE('',#670,(#674,#681),.PCURVE_S1.);
#670 = LINE('',#671,#672);
#671 = CARTESIAN_POINT('',(9.65,-6.,-18.));
#672 = VECTOR('',#673,1.);
#673 = DIRECTION('',(1.,0.,0.));
#674 = PCURVE('',#286,#675);
#675 = DEFINITIONAL_REPRESENTATION('',(#676),#680);
#676 = LINE('',#677,#678);
#677 = CARTESIAN_POINT('',(51.,0.));
#678 = VECTOR('',#679,1.);
#679 = DIRECTION('',(0.,1.));
#680 = ( GEOMETRIC_REPRESENTATION_CONTEXT(2) 
PARAMETRIC_REPRESENTATION_CONTEXT() REPRESENTATION_CONTEXT('2D SPACE',''
  ) );
#681 = PCURVE('',#314,#682);
#682 = DEFINITIONAL_REPRESENTATION('',(#683),#687);
#683 = LINE('',#684,#685);
#684 = CARTESIAN_POINT('',(0.,36.));
#685 = VECTOR('',#686,1.);
#686 = DIRECTION('',(1.,0.));
#687 = ( GEOMETRIC_REPRESENTATION_CONTEXT(2) 
PARAMETRIC_REPRESENTATION_CONTEXT() REPRESENTATION_CONTEXT('2D SPACE',''
  ) );
#688 = ADVANCED_FACE('',(#689),#601,.T.);
#689 = FACE_BOUND('',#690,.T.);
#690 = EDGE_LOOP('',(#691,#714,#944,#1172));
#691 = ORIENTED_EDGE('',*,*,#692,.F.);
#692 = EDGE_CURVE('',#693,#586,#695,.T.);
#693 = VERTEX_POINT('',#694);
#694 = CARTESIAN_POINT('',(22.35,-22.66608149244,-18.));
#695 = SURFACE_CURVE('',#696,(#700,#707),.PCURVE_S1.);
#696 = LINE('',#697,#698);
#697 = CARTESIAN_POINT('',(22.35,-42.,-18.));
#698 = VECTOR('',#699,1.);
#699 = DIRECTION('',(0.,1.,0.));
#700 = PCURVE('',#601,#701);
#701 = DEFINITIONAL_REPRESENTATION('',(#702),#706);
#702 = LINE('',#703,#704);
#703 = CARTESIAN_POINT('',(51.,0.));
#704 = VECTOR('',#705,1.);
#705 = DIRECTION('',(0.,-1.));
#706 = ( GEOMETRIC_REPRESENTATION_CONTEXT(2) 
PARAMETRIC_REPRESENTATION_CONTEXT() REPRESENTATION_CONTEXT('2D SPACE',''
  ) );
#707 = PCURVE('',#314,#708);
#708 = DEFINITIONAL_REPRESENTATION('',(#709),#713);
#709 = LINE('',#710,#711);
#710 = CARTESIAN_POINT('',(12.7,0.));
#711 = VECTOR('',#712,1.);
#712 = DIRECTION('',(0.,1.));
#713 = ( GEOMETRIC_REPRESENTATION_CONTEXT(2) 
PARAMETRIC_REPRESENTATION_CONTEXT() REPRESENTATION_CONTEXT('2D SPACE',''
  ) );
#714 = ORIENTED_EDGE('',*,*,#715,.F.);
#715 = EDGE_CURVE('',#716,#693,#718,.T.);
#716 = VERTEX_POINT('',#717);
#717 = CARTESIAN_POINT('',(22.35,-32.34599109976,-61.7668419136));
#718 = SURFACE_CURVE('',#719,(#792,#868),.PCURVE_S1.);
#719 = B_SPLINE_CURVE_WITH_KNOTS('',8,(#720,#721,#722,#723,#724,#725,
    #726,#727,#728,#729,#730,#731,#732,#733,#734,#735,#736,#737,#738,
    #739,#740,#741,#742,#743,#744,#745,#746,#747,#748,#749,#750,#751,
    #752,#753,#754,#755,#756,#757,#758,#759,#760,#761,#762,#763,#764,
    #765,#766,#767,#768,#769,#770,#771,#772,#773,#774,#775,#776,#777,
    #778,#779,#780,#781,#782,#783,#784,#785,#786,#787,#788,#789,#790,
    #791),.UNSPECIFIED.,.F.,.F.,(9,7,7,7,7,7,7,7,7,7,9),(0.,
    2.113004232692E-02,4.300128362491E-02,7.582096401579E-02,
    0.126871943672,0.193159626598,0.274549886332,0.337388068493,
    0.564888562122,0.778779060941,1.),.UNSPECIFIED.);
#720 = CARTESIAN_POINT('',(22.35,-32.34599109976,-61.7668419136));
#721 = CARTESIAN_POINT('',(22.35,-32.46749771811,-61.7668419136));
#722 = CARTESIAN_POINT('',(22.35,-32.59097566314,-61.75466160315));
#723 = CARTESIAN_POINT('',(22.35,-32.71255626074,-61.72747523962));
#724 = CARTESIAN_POINT('',(22.35,-32.82887290531,-61.68355640974));
#725 = CARTESIAN_POINT('',(22.35,-32.93719801104,-61.62265118387));
#726 = CARTESIAN_POINT('',(22.35,-33.03558864563,-61.54629671027));
#727 = CARTESIAN_POINT('',(22.35,-33.1229336855,-61.4579560446));
#728 = CARTESIAN_POINT('',(22.35,-33.27731805108,-61.2643874973));
#729 = CARTESIAN_POINT('',(22.35,-33.34442520536,-61.15756166465));
#730 = CARTESIAN_POINT('',(22.35,-33.40157677083,-61.04480192164));
#731 = CARTESIAN_POINT('',(22.35,-33.45018860293,-60.92808353231));
#732 = CARTESIAN_POINT('',(22.35,-33.49152452679,-60.80886386673));
#733 = CARTESIAN_POINT('',(22.35,-33.52667482075,-60.68807320716));
#734 = CARTESIAN_POINT('',(22.35,-33.55656617125,-60.566120041));
#735 = CARTESIAN_POINT('',(22.35,-33.62003606348,-60.25794964166));
#736 = CARTESIAN_POINT('',(22.35,-33.64777531527,-60.07107296935));
#737 = CARTESIAN_POINT('',(22.35,-33.66763642563,-59.88307193093));
#738 = CARTESIAN_POINT('',(22.35,-33.68101832257,-59.69450897252));
#739 = CARTESIAN_POINT('',(22.35,-33.68904762742,-59.50576627459));
#740 = CARTESIAN_POINT('',(22.35,-33.69252336412,-59.31703432186));
#741 = CARTESIAN_POINT('',(22.35,-33.69209254958,-59.12833563326));
#742 = CARTESIAN_POINT('',(22.35,-33.68225300977,-58.64581498254));
#743 = CARTESIAN_POINT('',(22.35,-33.66800176738,-58.35234695702));
#744 = CARTESIAN_POINT('',(22.35,-33.64739472197,-58.05920733479));
#745 = CARTESIAN_POINT('',(22.35,-33.62158589035,-57.7664837276));
#746 = CARTESIAN_POINT('',(22.35,-33.59147280751,-57.47422051255));
#747 = CARTESIAN_POINT('',(22.35,-33.55771364625,-57.18241618418));
#748 = CARTESIAN_POINT('',(22.35,-33.52083650732,-56.89101622883));
#749 = CARTESIAN_POINT('',(22.35,-33.42985391939,-56.22192256026));
#750 = CARTESIAN_POINT('',(22.35,-33.37391052562,-55.84456751594));
#751 = CARTESIAN_POINT('',(22.35,-33.31434945975,-55.46775515518));
#752 = CARTESIAN_POINT('',(22.35,-33.25182112768,-55.0914242498));
#753 = CARTESIAN_POINT('',(22.35,-33.18682461847,-54.71552273948));
#754 = CARTESIAN_POINT('',(22.35,-33.11975737478,-54.33999951157));
#755 = CARTESIAN_POINT('',(22.35,-33.05093192203,-53.96480158274));
#756 = CARTESIAN_POINT('',(22.35,-32.894249873,-53.129516085));
#757 = CARTESIAN_POINT('',(22.35,-32.80563504922,-52.6695900957));
#758 = CARTESIAN_POINT('',(22.35,-32.71523087384,-52.21001011485));
#759 = CARTESIAN_POINT('',(22.35,-32.62338270152,-51.75071650298));
#760 = CARTESIAN_POINT('',(22.35,-32.53034681889,-51.2916641868));
#761 = CARTESIAN_POINT('',(22.35,-32.43631732108,-50.83281730926));
#762 = CARTESIAN_POINT('',(22.35,-32.34144153945,-50.37414613668));
#763 = CARTESIAN_POINT('',(22.35,-32.17200153776,-49.56162123559));
#764 = CARTESIAN_POINT('',(22.35,-32.09773764399,-49.20770840063));
#765 = CARTESIAN_POINT('',(22.35,-32.02308099391,-48.85387805689));
#766 = CARTESIAN_POINT('',(22.35,-31.9480672083,-48.50012321096));
#767 = CARTESIAN_POINT('',(22.35,-31.87272059834,-48.14643917226));
#768 = CARTESIAN_POINT('',(22.35,-31.79705588975,-47.79282318813));
#769 = CARTESIAN_POINT('',(22.35,-31.72107994695,-47.43927407889));
#770 = CARTESIAN_POINT('',(22.35,-31.36860465199,-45.80603848803));
#771 = CARTESIAN_POINT('',(22.35,-31.08834949467,-44.52718023077));
#772 = CARTESIAN_POINT('',(22.35,-30.80403408865,-43.24919506692));
#773 = CARTESIAN_POINT('',(22.35,-30.51455745222,-41.97234327508));
#774 = CARTESIAN_POINT('',(22.35,-30.2183282158,-40.69702889579));
#775 = CARTESIAN_POINT('',(22.35,-29.91354641395,-39.42373590694));
#776 = CARTESIAN_POINT('',(22.35,-29.59834885862,-38.15299516718));
#777 = CARTESIAN_POINT('',(22.35,-28.96326655783,-35.6935175132));
#778 = CARTESIAN_POINT('',(22.35,-28.64479124331,-34.50442968872));
#779 = CARTESIAN_POINT('',(22.35,-28.31417965691,-33.31859801575));
#780 = CARTESIAN_POINT('',(22.35,-27.97012613597,-32.13655793812));
#781 = CARTESIAN_POINT('',(22.35,-27.6115510994,-30.9588212965));
#782 = CARTESIAN_POINT('',(22.35,-27.23769931477,-29.78584739949));
#783 = CARTESIAN_POINT('',(22.35,-26.84821562765,-28.61802089277));
#784 = CARTESIAN_POINT('',(22.35,-26.02429994877,-26.2534148008));
#785 = CARTESIAN_POINT('',(22.35,-25.58875413936,-25.05692678942));
#786 = CARTESIAN_POINT('',(22.35,-25.13667576958,-23.86653273639));
#787 = CARTESIAN_POINT('',(22.35,-24.66864374461,-22.68233458506));
#788 = CARTESIAN_POINT('',(22.35,-24.1857410935,-21.50416014875));
#789 = CARTESIAN_POINT('',(22.35,-23.68955301995,-20.3315642689));
#790 = CARTESIAN_POINT('',(22.35,-23.18214978823,-19.16383587993));
#791 = CARTESIAN_POINT('',(22.35,-22.66608149244,-18.));
#792 = PCURVE('',#601,#793);
#793 = DEFINITIONAL_REPRESENTATION('',(#794),#867);
#794 = B_SPLINE_CURVE_WITH_KNOTS('',8,(#795,#796,#797,#798,#799,#800,
    #801,#802,#803,#804,#805,#806,#807,#808,#809,#810,#811,#812,#813,
    #814,#815,#816,#817,#818,#819,#820,#821,#822,#823,#824,#825,#826,
    #827,#828,#829,#830,#831,#832,#833,#834,#835,#836,#837,#838,#839,
    #840,#841,#842,#843,#844,#845,#846,#847,#848,#849,#850,#851,#852,
    #853,#854,#855,#856,#857,#858,#859,#860,#861,#862,#863,#864,#865,
    #866),.UNSPECIFIED.,.F.,.F.,(9,7,7,7,7,7,7,7,7,7,9),(0.,
    2.113004232692E-02,4.300128362491E-02,7.582096401579E-02,
    0.126871943672,0.193159626598,0.274549886332,0.337388068493,
    0.564888562122,0.778779060941,1.),.UNSPECIFIED.);
#795 = CARTESIAN_POINT('',(7.233158086396,-9.654008900239));
#796 = CARTESIAN_POINT('',(7.233158086396,-9.532502281883));
#797 = CARTESIAN_POINT('',(7.245338396845,-9.409024336859));
#798 = CARTESIAN_POINT('',(7.272524760374,-9.287443739256));
#799 = CARTESIAN_POINT('',(7.316443590252,-9.17112709469));
#800 = CARTESIAN_POINT('',(7.377348816126,-9.062801988955));
#801 = CARTESIAN_POINT('',(7.453703289722,-8.964411354368));
#802 = CARTESIAN_POINT('',(7.542043955396,-8.877066314499));
#803 = CARTESIAN_POINT('',(7.7356125027,-8.722681948913));
#804 = CARTESIAN_POINT('',(7.842438335345,-8.65557479464));
#805 = CARTESIAN_POINT('',(7.955198078359,-8.598423229166));
#806 = CARTESIAN_POINT('',(8.071916467684,-8.549811397067));
#807 = CARTESIAN_POINT('',(8.191136133263,-8.508475473201));
#808 = CARTESIAN_POINT('',(8.311926792831,-8.473325179247));
#809 = CARTESIAN_POINT('',(8.433879958993,-8.443433828747));
#810 = CARTESIAN_POINT('',(8.74205035834,-8.379963936516));
#811 = CARTESIAN_POINT('',(8.928927030645,-8.35222468473));
#812 = CARTESIAN_POINT('',(9.116928069065,-8.332363574361));
#813 = CARTESIAN_POINT('',(9.30549102748,-8.318981677426));
#814 = CARTESIAN_POINT('',(9.494233725407,-8.310952372574));
#815 = CARTESIAN_POINT('',(9.682965678131,-8.307476635877));
#816 = CARTESIAN_POINT('',(9.871664366733,-8.307907450415));
#817 = CARTESIAN_POINT('',(10.354185017454,-8.317746990225));
#818 = CARTESIAN_POINT('',(10.647653042974,-8.331998232617));
#819 = CARTESIAN_POINT('',(10.94079266521,-8.352605278022));
#820 = CARTESIAN_POINT('',(11.233516272394,-8.378414109649));
#821 = CARTESIAN_POINT('',(11.525779487447,-8.408527192488));
#822 = CARTESIAN_POINT('',(11.817583815819,-8.442286353743));
#823 = CARTESIAN_POINT('',(12.108983771169,-8.479163492678));
#824 = CARTESIAN_POINT('',(12.778077439736,-8.570146080604));
#825 = CARTESIAN_POINT('',(13.155432484055,-8.626089474375));
#826 = CARTESIAN_POINT('',(13.53224484482,-8.685650540243));
#827 = CARTESIAN_POINT('',(13.908575750198,-8.748178872319));
#828 = CARTESIAN_POINT('',(14.284477260513,-8.813175381528));
#829 = CARTESIAN_POINT('',(14.660000488425,-8.880242625211));
#830 = CARTESIAN_POINT('',(15.035198417254,-8.949068077966));
#831 = CARTESIAN_POINT('',(15.870483915,-9.105750126997));
#832 = CARTESIAN_POINT('',(16.330409904299,-9.194364950774));
#833 = CARTESIAN_POINT('',(16.789989885145,-9.284769126153));
#834 = CARTESIAN_POINT('',(17.249283497011,-9.376617298478));
#835 = CARTESIAN_POINT('',(17.708335813191,-9.469653181105));
#836 = CARTESIAN_POINT('',(18.167182690732,-9.563682678918));
#837 = CARTESIAN_POINT('',(18.625853863313,-9.658558460542));
#838 = CARTESIAN_POINT('',(19.438378764403,-9.827998462235));
#839 = CARTESIAN_POINT('',(19.792291599366,-9.90226235601));
#840 = CARTESIAN_POINT('',(20.146121943107,-9.976919006088));
#841 = CARTESIAN_POINT('',(20.499876789034,-10.05193279169));
#842 = CARTESIAN_POINT('',(20.853560827733,-10.12727940165));
#843 = CARTESIAN_POINT('',(21.20717681187,-10.20294411024));
#844 = CARTESIAN_POINT('',(21.560725921102,-10.27892005304));
#845 = CARTESIAN_POINT('',(23.193961511966,-10.631395348));
#846 = CARTESIAN_POINT('',(24.472819769226,-10.91165050532));
#847 = CARTESIAN_POINT('',(25.750804933074,-11.19596591134));
#848 = CARTESIAN_POINT('',(27.027656724917,-11.48544254777));
#849 = CARTESIAN_POINT('',(28.302971104202,-11.78167178419));
#850 = CARTESIAN_POINT('',(29.576264093056,-12.08645358605));
#851 = CARTESIAN_POINT('',(30.847004832818,-12.40165114137));
#852 = CARTESIAN_POINT('',(33.306482486792,-13.03673344216));
#853 = CARTESIAN_POINT('',(34.495570311276,-13.35520875668));
#854 = CARTESIAN_POINT('',(35.681401984243,-13.68582034308));
#855 = CARTESIAN_POINT('',(36.863442061878,-14.02987386402));
#856 = CARTESIAN_POINT('',(38.041178703497,-14.38844890059));
#857 = CARTESIAN_POINT('',(39.214152600506,-14.76230068522));
#858 = CARTESIAN_POINT('',(40.381979107225,-15.15178437234));
#859 = CARTESIAN_POINT('',(42.746585199195,-15.97570005122));
#860 = CARTESIAN_POINT('',(43.943073210579,-16.41124586063));
#861 = CARTESIAN_POINT('',(45.133467263603,-16.86332423041));
#862 = CARTESIAN_POINT('',(46.317665414934,-17.33135625539));
#863 = CARTESIAN_POINT('',(47.495839851249,-17.81425890649));
#864 = CARTESIAN_POINT('',(48.668435731094,-18.31044698004));
#865 = CARTESIAN_POINT('',(49.836164120062,-18.81785021176));
#866 = CARTESIAN_POINT('',(51.,-19.33391850755));
#867 = ( GEOMETRIC_REPRESENTATION_CONTEXT(2) 
PARAMETRIC_REPRESENTATION_CONTEXT() REPRESENTATION_CONTEXT('2D SPACE',''
  ) );
#868 = PCURVE('',#148,#869);
#869 = DEFINITIONAL_REPRESENTATION('',(#870),#943);
#870 = B_SPLINE_CURVE_WITH_KNOTS('',8,(#871,#872,#873,#874,#875,#876,
    #877,#878,#879,#880,#881,#882,#883,#884,#885,#886,#887,#888,#889,
    #890,#891,#892,#893,#894,#895,#896,#897,#898,#899,#900,#901,#902,
    #903,#904,#905,#906,#907,#908,#909,#910,#911,#912,#913,#914,#915,
    #916,#917,#918,#919,#920,#921,#922,#923,#924,#925,#926,#927,#928,
    #929,#930,#931,#932,#933,#934,#935,#936,#937,#938,#939,#940,#941,
    #942),.UNSPECIFIED.,.F.,.F.,(9,7,7,7,7,7,7,7,7,7,9),(0.,
    2.113004232692E-02,4.300128362491E-02,7.582096401579E-02,
    0.126871943672,0.193159626598,0.274549886332,0.337388068493,
    0.564888562122,0.778779060941,1.),.UNSPECIFIED.);
#871 = CARTESIAN_POINT('',(1.,0.176310776613));
#872 = CARTESIAN_POINT('',(0.998793071204,0.176310776613));
#873 = CARTESIAN_POINT('',(0.997506230605,0.17645741595));
#874 = CARTESIAN_POINT('',(0.996164137357,0.176784711693));
#875 = CARTESIAN_POINT('',(0.99479204053,0.177313433733));
#876 = CARTESIAN_POINT('',(0.993416249982,0.178046567271));
#877 = CARTESIAN_POINT('',(0.99206408844,0.178965494328));
#878 = CARTESIAN_POINT('',(0.990763880545,0.180028428131));
#879 = CARTESIAN_POINT('',(0.988284451642,0.182356976737));
#880 = CARTESIAN_POINT('',(0.987096813101,0.183641797259));
#881 = CARTESIAN_POINT('',(0.985980184898,0.18499768216));
#882 = CARTESIAN_POINT('',(0.98493018055,0.186400832064));
#883 = CARTESIAN_POINT('',(0.983941323778,0.187833707194));
#884 = CARTESIAN_POINT('',(0.983007263802,0.189285124511));
#885 = CARTESIAN_POINT('',(0.982120740187,0.190750177618));
#886 = CARTESIAN_POINT('',(0.980002628481,0.194451476964));
#887 = CARTESIAN_POINT('',(0.978826978783,0.196695233811));
#888 = CARTESIAN_POINT('',(0.97772607893,0.198951768626));
#889 = CARTESIAN_POINT('',(0.976688650036,0.201214357195));
#890 = CARTESIAN_POINT('',(0.975705249591,0.203478449745));
#891 = CARTESIAN_POINT('',(0.974768774913,0.205741800983));
#892 = CARTESIAN_POINT('',(0.973872841421,0.208004179601));
#893 = CARTESIAN_POINT('',(0.971672559041,0.213787923125));
#894 = CARTESIAN_POINT('',(0.970420168207,0.217304281857));
#895 = CARTESIAN_POINT('',(0.969235967262,0.220815545694));
#896 = CARTESIAN_POINT('',(0.96810875223,0.224320805752));
#897 = CARTESIAN_POINT('',(0.967029683829,0.227819668282));
#898 = CARTESIAN_POINT('',(0.965992103853,0.231312283869));
#899 = CARTESIAN_POINT('',(0.964990412063,0.234799432274));
#900 = CARTESIAN_POINT('',(0.962759796035,0.242805233639));
#901 = CARTESIAN_POINT('',(0.961552730997,0.247319487063));
#902 = CARTESIAN_POINT('',(0.960388909025,0.251826662852));
#903 = CARTESIAN_POINT('',(0.959261426134,0.256327749979));
#904 = CARTESIAN_POINT('',(0.958164939506,0.260823616965));
#905 = CARTESIAN_POINT('',(0.957095128229,0.265315111246));
#906 = CARTESIAN_POINT('',(0.956048511243,0.269803093578));
#907 = CARTESIAN_POINT('',(0.953761968579,0.279795810347));
#908 = CARTESIAN_POINT('',(0.952532399631,0.28529891566));
#909 = CARTESIAN_POINT('',(0.951328135314,0.290799189304));
#910 = CARTESIAN_POINT('',(0.950145227296,0.296297731497));
#911 = CARTESIAN_POINT('',(0.948980671018,0.301795451101));
#912 = CARTESIAN_POINT('',(0.947832107985,0.307293130453));
#913 = CARTESIAN_POINT('',(0.946697654913,0.312791462732));
#914 = CARTESIAN_POINT('',(0.944709766285,0.322537083575));
#915 = CARTESIAN_POINT('',(0.943851219655,0.326783836573));
#916 = CARTESIAN_POINT('',(0.942999553357,0.331031584261));
#917 = CARTESIAN_POINT('',(0.942154235538,0.33528055246));
#918 = CARTESIAN_POINT('',(0.941314849942,0.339530933656));
#919 = CARTESIAN_POINT('',(0.94048107689,0.343782891244));
#920 = CARTESIAN_POINT('',(0.939652674259,0.348036563787));
#921 = CARTESIAN_POINT('',(0.935849073047,0.367698778426));
#922 = CARTESIAN_POINT('',(0.932936719647,0.383129293511));
#923 = CARTESIAN_POINT('',(0.930083869252,0.3985894917));
#924 = CARTESIAN_POINT('',(0.927292955914,0.414080811884));
#925 = CARTESIAN_POINT('',(0.924570632173,0.429601794703));
#926 = CARTESIAN_POINT('',(0.921925060866,0.445148670508));
#927 = CARTESIAN_POINT('',(0.919365023142,0.460715586226));
#928 = CARTESIAN_POINT('',(0.914579771881,0.490942511148));
#929 = CARTESIAN_POINT('',(0.91234370603,0.505600976587));
#930 = CARTESIAN_POINT('',(0.910197378171,0.520263236985));
#931 = CARTESIAN_POINT('',(0.908147275165,0.534920645186));
#932 = CARTESIAN_POINT('',(0.906198908177,0.549563473248));
#933 = CARTESIAN_POINT('',(0.904356506302,0.564181254409));
#934 = CARTESIAN_POINT('',(0.902622913131,0.578763122144));
#935 = CARTESIAN_POINT('',(0.899320828277,0.608331313806));
#936 = CARTESIAN_POINT('',(0.8977599039,0.623315470295));
#937 = CARTESIAN_POINT('',(0.896318693252,0.638238100006));
#938 = CARTESIAN_POINT('',(0.894997211616,0.653088548596));
#939 = CARTESIAN_POINT('',(0.893793858652,0.667858421439));
#940 = CARTESIAN_POINT('',(0.892705659417,0.6825418031));
#941 = CARTESIAN_POINT('',(0.891728484121,0.697135350005));
#942 = CARTESIAN_POINT('',(0.890857133506,0.711638308331));
#943 = ( GEOMETRIC_REPRESENTATION_CONTEXT(2) 
PARAMETRIC_REPRESENTATION_CONTEXT() REPRESENTATION_CONTEXT('2D SPACE',''
  ) );
#944 = ORIENTED_EDGE('',*,*,#945,.F.);
#945 = EDGE_CURVE('',#584,#716,#946,.T.);
#946 = SURFACE_CURVE('',#947,(#1020,#1096),.PCURVE_S1.);
#947 = B_SPLINE_CURVE_WITH_KNOTS('',8,(#948,#949,#950,#951,#952,#953,
    #954,#955,#956,#957,#958,#959,#960,#961,#962,#963,#964,#965,#966,
    #967,#968,#969,#970,#971,#972,#973,#974,#975,#976,#977,#978,#979,
    #980,#981,#982,#983,#984,#985,#986,#987,#988,#989,#990,#991,#992,
    #993,#994,#995,#996,#997,#998,#999,#1000,#1001,#1002,#1003,#1004,
    #1005,#1006,#1007,#1008,#1009,#1010,#1011,#1012,#1013,#1014,#1015,
    #1016,#1017,#1018,#1019),.UNSPECIFIED.,.F.,.F.,(9,7,7,7,7,7,7,7,7,7,
    9),(0.,8.863249095406E-02,0.28232010815,0.484865191399,
    0.538279936424,0.63793609676,0.73873068197,0.847956869882,
    0.929094677077,0.967367331251,1.),.UNSPECIFIED.);
#948 = CARTESIAN_POINT('',(22.35,-6.,-30.72982464989));
#949 = CARTESIAN_POINT('',(22.35,-6.281713829584,-31.08656105484));
#950 = CARTESIAN_POINT('',(22.35,-6.563418125746,-31.44330499758));
#951 = CARTESIAN_POINT('',(22.35,-6.845088845745,-31.80007548427));
#952 = CARTESIAN_POINT('',(22.35,-7.126703527948,-32.15689024533));
#953 = CARTESIAN_POINT('',(22.35,-7.408241291826,-32.5137657354));
#954 = CARTESIAN_POINT('',(22.35,-7.689682837957,-32.87071713338));
#955 = CARTESIAN_POINT('',(22.35,-7.971010448023,-33.2277583424));
#956 = CARTESIAN_POINT('',(22.35,-8.866705899474,-34.36536411289));
#957 = CARTESIAN_POINT('',(22.35,-9.480582689534,-35.14631583347));
#958 = CARTESIAN_POINT('',(22.35,-10.09366860688,-35.92788924311));
#959 = CARTESIAN_POINT('',(22.35,-10.70582861605,-36.71018860473));
#960 = CARTESIAN_POINT('',(22.35,-11.31696018662,-37.49329207733));
#961 = CARTESIAN_POINT('',(22.35,-11.92699277947,-38.27725211981));
#962 = CARTESIAN_POINT('',(22.35,-12.53588902713,-39.06209457419));
#963 = CARTESIAN_POINT('',(22.35,-13.77919940074,-40.66946987484));
#964 = CARTESIAN_POINT('',(22.35,-14.41350828354,-41.49208607348));
#965 = CARTESIAN_POINT('',(22.35,-15.0465717858,-42.31566168149));
#966 = CARTESIAN_POINT('',(22.35,-15.67843450627,-43.14015848407));
#967 = CARTESIAN_POINT('',(22.35,-16.30918895138,-43.96550274984));
#968 = CARTESIAN_POINT('',(22.35,-16.93898580598,-44.79157738582));
#969 = CARTESIAN_POINT('',(22.35,-17.56805363644,-45.61820689131));
#970 = CARTESIAN_POINT('',(22.35,-18.36252065698,-46.66321080688));
#971 = CARTESIAN_POINT('',(22.35,-18.52828601048,-46.88130724287));
#972 = CARTESIAN_POINT('',(22.35,-18.69403016027,-47.09941979962));
#973 = CARTESIAN_POINT('',(22.35,-18.85975981523,-47.31754337671));
#974 = CARTESIAN_POINT('',(22.35,-19.02548231936,-47.53567239255));
#975 = CARTESIAN_POINT('',(22.35,-19.19120565184,-47.75380078435));
#976 = CARTESIAN_POINT('',(22.35,-19.356938427,-47.97192200815));
#977 = CARTESIAN_POINT('',(22.35,-19.83193324648,-48.59695243062));
#978 = CARTESIAN_POINT('',(22.35,-20.14124147992,-49.00382612255));
#979 = CARTESIAN_POINT('',(22.35,-20.45067625695,-49.41060377927));
#980 = CARTESIAN_POINT('',(22.35,-20.76030728972,-49.81723247656));
#981 = CARTESIAN_POINT('',(22.35,-21.07021497934,-50.22365068808));
#982 = CARTESIAN_POINT('',(22.35,-21.3804930548,-50.62978627211));
#983 = CARTESIAN_POINT('',(22.35,-21.69125121206,-51.03555445826));
#984 = CARTESIAN_POINT('',(22.35,-22.31754119815,-51.85078718161));
#985 = CARTESIAN_POINT('',(22.35,-22.6330855778,-52.26023852058));
#986 = CARTESIAN_POINT('',(22.35,-22.94938541868,-52.66910861245));
#987 = CARTESIAN_POINT('',(22.35,-23.26659515592,-53.07727667884));
#988 = CARTESIAN_POINT('',(22.35,-23.5848919883,-53.48460018941));
#989 = CARTESIAN_POINT('',(22.35,-23.90448252335,-53.89090967636));
#990 = CARTESIAN_POINT('',(22.35,-24.22561321224,-54.29600057597));
#991 = CARTESIAN_POINT('',(22.35,-24.89857292621,-55.13700710125));
#992 = CARTESIAN_POINT('',(22.35,-25.25069851308,-55.57263674544));
#993 = CARTESIAN_POINT('',(22.35,-25.60536831755,-56.00621820261));
#994 = CARTESIAN_POINT('',(22.35,-25.96303738152,-56.43737154381));
#995 = CARTESIAN_POINT('',(22.35,-26.3242515632,-56.86559263299));
#996 = CARTESIAN_POINT('',(22.35,-26.68966436747,-57.29023916931));
#997 = CARTESIAN_POINT('',(22.35,-27.06010969427,-57.71046924375));
#998 = CARTESIAN_POINT('',(22.35,-27.71664292881,-58.43303855045));
#999 = CARTESIAN_POINT('',(22.35,-27.99979864333,-58.73776227841));
#1000 = CARTESIAN_POINT('',(22.35,-28.28688350693,-59.0388613435));
#1001 = CARTESIAN_POINT('',(22.35,-28.57854797513,-59.33571209873));
#1002 = CARTESIAN_POINT('',(22.35,-28.87547289701,-59.6274633106));
#1003 = CARTESIAN_POINT('',(22.35,-29.17858457075,-59.91279971056));
#1004 = CARTESIAN_POINT('',(22.35,-29.48896076035,-60.1900497766));
#1005 = CARTESIAN_POINT('',(22.35,-29.9596996581,-60.58165837948));
#1006 = CARTESIAN_POINT('',(22.35,-30.11258741736,-60.70460856113));
#1007 = CARTESIAN_POINT('',(22.35,-30.2677734801,-60.82471987282));
#1008 = CARTESIAN_POINT('',(22.35,-30.42552381289,-60.94159462952));
#1009 = CARTESIAN_POINT('',(22.35,-30.58611675861,-61.05465064576));
#1010 = CARTESIAN_POINT('',(22.35,-30.7498442585,-61.16312282991));
#1011 = CARTESIAN_POINT('',(22.35,-30.91706882925,-61.26598351378));
#1012 = CARTESIAN_POINT('',(22.35,-31.2345312451,-61.44319763585));
#1013 = CARTESIAN_POINT('',(22.35,-31.38268510007,-61.51898725685));
#1014 = CARTESIAN_POINT('',(22.35,-31.53417473902,-61.5886507536));
#1015 = CARTESIAN_POINT('',(22.35,-31.68969564241,-61.6509832149));
#1016 = CARTESIAN_POINT('',(22.35,-31.84936781093,-61.70374295723));
#1017 = CARTESIAN_POINT('',(22.35,-32.01272039808,-61.74376483762));
#1018 = CARTESIAN_POINT('',(22.35,-32.17872914623,-61.7668419136));
#1019 = CARTESIAN_POINT('',(22.35,-32.34599109976,-61.7668419136));
#1020 = PCURVE('',#601,#1021);
#1021 = DEFINITIONAL_REPRESENTATION('',(#1022),#1095);
#1022 = B_SPLINE_CURVE_WITH_KNOTS('',8,(#1023,#1024,#1025,#1026,#1027,
    #1028,#1029,#1030,#1031,#1032,#1033,#1034,#1035,#1036,#1037,#1038,
    #1039,#1040,#1041,#1042,#1043,#1044,#1045,#1046,#1047,#1048,#1049,
    #1050,#1051,#1052,#1053,#1054,#1055,#1056,#1057,#1058,#1059,#1060,
    #1061,#1062,#1063,#1064,#1065,#1066,#1067,#1068,#1069,#1070,#1071,
    #1072,#1073,#1074,#1075,#1076,#1077,#1078,#1079,#1080,#1081,#1082,
    #1083,#1084,#1085,#1086,#1087,#1088,#1089,#1090,#1091,#1092,#1093,
    #1094),.UNSPECIFIED.,.F.,.F.,(9,7,7,7,7,7,7,7,7,7,9),(0.,
    8.863249095406E-02,0.28232010815,0.484865191399,0.538279936424,
    0.63793609676,0.73873068197,0.847956869882,0.929094677077,
    0.967367331251,1.),.UNSPECIFIED.);
#1023 = CARTESIAN_POINT('',(38.270175350103,-36.));
#1024 = CARTESIAN_POINT('',(37.913438945153,-35.71828617041));
#1025 = CARTESIAN_POINT('',(37.556695002416,-35.43658187425));
#1026 = CARTESIAN_POINT('',(37.199924515723,-35.15491115425));
#1027 = CARTESIAN_POINT('',(36.843109754665,-34.87329647205));
#1028 = CARTESIAN_POINT('',(36.486234264591,-34.59175870817));
#1029 = CARTESIAN_POINT('',(36.129282866612,-34.31031716204));
#1030 = CARTESIAN_POINT('',(35.7722416576,-34.02898955197));
#1031 = CARTESIAN_POINT('',(34.634635887104,-33.13329410052));
#1032 = CARTESIAN_POINT('',(33.853684166521,-32.51941731046));
#1033 = CARTESIAN_POINT('',(33.072110756888,-31.90633139311));
#1034 = CARTESIAN_POINT('',(32.289811395263,-31.29417138394));
#1035 = CARTESIAN_POINT('',(31.506707922668,-30.68303981337));
#1036 = CARTESIAN_POINT('',(30.722747880186,-30.07300722052));
#1037 = CARTESIAN_POINT('',(29.937905425807,-29.46411097286));
#1038 = CARTESIAN_POINT('',(28.330530125154,-28.22080059925));
#1039 = CARTESIAN_POINT('',(27.507913926516,-27.58649171645));
#1040 = CARTESIAN_POINT('',(26.684338318502,-26.95342821419));
#1041 = CARTESIAN_POINT('',(25.85984151593,-26.32156549372));
#1042 = CARTESIAN_POINT('',(25.034497250158,-25.69081104861));
#1043 = CARTESIAN_POINT('',(24.208422614178,-25.06101419401));
#1044 = CARTESIAN_POINT('',(23.381793108687,-24.43194636356));
#1045 = CARTESIAN_POINT('',(22.33678919312,-23.63747934301));
#1046 = CARTESIAN_POINT('',(22.118692757125,-23.47171398951));
#1047 = CARTESIAN_POINT('',(21.900580200376,-23.30596983972));
#1048 = CARTESIAN_POINT('',(21.682456623285,-23.14024018476));
#1049 = CARTESIAN_POINT('',(21.46432760745,-22.97451768063));
#1050 = CARTESIAN_POINT('',(21.246199215649,-22.80879434816));
#1051 = CARTESIAN_POINT('',(21.028077991843,-22.64306157299));
#1052 = CARTESIAN_POINT('',(20.403047569372,-22.16806675351));
#1053 = CARTESIAN_POINT('',(19.996173877442,-21.85875852007));
#1054 = CARTESIAN_POINT('',(19.589396220726,-21.54932374305));
#1055 = CARTESIAN_POINT('',(19.182767523436,-21.23969271027));
#1056 = CARTESIAN_POINT('',(18.776349311913,-20.92978502065));
#1057 = CARTESIAN_POINT('',(18.370213727889,-20.61950694519));
#1058 = CARTESIAN_POINT('',(17.964445541739,-20.30874878794));
#1059 = CARTESIAN_POINT('',(17.149212818389,-19.68245880184));
#1060 = CARTESIAN_POINT('',(16.739761479418,-19.36691442219));
#1061 = CARTESIAN_POINT('',(16.330891387549,-19.05061458132));
#1062 = CARTESIAN_POINT('',(15.922723321151,-18.73340484407));
#1063 = CARTESIAN_POINT('',(15.515399810585,-18.41510801169));
#1064 = CARTESIAN_POINT('',(15.109090323631,-18.09551747665));
#1065 = CARTESIAN_POINT('',(14.703999424028,-17.77438678775));
#1066 = CARTESIAN_POINT('',(13.862992898748,-17.10142707378));
#1067 = CARTESIAN_POINT('',(13.427363254558,-16.74930148691));
#1068 = CARTESIAN_POINT('',(12.993781797389,-16.39463168244));
#1069 = CARTESIAN_POINT('',(12.562628456183,-16.03696261847));
#1070 = CARTESIAN_POINT('',(12.134407367007,-15.67574843679));
#1071 = CARTESIAN_POINT('',(11.709760830681,-15.31033563252));
#1072 = CARTESIAN_POINT('',(11.289530756243,-14.93989030572));
#1073 = CARTESIAN_POINT('',(10.566961449544,-14.28335707119));
#1074 = CARTESIAN_POINT('',(10.262237721585,-14.00020135666));
#1075 = CARTESIAN_POINT('',(9.961138656498,-13.71311649306));
#1076 = CARTESIAN_POINT('',(9.664287901266,-13.42145202486));
#1077 = CARTESIAN_POINT('',(9.372536689398,-13.12452710298));
#1078 = CARTESIAN_POINT('',(9.087200289436,-12.82141542924));
#1079 = CARTESIAN_POINT('',(8.809950223398,-12.51103923965));
#1080 = CARTESIAN_POINT('',(8.418341620517,-12.04030034189));
#1081 = CARTESIAN_POINT('',(8.295391438869,-11.88741258263));
#1082 = CARTESIAN_POINT('',(8.175280127178,-11.73222651989));
#1083 = CARTESIAN_POINT('',(8.058405370476,-11.5744761871));
#1084 = CARTESIAN_POINT('',(7.945349354233,-11.41388324138));
#1085 = CARTESIAN_POINT('',(7.836877170085,-11.25015574149));
#1086 = CARTESIAN_POINT('',(7.734016486213,-11.08293117074));
#1087 = CARTESIAN_POINT('',(7.556802364147,-10.76546875489));
#1088 = CARTESIAN_POINT('',(7.481012743145,-10.61731489993));
#1089 = CARTESIAN_POINT('',(7.411349246395,-10.46582526097));
#1090 = CARTESIAN_POINT('',(7.349016785099,-10.31030435758));
#1091 = CARTESIAN_POINT('',(7.296257042766,-10.15063218906));
#1092 = CARTESIAN_POINT('',(7.256235162372,-9.987279601914));
#1093 = CARTESIAN_POINT('',(7.233158086396,-9.82127085377));
#1094 = CARTESIAN_POINT('',(7.233158086397,-9.654008900239));
#1095 = ( GEOMETRIC_REPRESENTATION_CONTEXT(2) 
PARAMETRIC_REPRESENTATION_CONTEXT() REPRESENTATION_CONTEXT('2D SPACE',''
  ) );
#1096 = PCURVE('',#148,#1097);
#1097 = DEFINITIONAL_REPRESENTATION('',(#1098),#1171);
#1098 = B_SPLINE_CURVE_WITH_KNOTS('',8,(#1099,#1100,#1101,#1102,#1103,
    #1104,#1105,#1106,#1107,#1108,#1109,#1110,#1111,#1112,#1113,#1114,
    #1115,#1116,#1117,#1118,#1119,#1120,#1121,#1122,#1123,#1124,#1125,
    #1126,#1127,#1128,#1129,#1130,#1131,#1132,#1133,#1134,#1135,#1136,
    #1137,#1138,#1139,#1140,#1141,#1142,#1143,#1144,#1145,#1146,#1147,
    #1148,#1149,#1150,#1151,#1152,#1153,#1154,#1155,#1156,#1157,#1158,
    #1159,#1160,#1161,#1162,#1163,#1164,#1165,#1166,#1167,#1168,#1169,
    #1170),.UNSPECIFIED.,.F.,.F.,(9,7,7,7,7,7,7,7,7,7,9),(0.,
    8.863249095406E-02,0.28232010815,0.484865191399,0.538279936424,
    0.63793609676,0.73873068197,0.847956869882,0.929094677077,
    0.967367331251,1.),.UNSPECIFIED.);
#1099 = CARTESIAN_POINT('',(1.094079191818,0.552445038275));
#1100 = CARTESIAN_POINT('',(1.093505971128,0.548005118341));
#1101 = CARTESIAN_POINT('',(1.092923778104,0.543568227135));
#1102 = CARTESIAN_POINT('',(1.092332707774,0.539134255985));
#1103 = CARTESIAN_POINT('',(1.091732861539,0.534703101519));
#1104 = CARTESIAN_POINT('',(1.091124347174,0.530274665669));
#1105 = CARTESIAN_POINT('',(1.090507278833,0.525848855674));
#1106 = CARTESIAN_POINT('',(1.089881777042,0.521425584071));
#1107 = CARTESIAN_POINT('',(1.087862914254,0.507344009032));
#1108 = CARTESIAN_POINT('',(1.086438190295,0.49769497513));
#1109 = CARTESIAN_POINT('',(1.084975120574,0.488056810222));
#1110 = CARTESIAN_POINT('',(1.083475159409,0.47842877235));
#1111 = CARTESIAN_POINT('',(1.081939887458,0.468810222407));
#1112 = CARTESIAN_POINT('',(1.080370978612,0.459200626824));
#1113 = CARTESIAN_POINT('',(1.078770138018,0.449599574948));
#1114 = CARTESIAN_POINT('',(1.075433291879,0.429975363629));
#1115 = CARTESIAN_POINT('',(1.07369444716,0.419952966339));
#1116 = CARTESIAN_POINT('',(1.071924368378,0.40993932573));
#1117 = CARTESIAN_POINT('',(1.070124833275,0.399934337991));
#1118 = CARTESIAN_POINT('',(1.068297429451,0.389938103426));
#1119 = CARTESIAN_POINT('',(1.066443335002,0.379951026502));
#1120 = CARTESIAN_POINT('',(1.064562956352,0.369974001487));
#1121 = CARTESIAN_POINT('',(1.062152372852,0.357380651943));
#1122 = CARTESIAN_POINT('',(1.061647432737,0.354753434824));
#1123 = CARTESIAN_POINT('',(1.061140588463,0.352127061734));
#1124 = CARTESIAN_POINT('',(1.060631817462,0.349501566865));
#1125 = CARTESIAN_POINT('',(1.06012108907,0.346876989202));
#1126 = CARTESIAN_POINT('',(1.059608364531,0.34425337252));
#1127 = CARTESIAN_POINT('',(1.059093596996,0.341630765386));
#1128 = CARTESIAN_POINT('',(1.057612412993,0.334118192818));
#1129 = CARTESIAN_POINT('',(1.056640791747,0.329230867844));
#1130 = CARTESIAN_POINT('',(1.055661489291,0.324347601529));
#1131 = CARTESIAN_POINT('',(1.054674018658,0.31946881636));
#1132 = CARTESIAN_POINT('',(1.053677743788,0.314595026593));
#1133 = CARTESIAN_POINT('',(1.052671838905,0.309726862818));
#1134 = CARTESIAN_POINT('',(1.051655247896,0.304865096531));
#1135 = CARTESIAN_POINT('',(1.049586289196,0.29510077813));
#1136 = CARTESIAN_POINT('',(1.048533646925,0.290198424218));
#1137 = CARTESIAN_POINT('',(1.047467334091,0.285304553079));
#1138 = CARTESIAN_POINT('',(1.046385657463,0.280420339064));
#1139 = CARTESIAN_POINT('',(1.045286568841,0.275547207732));
#1140 = CARTESIAN_POINT('',(1.044167566368,0.270686899355));
#1141 = CARTESIAN_POINT('',(1.043025541684,0.26584156897));
#1142 = CARTESIAN_POINT('',(1.040589818369,0.255782437849));
#1143 = CARTESIAN_POINT('',(1.039291513512,0.250572076742));
#1144 = CARTESIAN_POINT('',(1.037956556935,0.245385969146));
#1145 = CARTESIAN_POINT('',(1.036578869436,0.240228284096));
#1146 = CARTESIAN_POINT('',(1.035150768942,0.23510468127));
#1147 = CARTESIAN_POINT('',(1.033662713949,0.230022485369));
#1148 = CARTESIAN_POINT('',(1.032102246236,0.224991438444));
#1149 = CARTESIAN_POINT('',(1.029224321362,0.216337262737));
#1150 = CARTESIAN_POINT('',(1.027948118268,0.212686483608));
#1151 = CARTESIAN_POINT('',(1.026614448233,0.209077884937));
#1152 = CARTESIAN_POINT('',(1.025213629285,0.205518841027));
#1153 = CARTESIAN_POINT('',(1.023734473552,0.202019476135));
#1154 = CARTESIAN_POINT('',(1.022160965309,0.19859552592));
#1155 = CARTESIAN_POINT('',(1.020473710703,0.195267057383));
#1156 = CARTESIAN_POINT('',(1.017767547565,0.190563520376));
#1157 = CARTESIAN_POINT('',(1.016867048729,0.189086448591));
#1158 = CARTESIAN_POINT('',(1.015929140295,0.187643146261));
#1159 = CARTESIAN_POINT('',(1.014949146603,0.186238407535));
#1160 = CARTESIAN_POINT('',(1.013921345207,0.184879251726));
#1161 = CARTESIAN_POINT('',(1.012838963295,0.183574907371));
#1162 = CARTESIAN_POINT('',(1.011693222737,0.182337774722));
#1163 = CARTESIAN_POINT('',(1.009426743657,0.180205967802));
#1164 = CARTESIAN_POINT('',(1.008334037303,0.179294081315));
#1165 = CARTESIAN_POINT('',(1.007177169377,0.178455756615));
#1166 = CARTESIAN_POINT('',(1.005943218494,0.177705530805));
#1167 = CARTESIAN_POINT('',(1.004619852882,0.177070425556));
#1168 = CARTESIAN_POINT('',(1.003196084186,0.176588602158));
#1169 = CARTESIAN_POINT('',(1.001661417879,0.176310776613));
#1170 = CARTESIAN_POINT('',(1.,0.176310776613));
#1171 = ( GEOMETRIC_REPRESENTATION_CONTEXT(2) 
PARAMETRIC_REPRESENTATION_CONTEXT() REPRESENTATION_CONTEXT('2D SPACE',''
  ) );
#1172 = ORIENTED_EDGE('',*,*,#583,.T.);
#1173 = ADVANCED_FACE('',(#1174),#314,.T.);
#1174 = FACE_BOUND('',#1175,.T.);
#1175 = EDGE_LOOP('',(#1176,#1177,#1216,#1217));
#1176 = ORIENTED_EDGE('',*,*,#298,.F.);
#1177 = ORIENTED_EDGE('',*,*,#1178,.F.);
#1178 = EDGE_CURVE('',#693,#299,#1179,.T.);
#1179 = SURFACE_CURVE('',#1180,(#1190,#1203),.PCURVE_S1.);
#1180 = B_SPLINE_CURVE_WITH_KNOTS('',8,(#1181,#1182,#1183,#1184,#1185,
    #1186,#1187,#1188,#1189),.UNSPECIFIED.,.F.,.F.,(9,9),(0.,1.),
  .PIECEWISE_BEZIER_KNOTS.);
#1181 = CARTESIAN_POINT('',(22.35,-22.66608149244,-18.));
#1182 = CARTESIAN_POINT('',(21.00267448096,-23.85707040004,-18.));
#1183 = CARTESIAN_POINT('',(19.555335034003,-24.93186078665,-18.));
#1184 = CARTESIAN_POINT('',(18.02722757814,-25.89396261184,-18.));
#1185 = CARTESIAN_POINT('',(16.434477400064,-26.74630043737,-18.));
#1186 = CARTESIAN_POINT('',(14.790755255596,-27.49228347451,-18.));
#1187 = CARTESIAN_POINT('',(13.107062418288,-28.13537963896,-18.));
#1188 = CARTESIAN_POINT('',(11.391716813125,-28.67896986246,-18.));
#1189 = CARTESIAN_POINT('',(9.65,-29.12561144066,-18.));
#1190 = PCURVE('',#314,#1191);
#1191 = DEFINITIONAL_REPRESENTATION('',(#1192),#1202);
#1192 = B_SPLINE_CURVE_WITH_KNOTS('',8,(#1193,#1194,#1195,#1196,#1197,
    #1198,#1199,#1200,#1201),.UNSPECIFIED.,.F.,.F.,(9,9),(0.,1.),
  .PIECEWISE_BEZIER_KNOTS.);
#1193 = CARTESIAN_POINT('',(12.7,19.333918507551));
#1194 = CARTESIAN_POINT('',(11.35267448096,18.142929599956));
#1195 = CARTESIAN_POINT('',(9.905335034003,17.068139213345));
#1196 = CARTESIAN_POINT('',(8.37722757814,16.106037388152));
#1197 = CARTESIAN_POINT('',(6.784477400064,15.253699562622));
#1198 = CARTESIAN_POINT('',(5.140755255596,14.507716525487));
#1199 = CARTESIAN_POINT('',(3.457062418288,13.864620361035));
#1200 = CARTESIAN_POINT('',(1.741716813125,13.32103013754));
#1201 = CARTESIAN_POINT('',(0.,12.874388559335));
#1202 = ( GEOMETRIC_REPRESENTATION_CONTEXT(2) 
PARAMETRIC_REPRESENTATION_CONTEXT() REPRESENTATION_CONTEXT('2D SPACE',''
  ) );
#1203 = PCURVE('',#148,#1204);
#1204 = DEFINITIONAL_REPRESENTATION('',(#1205),#1215);
#1205 = B_SPLINE_CURVE_WITH_KNOTS('',8,(#1206,#1207,#1208,#1209,#1210,
    #1211,#1212,#1213,#1214),.UNSPECIFIED.,.F.,.F.,(9,9),(0.,1.),
  .PIECEWISE_BEZIER_KNOTS.);
#1206 = CARTESIAN_POINT('',(0.890857133506,0.711638308331));
#1207 = CARTESIAN_POINT('',(0.879131562611,0.711638308331));
#1208 = CARTESIAN_POINT('',(0.867742162526,0.711638308331));
#1209 = CARTESIAN_POINT('',(0.856638454433,0.711638308331));
#1210 = CARTESIAN_POINT('',(0.845785704638,0.711638308331));
#1211 = CARTESIAN_POINT('',(0.835151669565,0.711638308331));
#1212 = CARTESIAN_POINT('',(0.824704942757,0.711638308331));
#1213 = CARTESIAN_POINT('',(0.81441066909,0.711638308331));
#1214 = CARTESIAN_POINT('',(0.804226264105,0.711638308331));
#1215 = ( GEOMETRIC_REPRESENTATION_CONTEXT(2) 
PARAMETRIC_REPRESENTATION_CONTEXT() REPRESENTATION_CONTEXT('2D SPACE',''
  ) );
#1216 = ORIENTED_EDGE('',*,*,#692,.T.);
#1217 = ORIENTED_EDGE('',*,*,#668,.F.);
#1218 = ADVANCED_FACE('',(#1219),#148,.T.);
#1219 = FACE_BOUND('',#1220,.T.);
#1220 = EDGE_LOOP('',(#1221,#1222,#1223,#1224,#1225,#1226,#1227,#1228));
#1221 = ORIENTED_EDGE('',*,*,#461,.T.);
#1222 = ORIENTED_EDGE('',*,*,#84,.T.);
#1223 = ORIENTED_EDGE('',*,*,#613,.T.);
#1224 = ORIENTED_EDGE('',*,*,#945,.T.);
#1225 = ORIENTED_EDGE('',*,*,#715,.T.);
#1226 = ORIENTED_EDGE('',*,*,#1178,.T.);
#1227 = ORIENTED_EDGE('',*,*,#326,.F.);
#1228 = ORIENTED_EDGE('',*,*,#1229,.T.);
#1229 = EDGE_CURVE('',#24,#439,#1230,.T.);
#1230 = SURFACE_CURVE('',#1231,(#1252,#1276),.PCURVE_S1.);
#1231 = B_SPLINE_CURVE_WITH_KNOTS('',7,(#1232,#1233,#1234,#1235,#1236,
    #1237,#1238,#1239,#1240,#1241,#1242,#1243,#1244,#1245,#1246,#1247,
    #1248,#1249,#1250,#1251),.UNSPECIFIED.,.F.,.F.,(8,6,6,8),(0.,
    0.156521776147,0.523278526122,1.),.UNSPECIFIED.);
#1232 = CARTESIAN_POINT('',(9.65,-42.,-49.70055501197));
#1233 = CARTESIAN_POINT('',(10.032009465607,-42.,-50.01717448413));
#1234 = CARTESIAN_POINT('',(10.40504469541,-42.,-50.34460319522));
#1235 = CARTESIAN_POINT('',(10.769148633031,-42.,-50.68206924129));
#1236 = CARTESIAN_POINT('',(11.124396996256,-42.,-51.02885421067));
#1237 = CARTESIAN_POINT('',(11.470891623122,-42.,-51.38430004197));
#1238 = CARTESIAN_POINT('',(11.808753817999,-42.,-51.74781588194));
#1239 = CARTESIAN_POINT('',(12.909872459497,-42.,-52.9883619349));
#1240 = CARTESIAN_POINT('',(13.634637423141,-42.,-53.89893522166));
#1241 = CARTESIAN_POINT('',(14.31461219901,-42.,-54.84435019856));
#1242 = CARTESIAN_POINT('',(14.951230719136,-42.,-55.81955356267));
#1243 = CARTESIAN_POINT('',(15.545320809879,-42.,-56.82057633718));
#1244 = CARTESIAN_POINT('',(16.097043587494,-42.,-57.84456360928));
#1245 = CARTESIAN_POINT('',(17.26666610167,-42.,-60.24877698593));
#1246 = CARTESIAN_POINT('',(17.853833656882,-42.,-61.64175377894));
#1247 = CARTESIAN_POINT('',(18.36637109243,-42.,-63.06649256431));
#1248 = CARTESIAN_POINT('',(18.798155497233,-42.,-64.51978959116));
#1249 = CARTESIAN_POINT('',(19.139086455556,-42.,-65.99714970822));
#1250 = CARTESIAN_POINT('',(19.374642501349,-42.,-67.49291182352));
#1251 = CARTESIAN_POINT('',(19.486832515573,-42.,-69.));
#1252 = PCURVE('',#148,#1253);
#1253 = DEFINITIONAL_REPRESENTATION('',(#1254),#1275);
#1254 = B_SPLINE_CURVE_WITH_KNOTS('',7,(#1255,#1256,#1257,#1258,#1259,
    #1260,#1261,#1262,#1263,#1264,#1265,#1266,#1267,#1268,#1269,#1270,
    #1271,#1272,#1273,#1274),.UNSPECIFIED.,.F.,.F.,(8,6,6,8),(0.,
    0.156521776147,0.523278526122,1.),.UNSPECIFIED.);
#1255 = CARTESIAN_POINT('',(0.816588563912,0.320870978364));
#1256 = CARTESIAN_POINT('',(0.819513303768,0.317072478289));
#1257 = CARTESIAN_POINT('',(0.8224146969,0.313145853888));
#1258 = CARTESIAN_POINT('',(0.825293510152,0.309100444836));
#1259 = CARTESIAN_POINT('',(0.82815055693,0.304944895309));
#1260 = CARTESIAN_POINT('',(0.830986719116,0.300687071806));
#1261 = CARTESIAN_POINT('',(0.833802968995,0.296333980982));
#1262 = CARTESIAN_POINT('',(0.843155220093,0.281482649372));
#1263 = CARTESIAN_POINT('',(0.849603881407,0.270588326466));
#1264 = CARTESIAN_POINT('',(0.855963867995,0.259282042624));
#1265 = CARTESIAN_POINT('',(0.862247403128,0.247621073359));
#1266 = CARTESIAN_POINT('',(0.868464388595,0.235648219518));
#1267 = CARTESIAN_POINT('',(0.874624805694,0.223391443198));
#1268 = CARTESIAN_POINT('',(0.88869002257,0.194574853848));
#1269 = CARTESIAN_POINT('',(0.896552325233,0.17785075692));
#1270 = CARTESIAN_POINT('',(0.904361390607,0.160700599431));
#1271 = CARTESIAN_POINT('',(0.912129066997,0.143140523209));
#1272 = CARTESIAN_POINT('',(0.919857470147,0.125196509882));
#1273 = CARTESIAN_POINT('',(0.927543916825,0.106902410274));
#1274 = CARTESIAN_POINT('',(0.935191756129,8.830527298961E-02));
#1275 = ( GEOMETRIC_REPRESENTATION_CONTEXT(2) 
PARAMETRIC_REPRESENTATION_CONTEXT() REPRESENTATION_CONTEXT('2D SPACE',''
  ) );
#1276 = PCURVE('',#44,#1277);
#1277 = DEFINITIONAL_REPRESENTATION('',(#1278),#1299);
#1278 = B_SPLINE_CURVE_WITH_KNOTS('',7,(#1279,#1280,#1281,#1282,#1283,
    #1284,#1285,#1286,#1287,#1288,#1289,#1290,#1291,#1292,#1293,#1294,
    #1295,#1296,#1297,#1298),.UNSPECIFIED.,.F.,.F.,(8,6,6,8),(0.,
    0.156521776147,0.523278526122,1.),.UNSPECIFIED.);
#1279 = CARTESIAN_POINT('',(19.299444988029,0.));
#1280 = CARTESIAN_POINT('',(18.982825515868,0.382009465607));
#1281 = CARTESIAN_POINT('',(18.655396804772,0.75504469541));
#1282 = CARTESIAN_POINT('',(18.317930758708,1.119148633031));
#1283 = CARTESIAN_POINT('',(17.971145789325,1.474396996256));
#1284 = CARTESIAN_POINT('',(17.615699958029,1.820891623122));
#1285 = CARTESIAN_POINT('',(17.252184118055,2.158753817999));
#1286 = CARTESIAN_POINT('',(16.011638065099,3.259872459497));
#1287 = CARTESIAN_POINT('',(15.101064778339,3.984637423141));
#1288 = CARTESIAN_POINT('',(14.155649801434,4.66461219901));
#1289 = CARTESIAN_POINT('',(13.18044643733,5.301230719136));
#1290 = CARTESIAN_POINT('',(12.179423662818,5.895320809879));
#1291 = CARTESIAN_POINT('',(11.155436390714,6.447043587494));
#1292 = CARTESIAN_POINT('',(8.751223014062,7.61666610167));
#1293 = CARTESIAN_POINT('',(7.358246221057,8.203833656882));
#1294 = CARTESIAN_POINT('',(5.933507435685,8.71637109243));
#1295 = CARTESIAN_POINT('',(4.480210408832,9.148155497233));
#1296 = CARTESIAN_POINT('',(3.002850291778,9.489086455556));
#1297 = CARTESIAN_POINT('',(1.507088176474,9.724642501349));
#1298 = CARTESIAN_POINT('',(0.,9.836832515573));
#1299 = ( GEOMETRIC_REPRESENTATION_CONTEXT(2) 
PARAMETRIC_REPRESENTATION_CONTEXT() REPRESENTATION_CONTEXT('2D SPACE',''
  ) );
#1300 = ADVANCED_FACE('',(#1301),#44,.F.);
#1301 = FACE_BOUND('',#1302,.F.);
#1302 = EDGE_LOOP('',(#1303,#1304,#1305));
#1303 = ORIENTED_EDGE('',*,*,#438,.F.);
#1304 = ORIENTED_EDGE('',*,*,#21,.T.);
#1305 = ORIENTED_EDGE('',*,*,#1229,.T.);
#1306 = ( GEOMETRIC_REPRESENTATION_CONTEXT(3) 
GLOBAL_UNCERTAINTY_ASSIGNED_CONTEXT((#1310)) 
GLOBAL_UNIT_ASSIGNED_CONTEXT((#1307,#1308,#1309)) REPRESENTATION_CONTEXT
('Context #1','3D Context with UNIT and UNCERTAINTY') );
#1307 = ( LENGTH_UNIT() NAMED_UNIT(*) SI_UNIT(.MILLI.,.METRE.) );
#1308 = ( NAMED_UNIT(*) PLANE_ANGLE_UNIT() SI_UNIT($,.RADIAN.) );
#1309 = ( NAMED_UNIT(*) SI_UNIT($,.STERADIAN.) SOLID_ANGLE_UNIT() );
#1310 = UNCERTAINTY_MEASURE_WITH_UNIT(LENGTH_MEASURE(2.E-06),#1307,
  'distance_accuracy_value','confusion accuracy');
#1311 = PRODUCT_RELATED_PRODUCT_CATEGORY('part',$,(#7));
ENDSEC;
END-ISO-10303-21;
