ISO-10303-21;
HEADER;
FILE_DESCRIPTION(('Open CASCADE Model'),'2;1');
FILE_NAME('Open CASCADE Shape Model','2026-08-16T23:33:06',('Author'),(
    'Open CASCADE'),'Open CASCADE STEP processor 7.8','Open CASCADE 7.8'
  ,'Unknown');
FILE_SCHEMA(('AUTOMOTIVE_DESIGN { 1 0 10303 214 1 1 1 1 }'));
ENDSEC;
DATA;
#1 = APPLICATION_PROTOCOL_DEFINITION('international standard',
  'automotive_design',2000,#2);
#2 = APPLICATION_CONTEXT(
  'core data for automotive mechanical design processes');
#3 = SHAPE_DEFINITION_REPRESENTATION(#4,#10);
#4 = PRODUCT_DEFINITION_SHAPE('','',#5);
#5 = PRODUCT_DEFINITION('design','',#6,#9);
#6 = PRODUCT_DEFINITION_FORMATION('','',#7);
#7 = PRODUCT('Open CASCADE STEP translator 7.8 47',
  'Open CASCADE STEP translator 7.8 47','',(#8));
#8 = PRODUCT_CONTEXT('',#2,'mechanical');
#9 = PRODUCT_DEFINITION_CONTEXT('part definition',#2,'design');
#10 = ADVANCED_BREP_SHAPE_REPRESENTATION('',(#11,#15),#878);
#11 = AXIS2_PLACEMENT_3D('',#12,#13,#14);
#12 = CARTESIAN_POINT('',(0.,0.,0.));
#13 = DIRECTION('',(0.,0.,1.));
#14 = DIRECTION('',(1.,0.,-0.));
#15 = MANIFOLD_SOLID_BREP('',#16);
#16 = CLOSED_SHELL('',(#17,#198,#437,#493,#679,#712,#745,#778,#811,#844,
    #851));
#17 = ADVANCED_FACE('',(#18),#33,.F.);
#18 = FACE_BOUND('',#19,.F.);
#19 = EDGE_LOOP('',(#20,#58,#81,#115,#143,#166));
#20 = ORIENTED_EDGE('',*,*,#21,.F.);
#21 = EDGE_CURVE('',#22,#24,#26,.T.);
#22 = VERTEX_POINT('',#23);
#23 = CARTESIAN_POINT('',(42.,0.,6.5));
#24 = VERTEX_POINT('',#25);
#25 = CARTESIAN_POINT('',(33.62539095453,19.773371996476,6.5));
#26 = SURFACE_CURVE('',#27,(#32,#46),.PCURVE_S1.);
#27 = ELLIPSE('',#28,42.,33.);
#28 = AXIS2_PLACEMENT_3D('',#29,#30,#31);
#29 = CARTESIAN_POINT('',(0.,0.,6.5));
#30 = DIRECTION('',(0.,0.,1.));
#31 = DIRECTION('',(1.,0.,0.));
#32 = PCURVE('',#33,#41);
#33 = SURFACE_OF_LINEAR_EXTRUSION('',#34,#39);
#34 = ELLIPSE('',#35,42.,33.);
#35 = AXIS2_PLACEMENT_3D('',#36,#37,#38);
#36 = CARTESIAN_POINT('',(0.,0.,6.5));
#37 = DIRECTION('',(0.,0.,1.));
#38 = DIRECTION('',(1.,0.,0.));
#39 = VECTOR('',#40,1.);
#40 = DIRECTION('',(-0.,-0.,-1.));
#41 = DEFINITIONAL_REPRESENTATION('',(#42),#45);
#42 = B_SPLINE_CURVE_WITH_KNOTS('',1,(#43,#44),.UNSPECIFIED.,.F.,.F.,(2,
    2),(0.,0.642492853342),.PIECEWISE_BEZIER_KNOTS.);
#43 = CARTESIAN_POINT('',(6.28318530718,0.));
#44 = CARTESIAN_POINT('',(6.925678160522,0.));
#45 = ( GEOMETRIC_REPRESENTATION_CONTEXT(2) 
PARAMETRIC_REPRESENTATION_CONTEXT() REPRESENTATION_CONTEXT('2D SPACE',''
  ) );
#46 = PCURVE('',#47,#52);
#47 = PLANE('',#48);
#48 = AXIS2_PLACEMENT_3D('',#49,#50,#51);
#49 = CARTESIAN_POINT('',(1.291200373646,8.959445402093E-16,6.5));
#50 = DIRECTION('',(0.,0.,1.));
#51 = DIRECTION('',(1.,0.,-0.));
#52 = DEFINITIONAL_REPRESENTATION('',(#53),#57);
#53 = ELLIPSE('',#54,42.,33.);
#54 = AXIS2_PLACEMENT_2D('',#55,#56);
#55 = CARTESIAN_POINT('',(-1.291200373646,-8.959445402093E-16));
#56 = DIRECTION('',(1.,0.));
#57 = ( GEOMETRIC_REPRESENTATION_CONTEXT(2) 
PARAMETRIC_REPRESENTATION_CONTEXT() REPRESENTATION_CONTEXT('2D SPACE',''
  ) );
#58 = ORIENTED_EDGE('',*,*,#59,.F.);
#59 = EDGE_CURVE('',#60,#22,#62,.T.);
#60 = VERTEX_POINT('',#61);
#61 = CARTESIAN_POINT('',(33.62539095453,-19.77337199647,6.5));
#62 = SURFACE_CURVE('',#63,(#68,#74),.PCURVE_S1.);
#63 = ELLIPSE('',#64,42.,33.);
#64 = AXIS2_PLACEMENT_3D('',#65,#66,#67);
#65 = CARTESIAN_POINT('',(0.,0.,6.5));
#66 = DIRECTION('',(0.,0.,1.));
#67 = DIRECTION('',(1.,0.,0.));
#68 = PCURVE('',#33,#69);
#69 = DEFINITIONAL_REPRESENTATION('',(#70),#73);
#70 = B_SPLINE_CURVE_WITH_KNOTS('',1,(#71,#72),.UNSPECIFIED.,.F.,.F.,(2,
    2),(5.640692453837,6.28318530718),.PIECEWISE_BEZIER_KNOTS.);
#71 = CARTESIAN_POINT('',(5.640692453837,0.));
#72 = CARTESIAN_POINT('',(6.28318530718,0.));
#73 = ( GEOMETRIC_REPRESENTATION_CONTEXT(2) 
PARAMETRIC_REPRESENTATION_CONTEXT() REPRESENTATION_CONTEXT('2D SPACE',''
  ) );
#74 = PCURVE('',#47,#75);
#75 = DEFINITIONAL_REPRESENTATION('',(#76),#80);
#76 = ELLIPSE('',#77,42.,33.);
#77 = AXIS2_PLACEMENT_2D('',#78,#79);
#78 = CARTESIAN_POINT('',(-1.291200373646,-8.959445402093E-16));
#79 = DIRECTION('',(1.,0.));
#80 = ( GEOMETRIC_REPRESENTATION_CONTEXT(2) 
PARAMETRIC_REPRESENTATION_CONTEXT() REPRESENTATION_CONTEXT('2D SPACE',''
  ) );
#81 = ORIENTED_EDGE('',*,*,#82,.F.);
#82 = EDGE_CURVE('',#83,#60,#85,.T.);
#83 = VERTEX_POINT('',#84);
#84 = CARTESIAN_POINT('',(33.62539095453,-19.77337199647,7.5));
#85 = SURFACE_CURVE('',#86,(#92,#101),.PCURVE_S1.);
#86 = B_SPLINE_CURVE_WITH_KNOTS('',4,(#87,#88,#89,#90,#91),
  .UNSPECIFIED.,.F.,.F.,(5,5),(0.,1.),.PIECEWISE_BEZIER_KNOTS.);
#87 = CARTESIAN_POINT('',(33.62539095453,-19.77337199647,7.5000006));
#88 = CARTESIAN_POINT('',(33.62539095453,-19.77337199647,7.2500003));
#89 = CARTESIAN_POINT('',(33.62539095453,-19.77337199647,7.));
#90 = CARTESIAN_POINT('',(33.62539095453,-19.77337199647,6.7499997));
#91 = CARTESIAN_POINT('',(33.62539095453,-19.77337199647,6.4999994));
#92 = PCURVE('',#33,#93);
#93 = DEFINITIONAL_REPRESENTATION('',(#94),#100);
#94 = B_SPLINE_CURVE_WITH_KNOTS('',4,(#95,#96,#97,#98,#99),
  .UNSPECIFIED.,.F.,.F.,(5,5),(5.999992799071E-07,0.999999400001),
  .PIECEWISE_BEZIER_KNOTS.);
#95 = CARTESIAN_POINT('',(5.640692453837,-1.));
#96 = CARTESIAN_POINT('',(5.640692453837,-0.75));
#97 = CARTESIAN_POINT('',(5.640692453837,-0.5));
#98 = CARTESIAN_POINT('',(5.640692453837,-0.25));
#99 = CARTESIAN_POINT('',(5.640692453837,-1.95055294045E-17));
#100 = ( GEOMETRIC_REPRESENTATION_CONTEXT(2) 
PARAMETRIC_REPRESENTATION_CONTEXT() REPRESENTATION_CONTEXT('2D SPACE',''
  ) );
#101 = PCURVE('',#102,#107);
#102 = CYLINDRICAL_SURFACE('',#103,1.8);
#103 = AXIS2_PLACEMENT_3D('',#104,#105,#106);
#104 = CARTESIAN_POINT('',(32.,-19.,3.));
#105 = DIRECTION('',(-0.,-0.,-1.));
#106 = DIRECTION('',(1.,0.,0.));
#107 = DEFINITIONAL_REPRESENTATION('',(#108),#114);
#108 = B_SPLINE_CURVE_WITH_KNOTS('',4,(#109,#110,#111,#112,#113),
  .UNSPECIFIED.,.F.,.F.,(5,5),(5.999992799071E-07,0.999999400001),
  .PIECEWISE_BEZIER_KNOTS.);
#109 = CARTESIAN_POINT('',(-5.839078936526,-4.5));
#110 = CARTESIAN_POINT('',(-5.839078936526,-4.25));
#111 = CARTESIAN_POINT('',(-5.839078936526,-4.));
#112 = CARTESIAN_POINT('',(-5.839078936526,-3.75));
#113 = CARTESIAN_POINT('',(-5.839078936526,-3.5));
#114 = ( GEOMETRIC_REPRESENTATION_CONTEXT(2) 
PARAMETRIC_REPRESENTATION_CONTEXT() REPRESENTATION_CONTEXT('2D SPACE',''
  ) );
#115 = ORIENTED_EDGE('',*,*,#116,.T.);
#116 = EDGE_CURVE('',#83,#117,#119,.T.);
#117 = VERTEX_POINT('',#118);
#118 = CARTESIAN_POINT('',(42.,0.,7.5));
#119 = SURFACE_CURVE('',#120,(#125,#131),.PCURVE_S1.);
#120 = ELLIPSE('',#121,42.,33.);
#121 = AXIS2_PLACEMENT_3D('',#122,#123,#124);
#122 = CARTESIAN_POINT('',(0.,0.,7.5));
#123 = DIRECTION('',(0.,0.,1.));
#124 = DIRECTION('',(1.,0.,0.));
#125 = PCURVE('',#33,#126);
#126 = DEFINITIONAL_REPRESENTATION('',(#127),#130);
#127 = B_SPLINE_CURVE_WITH_KNOTS('',1,(#128,#129),.UNSPECIFIED.,.F.,.F.,
  (2,2),(5.640692453837,6.28318530718),.PIECEWISE_BEZIER_KNOTS.);
#128 = CARTESIAN_POINT('',(5.640692453837,-1.));
#129 = CARTESIAN_POINT('',(6.28318530718,-1.));
#130 = ( GEOMETRIC_REPRESENTATION_CONTEXT(2) 
PARAMETRIC_REPRESENTATION_CONTEXT() REPRESENTATION_CONTEXT('2D SPACE',''
  ) );
#131 = PCURVE('',#132,#137);
#132 = PLANE('',#133);
#133 = AXIS2_PLACEMENT_3D('',#134,#135,#136);
#134 = CARTESIAN_POINT('',(1.291200373646,8.959445402093E-16,7.5));
#135 = DIRECTION('',(0.,0.,1.));
#136 = DIRECTION('',(1.,0.,-0.));
#137 = DEFINITIONAL_REPRESENTATION('',(#138),#142);
#138 = ELLIPSE('',#139,42.,33.);
#139 = AXIS2_PLACEMENT_2D('',#140,#141);
#140 = CARTESIAN_POINT('',(-1.291200373646,-8.959445402093E-16));
#141 = DIRECTION('',(1.,0.));
#142 = ( GEOMETRIC_REPRESENTATION_CONTEXT(2) 
PARAMETRIC_REPRESENTATION_CONTEXT() REPRESENTATION_CONTEXT('2D SPACE',''
  ) );
#143 = ORIENTED_EDGE('',*,*,#144,.T.);
#144 = EDGE_CURVE('',#117,#145,#147,.T.);
#145 = VERTEX_POINT('',#146);
#146 = CARTESIAN_POINT('',(33.62539095453,19.773371996476,7.5));
#147 = SURFACE_CURVE('',#148,(#153,#159),.PCURVE_S1.);
#148 = ELLIPSE('',#149,42.,33.);
#149 = AXIS2_PLACEMENT_3D('',#150,#151,#152);
#150 = CARTESIAN_POINT('',(0.,0.,7.5));
#151 = DIRECTION('',(0.,0.,1.));
#152 = DIRECTION('',(1.,0.,0.));
#153 = PCURVE('',#33,#154);
#154 = DEFINITIONAL_REPRESENTATION('',(#155),#158);
#155 = B_SPLINE_CURVE_WITH_KNOTS('',1,(#156,#157),.UNSPECIFIED.,.F.,.F.,
  (2,2),(0.,0.642492853342),.PIECEWISE_BEZIER_KNOTS.);
#156 = CARTESIAN_POINT('',(6.28318530718,-1.));
#157 = CARTESIAN_POINT('',(6.925678160522,-1.));
#158 = ( GEOMETRIC_REPRESENTATION_CONTEXT(2) 
PARAMETRIC_REPRESENTATION_CONTEXT() REPRESENTATION_CONTEXT('2D SPACE',''
  ) );
#159 = PCURVE('',#132,#160);
#160 = DEFINITIONAL_REPRESENTATION('',(#161),#165);
#161 = ELLIPSE('',#162,42.,33.);
#162 = AXIS2_PLACEMENT_2D('',#163,#164);
#163 = CARTESIAN_POINT('',(-1.291200373646,-8.959445402093E-16));
#164 = DIRECTION('',(1.,0.));
#165 = ( GEOMETRIC_REPRESENTATION_CONTEXT(2) 
PARAMETRIC_REPRESENTATION_CONTEXT() REPRESENTATION_CONTEXT('2D SPACE',''
  ) );
#166 = ORIENTED_EDGE('',*,*,#167,.T.);
#167 = EDGE_CURVE('',#145,#24,#168,.T.);
#168 = SURFACE_CURVE('',#169,(#175,#184),.PCURVE_S1.);
#169 = B_SPLINE_CURVE_WITH_KNOTS('',4,(#170,#171,#172,#173,#174),
  .UNSPECIFIED.,.F.,.F.,(5,5),(0.,1.),.PIECEWISE_BEZIER_KNOTS.);
#170 = CARTESIAN_POINT('',(33.62539095453,19.773371996476,7.5000006));
#171 = CARTESIAN_POINT('',(33.62539095453,19.773371996476,7.2500003));
#172 = CARTESIAN_POINT('',(33.62539095453,19.773371996476,7.));
#173 = CARTESIAN_POINT('',(33.62539095453,19.773371996476,6.7499997));
#174 = CARTESIAN_POINT('',(33.62539095453,19.773371996476,6.4999994));
#175 = PCURVE('',#33,#176);
#176 = DEFINITIONAL_REPRESENTATION('',(#177),#183);
#177 = B_SPLINE_CURVE_WITH_KNOTS('',4,(#178,#179,#180,#181,#182),
  .UNSPECIFIED.,.F.,.F.,(5,5),(5.999992799071E-07,0.999999400001),
  .PIECEWISE_BEZIER_KNOTS.);
#178 = CARTESIAN_POINT('',(6.925678160522,-1.));
#179 = CARTESIAN_POINT('',(6.925678160522,-0.75));
#180 = CARTESIAN_POINT('',(6.925678160522,-0.5));
#181 = CARTESIAN_POINT('',(6.925678160522,-0.25));
#182 = CARTESIAN_POINT('',(6.925678160522,-1.95055294045E-17));
#183 = ( GEOMETRIC_REPRESENTATION_CONTEXT(2) 
PARAMETRIC_REPRESENTATION_CONTEXT() REPRESENTATION_CONTEXT('2D SPACE',''
  ) );
#184 = PCURVE('',#185,#190);
#185 = CYLINDRICAL_SURFACE('',#186,1.8);
#186 = AXIS2_PLACEMENT_3D('',#187,#188,#189);
#187 = CARTESIAN_POINT('',(32.,19.,3.));
#188 = DIRECTION('',(-0.,-0.,-1.));
#189 = DIRECTION('',(1.,0.,0.));
#190 = DEFINITIONAL_REPRESENTATION('',(#191),#197);
#191 = B_SPLINE_CURVE_WITH_KNOTS('',4,(#192,#193,#194,#195,#196),
  .UNSPECIFIED.,.F.,.F.,(5,5),(5.999992799071E-07,0.999999400001),
  .PIECEWISE_BEZIER_KNOTS.);
#192 = CARTESIAN_POINT('',(-6.727291677833,-4.5));
#193 = CARTESIAN_POINT('',(-6.727291677833,-4.25));
#194 = CARTESIAN_POINT('',(-6.727291677833,-4.));
#195 = CARTESIAN_POINT('',(-6.727291677833,-3.75));
#196 = CARTESIAN_POINT('',(-6.727291677833,-3.5));
#197 = ( GEOMETRIC_REPRESENTATION_CONTEXT(2) 
PARAMETRIC_REPRESENTATION_CONTEXT() REPRESENTATION_CONTEXT('2D SPACE',''
  ) );
#198 = ADVANCED_FACE('',(#199,#403),#47,.F.);
#199 = FACE_BOUND('',#200,.F.);
#200 = EDGE_LOOP('',(#201,#202,#203,#227,#259,#288,#320,#349,#381));
#201 = ORIENTED_EDGE('',*,*,#59,.T.);
#202 = ORIENTED_EDGE('',*,*,#21,.T.);
#203 = ORIENTED_EDGE('',*,*,#204,.F.);
#204 = EDGE_CURVE('',#205,#24,#207,.T.);
#205 = VERTEX_POINT('',#206);
#206 = CARTESIAN_POINT('',(32.798022884847,20.613430963897,6.5));
#207 = SURFACE_CURVE('',#208,(#213,#220),.PCURVE_S1.);
#208 = CIRCLE('',#209,1.8);
#209 = AXIS2_PLACEMENT_3D('',#210,#211,#212);
#210 = CARTESIAN_POINT('',(32.,19.,6.5));
#211 = DIRECTION('',(0.,-0.,1.));
#212 = DIRECTION('',(0.443346047137,0.896350535498,0.));
#213 = PCURVE('',#47,#214);
#214 = DEFINITIONAL_REPRESENTATION('',(#215),#219);
#215 = CIRCLE('',#216,1.8);
#216 = AXIS2_PLACEMENT_2D('',#217,#218);
#217 = CARTESIAN_POINT('',(30.708799626354,19.));
#218 = DIRECTION('',(0.443346047137,0.896350535498));
#219 = ( GEOMETRIC_REPRESENTATION_CONTEXT(2) 
PARAMETRIC_REPRESENTATION_CONTEXT() REPRESENTATION_CONTEXT('2D SPACE',''
  ) );
#220 = PCURVE('',#185,#221);
#221 = DEFINITIONAL_REPRESENTATION('',(#222),#226);
#222 = LINE('',#223,#224);
#223 = CARTESIAN_POINT('',(-1.111468117452,-3.5));
#224 = VECTOR('',#225,1.);
#225 = DIRECTION('',(-1.,-0.));
#226 = ( GEOMETRIC_REPRESENTATION_CONTEXT(2) 
PARAMETRIC_REPRESENTATION_CONTEXT() REPRESENTATION_CONTEXT('2D SPACE',''
  ) );
#227 = ORIENTED_EDGE('',*,*,#228,.T.);
#228 = EDGE_CURVE('',#205,#229,#231,.T.);
#229 = VERTEX_POINT('',#230);
#230 = CARTESIAN_POINT('',(-32.79802288484,20.613430963897,6.5));
#231 = SURFACE_CURVE('',#232,(#237,#244),.PCURVE_S1.);
#232 = ELLIPSE('',#233,42.,33.);
#233 = AXIS2_PLACEMENT_3D('',#234,#235,#236);
#234 = CARTESIAN_POINT('',(0.,0.,6.5));
#235 = DIRECTION('',(0.,0.,1.));
#236 = DIRECTION('',(1.,0.,0.));
#237 = PCURVE('',#47,#238);
#238 = DEFINITIONAL_REPRESENTATION('',(#239),#243);
#239 = ELLIPSE('',#240,42.,33.);
#240 = AXIS2_PLACEMENT_2D('',#241,#242);
#241 = CARTESIAN_POINT('',(-1.291200373646,-8.959445402093E-16));
#242 = DIRECTION('',(1.,0.));
#243 = ( GEOMETRIC_REPRESENTATION_CONTEXT(2) 
PARAMETRIC_REPRESENTATION_CONTEXT() REPRESENTATION_CONTEXT('2D SPACE',''
  ) );
#244 = PCURVE('',#245,#253);
#245 = SURFACE_OF_LINEAR_EXTRUSION('',#246,#251);
#246 = ELLIPSE('',#247,42.,33.);
#247 = AXIS2_PLACEMENT_3D('',#248,#249,#250);
#248 = CARTESIAN_POINT('',(0.,0.,6.5));
#249 = DIRECTION('',(0.,0.,1.));
#250 = DIRECTION('',(1.,0.,0.));
#251 = VECTOR('',#252,1.);
#252 = DIRECTION('',(-0.,-0.,-1.));
#253 = DEFINITIONAL_REPRESENTATION('',(#254),#258);
#254 = LINE('',#255,#256);
#255 = CARTESIAN_POINT('',(0.,0.));
#256 = VECTOR('',#257,1.);
#257 = DIRECTION('',(1.,0.));
#258 = ( GEOMETRIC_REPRESENTATION_CONTEXT(2) 
PARAMETRIC_REPRESENTATION_CONTEXT() REPRESENTATION_CONTEXT('2D SPACE',''
  ) );
#259 = ORIENTED_EDGE('',*,*,#260,.F.);
#260 = EDGE_CURVE('',#261,#229,#263,.T.);
#261 = VERTEX_POINT('',#262);
#262 = CARTESIAN_POINT('',(-33.62539095453,19.773371996476,6.5));
#263 = SURFACE_CURVE('',#264,(#269,#276),.PCURVE_S1.);
#264 = CIRCLE('',#265,1.8);
#265 = AXIS2_PLACEMENT_3D('',#266,#267,#268);
#266 = CARTESIAN_POINT('',(-32.,19.,6.5));
#267 = DIRECTION('',(0.,0.,1.));
#268 = DIRECTION('',(-0.902994974739,0.429651109153,0.));
#269 = PCURVE('',#47,#270);
#270 = DEFINITIONAL_REPRESENTATION('',(#271),#275);
#271 = CIRCLE('',#272,1.8);
#272 = AXIS2_PLACEMENT_2D('',#273,#274);
#273 = CARTESIAN_POINT('',(-33.29120037364,19.));
#274 = DIRECTION('',(-0.902994974739,0.429651109153));
#275 = ( GEOMETRIC_REPRESENTATION_CONTEXT(2) 
PARAMETRIC_REPRESENTATION_CONTEXT() REPRESENTATION_CONTEXT('2D SPACE',''
  ) );
#276 = PCURVE('',#277,#282);
#277 = CYLINDRICAL_SURFACE('',#278,1.8);
#278 = AXIS2_PLACEMENT_3D('',#279,#280,#281);
#279 = CARTESIAN_POINT('',(-32.,19.,3.));
#280 = DIRECTION('',(-0.,-0.,-1.));
#281 = DIRECTION('',(1.,0.,0.));
#282 = DEFINITIONAL_REPRESENTATION('',(#283),#287);
#283 = LINE('',#284,#285);
#284 = CARTESIAN_POINT('',(-2.697486282936,-3.5));
#285 = VECTOR('',#286,1.);
#286 = DIRECTION('',(-1.,-0.));
#287 = ( GEOMETRIC_REPRESENTATION_CONTEXT(2) 
PARAMETRIC_REPRESENTATION_CONTEXT() REPRESENTATION_CONTEXT('2D SPACE',''
  ) );
#288 = ORIENTED_EDGE('',*,*,#289,.T.);
#289 = EDGE_CURVE('',#261,#290,#292,.T.);
#290 = VERTEX_POINT('',#291);
#291 = CARTESIAN_POINT('',(-33.62539095453,-19.77337199647,6.5));
#292 = SURFACE_CURVE('',#293,(#298,#305),.PCURVE_S1.);
#293 = ELLIPSE('',#294,42.,33.);
#294 = AXIS2_PLACEMENT_3D('',#295,#296,#297);
#295 = CARTESIAN_POINT('',(0.,0.,6.5));
#296 = DIRECTION('',(0.,0.,1.));
#297 = DIRECTION('',(1.,0.,0.));
#298 = PCURVE('',#47,#299);
#299 = DEFINITIONAL_REPRESENTATION('',(#300),#304);
#300 = ELLIPSE('',#301,42.,33.);
#301 = AXIS2_PLACEMENT_2D('',#302,#303);
#302 = CARTESIAN_POINT('',(-1.291200373646,-8.959445402093E-16));
#303 = DIRECTION('',(1.,0.));
#304 = ( GEOMETRIC_REPRESENTATION_CONTEXT(2) 
PARAMETRIC_REPRESENTATION_CONTEXT() REPRESENTATION_CONTEXT('2D SPACE',''
  ) );
#305 = PCURVE('',#306,#314);
#306 = SURFACE_OF_LINEAR_EXTRUSION('',#307,#312);
#307 = ELLIPSE('',#308,42.,33.);
#308 = AXIS2_PLACEMENT_3D('',#309,#310,#311);
#309 = CARTESIAN_POINT('',(0.,0.,6.5));
#310 = DIRECTION('',(0.,0.,1.));
#311 = DIRECTION('',(1.,0.,0.));
#312 = VECTOR('',#313,1.);
#313 = DIRECTION('',(-0.,-0.,-1.));
#314 = DEFINITIONAL_REPRESENTATION('',(#315),#319);
#315 = LINE('',#316,#317);
#316 = CARTESIAN_POINT('',(0.,0.));
#317 = VECTOR('',#318,1.);
#318 = DIRECTION('',(1.,0.));
#319 = ( GEOMETRIC_REPRESENTATION_CONTEXT(2) 
PARAMETRIC_REPRESENTATION_CONTEXT() REPRESENTATION_CONTEXT('2D SPACE',''
  ) );
#320 = ORIENTED_EDGE('',*,*,#321,.F.);
#321 = EDGE_CURVE('',#322,#290,#324,.T.);
#322 = VERTEX_POINT('',#323);
#323 = CARTESIAN_POINT('',(-32.79802288484,-20.61343096389,6.5));
#324 = SURFACE_CURVE('',#325,(#330,#337),.PCURVE_S1.);
#325 = CIRCLE('',#326,1.8);
#326 = AXIS2_PLACEMENT_3D('',#327,#328,#329);
#327 = CARTESIAN_POINT('',(-32.,-19.,6.5));
#328 = DIRECTION('',(0.,0.,1.));
#329 = DIRECTION('',(-0.443346047137,-0.896350535498,0.));
#330 = PCURVE('',#47,#331);
#331 = DEFINITIONAL_REPRESENTATION('',(#332),#336);
#332 = CIRCLE('',#333,1.8);
#333 = AXIS2_PLACEMENT_2D('',#334,#335);
#334 = CARTESIAN_POINT('',(-33.29120037364,-19.));
#335 = DIRECTION('',(-0.443346047137,-0.896350535498));
#336 = ( GEOMETRIC_REPRESENTATION_CONTEXT(2) 
PARAMETRIC_REPRESENTATION_CONTEXT() REPRESENTATION_CONTEXT('2D SPACE',''
  ) );
#337 = PCURVE('',#338,#343);
#338 = CYLINDRICAL_SURFACE('',#339,1.8);
#339 = AXIS2_PLACEMENT_3D('',#340,#341,#342);
#340 = CARTESIAN_POINT('',(-32.,-19.,3.));
#341 = DIRECTION('',(-0.,-0.,-1.));
#342 = DIRECTION('',(1.,0.,0.));
#343 = DEFINITIONAL_REPRESENTATION('',(#344),#348);
#344 = LINE('',#345,#346);
#345 = CARTESIAN_POINT('',(-4.253060771042,-3.5));
#346 = VECTOR('',#347,1.);
#347 = DIRECTION('',(-1.,-0.));
#348 = ( GEOMETRIC_REPRESENTATION_CONTEXT(2) 
PARAMETRIC_REPRESENTATION_CONTEXT() REPRESENTATION_CONTEXT('2D SPACE',''
  ) );
#349 = ORIENTED_EDGE('',*,*,#350,.T.);
#350 = EDGE_CURVE('',#322,#351,#353,.T.);
#351 = VERTEX_POINT('',#352);
#352 = CARTESIAN_POINT('',(32.798022884846,-20.61343096389,6.5));
#353 = SURFACE_CURVE('',#354,(#359,#366),.PCURVE_S1.);
#354 = ELLIPSE('',#355,42.,33.);
#355 = AXIS2_PLACEMENT_3D('',#356,#357,#358);
#356 = CARTESIAN_POINT('',(0.,0.,6.5));
#357 = DIRECTION('',(0.,0.,1.));
#358 = DIRECTION('',(1.,0.,0.));
#359 = PCURVE('',#47,#360);
#360 = DEFINITIONAL_REPRESENTATION('',(#361),#365);
#361 = ELLIPSE('',#362,42.,33.);
#362 = AXIS2_PLACEMENT_2D('',#363,#364);
#363 = CARTESIAN_POINT('',(-1.291200373646,-8.959445402093E-16));
#364 = DIRECTION('',(1.,0.));
#365 = ( GEOMETRIC_REPRESENTATION_CONTEXT(2) 
PARAMETRIC_REPRESENTATION_CONTEXT() REPRESENTATION_CONTEXT('2D SPACE',''
  ) );
#366 = PCURVE('',#367,#375);
#367 = SURFACE_OF_LINEAR_EXTRUSION('',#368,#373);
#368 = ELLIPSE('',#369,42.,33.);
#369 = AXIS2_PLACEMENT_3D('',#370,#371,#372);
#370 = CARTESIAN_POINT('',(0.,0.,6.5));
#371 = DIRECTION('',(0.,0.,1.));
#372 = DIRECTION('',(1.,0.,0.));
#373 = VECTOR('',#374,1.);
#374 = DIRECTION('',(-0.,-0.,-1.));
#375 = DEFINITIONAL_REPRESENTATION('',(#376),#380);
#376 = LINE('',#377,#378);
#377 = CARTESIAN_POINT('',(0.,0.));
#378 = VECTOR('',#379,1.);
#379 = DIRECTION('',(1.,0.));
#380 = ( GEOMETRIC_REPRESENTATION_CONTEXT(2) 
PARAMETRIC_REPRESENTATION_CONTEXT() REPRESENTATION_CONTEXT('2D SPACE',''
  ) );
#381 = ORIENTED_EDGE('',*,*,#382,.F.);
#382 = EDGE_CURVE('',#60,#351,#383,.T.);
#383 = SURFACE_CURVE('',#384,(#389,#396),.PCURVE_S1.);
#384 = CIRCLE('',#385,1.8);
#385 = AXIS2_PLACEMENT_3D('',#386,#387,#388);
#386 = CARTESIAN_POINT('',(32.,-19.,6.5));
#387 = DIRECTION('',(-0.,0.,1.));
#388 = DIRECTION('',(0.902994974739,-0.429651109153,0.));
#389 = PCURVE('',#47,#390);
#390 = DEFINITIONAL_REPRESENTATION('',(#391),#395);
#391 = CIRCLE('',#392,1.8);
#392 = AXIS2_PLACEMENT_2D('',#393,#394);
#393 = CARTESIAN_POINT('',(30.708799626354,-19.));
#394 = DIRECTION('',(0.902994974739,-0.429651109153));
#395 = ( GEOMETRIC_REPRESENTATION_CONTEXT(2) 
PARAMETRIC_REPRESENTATION_CONTEXT() REPRESENTATION_CONTEXT('2D SPACE',''
  ) );
#396 = PCURVE('',#102,#397);
#397 = DEFINITIONAL_REPRESENTATION('',(#398),#402);
#398 = LINE('',#399,#400);
#399 = CARTESIAN_POINT('',(-5.839078936526,-3.5));
#400 = VECTOR('',#401,1.);
#401 = DIRECTION('',(-1.,-0.));
#402 = ( GEOMETRIC_REPRESENTATION_CONTEXT(2) 
PARAMETRIC_REPRESENTATION_CONTEXT() REPRESENTATION_CONTEXT('2D SPACE',''
  ) );
#403 = FACE_BOUND('',#404,.F.);
#404 = EDGE_LOOP('',(#405));
#405 = ORIENTED_EDGE('',*,*,#406,.F.);
#406 = EDGE_CURVE('',#407,#407,#409,.T.);
#407 = VERTEX_POINT('',#408);
#408 = CARTESIAN_POINT('',(35.,0.,6.5));
#409 = SURFACE_CURVE('',#410,(#415,#422),.PCURVE_S1.);
#410 = ELLIPSE('',#411,35.,26.);
#411 = AXIS2_PLACEMENT_3D('',#412,#413,#414);
#412 = CARTESIAN_POINT('',(0.,0.,6.5));
#413 = DIRECTION('',(0.,0.,1.));
#414 = DIRECTION('',(1.,0.,0.));
#415 = PCURVE('',#47,#416);
#416 = DEFINITIONAL_REPRESENTATION('',(#417),#421);
#417 = ELLIPSE('',#418,35.,26.);
#418 = AXIS2_PLACEMENT_2D('',#419,#420);
#419 = CARTESIAN_POINT('',(-1.291200373646,-8.959445402093E-16));
#420 = DIRECTION('',(1.,0.));
#421 = ( GEOMETRIC_REPRESENTATION_CONTEXT(2) 
PARAMETRIC_REPRESENTATION_CONTEXT() REPRESENTATION_CONTEXT('2D SPACE',''
  ) );
#422 = PCURVE('',#423,#431);
#423 = SURFACE_OF_LINEAR_EXTRUSION('',#424,#429);
#424 = ELLIPSE('',#425,35.,26.);
#425 = AXIS2_PLACEMENT_3D('',#426,#427,#428);
#426 = CARTESIAN_POINT('',(0.,0.,6.5));
#427 = DIRECTION('',(0.,0.,1.));
#428 = DIRECTION('',(1.,0.,0.));
#429 = VECTOR('',#430,1.);
#430 = DIRECTION('',(-0.,-0.,-1.));
#431 = DEFINITIONAL_REPRESENTATION('',(#432),#436);
#432 = LINE('',#433,#434);
#433 = CARTESIAN_POINT('',(0.,0.));
#434 = VECTOR('',#435,1.);
#435 = DIRECTION('',(1.,0.));
#436 = ( GEOMETRIC_REPRESENTATION_CONTEXT(2) 
PARAMETRIC_REPRESENTATION_CONTEXT() REPRESENTATION_CONTEXT('2D SPACE',''
  ) );
#437 = ADVANCED_FACE('',(#438),#185,.F.);
#438 = FACE_BOUND('',#439,.T.);
#439 = EDGE_LOOP('',(#440,#441,#470,#492));
#440 = ORIENTED_EDGE('',*,*,#204,.F.);
#441 = ORIENTED_EDGE('',*,*,#442,.F.);
#442 = EDGE_CURVE('',#443,#205,#445,.T.);
#443 = VERTEX_POINT('',#444);
#444 = CARTESIAN_POINT('',(32.798022884847,20.613430963897,7.5));
#445 = SURFACE_CURVE('',#446,(#452,#461),.PCURVE_S1.);
#446 = B_SPLINE_CURVE_WITH_KNOTS('',4,(#447,#448,#449,#450,#451),
  .UNSPECIFIED.,.F.,.F.,(5,5),(0.,1.),.PIECEWISE_BEZIER_KNOTS.);
#447 = CARTESIAN_POINT('',(32.798022884847,20.613430963897,7.5000006));
#448 = CARTESIAN_POINT('',(32.798022884847,20.613430963897,7.2500003));
#449 = CARTESIAN_POINT('',(32.798022884847,20.613430963897,7.));
#450 = CARTESIAN_POINT('',(32.798022884847,20.613430963897,6.7499997));
#451 = CARTESIAN_POINT('',(32.798022884847,20.613430963897,6.4999994));
#452 = PCURVE('',#185,#453);
#453 = DEFINITIONAL_REPRESENTATION('',(#454),#460);
#454 = B_SPLINE_CURVE_WITH_KNOTS('',4,(#455,#456,#457,#458,#459),
  .UNSPECIFIED.,.F.,.F.,(5,5),(5.999992799071E-07,0.999999400001),
  .PIECEWISE_BEZIER_KNOTS.);
#455 = CARTESIAN_POINT('',(-1.111468117452,-4.5));
#456 = CARTESIAN_POINT('',(-1.111468117452,-4.25));
#457 = CARTESIAN_POINT('',(-1.111468117452,-4.));
#458 = CARTESIAN_POINT('',(-1.111468117452,-3.75));
#459 = CARTESIAN_POINT('',(-1.111468117452,-3.5));
#460 = ( GEOMETRIC_REPRESENTATION_CONTEXT(2) 
PARAMETRIC_REPRESENTATION_CONTEXT() REPRESENTATION_CONTEXT('2D SPACE',''
  ) );
#461 = PCURVE('',#245,#462);
#462 = DEFINITIONAL_REPRESENTATION('',(#463),#469);
#463 = B_SPLINE_CURVE_WITH_KNOTS('',4,(#464,#465,#466,#467,#468),
  .UNSPECIFIED.,.F.,.F.,(5,5),(0.,1.),.PIECEWISE_BEZIER_KNOTS.);
#464 = CARTESIAN_POINT('',(0.674682515841,-1.0000006));
#465 = CARTESIAN_POINT('',(0.674682515841,-0.7500003));
#466 = CARTESIAN_POINT('',(0.674682515841,-0.5));
#467 = CARTESIAN_POINT('',(0.674682515841,-0.2499997));
#468 = CARTESIAN_POINT('',(0.674682515841,5.999999999062E-07));
#469 = ( GEOMETRIC_REPRESENTATION_CONTEXT(2) 
PARAMETRIC_REPRESENTATION_CONTEXT() REPRESENTATION_CONTEXT('2D SPACE',''
  ) );
#470 = ORIENTED_EDGE('',*,*,#471,.T.);
#471 = EDGE_CURVE('',#443,#145,#472,.T.);
#472 = SURFACE_CURVE('',#473,(#478,#485),.PCURVE_S1.);
#473 = CIRCLE('',#474,1.8);
#474 = AXIS2_PLACEMENT_3D('',#475,#476,#477);
#475 = CARTESIAN_POINT('',(32.,19.,7.5));
#476 = DIRECTION('',(0.,-0.,1.));
#477 = DIRECTION('',(0.443346047137,0.896350535498,0.));
#478 = PCURVE('',#185,#479);
#479 = DEFINITIONAL_REPRESENTATION('',(#480),#484);
#480 = LINE('',#481,#482);
#481 = CARTESIAN_POINT('',(-1.111468117452,-4.5));
#482 = VECTOR('',#483,1.);
#483 = DIRECTION('',(-1.,-0.));
#484 = ( GEOMETRIC_REPRESENTATION_CONTEXT(2) 
PARAMETRIC_REPRESENTATION_CONTEXT() REPRESENTATION_CONTEXT('2D SPACE',''
  ) );
#485 = PCURVE('',#132,#486);
#486 = DEFINITIONAL_REPRESENTATION('',(#487),#491);
#487 = CIRCLE('',#488,1.8);
#488 = AXIS2_PLACEMENT_2D('',#489,#490);
#489 = CARTESIAN_POINT('',(30.708799626354,19.));
#490 = DIRECTION('',(0.443346047137,0.896350535498));
#491 = ( GEOMETRIC_REPRESENTATION_CONTEXT(2) 
PARAMETRIC_REPRESENTATION_CONTEXT() REPRESENTATION_CONTEXT('2D SPACE',''
  ) );
#492 = ORIENTED_EDGE('',*,*,#167,.T.);
#493 = ADVANCED_FACE('',(#494,#653),#132,.T.);
#494 = FACE_BOUND('',#495,.T.);
#495 = EDGE_LOOP('',(#496,#497,#498,#499,#523,#551,#575,#603,#627));
#496 = ORIENTED_EDGE('',*,*,#116,.T.);
#497 = ORIENTED_EDGE('',*,*,#144,.T.);
#498 = ORIENTED_EDGE('',*,*,#471,.F.);
#499 = ORIENTED_EDGE('',*,*,#500,.T.);
#500 = EDGE_CURVE('',#443,#501,#503,.T.);
#501 = VERTEX_POINT('',#502);
#502 = CARTESIAN_POINT('',(-32.79802288484,20.613430963897,7.5));
#503 = SURFACE_CURVE('',#504,(#509,#516),.PCURVE_S1.);
#504 = ELLIPSE('',#505,42.,33.);
#505 = AXIS2_PLACEMENT_3D('',#506,#507,#508);
#506 = CARTESIAN_POINT('',(0.,0.,7.5));
#507 = DIRECTION('',(0.,0.,1.));
#508 = DIRECTION('',(1.,0.,0.));
#509 = PCURVE('',#132,#510);
#510 = DEFINITIONAL_REPRESENTATION('',(#511),#515);
#511 = ELLIPSE('',#512,42.,33.);
#512 = AXIS2_PLACEMENT_2D('',#513,#514);
#513 = CARTESIAN_POINT('',(-1.291200373646,-8.959445402093E-16));
#514 = DIRECTION('',(1.,0.));
#515 = ( GEOMETRIC_REPRESENTATION_CONTEXT(2) 
PARAMETRIC_REPRESENTATION_CONTEXT() REPRESENTATION_CONTEXT('2D SPACE',''
  ) );
#516 = PCURVE('',#245,#517);
#517 = DEFINITIONAL_REPRESENTATION('',(#518),#522);
#518 = LINE('',#519,#520);
#519 = CARTESIAN_POINT('',(0.,-1.));
#520 = VECTOR('',#521,1.);
#521 = DIRECTION('',(1.,0.));
#522 = ( GEOMETRIC_REPRESENTATION_CONTEXT(2) 
PARAMETRIC_REPRESENTATION_CONTEXT() REPRESENTATION_CONTEXT('2D SPACE',''
  ) );
#523 = ORIENTED_EDGE('',*,*,#524,.T.);
#524 = EDGE_CURVE('',#501,#525,#527,.T.);
#525 = VERTEX_POINT('',#526);
#526 = CARTESIAN_POINT('',(-33.62539095453,19.773371996476,7.5));
#527 = SURFACE_CURVE('',#528,(#533,#544),.PCURVE_S1.);
#528 = CIRCLE('',#529,1.8);
#529 = AXIS2_PLACEMENT_3D('',#530,#531,#532);
#530 = CARTESIAN_POINT('',(-32.,19.,7.5));
#531 = DIRECTION('',(0.,0.,-1.));
#532 = DIRECTION('',(-0.443346047137,0.896350535498,0.));
#533 = PCURVE('',#132,#534);
#534 = DEFINITIONAL_REPRESENTATION('',(#535),#543);
#535 = ( BOUNDED_CURVE() B_SPLINE_CURVE(2,(#536,#537,#538,#539,#540,#541
,#542),.UNSPECIFIED.,.T.,.F.) B_SPLINE_CURVE_WITH_KNOTS((1,2,2,2,2,1),(
    -2.094395102393,0.,2.094395102393,4.188790204786,6.28318530718,
8.377580409573),.UNSPECIFIED.) CURVE() GEOMETRIC_REPRESENTATION_ITEM() 
RATIONAL_B_SPLINE_CURVE((1.,0.5,1.,0.5,1.,0.5,1.)) REPRESENTATION_ITEM(
  '') );
#536 = CARTESIAN_POINT('',(-34.08922325849,20.613430963897));
#537 = CARTESIAN_POINT('',(-31.29467885451,21.995647146054));
#538 = CARTESIAN_POINT('',(-31.49491672923,18.88439260913));
#539 = CARTESIAN_POINT('',(-31.69515460395,15.773138072206));
#540 = CARTESIAN_POINT('',(-34.28946113321,17.502176426973));
#541 = CARTESIAN_POINT('',(-36.88376766246,19.23121478174));
#542 = CARTESIAN_POINT('',(-34.08922325849,20.613430963897));
#543 = ( GEOMETRIC_REPRESENTATION_CONTEXT(2) 
PARAMETRIC_REPRESENTATION_CONTEXT() REPRESENTATION_CONTEXT('2D SPACE',''
  ) );
#544 = PCURVE('',#277,#545);
#545 = DEFINITIONAL_REPRESENTATION('',(#546),#550);
#546 = LINE('',#547,#548);
#547 = CARTESIAN_POINT('',(-8.313309843317,-4.5));
#548 = VECTOR('',#549,1.);
#549 = DIRECTION('',(1.,-0.));
#550 = ( GEOMETRIC_REPRESENTATION_CONTEXT(2) 
PARAMETRIC_REPRESENTATION_CONTEXT() REPRESENTATION_CONTEXT('2D SPACE',''
  ) );
#551 = ORIENTED_EDGE('',*,*,#552,.T.);
#552 = EDGE_CURVE('',#525,#553,#555,.T.);
#553 = VERTEX_POINT('',#554);
#554 = CARTESIAN_POINT('',(-33.62539095453,-19.77337199647,7.5));
#555 = SURFACE_CURVE('',#556,(#561,#568),.PCURVE_S1.);
#556 = ELLIPSE('',#557,42.,33.);
#557 = AXIS2_PLACEMENT_3D('',#558,#559,#560);
#558 = CARTESIAN_POINT('',(0.,0.,7.5));
#559 = DIRECTION('',(0.,0.,1.));
#560 = DIRECTION('',(1.,0.,0.));
#561 = PCURVE('',#132,#562);
#562 = DEFINITIONAL_REPRESENTATION('',(#563),#567);
#563 = ELLIPSE('',#564,42.,33.);
#564 = AXIS2_PLACEMENT_2D('',#565,#566);
#565 = CARTESIAN_POINT('',(-1.291200373646,-8.959445402093E-16));
#566 = DIRECTION('',(1.,0.));
#567 = ( GEOMETRIC_REPRESENTATION_CONTEXT(2) 
PARAMETRIC_REPRESENTATION_CONTEXT() REPRESENTATION_CONTEXT('2D SPACE',''
  ) );
#568 = PCURVE('',#306,#569);
#569 = DEFINITIONAL_REPRESENTATION('',(#570),#574);
#570 = LINE('',#571,#572);
#571 = CARTESIAN_POINT('',(0.,-1.));
#572 = VECTOR('',#573,1.);
#573 = DIRECTION('',(1.,0.));
#574 = ( GEOMETRIC_REPRESENTATION_CONTEXT(2) 
PARAMETRIC_REPRESENTATION_CONTEXT() REPRESENTATION_CONTEXT('2D SPACE',''
  ) );
#575 = ORIENTED_EDGE('',*,*,#576,.T.);
#576 = EDGE_CURVE('',#553,#577,#579,.T.);
#577 = VERTEX_POINT('',#578);
#578 = CARTESIAN_POINT('',(-32.79802288484,-20.61343096389,7.5));
#579 = SURFACE_CURVE('',#580,(#585,#596),.PCURVE_S1.);
#580 = CIRCLE('',#581,1.8);
#581 = AXIS2_PLACEMENT_3D('',#582,#583,#584);
#582 = CARTESIAN_POINT('',(-32.,-19.,7.5));
#583 = DIRECTION('',(-0.,0.,-1.));
#584 = DIRECTION('',(-0.902994974739,-0.429651109153,0.));
#585 = PCURVE('',#132,#586);
#586 = DEFINITIONAL_REPRESENTATION('',(#587),#595);
#587 = ( BOUNDED_CURVE() B_SPLINE_CURVE(2,(#588,#589,#590,#591,#592,#593
,#594),.UNSPECIFIED.,.T.,.F.) B_SPLINE_CURVE_WITH_KNOTS((1,2,2,2,2,1),(
    -2.094395102393,0.,2.094395102393,4.188790204786,6.28318530718,
8.377580409573),.UNSPECIFIED.) CURVE() GEOMETRIC_REPRESENTATION_ITEM() 
RATIONAL_B_SPLINE_CURVE((1.,0.5,1.,0.5,1.,0.5,1.)) REPRESENTATION_ITEM(
  '') );
#588 = CARTESIAN_POINT('',(-34.91659132817,-19.77337199647));
#589 = CARTESIAN_POINT('',(-36.25611091922,-16.95811228106));
#590 = CARTESIAN_POINT('',(-33.1482646919,-17.20568414405));
#591 = CARTESIAN_POINT('',(-30.04041846458,-17.45325600704));
#592 = CARTESIAN_POINT('',(-31.80874510085,-20.02094385946));
#593 = CARTESIAN_POINT('',(-33.57707173712,-22.58863171188));
#594 = CARTESIAN_POINT('',(-34.91659132817,-19.77337199647));
#595 = ( GEOMETRIC_REPRESENTATION_CONTEXT(2) 
PARAMETRIC_REPRESENTATION_CONTEXT() REPRESENTATION_CONTEXT('2D SPACE',''
  ) );
#596 = PCURVE('',#338,#597);
#597 = DEFINITIONAL_REPRESENTATION('',(#598),#602);
#598 = LINE('',#599,#600);
#599 = CARTESIAN_POINT('',(-9.868884331423,-4.5));
#600 = VECTOR('',#601,1.);
#601 = DIRECTION('',(1.,-0.));
#602 = ( GEOMETRIC_REPRESENTATION_CONTEXT(2) 
PARAMETRIC_REPRESENTATION_CONTEXT() REPRESENTATION_CONTEXT('2D SPACE',''
  ) );
#603 = ORIENTED_EDGE('',*,*,#604,.T.);
#604 = EDGE_CURVE('',#577,#605,#607,.T.);
#605 = VERTEX_POINT('',#606);
#606 = CARTESIAN_POINT('',(32.798022884846,-20.61343096389,7.5));
#607 = SURFACE_CURVE('',#608,(#613,#620),.PCURVE_S1.);
#608 = ELLIPSE('',#609,42.,33.);
#609 = AXIS2_PLACEMENT_3D('',#610,#611,#612);
#610 = CARTESIAN_POINT('',(0.,0.,7.5));
#611 = DIRECTION('',(0.,0.,1.));
#612 = DIRECTION('',(1.,0.,0.));
#613 = PCURVE('',#132,#614);
#614 = DEFINITIONAL_REPRESENTATION('',(#615),#619);
#615 = ELLIPSE('',#616,42.,33.);
#616 = AXIS2_PLACEMENT_2D('',#617,#618);
#617 = CARTESIAN_POINT('',(-1.291200373646,-8.959445402093E-16));
#618 = DIRECTION('',(1.,0.));
#619 = ( GEOMETRIC_REPRESENTATION_CONTEXT(2) 
PARAMETRIC_REPRESENTATION_CONTEXT() REPRESENTATION_CONTEXT('2D SPACE',''
  ) );
#620 = PCURVE('',#367,#621);
#621 = DEFINITIONAL_REPRESENTATION('',(#622),#626);
#622 = LINE('',#623,#624);
#623 = CARTESIAN_POINT('',(0.,-1.));
#624 = VECTOR('',#625,1.);
#625 = DIRECTION('',(1.,0.));
#626 = ( GEOMETRIC_REPRESENTATION_CONTEXT(2) 
PARAMETRIC_REPRESENTATION_CONTEXT() REPRESENTATION_CONTEXT('2D SPACE',''
  ) );
#627 = ORIENTED_EDGE('',*,*,#628,.T.);
#628 = EDGE_CURVE('',#605,#83,#629,.T.);
#629 = SURFACE_CURVE('',#630,(#635,#646),.PCURVE_S1.);
#630 = CIRCLE('',#631,1.8);
#631 = AXIS2_PLACEMENT_3D('',#632,#633,#634);
#632 = CARTESIAN_POINT('',(32.,-19.,7.5));
#633 = DIRECTION('',(0.,-0.,-1.));
#634 = DIRECTION('',(0.443346047137,-0.896350535498,0.));
#635 = PCURVE('',#132,#636);
#636 = DEFINITIONAL_REPRESENTATION('',(#637),#645);
#637 = ( BOUNDED_CURVE() B_SPLINE_CURVE(2,(#638,#639,#640,#641,#642,#643
,#644),.UNSPECIFIED.,.T.,.F.) B_SPLINE_CURVE_WITH_KNOTS((1,2,2,2,2,1),(
    -2.094395102393,0.,2.094395102393,4.188790204786,6.28318530718,
8.377580409573),.UNSPECIFIED.) CURVE() GEOMETRIC_REPRESENTATION_ITEM() 
RATIONAL_B_SPLINE_CURVE((1.,0.5,1.,0.5,1.,0.5,1.)) REPRESENTATION_ITEM(
  '') );
#638 = CARTESIAN_POINT('',(31.506822511201,-20.61343096389));
#639 = CARTESIAN_POINT('',(28.712278107226,-21.99564714605));
#640 = CARTESIAN_POINT('',(28.912515981944,-18.88439260913));
#641 = CARTESIAN_POINT('',(29.112753856661,-15.7731380722));
#642 = CARTESIAN_POINT('',(31.707060385918,-17.50217642697));
#643 = CARTESIAN_POINT('',(34.301366915175,-19.23121478174));
#644 = CARTESIAN_POINT('',(31.506822511201,-20.61343096389));
#645 = ( GEOMETRIC_REPRESENTATION_CONTEXT(2) 
PARAMETRIC_REPRESENTATION_CONTEXT() REPRESENTATION_CONTEXT('2D SPACE',''
  ) );
#646 = PCURVE('',#102,#647);
#647 = DEFINITIONAL_REPRESENTATION('',(#648),#652);
#648 = LINE('',#649,#650);
#649 = CARTESIAN_POINT('',(-11.4549024969,-4.5));
#650 = VECTOR('',#651,1.);
#651 = DIRECTION('',(1.,-0.));
#652 = ( GEOMETRIC_REPRESENTATION_CONTEXT(2) 
PARAMETRIC_REPRESENTATION_CONTEXT() REPRESENTATION_CONTEXT('2D SPACE',''
  ) );
#653 = FACE_BOUND('',#654,.T.);
#654 = EDGE_LOOP('',(#655));
#655 = ORIENTED_EDGE('',*,*,#656,.F.);
#656 = EDGE_CURVE('',#657,#657,#659,.T.);
#657 = VERTEX_POINT('',#658);
#658 = CARTESIAN_POINT('',(35.,0.,7.5));
#659 = SURFACE_CURVE('',#660,(#665,#672),.PCURVE_S1.);
#660 = ELLIPSE('',#661,35.,26.);
#661 = AXIS2_PLACEMENT_3D('',#662,#663,#664);
#662 = CARTESIAN_POINT('',(0.,0.,7.5));
#663 = DIRECTION('',(0.,0.,1.));
#664 = DIRECTION('',(1.,0.,0.));
#665 = PCURVE('',#132,#666);
#666 = DEFINITIONAL_REPRESENTATION('',(#667),#671);
#667 = ELLIPSE('',#668,35.,26.);
#668 = AXIS2_PLACEMENT_2D('',#669,#670);
#669 = CARTESIAN_POINT('',(-1.291200373646,-8.959445402093E-16));
#670 = DIRECTION('',(1.,0.));
#671 = ( GEOMETRIC_REPRESENTATION_CONTEXT(2) 
PARAMETRIC_REPRESENTATION_CONTEXT() REPRESENTATION_CONTEXT('2D SPACE',''
  ) );
#672 = PCURVE('',#423,#673);
#673 = DEFINITIONAL_REPRESENTATION('',(#674),#678);
#674 = LINE('',#675,#676);
#675 = CARTESIAN_POINT('',(0.,-1.));
#676 = VECTOR('',#677,1.);
#677 = DIRECTION('',(1.,0.));
#678 = ( GEOMETRIC_REPRESENTATION_CONTEXT(2) 
PARAMETRIC_REPRESENTATION_CONTEXT() REPRESENTATION_CONTEXT('2D SPACE',''
  ) );
#679 = ADVANCED_FACE('',(#680),#102,.F.);
#680 = FACE_BOUND('',#681,.T.);
#681 = EDGE_LOOP('',(#682,#683,#710,#711));
#682 = ORIENTED_EDGE('',*,*,#628,.F.);
#683 = ORIENTED_EDGE('',*,*,#684,.T.);
#684 = EDGE_CURVE('',#605,#351,#685,.T.);
#685 = SURFACE_CURVE('',#686,(#692,#701),.PCURVE_S1.);
#686 = B_SPLINE_CURVE_WITH_KNOTS('',4,(#687,#688,#689,#690,#691),
  .UNSPECIFIED.,.F.,.F.,(5,5),(0.,1.),.PIECEWISE_BEZIER_KNOTS.);
#687 = CARTESIAN_POINT('',(32.798022884847,-20.61343096389,7.5000006));
#688 = CARTESIAN_POINT('',(32.798022884847,-20.61343096389,7.2500003));
#689 = CARTESIAN_POINT('',(32.798022884847,-20.61343096389,7.));
#690 = CARTESIAN_POINT('',(32.798022884847,-20.61343096389,6.7499997));
#691 = CARTESIAN_POINT('',(32.798022884847,-20.61343096389,6.4999994));
#692 = PCURVE('',#102,#693);
#693 = DEFINITIONAL_REPRESENTATION('',(#694),#700);
#694 = B_SPLINE_CURVE_WITH_KNOTS('',4,(#695,#696,#697,#698,#699),
  .UNSPECIFIED.,.F.,.F.,(5,5),(5.999992799071E-07,0.999999400001),
  .PIECEWISE_BEZIER_KNOTS.);
#695 = CARTESIAN_POINT('',(-11.4549024969,-4.5));
#696 = CARTESIAN_POINT('',(-11.4549024969,-4.25));
#697 = CARTESIAN_POINT('',(-11.4549024969,-4.));
#698 = CARTESIAN_POINT('',(-11.4549024969,-3.75));
#699 = CARTESIAN_POINT('',(-11.4549024969,-3.5));
#700 = ( GEOMETRIC_REPRESENTATION_CONTEXT(2) 
PARAMETRIC_REPRESENTATION_CONTEXT() REPRESENTATION_CONTEXT('2D SPACE',''
  ) );
#701 = PCURVE('',#367,#702);
#702 = DEFINITIONAL_REPRESENTATION('',(#703),#709);
#703 = B_SPLINE_CURVE_WITH_KNOTS('',4,(#704,#705,#706,#707,#708),
  .UNSPECIFIED.,.F.,.F.,(5,5),(0.,1.),.PIECEWISE_BEZIER_KNOTS.);
#704 = CARTESIAN_POINT('',(5.608502791339,-1.0000006));
#705 = CARTESIAN_POINT('',(5.608502791339,-0.7500003));
#706 = CARTESIAN_POINT('',(5.608502791339,-0.5));
#707 = CARTESIAN_POINT('',(5.608502791339,-0.2499997));
#708 = CARTESIAN_POINT('',(5.608502791339,5.999999999062E-07));
#709 = ( GEOMETRIC_REPRESENTATION_CONTEXT(2) 
PARAMETRIC_REPRESENTATION_CONTEXT() REPRESENTATION_CONTEXT('2D SPACE',''
  ) );
#710 = ORIENTED_EDGE('',*,*,#382,.F.);
#711 = ORIENTED_EDGE('',*,*,#82,.F.);
#712 = ADVANCED_FACE('',(#713),#367,.F.);
#713 = FACE_BOUND('',#714,.F.);
#714 = EDGE_LOOP('',(#715,#716,#717,#744));
#715 = ORIENTED_EDGE('',*,*,#684,.T.);
#716 = ORIENTED_EDGE('',*,*,#350,.F.);
#717 = ORIENTED_EDGE('',*,*,#718,.F.);
#718 = EDGE_CURVE('',#577,#322,#719,.T.);
#719 = SURFACE_CURVE('',#720,(#726,#735),.PCURVE_S1.);
#720 = B_SPLINE_CURVE_WITH_KNOTS('',4,(#721,#722,#723,#724,#725),
  .UNSPECIFIED.,.F.,.F.,(5,5),(0.,1.),.PIECEWISE_BEZIER_KNOTS.);
#721 = CARTESIAN_POINT('',(-32.79802288484,-20.61343096389,7.5000006));
#722 = CARTESIAN_POINT('',(-32.79802288484,-20.61343096389,7.2500003));
#723 = CARTESIAN_POINT('',(-32.79802288484,-20.61343096389,7.));
#724 = CARTESIAN_POINT('',(-32.79802288484,-20.61343096389,6.7499997));
#725 = CARTESIAN_POINT('',(-32.79802288484,-20.61343096389,6.4999994));
#726 = PCURVE('',#367,#727);
#727 = DEFINITIONAL_REPRESENTATION('',(#728),#734);
#728 = B_SPLINE_CURVE_WITH_KNOTS('',4,(#729,#730,#731,#732,#733),
  .UNSPECIFIED.,.F.,.F.,(5,5),(0.,1.),.PIECEWISE_BEZIER_KNOTS.);
#729 = CARTESIAN_POINT('',(3.816275169431,-1.0000006));
#730 = CARTESIAN_POINT('',(3.816275169431,-0.7500003));
#731 = CARTESIAN_POINT('',(3.816275169431,-0.5));
#732 = CARTESIAN_POINT('',(3.816275169431,-0.2499997));
#733 = CARTESIAN_POINT('',(3.816275169431,5.999999999062E-07));
#734 = ( GEOMETRIC_REPRESENTATION_CONTEXT(2) 
PARAMETRIC_REPRESENTATION_CONTEXT() REPRESENTATION_CONTEXT('2D SPACE',''
  ) );
#735 = PCURVE('',#338,#736);
#736 = DEFINITIONAL_REPRESENTATION('',(#737),#743);
#737 = B_SPLINE_CURVE_WITH_KNOTS('',4,(#738,#739,#740,#741,#742),
  .UNSPECIFIED.,.F.,.F.,(5,5),(5.999992799071E-07,0.999999400001),
  .PIECEWISE_BEZIER_KNOTS.);
#738 = CARTESIAN_POINT('',(-4.253060771042,-4.5));
#739 = CARTESIAN_POINT('',(-4.253060771042,-4.25));
#740 = CARTESIAN_POINT('',(-4.253060771042,-4.));
#741 = CARTESIAN_POINT('',(-4.253060771042,-3.75));
#742 = CARTESIAN_POINT('',(-4.253060771042,-3.5));
#743 = ( GEOMETRIC_REPRESENTATION_CONTEXT(2) 
PARAMETRIC_REPRESENTATION_CONTEXT() REPRESENTATION_CONTEXT('2D SPACE',''
  ) );
#744 = ORIENTED_EDGE('',*,*,#604,.T.);
#745 = ADVANCED_FACE('',(#746),#338,.F.);
#746 = FACE_BOUND('',#747,.T.);
#747 = EDGE_LOOP('',(#748,#749,#776,#777));
#748 = ORIENTED_EDGE('',*,*,#576,.F.);
#749 = ORIENTED_EDGE('',*,*,#750,.T.);
#750 = EDGE_CURVE('',#553,#290,#751,.T.);
#751 = SURFACE_CURVE('',#752,(#758,#767),.PCURVE_S1.);
#752 = B_SPLINE_CURVE_WITH_KNOTS('',4,(#753,#754,#755,#756,#757),
  .UNSPECIFIED.,.F.,.F.,(5,5),(0.,1.),.PIECEWISE_BEZIER_KNOTS.);
#753 = CARTESIAN_POINT('',(-33.62539095453,-19.77337199647,7.5000006));
#754 = CARTESIAN_POINT('',(-33.62539095453,-19.77337199647,7.2500003));
#755 = CARTESIAN_POINT('',(-33.62539095453,-19.77337199647,7.));
#756 = CARTESIAN_POINT('',(-33.62539095453,-19.77337199647,6.7499997));
#757 = CARTESIAN_POINT('',(-33.62539095453,-19.77337199647,6.4999994));
#758 = PCURVE('',#338,#759);
#759 = DEFINITIONAL_REPRESENTATION('',(#760),#766);
#760 = B_SPLINE_CURVE_WITH_KNOTS('',4,(#761,#762,#763,#764,#765),
  .UNSPECIFIED.,.F.,.F.,(5,5),(5.999992799071E-07,0.999999400001),
  .PIECEWISE_BEZIER_KNOTS.);
#761 = CARTESIAN_POINT('',(-9.868884331423,-4.5));
#762 = CARTESIAN_POINT('',(-9.868884331423,-4.25));
#763 = CARTESIAN_POINT('',(-9.868884331423,-4.));
#764 = CARTESIAN_POINT('',(-9.868884331423,-3.75));
#765 = CARTESIAN_POINT('',(-9.868884331423,-3.5));
#766 = ( GEOMETRIC_REPRESENTATION_CONTEXT(2) 
PARAMETRIC_REPRESENTATION_CONTEXT() REPRESENTATION_CONTEXT('2D SPACE',''
  ) );
#767 = PCURVE('',#306,#768);
#768 = DEFINITIONAL_REPRESENTATION('',(#769),#775);
#769 = B_SPLINE_CURVE_WITH_KNOTS('',4,(#770,#771,#772,#773,#774),
  .UNSPECIFIED.,.F.,.F.,(5,5),(0.,1.),.PIECEWISE_BEZIER_KNOTS.);
#770 = CARTESIAN_POINT('',(3.784085506932,-1.0000006));
#771 = CARTESIAN_POINT('',(3.784085506932,-0.7500003));
#772 = CARTESIAN_POINT('',(3.784085506932,-0.5));
#773 = CARTESIAN_POINT('',(3.784085506932,-0.2499997));
#774 = CARTESIAN_POINT('',(3.784085506932,5.999999999062E-07));
#775 = ( GEOMETRIC_REPRESENTATION_CONTEXT(2) 
PARAMETRIC_REPRESENTATION_CONTEXT() REPRESENTATION_CONTEXT('2D SPACE',''
  ) );
#776 = ORIENTED_EDGE('',*,*,#321,.F.);
#777 = ORIENTED_EDGE('',*,*,#718,.F.);
#778 = ADVANCED_FACE('',(#779),#306,.F.);
#779 = FACE_BOUND('',#780,.F.);
#780 = EDGE_LOOP('',(#781,#782,#809,#810));
#781 = ORIENTED_EDGE('',*,*,#289,.F.);
#782 = ORIENTED_EDGE('',*,*,#783,.F.);
#783 = EDGE_CURVE('',#525,#261,#784,.T.);
#784 = SURFACE_CURVE('',#785,(#791,#800),.PCURVE_S1.);
#785 = B_SPLINE_CURVE_WITH_KNOTS('',4,(#786,#787,#788,#789,#790),
  .UNSPECIFIED.,.F.,.F.,(5,5),(0.,1.),.PIECEWISE_BEZIER_KNOTS.);
#786 = CARTESIAN_POINT('',(-33.62539095453,19.773371996476,7.5000006));
#787 = CARTESIAN_POINT('',(-33.62539095453,19.773371996476,7.2500003));
#788 = CARTESIAN_POINT('',(-33.62539095453,19.773371996476,7.));
#789 = CARTESIAN_POINT('',(-33.62539095453,19.773371996476,6.7499997));
#790 = CARTESIAN_POINT('',(-33.62539095453,19.773371996476,6.4999994));
#791 = PCURVE('',#306,#792);
#792 = DEFINITIONAL_REPRESENTATION('',(#793),#799);
#793 = B_SPLINE_CURVE_WITH_KNOTS('',4,(#794,#795,#796,#797,#798),
  .UNSPECIFIED.,.F.,.F.,(5,5),(0.,1.),.PIECEWISE_BEZIER_KNOTS.);
#794 = CARTESIAN_POINT('',(2.499099800247,-1.0000006));
#795 = CARTESIAN_POINT('',(2.499099800247,-0.7500003));
#796 = CARTESIAN_POINT('',(2.499099800247,-0.5));
#797 = CARTESIAN_POINT('',(2.499099800247,-0.2499997));
#798 = CARTESIAN_POINT('',(2.499099800247,5.999999999062E-07));
#799 = ( GEOMETRIC_REPRESENTATION_CONTEXT(2) 
PARAMETRIC_REPRESENTATION_CONTEXT() REPRESENTATION_CONTEXT('2D SPACE',''
  ) );
#800 = PCURVE('',#277,#801);
#801 = DEFINITIONAL_REPRESENTATION('',(#802),#808);
#802 = B_SPLINE_CURVE_WITH_KNOTS('',4,(#803,#804,#805,#806,#807),
  .UNSPECIFIED.,.F.,.F.,(5,5),(5.999992799071E-07,0.999999400001),
  .PIECEWISE_BEZIER_KNOTS.);
#803 = CARTESIAN_POINT('',(-2.697486282936,-4.5));
#804 = CARTESIAN_POINT('',(-2.697486282936,-4.25));
#805 = CARTESIAN_POINT('',(-2.697486282936,-4.));
#806 = CARTESIAN_POINT('',(-2.697486282936,-3.75));
#807 = CARTESIAN_POINT('',(-2.697486282936,-3.5));
#808 = ( GEOMETRIC_REPRESENTATION_CONTEXT(2) 
PARAMETRIC_REPRESENTATION_CONTEXT() REPRESENTATION_CONTEXT('2D SPACE',''
  ) );
#809 = ORIENTED_EDGE('',*,*,#552,.T.);
#810 = ORIENTED_EDGE('',*,*,#750,.T.);
#811 = ADVANCED_FACE('',(#812),#277,.F.);
#812 = FACE_BOUND('',#813,.T.);
#813 = EDGE_LOOP('',(#814,#815,#842,#843));
#814 = ORIENTED_EDGE('',*,*,#524,.F.);
#815 = ORIENTED_EDGE('',*,*,#816,.T.);
#816 = EDGE_CURVE('',#501,#229,#817,.T.);
#817 = SURFACE_CURVE('',#818,(#824,#833),.PCURVE_S1.);
#818 = B_SPLINE_CURVE_WITH_KNOTS('',4,(#819,#820,#821,#822,#823),
  .UNSPECIFIED.,.F.,.F.,(5,5),(0.,1.),.PIECEWISE_BEZIER_KNOTS.);
#819 = CARTESIAN_POINT('',(-32.79802288484,20.613430963897,7.5000006));
#820 = CARTESIAN_POINT('',(-32.79802288484,20.613430963897,7.2500003));
#821 = CARTESIAN_POINT('',(-32.79802288484,20.613430963897,7.));
#822 = CARTESIAN_POINT('',(-32.79802288484,20.613430963897,6.7499997));
#823 = CARTESIAN_POINT('',(-32.79802288484,20.613430963897,6.4999994));
#824 = PCURVE('',#277,#825);
#825 = DEFINITIONAL_REPRESENTATION('',(#826),#832);
#826 = B_SPLINE_CURVE_WITH_KNOTS('',4,(#827,#828,#829,#830,#831),
  .UNSPECIFIED.,.F.,.F.,(5,5),(5.999992799071E-07,0.999999400001),
  .PIECEWISE_BEZIER_KNOTS.);
#827 = CARTESIAN_POINT('',(-8.313309843317,-4.5));
#828 = CARTESIAN_POINT('',(-8.313309843317,-4.25));
#829 = CARTESIAN_POINT('',(-8.313309843317,-4.));
#830 = CARTESIAN_POINT('',(-8.313309843317,-3.75));
#831 = CARTESIAN_POINT('',(-8.313309843317,-3.5));
#832 = ( GEOMETRIC_REPRESENTATION_CONTEXT(2) 
PARAMETRIC_REPRESENTATION_CONTEXT() REPRESENTATION_CONTEXT('2D SPACE',''
  ) );
#833 = PCURVE('',#245,#834);
#834 = DEFINITIONAL_REPRESENTATION('',(#835),#841);
#835 = B_SPLINE_CURVE_WITH_KNOTS('',4,(#836,#837,#838,#839,#840),
  .UNSPECIFIED.,.F.,.F.,(5,5),(0.,1.),.PIECEWISE_BEZIER_KNOTS.);
#836 = CARTESIAN_POINT('',(2.466910137749,-1.0000006));
#837 = CARTESIAN_POINT('',(2.466910137749,-0.7500003));
#838 = CARTESIAN_POINT('',(2.466910137749,-0.5));
#839 = CARTESIAN_POINT('',(2.466910137749,-0.2499997));
#840 = CARTESIAN_POINT('',(2.466910137749,5.999999999062E-07));
#841 = ( GEOMETRIC_REPRESENTATION_CONTEXT(2) 
PARAMETRIC_REPRESENTATION_CONTEXT() REPRESENTATION_CONTEXT('2D SPACE',''
  ) );
#842 = ORIENTED_EDGE('',*,*,#260,.F.);
#843 = ORIENTED_EDGE('',*,*,#783,.F.);
#844 = ADVANCED_FACE('',(#845),#245,.F.);
#845 = FACE_BOUND('',#846,.F.);
#846 = EDGE_LOOP('',(#847,#848,#849,#850));
#847 = ORIENTED_EDGE('',*,*,#228,.F.);
#848 = ORIENTED_EDGE('',*,*,#442,.F.);
#849 = ORIENTED_EDGE('',*,*,#500,.T.);
#850 = ORIENTED_EDGE('',*,*,#816,.T.);
#851 = ADVANCED_FACE('',(#852),#423,.T.);
#852 = FACE_BOUND('',#853,.T.);
#853 = EDGE_LOOP('',(#854,#875,#876,#877));
#854 = ORIENTED_EDGE('',*,*,#855,.T.);
#855 = EDGE_CURVE('',#407,#657,#856,.T.);
#856 = SEAM_CURVE('',#857,(#861,#868),.PCURVE_S1.);
#857 = LINE('',#858,#859);
#858 = CARTESIAN_POINT('',(35.,0.,6.5));
#859 = VECTOR('',#860,1.);
#860 = DIRECTION('',(0.,0.,1.));
#861 = PCURVE('',#423,#862);
#862 = DEFINITIONAL_REPRESENTATION('',(#863),#867);
#863 = LINE('',#864,#865);
#864 = CARTESIAN_POINT('',(0.,0.));
#865 = VECTOR('',#866,1.);
#866 = DIRECTION('',(0.,-1.));
#867 = ( GEOMETRIC_REPRESENTATION_CONTEXT(2) 
PARAMETRIC_REPRESENTATION_CONTEXT() REPRESENTATION_CONTEXT('2D SPACE',''
  ) );
#868 = PCURVE('',#423,#869);
#869 = DEFINITIONAL_REPRESENTATION('',(#870),#874);
#870 = LINE('',#871,#872);
#871 = CARTESIAN_POINT('',(6.28318530718,0.));
#872 = VECTOR('',#873,1.);
#873 = DIRECTION('',(0.,-1.));
#874 = ( GEOMETRIC_REPRESENTATION_CONTEXT(2) 
PARAMETRIC_REPRESENTATION_CONTEXT() REPRESENTATION_CONTEXT('2D SPACE',''
  ) );
#875 = ORIENTED_EDGE('',*,*,#656,.T.);
#876 = ORIENTED_EDGE('',*,*,#855,.F.);
#877 = ORIENTED_EDGE('',*,*,#406,.F.);
#878 = ( GEOMETRIC_REPRESENTATION_CONTEXT(3) 
GLOBAL_UNCERTAINTY_ASSIGNED_CONTEXT((#882)) GLOBAL_UNIT_ASSIGNED_CONTEXT
((#879,#880,#881)) REPRESENTATION_CONTEXT('Context #1',
  '3D Context with UNIT and UNCERTAINTY') );
#879 = ( LENGTH_UNIT() NAMED_UNIT(*) SI_UNIT(.MILLI.,.METRE.) );
#880 = ( NAMED_UNIT(*) PLANE_ANGLE_UNIT() SI_UNIT($,.RADIAN.) );
#881 = ( NAMED_UNIT(*) SI_UNIT($,.STERADIAN.) SOLID_ANGLE_UNIT() );
#882 = UNCERTAINTY_MEASURE_WITH_UNIT(LENGTH_MEASURE(2.E-06),#879,
  'distance_accuracy_value','confusion accuracy');
#883 = PRODUCT_RELATED_PRODUCT_CATEGORY('part',$,(#7));
ENDSEC;
END-ISO-10303-21;
