ISO-10303-21;
HEADER;
FILE_DESCRIPTION(('Open CASCADE Model'),'2;1');
FILE_NAME('Open CASCADE Shape Model','2026-09-09T16:23:36',('Author'),(
    'Open CASCADE'),'Open CASCADE STEP processor 7.9','Open CASCADE 7.9'
  ,'Unknown');
FILE_SCHEMA(('AUTOMOTIVE_DESIGN { 1 0 10303 214 1 1 1 1 }'));
ENDSEC;
DATA;
#1 = APPLICATION_PROTOCOL_DEFINITION('international standard',
  'automotive_design',2000,#2);
#2 = APPLICATION_CONTEXT(
  'core data for automotive mechanical design processes');
#3 = SHAPE_DEFINITION_REPRESENTATION(#4,#10);
#4 = PRODUCT_DEFINITION_SHAPE('','',#5);
#5 = PRODUCT_DEFINITION('design','',#6,#9);
#6 = PRODUCT_DEFINITION_FORMATION('','',#7);
#7 = PRODUCT('Open CASCADE STEP translator 7.9 6',
  'Open CASCADE STEP translator 7.9 6','',(#8));
#8 = PRODUCT_CONTEXT('',#2,'mechanical');
#9 = PRODUCT_DEFINITION_CONTEXT('part definition',#2,'design');
#10 = ADVANCED_BREP_SHAPE_REPRESENTATION('',(#11,#15),#1142);
#11 = AXIS2_PLACEMENT_3D('',#12,#13,#14);
#12 = CARTESIAN_POINT('',(0.,0.,0.));
#13 = DIRECTION('',(0.,0.,1.));
#14 = DIRECTION('',(1.,0.,-0.));
#15 = MANIFOLD_SOLID_BREP('',#16);
#16 = CLOSED_SHELL('',(#17,#465,#584,#693,#1059,#1109,#1136));
#17 = ADVANCED_FACE('',(#18),#32,.F.);
#18 = FACE_BOUND('',#19,.F.);
#19 = EDGE_LOOP('',(#20,#55,#439));
#20 = ORIENTED_EDGE('',*,*,#21,.F.);
#21 = EDGE_CURVE('',#22,#24,#26,.T.);
#22 = VERTEX_POINT('',#23);
#23 = CARTESIAN_POINT('',(-22.35,-17.76911241052,-20.));
#24 = VERTEX_POINT('',#25);
#25 = CARTESIAN_POINT('',(-22.35,-5.,-20.));
#26 = SURFACE_CURVE('',#27,(#31,#43),.PCURVE_S1.);
#27 = LINE('',#28,#29);
#28 = CARTESIAN_POINT('',(-22.35,-23.,-20.));
#29 = VECTOR('',#30,1.);
#30 = DIRECTION('',(0.,1.,0.));
#31 = PCURVE('',#32,#37);
#32 = PLANE('',#33);
#33 = AXIS2_PLACEMENT_3D('',#34,#35,#36);
#34 = CARTESIAN_POINT('',(-22.35,-23.,-88.));
#35 = DIRECTION('',(1.,0.,0.));
#36 = DIRECTION('',(0.,0.,1.));
#37 = DEFINITIONAL_REPRESENTATION('',(#38),#42);
#38 = LINE('',#39,#40);
#39 = CARTESIAN_POINT('',(68.,0.));
#40 = VECTOR('',#41,1.);
#41 = DIRECTION('',(0.,-1.));
#42 = ( GEOMETRIC_REPRESENTATION_CONTEXT(2) 
PARAMETRIC_REPRESENTATION_CONTEXT() REPRESENTATION_CONTEXT('2D SPACE',''
  ) );
#43 = PCURVE('',#44,#49);
#44 = PLANE('',#45);
#45 = AXIS2_PLACEMENT_3D('',#46,#47,#48);
#46 = CARTESIAN_POINT('',(-22.35,-23.,-20.));
#47 = DIRECTION('',(0.,0.,1.));
#48 = DIRECTION('',(1.,0.,0.));
#49 = DEFINITIONAL_REPRESENTATION('',(#50),#54);
#50 = LINE('',#51,#52);
#51 = CARTESIAN_POINT('',(0.,0.));
#52 = VECTOR('',#53,1.);
#53 = DIRECTION('',(0.,1.));
#54 = ( GEOMETRIC_REPRESENTATION_CONTEXT(2) 
PARAMETRIC_REPRESENTATION_CONTEXT() REPRESENTATION_CONTEXT('2D SPACE',''
  ) );
#55 = ORIENTED_EDGE('',*,*,#56,.T.);
#56 = EDGE_CURVE('',#22,#57,#59,.T.);
#57 = VERTEX_POINT('',#58);
#58 = CARTESIAN_POINT('',(-22.35,-5.,-47.27638761537));
#59 = SURFACE_CURVE('',#60,(#154,#251),.PCURVE_S1.);
#60 = B_SPLINE_CURVE_WITH_KNOTS('',8,(#61,#62,#63,#64,#65,#66,#67,#68,
    #69,#70,#71,#72,#73,#74,#75,#76,#77,#78,#79,#80,#81,#82,#83,#84,#85,
    #86,#87,#88,#89,#90,#91,#92,#93,#94,#95,#96,#97,#98,#99,#100,#101,
    #102,#103,#104,#105,#106,#107,#108,#109,#110,#111,#112,#113,#114,
    #115,#116,#117,#118,#119,#120,#121,#122,#123,#124,#125,#126,#127,
    #128,#129,#130,#131,#132,#133,#134,#135,#136,#137,#138,#139,#140,
    #141,#142,#143,#144,#145,#146,#147,#148,#149,#150,#151,#152,#153),
  .UNSPECIFIED.,.F.,.F.,(9,7,7,7,7,7,7,7,7,7,7,7,7,9),(0.,0.108838843263
    ,0.339802018692,0.450940303075,0.564623410368,0.62610266034,
    0.653071757221,0.682346829355,0.70615347964,0.736300945591,
    0.769052619241,0.8112550403,0.853530253144,1.),.UNSPECIFIED.);
#61 = CARTESIAN_POINT('',(-22.35,-17.76911241052,-20.));
#62 = CARTESIAN_POINT('',(-22.35,-17.8368675306,-20.77493497803));
#63 = CARTESIAN_POINT('',(-22.35,-17.90014973867,-21.55026245574));
#64 = CARTESIAN_POINT('',(-22.35,-17.95882428801,-22.32596151704));
#65 = CARTESIAN_POINT('',(-22.35,-18.01278879509,-23.10200749355));
#66 = CARTESIAN_POINT('',(-22.35,-18.06197030447,-23.87837215593));
#67 = CARTESIAN_POINT('',(-22.35,-18.10632235378,-24.65502390534));
#68 = CARTESIAN_POINT('',(-22.35,-18.14582203856,-25.43192796479));
#69 = CARTESIAN_POINT('',(-22.35,-18.25398612516,-27.85814330378));
#70 = CARTESIAN_POINT('',(-22.35,-18.30564403708,-29.50820047279));
#71 = CARTESIAN_POINT('',(-22.35,-18.33541480366,-31.15887157862));
#72 = CARTESIAN_POINT('',(-22.35,-18.34369975636,-32.80982900567));
#73 = CARTESIAN_POINT('',(-22.35,-18.33114171336,-34.46076177012));
#74 = CARTESIAN_POINT('',(-22.35,-18.29848594562,-36.11137528202));
#75 = CARTESIAN_POINT('',(-22.35,-18.24634697226,-37.7613900863));
#76 = CARTESIAN_POINT('',(-22.35,-18.14028338412,-40.20409728811));
#77 = CARTESIAN_POINT('',(-22.35,-18.10131824598,-40.99745621153));
#78 = CARTESIAN_POINT('',(-22.35,-18.05784747262,-41.79059048508));
#79 = CARTESIAN_POINT('',(-22.35,-18.00983572317,-42.58347071551));
#80 = CARTESIAN_POINT('',(-22.35,-17.95720454525,-43.37606071543));
#81 = CARTESIAN_POINT('',(-22.35,-17.89981114727,-44.16831610962));
#82 = CARTESIAN_POINT('',(-22.35,-17.83741102142,-44.96018178174));
#83 = CARTESIAN_POINT('',(-22.35,-17.70024519074,-46.56111601106));
#84 = CARTESIAN_POINT('',(-22.35,-17.62523587561,-47.37007107911));
#85 = CARTESIAN_POINT('',(-22.35,-17.54414441077,-48.17846672284));
#86 = CARTESIAN_POINT('',(-22.35,-17.45634534312,-48.98622704347));
#87 = CARTESIAN_POINT('',(-22.35,-17.36101068169,-49.79318752078));
#88 = CARTESIAN_POINT('',(-22.35,-17.25683367352,-50.5990577121));
#89 = CARTESIAN_POINT('',(-22.35,-17.14204429755,-51.40342533038));
#90 = CARTESIAN_POINT('',(-22.35,-16.94341977002,-52.63940594078));
#91 = CARTESIAN_POINT('',(-22.35,-16.86959759468,-53.07243395922));
#92 = CARTESIAN_POINT('',(-22.35,-16.79110199059,-53.50467789919));
#93 = CARTESIAN_POINT('',(-22.35,-16.70721437301,-53.93600228127));
#94 = CARTESIAN_POINT('',(-22.35,-16.61705638511,-54.36613930105));
#95 = CARTESIAN_POINT('',(-22.35,-16.51937367321,-54.79463753655));
#96 = CARTESIAN_POINT('',(-22.35,-16.41255186236,-55.22086847125));
#97 = CARTESIAN_POINT('',(-22.35,-16.24144538844,-55.82933440379));
#98 = CARTESIAN_POINT('',(-22.35,-16.1869566835,-56.01417773349));
#99 = CARTESIAN_POINT('',(-22.35,-16.12989660196,-56.19826796578));
#100 = CARTESIAN_POINT('',(-22.35,-16.06997155523,-56.38148445237));
#101 = CARTESIAN_POINT('',(-22.35,-16.00682876907,-56.56364493221));
#102 = CARTESIAN_POINT('',(-22.35,-15.94004346771,-56.74450118644));
#103 = CARTESIAN_POINT('',(-22.35,-15.86907897818,-56.92372516192));
#104 = CARTESIAN_POINT('',(-22.35,-15.710800807,-57.29316665528));
#105 = CARTESIAN_POINT('',(-22.35,-15.62295081732,-57.48221144987));
#106 = CARTESIAN_POINT('',(-22.35,-15.52840075844,-57.6683198012));
#107 = CARTESIAN_POINT('',(-22.35,-15.42578994321,-57.85087078408));
#108 = CARTESIAN_POINT('',(-22.35,-15.31364813224,-58.0283491019));
#109 = CARTESIAN_POINT('',(-22.35,-15.19014901311,-58.19813504265));
#110 = CARTESIAN_POINT('',(-22.35,-15.05322359537,-58.35662243801));
#111 = CARTESIAN_POINT('',(-22.35,-14.77448050582,-58.61377680262));
#112 = CARTESIAN_POINT('',(-22.35,-14.64563817492,-58.71136722021));
#113 = CARTESIAN_POINT('',(-22.35,-14.51298890152,-58.79096680232));
#114 = CARTESIAN_POINT('',(-22.35,-14.37657342837,-58.85245770416));
#115 = CARTESIAN_POINT('',(-22.35,-14.23645003744,-58.89584802732));
#116 = CARTESIAN_POINT('',(-22.35,-14.09269011859,-58.92125779417));
#117 = CARTESIAN_POINT('',(-22.35,-13.94537076036,-58.92889705912));
#118 = CARTESIAN_POINT('',(-22.35,-13.60359122409,-58.9065488382));
#119 = CARTESIAN_POINT('',(-22.35,-13.41601737326,-58.86658471142));
#120 = CARTESIAN_POINT('',(-22.35,-13.2339426228,-58.80439250426));
#121 = CARTESIAN_POINT('',(-22.35,-13.05830881916,-58.72558556275));
#122 = CARTESIAN_POINT('',(-22.35,-12.88945365471,-58.63441396909));
#123 = CARTESIAN_POINT('',(-22.35,-12.72706469053,-58.53405142644));
#124 = CARTESIAN_POINT('',(-22.35,-12.57021281141,-58.42629533298));
#125 = CARTESIAN_POINT('',(-22.35,-12.25130639728,-58.18712870057));
#126 = CARTESIAN_POINT('',(-22.35,-12.09093764534,-58.05520261447));
#127 = CARTESIAN_POINT('',(-22.35,-11.9353355527,-57.91755637822));
#128 = CARTESIAN_POINT('',(-22.35,-11.78393305371,-57.775308403));
#129 = CARTESIAN_POINT('',(-22.35,-11.63627977692,-57.62928819394));
#130 = CARTESIAN_POINT('',(-22.35,-11.49197037769,-57.48011214385));
#131 = CARTESIAN_POINT('',(-22.35,-11.35063732739,-57.32818888375));
#132 = CARTESIAN_POINT('',(-22.35,-11.03314822024,-56.97479729831));
#133 = CARTESIAN_POINT('',(-22.35,-10.85885867556,-56.77184445056));
#134 = CARTESIAN_POINT('',(-22.35,-10.6883921862,-56.56563276911));
#135 = CARTESIAN_POINT('',(-22.35,-10.52130039619,-56.35667653022));
#136 = CARTESIAN_POINT('',(-22.35,-10.35722996304,-56.14536976965));
#137 = CARTESIAN_POINT('',(-22.35,-10.19588278889,-55.93201815471));
#138 = CARTESIAN_POINT('',(-22.35,-10.03700405663,-55.71684844714));
#139 = CARTESIAN_POINT('',(-22.35,-9.72344858984,-55.28282939881));
#140 = CARTESIAN_POINT('',(-22.35,-9.568799631149,-55.06400203064));
#141 = CARTESIAN_POINT('',(-22.35,-9.416198601101,-54.84373359349));
#142 = CARTESIAN_POINT('',(-22.35,-9.265471446491,-54.62217762239));
#143 = CARTESIAN_POINT('',(-22.35,-9.116473060781,-54.39946025746));
#144 = CARTESIAN_POINT('',(-22.35,-8.969078062788,-54.17568653912));
#145 = CARTESIAN_POINT('',(-22.35,-8.823175290796,-53.95094414402));
#146 = CARTESIAN_POINT('',(-22.35,-8.177988758353,-52.94353741535));
#147 = CARTESIAN_POINT('',(-22.35,-7.694127670249,-52.15114406191));
#148 = CARTESIAN_POINT('',(-22.35,-7.222922315953,-51.3510484122));
#149 = CARTESIAN_POINT('',(-22.35,-6.762351605114,-50.54479558054));
#150 = CARTESIAN_POINT('',(-22.35,-6.310792918206,-49.73356952898));
#151 = CARTESIAN_POINT('',(-22.35,-5.867149948378,-48.91811301363));
#152 = CARTESIAN_POINT('',(-22.35,-5.430476501993,-48.09895405286));
#153 = CARTESIAN_POINT('',(-22.35,-5.,-47.27638761537));
#154 = PCURVE('',#32,#155);
#155 = DEFINITIONAL_REPRESENTATION('',(#156),#250);
#156 = B_SPLINE_CURVE_WITH_KNOTS('',8,(#157,#158,#159,#160,#161,#162,
    #163,#164,#165,#166,#167,#168,#169,#170,#171,#172,#173,#174,#175,
    #176,#177,#178,#179,#180,#181,#182,#183,#184,#185,#186,#187,#188,
    #189,#190,#191,#192,#193,#194,#195,#196,#197,#198,#199,#200,#201,
    #202,#203,#204,#205,#206,#207,#208,#209,#210,#211,#212,#213,#214,
    #215,#216,#217,#218,#219,#220,#221,#222,#223,#224,#225,#226,#227,
    #228,#229,#230,#231,#232,#233,#234,#235,#236,#237,#238,#239,#240,
    #241,#242,#243,#244,#245,#246,#247,#248,#249),.UNSPECIFIED.,.F.,.F.,
  (9,7,7,7,7,7,7,7,7,7,7,7,7,9),(0.,0.108838843263,0.339802018692,
    0.450940303075,0.564623410368,0.62610266034,0.653071757221,
    0.682346829355,0.70615347964,0.736300945591,0.769052619241,
    0.8112550403,0.853530253144,1.),.UNSPECIFIED.);
#157 = CARTESIAN_POINT('',(68.,-5.230887589472));
#158 = CARTESIAN_POINT('',(67.225065021969,-5.163132469395));
#159 = CARTESIAN_POINT('',(66.449737544257,-5.099850261321));
#160 = CARTESIAN_POINT('',(65.674038482951,-5.041175711982));
#161 = CARTESIAN_POINT('',(64.89799250645,-4.98721120491));
#162 = CARTESIAN_POINT('',(64.12162784407,-4.938029695523));
#163 = CARTESIAN_POINT('',(63.344976094658,-4.893677646215));
#164 = CARTESIAN_POINT('',(62.568072035202,-4.854177961438));
#165 = CARTESIAN_POINT('',(60.141856696216,-4.746013874837));
#166 = CARTESIAN_POINT('',(58.49179952721,-4.694355962913));
#167 = CARTESIAN_POINT('',(56.841128421378,-4.664585196332));
#168 = CARTESIAN_POINT('',(55.190170994328,-4.656300243632));
#169 = CARTESIAN_POINT('',(53.539238229878,-4.668858286631));
#170 = CARTESIAN_POINT('',(51.888624717977,-4.701514054379));
#171 = CARTESIAN_POINT('',(50.2386099137,-4.753653027733));
#172 = CARTESIAN_POINT('',(47.795902711883,-4.859716615876));
#173 = CARTESIAN_POINT('',(47.002543788465,-4.898681754012));
#174 = CARTESIAN_POINT('',(46.209409514916,-4.942152527374));
#175 = CARTESIAN_POINT('',(45.416529284483,-4.990164276827));
#176 = CARTESIAN_POINT('',(44.623939284566,-5.042795454748));
#177 = CARTESIAN_POINT('',(43.83168389038,-5.100188852727));
#178 = CARTESIAN_POINT('',(43.039818218257,-5.162588978579));
#179 = CARTESIAN_POINT('',(41.438883988931,-5.29975480926));
#180 = CARTESIAN_POINT('',(40.629928920888,-5.374764124381));
#181 = CARTESIAN_POINT('',(39.821533277158,-5.455855589229));
#182 = CARTESIAN_POINT('',(39.013772956521,-5.543654656876));
#183 = CARTESIAN_POINT('',(38.206812479216,-5.638989318302));
#184 = CARTESIAN_POINT('',(37.400942287897,-5.743166326476));
#185 = CARTESIAN_POINT('',(36.596574669611,-5.857955702447));
#186 = CARTESIAN_POINT('',(35.360594059213,-6.056580229971));
#187 = CARTESIAN_POINT('',(34.927566040775,-6.130402405319));
#188 = CARTESIAN_POINT('',(34.495322100809,-6.208898009407));
#189 = CARTESIAN_POINT('',(34.063997718722,-6.292785626988));
#190 = CARTESIAN_POINT('',(33.63386069895,-6.382943614881));
#191 = CARTESIAN_POINT('',(33.205362463449,-6.480626326785));
#192 = CARTESIAN_POINT('',(32.77913152875,-6.587448137636));
#193 = CARTESIAN_POINT('',(32.170665596207,-6.758554611556));
#194 = CARTESIAN_POINT('',(31.985822266508,-6.813043316498));
#195 = CARTESIAN_POINT('',(31.801732034216,-6.870103398035));
#196 = CARTESIAN_POINT('',(31.618515547621,-6.930028444768));
#197 = CARTESIAN_POINT('',(31.436355067787,-6.993171230929));
#198 = CARTESIAN_POINT('',(31.255498813559,-7.059956532289));
#199 = CARTESIAN_POINT('',(31.076274838074,-7.130921021817));
#200 = CARTESIAN_POINT('',(30.706833344713,-7.289199192995));
#201 = CARTESIAN_POINT('',(30.517788550121,-7.377049182675));
#202 = CARTESIAN_POINT('',(30.331680198791,-7.47159924156));
#203 = CARTESIAN_POINT('',(30.14912921592,-7.574210056786));
#204 = CARTESIAN_POINT('',(29.971650898099,-7.686351867757));
#205 = CARTESIAN_POINT('',(29.801864957343,-7.809850986888));
#206 = CARTESIAN_POINT('',(29.643377561983,-7.946776404627));
#207 = CARTESIAN_POINT('',(29.386223197379,-8.225519494171));
#208 = CARTESIAN_POINT('',(29.28863277979,-8.354361825077));
#209 = CARTESIAN_POINT('',(29.209033197676,-8.487011098479));
#210 = CARTESIAN_POINT('',(29.147542295833,-8.623426571629));
#211 = CARTESIAN_POINT('',(29.104151972677,-8.763549962555));
#212 = CARTESIAN_POINT('',(29.078742205825,-8.907309881404));
#213 = CARTESIAN_POINT('',(29.071102940871,-9.054629239632));
#214 = CARTESIAN_POINT('',(29.093451161793,-9.396408775907));
#215 = CARTESIAN_POINT('',(29.133415288575,-9.583982626735));
#216 = CARTESIAN_POINT('',(29.195607495736,-9.766057377198));
#217 = CARTESIAN_POINT('',(29.274414437247,-9.94169118084));
#218 = CARTESIAN_POINT('',(29.365586030907,-10.11054634529));
#219 = CARTESIAN_POINT('',(29.465948573556,-10.27293530947));
#220 = CARTESIAN_POINT('',(29.573704667018,-10.42978718858));
#221 = CARTESIAN_POINT('',(29.812871299423,-10.74869360271));
#222 = CARTESIAN_POINT('',(29.944797385524,-10.90906235465));
#223 = CARTESIAN_POINT('',(30.082443621775,-11.06466444729));
#224 = CARTESIAN_POINT('',(30.224691596997,-11.21606694629));
#225 = CARTESIAN_POINT('',(30.370711806053,-11.36372022307));
#226 = CARTESIAN_POINT('',(30.519887856144,-11.50802962231));
#227 = CARTESIAN_POINT('',(30.671811116247,-11.6493626726));
#228 = CARTESIAN_POINT('',(31.02520270169,-11.96685177975));
#229 = CARTESIAN_POINT('',(31.228155549436,-12.14114132443));
#230 = CARTESIAN_POINT('',(31.434367230889,-12.31160781379));
#231 = CARTESIAN_POINT('',(31.64332346978,-12.4786996038));
#232 = CARTESIAN_POINT('',(31.854630230342,-12.64277003695));
#233 = CARTESIAN_POINT('',(32.067981845287,-12.8041172111));
#234 = CARTESIAN_POINT('',(32.283151552855,-12.96299594336));
#235 = CARTESIAN_POINT('',(32.717170601188,-13.27655141016));
#236 = CARTESIAN_POINT('',(32.935997969352,-13.43120036885));
#237 = CARTESIAN_POINT('',(33.156266406509,-13.58380139889));
#238 = CARTESIAN_POINT('',(33.377822377606,-13.7345285535));
#239 = CARTESIAN_POINT('',(33.600539742531,-13.88352693921));
#240 = CARTESIAN_POINT('',(33.824313460871,-14.03092193721));
#241 = CARTESIAN_POINT('',(34.049055855971,-14.1768247092));
#242 = CARTESIAN_POINT('',(35.056462584647,-14.82201124164));
#243 = CARTESIAN_POINT('',(35.848855938088,-15.30587232975));
#244 = CARTESIAN_POINT('',(36.648951587792,-15.77707768404));
#245 = CARTESIAN_POINT('',(37.455204419451,-16.23764839488));
#246 = CARTESIAN_POINT('',(38.266430471012,-16.68920708179));
#247 = CARTESIAN_POINT('',(39.081886986365,-17.13285005162));
#248 = CARTESIAN_POINT('',(39.901045947131,-17.569523498));
#249 = CARTESIAN_POINT('',(40.723612384627,-18.));
#250 = ( GEOMETRIC_REPRESENTATION_CONTEXT(2) 
PARAMETRIC_REPRESENTATION_CONTEXT() REPRESENTATION_CONTEXT('2D SPACE',''
  ) );
#251 = PCURVE('',#252,#343);
#252 = ( BOUNDED_SURFACE() B_SPLINE_SURFACE(14,5,(
    (#253,#254,#255,#256,#257,#258)
    ,(#259,#260,#261,#262,#263,#264)
    ,(#265,#266,#267,#268,#269,#270)
    ,(#271,#272,#273,#274,#275,#276)
    ,(#277,#278,#279,#280,#281,#282)
    ,(#283,#284,#285,#286,#287,#288)
    ,(#289,#290,#291,#292,#293,#294)
    ,(#295,#296,#297,#298,#299,#300)
    ,(#301,#302,#303,#304,#305,#306)
    ,(#307,#308,#309,#310,#311,#312)
    ,(#313,#314,#315,#316,#317,#318)
    ,(#319,#320,#321,#322,#323,#324)
    ,(#325,#326,#327,#328,#329,#330)
    ,(#331,#332,#333,#334,#335,#336)
    ,(#337,#338,#339,#340,#341,#342
)),.UNSPECIFIED.,.T.,.F.,.F.) B_SPLINE_SURFACE_WITH_KNOTS((15,15),(6,6),
  (0.,1.),(0.,1.),.PIECEWISE_BEZIER_KNOTS.) 
GEOMETRIC_REPRESENTATION_ITEM() RATIONAL_B_SPLINE_SURFACE((
    (1.,1.,1.,1.,1.,1.)
    ,(1.,1.,1.,1.,1.,1.)
    ,(1.,1.,1.,1.,1.,1.)
    ,(1.,1.,1.,1.,1.,1.)
    ,(1.,1.,1.,1.,1.,1.)
    ,(1.,1.,1.,1.,1.,1.)
    ,(1.,1.,1.,1.,1.,1.)
    ,(1.,1.,1.,1.,1.,1.)
    ,(1.,1.,1.,1.,1.,1.)
    ,(1.,1.,1.,1.,1.,1.)
    ,(1.,1.,1.,1.,1.,1.)
    ,(1.,1.,1.,1.,1.,1.)
    ,(1.,1.,1.,1.,1.,1.)
    ,(1.,1.,1.,1.,1.,1.)
,(1.,1.,1.,1.,1.,1.))) REPRESENTATION_ITEM('') SURFACE() );
#253 = CARTESIAN_POINT('',(17.,-24.5,-97.));
#254 = CARTESIAN_POINT('',(24.695572997032,-19.3397591547,
    -77.51967133455));
#255 = CARTESIAN_POINT('',(15.196592142779,-9.442324537701,
    -55.11219644121));
#256 = CARTESIAN_POINT('',(31.729761407938,-12.34565689953,
    -35.33195450265));
#257 = CARTESIAN_POINT('',(28.25621735006,-2.109562729412,
    -14.41592287524));
#258 = CARTESIAN_POINT('',(30.,2.606519132579E-15,7.));
#259 = CARTESIAN_POINT('',(17.000000000003,-19.11441259384,-97.));
#260 = CARTESIAN_POINT('',(24.695572997047,-11.42786359354,
    -77.51967133455));
#261 = CARTESIAN_POINT('',(15.196592142752,-4.138002351172,
    -55.11219644121));
#262 = CARTESIAN_POINT('',(31.729761407966,-3.391128076955,
    -35.33195450265));
#263 = CARTESIAN_POINT('',(28.256217350054,7.518698588513,
    -14.41592287524));
#264 = CARTESIAN_POINT('',(30.000000000004,9.873576911289,7.));
#265 = CARTESIAN_POINT('',(13.3124558596,-13.72882319974,-97.));
#266 = CARTESIAN_POINT('',(19.338748555862,-3.515965111931,
    -77.51967133455));
#267 = CARTESIAN_POINT('',(11.900233065841,1.166321793248,
    -55.11219644121));
#268 = CARTESIAN_POINT('',(24.847120481,5.563404050998,-35.33195450265)
  );
#269 = CARTESIAN_POINT('',(22.12703801369,17.146963460419,
    -14.41592287524));
#270 = CARTESIAN_POINT('',(23.492569164001,19.747157467127,7.));
#271 = CARTESIAN_POINT('',(5.93736286467,-9.706167841123,-97.));
#272 = CARTESIAN_POINT('',(8.625092825689,2.393664920164,-77.51967133455
    ));
#273 = CARTESIAN_POINT('',(5.307510697172,5.128277743268,-55.11219644121
    ));
#274 = CARTESIAN_POINT('',(11.081829829017,12.251807865598,
    -35.33195450265));
#275 = CARTESIAN_POINT('',(9.868671505181,24.338598107511,
    -14.41592287524));
#276 = CARTESIAN_POINT('',(10.477699172943,27.122025624609,7.));
#277 = CARTESIAN_POINT('',(-4.022380450564,-8.409228850085,-97.));
#278 = CARTESIAN_POINT('',(-5.84323470845,4.298980918694,-77.51967133455
    ));
#279 = CARTESIAN_POINT('',(-3.595675008099,6.405646717976,
    -55.11219644121));
#280 = CARTESIAN_POINT('',(-7.507598352846,14.408207289226,
    -35.33195450265));
#281 = CARTESIAN_POINT('',(-6.685720957131,26.657243517334,
    -14.41592287524));
#282 = CARTESIAN_POINT('',(-7.098318442164,29.499747108174,7.));
#283 = CARTESIAN_POINT('',(-14.36118622684,-10.71227766788,-97.));
#284 = CARTESIAN_POINT('',(-20.86221898712,0.915602218347,
    -77.51967133455));
#285 = CARTESIAN_POINT('',(-12.83771116449,4.137349498561,
    -55.11219644121));
#286 = CARTESIAN_POINT('',(-26.80453014687,10.578965376072,
    -35.33195450265));
#287 = CARTESIAN_POINT('',(-23.87016467281,22.539892117711,
    -14.41592287524));
#288 = CARTESIAN_POINT('',(-25.34326981209,25.277490942222,7.));
#289 = CARTESIAN_POINT('',(-22.2537089282,-16.50937705681,-97.));
#290 = CARTESIAN_POINT('',(-32.32753490008,-7.600840179445,
    -77.51967133455));
#291 = CARTESIAN_POINT('',(-19.89297283641,-1.572275207285,
    -55.11219644121));
#292 = CARTESIAN_POINT('',(-41.53558086791,0.940222255719,
    -35.33195450265));
#293 = CARTESIAN_POINT('',(-36.9885668418,12.175936694658,
    -14.41592287524));
#294 = CARTESIAN_POINT('',(-39.27125104975,14.649475395817,7.));
#295 = CARTESIAN_POINT('',(-25.22508623481,-24.49999999985,-97.));
#296 = CARTESIAN_POINT('',(-36.64399755631,-19.33975915445,
    -77.51967133455));
#297 = CARTESIAN_POINT('',(-22.54913807683,-9.442324537206,
    -55.11219644121));
#298 = CARTESIAN_POINT('',(-47.08152751192,-12.34565689991,
    -35.33195450265));
#299 = CARTESIAN_POINT('',(-41.92738349032,-2.109562728943,
    -14.41592287524));
#300 = CARTESIAN_POINT('',(-44.51485806145,2.913297794736E-10,7.));
#301 = CARTESIAN_POINT('',(-22.25370892821,-32.49062294344,-97.));
#302 = CARTESIAN_POINT('',(-32.32753490004,-31.0786781304,
    -77.51967133455));
#303 = CARTESIAN_POINT('',(-19.89297283646,-17.31237386902,
    -55.11219644121));
#304 = CARTESIAN_POINT('',(-41.53558086789,-25.63153605409,
    -35.33195450265));
#305 = CARTESIAN_POINT('',(-36.98856684181,-16.39506215434,
    -14.41592287524));
#306 = CARTESIAN_POINT('',(-39.27125104976,-14.64947539635,7.));
#307 = CARTESIAN_POINT('',(-14.36118622683,-38.28772233191,-97.));
#308 = CARTESIAN_POINT('',(-20.86221898718,-39.5951205274,
    -77.51967133455));
#309 = CARTESIAN_POINT('',(-12.83771116441,-23.02199857327,
    -55.11219644121));
#310 = CARTESIAN_POINT('',(-26.8045301469,-35.27027917565,
    -35.33195450265));
#311 = CARTESIAN_POINT('',(-23.87016467279,-26.75901757588,
    -14.41592287524));
#312 = CARTESIAN_POINT('',(-25.34326981208,-25.27749094181,7.));
#313 = CARTESIAN_POINT('',(-4.022380450576,-40.59077115003,-97.));
#314 = CARTESIAN_POINT('',(-5.8432347084,-42.97849922831,-77.51967133455
    ));
#315 = CARTESIAN_POINT('',(-3.595675008171,-25.29029579379,
    -55.11219644121));
#316 = CARTESIAN_POINT('',(-7.507598352813,-39.09952108798,
    -35.33195450265));
#317 = CARTESIAN_POINT('',(-6.685720957153,-30.87636897655,
    -14.41592287524));
#318 = CARTESIAN_POINT('',(-7.098318442175,-29.49974710843,7.));
#319 = CARTESIAN_POINT('',(5.937362864677,-39.29383215881,-97.));
#320 = CARTESIAN_POINT('',(8.62509282566,-41.07318322945,-77.51967133455
    ));
#321 = CARTESIAN_POINT('',(5.307510697216,-24.01292681846,
    -55.11219644121));
#322 = CARTESIAN_POINT('',(11.081829828995,-36.94312166481,
    -35.33195450265));
#323 = CARTESIAN_POINT('',(9.868671505195,-28.55772356614,
    -14.41592287524));
#324 = CARTESIAN_POINT('',(10.47769917295,-27.12202562447,7.));
#325 = CARTESIAN_POINT('',(13.312455859597,-35.27117680027,-97.));
#326 = CARTESIAN_POINT('',(19.338748555873,-35.16355319751,
    -77.51967133455));
#327 = CARTESIAN_POINT('',(11.900233065823,-20.05097086872,
    -55.11219644121));
#328 = CARTESIAN_POINT('',(24.84712048101,-30.25471785001,
    -35.33195450265));
#329 = CARTESIAN_POINT('',(22.127038013684,-21.36608891931,
    -14.41592287524));
#330 = CARTESIAN_POINT('',(23.492569163999,-19.74715746717,7.));
#331 = CARTESIAN_POINT('',(17.000000000003,-29.88558740615,-97.));
#332 = CARTESIAN_POINT('',(24.695572997044,-27.25165471584,
    -77.51967133455));
#333 = CARTESIAN_POINT('',(15.196592142756,-14.74664672421,
    -55.11219644121));
#334 = CARTESIAN_POINT('',(31.729761407964,-21.30018572212,
    -35.33195450265));
#335 = CARTESIAN_POINT('',(28.256217350056,-11.73782404732,
    -14.41592287524));
#336 = CARTESIAN_POINT('',(30.000000000005,-9.873576911278,7.));
#337 = CARTESIAN_POINT('',(17.,-24.5,-97.));
#338 = CARTESIAN_POINT('',(24.695572997032,-19.3397591547,
    -77.51967133455));
#339 = CARTESIAN_POINT('',(15.196592142778,-9.442324537701,
    -55.11219644121));
#340 = CARTESIAN_POINT('',(31.729761407938,-12.34565689953,
    -35.33195450265));
#341 = CARTESIAN_POINT('',(28.25621735006,-2.109562729412,
    -14.41592287524));
#342 = CARTESIAN_POINT('',(30.,-1.160433578539E-14,7.));
#343 = DEFINITIONAL_REPRESENTATION('',(#344),#438);
#344 = B_SPLINE_CURVE_WITH_KNOTS('',8,(#345,#346,#347,#348,#349,#350,
    #351,#352,#353,#354,#355,#356,#357,#358,#359,#360,#361,#362,#363,
    #364,#365,#366,#367,#368,#369,#370,#371,#372,#373,#374,#375,#376,
    #377,#378,#379,#380,#381,#382,#383,#384,#385,#386,#387,#388,#389,
    #390,#391,#392,#393,#394,#395,#396,#397,#398,#399,#400,#401,#402,
    #403,#404,#405,#406,#407,#408,#409,#410,#411,#412,#413,#414,#415,
    #416,#417,#418,#419,#420,#421,#422,#423,#424,#425,#426,#427,#428,
    #429,#430,#431,#432,#433,#434,#435,#436,#437),.UNSPECIFIED.,.F.,.F.,
  (9,7,7,7,7,7,7,7,7,7,7,7,7,9),(0.,0.108838843263,0.339802018692,
    0.450940303075,0.564623410368,0.62610266034,0.653071757221,
    0.682346829355,0.70615347964,0.736300945591,0.769052619241,
    0.8112550403,0.853530253144,1.),.UNSPECIFIED.);
#345 = CARTESIAN_POINT('',(0.605214872669,0.74455021061));
#346 = CARTESIAN_POINT('',(0.604619651233,0.73713139275));
#347 = CARTESIAN_POINT('',(0.60399075494,0.729704545398));
#348 = CARTESIAN_POINT('',(0.603326990881,0.722270108537));
#349 = CARTESIAN_POINT('',(0.602627228079,0.714828569636));
#350 = CARTESIAN_POINT('',(0.601890388647,0.707380459876));
#351 = CARTESIAN_POINT('',(0.601115438934,0.699926350376));
#352 = CARTESIAN_POINT('',(0.600301380688,0.692466848421));
#353 = CARTESIAN_POINT('',(0.597634704213,0.669162954775));
#354 = CARTESIAN_POINT('',(0.595641690678,0.653301967902));
#355 = CARTESIAN_POINT('',(0.593458864079,0.637425606642));
#356 = CARTESIAN_POINT('',(0.591077451884,0.621539733292));
#357 = CARTESIAN_POINT('',(0.588488413706,0.605650021754));
#358 = CARTESIAN_POINT('',(0.585682225229,0.589761857518));
#359 = CARTESIAN_POINT('',(0.582647661618,0.573880252057));
#360 = CARTESIAN_POINT('',(0.577789789177,0.550373033923));
#361 = CARTESIAN_POINT('',(0.576154849813,0.542738850749));
#362 = CARTESIAN_POINT('',(0.574461276441,0.535107702998));
#363 = CARTESIAN_POINT('',(0.57270685395,0.527480080563));
#364 = CARTESIAN_POINT('',(0.570888993726,0.519856519716));
#365 = CARTESIAN_POINT('',(0.569004542009,0.512237614331));
#366 = CARTESIAN_POINT('',(0.567049423572,0.504624038282));
#367 = CARTESIAN_POINT('',(0.562940305513,0.489234925633));
#368 = CARTESIAN_POINT('',(0.560783002782,0.481460558781));
#369 = CARTESIAN_POINT('',(0.558540123954,0.473693476421));
#370 = CARTESIAN_POINT('',(0.55620387785,0.46593450758));
#371 = CARTESIAN_POINT('',(0.553764700109,0.458185303193));
#372 = CARTESIAN_POINT('',(0.551208569049,0.450448689672));
#373 = CARTESIAN_POINT('',(0.548517173844,0.442728625988));
#374 = CARTESIAN_POINT('',(0.544107755117,0.430869294771));
#375 = CARTESIAN_POINT('',(0.542510777772,0.426714969001));
#376 = CARTESIAN_POINT('',(0.540858600929,0.422568771751));
#377 = CARTESIAN_POINT('',(0.539144083305,0.418431993197));
#378 = CARTESIAN_POINT('',(0.537358749402,0.414307188964));
#379 = CARTESIAN_POINT('',(0.535490744055,0.410198670028));
#380 = CARTESIAN_POINT('',(0.533524995569,0.406112439005));
#381 = CARTESIAN_POINT('',(0.530516274872,0.400279887616));
#382 = CARTESIAN_POINT('',(0.529574969444,0.398508141879));
#383 = CARTESIAN_POINT('',(0.528607325055,0.396743713118));
#384 = CARTESIAN_POINT('',(0.527610638557,0.394987754876));
#385 = CARTESIAN_POINT('',(0.526581747786,0.39324201078));
#386 = CARTESIAN_POINT('',(0.525516916318,0.391508855967));
#387 = CARTESIAN_POINT('',(0.524411467881,0.38979142983));
#388 = CARTESIAN_POINT('',(0.522007670584,0.386251402117));
#389 = CARTESIAN_POINT('',(0.520706121057,0.384440052487));
#390 = CARTESIAN_POINT('',(0.519341160284,0.382656929973));
#391 = CARTESIAN_POINT('',(0.517900491579,0.380907977559));
#392 = CARTESIAN_POINT('',(0.516372731348,0.379207705381));
#393 = CARTESIAN_POINT('',(0.514745514397,0.377581199456));
#394 = CARTESIAN_POINT('',(0.513006466839,0.376062989165));
#395 = CARTESIAN_POINT('',(0.509612018799,0.373599685422));
#396 = CARTESIAN_POINT('',(0.508090375654,0.372664888803));
#397 = CARTESIAN_POINT('',(0.506570813694,0.371902441348));
#398 = CARTESIAN_POINT('',(0.505054526873,0.371313458907));
#399 = CARTESIAN_POINT('',(0.503542540851,0.370897854816));
#400 = CARTESIAN_POINT('',(0.502035692543,0.370654474116));
#401 = CARTESIAN_POINT('',(0.500534604973,0.37058130298));
#402 = CARTESIAN_POINT('',(0.49714653601,0.370795360242));
#403 = CARTESIAN_POINT('',(0.495352392941,0.371178147721));
#404 = CARTESIAN_POINT('',(0.493666582581,0.371773844623));
#405 = CARTESIAN_POINT('',(0.492085560865,0.372528694756));
#406 = CARTESIAN_POINT('',(0.490602686056,0.37340199861));
#407 = CARTESIAN_POINT('',(0.489207277571,0.374363363514));
#408 = CARTESIAN_POINT('',(0.487885682228,0.375395578367));
#409 = CARTESIAN_POINT('',(0.485247482125,0.377686666359));
#410 = CARTESIAN_POINT('',(0.483949150882,0.378950483698));
#411 = CARTESIAN_POINT('',(0.482712939003,0.38026914148));
#412 = CARTESIAN_POINT('',(0.481530434262,0.381631932424));
#413 = CARTESIAN_POINT('',(0.480395089489,0.383030915604));
#414 = CARTESIAN_POINT('',(0.47930132468,0.384460190771));
#415 = CARTESIAN_POINT('',(0.478244441081,0.385915847475));
#416 = CARTESIAN_POINT('',(0.475900109715,0.389302023879));
#417 = CARTESIAN_POINT('',(0.474635219715,0.391246809531));
#418 = CARTESIAN_POINT('',(0.47341712485,0.393222934774));
#419 = CARTESIAN_POINT('',(0.472240055928,0.395225479899));
#420 = CARTESIAN_POINT('',(0.471099497402,0.397250676221));
#421 = CARTESIAN_POINT('',(0.469991709427,0.399295600972));
#422 = CARTESIAN_POINT('',(0.468913583605,0.40135808685));
#423 = CARTESIAN_POINT('',(0.466809385961,0.405518609059));
#424 = CARTESIAN_POINT('',(0.465783541909,0.407616435239));
#425 = CARTESIAN_POINT('',(0.464782236238,0.409728220529));
#426 = CARTESIAN_POINT('',(0.463803359697,0.411852498255));
#427 = CARTESIAN_POINT('',(0.462845164301,0.413988063764));
#428 = CARTESIAN_POINT('',(0.461906154654,0.416133914164));
#429 = CARTESIAN_POINT('',(0.460985023019,0.418289212585));
#430 = CARTESIAN_POINT('',(0.456947196535,0.427951050185));
#431 = CARTESIAN_POINT('',(0.454015215279,0.435552672286));
#432 = CARTESIAN_POINT('',(0.451236791354,0.443230247577));
#433 = CARTESIAN_POINT('',(0.4485892026,0.450969040803));
#434 = CARTESIAN_POINT('',(0.44605469947,0.458757733129));
#435 = CARTESIAN_POINT('',(0.443621916389,0.466589192315));
#436 = CARTESIAN_POINT('',(0.441281477244,0.474458308206));
#437 = CARTESIAN_POINT('',(0.439026254559,0.482362171878));
#438 = ( GEOMETRIC_REPRESENTATION_CONTEXT(2) 
PARAMETRIC_REPRESENTATION_CONTEXT() REPRESENTATION_CONTEXT('2D SPACE',''
  ) );
#439 = ORIENTED_EDGE('',*,*,#440,.T.);
#440 = EDGE_CURVE('',#57,#24,#441,.T.);
#441 = SURFACE_CURVE('',#442,(#446,#453),.PCURVE_S1.);
#442 = LINE('',#443,#444);
#443 = CARTESIAN_POINT('',(-22.35,-5.,-88.));
#444 = VECTOR('',#445,1.);
#445 = DIRECTION('',(0.,0.,1.));
#446 = PCURVE('',#32,#447);
#447 = DEFINITIONAL_REPRESENTATION('',(#448),#452);
#448 = LINE('',#449,#450);
#449 = CARTESIAN_POINT('',(0.,-18.));
#450 = VECTOR('',#451,1.);
#451 = DIRECTION('',(1.,0.));
#452 = ( GEOMETRIC_REPRESENTATION_CONTEXT(2) 
PARAMETRIC_REPRESENTATION_CONTEXT() REPRESENTATION_CONTEXT('2D SPACE',''
  ) );
#453 = PCURVE('',#454,#459);
#454 = PLANE('',#455);
#455 = AXIS2_PLACEMENT_3D('',#456,#457,#458);
#456 = CARTESIAN_POINT('',(-22.35,-5.,-88.));
#457 = DIRECTION('',(0.,1.,0.));
#458 = DIRECTION('',(0.,0.,1.));
#459 = DEFINITIONAL_REPRESENTATION('',(#460),#464);
#460 = LINE('',#461,#462);
#461 = CARTESIAN_POINT('',(0.,0.));
#462 = VECTOR('',#463,1.);
#463 = DIRECTION('',(1.,0.));
#464 = ( GEOMETRIC_REPRESENTATION_CONTEXT(2) 
PARAMETRIC_REPRESENTATION_CONTEXT() REPRESENTATION_CONTEXT('2D SPACE',''
  ) );
#465 = ADVANCED_FACE('',(#466),#44,.T.);
#466 = FACE_BOUND('',#467,.T.);
#467 = EDGE_LOOP('',(#468,#469,#507,#535,#563));
#468 = ORIENTED_EDGE('',*,*,#21,.F.);
#469 = ORIENTED_EDGE('',*,*,#470,.F.);
#470 = EDGE_CURVE('',#471,#22,#473,.T.);
#471 = VERTEX_POINT('',#472);
#472 = CARTESIAN_POINT('',(-13.82196792982,-23.,-20.));
#473 = SURFACE_CURVE('',#474,(#483,#495),.PCURVE_S1.);
#474 = B_SPLINE_CURVE_WITH_KNOTS('',7,(#475,#476,#477,#478,#479,#480,
    #481,#482),.UNSPECIFIED.,.F.,.F.,(8,8),(0.,1.),
  .PIECEWISE_BEZIER_KNOTS.);
#475 = CARTESIAN_POINT('',(-13.82196792982,-23.,-20.));
#476 = CARTESIAN_POINT('',(-15.15668749065,-22.46709219855,-20.));
#477 = CARTESIAN_POINT('',(-16.46380424593,-21.86638738291,-20.));
#478 = CARTESIAN_POINT('',(-17.73853431167,-21.19566051555,-20.));
#479 = CARTESIAN_POINT('',(-18.974062478,-20.45255205587,-20.));
#480 = CARTESIAN_POINT('',(-20.16171293405,-19.63488208406,-20.));
#481 = CARTESIAN_POINT('',(-21.29110098755,-18.7408987046,-20.));
#482 = CARTESIAN_POINT('',(-22.35,-17.76911241052,-20.));
#483 = PCURVE('',#44,#484);
#484 = DEFINITIONAL_REPRESENTATION('',(#485),#494);
#485 = B_SPLINE_CURVE_WITH_KNOTS('',7,(#486,#487,#488,#489,#490,#491,
    #492,#493),.UNSPECIFIED.,.F.,.F.,(8,8),(0.,1.),
  .PIECEWISE_BEZIER_KNOTS.);
#486 = CARTESIAN_POINT('',(8.528032070175,0.));
#487 = CARTESIAN_POINT('',(7.193312509344,0.532907801446));
#488 = CARTESIAN_POINT('',(5.886195754064,1.133612617088));
#489 = CARTESIAN_POINT('',(4.611465688328,1.804339484444));
#490 = CARTESIAN_POINT('',(3.375937521995,2.54744794413));
#491 = CARTESIAN_POINT('',(2.18828706595,3.365117915932));
#492 = CARTESIAN_POINT('',(1.05889901245,4.2591012954));
#493 = CARTESIAN_POINT('',(0.,5.230887589472));
#494 = ( GEOMETRIC_REPRESENTATION_CONTEXT(2) 
PARAMETRIC_REPRESENTATION_CONTEXT() REPRESENTATION_CONTEXT('2D SPACE',''
  ) );
#495 = PCURVE('',#252,#496);
#496 = DEFINITIONAL_REPRESENTATION('',(#497),#506);
#497 = B_SPLINE_CURVE_WITH_KNOTS('',7,(#498,#499,#500,#501,#502,#503,
    #504,#505),.UNSPECIFIED.,.F.,.F.,(8,8),(0.,1.),
  .PIECEWISE_BEZIER_KNOTS.);
#498 = CARTESIAN_POINT('',(0.668836784559,0.74455021061));
#499 = CARTESIAN_POINT('',(0.660240842065,0.74455021061));
#500 = CARTESIAN_POINT('',(0.651519725412,0.74455021061));
#501 = CARTESIAN_POINT('',(0.642647380031,0.74455021061));
#502 = CARTESIAN_POINT('',(0.633601895305,0.74455021061));
#503 = CARTESIAN_POINT('',(0.624362649935,0.74455021061));
#504 = CARTESIAN_POINT('',(0.614908906702,0.74455021061));
#505 = CARTESIAN_POINT('',(0.605214872669,0.74455021061));
#506 = ( GEOMETRIC_REPRESENTATION_CONTEXT(2) 
PARAMETRIC_REPRESENTATION_CONTEXT() REPRESENTATION_CONTEXT('2D SPACE',''
  ) );
#507 = ORIENTED_EDGE('',*,*,#508,.T.);
#508 = EDGE_CURVE('',#471,#509,#511,.T.);
#509 = VERTEX_POINT('',#510);
#510 = CARTESIAN_POINT('',(-9.65,-23.,-20.));
#511 = SURFACE_CURVE('',#512,(#516,#523),.PCURVE_S1.);
#512 = LINE('',#513,#514);
#513 = CARTESIAN_POINT('',(-22.35,-23.,-20.));
#514 = VECTOR('',#515,1.);
#515 = DIRECTION('',(1.,0.,0.));
#516 = PCURVE('',#44,#517);
#517 = DEFINITIONAL_REPRESENTATION('',(#518),#522);
#518 = LINE('',#519,#520);
#519 = CARTESIAN_POINT('',(0.,0.));
#520 = VECTOR('',#521,1.);
#521 = DIRECTION('',(1.,0.));
#522 = ( GEOMETRIC_REPRESENTATION_CONTEXT(2) 
PARAMETRIC_REPRESENTATION_CONTEXT() REPRESENTATION_CONTEXT('2D SPACE',''
  ) );
#523 = PCURVE('',#524,#529);
#524 = PLANE('',#525);
#525 = AXIS2_PLACEMENT_3D('',#526,#527,#528);
#526 = CARTESIAN_POINT('',(-22.35,-23.,-88.));
#527 = DIRECTION('',(0.,1.,0.));
#528 = DIRECTION('',(0.,0.,1.));
#529 = DEFINITIONAL_REPRESENTATION('',(#530),#534);
#530 = LINE('',#531,#532);
#531 = CARTESIAN_POINT('',(68.,0.));
#532 = VECTOR('',#533,1.);
#533 = DIRECTION('',(0.,1.));
#534 = ( GEOMETRIC_REPRESENTATION_CONTEXT(2) 
PARAMETRIC_REPRESENTATION_CONTEXT() REPRESENTATION_CONTEXT('2D SPACE',''
  ) );
#535 = ORIENTED_EDGE('',*,*,#536,.T.);
#536 = EDGE_CURVE('',#509,#537,#539,.T.);
#537 = VERTEX_POINT('',#538);
#538 = CARTESIAN_POINT('',(-9.65,-5.,-20.));
#539 = SURFACE_CURVE('',#540,(#544,#551),.PCURVE_S1.);
#540 = LINE('',#541,#542);
#541 = CARTESIAN_POINT('',(-9.65,-23.,-20.));
#542 = VECTOR('',#543,1.);
#543 = DIRECTION('',(0.,1.,0.));
#544 = PCURVE('',#44,#545);
#545 = DEFINITIONAL_REPRESENTATION('',(#546),#550);
#546 = LINE('',#547,#548);
#547 = CARTESIAN_POINT('',(12.7,0.));
#548 = VECTOR('',#549,1.);
#549 = DIRECTION('',(0.,1.));
#550 = ( GEOMETRIC_REPRESENTATION_CONTEXT(2) 
PARAMETRIC_REPRESENTATION_CONTEXT() REPRESENTATION_CONTEXT('2D SPACE',''
  ) );
#551 = PCURVE('',#552,#557);
#552 = PLANE('',#553);
#553 = AXIS2_PLACEMENT_3D('',#554,#555,#556);
#554 = CARTESIAN_POINT('',(-9.65,-23.,-88.));
#555 = DIRECTION('',(1.,0.,0.));
#556 = DIRECTION('',(0.,0.,1.));
#557 = DEFINITIONAL_REPRESENTATION('',(#558),#562);
#558 = LINE('',#559,#560);
#559 = CARTESIAN_POINT('',(68.,0.));
#560 = VECTOR('',#561,1.);
#561 = DIRECTION('',(0.,-1.));
#562 = ( GEOMETRIC_REPRESENTATION_CONTEXT(2) 
PARAMETRIC_REPRESENTATION_CONTEXT() REPRESENTATION_CONTEXT('2D SPACE',''
  ) );
#563 = ORIENTED_EDGE('',*,*,#564,.F.);
#564 = EDGE_CURVE('',#24,#537,#565,.T.);
#565 = SURFACE_CURVE('',#566,(#570,#577),.PCURVE_S1.);
#566 = LINE('',#567,#568);
#567 = CARTESIAN_POINT('',(-22.35,-5.,-20.));
#568 = VECTOR('',#569,1.);
#569 = DIRECTION('',(1.,0.,0.));
#570 = PCURVE('',#44,#571);
#571 = DEFINITIONAL_REPRESENTATION('',(#572),#576);
#572 = LINE('',#573,#574);
#573 = CARTESIAN_POINT('',(0.,18.));
#574 = VECTOR('',#575,1.);
#575 = DIRECTION('',(1.,0.));
#576 = ( GEOMETRIC_REPRESENTATION_CONTEXT(2) 
PARAMETRIC_REPRESENTATION_CONTEXT() REPRESENTATION_CONTEXT('2D SPACE',''
  ) );
#577 = PCURVE('',#454,#578);
#578 = DEFINITIONAL_REPRESENTATION('',(#579),#583);
#579 = LINE('',#580,#581);
#580 = CARTESIAN_POINT('',(68.,0.));
#581 = VECTOR('',#582,1.);
#582 = DIRECTION('',(0.,1.));
#583 = ( GEOMETRIC_REPRESENTATION_CONTEXT(2) 
PARAMETRIC_REPRESENTATION_CONTEXT() REPRESENTATION_CONTEXT('2D SPACE',''
  ) );
#584 = ADVANCED_FACE('',(#585),#454,.T.);
#585 = FACE_BOUND('',#586,.T.);
#586 = EDGE_LOOP('',(#587,#610,#691,#692));
#587 = ORIENTED_EDGE('',*,*,#588,.F.);
#588 = EDGE_CURVE('',#589,#537,#591,.T.);
#589 = VERTEX_POINT('',#590);
#590 = CARTESIAN_POINT('',(-9.65,-5.,-75.28627591295));
#591 = SURFACE_CURVE('',#592,(#596,#603),.PCURVE_S1.);
#592 = LINE('',#593,#594);
#593 = CARTESIAN_POINT('',(-9.65,-5.,-88.));
#594 = VECTOR('',#595,1.);
#595 = DIRECTION('',(0.,0.,1.));
#596 = PCURVE('',#454,#597);
#597 = DEFINITIONAL_REPRESENTATION('',(#598),#602);
#598 = LINE('',#599,#600);
#599 = CARTESIAN_POINT('',(0.,12.7));
#600 = VECTOR('',#601,1.);
#601 = DIRECTION('',(1.,0.));
#602 = ( GEOMETRIC_REPRESENTATION_CONTEXT(2) 
PARAMETRIC_REPRESENTATION_CONTEXT() REPRESENTATION_CONTEXT('2D SPACE',''
  ) );
#603 = PCURVE('',#552,#604);
#604 = DEFINITIONAL_REPRESENTATION('',(#605),#609);
#605 = LINE('',#606,#607);
#606 = CARTESIAN_POINT('',(0.,-18.));
#607 = VECTOR('',#608,1.);
#608 = DIRECTION('',(1.,0.));
#609 = ( GEOMETRIC_REPRESENTATION_CONTEXT(2) 
PARAMETRIC_REPRESENTATION_CONTEXT() REPRESENTATION_CONTEXT('2D SPACE',''
  ) );
#610 = ORIENTED_EDGE('',*,*,#611,.F.);
#611 = EDGE_CURVE('',#57,#589,#612,.T.);
#612 = SURFACE_CURVE('',#613,(#637,#664),.PCURVE_S1.);
#613 = B_SPLINE_CURVE_WITH_KNOTS('',8,(#614,#615,#616,#617,#618,#619,
    #620,#621,#622,#623,#624,#625,#626,#627,#628,#629,#630,#631,#632,
    #633,#634,#635,#636),.UNSPECIFIED.,.F.,.F.,(9,7,7,9),(0.,
    0.572615277047,0.937077409893,1.),.UNSPECIFIED.);
#614 = CARTESIAN_POINT('',(-22.35,-5.,-47.27638761537));
#615 = CARTESIAN_POINT('',(-21.71097704206,-5.,-49.40044510339));
#616 = CARTESIAN_POINT('',(-21.04985823163,-5.,-51.51696266469));
#617 = CARTESIAN_POINT('',(-20.36649881985,-5.,-53.62663846791));
#618 = CARTESIAN_POINT('',(-19.65897528456,-5.,-55.72894539543));
#619 = CARTESIAN_POINT('',(-18.92319926327,-5.,-57.82200400152));
#620 = CARTESIAN_POINT('',(-18.15185034107,-5.,-59.90219264378));
#621 = CARTESIAN_POINT('',(-17.33387199165,-5.,-61.96398423976));
#622 = CARTESIAN_POINT('',(-15.88951032384,-5.,-65.29391431514));
#623 = CARTESIAN_POINT('',(-15.30222096121,-5.,-66.57660000838));
#624 = CARTESIAN_POINT('',(-14.68443240251,-5.,-67.8456960644));
#625 = CARTESIAN_POINT('',(-14.03056195467,-5.,-69.09803805989));
#626 = CARTESIAN_POINT('',(-13.33436246674,-5.,-70.32843125906));
#627 = CARTESIAN_POINT('',(-12.58853857293,-5.,-71.52940937148));
#628 = CARTESIAN_POINT('',(-11.78496991348,-5.,-72.69137787252));
#629 = CARTESIAN_POINT('',(-10.76250307045,-5.,-73.99327658514));
#630 = CARTESIAN_POINT('',(-10.60995924058,-5.,-74.18337265618));
#631 = CARTESIAN_POINT('',(-10.45536056486,-5.,-74.37181562427));
#632 = CARTESIAN_POINT('',(-10.29866208474,-5.,-74.55852599575));
#633 = CARTESIAN_POINT('',(-10.1398196717,-5.,-74.74341925612));
#634 = CARTESIAN_POINT('',(-9.978790027233,-5.,-74.92640587003));
#635 = CARTESIAN_POINT('',(-9.815530682828,-5.,-75.10739128132));
#636 = CARTESIAN_POINT('',(-9.65,-5.,-75.28627591295));
#637 = PCURVE('',#454,#638);
#638 = DEFINITIONAL_REPRESENTATION('',(#639),#663);
#639 = B_SPLINE_CURVE_WITH_KNOTS('',8,(#640,#641,#642,#643,#644,#645,
    #646,#647,#648,#649,#650,#651,#652,#653,#654,#655,#656,#657,#658,
    #659,#660,#661,#662),.UNSPECIFIED.,.F.,.F.,(9,7,7,9),(0.,
    0.572615277047,0.937077409893,1.),.UNSPECIFIED.);
#640 = CARTESIAN_POINT('',(40.723612384627,0.));
#641 = CARTESIAN_POINT('',(38.599554896607,0.639022957937));
#642 = CARTESIAN_POINT('',(36.48303733531,1.300141768365));
#643 = CARTESIAN_POINT('',(34.373361532088,1.983501180145));
#644 = CARTESIAN_POINT('',(32.271054604563,2.69102471544));
#645 = CARTESIAN_POINT('',(30.177995998474,3.426800736726));
#646 = CARTESIAN_POINT('',(28.097807356218,4.198149658925));
#647 = CARTESIAN_POINT('',(26.036015760237,5.016128008346));
#648 = CARTESIAN_POINT('',(22.706085684854,6.460489676151));
#649 = CARTESIAN_POINT('',(21.423399991615,7.047779038787));
#650 = CARTESIAN_POINT('',(20.154303935597,7.66556759749));
#651 = CARTESIAN_POINT('',(18.901961940101,8.319438045326));
#652 = CARTESIAN_POINT('',(17.671568740936,9.015637533258));
#653 = CARTESIAN_POINT('',(16.470590628519,9.761461427069));
#654 = CARTESIAN_POINT('',(15.30862212748,10.565030086517));
#655 = CARTESIAN_POINT('',(14.006723414857,11.587496929549));
#656 = CARTESIAN_POINT('',(13.816627343815,11.740040759413));
#657 = CARTESIAN_POINT('',(13.628184375722,11.894639435137));
#658 = CARTESIAN_POINT('',(13.441474004243,12.051337915256));
#659 = CARTESIAN_POINT('',(13.256580743876,12.210180328295));
#660 = CARTESIAN_POINT('',(13.073594129963,12.371209972767));
#661 = CARTESIAN_POINT('',(12.892608718679,12.534469317172));
#662 = CARTESIAN_POINT('',(12.713724087042,12.7));
#663 = ( GEOMETRIC_REPRESENTATION_CONTEXT(2) 
PARAMETRIC_REPRESENTATION_CONTEXT() REPRESENTATION_CONTEXT('2D SPACE',''
  ) );
#664 = PCURVE('',#252,#665);
#665 = DEFINITIONAL_REPRESENTATION('',(#666),#690);
#666 = B_SPLINE_CURVE_WITH_KNOTS('',8,(#667,#668,#669,#670,#671,#672,
    #673,#674,#675,#676,#677,#678,#679,#680,#681,#682,#683,#684,#685,
    #686,#687,#688,#689),.UNSPECIFIED.,.F.,.F.,(9,7,7,9),(0.,
    0.572615277047,0.937077409893,1.),.UNSPECIFIED.);
#667 = CARTESIAN_POINT('',(0.439026254559,0.482362171878));
#668 = CARTESIAN_POINT('',(0.433558834121,0.461952561114));
#669 = CARTESIAN_POINT('',(0.427858565042,0.441628776357));
#670 = CARTESIAN_POINT('',(0.421891100071,0.42138572622));
#671 = CARTESIAN_POINT('',(0.415619120588,0.40122873246));
#672 = CARTESIAN_POINT('',(0.409002080483,0.38117451971));
#673 = CARTESIAN_POINT('',(0.401990922122,0.361254704644));
#674 = CARTESIAN_POINT('',(0.394525165465,0.341517165585));
#675 = CARTESIAN_POINT('',(0.381398230014,0.309639495063));
#676 = CARTESIAN_POINT('',(0.376073531181,0.297360189262));
#677 = CARTESIAN_POINT('',(0.370500514017,0.28520929321));
#678 = CARTESIAN_POINT('',(0.364648137722,0.273215280738));
#679 = CARTESIAN_POINT('',(0.358482919201,0.261425926202));
#680 = CARTESIAN_POINT('',(0.351965234189,0.249910798942));
#681 = CARTESIAN_POINT('',(0.345048298509,0.23876041266));
#682 = CARTESIAN_POINT('',(0.336387413969,0.226255550987));
#683 = CARTESIAN_POINT('',(0.335098564911,0.22442934923));
#684 = CARTESIAN_POINT('',(0.333795699556,0.222618712318));
#685 = CARTESIAN_POINT('',(0.332478537198,0.220824402646));
#686 = CARTESIAN_POINT('',(0.33114680011,0.219047232236));
#687 = CARTESIAN_POINT('',(0.329800213536,0.217288062741));
#688 = CARTESIAN_POINT('',(0.328438505702,0.215547805444));
#689 = CARTESIAN_POINT('',(0.327061407804,0.213827421258));
#690 = ( GEOMETRIC_REPRESENTATION_CONTEXT(2) 
PARAMETRIC_REPRESENTATION_CONTEXT() REPRESENTATION_CONTEXT('2D SPACE',''
  ) );
#691 = ORIENTED_EDGE('',*,*,#440,.T.);
#692 = ORIENTED_EDGE('',*,*,#564,.T.);
#693 = ADVANCED_FACE('',(#694),#252,.T.);
#694 = FACE_BOUND('',#695,.T.);
#695 = EDGE_LOOP('',(#696,#697,#698,#699,#737,#825));
#696 = ORIENTED_EDGE('',*,*,#470,.T.);
#697 = ORIENTED_EDGE('',*,*,#56,.T.);
#698 = ORIENTED_EDGE('',*,*,#611,.T.);
#699 = ORIENTED_EDGE('',*,*,#700,.F.);
#700 = EDGE_CURVE('',#701,#589,#703,.T.);
#701 = VERTEX_POINT('',#702);
#702 = CARTESIAN_POINT('',(-9.65,-9.950135919578,-88.));
#703 = SURFACE_CURVE('',#704,(#713,#725),.PCURVE_S1.);
#704 = B_SPLINE_CURVE_WITH_KNOTS('',7,(#705,#706,#707,#708,#709,#710,
    #711,#712),.UNSPECIFIED.,.F.,.F.,(8,8),(0.,1.),
  .PIECEWISE_BEZIER_KNOTS.);
#705 = CARTESIAN_POINT('',(-9.65,-9.950135919578,-88.));
#706 = CARTESIAN_POINT('',(-9.65,-9.153927187865,-86.2202887765));
#707 = CARTESIAN_POINT('',(-9.65,-8.39570523822,-84.42372605562));
#708 = CARTESIAN_POINT('',(-9.65,-7.669924146864,-82.61368659873));
#709 = CARTESIAN_POINT('',(-9.65,-6.97176845078,-80.79290701882));
#710 = CARTESIAN_POINT('',(-9.65,-6.296737463076,-78.96365275727));
#711 = CARTESIAN_POINT('',(-9.65,-5.64073099816,-77.12768379081));
#712 = CARTESIAN_POINT('',(-9.65,-5.,-75.28627591295));
#713 = PCURVE('',#252,#714);
#714 = DEFINITIONAL_REPRESENTATION('',(#715),#724);
#715 = B_SPLINE_CURVE_WITH_KNOTS('',7,(#716,#717,#718,#719,#720,#721,
    #722,#723),.UNSPECIFIED.,.F.,.F.,(8,8),(0.,1.),
  .PIECEWISE_BEZIER_KNOTS.);
#716 = CARTESIAN_POINT('',(0.333035961274,9.033776740547E-02));
#717 = CARTESIAN_POINT('',(0.33164919761,0.10787822213));
#718 = CARTESIAN_POINT('',(0.330571596894,0.12546873637));
#719 = CARTESIAN_POINT('',(0.329694171652,0.143095620854));
#720 = CARTESIAN_POINT('',(0.328949914542,0.160749946459));
#721 = CARTESIAN_POINT('',(0.328286582531,0.178425290869));
#722 = CARTESIAN_POINT('',(0.327666408212,0.196118079972));
#723 = CARTESIAN_POINT('',(0.327061407804,0.213827421258));
#724 = ( GEOMETRIC_REPRESENTATION_CONTEXT(2) 
PARAMETRIC_REPRESENTATION_CONTEXT() REPRESENTATION_CONTEXT('2D SPACE',''
  ) );
#725 = PCURVE('',#552,#726);
#726 = DEFINITIONAL_REPRESENTATION('',(#727),#736);
#727 = B_SPLINE_CURVE_WITH_KNOTS('',7,(#728,#729,#730,#731,#732,#733,
    #734,#735),.UNSPECIFIED.,.F.,.F.,(8,8),(0.,1.),
  .PIECEWISE_BEZIER_KNOTS.);
#728 = CARTESIAN_POINT('',(0.,-13.04986408042));
#729 = CARTESIAN_POINT('',(1.779711223491,-13.84607281213));
#730 = CARTESIAN_POINT('',(3.576273944374,-14.60429476178));
#731 = CARTESIAN_POINT('',(5.386313401264,-15.33007585313));
#732 = CARTESIAN_POINT('',(7.207092981179,-16.02823154922));
#733 = CARTESIAN_POINT('',(9.036347242728,-16.70326253692));
#734 = CARTESIAN_POINT('',(10.87231620919,-17.35926900184));
#735 = CARTESIAN_POINT('',(12.713724087042,-18.));
#736 = ( GEOMETRIC_REPRESENTATION_CONTEXT(2) 
PARAMETRIC_REPRESENTATION_CONTEXT() REPRESENTATION_CONTEXT('2D SPACE',''
  ) );
#737 = ORIENTED_EDGE('',*,*,#738,.F.);
#738 = EDGE_CURVE('',#739,#701,#741,.T.);
#739 = VERTEX_POINT('',#740);
#740 = CARTESIAN_POINT('',(-19.30068630222,-23.,-88.));
#741 = SURFACE_CURVE('',#742,(#766,#793),.PCURVE_S1.);
#742 = B_SPLINE_CURVE_WITH_KNOTS('',8,(#743,#744,#745,#746,#747,#748,
    #749,#750,#751,#752,#753,#754,#755,#756,#757,#758,#759,#760,#761,
    #762,#763,#764,#765),.UNSPECIFIED.,.F.,.F.,(9,7,7,9),(0.,
    0.336082225442,0.497453440474,1.),.UNSPECIFIED.);
#743 = CARTESIAN_POINT('',(-19.30068630222,-23.,-88.));
#744 = CARTESIAN_POINT('',(-19.38277073446,-22.27175458582,-88.));
#745 = CARTESIAN_POINT('',(-19.40332459627,-21.53588541072,-88.));
#746 = CARTESIAN_POINT('',(-19.36031186625,-20.79960511901,-88.));
#747 = CARTESIAN_POINT('',(-19.25414587377,-20.06929923593,-88.));
#748 = CARTESIAN_POINT('',(-19.08694830341,-19.35063134527,-88.));
#749 = CARTESIAN_POINT('',(-18.86215050091,-18.64859936488,-88.));
#750 = CARTESIAN_POINT('',(-18.58428799637,-17.96756241544,-88.));
#751 = CARTESIAN_POINT('',(-18.10257360971,-16.99613049993,-88.));
#752 = CARTESIAN_POINT('',(-17.93523496699,-16.68649912678,-88.));
#753 = CARTESIAN_POINT('',(-17.75734375602,-16.38266703223,-88.));
#754 = CARTESIAN_POINT('',(-17.56942960274,-16.08487880711,-88.));
#755 = CARTESIAN_POINT('',(-17.37202028305,-15.79332723687,-88.));
#756 = CARTESIAN_POINT('',(-17.16563238613,-15.50815928723,-88.));
#757 = CARTESIAN_POINT('',(-16.95076359332,-15.22948109753,-88.));
#758 = CARTESIAN_POINT('',(-16.03379698544,-14.1099213442,-88.));
#759 = CARTESIAN_POINT('',(-15.26298605176,-13.3272481401,-88.));
#760 = CARTESIAN_POINT('',(-14.42877387237,-12.60952263176,-88.));
#761 = CARTESIAN_POINT('',(-13.5427483206,-11.95612744856,-88.));
#762 = CARTESIAN_POINT('',(-12.6148357362,-11.36560220337,-88.));
#763 = CARTESIAN_POINT('',(-11.6530947869,-10.83594327002,-88.));
#764 = CARTESIAN_POINT('',(-10.66357095146,-10.36484329534,-88.));
#765 = CARTESIAN_POINT('',(-9.65,-9.950135919578,-88.));
#766 = PCURVE('',#252,#767);
#767 = DEFINITIONAL_REPRESENTATION('',(#768),#792);
#768 = B_SPLINE_CURVE_WITH_KNOTS('',8,(#769,#770,#771,#772,#773,#774,
    #775,#776,#777,#778,#779,#780,#781,#782,#783,#784,#785,#786,#787,
    #788,#789,#790,#791),.UNSPECIFIED.,.F.,.F.,(9,7,7,9),(0.,
    0.336082225442,0.497453440474,1.),.UNSPECIFIED.);
#769 = CARTESIAN_POINT('',(0.512740846786,9.033776740547E-02));
#770 = CARTESIAN_POINT('',(0.504303597069,9.033776740547E-02));
#771 = CARTESIAN_POINT('',(0.495819032587,9.033776740547E-02));
#772 = CARTESIAN_POINT('',(0.487335372103,9.033776740547E-02));
#773 = CARTESIAN_POINT('',(0.478888063949,9.033776740547E-02));
#774 = CARTESIAN_POINT('',(0.470505921853,9.033776740547E-02));
#775 = CARTESIAN_POINT('',(0.462214431114,9.033776740547E-02));
#776 = CARTESIAN_POINT('',(0.454037633587,9.033776740547E-02));
#777 = CARTESIAN_POINT('',(0.442140698318,9.033776740547E-02));
#778 = CARTESIAN_POINT('',(0.438310956245,9.033776740547E-02));
#779 = CARTESIAN_POINT('',(0.434512042801,9.033776740547E-02));
#780 = CARTESIAN_POINT('',(0.430744836589,9.033776740547E-02));
#781 = CARTESIAN_POINT('',(0.427009889764,9.033776740547E-02));
#782 = CARTESIAN_POINT('',(0.423307471503,9.033776740547E-02));
#783 = CARTESIAN_POINT('',(0.419637591005,9.033776740547E-02));
#784 = CARTESIAN_POINT('',(0.404671716674,9.033776740547E-02));
#785 = CARTESIAN_POINT('',(0.393672027539,9.033776740547E-02));
#786 = CARTESIAN_POINT('',(0.382970429539,9.033776740547E-02));
#787 = CARTESIAN_POINT('',(0.372542531763,9.033776740547E-02));
#788 = CARTESIAN_POINT('',(0.362363953078,9.033776740547E-02));
#789 = CARTESIAN_POINT('',(0.352408597536,9.033776740547E-02));
#790 = CARTESIAN_POINT('',(0.342645672616,9.033776740547E-02));
#791 = CARTESIAN_POINT('',(0.333035961274,9.033776740547E-02));
#792 = ( GEOMETRIC_REPRESENTATION_CONTEXT(2) 
PARAMETRIC_REPRESENTATION_CONTEXT() REPRESENTATION_CONTEXT('2D SPACE',''
  ) );
#793 = PCURVE('',#794,#799);
#794 = PLANE('',#795);
#795 = AXIS2_PLACEMENT_3D('',#796,#797,#798);
#796 = CARTESIAN_POINT('',(-22.35,-23.,-88.));
#797 = DIRECTION('',(0.,0.,1.));
#798 = DIRECTION('',(1.,0.,0.));
#799 = DEFINITIONAL_REPRESENTATION('',(#800),#824);
#800 = B_SPLINE_CURVE_WITH_KNOTS('',8,(#801,#802,#803,#804,#805,#806,
    #807,#808,#809,#810,#811,#812,#813,#814,#815,#816,#817,#818,#819,
    #820,#821,#822,#823),.UNSPECIFIED.,.F.,.F.,(9,7,7,9),(0.,
    0.336082225442,0.497453440474,1.),.UNSPECIFIED.);
#801 = CARTESIAN_POINT('',(3.04931369778,0.));
#802 = CARTESIAN_POINT('',(2.967229265531,0.728245414176));
#803 = CARTESIAN_POINT('',(2.946675403724,1.464114589272));
#804 = CARTESIAN_POINT('',(2.989688133745,2.200394880989));
#805 = CARTESIAN_POINT('',(3.095854126229,2.930700764067));
#806 = CARTESIAN_POINT('',(3.263051696588,3.649368654724));
#807 = CARTESIAN_POINT('',(3.487849499082,4.351400635114));
#808 = CARTESIAN_POINT('',(3.765712003628,5.032437584553));
#809 = CARTESIAN_POINT('',(4.247426390286,6.003869500063));
#810 = CARTESIAN_POINT('',(4.414765033008,6.31350087322));
#811 = CARTESIAN_POINT('',(4.592656243971,6.617332967762));
#812 = CARTESIAN_POINT('',(4.780570397253,6.915121192885));
#813 = CARTESIAN_POINT('',(4.977979716947,7.206672763127));
#814 = CARTESIAN_POINT('',(5.184367613863,7.491840712767));
#815 = CARTESIAN_POINT('',(5.399236406671,7.770518902467));
#816 = CARTESIAN_POINT('',(6.316203014558,8.890078655796));
#817 = CARTESIAN_POINT('',(7.087013948238,9.672751859893));
#818 = CARTESIAN_POINT('',(7.921226127627,10.390477368232));
#819 = CARTESIAN_POINT('',(8.807251679392,11.043872551433));
#820 = CARTESIAN_POINT('',(9.735164263795,11.634397796625));
#821 = CARTESIAN_POINT('',(10.696905213096,12.164056729978));
#822 = CARTESIAN_POINT('',(11.686429048539,12.635156704659));
#823 = CARTESIAN_POINT('',(12.7,13.049864080422));
#824 = ( GEOMETRIC_REPRESENTATION_CONTEXT(2) 
PARAMETRIC_REPRESENTATION_CONTEXT() REPRESENTATION_CONTEXT('2D SPACE',''
  ) );
#825 = ORIENTED_EDGE('',*,*,#826,.T.);
#826 = EDGE_CURVE('',#739,#471,#827,.T.);
#827 = SURFACE_CURVE('',#828,(#903,#981),.PCURVE_S1.);
#828 = B_SPLINE_CURVE_WITH_KNOTS('',7,(#829,#830,#831,#832,#833,#834,
    #835,#836,#837,#838,#839,#840,#841,#842,#843,#844,#845,#846,#847,
    #848,#849,#850,#851,#852,#853,#854,#855,#856,#857,#858,#859,#860,
    #861,#862,#863,#864,#865,#866,#867,#868,#869,#870,#871,#872,#873,
    #874,#875,#876,#877,#878,#879,#880,#881,#882,#883,#884,#885,#886,
    #887,#888,#889,#890,#891,#892,#893,#894,#895,#896,#897,#898,#899,
    #900,#901,#902),.UNSPECIFIED.,.F.,.F.,(8,6,6,6,6,6,6,6,6,6,6,6,8),(
    0.,0.175833080751,0.276603381551,0.324101991256,0.357830934288,
    0.426801865435,0.486499218596,0.593402537568,0.631516315344,
    0.658944986137,0.725983854385,0.888223606975,1.),.UNSPECIFIED.);
#829 = CARTESIAN_POINT('',(-19.30068630222,-23.,-88.));
#830 = CARTESIAN_POINT('',(-19.52461953142,-23.,-86.29652044282));
#831 = CARTESIAN_POINT('',(-19.66833422168,-23.,-84.58326465145));
#832 = CARTESIAN_POINT('',(-19.74507313386,-23.,-82.86523136861));
#833 = CARTESIAN_POINT('',(-19.76744958905,-23.,-81.14599033562));
#834 = CARTESIAN_POINT('',(-19.74640052667,-23.,-79.42764764363));
#835 = CARTESIAN_POINT('',(-19.69115224137,-23.,-77.71083565635));
#836 = CARTESIAN_POINT('',(-19.56250050186,-23.,-75.01119226826));
#837 = CARTESIAN_POINT('',(-19.506926052,-23.,-74.02810396847));
#838 = CARTESIAN_POINT('',(-19.44410234793,-23.,-73.045442445));
#839 = CARTESIAN_POINT('',(-19.37533242218,-23.,-72.06318716215));
#840 = CARTESIAN_POINT('',(-19.3017791511,-23.,-71.08129723277));
#841 = CARTESIAN_POINT('',(-19.22447771737,-23.,-70.09971058861));
#842 = CARTESIAN_POINT('',(-19.10657854416,-23.,-68.6557704629));
#843 = CARTESIAN_POINT('',(-19.06818086515,-23.,-68.19324914698));
#844 = CARTESIAN_POINT('',(-19.02925121997,-23.,-67.7307721605));
#845 = CARTESIAN_POINT('',(-18.98988030063,-23.,-67.26833258817));
#846 = CARTESIAN_POINT('',(-18.95015330665,-23.,-66.80592364202));
#847 = CARTESIAN_POINT('',(-18.91014994505,-23.,-66.34353866135));
#848 = CARTESIAN_POINT('',(-18.8413943418,-23.,-65.55284216167));
#849 = CARTESIAN_POINT('',(-18.81274235706,-23.,-65.22452206537));
#850 = CARTESIAN_POINT('',(-18.78401509421,-23.,-64.89620852743));
#851 = CARTESIAN_POINT('',(-18.75523783296,-23.,-64.56789935543));
#852 = CARTESIAN_POINT('',(-18.72643451469,-23.,-64.23959246097));
#853 = CARTESIAN_POINT('',(-18.69762774245,-23.,-63.91128585975));
#854 = CARTESIAN_POINT('',(-18.60996941534,-23.,-62.9116337332));
#855 = CARTESIAN_POINT('',(-18.55117456907,-23.,-62.24028328565));
#856 = CARTESIAN_POINT('',(-18.49263600639,-23.,-61.56891021885));
#857 = CARTESIAN_POINT('',(-18.43451243137,-23.,-60.89750082544));
#858 = CARTESIAN_POINT('',(-18.3769390801,-23.,-60.22604383566));
#859 = CARTESIAN_POINT('',(-18.32002731285,-23.,-59.55453045241));
#860 = CARTESIAN_POINT('',(-18.21525258475,-23.,-58.30167597044));
#861 = CARTESIAN_POINT('',(-18.16720165864,-23.,-57.72035054155));
#862 = CARTESIAN_POINT('',(-18.11976822609,-23.,-57.13897414937));
#863 = CARTESIAN_POINT('',(-18.07299488601,-23.,-56.55754412822));
#864 = CARTESIAN_POINT('',(-18.02691003815,-23.,-55.97605909693));
#865 = CARTESIAN_POINT('',(-17.9815278831,-23.,-55.39451895885));
#866 = CARTESIAN_POINT('',(-17.85683846545,-23.,-53.77143257947));
#867 = CARTESIAN_POINT('',(-17.77908133058,-23.,-52.72976578153));
#868 = CARTESIAN_POINT('',(-17.70357498738,-23.,-51.68793304121));
#869 = CARTESIAN_POINT('',(-17.63016705816,-23.,-50.64595119265));
#870 = CARTESIAN_POINT('',(-17.55854914733,-23.,-49.60384577468));
#871 = CARTESIAN_POINT('',(-17.48825790742,-23.,-48.56165096323));
#872 = CARTESIAN_POINT('',(-17.39387754472,-23.,-47.14782302662));
#873 = CARTESIAN_POINT('',(-17.36916330969,-23.,-46.77623094964));
#874 = CARTESIAN_POINT('',(-17.34451239676,-23.,-46.40463465742));
#875 = CARTESIAN_POINT('',(-17.3198947831,-23.,-46.03303615148));
#876 = CARTESIAN_POINT('',(-17.29527816301,-23.,-45.66143757922));
#877 = CARTESIAN_POINT('',(-17.27062794794,-23.,-45.28984123387));
#878 = CARTESIAN_POINT('',(-17.22811696927,-23.,-44.65083271899));
#879 = CARTESIAN_POINT('',(-17.21029020477,-23.,-44.38341831211));
#880 = CARTESIAN_POINT('',(-17.19241324118,-23.,-44.11600724437));
#881 = CARTESIAN_POINT('',(-17.17447179012,-23.,-43.84860048182));
#882 = CARTESIAN_POINT('',(-17.15645100653,-23.,-43.58119904612));
#883 = CARTESIAN_POINT('',(-17.13833548877,-23.,-43.31380401446));
#884 = CARTESIAN_POINT('',(-17.07556229648,-23.,-42.39289031812));
#885 = CARTESIAN_POINT('',(-17.03035415462,-23.,-41.73940992287));
#886 = CARTESIAN_POINT('',(-16.98425218914,-23.,-41.08599071209));
#887 = CARTESIAN_POINT('',(-16.93700477766,-23.,-40.43265183896));
#888 = CARTESIAN_POINT('',(-16.88834340302,-23.,-39.7794160816));
#889 = CARTESIAN_POINT('',(-16.83798471694,-23.,-39.12630969292));
#890 = CARTESIAN_POINT('',(-16.6589360453,-23.,-36.89317400666));
#891 = CARTESIAN_POINT('',(-16.52057128703,-23.,-35.31400090893));
#892 = CARTESIAN_POINT('',(-16.36633392766,-23.,-33.73613538406));
#893 = CARTESIAN_POINT('',(-16.19160446142,-23.,-32.16022375425));
#894 = CARTESIAN_POINT('',(-15.99153866122,-23.,-30.58724515297));
#895 = CARTESIAN_POINT('',(-15.7613489562,-23.,-29.0184802763));
#896 = CARTESIAN_POINT('',(-15.31387726445,-23.,-26.37867485382));
#897 = CARTESIAN_POINT('',(-15.1148599278,-23.,-25.30465118529));
#898 = CARTESIAN_POINT('',(-14.89785525724,-23.,-24.23398110459));
#899 = CARTESIAN_POINT('',(-14.66140624193,-23.,-23.1673366603));
#900 = CARTESIAN_POINT('',(-14.40413617652,-23.,-22.10550359331));
#901 = CARTESIAN_POINT('',(-14.12474515269,-23.,-21.04938263489));
#902 = CARTESIAN_POINT('',(-13.82196792982,-23.,-20.));
#903 = PCURVE('',#252,#904);
#904 = DEFINITIONAL_REPRESENTATION('',(#905),#980);
#905 = B_SPLINE_CURVE_WITH_KNOTS('',7,(#906,#907,#908,#909,#910,#911,
    #912,#913,#914,#915,#916,#917,#918,#919,#920,#921,#922,#923,#924,
    #925,#926,#927,#928,#929,#930,#931,#932,#933,#934,#935,#936,#937,
    #938,#939,#940,#941,#942,#943,#944,#945,#946,#947,#948,#949,#950,
    #951,#952,#953,#954,#955,#956,#957,#958,#959,#960,#961,#962,#963,
    #964,#965,#966,#967,#968,#969,#970,#971,#972,#973,#974,#975,#976,
    #977,#978,#979),.UNSPECIFIED.,.F.,.F.,(8,6,6,6,6,6,6,6,6,6,6,6,8),(
    0.,0.175833080751,0.276603381551,0.324101991256,0.357830934288,
    0.426801865435,0.486499218596,0.593402537568,0.631516315344,
    0.658944986137,0.725983854385,0.888223606975,1.),.UNSPECIFIED.);
#906 = CARTESIAN_POINT('',(0.512740846786,9.033776740547E-02));
#907 = CARTESIAN_POINT('',(0.518505203074,0.107126899065));
#908 = CARTESIAN_POINT('',(0.524181179805,0.123906084797));
#909 = CARTESIAN_POINT('',(0.529778108756,0.140644492026));
#910 = CARTESIAN_POINT('',(0.535293144283,0.157324267594));
#911 = CARTESIAN_POINT('',(0.540719455562,0.173939422137));
#912 = CARTESIAN_POINT('',(0.546048955707,0.190495913427));
#913 = CARTESIAN_POINT('',(0.55426907303,0.216477227883));
#914 = CARTESIAN_POINT('',(0.557228969067,0.225927307475));
#915 = CARTESIAN_POINT('',(0.560152227764,0.235364027749));
#916 = CARTESIAN_POINT('',(0.563036715966,0.244789268036));
#917 = CARTESIAN_POINT('',(0.565880145108,0.254204913335));
#918 = CARTESIAN_POINT('',(0.568680213959,0.263612881087));
#919 = CARTESIAN_POINT('',(0.57273311701,0.277446955736));
#920 = CARTESIAN_POINT('',(0.574021360448,0.281877471447));
#921 = CARTESIAN_POINT('',(0.57529924531,0.286306884702));
#922 = CARTESIAN_POINT('',(0.576566542677,0.290735376826));
#923 = CARTESIAN_POINT('',(0.577823031084,0.295163120841));
#924 = CARTESIAN_POINT('',(0.579068496513,0.299590281472));
#925 = CARTESIAN_POINT('',(0.581179167984,0.307160455523));
#926 = CARTESIAN_POINT('',(0.582049941971,0.310303680092));
#927 = CARTESIAN_POINT('',(0.582914980961,0.313446744528));
#928 = CARTESIAN_POINT('',(0.58377421523,0.316589701895));
#929 = CARTESIAN_POINT('',(0.584627578729,0.319732602652));
#930 = CARTESIAN_POINT('',(0.585475009084,0.322875494645));
#931 = CARTESIAN_POINT('',(0.588037070666,0.332445268531));
#932 = CARTESIAN_POINT('',(0.589732640141,0.338872265361));
#933 = CARTESIAN_POINT('',(0.591402658739,0.345299801112));
#934 = CARTESIAN_POINT('',(0.593046707279,0.351728213381));
#935 = CARTESIAN_POINT('',(0.594664460224,0.35815779075));
#936 = CARTESIAN_POINT('',(0.596255701226,0.364588773692));
#937 = CARTESIAN_POINT('',(0.599174600717,0.376589035937));
#938 = CARTESIAN_POINT('',(0.600508934369,0.382157914939));
#939 = CARTESIAN_POINT('',(0.601823273974,0.387728115945));
#940 = CARTESIAN_POINT('',(0.603117630218,0.393299737784));
#941 = CARTESIAN_POINT('',(0.604392090126,0.398872854637));
#942 = CARTESIAN_POINT('',(0.605646817069,0.404447516041));
#943 = CARTESIAN_POINT('',(0.60909405135,0.420009408797));
#944 = CARTESIAN_POINT('',(0.611243550218,0.430000119411));
#945 = CARTESIAN_POINT('',(0.613331943449,0.439996008525));
#946 = CARTESIAN_POINT('',(0.615361472221,0.4499970069));
#947 = CARTESIAN_POINT('',(0.617335250458,0.460002850691));
#948 = CARTESIAN_POINT('',(0.619257224755,0.470013090969));
#949 = CARTESIAN_POINT('',(0.621800495802,0.48359736262));
#950 = CARTESIAN_POINT('',(0.622462933838,0.487168097825));
#951 = CARTESIAN_POINT('',(0.623119593287,0.490739286393));
#952 = CARTESIAN_POINT('',(0.623770697536,0.494310897952));
#953 = CARTESIAN_POINT('',(0.624416480743,0.497882899321));
#954 = CARTESIAN_POINT('',(0.625057187833,0.501455254508));
#955 = CARTESIAN_POINT('',(0.626150691858,0.507599005318));
#956 = CARTESIAN_POINT('',(0.626605812449,0.510170248975));
#957 = CARTESIAN_POINT('',(0.627058531442,0.512741641218));
#958 = CARTESIAN_POINT('',(0.627508946363,0.515313166715));
#959 = CARTESIAN_POINT('',(0.627957157101,0.517884809259));
#960 = CARTESIAN_POINT('',(0.628403265903,0.520456551775));
#961 = CARTESIAN_POINT('',(0.629932837586,0.529314215245));
#962 = CARTESIAN_POINT('',(0.6310063646,0.53560053666));
#963 = CARTESIAN_POINT('',(0.632069485135,0.54188708995));
#964 = CARTESIAN_POINT('',(0.633123799059,0.548173576781));
#965 = CARTESIAN_POINT('',(0.634170966425,0.554459653718));
#966 = CARTESIAN_POINT('',(0.635212694509,0.560744934832));
#967 = CARTESIAN_POINT('',(0.638762846384,0.582236951772));
#968 = CARTESIAN_POINT('',(0.64125317715,0.597436943832));
#969 = CARTESIAN_POINT('',(0.643746609287,0.612624155493));
#970 = CARTESIAN_POINT('',(0.646268818911,0.627790100695));
#971 = CARTESIAN_POINT('',(0.648845354365,0.642922922288));
#972 = CARTESIAN_POINT('',(0.651500755919,0.658007845269));
#973 = CARTESIAN_POINT('',(0.656158761115,0.683375311487));
#974 = CARTESIAN_POINT('',(0.658107411254,0.693691630066));
#975 = CARTESIAN_POINT('',(0.660112276524,0.703970348825));
#976 = CARTESIAN_POINT('',(0.662180716807,0.714204286829));
#977 = CARTESIAN_POINT('',(0.664319747102,0.724385235339));
#978 = CARTESIAN_POINT('',(0.66653615471,0.734503975952));
#979 = CARTESIAN_POINT('',(0.668836784559,0.74455021061));
#980 = ( GEOMETRIC_REPRESENTATION_CONTEXT(2) 
PARAMETRIC_REPRESENTATION_CONTEXT() REPRESENTATION_CONTEXT('2D SPACE',''
  ) );
#981 = PCURVE('',#524,#982);
#982 = DEFINITIONAL_REPRESENTATION('',(#983),#1058);
#983 = B_SPLINE_CURVE_WITH_KNOTS('',7,(#984,#985,#986,#987,#988,#989,
    #990,#991,#992,#993,#994,#995,#996,#997,#998,#999,#1000,#1001,#1002,
    #1003,#1004,#1005,#1006,#1007,#1008,#1009,#1010,#1011,#1012,#1013,
    #1014,#1015,#1016,#1017,#1018,#1019,#1020,#1021,#1022,#1023,#1024,
    #1025,#1026,#1027,#1028,#1029,#1030,#1031,#1032,#1033,#1034,#1035,
    #1036,#1037,#1038,#1039,#1040,#1041,#1042,#1043,#1044,#1045,#1046,
    #1047,#1048,#1049,#1050,#1051,#1052,#1053,#1054,#1055,#1056,#1057),
  .UNSPECIFIED.,.F.,.F.,(8,6,6,6,6,6,6,6,6,6,6,6,8),(0.,0.175833080751,
    0.276603381551,0.324101991256,0.357830934288,0.426801865435,
    0.486499218596,0.593402537568,0.631516315344,0.658944986137,
    0.725983854385,0.888223606975,1.),.UNSPECIFIED.);
#984 = CARTESIAN_POINT('',(0.,3.04931369778));
#985 = CARTESIAN_POINT('',(1.70347955718,2.825380468576));
#986 = CARTESIAN_POINT('',(3.416735348544,2.681665778314));
#987 = CARTESIAN_POINT('',(5.134768631384,2.604926866132));
#988 = CARTESIAN_POINT('',(6.854009664376,2.582550410944));
#989 = CARTESIAN_POINT('',(8.572352356367,2.603599473327));
#990 = CARTESIAN_POINT('',(10.289164343641,2.65884775863));
#991 = CARTESIAN_POINT('',(12.988807731738,2.787499498132));
#992 = CARTESIAN_POINT('',(13.971896031523,2.843073947995));
#993 = CARTESIAN_POINT('',(14.954557554996,2.905897652064));
#994 = CARTESIAN_POINT('',(15.936812837843,2.974667577813));
#995 = CARTESIAN_POINT('',(16.91870276723,3.048220848891));
#996 = CARTESIAN_POINT('',(17.900289411383,3.125522282628));
#997 = CARTESIAN_POINT('',(19.344229537094,3.243421455839));
#998 = CARTESIAN_POINT('',(19.806750853011,3.281819134844));
#999 = CARTESIAN_POINT('',(20.269227839493,3.320748780027));
#1000 = CARTESIAN_POINT('',(20.731667411823,3.360119699369));
#1001 = CARTESIAN_POINT('',(21.194076357979,3.399846693349));
#1002 = CARTESIAN_POINT('',(21.656461338642,3.439850054942));
#1003 = CARTESIAN_POINT('',(22.447157838324,3.508605658198));
#1004 = CARTESIAN_POINT('',(22.775477934623,3.537257642932));
#1005 = CARTESIAN_POINT('',(23.103791472563,3.565984905782));
#1006 = CARTESIAN_POINT('',(23.43210064457,3.594762167037));
#1007 = CARTESIAN_POINT('',(23.760407539021,3.62356548531));
#1008 = CARTESIAN_POINT('',(24.088714140246,3.652372257547));
#1009 = CARTESIAN_POINT('',(25.088366266795,3.740030584652));
#1010 = CARTESIAN_POINT('',(25.759716714348,3.798825430924));
#1011 = CARTESIAN_POINT('',(26.431089781146,3.857363993602));
#1012 = CARTESIAN_POINT('',(27.10249917456,3.915487568621));
#1013 = CARTESIAN_POINT('',(27.77395616434,3.973060919898));
#1014 = CARTESIAN_POINT('',(28.445469547587,4.029972687142));
#1015 = CARTESIAN_POINT('',(29.698324029553,4.134747415249));
#1016 = CARTESIAN_POINT('',(30.279649458448,4.182798341352));
#1017 = CARTESIAN_POINT('',(30.861025850626,4.230231773903));
#1018 = CARTESIAN_POINT('',(31.442455871777,4.277005113984));
#1019 = CARTESIAN_POINT('',(32.023940903067,4.323089961845));
#1020 = CARTESIAN_POINT('',(32.605481041141,4.368472116893));
#1021 = CARTESIAN_POINT('',(34.22856742053,4.493161534544));
#1022 = CARTESIAN_POINT('',(35.270234218461,4.570918669413));
#1023 = CARTESIAN_POINT('',(36.312066958789,4.64642501262));
#1024 = CARTESIAN_POINT('',(37.354048807344,4.719832941834));
#1025 = CARTESIAN_POINT('',(38.396154225311,4.791450852665));
#1026 = CARTESIAN_POINT('',(39.438349036763,4.861742092579));
#1027 = CARTESIAN_POINT('',(40.852176973376,4.956122455277));
#1028 = CARTESIAN_POINT('',(41.223769050354,4.980836690307));
#1029 = CARTESIAN_POINT('',(41.595365342578,5.005487603235));
#1030 = CARTESIAN_POINT('',(41.966963848512,5.030105216896));
#1031 = CARTESIAN_POINT('',(42.338562420774,5.054721836986));
#1032 = CARTESIAN_POINT('',(42.710158766127,5.079372052058));
#1033 = CARTESIAN_POINT('',(43.349167281005,5.121883030726));
#1034 = CARTESIAN_POINT('',(43.616581687881,5.139709795228));
#1035 = CARTESIAN_POINT('',(43.883992755625,5.157586758811));
#1036 = CARTESIAN_POINT('',(44.151399518171,5.175528209878));
#1037 = CARTESIAN_POINT('',(44.41880095388,5.193548993461));
#1038 = CARTESIAN_POINT('',(44.686195985539,5.211664511221));
#1039 = CARTESIAN_POINT('',(45.60710968188,5.27443770352));
#1040 = CARTESIAN_POINT('',(46.260590077122,5.319645845378));
#1041 = CARTESIAN_POINT('',(46.914009287903,5.36574781086));
#1042 = CARTESIAN_POINT('',(47.567348161031,5.412995222331));
#1043 = CARTESIAN_POINT('',(48.220583918399,5.461656596972));
#1044 = CARTESIAN_POINT('',(48.873690307071,5.512015283055));
#1045 = CARTESIAN_POINT('',(51.106825993339,5.691063954691));
#1046 = CARTESIAN_POINT('',(52.685999091065,5.829428712965));
#1047 = CARTESIAN_POINT('',(54.263864615936,5.983666072335));
#1048 = CARTESIAN_POINT('',(55.839776245743,6.158395538579));
#1049 = CARTESIAN_POINT('',(57.412754847021,6.358461338777));
#1050 = CARTESIAN_POINT('',(58.981519723699,6.588651043792));
#1051 = CARTESIAN_POINT('',(61.621325146176,7.036122735541));
#1052 = CARTESIAN_POINT('',(62.695348814702,7.235140072196));
#1053 = CARTESIAN_POINT('',(63.766018895409,7.452144742757));
#1054 = CARTESIAN_POINT('',(64.832663339697,7.688593758061));
#1055 = CARTESIAN_POINT('',(65.894496406689,7.945863823474));
#1056 = CARTESIAN_POINT('',(66.950617365107,8.225254847305));
#1057 = CARTESIAN_POINT('',(68.,8.528032070175));
#1058 = ( GEOMETRIC_REPRESENTATION_CONTEXT(2) 
PARAMETRIC_REPRESENTATION_CONTEXT() REPRESENTATION_CONTEXT('2D SPACE',''
  ) );
#1059 = ADVANCED_FACE('',(#1060),#552,.T.);
#1060 = FACE_BOUND('',#1061,.T.);
#1061 = EDGE_LOOP('',(#1062,#1063,#1086,#1107,#1108));
#1062 = ORIENTED_EDGE('',*,*,#536,.F.);
#1063 = ORIENTED_EDGE('',*,*,#1064,.F.);
#1064 = EDGE_CURVE('',#1065,#509,#1067,.T.);
#1065 = VERTEX_POINT('',#1066);
#1066 = CARTESIAN_POINT('',(-9.65,-23.,-88.));
#1067 = SURFACE_CURVE('',#1068,(#1072,#1079),.PCURVE_S1.);
#1068 = LINE('',#1069,#1070);
#1069 = CARTESIAN_POINT('',(-9.65,-23.,-88.));
#1070 = VECTOR('',#1071,1.);
#1071 = DIRECTION('',(0.,0.,1.));
#1072 = PCURVE('',#552,#1073);
#1073 = DEFINITIONAL_REPRESENTATION('',(#1074),#1078);
#1074 = LINE('',#1075,#1076);
#1075 = CARTESIAN_POINT('',(0.,0.));
#1076 = VECTOR('',#1077,1.);
#1077 = DIRECTION('',(1.,0.));
#1078 = ( GEOMETRIC_REPRESENTATION_CONTEXT(2) 
PARAMETRIC_REPRESENTATION_CONTEXT() REPRESENTATION_CONTEXT('2D SPACE',''
  ) );
#1079 = PCURVE('',#524,#1080);
#1080 = DEFINITIONAL_REPRESENTATION('',(#1081),#1085);
#1081 = LINE('',#1082,#1083);
#1082 = CARTESIAN_POINT('',(0.,12.7));
#1083 = VECTOR('',#1084,1.);
#1084 = DIRECTION('',(1.,0.));
#1085 = ( GEOMETRIC_REPRESENTATION_CONTEXT(2) 
PARAMETRIC_REPRESENTATION_CONTEXT() REPRESENTATION_CONTEXT('2D SPACE',''
  ) );
#1086 = ORIENTED_EDGE('',*,*,#1087,.T.);
#1087 = EDGE_CURVE('',#1065,#701,#1088,.T.);
#1088 = SURFACE_CURVE('',#1089,(#1093,#1100),.PCURVE_S1.);
#1089 = LINE('',#1090,#1091);
#1090 = CARTESIAN_POINT('',(-9.65,-23.,-88.));
#1091 = VECTOR('',#1092,1.);
#1092 = DIRECTION('',(0.,1.,0.));
#1093 = PCURVE('',#552,#1094);
#1094 = DEFINITIONAL_REPRESENTATION('',(#1095),#1099);
#1095 = LINE('',#1096,#1097);
#1096 = CARTESIAN_POINT('',(0.,0.));
#1097 = VECTOR('',#1098,1.);
#1098 = DIRECTION('',(0.,-1.));
#1099 = ( GEOMETRIC_REPRESENTATION_CONTEXT(2) 
PARAMETRIC_REPRESENTATION_CONTEXT() REPRESENTATION_CONTEXT('2D SPACE',''
  ) );
#1100 = PCURVE('',#794,#1101);
#1101 = DEFINITIONAL_REPRESENTATION('',(#1102),#1106);
#1102 = LINE('',#1103,#1104);
#1103 = CARTESIAN_POINT('',(12.7,0.));
#1104 = VECTOR('',#1105,1.);
#1105 = DIRECTION('',(0.,1.));
#1106 = ( GEOMETRIC_REPRESENTATION_CONTEXT(2) 
PARAMETRIC_REPRESENTATION_CONTEXT() REPRESENTATION_CONTEXT('2D SPACE',''
  ) );
#1107 = ORIENTED_EDGE('',*,*,#700,.T.);
#1108 = ORIENTED_EDGE('',*,*,#588,.T.);
#1109 = ADVANCED_FACE('',(#1110),#524,.F.);
#1110 = FACE_BOUND('',#1111,.F.);
#1111 = EDGE_LOOP('',(#1112,#1133,#1134,#1135));
#1112 = ORIENTED_EDGE('',*,*,#1113,.F.);
#1113 = EDGE_CURVE('',#739,#1065,#1114,.T.);
#1114 = SURFACE_CURVE('',#1115,(#1119,#1126),.PCURVE_S1.);
#1115 = LINE('',#1116,#1117);
#1116 = CARTESIAN_POINT('',(-22.35,-23.,-88.));
#1117 = VECTOR('',#1118,1.);
#1118 = DIRECTION('',(1.,0.,0.));
#1119 = PCURVE('',#524,#1120);
#1120 = DEFINITIONAL_REPRESENTATION('',(#1121),#1125);
#1121 = LINE('',#1122,#1123);
#1122 = CARTESIAN_POINT('',(0.,0.));
#1123 = VECTOR('',#1124,1.);
#1124 = DIRECTION('',(0.,1.));
#1125 = ( GEOMETRIC_REPRESENTATION_CONTEXT(2) 
PARAMETRIC_REPRESENTATION_CONTEXT() REPRESENTATION_CONTEXT('2D SPACE',''
  ) );
#1126 = PCURVE('',#794,#1127);
#1127 = DEFINITIONAL_REPRESENTATION('',(#1128),#1132);
#1128 = LINE('',#1129,#1130);
#1129 = CARTESIAN_POINT('',(0.,0.));
#1130 = VECTOR('',#1131,1.);
#1131 = DIRECTION('',(1.,0.));
#1132 = ( GEOMETRIC_REPRESENTATION_CONTEXT(2) 
PARAMETRIC_REPRESENTATION_CONTEXT() REPRESENTATION_CONTEXT('2D SPACE',''
  ) );
#1133 = ORIENTED_EDGE('',*,*,#826,.T.);
#1134 = ORIENTED_EDGE('',*,*,#508,.T.);
#1135 = ORIENTED_EDGE('',*,*,#1064,.F.);
#1136 = ADVANCED_FACE('',(#1137),#794,.F.);
#1137 = FACE_BOUND('',#1138,.F.);
#1138 = EDGE_LOOP('',(#1139,#1140,#1141));
#1139 = ORIENTED_EDGE('',*,*,#738,.F.);
#1140 = ORIENTED_EDGE('',*,*,#1113,.T.);
#1141 = ORIENTED_EDGE('',*,*,#1087,.T.);
#1142 = ( GEOMETRIC_REPRESENTATION_CONTEXT(3) 
GLOBAL_UNCERTAINTY_ASSIGNED_CONTEXT((#1146)) 
GLOBAL_UNIT_ASSIGNED_CONTEXT((#1143,#1144,#1145)) REPRESENTATION_CONTEXT
('Context #1','3D Context with UNIT and UNCERTAINTY') );
#1143 = ( LENGTH_UNIT() NAMED_UNIT(*) SI_UNIT(.MILLI.,.METRE.) );
#1144 = ( NAMED_UNIT(*) PLANE_ANGLE_UNIT() SI_UNIT($,.RADIAN.) );
#1145 = ( NAMED_UNIT(*) SI_UNIT($,.STERADIAN.) SOLID_ANGLE_UNIT() );
#1146 = UNCERTAINTY_MEASURE_WITH_UNIT(LENGTH_MEASURE(2.E-06),#1143,
  'distance_accuracy_value','confusion accuracy');
#1147 = PRODUCT_RELATED_PRODUCT_CATEGORY('part',$,(#7));
ENDSEC;
END-ISO-10303-21;
