ISO-10303-21;
HEADER;
FILE_DESCRIPTION(('Open CASCADE Model'),'2;1');
FILE_NAME('Open CASCADE Shape Model','2026-09-09T16:23:36',('Author'),(
    'Open CASCADE'),'Open CASCADE STEP processor 7.9','Open CASCADE 7.9'
  ,'Unknown');
FILE_SCHEMA(('AUTOMOTIVE_DESIGN { 1 0 10303 214 1 1 1 1 }'));
ENDSEC;
DATA;
#1 = APPLICATION_PROTOCOL_DEFINITION('international standard',
  'automotive_design',2000,#2);
#2 = APPLICATION_CONTEXT(
  'core data for automotive mechanical design processes');
#3 = SHAPE_DEFINITION_REPRESENTATION(#4,#10);
#4 = PRODUCT_DEFINITION_SHAPE('','',#5);
#5 = PRODUCT_DEFINITION('design','',#6,#9);
#6 = PRODUCT_DEFINITION_FORMATION('','',#7);
#7 = PRODUCT('Open CASCADE STEP translator 7.9 7',
  'Open CASCADE STEP translator 7.9 7','',(#8));
#8 = PRODUCT_CONTEXT('',#2,'mechanical');
#9 = PRODUCT_DEFINITION_CONTEXT('part definition',#2,'design');
#10 = ADVANCED_BREP_SHAPE_REPRESENTATION('',(#11,#15),#1390);
#11 = AXIS2_PLACEMENT_3D('',#12,#13,#14);
#12 = CARTESIAN_POINT('',(0.,0.,0.));
#13 = DIRECTION('',(0.,0.,1.));
#14 = DIRECTION('',(1.,0.,-0.));
#15 = MANIFOLD_SOLID_BREP('',#16);
#16 = CLOSED_SHELL('',(#17,#266,#471,#601,#838,#893,#1169,#1382));
#17 = ADVANCED_FACE('',(#18),#32,.F.);
#18 = FACE_BOUND('',#19,.F.);
#19 = EDGE_LOOP('',(#20,#55,#83,#111,#240));
#20 = ORIENTED_EDGE('',*,*,#21,.F.);
#21 = EDGE_CURVE('',#22,#24,#26,.T.);
#22 = VERTEX_POINT('',#23);
#23 = CARTESIAN_POINT('',(9.65,-23.,-20.));
#24 = VERTEX_POINT('',#25);
#25 = CARTESIAN_POINT('',(9.65,-5.,-20.));
#26 = SURFACE_CURVE('',#27,(#31,#43),.PCURVE_S1.);
#27 = LINE('',#28,#29);
#28 = CARTESIAN_POINT('',(9.65,-23.,-20.));
#29 = VECTOR('',#30,1.);
#30 = DIRECTION('',(0.,1.,0.));
#31 = PCURVE('',#32,#37);
#32 = PLANE('',#33);
#33 = AXIS2_PLACEMENT_3D('',#34,#35,#36);
#34 = CARTESIAN_POINT('',(9.65,-23.,-88.));
#35 = DIRECTION('',(1.,0.,0.));
#36 = DIRECTION('',(0.,0.,1.));
#37 = DEFINITIONAL_REPRESENTATION('',(#38),#42);
#38 = LINE('',#39,#40);
#39 = CARTESIAN_POINT('',(68.,0.));
#40 = VECTOR('',#41,1.);
#41 = DIRECTION('',(0.,-1.));
#42 = ( GEOMETRIC_REPRESENTATION_CONTEXT(2) 
PARAMETRIC_REPRESENTATION_CONTEXT() REPRESENTATION_CONTEXT('2D SPACE',''
  ) );
#43 = PCURVE('',#44,#49);
#44 = PLANE('',#45);
#45 = AXIS2_PLACEMENT_3D('',#46,#47,#48);
#46 = CARTESIAN_POINT('',(9.65,-23.,-20.));
#47 = DIRECTION('',(0.,0.,1.));
#48 = DIRECTION('',(1.,0.,0.));
#49 = DEFINITIONAL_REPRESENTATION('',(#50),#54);
#50 = LINE('',#51,#52);
#51 = CARTESIAN_POINT('',(0.,0.));
#52 = VECTOR('',#53,1.);
#53 = DIRECTION('',(0.,1.));
#54 = ( GEOMETRIC_REPRESENTATION_CONTEXT(2) 
PARAMETRIC_REPRESENTATION_CONTEXT() REPRESENTATION_CONTEXT('2D SPACE',''
  ) );
#55 = ORIENTED_EDGE('',*,*,#56,.F.);
#56 = EDGE_CURVE('',#57,#22,#59,.T.);
#57 = VERTEX_POINT('',#58);
#58 = CARTESIAN_POINT('',(9.65,-23.,-88.));
#59 = SURFACE_CURVE('',#60,(#64,#71),.PCURVE_S1.);
#60 = LINE('',#61,#62);
#61 = CARTESIAN_POINT('',(9.65,-23.,-88.));
#62 = VECTOR('',#63,1.);
#63 = DIRECTION('',(0.,0.,1.));
#64 = PCURVE('',#32,#65);
#65 = DEFINITIONAL_REPRESENTATION('',(#66),#70);
#66 = LINE('',#67,#68);
#67 = CARTESIAN_POINT('',(0.,0.));
#68 = VECTOR('',#69,1.);
#69 = DIRECTION('',(1.,0.));
#70 = ( GEOMETRIC_REPRESENTATION_CONTEXT(2) 
PARAMETRIC_REPRESENTATION_CONTEXT() REPRESENTATION_CONTEXT('2D SPACE',''
  ) );
#71 = PCURVE('',#72,#77);
#72 = PLANE('',#73);
#73 = AXIS2_PLACEMENT_3D('',#74,#75,#76);
#74 = CARTESIAN_POINT('',(9.65,-23.,-88.));
#75 = DIRECTION('',(0.,1.,0.));
#76 = DIRECTION('',(0.,0.,1.));
#77 = DEFINITIONAL_REPRESENTATION('',(#78),#82);
#78 = LINE('',#79,#80);
#79 = CARTESIAN_POINT('',(0.,0.));
#80 = VECTOR('',#81,1.);
#81 = DIRECTION('',(1.,0.));
#82 = ( GEOMETRIC_REPRESENTATION_CONTEXT(2) 
PARAMETRIC_REPRESENTATION_CONTEXT() REPRESENTATION_CONTEXT('2D SPACE',''
  ) );
#83 = ORIENTED_EDGE('',*,*,#84,.T.);
#84 = EDGE_CURVE('',#57,#85,#87,.T.);
#85 = VERTEX_POINT('',#86);
#86 = CARTESIAN_POINT('',(9.65,-9.950135914377,-88.));
#87 = SURFACE_CURVE('',#88,(#92,#99),.PCURVE_S1.);
#88 = LINE('',#89,#90);
#89 = CARTESIAN_POINT('',(9.65,-23.,-88.));
#90 = VECTOR('',#91,1.);
#91 = DIRECTION('',(0.,1.,0.));
#92 = PCURVE('',#32,#93);
#93 = DEFINITIONAL_REPRESENTATION('',(#94),#98);
#94 = LINE('',#95,#96);
#95 = CARTESIAN_POINT('',(0.,0.));
#96 = VECTOR('',#97,1.);
#97 = DIRECTION('',(0.,-1.));
#98 = ( GEOMETRIC_REPRESENTATION_CONTEXT(2) 
PARAMETRIC_REPRESENTATION_CONTEXT() REPRESENTATION_CONTEXT('2D SPACE',''
  ) );
#99 = PCURVE('',#100,#105);
#100 = PLANE('',#101);
#101 = AXIS2_PLACEMENT_3D('',#102,#103,#104);
#102 = CARTESIAN_POINT('',(9.65,-23.,-88.));
#103 = DIRECTION('',(0.,0.,1.));
#104 = DIRECTION('',(1.,0.,0.));
#105 = DEFINITIONAL_REPRESENTATION('',(#106),#110);
#106 = LINE('',#107,#108);
#107 = CARTESIAN_POINT('',(0.,0.));
#108 = VECTOR('',#109,1.);
#109 = DIRECTION('',(0.,1.));
#110 = ( GEOMETRIC_REPRESENTATION_CONTEXT(2) 
PARAMETRIC_REPRESENTATION_CONTEXT() REPRESENTATION_CONTEXT('2D SPACE',''
  ) );
#111 = ORIENTED_EDGE('',*,*,#112,.T.);
#112 = EDGE_CURVE('',#85,#113,#115,.T.);
#113 = VERTEX_POINT('',#114);
#114 = CARTESIAN_POINT('',(9.65,-5.,-75.28627592886));
#115 = SURFACE_CURVE('',#116,(#125,#137),.PCURVE_S1.);
#116 = B_SPLINE_CURVE_WITH_KNOTS('',7,(#117,#118,#119,#120,#121,#122,
    #123,#124),.UNSPECIFIED.,.F.,.F.,(8,8),(0.,1.),
  .PIECEWISE_BEZIER_KNOTS.);
#117 = CARTESIAN_POINT('',(9.65,-9.950135914377,-88.));
#118 = CARTESIAN_POINT('',(9.65,-9.153927183529,-86.22028877874));
#119 = CARTESIAN_POINT('',(9.65,-8.395705234697,-84.42372606009));
#120 = CARTESIAN_POINT('',(9.65,-7.669924144113,-82.61368660549));
#121 = CARTESIAN_POINT('',(9.65,-6.971768448744,-80.79290702783));
#122 = CARTESIAN_POINT('',(9.65,-6.296737461739,-78.96365276859));
#123 = CARTESIAN_POINT('',(9.65,-5.640730997494,-77.12768380442));
#124 = CARTESIAN_POINT('',(9.65,-5.,-75.28627592886));
#125 = PCURVE('',#32,#126);
#126 = DEFINITIONAL_REPRESENTATION('',(#127),#136);
#127 = B_SPLINE_CURVE_WITH_KNOTS('',7,(#128,#129,#130,#131,#132,#133,
    #134,#135),.UNSPECIFIED.,.F.,.F.,(8,8),(0.,1.),
  .PIECEWISE_BEZIER_KNOTS.);
#128 = CARTESIAN_POINT('',(0.,-13.04986408562));
#129 = CARTESIAN_POINT('',(1.77971122126,-13.84607281647));
#130 = CARTESIAN_POINT('',(3.576273939902,-14.6042947653));
#131 = CARTESIAN_POINT('',(5.386313394506,-15.33007585588));
#132 = CARTESIAN_POINT('',(7.207092972164,-16.02823155125));
#133 = CARTESIAN_POINT('',(9.036347231403,-16.70326253826));
#134 = CARTESIAN_POINT('',(10.872316195578,-17.3592690025));
#135 = CARTESIAN_POINT('',(12.713724071131,-18.));
#136 = ( GEOMETRIC_REPRESENTATION_CONTEXT(2) 
PARAMETRIC_REPRESENTATION_CONTEXT() REPRESENTATION_CONTEXT('2D SPACE',''
  ) );
#137 = PCURVE('',#138,#229);
#138 = ( BOUNDED_SURFACE() B_SPLINE_SURFACE(14,5,(
    (#139,#140,#141,#142,#143,#144)
    ,(#145,#146,#147,#148,#149,#150)
    ,(#151,#152,#153,#154,#155,#156)
    ,(#157,#158,#159,#160,#161,#162)
    ,(#163,#164,#165,#166,#167,#168)
    ,(#169,#170,#171,#172,#173,#174)
    ,(#175,#176,#177,#178,#179,#180)
    ,(#181,#182,#183,#184,#185,#186)
    ,(#187,#188,#189,#190,#191,#192)
    ,(#193,#194,#195,#196,#197,#198)
    ,(#199,#200,#201,#202,#203,#204)
    ,(#205,#206,#207,#208,#209,#210)
    ,(#211,#212,#213,#214,#215,#216)
    ,(#217,#218,#219,#220,#221,#222)
    ,(#223,#224,#225,#226,#227,#228
)),.UNSPECIFIED.,.T.,.F.,.F.) B_SPLINE_SURFACE_WITH_KNOTS((15,15),(6,6),
  (0.,1.),(0.,1.),.PIECEWISE_BEZIER_KNOTS.) 
GEOMETRIC_REPRESENTATION_ITEM() RATIONAL_B_SPLINE_SURFACE((
    (1.,1.,1.,1.,1.,1.)
    ,(1.,1.,1.,1.,1.,1.)
    ,(1.,1.,1.,1.,1.,1.)
    ,(1.,1.,1.,1.,1.,1.)
    ,(1.,1.,1.,1.,1.,1.)
    ,(1.,1.,1.,1.,1.,1.)
    ,(1.,1.,1.,1.,1.,1.)
    ,(1.,1.,1.,1.,1.,1.)
    ,(1.,1.,1.,1.,1.,1.)
    ,(1.,1.,1.,1.,1.,1.)
    ,(1.,1.,1.,1.,1.,1.)
    ,(1.,1.,1.,1.,1.,1.)
    ,(1.,1.,1.,1.,1.,1.)
    ,(1.,1.,1.,1.,1.,1.)
,(1.,1.,1.,1.,1.,1.))) REPRESENTATION_ITEM('') SURFACE() );
#139 = CARTESIAN_POINT('',(17.,-24.5,-97.));
#140 = CARTESIAN_POINT('',(24.695572997032,-19.3397591547,
    -77.51967133455));
#141 = CARTESIAN_POINT('',(15.196592142779,-9.442324537701,
    -55.11219644121));
#142 = CARTESIAN_POINT('',(31.729761407938,-12.34565689953,
    -35.33195450265));
#143 = CARTESIAN_POINT('',(28.25621735006,-2.109562729412,
    -14.41592287524));
#144 = CARTESIAN_POINT('',(30.,2.606519132579E-15,7.));
#145 = CARTESIAN_POINT('',(17.000000000003,-19.11441259384,-97.));
#146 = CARTESIAN_POINT('',(24.695572997047,-11.42786359354,
    -77.51967133455));
#147 = CARTESIAN_POINT('',(15.196592142752,-4.138002351172,
    -55.11219644121));
#148 = CARTESIAN_POINT('',(31.729761407966,-3.391128076955,
    -35.33195450265));
#149 = CARTESIAN_POINT('',(28.256217350054,7.518698588513,
    -14.41592287524));
#150 = CARTESIAN_POINT('',(30.000000000004,9.873576911289,7.));
#151 = CARTESIAN_POINT('',(13.3124558596,-13.72882319974,-97.));
#152 = CARTESIAN_POINT('',(19.338748555862,-3.515965111931,
    -77.51967133455));
#153 = CARTESIAN_POINT('',(11.900233065841,1.166321793248,
    -55.11219644121));
#154 = CARTESIAN_POINT('',(24.847120481,5.563404050998,-35.33195450265)
  );
#155 = CARTESIAN_POINT('',(22.12703801369,17.146963460419,
    -14.41592287524));
#156 = CARTESIAN_POINT('',(23.492569164001,19.747157467127,7.));
#157 = CARTESIAN_POINT('',(5.93736286467,-9.706167841123,-97.));
#158 = CARTESIAN_POINT('',(8.625092825689,2.393664920164,-77.51967133455
    ));
#159 = CARTESIAN_POINT('',(5.307510697172,5.128277743268,-55.11219644121
    ));
#160 = CARTESIAN_POINT('',(11.081829829017,12.251807865598,
    -35.33195450265));
#161 = CARTESIAN_POINT('',(9.868671505181,24.338598107511,
    -14.41592287524));
#162 = CARTESIAN_POINT('',(10.477699172943,27.122025624609,7.));
#163 = CARTESIAN_POINT('',(-4.022380450564,-8.409228850085,-97.));
#164 = CARTESIAN_POINT('',(-5.84323470845,4.298980918694,-77.51967133455
    ));
#165 = CARTESIAN_POINT('',(-3.595675008099,6.405646717976,
    -55.11219644121));
#166 = CARTESIAN_POINT('',(-7.507598352846,14.408207289226,
    -35.33195450265));
#167 = CARTESIAN_POINT('',(-6.685720957131,26.657243517334,
    -14.41592287524));
#168 = CARTESIAN_POINT('',(-7.098318442164,29.499747108174,7.));
#169 = CARTESIAN_POINT('',(-14.36118622684,-10.71227766788,-97.));
#170 = CARTESIAN_POINT('',(-20.86221898712,0.915602218347,
    -77.51967133455));
#171 = CARTESIAN_POINT('',(-12.83771116449,4.137349498561,
    -55.11219644121));
#172 = CARTESIAN_POINT('',(-26.80453014687,10.578965376072,
    -35.33195450265));
#173 = CARTESIAN_POINT('',(-23.87016467281,22.539892117711,
    -14.41592287524));
#174 = CARTESIAN_POINT('',(-25.34326981209,25.277490942222,7.));
#175 = CARTESIAN_POINT('',(-22.2537089282,-16.50937705681,-97.));
#176 = CARTESIAN_POINT('',(-32.32753490008,-7.600840179445,
    -77.51967133455));
#177 = CARTESIAN_POINT('',(-19.89297283641,-1.572275207285,
    -55.11219644121));
#178 = CARTESIAN_POINT('',(-41.53558086791,0.940222255719,
    -35.33195450265));
#179 = CARTESIAN_POINT('',(-36.9885668418,12.175936694658,
    -14.41592287524));
#180 = CARTESIAN_POINT('',(-39.27125104975,14.649475395817,7.));
#181 = CARTESIAN_POINT('',(-25.22508623481,-24.49999999985,-97.));
#182 = CARTESIAN_POINT('',(-36.64399755631,-19.33975915445,
    -77.51967133455));
#183 = CARTESIAN_POINT('',(-22.54913807683,-9.442324537206,
    -55.11219644121));
#184 = CARTESIAN_POINT('',(-47.08152751192,-12.34565689991,
    -35.33195450265));
#185 = CARTESIAN_POINT('',(-41.92738349032,-2.109562728943,
    -14.41592287524));
#186 = CARTESIAN_POINT('',(-44.51485806145,2.913297794736E-10,7.));
#187 = CARTESIAN_POINT('',(-22.25370892821,-32.49062294344,-97.));
#188 = CARTESIAN_POINT('',(-32.32753490004,-31.0786781304,
    -77.51967133455));
#189 = CARTESIAN_POINT('',(-19.89297283646,-17.31237386902,
    -55.11219644121));
#190 = CARTESIAN_POINT('',(-41.53558086789,-25.63153605409,
    -35.33195450265));
#191 = CARTESIAN_POINT('',(-36.98856684181,-16.39506215434,
    -14.41592287524));
#192 = CARTESIAN_POINT('',(-39.27125104976,-14.64947539635,7.));
#193 = CARTESIAN_POINT('',(-14.36118622683,-38.28772233191,-97.));
#194 = CARTESIAN_POINT('',(-20.86221898718,-39.5951205274,
    -77.51967133455));
#195 = CARTESIAN_POINT('',(-12.83771116441,-23.02199857327,
    -55.11219644121));
#196 = CARTESIAN_POINT('',(-26.8045301469,-35.27027917565,
    -35.33195450265));
#197 = CARTESIAN_POINT('',(-23.87016467279,-26.75901757588,
    -14.41592287524));
#198 = CARTESIAN_POINT('',(-25.34326981208,-25.27749094181,7.));
#199 = CARTESIAN_POINT('',(-4.022380450576,-40.59077115003,-97.));
#200 = CARTESIAN_POINT('',(-5.8432347084,-42.97849922831,-77.51967133455
    ));
#201 = CARTESIAN_POINT('',(-3.595675008171,-25.29029579379,
    -55.11219644121));
#202 = CARTESIAN_POINT('',(-7.507598352813,-39.09952108798,
    -35.33195450265));
#203 = CARTESIAN_POINT('',(-6.685720957153,-30.87636897655,
    -14.41592287524));
#204 = CARTESIAN_POINT('',(-7.098318442175,-29.49974710843,7.));
#205 = CARTESIAN_POINT('',(5.937362864677,-39.29383215881,-97.));
#206 = CARTESIAN_POINT('',(8.62509282566,-41.07318322945,-77.51967133455
    ));
#207 = CARTESIAN_POINT('',(5.307510697216,-24.01292681846,
    -55.11219644121));
#208 = CARTESIAN_POINT('',(11.081829828995,-36.94312166481,
    -35.33195450265));
#209 = CARTESIAN_POINT('',(9.868671505195,-28.55772356614,
    -14.41592287524));
#210 = CARTESIAN_POINT('',(10.47769917295,-27.12202562447,7.));
#211 = CARTESIAN_POINT('',(13.312455859597,-35.27117680027,-97.));
#212 = CARTESIAN_POINT('',(19.338748555873,-35.16355319751,
    -77.51967133455));
#213 = CARTESIAN_POINT('',(11.900233065823,-20.05097086872,
    -55.11219644121));
#214 = CARTESIAN_POINT('',(24.84712048101,-30.25471785001,
    -35.33195450265));
#215 = CARTESIAN_POINT('',(22.127038013684,-21.36608891931,
    -14.41592287524));
#216 = CARTESIAN_POINT('',(23.492569163999,-19.74715746717,7.));
#217 = CARTESIAN_POINT('',(17.000000000003,-29.88558740615,-97.));
#218 = CARTESIAN_POINT('',(24.695572997044,-27.25165471584,
    -77.51967133455));
#219 = CARTESIAN_POINT('',(15.196592142756,-14.74664672421,
    -55.11219644121));
#220 = CARTESIAN_POINT('',(31.729761407964,-21.30018572212,
    -35.33195450265));
#221 = CARTESIAN_POINT('',(28.256217350056,-11.73782404732,
    -14.41592287524));
#222 = CARTESIAN_POINT('',(30.000000000005,-9.873576911278,7.));
#223 = CARTESIAN_POINT('',(17.,-24.5,-97.));
#224 = CARTESIAN_POINT('',(24.695572997032,-19.3397591547,
    -77.51967133455));
#225 = CARTESIAN_POINT('',(15.196592142778,-9.442324537701,
    -55.11219644121));
#226 = CARTESIAN_POINT('',(31.729761407938,-12.34565689953,
    -35.33195450265));
#227 = CARTESIAN_POINT('',(28.25621735006,-2.109562729412,
    -14.41592287524));
#228 = CARTESIAN_POINT('',(30.,-1.160433578539E-14,7.));
#229 = DEFINITIONAL_REPRESENTATION('',(#230),#239);
#230 = B_SPLINE_CURVE_WITH_KNOTS('',7,(#231,#232,#233,#234,#235,#236,
    #237,#238),.UNSPECIFIED.,.F.,.F.,(8,8),(0.,1.),
  .PIECEWISE_BEZIER_KNOTS.);
#231 = CARTESIAN_POINT('',(0.166964038759,9.033776740547E-02));
#232 = CARTESIAN_POINT('',(0.168350802421,0.107878222108));
#233 = CARTESIAN_POINT('',(0.169428403135,0.125468736326));
#234 = CARTESIAN_POINT('',(0.170305828376,0.143095620789));
#235 = CARTESIAN_POINT('',(0.171050085485,0.160749946371));
#236 = CARTESIAN_POINT('',(0.171713417495,0.17842529076));
#237 = CARTESIAN_POINT('',(0.172333591813,0.196118079841));
#238 = CARTESIAN_POINT('',(0.17293859222,0.213827421105));
#239 = ( GEOMETRIC_REPRESENTATION_CONTEXT(2) 
PARAMETRIC_REPRESENTATION_CONTEXT() REPRESENTATION_CONTEXT('2D SPACE',''
  ) );
#240 = ORIENTED_EDGE('',*,*,#241,.T.);
#241 = EDGE_CURVE('',#113,#24,#242,.T.);
#242 = SURFACE_CURVE('',#243,(#247,#254),.PCURVE_S1.);
#243 = LINE('',#244,#245);
#244 = CARTESIAN_POINT('',(9.65,-5.,-88.));
#245 = VECTOR('',#246,1.);
#246 = DIRECTION('',(0.,0.,1.));
#247 = PCURVE('',#32,#248);
#248 = DEFINITIONAL_REPRESENTATION('',(#249),#253);
#249 = LINE('',#250,#251);
#250 = CARTESIAN_POINT('',(0.,-18.));
#251 = VECTOR('',#252,1.);
#252 = DIRECTION('',(1.,0.));
#253 = ( GEOMETRIC_REPRESENTATION_CONTEXT(2) 
PARAMETRIC_REPRESENTATION_CONTEXT() REPRESENTATION_CONTEXT('2D SPACE',''
  ) );
#254 = PCURVE('',#255,#260);
#255 = PLANE('',#256);
#256 = AXIS2_PLACEMENT_3D('',#257,#258,#259);
#257 = CARTESIAN_POINT('',(9.65,-5.,-88.));
#258 = DIRECTION('',(0.,1.,0.));
#259 = DIRECTION('',(0.,0.,1.));
#260 = DEFINITIONAL_REPRESENTATION('',(#261),#265);
#261 = LINE('',#262,#263);
#262 = CARTESIAN_POINT('',(0.,0.));
#263 = VECTOR('',#264,1.);
#264 = DIRECTION('',(1.,0.));
#265 = ( GEOMETRIC_REPRESENTATION_CONTEXT(2) 
PARAMETRIC_REPRESENTATION_CONTEXT() REPRESENTATION_CONTEXT('2D SPACE',''
  ) );
#266 = ADVANCED_FACE('',(#267),#44,.T.);
#267 = FACE_BOUND('',#268,.T.);
#268 = EDGE_LOOP('',(#269,#292,#293,#316,#445));
#269 = ORIENTED_EDGE('',*,*,#270,.F.);
#270 = EDGE_CURVE('',#24,#271,#273,.T.);
#271 = VERTEX_POINT('',#272);
#272 = CARTESIAN_POINT('',(22.35,-5.,-20.));
#273 = SURFACE_CURVE('',#274,(#278,#285),.PCURVE_S1.);
#274 = LINE('',#275,#276);
#275 = CARTESIAN_POINT('',(9.65,-5.,-20.));
#276 = VECTOR('',#277,1.);
#277 = DIRECTION('',(1.,0.,0.));
#278 = PCURVE('',#44,#279);
#279 = DEFINITIONAL_REPRESENTATION('',(#280),#284);
#280 = LINE('',#281,#282);
#281 = CARTESIAN_POINT('',(0.,18.));
#282 = VECTOR('',#283,1.);
#283 = DIRECTION('',(1.,0.));
#284 = ( GEOMETRIC_REPRESENTATION_CONTEXT(2) 
PARAMETRIC_REPRESENTATION_CONTEXT() REPRESENTATION_CONTEXT('2D SPACE',''
  ) );
#285 = PCURVE('',#255,#286);
#286 = DEFINITIONAL_REPRESENTATION('',(#287),#291);
#287 = LINE('',#288,#289);
#288 = CARTESIAN_POINT('',(68.,0.));
#289 = VECTOR('',#290,1.);
#290 = DIRECTION('',(0.,1.));
#291 = ( GEOMETRIC_REPRESENTATION_CONTEXT(2) 
PARAMETRIC_REPRESENTATION_CONTEXT() REPRESENTATION_CONTEXT('2D SPACE',''
  ) );
#292 = ORIENTED_EDGE('',*,*,#21,.F.);
#293 = ORIENTED_EDGE('',*,*,#294,.T.);
#294 = EDGE_CURVE('',#22,#295,#297,.T.);
#295 = VERTEX_POINT('',#296);
#296 = CARTESIAN_POINT('',(13.821967949067,-23.,-20.));
#297 = SURFACE_CURVE('',#298,(#302,#309),.PCURVE_S1.);
#298 = LINE('',#299,#300);
#299 = CARTESIAN_POINT('',(9.65,-23.,-20.));
#300 = VECTOR('',#301,1.);
#301 = DIRECTION('',(1.,0.,0.));
#302 = PCURVE('',#44,#303);
#303 = DEFINITIONAL_REPRESENTATION('',(#304),#308);
#304 = LINE('',#305,#306);
#305 = CARTESIAN_POINT('',(0.,0.));
#306 = VECTOR('',#307,1.);
#307 = DIRECTION('',(1.,0.));
#308 = ( GEOMETRIC_REPRESENTATION_CONTEXT(2) 
PARAMETRIC_REPRESENTATION_CONTEXT() REPRESENTATION_CONTEXT('2D SPACE',''
  ) );
#309 = PCURVE('',#72,#310);
#310 = DEFINITIONAL_REPRESENTATION('',(#311),#315);
#311 = LINE('',#312,#313);
#312 = CARTESIAN_POINT('',(68.,0.));
#313 = VECTOR('',#314,1.);
#314 = DIRECTION('',(0.,1.));
#315 = ( GEOMETRIC_REPRESENTATION_CONTEXT(2) 
PARAMETRIC_REPRESENTATION_CONTEXT() REPRESENTATION_CONTEXT('2D SPACE',''
  ) );
#316 = ORIENTED_EDGE('',*,*,#317,.F.);
#317 = EDGE_CURVE('',#318,#295,#320,.T.);
#318 = VERTEX_POINT('',#319);
#319 = CARTESIAN_POINT('',(22.35,-17.76911237687,-20.));
#320 = SURFACE_CURVE('',#321,(#330,#342),.PCURVE_S1.);
#321 = B_SPLINE_CURVE_WITH_KNOTS('',7,(#322,#323,#324,#325,#326,#327,
    #328,#329),.UNSPECIFIED.,.F.,.F.,(8,8),(0.,1.),
  .PIECEWISE_BEZIER_KNOTS.);
#322 = CARTESIAN_POINT('',(22.35,-17.76911237687,-20.));
#323 = CARTESIAN_POINT('',(21.291100990202,-18.74089867403,-20.));
#324 = CARTESIAN_POINT('',(20.161712941579,-19.63488206028,-20.));
#325 = CARTESIAN_POINT('',(18.974062490865,-20.45255204035,-20.));
#326 = CARTESIAN_POINT('',(17.738534328326,-21.19566050697,-20.));
#327 = CARTESIAN_POINT('',(16.463804264503,-21.86638737921,-20.));
#328 = CARTESIAN_POINT('',(15.1566875097,-22.46709219758,-20.));
#329 = CARTESIAN_POINT('',(13.821967949067,-23.,-20.));
#330 = PCURVE('',#44,#331);
#331 = DEFINITIONAL_REPRESENTATION('',(#332),#341);
#332 = B_SPLINE_CURVE_WITH_KNOTS('',7,(#333,#334,#335,#336,#337,#338,
    #339,#340),.UNSPECIFIED.,.F.,.F.,(8,8),(0.,1.),
  .PIECEWISE_BEZIER_KNOTS.);
#333 = CARTESIAN_POINT('',(12.7,5.230887623121));
#334 = CARTESIAN_POINT('',(11.641100990202,4.259101325966));
#335 = CARTESIAN_POINT('',(10.511712941579,3.365117939716));
#336 = CARTESIAN_POINT('',(9.324062490865,2.547447959648));
#337 = CARTESIAN_POINT('',(8.088534328326,1.804339493025));
#338 = CARTESIAN_POINT('',(6.813804264503,1.13361262079));
#339 = CARTESIAN_POINT('',(5.5066875097,0.532907802416));
#340 = CARTESIAN_POINT('',(4.171967949067,0.));
#341 = ( GEOMETRIC_REPRESENTATION_CONTEXT(2) 
PARAMETRIC_REPRESENTATION_CONTEXT() REPRESENTATION_CONTEXT('2D SPACE',''
  ) );
#342 = PCURVE('',#343,#434);
#343 = ( BOUNDED_SURFACE() B_SPLINE_SURFACE(14,5,(
    (#344,#345,#346,#347,#348,#349)
    ,(#350,#351,#352,#353,#354,#355)
    ,(#356,#357,#358,#359,#360,#361)
    ,(#362,#363,#364,#365,#366,#367)
    ,(#368,#369,#370,#371,#372,#373)
    ,(#374,#375,#376,#377,#378,#379)
    ,(#380,#381,#382,#383,#384,#385)
    ,(#386,#387,#388,#389,#390,#391)
    ,(#392,#393,#394,#395,#396,#397)
    ,(#398,#399,#400,#401,#402,#403)
    ,(#404,#405,#406,#407,#408,#409)
    ,(#410,#411,#412,#413,#414,#415)
    ,(#416,#417,#418,#419,#420,#421)
    ,(#422,#423,#424,#425,#426,#427)
    ,(#428,#429,#430,#431,#432,#433
)),.UNSPECIFIED.,.T.,.F.,.F.) B_SPLINE_SURFACE_WITH_KNOTS((15,15),(6,6),
  (0.,1.),(0.,1.),.PIECEWISE_BEZIER_KNOTS.) 
GEOMETRIC_REPRESENTATION_ITEM() RATIONAL_B_SPLINE_SURFACE((
    (1.,1.,1.,1.,1.,1.)
    ,(1.,1.,1.,1.,1.,1.)
    ,(1.,1.,1.,1.,1.,1.)
    ,(1.,1.,1.,1.,1.,1.)
    ,(1.,1.,1.,1.,1.,1.)
    ,(1.,1.,1.,1.,1.,1.)
    ,(1.,1.,1.,1.,1.,1.)
    ,(1.,1.,1.,1.,1.,1.)
    ,(1.,1.,1.,1.,1.,1.)
    ,(1.,1.,1.,1.,1.,1.)
    ,(1.,1.,1.,1.,1.,1.)
    ,(1.,1.,1.,1.,1.,1.)
    ,(1.,1.,1.,1.,1.,1.)
    ,(1.,1.,1.,1.,1.,1.)
,(1.,1.,1.,1.,1.,1.))) REPRESENTATION_ITEM('') SURFACE() );
#344 = CARTESIAN_POINT('',(17.,-24.5,-97.));
#345 = CARTESIAN_POINT('',(24.695572997032,-19.3397591547,
    -77.51967133455));
#346 = CARTESIAN_POINT('',(15.196592142779,-9.442324537701,
    -55.11219644121));
#347 = CARTESIAN_POINT('',(31.729761407938,-12.34565689953,
    -35.33195450265));
#348 = CARTESIAN_POINT('',(28.25621735006,-2.109562729412,
    -14.41592287524));
#349 = CARTESIAN_POINT('',(30.,2.606519132579E-15,7.));
#350 = CARTESIAN_POINT('',(17.000000000003,-19.11441259384,-97.));
#351 = CARTESIAN_POINT('',(24.695572997047,-11.42786359354,
    -77.51967133455));
#352 = CARTESIAN_POINT('',(15.196592142752,-4.138002351172,
    -55.11219644121));
#353 = CARTESIAN_POINT('',(31.729761407966,-3.391128076955,
    -35.33195450265));
#354 = CARTESIAN_POINT('',(28.256217350054,7.518698588513,
    -14.41592287524));
#355 = CARTESIAN_POINT('',(30.000000000004,9.873576911289,7.));
#356 = CARTESIAN_POINT('',(13.3124558596,-13.72882319974,-97.));
#357 = CARTESIAN_POINT('',(19.338748555862,-3.515965111931,
    -77.51967133455));
#358 = CARTESIAN_POINT('',(11.900233065841,1.166321793248,
    -55.11219644121));
#359 = CARTESIAN_POINT('',(24.847120481,5.563404050998,-35.33195450265)
  );
#360 = CARTESIAN_POINT('',(22.12703801369,17.146963460419,
    -14.41592287524));
#361 = CARTESIAN_POINT('',(23.492569164001,19.747157467127,7.));
#362 = CARTESIAN_POINT('',(5.93736286467,-9.706167841123,-97.));
#363 = CARTESIAN_POINT('',(8.625092825689,2.393664920164,-77.51967133455
    ));
#364 = CARTESIAN_POINT('',(5.307510697172,5.128277743268,-55.11219644121
    ));
#365 = CARTESIAN_POINT('',(11.081829829017,12.251807865598,
    -35.33195450265));
#366 = CARTESIAN_POINT('',(9.868671505181,24.338598107511,
    -14.41592287524));
#367 = CARTESIAN_POINT('',(10.477699172943,27.122025624609,7.));
#368 = CARTESIAN_POINT('',(-4.022380450564,-8.409228850085,-97.));
#369 = CARTESIAN_POINT('',(-5.84323470845,4.298980918694,-77.51967133455
    ));
#370 = CARTESIAN_POINT('',(-3.595675008099,6.405646717976,
    -55.11219644121));
#371 = CARTESIAN_POINT('',(-7.507598352846,14.408207289226,
    -35.33195450265));
#372 = CARTESIAN_POINT('',(-6.685720957131,26.657243517334,
    -14.41592287524));
#373 = CARTESIAN_POINT('',(-7.098318442164,29.499747108174,7.));
#374 = CARTESIAN_POINT('',(-14.36118622684,-10.71227766788,-97.));
#375 = CARTESIAN_POINT('',(-20.86221898712,0.915602218347,
    -77.51967133455));
#376 = CARTESIAN_POINT('',(-12.83771116449,4.137349498561,
    -55.11219644121));
#377 = CARTESIAN_POINT('',(-26.80453014687,10.578965376072,
    -35.33195450265));
#378 = CARTESIAN_POINT('',(-23.87016467281,22.539892117711,
    -14.41592287524));
#379 = CARTESIAN_POINT('',(-25.34326981209,25.277490942222,7.));
#380 = CARTESIAN_POINT('',(-22.2537089282,-16.50937705681,-97.));
#381 = CARTESIAN_POINT('',(-32.32753490008,-7.600840179445,
    -77.51967133455));
#382 = CARTESIAN_POINT('',(-19.89297283641,-1.572275207285,
    -55.11219644121));
#383 = CARTESIAN_POINT('',(-41.53558086791,0.940222255719,
    -35.33195450265));
#384 = CARTESIAN_POINT('',(-36.9885668418,12.175936694658,
    -14.41592287524));
#385 = CARTESIAN_POINT('',(-39.27125104975,14.649475395817,7.));
#386 = CARTESIAN_POINT('',(-25.22508623481,-24.49999999985,-97.));
#387 = CARTESIAN_POINT('',(-36.64399755631,-19.33975915445,
    -77.51967133455));
#388 = CARTESIAN_POINT('',(-22.54913807683,-9.442324537206,
    -55.11219644121));
#389 = CARTESIAN_POINT('',(-47.08152751192,-12.34565689991,
    -35.33195450265));
#390 = CARTESIAN_POINT('',(-41.92738349032,-2.109562728943,
    -14.41592287524));
#391 = CARTESIAN_POINT('',(-44.51485806145,2.913297794736E-10,7.));
#392 = CARTESIAN_POINT('',(-22.25370892821,-32.49062294344,-97.));
#393 = CARTESIAN_POINT('',(-32.32753490004,-31.0786781304,
    -77.51967133455));
#394 = CARTESIAN_POINT('',(-19.89297283646,-17.31237386902,
    -55.11219644121));
#395 = CARTESIAN_POINT('',(-41.53558086789,-25.63153605409,
    -35.33195450265));
#396 = CARTESIAN_POINT('',(-36.98856684181,-16.39506215434,
    -14.41592287524));
#397 = CARTESIAN_POINT('',(-39.27125104976,-14.64947539635,7.));
#398 = CARTESIAN_POINT('',(-14.36118622683,-38.28772233191,-97.));
#399 = CARTESIAN_POINT('',(-20.86221898718,-39.5951205274,
    -77.51967133455));
#400 = CARTESIAN_POINT('',(-12.83771116441,-23.02199857327,
    -55.11219644121));
#401 = CARTESIAN_POINT('',(-26.8045301469,-35.27027917565,
    -35.33195450265));
#402 = CARTESIAN_POINT('',(-23.87016467279,-26.75901757588,
    -14.41592287524));
#403 = CARTESIAN_POINT('',(-25.34326981208,-25.27749094181,7.));
#404 = CARTESIAN_POINT('',(-4.022380450576,-40.59077115003,-97.));
#405 = CARTESIAN_POINT('',(-5.8432347084,-42.97849922831,-77.51967133455
    ));
#406 = CARTESIAN_POINT('',(-3.595675008171,-25.29029579379,
    -55.11219644121));
#407 = CARTESIAN_POINT('',(-7.507598352813,-39.09952108798,
    -35.33195450265));
#408 = CARTESIAN_POINT('',(-6.685720957153,-30.87636897655,
    -14.41592287524));
#409 = CARTESIAN_POINT('',(-7.098318442175,-29.49974710843,7.));
#410 = CARTESIAN_POINT('',(5.937362864677,-39.29383215881,-97.));
#411 = CARTESIAN_POINT('',(8.62509282566,-41.07318322945,-77.51967133455
    ));
#412 = CARTESIAN_POINT('',(5.307510697216,-24.01292681846,
    -55.11219644121));
#413 = CARTESIAN_POINT('',(11.081829828995,-36.94312166481,
    -35.33195450265));
#414 = CARTESIAN_POINT('',(9.868671505195,-28.55772356614,
    -14.41592287524));
#415 = CARTESIAN_POINT('',(10.47769917295,-27.12202562447,7.));
#416 = CARTESIAN_POINT('',(13.312455859597,-35.27117680027,-97.));
#417 = CARTESIAN_POINT('',(19.338748555873,-35.16355319751,
    -77.51967133455));
#418 = CARTESIAN_POINT('',(11.900233065823,-20.05097086872,
    -55.11219644121));
#419 = CARTESIAN_POINT('',(24.84712048101,-30.25471785001,
    -35.33195450265));
#420 = CARTESIAN_POINT('',(22.127038013684,-21.36608891931,
    -14.41592287524));
#421 = CARTESIAN_POINT('',(23.492569163999,-19.74715746717,7.));
#422 = CARTESIAN_POINT('',(17.000000000003,-29.88558740615,-97.));
#423 = CARTESIAN_POINT('',(24.695572997044,-27.25165471584,
    -77.51967133455));
#424 = CARTESIAN_POINT('',(15.196592142756,-14.74664672421,
    -55.11219644121));
#425 = CARTESIAN_POINT('',(31.729761407964,-21.30018572212,
    -35.33195450265));
#426 = CARTESIAN_POINT('',(28.256217350056,-11.73782404732,
    -14.41592287524));
#427 = CARTESIAN_POINT('',(30.000000000005,-9.873576911278,7.));
#428 = CARTESIAN_POINT('',(17.,-24.5,-97.));
#429 = CARTESIAN_POINT('',(24.695572997032,-19.3397591547,
    -77.51967133455));
#430 = CARTESIAN_POINT('',(15.196592142778,-9.442324537701,
    -55.11219644121));
#431 = CARTESIAN_POINT('',(31.729761407938,-12.34565689953,
    -35.33195450265));
#432 = CARTESIAN_POINT('',(28.25621735006,-2.109562729412,
    -14.41592287524));
#433 = CARTESIAN_POINT('',(30.,-1.160433578539E-14,7.));
#434 = DEFINITIONAL_REPRESENTATION('',(#435),#444);
#435 = B_SPLINE_CURVE_WITH_KNOTS('',7,(#436,#437,#438,#439,#440,#441,
    #442,#443),.UNSPECIFIED.,.F.,.F.,(8,8),(0.,1.),
  .PIECEWISE_BEZIER_KNOTS.);
#436 = CARTESIAN_POINT('',(0.894785127376,0.74455021061));
#437 = CARTESIAN_POINT('',(0.88509109334,0.74455021061));
#438 = CARTESIAN_POINT('',(0.875637350121,0.74455021061));
#439 = CARTESIAN_POINT('',(0.866398104769,0.74455021061));
#440 = CARTESIAN_POINT('',(0.857352620053,0.74455021061));
#441 = CARTESIAN_POINT('',(0.848480274677,0.74455021061));
#442 = CARTESIAN_POINT('',(0.839759158024,0.74455021061));
#443 = CARTESIAN_POINT('',(0.831163215533,0.74455021061));
#444 = ( GEOMETRIC_REPRESENTATION_CONTEXT(2) 
PARAMETRIC_REPRESENTATION_CONTEXT() REPRESENTATION_CONTEXT('2D SPACE',''
  ) );
#445 = ORIENTED_EDGE('',*,*,#446,.T.);
#446 = EDGE_CURVE('',#318,#271,#447,.T.);
#447 = SURFACE_CURVE('',#448,(#452,#459),.PCURVE_S1.);
#448 = LINE('',#449,#450);
#449 = CARTESIAN_POINT('',(22.35,-23.,-20.));
#450 = VECTOR('',#451,1.);
#451 = DIRECTION('',(0.,1.,0.));
#452 = PCURVE('',#44,#453);
#453 = DEFINITIONAL_REPRESENTATION('',(#454),#458);
#454 = LINE('',#455,#456);
#455 = CARTESIAN_POINT('',(12.7,0.));
#456 = VECTOR('',#457,1.);
#457 = DIRECTION('',(0.,1.));
#458 = ( GEOMETRIC_REPRESENTATION_CONTEXT(2) 
PARAMETRIC_REPRESENTATION_CONTEXT() REPRESENTATION_CONTEXT('2D SPACE',''
  ) );
#459 = PCURVE('',#460,#465);
#460 = PLANE('',#461);
#461 = AXIS2_PLACEMENT_3D('',#462,#463,#464);
#462 = CARTESIAN_POINT('',(22.35,-23.,-88.));
#463 = DIRECTION('',(1.,0.,0.));
#464 = DIRECTION('',(0.,0.,1.));
#465 = DEFINITIONAL_REPRESENTATION('',(#466),#470);
#466 = LINE('',#467,#468);
#467 = CARTESIAN_POINT('',(68.,0.));
#468 = VECTOR('',#469,1.);
#469 = DIRECTION('',(0.,-1.));
#470 = ( GEOMETRIC_REPRESENTATION_CONTEXT(2) 
PARAMETRIC_REPRESENTATION_CONTEXT() REPRESENTATION_CONTEXT('2D SPACE',''
  ) );
#471 = ADVANCED_FACE('',(#472),#255,.T.);
#472 = FACE_BOUND('',#473,.T.);
#473 = EDGE_LOOP('',(#474,#497,#599,#600));
#474 = ORIENTED_EDGE('',*,*,#475,.F.);
#475 = EDGE_CURVE('',#476,#271,#478,.T.);
#476 = VERTEX_POINT('',#477);
#477 = CARTESIAN_POINT('',(22.35,-5.,-47.27638764416));
#478 = SURFACE_CURVE('',#479,(#483,#490),.PCURVE_S1.);
#479 = LINE('',#480,#481);
#480 = CARTESIAN_POINT('',(22.35,-5.,-88.));
#481 = VECTOR('',#482,1.);
#482 = DIRECTION('',(0.,0.,1.));
#483 = PCURVE('',#255,#484);
#484 = DEFINITIONAL_REPRESENTATION('',(#485),#489);
#485 = LINE('',#486,#487);
#486 = CARTESIAN_POINT('',(0.,12.7));
#487 = VECTOR('',#488,1.);
#488 = DIRECTION('',(1.,0.));
#489 = ( GEOMETRIC_REPRESENTATION_CONTEXT(2) 
PARAMETRIC_REPRESENTATION_CONTEXT() REPRESENTATION_CONTEXT('2D SPACE',''
  ) );
#490 = PCURVE('',#460,#491);
#491 = DEFINITIONAL_REPRESENTATION('',(#492),#496);
#492 = LINE('',#493,#494);
#493 = CARTESIAN_POINT('',(0.,-18.));
#494 = VECTOR('',#495,1.);
#495 = DIRECTION('',(1.,0.));
#496 = ( GEOMETRIC_REPRESENTATION_CONTEXT(2) 
PARAMETRIC_REPRESENTATION_CONTEXT() REPRESENTATION_CONTEXT('2D SPACE',''
  ) );
#497 = ORIENTED_EDGE('',*,*,#498,.F.);
#498 = EDGE_CURVE('',#113,#476,#499,.T.);
#499 = SURFACE_CURVE('',#500,(#531,#565),.PCURVE_S1.);
#500 = B_SPLINE_CURVE_WITH_KNOTS('',8,(#501,#502,#503,#504,#505,#506,
    #507,#508,#509,#510,#511,#512,#513,#514,#515,#516,#517,#518,#519,
    #520,#521,#522,#523,#524,#525,#526,#527,#528,#529,#530),
  .UNSPECIFIED.,.F.,.F.,(9,7,7,7,9),(0.,0.191483772396,0.366737572124,
    0.789492836293,1.),.UNSPECIFIED.);
#501 = CARTESIAN_POINT('',(9.65,-5.,-75.28627592886));
#502 = CARTESIAN_POINT('',(10.153669156332,-5.,-74.74197399137));
#503 = CARTESIAN_POINT('',(10.636218417783,-5.,-74.17832215447));
#504 = CARTESIAN_POINT('',(11.09895623329,-5.,-73.59799722768));
#505 = CARTESIAN_POINT('',(11.543151465644,-5.,-73.00332675448));
#506 = CARTESIAN_POINT('',(11.970059392511,-5.,-72.39630957247));
#507 = CARTESIAN_POINT('',(12.38092234858,-5.,-71.77861665145));
#508 = CARTESIAN_POINT('',(12.776961974753,-5.,-71.15158543514));
#509 = CARTESIAN_POINT('',(13.509384733776,-5.,-69.93470925004));
#510 = CARTESIAN_POINT('',(13.847914430429,-5.,-69.34632466728));
#511 = CARTESIAN_POINT('',(14.175857071909,-5.,-68.75190815546));
#512 = CARTESIAN_POINT('',(14.494020498609,-5.,-68.15219190067));
#513 = CARTESIAN_POINT('',(14.803146803764,-5.,-67.54780698193));
#514 = CARTESIAN_POINT('',(15.103923057125,-5.,-66.93928908242));
#515 = CARTESIAN_POINT('',(15.396988398194,-5.,-66.32708221396));
#516 = CARTESIAN_POINT('',(16.372717052132,-5.,-64.22670235387));
#517 = CARTESIAN_POINT('',(17.020842054234,-5.,-62.72298969415));
#518 = CARTESIAN_POINT('',(17.635828799622,-5.,-61.20515428731));
#519 = CARTESIAN_POINT('',(18.223849621196,-5.,-59.67666580953));
#520 = CARTESIAN_POINT('',(18.789634631143,-5.,-58.14006486963));
#521 = CARTESIAN_POINT('',(19.336689775071,-5.,-56.59704469537));
#522 = CARTESIAN_POINT('',(19.867601783398,-5.,-55.04857067584));
#523 = CARTESIAN_POINT('',(20.641414916504,-5.,-52.72131724371));
#524 = CARTESIAN_POINT('',(20.895061199902,-5.,-51.94650975903));
#525 = CARTESIAN_POINT('',(21.14533352055,-5.,-51.17060066542));
#526 = CARTESIAN_POINT('',(21.392388102197,-5.,-50.39365895157));
#527 = CARTESIAN_POINT('',(21.636333878407,-5.,-49.61573674023));
#528 = CARTESIAN_POINT('',(21.877237332688,-5.,-48.83687082556));
#529 = CARTESIAN_POINT('',(22.115127338623,-5.,-48.0570842105));
#530 = CARTESIAN_POINT('',(22.35,-5.,-47.27638764416));
#531 = PCURVE('',#255,#532);
#532 = DEFINITIONAL_REPRESENTATION('',(#533),#564);
#533 = B_SPLINE_CURVE_WITH_KNOTS('',8,(#534,#535,#536,#537,#538,#539,
    #540,#541,#542,#543,#544,#545,#546,#547,#548,#549,#550,#551,#552,
    #553,#554,#555,#556,#557,#558,#559,#560,#561,#562,#563),
  .UNSPECIFIED.,.F.,.F.,(9,7,7,7,9),(0.,0.191483772396,0.366737572124,
    0.789492836293,1.),.UNSPECIFIED.);
#534 = CARTESIAN_POINT('',(12.713724071131,0.));
#535 = CARTESIAN_POINT('',(13.258026008624,0.503669156332));
#536 = CARTESIAN_POINT('',(13.821677845521,0.986218417783));
#537 = CARTESIAN_POINT('',(14.402002772312,1.44895623329));
#538 = CARTESIAN_POINT('',(14.996673245515,1.893151465644));
#539 = CARTESIAN_POINT('',(15.603690427523,2.320059392511));
#540 = CARTESIAN_POINT('',(16.221383348549,2.73092234858));
#541 = CARTESIAN_POINT('',(16.848414564857,3.126961974753));
#542 = CARTESIAN_POINT('',(18.065290749955,3.859384733776));
#543 = CARTESIAN_POINT('',(18.65367533272,4.197914430429));
#544 = CARTESIAN_POINT('',(19.248091844539,4.525857071909));
#545 = CARTESIAN_POINT('',(19.847808099324,4.844020498609));
#546 = CARTESIAN_POINT('',(20.452193018069,5.153146803764));
#547 = CARTESIAN_POINT('',(21.060710917575,5.453923057125));
#548 = CARTESIAN_POINT('',(21.672917786035,5.746988398194));
#549 = CARTESIAN_POINT('',(23.773297646129,6.722717052132));
#550 = CARTESIAN_POINT('',(25.277010305846,7.370842054234));
#551 = CARTESIAN_POINT('',(26.794845712684,7.985828799622));
#552 = CARTESIAN_POINT('',(28.323334190461,8.573849621196));
#553 = CARTESIAN_POINT('',(29.85993513037,9.139634631143));
#554 = CARTESIAN_POINT('',(31.402955304625,9.686689775071));
#555 = CARTESIAN_POINT('',(32.951429324153,10.217601783398));
#556 = CARTESIAN_POINT('',(35.278682756283,10.991414916504));
#557 = CARTESIAN_POINT('',(36.053490240962,11.245061199902));
#558 = CARTESIAN_POINT('',(36.829399334579,11.49533352055));
#559 = CARTESIAN_POINT('',(37.606341048426,11.742388102197));
#560 = CARTESIAN_POINT('',(38.384263259762,11.986333878407));
#561 = CARTESIAN_POINT('',(39.163129174434,12.227237332688));
#562 = CARTESIAN_POINT('',(39.942915789499,12.465127338623));
#563 = CARTESIAN_POINT('',(40.723612355837,12.7));
#564 = ( GEOMETRIC_REPRESENTATION_CONTEXT(2) 
PARAMETRIC_REPRESENTATION_CONTEXT() REPRESENTATION_CONTEXT('2D SPACE',''
  ) );
#565 = PCURVE('',#138,#566);
#566 = DEFINITIONAL_REPRESENTATION('',(#567),#598);
#567 = B_SPLINE_CURVE_WITH_KNOTS('',8,(#568,#569,#570,#571,#572,#573,
    #574,#575,#576,#577,#578,#579,#580,#581,#582,#583,#584,#585,#586,
    #587,#588,#589,#590,#591,#592,#593,#594,#595,#596,#597),
  .UNSPECIFIED.,.F.,.F.,(9,7,7,7,9),(0.,0.191483772396,0.366737572124,
    0.789492836293,1.),.UNSPECIFIED.);
#568 = CARTESIAN_POINT('',(0.17293859222,0.213827421105));
#569 = CARTESIAN_POINT('',(0.168748422012,0.219062127055));
#570 = CARTESIAN_POINT('',(0.16470150297,0.224479866202));
#571 = CARTESIAN_POINT('',(0.16078911325,0.230054797368));
#572 = CARTESIAN_POINT('',(0.157003279752,0.235764572971));
#573 = CARTESIAN_POINT('',(0.153336424594,0.241590110833));
#574 = CARTESIAN_POINT('',(0.149781195807,0.247515551449));
#575 = CARTESIAN_POINT('',(0.146330385028,0.25352828122));
#576 = CARTESIAN_POINT('',(0.139907528524,0.265193288188));
#577 = CARTESIAN_POINT('',(0.136920261304,0.270831889452));
#578 = CARTESIAN_POINT('',(0.134009849964,0.27652682607));
#579 = CARTESIAN_POINT('',(0.131171735172,0.282271281707));
#580 = CARTESIAN_POINT('',(0.128401819523,0.288059418917));
#581 = CARTESIAN_POINT('',(0.125696345296,0.293886316032));
#582 = CARTESIAN_POINT('',(0.123051812115,0.299747925597));
#583 = CARTESIAN_POINT('',(0.11422474948,0.31985673021));
#584 = CARTESIAN_POINT('',(0.108322281596,0.334250730869));
#585 = CARTESIAN_POINT('',(0.102709936357,0.348780325707));
#586 = CARTESIAN_POINT('',(9.735491996445E-02,0.363414812839));
#587 = CARTESIAN_POINT('',(9.223081076348E-02,0.378131876383));
#588 = CARTESIAN_POINT('',(8.731551904966E-02,0.392916764145));
#589 = CARTESIAN_POINT('',(8.258930313763E-02,0.40776117391));
#590 = CARTESIAN_POINT('',(7.576584265882E-02,0.430082888546));
#591 = CARTESIAN_POINT('',(7.354026787292E-02,0.437516315172));
#592 = CARTESIAN_POINT('',(7.135525605139E-02,0.444962272062));
#593 = CARTESIAN_POINT('',(6.920884846233E-02,0.45242012506));
#594 = CARTESIAN_POINT('',(6.709920325716E-02,0.459889372532));
#595 = CARTESIAN_POINT('',(6.502457492743E-02,0.467369631957));
#596 = CARTESIAN_POINT('',(6.298329376151E-02,0.4748606265));
#597 = CARTESIAN_POINT('',(6.097374530138E-02,0.482362171601));
#598 = ( GEOMETRIC_REPRESENTATION_CONTEXT(2) 
PARAMETRIC_REPRESENTATION_CONTEXT() REPRESENTATION_CONTEXT('2D SPACE',''
  ) );
#599 = ORIENTED_EDGE('',*,*,#241,.T.);
#600 = ORIENTED_EDGE('',*,*,#270,.T.);
#601 = ADVANCED_FACE('',(#602),#138,.T.);
#602 = FACE_BOUND('',#603,.T.);
#603 = EDGE_LOOP('',(#604,#729,#755,#836,#837));
#604 = ORIENTED_EDGE('',*,*,#605,.T.);
#605 = EDGE_CURVE('',#476,#606,#608,.T.);
#606 = VERTEX_POINT('',#607);
#607 = CARTESIAN_POINT('',(22.35,-13.89070059257,-58.92220357737));
#608 = SURFACE_CURVE('',#609,(#647,#688),.PCURVE_S1.);
#609 = B_SPLINE_CURVE_WITH_KNOTS('',8,(#610,#611,#612,#613,#614,#615,
    #616,#617,#618,#619,#620,#621,#622,#623,#624,#625,#626,#627,#628,
    #629,#630,#631,#632,#633,#634,#635,#636,#637,#638,#639,#640,#641,
    #642,#643,#644,#645,#646),.UNSPECIFIED.,.F.,.F.,(9,7,7,7,7,9),(0.,
    0.255548402481,0.523475344444,0.774402207245,0.903840098165,1.),
  .UNSPECIFIED.);
#610 = CARTESIAN_POINT('',(22.35,-5.,-47.27638764416));
#611 = CARTESIAN_POINT('',(22.35,-5.222119568535,-47.70081988077));
#612 = CARTESIAN_POINT('',(22.35,-5.445905921149,-48.1243776033));
#613 = CARTESIAN_POINT('',(22.35,-5.671457244013,-48.54700252628));
#614 = CARTESIAN_POINT('',(22.35,-5.898884669322,-48.9686253053));
#615 = CARTESIAN_POINT('',(22.35,-6.128314151418,-49.38916452832));
#616 = CARTESIAN_POINT('',(22.35,-6.359891181696,-49.80852414769));
#617 = CARTESIAN_POINT('',(22.35,-6.593788342326,-50.22658935292));
#618 = CARTESIAN_POINT('',(22.35,-7.078095388044,-51.08003367988));
#619 = CARTESIAN_POINT('',(22.35,-7.328746915624,-51.51525405563));
#620 = CARTESIAN_POINT('',(22.35,-7.582421235637,-51.94873536829));
#621 = CARTESIAN_POINT('',(22.35,-7.839404662266,-52.38028626141));
#622 = CARTESIAN_POINT('',(22.35,-8.10004040449,-52.80965728727));
#623 = CARTESIAN_POINT('',(22.35,-8.364743444306,-53.23653189563));
#624 = CARTESIAN_POINT('',(22.35,-8.634042708697,-53.66050078504));
#625 = CARTESIAN_POINT('',(22.35,-9.165900124236,-54.47481567372));
#626 = CARTESIAN_POINT('',(22.35,-9.427666582056,-54.86537886678));
#627 = CARTESIAN_POINT('',(22.35,-9.694710827442,-55.25243026471));
#628 = CARTESIAN_POINT('',(22.35,-9.967868183705,-55.63540253095));
#629 = CARTESIAN_POINT('',(22.35,-10.24804340902,-56.01345903325));
#630 = CARTESIAN_POINT('',(22.35,-10.53656953802,-56.38520365291));
#631 = CARTESIAN_POINT('',(22.35,-10.83502592807,-56.74883275888));
#632 = CARTESIAN_POINT('',(22.35,-11.30774276796,-57.28246833135));
#633 = CARTESIAN_POINT('',(22.35,-11.47194946419,-57.46072725122));
#634 = CARTESIAN_POINT('',(22.35,-11.64012466453,-57.63538110629));
#635 = CARTESIAN_POINT('',(22.35,-11.81288766289,-57.80581584552));
#636 = CARTESIAN_POINT('',(22.35,-11.99084637595,-57.97109211602));
#637 = CARTESIAN_POINT('',(22.35,-12.17475818948,-58.12973947696));
#638 = CARTESIAN_POINT('',(22.35,-12.36548011899,-58.27983489777));
#639 = CARTESIAN_POINT('',(22.35,-12.71278885239,-58.52082622981));
#640 = CARTESIAN_POINT('',(22.35,-12.86490537674,-58.61657725314));
#641 = CARTESIAN_POINT('',(22.35,-13.02240070971,-58.70456253923));
#642 = CARTESIAN_POINT('',(22.35,-13.18595832686,-58.7827972827));
#643 = CARTESIAN_POINT('',(22.35,-13.3556177506,-58.84805108493));
#644 = CARTESIAN_POINT('',(22.35,-13.5307402197,-58.89622344416));
#645 = CARTESIAN_POINT('',(22.35,-13.70999305609,-58.92220357738));
#646 = CARTESIAN_POINT('',(22.35,-13.89070059257,-58.92220357737));
#647 = PCURVE('',#138,#648);
#648 = DEFINITIONAL_REPRESENTATION('',(#649),#687);
#649 = B_SPLINE_CURVE_WITH_KNOTS('',8,(#650,#651,#652,#653,#654,#655,
    #656,#657,#658,#659,#660,#661,#662,#663,#664,#665,#666,#667,#668,
    #669,#670,#671,#672,#673,#674,#675,#676,#677,#678,#679,#680,#681,
    #682,#683,#684,#685,#686),.UNSPECIFIED.,.F.,.F.,(9,7,7,7,7,9),(0.,
    0.255548402481,0.523475344444,0.774402207245,0.903840098165,1.),
  .UNSPECIFIED.);
#650 = CARTESIAN_POINT('',(6.097374530138E-02,0.482362171601));
#651 = CARTESIAN_POINT('',(5.981008342405E-02,0.478283893686));
#652 = CARTESIAN_POINT('',(5.862364587062E-02,0.474214552889));
#653 = CARTESIAN_POINT('',(5.741348763824E-02,0.470154719647));
#654 = CARTESIAN_POINT('',(5.617851258835E-02,0.466105067876));
#655 = CARTESIAN_POINT('',(5.491745080135E-02,0.462066384522));
#656 = CARTESIAN_POINT('',(5.362880303976E-02,0.45803959406));
#657 = CARTESIAN_POINT('',(5.231075231993E-02,0.45402579793));
#658 = CARTESIAN_POINT('',(4.954595411407E-02,0.445833129138));
#659 = CARTESIAN_POINT('',(4.809611926933E-02,0.441655836377));
#660 = CARTESIAN_POINT('',(4.660888344749E-02,0.437495853574));
#661 = CARTESIAN_POINT('',(4.508112328142E-02,0.43335500898));
#662 = CARTESIAN_POINT('',(4.350899436538E-02,0.429235683983));
#663 = CARTESIAN_POINT('',(4.188775551169E-02,0.425140899126));
#664 = CARTESIAN_POINT('',(4.021127534706E-02,0.421074559503));
#665 = CARTESIAN_POINT('',(3.684081094232E-02,0.413265425668));
#666 = CARTESIAN_POINT('',(3.51555383032E-02,0.409520480529));
#667 = CARTESIAN_POINT('',(3.340719901284E-02,0.405809676601));
#668 = CARTESIAN_POINT('',(3.158611414132E-02,0.402138428945));
#669 = CARTESIAN_POINT('',(2.968121953486E-02,0.398514730142));
#670 = CARTESIAN_POINT('',(2.767575169707E-02,0.394951927756));
#671 = CARTESIAN_POINT('',(2.55494180678E-02,0.391467267451));
#672 = CARTESIAN_POINT('',(2.207728039442E-02,0.386353914596));
#673 = CARTESIAN_POINT('',(2.085364556231E-02,0.384645905795));
#674 = CARTESIAN_POINT('',(1.958096901954E-02,0.382972520854));
#675 = CARTESIAN_POINT('',(1.825151637218E-02,0.381339635808));
#676 = CARTESIAN_POINT('',(1.685687587478E-02,0.379756242262));
#677 = CARTESIAN_POINT('',(1.538586158E-02,0.378236417604));
#678 = CARTESIAN_POINT('',(1.382519408403E-02,0.376798572379));
#679 = CARTESIAN_POINT('',(1.090472456314E-02,0.374490056841));
#680 = CARTESIAN_POINT('',(9.601819351495E-03,0.37357285845));
#681 = CARTESIAN_POINT('',(8.225857590771E-03,0.372730068139));
#682 = CARTESIAN_POINT('',(6.765228689583E-03,0.371980692288));
#683 = CARTESIAN_POINT('',(5.211899232441E-03,0.371355666966));
#684 = CARTESIAN_POINT('',(3.56265515235E-03,0.370894259499));
#685 = CARTESIAN_POINT('',(1.819158080178E-03,0.370645414956));
#686 = CARTESIAN_POINT('',(0.,0.370645414956));
#687 = ( GEOMETRIC_REPRESENTATION_CONTEXT(2) 
PARAMETRIC_REPRESENTATION_CONTEXT() REPRESENTATION_CONTEXT('2D SPACE',''
  ) );
#688 = PCURVE('',#460,#689);
#689 = DEFINITIONAL_REPRESENTATION('',(#690),#728);
#690 = B_SPLINE_CURVE_WITH_KNOTS('',8,(#691,#692,#693,#694,#695,#696,
    #697,#698,#699,#700,#701,#702,#703,#704,#705,#706,#707,#708,#709,
    #710,#711,#712,#713,#714,#715,#716,#717,#718,#719,#720,#721,#722,
    #723,#724,#725,#726,#727),.UNSPECIFIED.,.F.,.F.,(9,7,7,7,7,9),(0.,
    0.255548402481,0.523475344444,0.774402207245,0.903840098165,1.),
  .UNSPECIFIED.);
#691 = CARTESIAN_POINT('',(40.723612355837,-18.));
#692 = CARTESIAN_POINT('',(40.29918011923,-17.77788043146));
#693 = CARTESIAN_POINT('',(39.875622396696,-17.55409407885));
#694 = CARTESIAN_POINT('',(39.452997473718,-17.32854275598));
#695 = CARTESIAN_POINT('',(39.031374694699,-17.10111533067));
#696 = CARTESIAN_POINT('',(38.610835471678,-16.87168584858));
#697 = CARTESIAN_POINT('',(38.191475852308,-16.6401088183));
#698 = CARTESIAN_POINT('',(37.773410647075,-16.40621165767));
#699 = CARTESIAN_POINT('',(36.91996632012,-15.92190461195));
#700 = CARTESIAN_POINT('',(36.484745944363,-15.67125308437));
#701 = CARTESIAN_POINT('',(36.051264631702,-15.41757876436));
#702 = CARTESIAN_POINT('',(35.619713738589,-15.16059533773));
#703 = CARTESIAN_POINT('',(35.190342712725,-14.89995959551));
#704 = CARTESIAN_POINT('',(34.763468104368,-14.63525655569));
#705 = CARTESIAN_POINT('',(34.339499214954,-14.3659572913));
#706 = CARTESIAN_POINT('',(33.525184326274,-13.83409987576));
#707 = CARTESIAN_POINT('',(33.134621133213,-13.57233341794));
#708 = CARTESIAN_POINT('',(32.747569735289,-13.30528917255));
#709 = CARTESIAN_POINT('',(32.364597469046,-13.03213181629));
#710 = CARTESIAN_POINT('',(31.986540966742,-12.75195659097));
#711 = CARTESIAN_POINT('',(31.614796347086,-12.46343046197));
#712 = CARTESIAN_POINT('',(31.251167241115,-12.16497407192));
#713 = CARTESIAN_POINT('',(30.717531668649,-11.69225723203));
#714 = CARTESIAN_POINT('',(30.539272748778,-11.5280505358));
#715 = CARTESIAN_POINT('',(30.364618893704,-11.35987533546));
#716 = CARTESIAN_POINT('',(30.194184154475,-11.1871123371));
#717 = CARTESIAN_POINT('',(30.02890788398,-11.00915362404));
#718 = CARTESIAN_POINT('',(29.870260523034,-10.82524181052));
#719 = CARTESIAN_POINT('',(29.720165102221,-10.634519881));
#720 = CARTESIAN_POINT('',(29.479173770182,-10.2872111476));
#721 = CARTESIAN_POINT('',(29.38342274686,-10.13509462325));
#722 = CARTESIAN_POINT('',(29.295437460763,-9.977599290285));
#723 = CARTESIAN_POINT('',(29.217202717299,-9.814041673132));
#724 = CARTESIAN_POINT('',(29.151948915068,-9.644382249393));
#725 = CARTESIAN_POINT('',(29.103776555831,-9.469259780292));
#726 = CARTESIAN_POINT('',(29.07779642262,-9.290006943909));
#727 = CARTESIAN_POINT('',(29.077796422621,-9.109299407428));
#728 = ( GEOMETRIC_REPRESENTATION_CONTEXT(2) 
PARAMETRIC_REPRESENTATION_CONTEXT() REPRESENTATION_CONTEXT('2D SPACE',''
  ) );
#729 = ORIENTED_EDGE('',*,*,#730,.F.);
#730 = EDGE_CURVE('',#731,#606,#733,.T.);
#731 = VERTEX_POINT('',#732);
#732 = CARTESIAN_POINT('',(19.362696087725,-21.89794247714,-88.));
#733 = SURFACE_CURVE('',#734,(#741,#748),.PCURVE_S1.);
#734 = ( BOUNDED_CURVE() B_SPLINE_CURVE(5,(#735,#736,#737,#738,#739,#740
),.UNSPECIFIED.,.F.,.F.) B_SPLINE_CURVE_WITH_KNOTS((6,6),(0.,1.),
.PIECEWISE_BEZIER_KNOTS.) CURVE() GEOMETRIC_REPRESENTATION_ITEM() 
RATIONAL_B_SPLINE_CURVE((1.,1.,1.,1.,1.,1.)) REPRESENTATION_ITEM('') );
#735 = CARTESIAN_POINT('',(17.,-24.5,-97.));
#736 = CARTESIAN_POINT('',(24.695572997032,-19.3397591547,
    -77.51967133455));
#737 = CARTESIAN_POINT('',(15.196592142779,-9.442324537701,
    -55.11219644121));
#738 = CARTESIAN_POINT('',(31.729761407938,-12.34565689953,
    -35.33195450265));
#739 = CARTESIAN_POINT('',(28.25621735006,-2.109562729412,
    -14.41592287524));
#740 = CARTESIAN_POINT('',(30.,2.606519132579E-15,7.));
#741 = PCURVE('',#138,#742);
#742 = DEFINITIONAL_REPRESENTATION('',(#743),#747);
#743 = LINE('',#744,#745);
#744 = CARTESIAN_POINT('',(0.,0.));
#745 = VECTOR('',#746,1.);
#746 = DIRECTION('',(0.,1.));
#747 = ( GEOMETRIC_REPRESENTATION_CONTEXT(2) 
PARAMETRIC_REPRESENTATION_CONTEXT() REPRESENTATION_CONTEXT('2D SPACE',''
  ) );
#748 = PCURVE('',#343,#749);
#749 = DEFINITIONAL_REPRESENTATION('',(#750),#754);
#750 = LINE('',#751,#752);
#751 = CARTESIAN_POINT('',(1.,0.));
#752 = VECTOR('',#753,1.);
#753 = DIRECTION('',(0.,1.));
#754 = ( GEOMETRIC_REPRESENTATION_CONTEXT(2) 
PARAMETRIC_REPRESENTATION_CONTEXT() REPRESENTATION_CONTEXT('2D SPACE',''
  ) );
#755 = ORIENTED_EDGE('',*,*,#756,.F.);
#756 = EDGE_CURVE('',#85,#731,#757,.T.);
#757 = SURFACE_CURVE('',#758,(#782,#809),.PCURVE_S1.);
#758 = B_SPLINE_CURVE_WITH_KNOTS('',8,(#759,#760,#761,#762,#763,#764,
    #765,#766,#767,#768,#769,#770,#771,#772,#773,#774,#775,#776,#777,
    #778,#779,#780,#781),.UNSPECIFIED.,.F.,.F.,(9,7,7,9),(0.,
    0.536442191188,0.708697528544,1.),.UNSPECIFIED.);
#759 = CARTESIAN_POINT('',(9.65,-9.950135914377,-88.));
#760 = CARTESIAN_POINT('',(10.663570951965,-10.36484329067,-88.));
#761 = CARTESIAN_POINT('',(11.653094787561,-10.83594326741,-88.));
#762 = CARTESIAN_POINT('',(12.614835735453,-11.36560220457,-88.));
#763 = CARTESIAN_POINT('',(13.542748316959,-11.95612745512,-88.));
#764 = CARTESIAN_POINT('',(14.428773864521,-12.60952264452,-88.));
#765 = CARTESIAN_POINT('',(15.262986040904,-13.32724815758,-88.));
#766 = CARTESIAN_POINT('',(16.033796975298,-14.10992136181,-88.));
#767 = CARTESIAN_POINT('',(16.950763586263,-15.22948110707,-88.));
#768 = CARTESIAN_POINT('',(17.165632378428,-15.50815929187,-88.));
#769 = CARTESIAN_POINT('',(17.372020275363,-15.79332723622,-88.));
#770 = CARTESIAN_POINT('',(17.569429595717,-16.08487880086,-88.));
#771 = CARTESIAN_POINT('',(17.757343750212,-16.38266702018,-88.));
#772 = CARTESIAN_POINT('',(17.935234962781,-16.68649910885,-88.));
#773 = CARTESIAN_POINT('',(18.102573607296,-16.99613047621,-88.));
#774 = CARTESIAN_POINT('',(18.523101169758,-17.8441721685,-88.));
#775 = CARTESIAN_POINT('',(18.755834212505,-18.39308306635,-88.));
#776 = CARTESIAN_POINT('',(18.954290663178,-18.95620195874,-88.));
#777 = CARTESIAN_POINT('',(19.116011824124,-19.53141091345,-88.));
#778 = CARTESIAN_POINT('',(19.238924899355,-20.11624230465,-88.));
#779 = CARTESIAN_POINT('',(19.321454595548,-20.70785476325,-88.));
#780 = CARTESIAN_POINT('',(19.362696087725,-21.30299591224,-88.));
#781 = CARTESIAN_POINT('',(19.362696087725,-21.89794247714,-88.));
#782 = PCURVE('',#138,#783);
#783 = DEFINITIONAL_REPRESENTATION('',(#784),#808);
#784 = B_SPLINE_CURVE_WITH_KNOTS('',8,(#785,#786,#787,#788,#789,#790,
    #791,#792,#793,#794,#795,#796,#797,#798,#799,#800,#801,#802,#803,
    #804,#805,#806,#807),.UNSPECIFIED.,.F.,.F.,(9,7,7,9),(0.,
    0.536442191188,0.708697528544,1.),.UNSPECIFIED.);
#785 = CARTESIAN_POINT('',(0.166964038759,9.033776740547E-02));
#786 = CARTESIAN_POINT('',(0.157354327417,9.033776740547E-02));
#787 = CARTESIAN_POINT('',(0.147591402495,9.033776740547E-02));
#788 = CARTESIAN_POINT('',(0.137636046961,9.033776740547E-02));
#789 = CARTESIAN_POINT('',(0.127457468293,9.033776740547E-02));
#790 = CARTESIAN_POINT('',(0.117029570541,9.033776740547E-02));
#791 = CARTESIAN_POINT('',(0.106327972557,9.033776740547E-02));
#792 = CARTESIAN_POINT('',(9.532828340031E-02,9.033776740547E-02));
#793 = CARTESIAN_POINT('',(8.036240901472E-02,9.033776740547E-02));
#794 = CARTESIAN_POINT('',(7.669252853138E-02,9.033776740547E-02));
#795 = CARTESIAN_POINT('',(7.299011027813E-02,9.033776740547E-02));
#796 = CARTESIAN_POINT('',(6.925516345317E-02,9.033776740547E-02));
#797 = CARTESIAN_POINT('',(6.548795723567E-02,9.033776740547E-02));
#798 = CARTESIAN_POINT('',(6.168904378013E-02,9.033776740547E-02));
#799 = CARTESIAN_POINT('',(5.785930169423E-02,9.033776740547E-02));
#800 = CARTESIAN_POINT('',(4.747350196007E-02,9.033776740547E-02));
#801 = CARTESIAN_POINT('',(4.085905029586E-02,9.033776740547E-02));
#802 = CARTESIAN_POINT('',(3.416692045915E-02,9.033776740547E-02));
#803 = CARTESIAN_POINT('',(2.740827196768E-02,9.033776740547E-02));
#804 = CARTESIAN_POINT('',(2.059569150545E-02,9.033776740547E-02));
#805 = CARTESIAN_POINT('',(1.374386895487E-02,9.033776740547E-02));
#806 = CARTESIAN_POINT('',(6.870811382516E-03,9.033776740547E-02));
#807 = CARTESIAN_POINT('',(0.,9.033776740547E-02));
#808 = ( GEOMETRIC_REPRESENTATION_CONTEXT(2) 
PARAMETRIC_REPRESENTATION_CONTEXT() REPRESENTATION_CONTEXT('2D SPACE',''
  ) );
#809 = PCURVE('',#100,#810);
#810 = DEFINITIONAL_REPRESENTATION('',(#811),#835);
#811 = B_SPLINE_CURVE_WITH_KNOTS('',8,(#812,#813,#814,#815,#816,#817,
    #818,#819,#820,#821,#822,#823,#824,#825,#826,#827,#828,#829,#830,
    #831,#832,#833,#834),.UNSPECIFIED.,.F.,.F.,(9,7,7,9),(0.,
    0.536442191188,0.708697528544,1.),.UNSPECIFIED.);
#812 = CARTESIAN_POINT('',(0.,13.049864085623));
#813 = CARTESIAN_POINT('',(1.013570951965,12.63515670933));
#814 = CARTESIAN_POINT('',(2.003094787561,12.164056732586));
#815 = CARTESIAN_POINT('',(2.964835735453,11.634397795426));
#816 = CARTESIAN_POINT('',(3.892748316959,11.043872544872));
#817 = CARTESIAN_POINT('',(4.778773864521,10.390477355473));
#818 = CARTESIAN_POINT('',(5.612986040904,9.672751842417));
#819 = CARTESIAN_POINT('',(6.383796975298,8.890078638182));
#820 = CARTESIAN_POINT('',(7.300763586263,7.770518892922));
#821 = CARTESIAN_POINT('',(7.515632378428,7.491840708121));
#822 = CARTESIAN_POINT('',(7.722020275363,7.206672763777));
#823 = CARTESIAN_POINT('',(7.919429595717,6.915121199138));
#824 = CARTESIAN_POINT('',(8.107343750212,6.617332979817));
#825 = CARTESIAN_POINT('',(8.285234962781,6.313500891145));
#826 = CARTESIAN_POINT('',(8.452573607296,6.003869523787));
#827 = CARTESIAN_POINT('',(8.873101169758,5.155827831497));
#828 = CARTESIAN_POINT('',(9.105834212505,4.606916933646));
#829 = CARTESIAN_POINT('',(9.304290663178,4.043798041255));
#830 = CARTESIAN_POINT('',(9.466011824124,3.468589086544));
#831 = CARTESIAN_POINT('',(9.588924899355,2.883757695343));
#832 = CARTESIAN_POINT('',(9.671454595548,2.292145236745));
#833 = CARTESIAN_POINT('',(9.712696087725,1.697004087754));
#834 = CARTESIAN_POINT('',(9.712696087725,1.102057522857));
#835 = ( GEOMETRIC_REPRESENTATION_CONTEXT(2) 
PARAMETRIC_REPRESENTATION_CONTEXT() REPRESENTATION_CONTEXT('2D SPACE',''
  ) );
#836 = ORIENTED_EDGE('',*,*,#112,.T.);
#837 = ORIENTED_EDGE('',*,*,#498,.T.);
#838 = ADVANCED_FACE('',(#839),#100,.F.);
#839 = FACE_BOUND('',#840,.F.);
#840 = EDGE_LOOP('',(#841,#842,#865,#892));
#841 = ORIENTED_EDGE('',*,*,#84,.F.);
#842 = ORIENTED_EDGE('',*,*,#843,.T.);
#843 = EDGE_CURVE('',#57,#844,#846,.T.);
#844 = VERTEX_POINT('',#845);
#845 = CARTESIAN_POINT('',(19.3006863104,-23.,-88.));
#846 = SURFACE_CURVE('',#847,(#851,#858),.PCURVE_S1.);
#847 = LINE('',#848,#849);
#848 = CARTESIAN_POINT('',(9.65,-23.,-88.));
#849 = VECTOR('',#850,1.);
#850 = DIRECTION('',(1.,0.,0.));
#851 = PCURVE('',#100,#852);
#852 = DEFINITIONAL_REPRESENTATION('',(#853),#857);
#853 = LINE('',#854,#855);
#854 = CARTESIAN_POINT('',(0.,0.));
#855 = VECTOR('',#856,1.);
#856 = DIRECTION('',(1.,0.));
#857 = ( GEOMETRIC_REPRESENTATION_CONTEXT(2) 
PARAMETRIC_REPRESENTATION_CONTEXT() REPRESENTATION_CONTEXT('2D SPACE',''
  ) );
#858 = PCURVE('',#72,#859);
#859 = DEFINITIONAL_REPRESENTATION('',(#860),#864);
#860 = LINE('',#861,#862);
#861 = CARTESIAN_POINT('',(0.,0.));
#862 = VECTOR('',#863,1.);
#863 = DIRECTION('',(0.,1.));
#864 = ( GEOMETRIC_REPRESENTATION_CONTEXT(2) 
PARAMETRIC_REPRESENTATION_CONTEXT() REPRESENTATION_CONTEXT('2D SPACE',''
  ) );
#865 = ORIENTED_EDGE('',*,*,#866,.F.);
#866 = EDGE_CURVE('',#731,#844,#867,.T.);
#867 = SURFACE_CURVE('',#868,(#874,#883),.PCURVE_S1.);
#868 = B_SPLINE_CURVE_WITH_KNOTS('',4,(#869,#870,#871,#872,#873),
  .UNSPECIFIED.,.F.,.F.,(5,5),(0.,1.),.PIECEWISE_BEZIER_KNOTS.);
#869 = CARTESIAN_POINT('',(19.362696087725,-21.89794247714,-88.));
#870 = CARTESIAN_POINT('',(19.362696087725,-22.17403749993,-88.));
#871 = CARTESIAN_POINT('',(19.352333972108,-22.45013345259,-88.));
#872 = CARTESIAN_POINT('',(19.331610602944,-22.72564254438,-88.));
#873 = CARTESIAN_POINT('',(19.3006863104,-23.,-88.));
#874 = PCURVE('',#100,#875);
#875 = DEFINITIONAL_REPRESENTATION('',(#876),#882);
#876 = B_SPLINE_CURVE_WITH_KNOTS('',4,(#877,#878,#879,#880,#881),
  .UNSPECIFIED.,.F.,.F.,(5,5),(0.,1.),.PIECEWISE_BEZIER_KNOTS.);
#877 = CARTESIAN_POINT('',(9.712696087725,1.102057522857));
#878 = CARTESIAN_POINT('',(9.712696087725,0.825962500065));
#879 = CARTESIAN_POINT('',(9.702333972108,0.549866547406));
#880 = CARTESIAN_POINT('',(9.681610602944,0.274357455615));
#881 = CARTESIAN_POINT('',(9.6506863104,0.));
#882 = ( GEOMETRIC_REPRESENTATION_CONTEXT(2) 
PARAMETRIC_REPRESENTATION_CONTEXT() REPRESENTATION_CONTEXT('2D SPACE',''
  ) );
#883 = PCURVE('',#343,#884);
#884 = DEFINITIONAL_REPRESENTATION('',(#885),#891);
#885 = B_SPLINE_CURVE_WITH_KNOTS('',4,(#886,#887,#888,#889,#890),
  .UNSPECIFIED.,.F.,.F.,(5,5),(0.,1.),.PIECEWISE_BEZIER_KNOTS.);
#886 = CARTESIAN_POINT('',(1.,9.033776740547E-02));
#887 = CARTESIAN_POINT('',(0.996811483691,9.033776740547E-02));
#888 = CARTESIAN_POINT('',(0.993622960534,9.033776740547E-02));
#889 = CARTESIAN_POINT('',(0.990437782927,9.033776740547E-02));
#890 = CARTESIAN_POINT('',(0.987259153507,9.033776740547E-02));
#891 = ( GEOMETRIC_REPRESENTATION_CONTEXT(2) 
PARAMETRIC_REPRESENTATION_CONTEXT() REPRESENTATION_CONTEXT('2D SPACE',''
  ) );
#892 = ORIENTED_EDGE('',*,*,#756,.F.);
#893 = ADVANCED_FACE('',(#894),#72,.F.);
#894 = FACE_BOUND('',#895,.F.);
#895 = EDGE_LOOP('',(#896,#897,#898,#899));
#896 = ORIENTED_EDGE('',*,*,#843,.F.);
#897 = ORIENTED_EDGE('',*,*,#56,.T.);
#898 = ORIENTED_EDGE('',*,*,#294,.T.);
#899 = ORIENTED_EDGE('',*,*,#900,.T.);
#900 = EDGE_CURVE('',#295,#844,#901,.T.);
#901 = SURFACE_CURVE('',#902,(#989,#1079),.PCURVE_S1.);
#902 = B_SPLINE_CURVE_WITH_KNOTS('',8,(#903,#904,#905,#906,#907,#908,
    #909,#910,#911,#912,#913,#914,#915,#916,#917,#918,#919,#920,#921,
    #922,#923,#924,#925,#926,#927,#928,#929,#930,#931,#932,#933,#934,
    #935,#936,#937,#938,#939,#940,#941,#942,#943,#944,#945,#946,#947,
    #948,#949,#950,#951,#952,#953,#954,#955,#956,#957,#958,#959,#960,
    #961,#962,#963,#964,#965,#966,#967,#968,#969,#970,#971,#972,#973,
    #974,#975,#976,#977,#978,#979,#980,#981,#982,#983,#984,#985,#986,
    #987,#988),.UNSPECIFIED.,.F.,.F.,(9,7,7,7,7,7,7,7,7,7,7,7,9),(0.,
    0.235474171735,0.32539521416,0.363485689126,0.397019629757,
    0.430575188369,0.514590528193,0.623317495401,0.667773549416,
    0.703021391119,0.781030685207,0.925048088823,1.),.UNSPECIFIED.);
#903 = CARTESIAN_POINT('',(13.821967949067,-23.,-20.));
#904 = CARTESIAN_POINT('',(14.380100510243,-23.,-21.93440779204));
#905 = CARTESIAN_POINT('',(14.860287369896,-23.,-23.89089976616));
#906 = CARTESIAN_POINT('',(15.270089771175,-23.,-25.86385488926));
#907 = CARTESIAN_POINT('',(15.617205512309,-23.,-27.84869018165));
#908 = CARTESIAN_POINT('',(15.910418153784,-23.,-29.8416628831));
#909 = CARTESIAN_POINT('',(16.159040726492,-23.,-31.83995215809));
#910 = CARTESIAN_POINT('',(16.372351385309,-23.,-33.84173637978));
#911 = CARTESIAN_POINT('',(16.630322954022,-23.,-36.61176610201));
#912 = CARTESIAN_POINT('',(16.697724648762,-23.,-37.37760602915));
#913 = CARTESIAN_POINT('',(16.761721664754,-23.,-38.14374126273));
#914 = CARTESIAN_POINT('',(16.822782796698,-23.,-38.91011564984));
#915 = CARTESIAN_POINT('',(16.881359372394,-23.,-39.67668047068));
#916 = CARTESIAN_POINT('',(16.937881534537,-23.,-40.44339473045));
#917 = CARTESIAN_POINT('',(16.992754522501,-23.,-41.21022545119));
#918 = CARTESIAN_POINT('',(17.069060050121,-23.,-42.30201566947));
#919 = CARTESIAN_POINT('',(17.091536740796,-23.,-42.62689930851));
#920 = CARTESIAN_POINT('',(17.113813729751,-23.,-42.95179672512));
#921 = CARTESIAN_POINT('',(17.135918725763,-23.,-43.2767058812));
#922 = CARTESIAN_POINT('',(17.157878442798,-23.,-43.60162485618));
#923 = CARTESIAN_POINT('',(17.179718600011,-23.,-43.92655184704));
#924 = CARTESIAN_POINT('',(17.201463921747,-23.,-44.2514851683));
#925 = CARTESIAN_POINT('',(17.242219597302,-23.,-44.86249094787));
#926 = CARTESIAN_POINT('',(17.261245901107,-23.,-45.14856231207));
#927 = CARTESIAN_POINT('',(17.280233220617,-23.,-45.43463626489));
#928 = CARTESIAN_POINT('',(17.299197055443,-23.,-45.7207117733));
#929 = CARTESIAN_POINT('',(17.318152233147,-23.,-46.00678785098));
#930 = CARTESIAN_POINT('',(17.337112909233,-23.,-46.29286355829));
#931 = CARTESIAN_POINT('',(17.356092567154,-23.,-46.5789380023));
#932 = CARTESIAN_POINT('',(17.394127725382,-23.,-47.15126709055));
#933 = CARTESIAN_POINT('',(17.41318324333,-23.,-47.43752172427));
#934 = CARTESIAN_POINT('',(17.432283399479,-23.,-47.72377338534));
#935 = CARTESIAN_POINT('',(17.451440300977,-23.,-48.01002125862));
#936 = CARTESIAN_POINT('',(17.470665334793,-23.,-48.29626456646));
#937 = CARTESIAN_POINT('',(17.489969167716,-23.,-48.58250256869));
#938 = CARTESIAN_POINT('',(17.509361746359,-23.,-48.86873456262));
#939 = CARTESIAN_POINT('',(17.57765211799,-23.,-49.87160173177));
#940 = CARTESIAN_POINT('',(17.627066050018,-23.,-50.58820201565));
#941 = CARTESIAN_POINT('',(17.677238801589,-23.,-51.3047498983));
#942 = CARTESIAN_POINT('',(17.728285817705,-23.,-52.02123626906));
#943 = CARTESIAN_POINT('',(17.780293280023,-23.,-52.73765374303));
#944 = CARTESIAN_POINT('',(17.83331810685,-23.,-53.45399666104));
#945 = CARTESIAN_POINT('',(17.887387953149,-23.,-54.17026108965));
#946 = CARTESIAN_POINT('',(18.013825058541,-23.,-55.81328134002));
#947 = CARTESIAN_POINT('',(18.08689677487,-23.,-56.73998426529));
#948 = CARTESIAN_POINT('',(18.161713558561,-23.,-57.66654836835));
#949 = CARTESIAN_POINT('',(18.238192241876,-23.,-58.59297630455));
#950 = CARTESIAN_POINT('',(18.316171508594,-23.,-59.51927842935));
#951 = CARTESIAN_POINT('',(18.395414112314,-23.,-60.4454726143));
#952 = CARTESIAN_POINT('',(18.475609094754,-23.,-61.37158406317));
#953 = CARTESIAN_POINT('',(18.589396990549,-23.,-62.67629103135));
#954 = CARTESIAN_POINT('',(18.622515248457,-23.,-63.05492858587));
#955 = CARTESIAN_POINT('',(18.655702609607,-23.,-63.43356007486));
#956 = CARTESIAN_POINT('',(18.688930892606,-23.,-63.81218796052));
#957 = CARTESIAN_POINT('',(18.722169902838,-23.,-64.19081488394));
#958 = CARTESIAN_POINT('',(18.755387432467,-23.,-64.56944366507));
#959 = CARTESIAN_POINT('',(18.78854926043,-23.,-64.94807730278));
#960 = CARTESIAN_POINT('',(18.847839255523,-23.,-65.62693234305));
#961 = CARTESIAN_POINT('',(18.874001552433,-23.,-65.92715073099));
#962 = CARTESIAN_POINT('',(18.900087993487,-23.,-66.22737572331));
#963 = CARTESIAN_POINT('',(18.926079713329,-23.,-66.52760894229));
#964 = CARTESIAN_POINT('',(18.951957030933,-23.,-66.82785204773));
#965 = CARTESIAN_POINT('',(18.977699449601,-23.,-67.12810673696));
#966 = CARTESIAN_POINT('',(19.003285656964,-23.,-67.42837474488));
#967 = CARTESIAN_POINT('',(19.084925332462,-23.,-68.39323392714));
#968 = CARTESIAN_POINT('',(19.140283492325,-23.,-69.05788216295));
#969 = CARTESIAN_POINT('',(19.194527910747,-23.,-69.72262384329));
#970 = CARTESIAN_POINT('',(19.247398622079,-23.,-70.3874786458));
#971 = CARTESIAN_POINT('',(19.298614757273,-23.,-71.05246471247));
#972 = CARTESIAN_POINT('',(19.34787351232,-23.,-71.7175987283));
#973 = CARTESIAN_POINT('',(19.394849116682,-23.,-72.38289599994));
#974 = CARTESIAN_POINT('',(19.521055359684,-23.,-74.27694099811));
#975 = CARTESIAN_POINT('',(19.593937385788,-23.,-75.50599916746));
#976 = CARTESIAN_POINT('',(19.655646263685,-23.,-76.735762957));
#977 = CARTESIAN_POINT('',(19.703696058767,-23.,-77.9662819228));
#978 = CARTESIAN_POINT('',(19.735274375542,-23.,-79.19743822215));
#979 = CARTESIAN_POINT('',(19.747217870296,-23.,-80.42894747844));
#980 = CARTESIAN_POINT('',(19.735995419048,-23.,-81.66035955094));
#981 = CARTESIAN_POINT('',(19.677768056294,-23.,-83.53156021296));
#982 = CARTESIAN_POINT('',(19.65050547826,-23.,-84.17182502487));
#983 = CARTESIAN_POINT('',(19.615362655787,-23.,-84.81175047936));
#984 = CARTESIAN_POINT('',(19.571765927459,-23.,-85.45119494112));
#985 = CARTESIAN_POINT('',(19.519119074302,-23.,-86.08997851773));
#986 = CARTESIAN_POINT('',(19.45680785437,-23.,-86.72788342859));
#987 = CARTESIAN_POINT('',(19.38420651895,-23.,-87.3646545305));
#988 = CARTESIAN_POINT('',(19.3006863104,-23.,-88.));
#989 = PCURVE('',#72,#990);
#990 = DEFINITIONAL_REPRESENTATION('',(#991),#1078);
#991 = B_SPLINE_CURVE_WITH_KNOTS('',8,(#992,#993,#994,#995,#996,#997,
    #998,#999,#1000,#1001,#1002,#1003,#1004,#1005,#1006,#1007,#1008,
    #1009,#1010,#1011,#1012,#1013,#1014,#1015,#1016,#1017,#1018,#1019,
    #1020,#1021,#1022,#1023,#1024,#1025,#1026,#1027,#1028,#1029,#1030,
    #1031,#1032,#1033,#1034,#1035,#1036,#1037,#1038,#1039,#1040,#1041,
    #1042,#1043,#1044,#1045,#1046,#1047,#1048,#1049,#1050,#1051,#1052,
    #1053,#1054,#1055,#1056,#1057,#1058,#1059,#1060,#1061,#1062,#1063,
    #1064,#1065,#1066,#1067,#1068,#1069,#1070,#1071,#1072,#1073,#1074,
    #1075,#1076,#1077),.UNSPECIFIED.,.F.,.F.,(9,7,7,7,7,7,7,7,7,7,7,7,9)
  ,(0.,0.235474171735,0.32539521416,0.363485689126,0.397019629757,
    0.430575188369,0.514590528193,0.623317495401,0.667773549416,
    0.703021391119,0.781030685207,0.925048088823,1.),.UNSPECIFIED.);
#992 = CARTESIAN_POINT('',(68.,4.171967949067));
#993 = CARTESIAN_POINT('',(66.065592207956,4.730100510243));
#994 = CARTESIAN_POINT('',(64.109100233838,5.210287369896));
#995 = CARTESIAN_POINT('',(62.136145110733,5.620089771175));
#996 = CARTESIAN_POINT('',(60.15130981835,5.967205512309));
#997 = CARTESIAN_POINT('',(58.1583371169,6.260418153784));
#998 = CARTESIAN_POINT('',(56.160047841903,6.509040726492));
#999 = CARTESIAN_POINT('',(54.15826362022,6.722351385309));
#1000 = CARTESIAN_POINT('',(51.388233897984,6.980322954022));
#1001 = CARTESIAN_POINT('',(50.622393970846,7.047724648762));
#1002 = CARTESIAN_POINT('',(49.856258737264,7.111721664754));
#1003 = CARTESIAN_POINT('',(49.089884350156,7.172782796698));
#1004 = CARTESIAN_POINT('',(48.323319529314,7.231359372394));
#1005 = CARTESIAN_POINT('',(47.556605269543,7.287881534537));
#1006 = CARTESIAN_POINT('',(46.789774548808,7.342754522501));
#1007 = CARTESIAN_POINT('',(45.697984330529,7.419060050121));
#1008 = CARTESIAN_POINT('',(45.373100691482,7.441536740796));
#1009 = CARTESIAN_POINT('',(45.048203274873,7.463813729751));
#1010 = CARTESIAN_POINT('',(44.723294118798,7.485918725763));
#1011 = CARTESIAN_POINT('',(44.398375143817,7.507878442798));
#1012 = CARTESIAN_POINT('',(44.073448152954,7.529718600011));
#1013 = CARTESIAN_POINT('',(43.748514831693,7.551463921747));
#1014 = CARTESIAN_POINT('',(43.137509052125,7.592219597302));
#1015 = CARTESIAN_POINT('',(42.851437687926,7.611245901107));
#1016 = CARTESIAN_POINT('',(42.565363735108,7.630233220617));
#1017 = CARTESIAN_POINT('',(42.279288226696,7.649197055443));
#1018 = CARTESIAN_POINT('',(41.993212149018,7.668152233147));
#1019 = CARTESIAN_POINT('',(41.707136441707,7.687112909233));
#1020 = CARTESIAN_POINT('',(41.4210619977,7.706092567154));
#1021 = CARTESIAN_POINT('',(40.848732909448,7.744127725382));
#1022 = CARTESIAN_POINT('',(40.562478275721,7.76318324333));
#1023 = CARTESIAN_POINT('',(40.276226614655,7.782283399479));
#1024 = CARTESIAN_POINT('',(39.989978741377,7.801440300977));
#1025 = CARTESIAN_POINT('',(39.703735433536,7.820665334793));
#1026 = CARTESIAN_POINT('',(39.417497431305,7.839969167716));
#1027 = CARTESIAN_POINT('',(39.131265437379,7.859361746359));
#1028 = CARTESIAN_POINT('',(38.128398268226,7.92765211799));
#1029 = CARTESIAN_POINT('',(37.411797984341,7.977066050018));
#1030 = CARTESIAN_POINT('',(36.695250101697,8.027238801589));
#1031 = CARTESIAN_POINT('',(35.978763730938,8.078285817705));
#1032 = CARTESIAN_POINT('',(35.262346256968,8.130293280023));
#1033 = CARTESIAN_POINT('',(34.546003338959,8.18331810685));
#1034 = CARTESIAN_POINT('',(33.829738910344,8.237387953149));
#1035 = CARTESIAN_POINT('',(32.186718659976,8.363825058541));
#1036 = CARTESIAN_POINT('',(31.260015734703,8.43689677487));
#1037 = CARTESIAN_POINT('',(30.333451631648,8.511713558561));
#1038 = CARTESIAN_POINT('',(29.407023695442,8.588192241876));
#1039 = CARTESIAN_POINT('',(28.480721570648,8.666171508594));
#1040 = CARTESIAN_POINT('',(27.554527385695,8.745414112314));
#1041 = CARTESIAN_POINT('',(26.628415936821,8.825609094754));
#1042 = CARTESIAN_POINT('',(25.323708968642,8.939396990549));
#1043 = CARTESIAN_POINT('',(24.945071414125,8.972515248457));
#1044 = CARTESIAN_POINT('',(24.566439925136,9.005702609607));
#1045 = CARTESIAN_POINT('',(24.187812039475,9.038930892606));
#1046 = CARTESIAN_POINT('',(23.809185116058,9.072169902838));
#1047 = CARTESIAN_POINT('',(23.430556334921,9.105387432467));
#1048 = CARTESIAN_POINT('',(23.05192269722,9.13854926043));
#1049 = CARTESIAN_POINT('',(22.373067656948,9.197839255523));
#1050 = CARTESIAN_POINT('',(22.072849269009,9.224001552433));
#1051 = CARTESIAN_POINT('',(21.772624276684,9.250087993487));
#1052 = CARTESIAN_POINT('',(21.472391057706,9.276079713329));
#1053 = CARTESIAN_POINT('',(21.17214795227,9.301957030933));
#1054 = CARTESIAN_POINT('',(20.871893263033,9.327699449601));
#1055 = CARTESIAN_POINT('',(20.571625255114,9.353285656964));
#1056 = CARTESIAN_POINT('',(19.60676607286,9.434925332462));
#1057 = CARTESIAN_POINT('',(18.942117837046,9.490283492325));
#1058 = CARTESIAN_POINT('',(18.277376156706,9.544527910747));
#1059 = CARTESIAN_POINT('',(17.612521354197,9.597398622079));
#1060 = CARTESIAN_POINT('',(16.947535287525,9.648614757273));
#1061 = CARTESIAN_POINT('',(16.282401271695,9.69787351232));
#1062 = CARTESIAN_POINT('',(15.617104000056,9.744849116682));
#1063 = CARTESIAN_POINT('',(13.723059001882,9.871055359684));
#1064 = CARTESIAN_POINT('',(12.494000832536,9.943937385788));
#1065 = CARTESIAN_POINT('',(11.264237042993,10.005646263685));
#1066 = CARTESIAN_POINT('',(10.033718077199,10.053696058767));
#1067 = CARTESIAN_POINT('',(8.802561777847,10.085274375542));
#1068 = CARTESIAN_POINT('',(7.571052521559,10.097217870296));
#1069 = CARTESIAN_POINT('',(6.339640449054,10.085995419048));
#1070 = CARTESIAN_POINT('',(4.468439787035,10.027768056294));
#1071 = CARTESIAN_POINT('',(3.828174975129,10.00050547826));
#1072 = CARTESIAN_POINT('',(3.188249520636,9.965362655787));
#1073 = CARTESIAN_POINT('',(2.548805058875,9.921765927459));
#1074 = CARTESIAN_POINT('',(1.910021482262,9.869119074302));
#1075 = CARTESIAN_POINT('',(1.272116571406,9.80680785437));
#1076 = CARTESIAN_POINT('',(0.635345469498,9.73420651895));
#1077 = CARTESIAN_POINT('',(0.,9.6506863104));
#1078 = ( GEOMETRIC_REPRESENTATION_CONTEXT(2) 
PARAMETRIC_REPRESENTATION_CONTEXT() REPRESENTATION_CONTEXT('2D SPACE',''
  ) );
#1079 = PCURVE('',#343,#1080);
#1080 = DEFINITIONAL_REPRESENTATION('',(#1081),#1168);
#1081 = B_SPLINE_CURVE_WITH_KNOTS('',8,(#1082,#1083,#1084,#1085,#1086,
    #1087,#1088,#1089,#1090,#1091,#1092,#1093,#1094,#1095,#1096,#1097,
    #1098,#1099,#1100,#1101,#1102,#1103,#1104,#1105,#1106,#1107,#1108,
    #1109,#1110,#1111,#1112,#1113,#1114,#1115,#1116,#1117,#1118,#1119,
    #1120,#1121,#1122,#1123,#1124,#1125,#1126,#1127,#1128,#1129,#1130,
    #1131,#1132,#1133,#1134,#1135,#1136,#1137,#1138,#1139,#1140,#1141,
    #1142,#1143,#1144,#1145,#1146,#1147,#1148,#1149,#1150,#1151,#1152,
    #1153,#1154,#1155,#1156,#1157,#1158,#1159,#1160,#1161,#1162,#1163,
    #1164,#1165,#1166,#1167),.UNSPECIFIED.,.F.,.F.,(9,7,7,7,7,7,7,7,7,7,
    7,7,9),(0.,0.235474171735,0.32539521416,0.363485689126,
    0.397019629757,0.430575188369,0.514590528193,0.623317495401,
    0.667773549416,0.703021391119,0.781030685207,0.925048088823,1.),
  .UNSPECIFIED.);
#1082 = CARTESIAN_POINT('',(0.831163215533,0.74455021061));
#1083 = CARTESIAN_POINT('',(0.835404143625,0.726031212908));
#1084 = CARTESIAN_POINT('',(0.83936396252,0.707274173869));
#1085 = CARTESIAN_POINT('',(0.843083724883,0.688335692072));
#1086 = CARTESIAN_POINT('',(0.846602882702,0.669263584821));
#1087 = CARTESIAN_POINT('',(0.849964934516,0.650098374585));
#1088 = CARTESIAN_POINT('',(0.853216606912,0.6308719964));
#1089 = CARTESIAN_POINT('',(0.856406835883,0.611606627014));
#1090 = CARTESIAN_POINT('',(0.860798282178,0.584946040105));
#1091 = CARTESIAN_POINT('',(0.862009964063,0.577574930165));
#1092 = CARTESIAN_POINT('',(0.863222476666,0.570201050967));
#1093 = CARTESIAN_POINT('',(0.864438500414,0.562825169918));
#1094 = CARTESIAN_POINT('',(0.865660677176,0.555447971752));
#1095 = CARTESIAN_POINT('',(0.866891590318,0.548070053671));
#1096 = CARTESIAN_POINT('',(0.868133744756,0.540691920478));
#1097 = CARTESIAN_POINT('',(0.869921503744,0.530188690459));
#1098 = CARTESIAN_POINT('',(0.870455908174,0.527063440886));
#1099 = CARTESIAN_POINT('',(0.870992943273,0.523938264732));
#1100 = CARTESIAN_POINT('',(0.871532787969,0.520813194001));
#1101 = CARTESIAN_POINT('',(0.872075617135,0.517688258966));
#1102 = CARTESIAN_POINT('',(0.872621601595,0.514563488173));
#1103 = CARTESIAN_POINT('',(0.873170908119,0.511438908435));
#1104 = CARTESIAN_POINT('',(0.874210363641,0.505563930057));
#1105 = CARTESIAN_POINT('',(0.874699728373,0.502813482989));
#1106 = CARTESIAN_POINT('',(0.875191904528,0.500063220834));
#1107 = CARTESIAN_POINT('',(0.875686999901,0.497313159935));
#1108 = CARTESIAN_POINT('',(0.876185119184,0.494563315771));
#1109 = CARTESIAN_POINT('',(0.876686363966,0.491813702962));
#1110 = CARTESIAN_POINT('',(0.87719083273,0.489064335266));
#1111 = CARTESIAN_POINT('',(0.878206736328,0.483564343657));
#1112 = CARTESIAN_POINT('',(0.878718175183,0.480813720129));
#1113 = CARTESIAN_POINT('',(0.879233032927,0.478063367963));
#1114 = CARTESIAN_POINT('',(0.879751401445,0.47531329931));
#1115 = CARTESIAN_POINT('',(0.880273368994,0.472563525497));
#1116 = CARTESIAN_POINT('',(0.880799020205,0.469814057037));
#1117 = CARTESIAN_POINT('',(0.881328436084,0.467064903622));
#1118 = CARTESIAN_POINT('',(0.88319684823,0.45743364231));
#1119 = CARTESIAN_POINT('',(0.884556083917,0.450553237442));
#1120 = CARTESIAN_POINT('',(0.88594061998,0.443675004247));
#1121 = CARTESIAN_POINT('',(0.887351514796,0.436799049995));
#1122 = CARTESIAN_POINT('',(0.88878966621,0.4299254445));
#1123 = CARTESIAN_POINT('',(0.890255811532,0.423054220119));
#1124 = CARTESIAN_POINT('',(0.891750527539,0.416185371757));
#1125 = CARTESIAN_POINT('',(0.895246103702,0.40043267796));
#1126 = CARTESIAN_POINT('',(0.897266520329,0.391550390636));
#1127 = CARTESIAN_POINT('',(0.899336389134,0.38267190242));
#1128 = CARTESIAN_POINT('',(0.901456153308,0.373796981614));
#1129 = CARTESIAN_POINT('',(0.903625831972,0.364925255176));
#1130 = CARTESIAN_POINT('',(0.905845061683,0.35605620661));
#1131 = CARTESIAN_POINT('',(0.908113137949,0.347189173852));
#1132 = CARTESIAN_POINT('',(0.911375984753,0.334698306559));
#1133 = CARTESIAN_POINT('',(0.912330912647,0.331073466797));
#1134 = CARTESIAN_POINT('',(0.913293771216,0.327448771928));
#1135 = CARTESIAN_POINT('',(0.914264484826,0.323824161942));
#1136 = CARTESIAN_POINT('',(0.915242971417,0.320199572758));
#1137 = CARTESIAN_POINT('',(0.916229142503,0.316574936229));
#1138 = CARTESIAN_POINT('',(0.917222903171,0.31295018014));
#1139 = CARTESIAN_POINT('',(0.919018011629,0.306451114999));
#1140 = CARTESIAN_POINT('',(0.919816579258,0.303576878909));
#1141 = CARTESIAN_POINT('',(0.920619804716,0.300702481888));
#1142 = CARTESIAN_POINT('',(0.921427636254,0.297827884499));
#1143 = CARTESIAN_POINT('',(0.922240020618,0.294953045914));
#1144 = CARTESIAN_POINT('',(0.923056903058,0.292077923914));
#1145 = CARTESIAN_POINT('',(0.923878227322,0.28920247489));
#1146 = CARTESIAN_POINT('',(0.926531364547,0.27996198698));
#1147 = CARTESIAN_POINT('',(0.928380263326,0.273595514738));
#1148 = CARTESIAN_POINT('',(0.930250017525,0.267226728683));
#1149 = CARTESIAN_POINT('',(0.932139981866,0.260855110127));
#1150 = CARTESIAN_POINT('',(0.934049494721,0.2544801276));
#1151 = CARTESIAN_POINT('',(0.935977892572,0.24810123433));
#1152 = CARTESIAN_POINT('',(0.937924524475,0.241717865722));
#1153 = CARTESIAN_POINT('',(0.943515065692,0.223535394172));
#1154 = CARTESIAN_POINT('',(0.947201044457,0.211725222618));
#1155 = CARTESIAN_POINT('',(0.950943133642,0.199893997156));
#1156 = CARTESIAN_POINT('',(0.954737699396,0.188038022426));
#1157 = CARTESIAN_POINT('',(0.958581254417,0.176154777744));
#1158 = CARTESIAN_POINT('',(0.962470791562,0.164242874809));
#1159 = CARTESIAN_POINT('',(0.966404239807,0.15230202807));
#1160 = CARTESIAN_POINT('',(0.972450715844,0.134103938562));
#1161 = CARTESIAN_POINT('',(0.974531992494,0.127867637506));
#1162 = CARTESIAN_POINT('',(0.976624741572,0.121624408086));
#1163 = CARTESIAN_POINT('',(0.97872885598,0.115374865233));
#1164 = CARTESIAN_POINT('',(0.980844277471,0.109119962454));
#1165 = CARTESIAN_POINT('',(0.982971025023,0.102860993208));
#1166 = CARTESIAN_POINT('',(0.985109226562,9.659959652931E-02));
#1167 = CARTESIAN_POINT('',(0.987259154067,9.033776691522E-02));
#1168 = ( GEOMETRIC_REPRESENTATION_CONTEXT(2) 
PARAMETRIC_REPRESENTATION_CONTEXT() REPRESENTATION_CONTEXT('2D SPACE',''
  ) );
#1169 = ADVANCED_FACE('',(#1170),#460,.T.);
#1170 = FACE_BOUND('',#1171,.T.);
#1171 = EDGE_LOOP('',(#1172,#1173,#1380,#1381));
#1172 = ORIENTED_EDGE('',*,*,#446,.F.);
#1173 = ORIENTED_EDGE('',*,*,#1174,.F.);
#1174 = EDGE_CURVE('',#606,#318,#1175,.T.);
#1175 = SURFACE_CURVE('',#1176,(#1242,#1311),.PCURVE_S1.);
#1176 = B_SPLINE_CURVE_WITH_KNOTS('',8,(#1177,#1178,#1179,#1180,#1181,
    #1182,#1183,#1184,#1185,#1186,#1187,#1188,#1189,#1190,#1191,#1192,
    #1193,#1194,#1195,#1196,#1197,#1198,#1199,#1200,#1201,#1202,#1203,
    #1204,#1205,#1206,#1207,#1208,#1209,#1210,#1211,#1212,#1213,#1214,
    #1215,#1216,#1217,#1218,#1219,#1220,#1221,#1222,#1223,#1224,#1225,
    #1226,#1227,#1228,#1229,#1230,#1231,#1232,#1233,#1234,#1235,#1236,
    #1237,#1238,#1239,#1240,#1241),.UNSPECIFIED.,.F.,.F.,(9,7,7,7,7,7,7,
    7,7,9),(0.,2.354403167018E-02,5.625763741146E-02,0.1065847699,
    0.19435241581,0.325159839344,0.455137426872,0.517375917658,
    0.843874348674,1.),.UNSPECIFIED.);
#1177 = CARTESIAN_POINT('',(22.35,-13.89070059257,-58.92220357738));
#1178 = CARTESIAN_POINT('',(22.35,-14.00900966125,-58.92220357738));
#1179 = CARTESIAN_POINT('',(22.35,-14.12773451372,-58.91107049112));
#1180 = CARTESIAN_POINT('',(22.35,-14.24488267941,-58.8877998469));
#1181 = CARTESIAN_POINT('',(22.35,-14.35894029834,-58.85233575617));
#1182 = CARTESIAN_POINT('',(22.35,-14.46879978711,-58.80540496247));
#1183 = CARTESIAN_POINT('',(22.35,-14.5736864604,-58.74832990946));
#1184 = CARTESIAN_POINT('',(22.35,-14.67308410793,-58.68282082796));
#1185 = CARTESIAN_POINT('',(22.35,-14.89667928735,-58.51060256814));
#1186 = CARTESIAN_POINT('',(22.35,-15.0159197117,-58.39743385943));
#1187 = CARTESIAN_POINT('',(22.35,-15.12549722221,-58.27447812957));
#1188 = CARTESIAN_POINT('',(22.35,-15.22651007656,-58.14437495083));
#1189 = CARTESIAN_POINT('',(22.35,-15.31998800617,-58.00911680237));
#1190 = CARTESIAN_POINT('',(22.35,-15.4069000677,-57.87005462623));
#1191 = CARTESIAN_POINT('',(22.35,-15.48817974646,-57.72791858696));
#1192 = CARTESIAN_POINT('',(22.35,-15.68248686697,-57.35958388258));
#1193 = CARTESIAN_POINT('',(22.35,-15.7884849744,-57.13039373904));
#1194 = CARTESIAN_POINT('',(22.35,-15.88547183229,-56.89708978573));
#1195 = CARTESIAN_POINT('',(22.35,-15.97495554227,-56.66081936379));
#1196 = CARTESIAN_POINT('',(22.35,-16.05815431414,-56.42241833389));
#1197 = CARTESIAN_POINT('',(22.35,-16.13595170911,-56.18238549702));
#1198 = CARTESIAN_POINT('',(22.35,-16.20910259819,-55.94097410228));
#1199 = CARTESIAN_POINT('',(22.35,-16.39878645706,-55.27477448932));
#1200 = CARTESIAN_POINT('',(22.35,-16.50689223205,-54.84793819682));
#1201 = CARTESIAN_POINT('',(22.35,-16.6056476435,-54.41875703704));
#1202 = CARTESIAN_POINT('',(22.35,-16.69671587697,-53.98788733207));
#1203 = CARTESIAN_POINT('',(22.35,-16.78139277392,-53.55580044231));
#1204 = CARTESIAN_POINT('',(22.35,-16.86057988794,-53.12277338725));
#1205 = CARTESIAN_POINT('',(22.35,-16.93501619742,-52.68894451221));
#1206 = CARTESIAN_POINT('',(22.35,-17.11000446356,-51.60654208001));
#1207 = CARTESIAN_POINT('',(22.35,-17.20541410211,-50.95730150152));
#1208 = CARTESIAN_POINT('',(22.35,-17.29338771413,-50.30698053119));
#1209 = CARTESIAN_POINT('',(22.35,-17.37506004348,-49.65583832346));
#1210 = CARTESIAN_POINT('',(22.35,-17.45123688881,-49.00405696614));
#1211 = CARTESIAN_POINT('',(22.35,-17.52252900902,-48.35175843759));
#1212 = CARTESIAN_POINT('',(22.35,-17.58937491553,-47.69900722692));
#1213 = CARTESIAN_POINT('',(22.35,-17.71446871829,-46.39678003633));
#1214 = CARTESIAN_POINT('',(22.35,-17.77276399269,-45.74735186363));
#1215 = CARTESIAN_POINT('',(22.35,-17.82733807475,-45.09759332838));
#1216 = CARTESIAN_POINT('',(22.35,-17.87841987639,-44.44754875781));
#1217 = CARTESIAN_POINT('',(22.35,-17.9261681168,-43.79725331176));
#1218 = CARTESIAN_POINT('',(22.35,-17.97069415249,-43.14673480787));
#1219 = CARTESIAN_POINT('',(22.35,-18.01207533565,-42.49601476306));
#1220 = CARTESIAN_POINT('',(22.35,-18.06869061049,-41.53342865456));
#1221 = CARTESIAN_POINT('',(22.35,-18.08631208081,-41.2217068926));
#1222 = CARTESIAN_POINT('',(22.35,-18.10322856688,-40.90994553188));
#1223 = CARTESIAN_POINT('',(22.35,-18.11944391341,-40.59814664363));
#1224 = CARTESIAN_POINT('',(22.35,-18.1349607213,-40.2863122123));
#1225 = CARTESIAN_POINT('',(22.35,-18.14978051391,-39.97444414432));
#1226 = CARTESIAN_POINT('',(22.35,-18.16390390328,-39.6625442767));
#1227 = CARTESIAN_POINT('',(22.35,-18.24776701513,-37.71425369135));
#1228 = CARTESIAN_POINT('',(22.35,-18.29903628572,-36.07704588229));
#1229 = CARTESIAN_POINT('',(22.35,-18.33111013398,-34.43925392605));
#1230 = CARTESIAN_POINT('',(22.35,-18.3433880239,-32.80115075791));
#1231 = CARTESIAN_POINT('',(22.35,-18.33514407009,-31.16302423379));
#1232 = CARTESIAN_POINT('',(22.35,-18.30575135598,-29.52517832));
#1233 = CARTESIAN_POINT('',(22.35,-18.25481673026,-27.88793333148));
#1234 = CARTESIAN_POINT('',(22.35,-18.14771101401,-25.46917639535));
#1235 = CARTESIAN_POINT('',(22.35,-18.10814157526,-24.68694074604));
#1236 = CARTESIAN_POINT('',(22.35,-18.06365229365,-23.90495969036));
#1237 = CARTESIAN_POINT('',(22.35,-18.01426588967,-23.12326878621));
#1238 = CARTESIAN_POINT('',(22.35,-17.96002922884,-22.34190034321));
#1239 = CARTESIAN_POINT('',(22.35,-17.90101636174,-21.56088322488));
#1240 = CARTESIAN_POINT('',(22.35,-17.8373315641,-20.78024265104));
#1241 = CARTESIAN_POINT('',(22.35,-17.76911237687,-20.));
#1242 = PCURVE('',#460,#1243);
#1243 = DEFINITIONAL_REPRESENTATION('',(#1244),#1310);
#1244 = B_SPLINE_CURVE_WITH_KNOTS('',8,(#1245,#1246,#1247,#1248,#1249,
    #1250,#1251,#1252,#1253,#1254,#1255,#1256,#1257,#1258,#1259,#1260,
    #1261,#1262,#1263,#1264,#1265,#1266,#1267,#1268,#1269,#1270,#1271,
    #1272,#1273,#1274,#1275,#1276,#1277,#1278,#1279,#1280,#1281,#1282,
    #1283,#1284,#1285,#1286,#1287,#1288,#1289,#1290,#1291,#1292,#1293,
    #1294,#1295,#1296,#1297,#1298,#1299,#1300,#1301,#1302,#1303,#1304,
    #1305,#1306,#1307,#1308,#1309),.UNSPECIFIED.,.F.,.F.,(9,7,7,7,7,7,7,
    7,7,9),(0.,2.354403167018E-02,5.625763741146E-02,0.1065847699,
    0.19435241581,0.325159839344,0.455137426872,0.517375917658,
    0.843874348674,1.),.UNSPECIFIED.);
#1245 = CARTESIAN_POINT('',(29.07779642262,-9.109299407428));
#1246 = CARTESIAN_POINT('',(29.077796422619,-8.990990338743));
#1247 = CARTESIAN_POINT('',(29.088929508879,-8.872265486276));
#1248 = CARTESIAN_POINT('',(29.112200153096,-8.755117320581));
#1249 = CARTESIAN_POINT('',(29.147664243826,-8.641059701653));
#1250 = CARTESIAN_POINT('',(29.194595037526,-8.531200212889));
#1251 = CARTESIAN_POINT('',(29.251670090539,-8.426313539599));
#1252 = CARTESIAN_POINT('',(29.317179172035,-8.32691589207));
#1253 = CARTESIAN_POINT('',(29.489397431859,-8.103320712644));
#1254 = CARTESIAN_POINT('',(29.602566140569,-7.984080288299));
#1255 = CARTESIAN_POINT('',(29.725521870428,-7.874502777785));
#1256 = CARTESIAN_POINT('',(29.855625049161,-7.77348992344));
#1257 = CARTESIAN_POINT('',(29.990883197627,-7.680011993827));
#1258 = CARTESIAN_POINT('',(30.129945373762,-7.593099932293));
#1259 = CARTESIAN_POINT('',(30.272081413036,-7.511820253537));
#1260 = CARTESIAN_POINT('',(30.640416117418,-7.317513133024));
#1261 = CARTESIAN_POINT('',(30.869606260951,-7.211515025595));
#1262 = CARTESIAN_POINT('',(31.10291021427,-7.114528167705));
#1263 = CARTESIAN_POINT('',(31.339180636207,-7.025044457721));
#1264 = CARTESIAN_POINT('',(31.577581666102,-6.941845685853));
#1265 = CARTESIAN_POINT('',(31.817614502971,-6.864048290884));
#1266 = CARTESIAN_POINT('',(32.05902589772,-6.790897401801));
#1267 = CARTESIAN_POINT('',(32.725225510679,-6.601213542938));
#1268 = CARTESIAN_POINT('',(33.152061803178,-6.493107767941));
#1269 = CARTESIAN_POINT('',(33.581242962957,-6.394352356496));
#1270 = CARTESIAN_POINT('',(34.012112667925,-6.303284123027));
#1271 = CARTESIAN_POINT('',(34.444199557687,-6.218607226074));
#1272 = CARTESIAN_POINT('',(34.877226612748,-6.139420112054));
#1273 = CARTESIAN_POINT('',(35.311055487781,-6.064983802575));
#1274 = CARTESIAN_POINT('',(36.393457919984,-5.889995536434));
#1275 = CARTESIAN_POINT('',(37.042698498477,-5.794585897883));
#1276 = CARTESIAN_POINT('',(37.693019468809,-5.706612285869));
#1277 = CARTESIAN_POINT('',(38.344161676531,-5.624939956515));
#1278 = CARTESIAN_POINT('',(38.995943033851,-5.548763111181));
#1279 = CARTESIAN_POINT('',(39.648241562407,-5.477470990971));
#1280 = CARTESIAN_POINT('',(40.30099277308,-5.410625084468));
#1281 = CARTESIAN_POINT('',(41.603219963667,-5.28553128171));
#1282 = CARTESIAN_POINT('',(42.252648136365,-5.227236007303));
#1283 = CARTESIAN_POINT('',(42.902406671613,-5.172661925241));
#1284 = CARTESIAN_POINT('',(43.552451242187,-5.12158012361));
#1285 = CARTESIAN_POINT('',(44.20274668824,-5.073831883194));
#1286 = CARTESIAN_POINT('',(44.853265192125,-5.02930584751));
#1287 = CARTESIAN_POINT('',(45.503985236937,-4.987924664344));
#1288 = CARTESIAN_POINT('',(46.466571345433,-4.931309389508));
#1289 = CARTESIAN_POINT('',(46.7782931074,-4.913687919188));
#1290 = CARTESIAN_POINT('',(47.090054468112,-4.896771433112));
#1291 = CARTESIAN_POINT('',(47.401853356368,-4.880556086587));
#1292 = CARTESIAN_POINT('',(47.713687787693,-4.865039278698));
#1293 = CARTESIAN_POINT('',(48.025555855672,-4.850219486084));
#1294 = CARTESIAN_POINT('',(48.337455723294,-4.83609609672));
#1295 = CARTESIAN_POINT('',(50.285746308645,-4.752232984868));
#1296 = CARTESIAN_POINT('',(51.92295411771,-4.700963714272));
#1297 = CARTESIAN_POINT('',(53.560746073949,-4.668889866018));
#1298 = CARTESIAN_POINT('',(55.198849242081,-4.656611976097));
#1299 = CARTESIAN_POINT('',(56.836975766204,-4.664855929901));
#1300 = CARTESIAN_POINT('',(58.474821679993,-4.694248644019));
#1301 = CARTESIAN_POINT('',(60.112066668513,-4.745183269735));
#1302 = CARTESIAN_POINT('',(62.530823604644,-4.852288985987));
#1303 = CARTESIAN_POINT('',(63.313059253958,-4.891858424732));
#1304 = CARTESIAN_POINT('',(64.095040309639,-4.936347706344));
#1305 = CARTESIAN_POINT('',(64.876731213781,-4.985734110324));
#1306 = CARTESIAN_POINT('',(65.65809965679,-5.039970771158));
#1307 = CARTESIAN_POINT('',(66.439116775112,-5.098983638258));
#1308 = CARTESIAN_POINT('',(67.219757348951,-5.162668435891));
#1309 = CARTESIAN_POINT('',(68.,-5.230887623121));
#1310 = ( GEOMETRIC_REPRESENTATION_CONTEXT(2) 
PARAMETRIC_REPRESENTATION_CONTEXT() REPRESENTATION_CONTEXT('2D SPACE',''
  ) );
#1311 = PCURVE('',#343,#1312);
#1312 = DEFINITIONAL_REPRESENTATION('',(#1313),#1379);
#1313 = B_SPLINE_CURVE_WITH_KNOTS('',8,(#1314,#1315,#1316,#1317,#1318,
    #1319,#1320,#1321,#1322,#1323,#1324,#1325,#1326,#1327,#1328,#1329,
    #1330,#1331,#1332,#1333,#1334,#1335,#1336,#1337,#1338,#1339,#1340,
    #1341,#1342,#1343,#1344,#1345,#1346,#1347,#1348,#1349,#1350,#1351,
    #1352,#1353,#1354,#1355,#1356,#1357,#1358,#1359,#1360,#1361,#1362,
    #1363,#1364,#1365,#1366,#1367,#1368,#1369,#1370,#1371,#1372,#1373,
    #1374,#1375,#1376,#1377,#1378),.UNSPECIFIED.,.F.,.F.,(9,7,7,7,7,7,7,
    7,7,9),(0.,2.354403167018E-02,5.625763741146E-02,0.1065847699,
    0.19435241581,0.325159839344,0.455137426872,0.517375917658,
    0.843874348674,1.),.UNSPECIFIED.);
#1314 = CARTESIAN_POINT('',(1.,0.370645414956));
#1315 = CARTESIAN_POINT('',(0.99880899877,0.370645414956));
#1316 = CARTESIAN_POINT('',(0.997587665391,0.370752050607));
#1317 = CARTESIAN_POINT('',(0.996353850042,0.370974942876));
#1318 = CARTESIAN_POINT('',(0.995122872996,0.371314628593));
#1319 = CARTESIAN_POINT('',(0.993907808457,0.371764149962));
#1320 = CARTESIAN_POINT('',(0.992719741335,0.372310844492));
#1321 = CARTESIAN_POINT('',(0.991567996964,0.372938335363));
#1322 = CARTESIAN_POINT('',(0.988921298518,0.374587990506));
#1323 = CARTESIAN_POINT('',(0.987461930701,0.375672040645));
#1324 = CARTESIAN_POINT('',(0.986078782007,0.376849872564));
#1325 = CARTESIAN_POINT('',(0.984767044829,0.378096211));
#1326 = CARTESIAN_POINT('',(0.983520996212,0.379391976203));
#1327 = CARTESIAN_POINT('',(0.98233398826,0.380724231443));
#1328 = CARTESIAN_POINT('',(0.981198302689,0.382085985845));
#1329 = CARTESIAN_POINT('',(0.978423495703,0.385615006458));
#1330 = CARTESIAN_POINT('',(0.976850552813,0.387811006836));
#1331 = CARTESIAN_POINT('',(0.975362901228,0.390046563123));
#1332 = CARTESIAN_POINT('',(0.973947937394,0.392310693296));
#1333 = CARTESIAN_POINT('',(0.972595236877,0.394595396836));
#1334 = CARTESIAN_POINT('',(0.971296971018,0.396895900742));
#1335 = CARTESIAN_POINT('',(0.970046070484,0.399209784261));
#1336 = CARTESIAN_POINT('',(0.966726409724,0.405595658813));
#1337 = CARTESIAN_POINT('',(0.964745308903,0.409687632807));
#1338 = CARTESIAN_POINT('',(0.962863970854,0.413802638304));
#1339 = CARTESIAN_POINT('',(0.961066892957,0.41793440677));
#1340 = CARTESIAN_POINT('',(0.959341844403,0.422078436562));
#1341 = CARTESIAN_POINT('',(0.957680134465,0.42623208405));
#1342 = CARTESIAN_POINT('',(0.956074422074,0.430394031907));
#1343 = CARTESIAN_POINT('',(0.952200056467,0.440779618372));
#1344 = CARTESIAN_POINT('',(0.949993549645,0.447010407102));
#1345 = CARTESIAN_POINT('',(0.947880433587,0.453252948115));
#1346 = CARTESIAN_POINT('',(0.945849122872,0.459504758201));
#1347 = CARTESIAN_POINT('',(0.943891134107,0.465764077415));
#1348 = CARTESIAN_POINT('',(0.941999778953,0.472029708104));
#1349 = CARTESIAN_POINT('',(0.940169949073,0.478300991243));
#1350 = CARTESIAN_POINT('',(0.936635980256,0.490814586375));
#1351 = CARTESIAN_POINT('',(0.934931236527,0.497056423148));
#1352 = CARTESIAN_POINT('',(0.933279035725,0.503302618685));
#1353 = CARTESIAN_POINT('',(0.93167626678,0.509552683771));
#1354 = CARTESIAN_POINT('',(0.930120465367,0.515806205757));
#1355 = CARTESIAN_POINT('',(0.928609592035,0.522062831853));
#1356 = CARTESIAN_POINT('',(0.927141905746,0.528322259943));
#1357 = CARTESIAN_POINT('',(0.925033119687,0.537582723078));
#1358 = CARTESIAN_POINT('',(0.924359872283,0.540581785027));
#1359 = CARTESIAN_POINT('',(0.923696028838,0.543581390481));
#1360 = CARTESIAN_POINT('',(0.92304144021,0.546581507587));
#1361 = CARTESIAN_POINT('',(0.922395968414,0.549582104866));
#1362 = CARTESIAN_POINT('',(0.92175948516,0.552583151149));
#1363 = CARTESIAN_POINT('',(0.921131870385,0.555584615516));
#1364 = CARTESIAN_POINT('',(0.917266520011,0.574333955046));
#1365 = CARTESIAN_POINT('',(0.914260921877,0.590092303535));
#1366 = CARTESIAN_POINT('',(0.91147996717,0.605857012775));
#1367 = CARTESIAN_POINT('',(0.908912701058,0.621623184695));
#1368 = CARTESIAN_POINT('',(0.906549815548,0.637385557298));
#1369 = CARTESIAN_POINT('',(0.904382478717,0.653138587191));
#1370 = CARTESIAN_POINT('',(0.902402115144,0.668876545663));
#1371 = CARTESIAN_POINT('',(0.899737687422,0.692109201931));
#1372 = CARTESIAN_POINT('',(0.89891643464,0.699620018229));
#1373 = CARTESIAN_POINT('',(0.898134862612,0.707125388819));
#1374 = CARTESIAN_POINT('',(0.897391953388,0.714624693105));
#1375 = CARTESIAN_POINT('',(0.896686652851,0.722117347445));
#1376 = CARTESIAN_POINT('',(0.896017861563,0.729602809051));
#1377 = CARTESIAN_POINT('',(0.895384425596,0.737080579894));
#1378 = CARTESIAN_POINT('',(0.894785127376,0.74455021061));
#1379 = ( GEOMETRIC_REPRESENTATION_CONTEXT(2) 
PARAMETRIC_REPRESENTATION_CONTEXT() REPRESENTATION_CONTEXT('2D SPACE',''
  ) );
#1380 = ORIENTED_EDGE('',*,*,#605,.F.);
#1381 = ORIENTED_EDGE('',*,*,#475,.T.);
#1382 = ADVANCED_FACE('',(#1383),#343,.T.);
#1383 = FACE_BOUND('',#1384,.T.);
#1384 = EDGE_LOOP('',(#1385,#1386,#1387,#1388,#1389));
#1385 = ORIENTED_EDGE('',*,*,#866,.F.);
#1386 = ORIENTED_EDGE('',*,*,#730,.T.);
#1387 = ORIENTED_EDGE('',*,*,#1174,.T.);
#1388 = ORIENTED_EDGE('',*,*,#317,.T.);
#1389 = ORIENTED_EDGE('',*,*,#900,.T.);
#1390 = ( GEOMETRIC_REPRESENTATION_CONTEXT(3) 
GLOBAL_UNCERTAINTY_ASSIGNED_CONTEXT((#1394)) 
GLOBAL_UNIT_ASSIGNED_CONTEXT((#1391,#1392,#1393)) REPRESENTATION_CONTEXT
('Context #1','3D Context with UNIT and UNCERTAINTY') );
#1391 = ( LENGTH_UNIT() NAMED_UNIT(*) SI_UNIT(.MILLI.,.METRE.) );
#1392 = ( NAMED_UNIT(*) PLANE_ANGLE_UNIT() SI_UNIT($,.RADIAN.) );
#1393 = ( NAMED_UNIT(*) SI_UNIT($,.STERADIAN.) SOLID_ANGLE_UNIT() );
#1394 = UNCERTAINTY_MEASURE_WITH_UNIT(LENGTH_MEASURE(2.E-06),#1391,
  'distance_accuracy_value','confusion accuracy');
#1395 = PRODUCT_RELATED_PRODUCT_CATEGORY('part',$,(#7));
ENDSEC;
END-ISO-10303-21;
