ISO-10303-21;
HEADER;
FILE_DESCRIPTION(('Open CASCADE Model'),'2;1');
FILE_NAME('Open CASCADE Shape Model','2026-09-09T16:23:36',('Author'),(
    'Open CASCADE'),'Open CASCADE STEP processor 7.9','Open CASCADE 7.9'
  ,'Unknown');
FILE_SCHEMA(('AUTOMOTIVE_DESIGN { 1 0 10303 214 1 1 1 1 }'));
ENDSEC;
DATA;
#1 = APPLICATION_PROTOCOL_DEFINITION('international standard',
  'automotive_design',2000,#2);
#2 = APPLICATION_CONTEXT(
  'core data for automotive mechanical design processes');
#3 = SHAPE_DEFINITION_REPRESENTATION(#4,#10);
#4 = PRODUCT_DEFINITION_SHAPE('','',#5);
#5 = PRODUCT_DEFINITION('design','',#6,#9);
#6 = PRODUCT_DEFINITION_FORMATION('','',#7);
#7 = PRODUCT('Open CASCADE STEP translator 7.9 8',
  'Open CASCADE STEP translator 7.9 8','',(#8));
#8 = PRODUCT_CONTEXT('',#2,'mechanical');
#9 = PRODUCT_DEFINITION_CONTEXT('part definition',#2,'design');
#10 = ADVANCED_BREP_SHAPE_REPRESENTATION('',(#11,#15),#878);
#11 = AXIS2_PLACEMENT_3D('',#12,#13,#14);
#12 = CARTESIAN_POINT('',(0.,0.,0.));
#13 = DIRECTION('',(0.,0.,1.));
#14 = DIRECTION('',(1.,0.,-0.));
#15 = MANIFOLD_SOLID_BREP('',#16);
#16 = CLOSED_SHELL('',(#17,#198,#285,#369,#460,#544,#635,#714,#785,#835,
    #863));
#17 = ADVANCED_FACE('',(#18),#33,.F.);
#18 = FACE_BOUND('',#19,.F.);
#19 = EDGE_LOOP('',(#20,#58,#81,#115,#143,#166));
#20 = ORIENTED_EDGE('',*,*,#21,.F.);
#21 = EDGE_CURVE('',#22,#24,#26,.T.);
#22 = VERTEX_POINT('',#23);
#23 = CARTESIAN_POINT('',(42.,0.,6.5));
#24 = VERTEX_POINT('',#25);
#25 = CARTESIAN_POINT('',(33.62539095453,19.773371996476,6.5));
#26 = SURFACE_CURVE('',#27,(#32,#46),.PCURVE_S1.);
#27 = ELLIPSE('',#28,42.,33.);
#28 = AXIS2_PLACEMENT_3D('',#29,#30,#31);
#29 = CARTESIAN_POINT('',(0.,0.,6.5));
#30 = DIRECTION('',(0.,0.,1.));
#31 = DIRECTION('',(1.,0.,0.));
#32 = PCURVE('',#33,#41);
#33 = SURFACE_OF_LINEAR_EXTRUSION('',#34,#39);
#34 = ELLIPSE('',#35,42.,33.);
#35 = AXIS2_PLACEMENT_3D('',#36,#37,#38);
#36 = CARTESIAN_POINT('',(0.,0.,6.5));
#37 = DIRECTION('',(0.,0.,1.));
#38 = DIRECTION('',(1.,0.,0.));
#39 = VECTOR('',#40,1.);
#40 = DIRECTION('',(-0.,-0.,-1.));
#41 = DEFINITIONAL_REPRESENTATION('',(#42),#45);
#42 = B_SPLINE_CURVE_WITH_KNOTS('',1,(#43,#44),.UNSPECIFIED.,.F.,.F.,(2,
    2),(0.,0.642492853342),.PIECEWISE_BEZIER_KNOTS.);
#43 = CARTESIAN_POINT('',(6.28318530718,0.));
#44 = CARTESIAN_POINT('',(6.925678160522,0.));
#45 = ( GEOMETRIC_REPRESENTATION_CONTEXT(2) 
PARAMETRIC_REPRESENTATION_CONTEXT() REPRESENTATION_CONTEXT('2D SPACE',''
  ) );
#46 = PCURVE('',#47,#52);
#47 = PLANE('',#48);
#48 = AXIS2_PLACEMENT_3D('',#49,#50,#51);
#49 = CARTESIAN_POINT('',(1.291200373646,8.959445402093E-16,6.5));
#50 = DIRECTION('',(0.,0.,1.));
#51 = DIRECTION('',(1.,0.,-0.));
#52 = DEFINITIONAL_REPRESENTATION('',(#53),#57);
#53 = ELLIPSE('',#54,42.,33.);
#54 = AXIS2_PLACEMENT_2D('',#55,#56);
#55 = CARTESIAN_POINT('',(-1.291200373646,-8.959445402093E-16));
#56 = DIRECTION('',(1.,0.));
#57 = ( GEOMETRIC_REPRESENTATION_CONTEXT(2) 
PARAMETRIC_REPRESENTATION_CONTEXT() REPRESENTATION_CONTEXT('2D SPACE',''
  ) );
#58 = ORIENTED_EDGE('',*,*,#59,.F.);
#59 = EDGE_CURVE('',#60,#22,#62,.T.);
#60 = VERTEX_POINT('',#61);
#61 = CARTESIAN_POINT('',(33.62539095453,-19.77337199647,6.5));
#62 = SURFACE_CURVE('',#63,(#68,#74),.PCURVE_S1.);
#63 = ELLIPSE('',#64,42.,33.);
#64 = AXIS2_PLACEMENT_3D('',#65,#66,#67);
#65 = CARTESIAN_POINT('',(0.,0.,6.5));
#66 = DIRECTION('',(0.,0.,1.));
#67 = DIRECTION('',(1.,0.,0.));
#68 = PCURVE('',#33,#69);
#69 = DEFINITIONAL_REPRESENTATION('',(#70),#73);
#70 = B_SPLINE_CURVE_WITH_KNOTS('',1,(#71,#72),.UNSPECIFIED.,.F.,.F.,(2,
    2),(5.640692453837,6.28318530718),.PIECEWISE_BEZIER_KNOTS.);
#71 = CARTESIAN_POINT('',(5.640692453837,0.));
#72 = CARTESIAN_POINT('',(6.28318530718,0.));
#73 = ( GEOMETRIC_REPRESENTATION_CONTEXT(2) 
PARAMETRIC_REPRESENTATION_CONTEXT() REPRESENTATION_CONTEXT('2D SPACE',''
  ) );
#74 = PCURVE('',#47,#75);
#75 = DEFINITIONAL_REPRESENTATION('',(#76),#80);
#76 = ELLIPSE('',#77,42.,33.);
#77 = AXIS2_PLACEMENT_2D('',#78,#79);
#78 = CARTESIAN_POINT('',(-1.291200373646,-8.959445402093E-16));
#79 = DIRECTION('',(1.,0.));
#80 = ( GEOMETRIC_REPRESENTATION_CONTEXT(2) 
PARAMETRIC_REPRESENTATION_CONTEXT() REPRESENTATION_CONTEXT('2D SPACE',''
  ) );
#81 = ORIENTED_EDGE('',*,*,#82,.F.);
#82 = EDGE_CURVE('',#83,#60,#85,.T.);
#83 = VERTEX_POINT('',#84);
#84 = CARTESIAN_POINT('',(33.62539095453,-19.77337199647,7.5));
#85 = SURFACE_CURVE('',#86,(#92,#101),.PCURVE_S1.);
#86 = B_SPLINE_CURVE_WITH_KNOTS('',4,(#87,#88,#89,#90,#91),
  .UNSPECIFIED.,.F.,.F.,(5,5),(0.,1.),.PIECEWISE_BEZIER_KNOTS.);
#87 = CARTESIAN_POINT('',(33.62539095453,-19.77337199647,7.5000006));
#88 = CARTESIAN_POINT('',(33.62539095453,-19.77337199647,7.2500003));
#89 = CARTESIAN_POINT('',(33.62539095453,-19.77337199647,7.));
#90 = CARTESIAN_POINT('',(33.62539095453,-19.77337199647,6.7499997));
#91 = CARTESIAN_POINT('',(33.62539095453,-19.77337199647,6.4999994));
#92 = PCURVE('',#33,#93);
#93 = DEFINITIONAL_REPRESENTATION('',(#94),#100);
#94 = B_SPLINE_CURVE_WITH_KNOTS('',4,(#95,#96,#97,#98,#99),
  .UNSPECIFIED.,.F.,.F.,(5,5),(5.999992799071E-07,0.999999400001),
  .PIECEWISE_BEZIER_KNOTS.);
#95 = CARTESIAN_POINT('',(5.640692453837,-1.));
#96 = CARTESIAN_POINT('',(5.640692453837,-0.75));
#97 = CARTESIAN_POINT('',(5.640692453837,-0.5));
#98 = CARTESIAN_POINT('',(5.640692453837,-0.25));
#99 = CARTESIAN_POINT('',(5.640692453837,-1.95055294045E-17));
#100 = ( GEOMETRIC_REPRESENTATION_CONTEXT(2) 
PARAMETRIC_REPRESENTATION_CONTEXT() REPRESENTATION_CONTEXT('2D SPACE',''
  ) );
#101 = PCURVE('',#102,#107);
#102 = CYLINDRICAL_SURFACE('',#103,1.8);
#103 = AXIS2_PLACEMENT_3D('',#104,#105,#106);
#104 = CARTESIAN_POINT('',(32.,-19.,3.));
#105 = DIRECTION('',(-0.,-0.,-1.));
#106 = DIRECTION('',(1.,0.,0.));
#107 = DEFINITIONAL_REPRESENTATION('',(#108),#114);
#108 = B_SPLINE_CURVE_WITH_KNOTS('',4,(#109,#110,#111,#112,#113),
  .UNSPECIFIED.,.F.,.F.,(5,5),(5.999992799071E-07,0.999999400001),
  .PIECEWISE_BEZIER_KNOTS.);
#109 = CARTESIAN_POINT('',(-5.839078936526,-4.5));
#110 = CARTESIAN_POINT('',(-5.839078936526,-4.25));
#111 = CARTESIAN_POINT('',(-5.839078936526,-4.));
#112 = CARTESIAN_POINT('',(-5.839078936526,-3.75));
#113 = CARTESIAN_POINT('',(-5.839078936526,-3.5));
#114 = ( GEOMETRIC_REPRESENTATION_CONTEXT(2) 
PARAMETRIC_REPRESENTATION_CONTEXT() REPRESENTATION_CONTEXT('2D SPACE',''
  ) );
#115 = ORIENTED_EDGE('',*,*,#116,.T.);
#116 = EDGE_CURVE('',#83,#117,#119,.T.);
#117 = VERTEX_POINT('',#118);
#118 = CARTESIAN_POINT('',(42.,0.,7.5));
#119 = SURFACE_CURVE('',#120,(#125,#131),.PCURVE_S1.);
#120 = ELLIPSE('',#121,42.,33.);
#121 = AXIS2_PLACEMENT_3D('',#122,#123,#124);
#122 = CARTESIAN_POINT('',(0.,0.,7.5));
#123 = DIRECTION('',(0.,0.,1.));
#124 = DIRECTION('',(1.,0.,0.));
#125 = PCURVE('',#33,#126);
#126 = DEFINITIONAL_REPRESENTATION('',(#127),#130);
#127 = B_SPLINE_CURVE_WITH_KNOTS('',1,(#128,#129),.UNSPECIFIED.,.F.,.F.,
  (2,2),(5.640692453837,6.28318530718),.PIECEWISE_BEZIER_KNOTS.);
#128 = CARTESIAN_POINT('',(5.640692453837,-1.));
#129 = CARTESIAN_POINT('',(6.28318530718,-1.));
#130 = ( GEOMETRIC_REPRESENTATION_CONTEXT(2) 
PARAMETRIC_REPRESENTATION_CONTEXT() REPRESENTATION_CONTEXT('2D SPACE',''
  ) );
#131 = PCURVE('',#132,#137);
#132 = PLANE('',#133);
#133 = AXIS2_PLACEMENT_3D('',#134,#135,#136);
#134 = CARTESIAN_POINT('',(1.291200373646,8.959445402093E-16,7.5));
#135 = DIRECTION('',(0.,0.,1.));
#136 = DIRECTION('',(1.,0.,-0.));
#137 = DEFINITIONAL_REPRESENTATION('',(#138),#142);
#138 = ELLIPSE('',#139,42.,33.);
#139 = AXIS2_PLACEMENT_2D('',#140,#141);
#140 = CARTESIAN_POINT('',(-1.291200373646,-8.959445402093E-16));
#141 = DIRECTION('',(1.,0.));
#142 = ( GEOMETRIC_REPRESENTATION_CONTEXT(2) 
PARAMETRIC_REPRESENTATION_CONTEXT() REPRESENTATION_CONTEXT('2D SPACE',''
  ) );
#143 = ORIENTED_EDGE('',*,*,#144,.T.);
#144 = EDGE_CURVE('',#117,#145,#147,.T.);
#145 = VERTEX_POINT('',#146);
#146 = CARTESIAN_POINT('',(33.62539095453,19.773371996476,7.5));
#147 = SURFACE_CURVE('',#148,(#153,#159),.PCURVE_S1.);
#148 = ELLIPSE('',#149,42.,33.);
#149 = AXIS2_PLACEMENT_3D('',#150,#151,#152);
#150 = CARTESIAN_POINT('',(0.,0.,7.5));
#151 = DIRECTION('',(0.,0.,1.));
#152 = DIRECTION('',(1.,0.,0.));
#153 = PCURVE('',#33,#154);
#154 = DEFINITIONAL_REPRESENTATION('',(#155),#158);
#155 = B_SPLINE_CURVE_WITH_KNOTS('',1,(#156,#157),.UNSPECIFIED.,.F.,.F.,
  (2,2),(0.,0.642492853342),.PIECEWISE_BEZIER_KNOTS.);
#156 = CARTESIAN_POINT('',(6.28318530718,-1.));
#157 = CARTESIAN_POINT('',(6.925678160522,-1.));
#158 = ( GEOMETRIC_REPRESENTATION_CONTEXT(2) 
PARAMETRIC_REPRESENTATION_CONTEXT() REPRESENTATION_CONTEXT('2D SPACE',''
  ) );
#159 = PCURVE('',#132,#160);
#160 = DEFINITIONAL_REPRESENTATION('',(#161),#165);
#161 = ELLIPSE('',#162,42.,33.);
#162 = AXIS2_PLACEMENT_2D('',#163,#164);
#163 = CARTESIAN_POINT('',(-1.291200373646,-8.959445402093E-16));
#164 = DIRECTION('',(1.,0.));
#165 = ( GEOMETRIC_REPRESENTATION_CONTEXT(2) 
PARAMETRIC_REPRESENTATION_CONTEXT() REPRESENTATION_CONTEXT('2D SPACE',''
  ) );
#166 = ORIENTED_EDGE('',*,*,#167,.T.);
#167 = EDGE_CURVE('',#145,#24,#168,.T.);
#168 = SURFACE_CURVE('',#169,(#175,#184),.PCURVE_S1.);
#169 = B_SPLINE_CURVE_WITH_KNOTS('',4,(#170,#171,#172,#173,#174),
  .UNSPECIFIED.,.F.,.F.,(5,5),(0.,1.),.PIECEWISE_BEZIER_KNOTS.);
#170 = CARTESIAN_POINT('',(33.62539095453,19.773371996476,7.5000006));
#171 = CARTESIAN_POINT('',(33.62539095453,19.773371996476,7.2500003));
#172 = CARTESIAN_POINT('',(33.62539095453,19.773371996476,7.));
#173 = CARTESIAN_POINT('',(33.62539095453,19.773371996476,6.7499997));
#174 = CARTESIAN_POINT('',(33.62539095453,19.773371996476,6.4999994));
#175 = PCURVE('',#33,#176);
#176 = DEFINITIONAL_REPRESENTATION('',(#177),#183);
#177 = B_SPLINE_CURVE_WITH_KNOTS('',4,(#178,#179,#180,#181,#182),
  .UNSPECIFIED.,.F.,.F.,(5,5),(5.999992799071E-07,0.999999400001),
  .PIECEWISE_BEZIER_KNOTS.);
#178 = CARTESIAN_POINT('',(6.925678160522,-1.));
#179 = CARTESIAN_POINT('',(6.925678160522,-0.75));
#180 = CARTESIAN_POINT('',(6.925678160522,-0.5));
#181 = CARTESIAN_POINT('',(6.925678160522,-0.25));
#182 = CARTESIAN_POINT('',(6.925678160522,-1.95055294045E-17));
#183 = ( GEOMETRIC_REPRESENTATION_CONTEXT(2) 
PARAMETRIC_REPRESENTATION_CONTEXT() REPRESENTATION_CONTEXT('2D SPACE',''
  ) );
#184 = PCURVE('',#185,#190);
#185 = CYLINDRICAL_SURFACE('',#186,1.8);
#186 = AXIS2_PLACEMENT_3D('',#187,#188,#189);
#187 = CARTESIAN_POINT('',(32.,19.,3.));
#188 = DIRECTION('',(-0.,-0.,-1.));
#189 = DIRECTION('',(1.,0.,0.));
#190 = DEFINITIONAL_REPRESENTATION('',(#191),#197);
#191 = B_SPLINE_CURVE_WITH_KNOTS('',4,(#192,#193,#194,#195,#196),
  .UNSPECIFIED.,.F.,.F.,(5,5),(5.999992799071E-07,0.999999400001),
  .PIECEWISE_BEZIER_KNOTS.);
#192 = CARTESIAN_POINT('',(-6.727291677833,-4.5));
#193 = CARTESIAN_POINT('',(-6.727291677833,-4.25));
#194 = CARTESIAN_POINT('',(-6.727291677833,-4.));
#195 = CARTESIAN_POINT('',(-6.727291677833,-3.75));
#196 = CARTESIAN_POINT('',(-6.727291677833,-3.5));
#197 = ( GEOMETRIC_REPRESENTATION_CONTEXT(2) 
PARAMETRIC_REPRESENTATION_CONTEXT() REPRESENTATION_CONTEXT('2D SPACE',''
  ) );
#198 = ADVANCED_FACE('',(#199),#185,.F.);
#199 = FACE_BOUND('',#200,.T.);
#200 = EDGE_LOOP('',(#201,#225,#262,#284));
#201 = ORIENTED_EDGE('',*,*,#202,.F.);
#202 = EDGE_CURVE('',#203,#24,#205,.T.);
#203 = VERTEX_POINT('',#204);
#204 = CARTESIAN_POINT('',(32.798022884847,20.613430963897,6.5));
#205 = SURFACE_CURVE('',#206,(#211,#218),.PCURVE_S1.);
#206 = CIRCLE('',#207,1.8);
#207 = AXIS2_PLACEMENT_3D('',#208,#209,#210);
#208 = CARTESIAN_POINT('',(32.,19.,6.5));
#209 = DIRECTION('',(0.,-0.,1.));
#210 = DIRECTION('',(0.443346047137,0.896350535498,0.));
#211 = PCURVE('',#185,#212);
#212 = DEFINITIONAL_REPRESENTATION('',(#213),#217);
#213 = LINE('',#214,#215);
#214 = CARTESIAN_POINT('',(-1.111468117452,-3.5));
#215 = VECTOR('',#216,1.);
#216 = DIRECTION('',(-1.,-0.));
#217 = ( GEOMETRIC_REPRESENTATION_CONTEXT(2) 
PARAMETRIC_REPRESENTATION_CONTEXT() REPRESENTATION_CONTEXT('2D SPACE',''
  ) );
#218 = PCURVE('',#47,#219);
#219 = DEFINITIONAL_REPRESENTATION('',(#220),#224);
#220 = CIRCLE('',#221,1.8);
#221 = AXIS2_PLACEMENT_2D('',#222,#223);
#222 = CARTESIAN_POINT('',(30.708799626354,19.));
#223 = DIRECTION('',(0.443346047137,0.896350535498));
#224 = ( GEOMETRIC_REPRESENTATION_CONTEXT(2) 
PARAMETRIC_REPRESENTATION_CONTEXT() REPRESENTATION_CONTEXT('2D SPACE',''
  ) );
#225 = ORIENTED_EDGE('',*,*,#226,.F.);
#226 = EDGE_CURVE('',#227,#203,#229,.T.);
#227 = VERTEX_POINT('',#228);
#228 = CARTESIAN_POINT('',(32.798022884847,20.613430963897,7.5));
#229 = SURFACE_CURVE('',#230,(#236,#245),.PCURVE_S1.);
#230 = B_SPLINE_CURVE_WITH_KNOTS('',4,(#231,#232,#233,#234,#235),
  .UNSPECIFIED.,.F.,.F.,(5,5),(0.,1.),.PIECEWISE_BEZIER_KNOTS.);
#231 = CARTESIAN_POINT('',(32.798022884847,20.613430963897,7.5000006));
#232 = CARTESIAN_POINT('',(32.798022884847,20.613430963897,7.2500003));
#233 = CARTESIAN_POINT('',(32.798022884847,20.613430963897,7.));
#234 = CARTESIAN_POINT('',(32.798022884847,20.613430963897,6.7499997));
#235 = CARTESIAN_POINT('',(32.798022884847,20.613430963897,6.4999994));
#236 = PCURVE('',#185,#237);
#237 = DEFINITIONAL_REPRESENTATION('',(#238),#244);
#238 = B_SPLINE_CURVE_WITH_KNOTS('',4,(#239,#240,#241,#242,#243),
  .UNSPECIFIED.,.F.,.F.,(5,5),(5.999992799071E-07,0.999999400001),
  .PIECEWISE_BEZIER_KNOTS.);
#239 = CARTESIAN_POINT('',(-1.111468117452,-4.5));
#240 = CARTESIAN_POINT('',(-1.111468117452,-4.25));
#241 = CARTESIAN_POINT('',(-1.111468117452,-4.));
#242 = CARTESIAN_POINT('',(-1.111468117452,-3.75));
#243 = CARTESIAN_POINT('',(-1.111468117452,-3.5));
#244 = ( GEOMETRIC_REPRESENTATION_CONTEXT(2) 
PARAMETRIC_REPRESENTATION_CONTEXT() REPRESENTATION_CONTEXT('2D SPACE',''
  ) );
#245 = PCURVE('',#246,#254);
#246 = SURFACE_OF_LINEAR_EXTRUSION('',#247,#252);
#247 = ELLIPSE('',#248,42.,33.);
#248 = AXIS2_PLACEMENT_3D('',#249,#250,#251);
#249 = CARTESIAN_POINT('',(0.,0.,6.5));
#250 = DIRECTION('',(0.,0.,1.));
#251 = DIRECTION('',(1.,0.,0.));
#252 = VECTOR('',#253,1.);
#253 = DIRECTION('',(-0.,-0.,-1.));
#254 = DEFINITIONAL_REPRESENTATION('',(#255),#261);
#255 = B_SPLINE_CURVE_WITH_KNOTS('',4,(#256,#257,#258,#259,#260),
  .UNSPECIFIED.,.F.,.F.,(5,5),(0.,1.),.PIECEWISE_BEZIER_KNOTS.);
#256 = CARTESIAN_POINT('',(0.674682515841,-1.0000006));
#257 = CARTESIAN_POINT('',(0.674682515841,-0.7500003));
#258 = CARTESIAN_POINT('',(0.674682515841,-0.5));
#259 = CARTESIAN_POINT('',(0.674682515841,-0.2499997));
#260 = CARTESIAN_POINT('',(0.674682515841,5.999999999062E-07));
#261 = ( GEOMETRIC_REPRESENTATION_CONTEXT(2) 
PARAMETRIC_REPRESENTATION_CONTEXT() REPRESENTATION_CONTEXT('2D SPACE',''
  ) );
#262 = ORIENTED_EDGE('',*,*,#263,.T.);
#263 = EDGE_CURVE('',#227,#145,#264,.T.);
#264 = SURFACE_CURVE('',#265,(#270,#277),.PCURVE_S1.);
#265 = CIRCLE('',#266,1.8);
#266 = AXIS2_PLACEMENT_3D('',#267,#268,#269);
#267 = CARTESIAN_POINT('',(32.,19.,7.5));
#268 = DIRECTION('',(0.,-0.,1.));
#269 = DIRECTION('',(0.443346047137,0.896350535498,0.));
#270 = PCURVE('',#185,#271);
#271 = DEFINITIONAL_REPRESENTATION('',(#272),#276);
#272 = LINE('',#273,#274);
#273 = CARTESIAN_POINT('',(-1.111468117452,-4.5));
#274 = VECTOR('',#275,1.);
#275 = DIRECTION('',(-1.,-0.));
#276 = ( GEOMETRIC_REPRESENTATION_CONTEXT(2) 
PARAMETRIC_REPRESENTATION_CONTEXT() REPRESENTATION_CONTEXT('2D SPACE',''
  ) );
#277 = PCURVE('',#132,#278);
#278 = DEFINITIONAL_REPRESENTATION('',(#279),#283);
#279 = CIRCLE('',#280,1.8);
#280 = AXIS2_PLACEMENT_2D('',#281,#282);
#281 = CARTESIAN_POINT('',(30.708799626354,19.));
#282 = DIRECTION('',(0.443346047137,0.896350535498));
#283 = ( GEOMETRIC_REPRESENTATION_CONTEXT(2) 
PARAMETRIC_REPRESENTATION_CONTEXT() REPRESENTATION_CONTEXT('2D SPACE',''
  ) );
#284 = ORIENTED_EDGE('',*,*,#167,.T.);
#285 = ADVANCED_FACE('',(#286),#246,.F.);
#286 = FACE_BOUND('',#287,.F.);
#287 = EDGE_LOOP('',(#288,#312,#313,#337));
#288 = ORIENTED_EDGE('',*,*,#289,.F.);
#289 = EDGE_CURVE('',#203,#290,#292,.T.);
#290 = VERTEX_POINT('',#291);
#291 = CARTESIAN_POINT('',(-32.79802288484,20.613430963897,6.5));
#292 = SURFACE_CURVE('',#293,(#298,#305),.PCURVE_S1.);
#293 = ELLIPSE('',#294,42.,33.);
#294 = AXIS2_PLACEMENT_3D('',#295,#296,#297);
#295 = CARTESIAN_POINT('',(0.,0.,6.5));
#296 = DIRECTION('',(0.,0.,1.));
#297 = DIRECTION('',(1.,0.,0.));
#298 = PCURVE('',#246,#299);
#299 = DEFINITIONAL_REPRESENTATION('',(#300),#304);
#300 = LINE('',#301,#302);
#301 = CARTESIAN_POINT('',(0.,0.));
#302 = VECTOR('',#303,1.);
#303 = DIRECTION('',(1.,0.));
#304 = ( GEOMETRIC_REPRESENTATION_CONTEXT(2) 
PARAMETRIC_REPRESENTATION_CONTEXT() REPRESENTATION_CONTEXT('2D SPACE',''
  ) );
#305 = PCURVE('',#47,#306);
#306 = DEFINITIONAL_REPRESENTATION('',(#307),#311);
#307 = ELLIPSE('',#308,42.,33.);
#308 = AXIS2_PLACEMENT_2D('',#309,#310);
#309 = CARTESIAN_POINT('',(-1.291200373646,-8.959445402093E-16));
#310 = DIRECTION('',(1.,0.));
#311 = ( GEOMETRIC_REPRESENTATION_CONTEXT(2) 
PARAMETRIC_REPRESENTATION_CONTEXT() REPRESENTATION_CONTEXT('2D SPACE',''
  ) );
#312 = ORIENTED_EDGE('',*,*,#226,.F.);
#313 = ORIENTED_EDGE('',*,*,#314,.T.);
#314 = EDGE_CURVE('',#227,#315,#317,.T.);
#315 = VERTEX_POINT('',#316);
#316 = CARTESIAN_POINT('',(-32.79802288484,20.613430963897,7.5));
#317 = SURFACE_CURVE('',#318,(#323,#330),.PCURVE_S1.);
#318 = ELLIPSE('',#319,42.,33.);
#319 = AXIS2_PLACEMENT_3D('',#320,#321,#322);
#320 = CARTESIAN_POINT('',(0.,0.,7.5));
#321 = DIRECTION('',(0.,0.,1.));
#322 = DIRECTION('',(1.,0.,0.));
#323 = PCURVE('',#246,#324);
#324 = DEFINITIONAL_REPRESENTATION('',(#325),#329);
#325 = LINE('',#326,#327);
#326 = CARTESIAN_POINT('',(0.,-1.));
#327 = VECTOR('',#328,1.);
#328 = DIRECTION('',(1.,0.));
#329 = ( GEOMETRIC_REPRESENTATION_CONTEXT(2) 
PARAMETRIC_REPRESENTATION_CONTEXT() REPRESENTATION_CONTEXT('2D SPACE',''
  ) );
#330 = PCURVE('',#132,#331);
#331 = DEFINITIONAL_REPRESENTATION('',(#332),#336);
#332 = ELLIPSE('',#333,42.,33.);
#333 = AXIS2_PLACEMENT_2D('',#334,#335);
#334 = CARTESIAN_POINT('',(-1.291200373646,-8.959445402093E-16));
#335 = DIRECTION('',(1.,0.));
#336 = ( GEOMETRIC_REPRESENTATION_CONTEXT(2) 
PARAMETRIC_REPRESENTATION_CONTEXT() REPRESENTATION_CONTEXT('2D SPACE',''
  ) );
#337 = ORIENTED_EDGE('',*,*,#338,.T.);
#338 = EDGE_CURVE('',#315,#290,#339,.T.);
#339 = SURFACE_CURVE('',#340,(#346,#355),.PCURVE_S1.);
#340 = B_SPLINE_CURVE_WITH_KNOTS('',4,(#341,#342,#343,#344,#345),
  .UNSPECIFIED.,.F.,.F.,(5,5),(0.,1.),.PIECEWISE_BEZIER_KNOTS.);
#341 = CARTESIAN_POINT('',(-32.79802288484,20.613430963897,7.5000006));
#342 = CARTESIAN_POINT('',(-32.79802288484,20.613430963897,7.2500003));
#343 = CARTESIAN_POINT('',(-32.79802288484,20.613430963897,7.));
#344 = CARTESIAN_POINT('',(-32.79802288484,20.613430963897,6.7499997));
#345 = CARTESIAN_POINT('',(-32.79802288484,20.613430963897,6.4999994));
#346 = PCURVE('',#246,#347);
#347 = DEFINITIONAL_REPRESENTATION('',(#348),#354);
#348 = B_SPLINE_CURVE_WITH_KNOTS('',4,(#349,#350,#351,#352,#353),
  .UNSPECIFIED.,.F.,.F.,(5,5),(0.,1.),.PIECEWISE_BEZIER_KNOTS.);
#349 = CARTESIAN_POINT('',(2.466910137749,-1.0000006));
#350 = CARTESIAN_POINT('',(2.466910137749,-0.7500003));
#351 = CARTESIAN_POINT('',(2.466910137749,-0.5));
#352 = CARTESIAN_POINT('',(2.466910137749,-0.2499997));
#353 = CARTESIAN_POINT('',(2.466910137749,5.999999999062E-07));
#354 = ( GEOMETRIC_REPRESENTATION_CONTEXT(2) 
PARAMETRIC_REPRESENTATION_CONTEXT() REPRESENTATION_CONTEXT('2D SPACE',''
  ) );
#355 = PCURVE('',#356,#361);
#356 = CYLINDRICAL_SURFACE('',#357,1.8);
#357 = AXIS2_PLACEMENT_3D('',#358,#359,#360);
#358 = CARTESIAN_POINT('',(-32.,19.,3.));
#359 = DIRECTION('',(-0.,-0.,-1.));
#360 = DIRECTION('',(1.,0.,0.));
#361 = DEFINITIONAL_REPRESENTATION('',(#362),#368);
#362 = B_SPLINE_CURVE_WITH_KNOTS('',4,(#363,#364,#365,#366,#367),
  .UNSPECIFIED.,.F.,.F.,(5,5),(5.999992799071E-07,0.999999400001),
  .PIECEWISE_BEZIER_KNOTS.);
#363 = CARTESIAN_POINT('',(-8.313309843317,-4.5));
#364 = CARTESIAN_POINT('',(-8.313309843317,-4.25));
#365 = CARTESIAN_POINT('',(-8.313309843317,-4.));
#366 = CARTESIAN_POINT('',(-8.313309843317,-3.75));
#367 = CARTESIAN_POINT('',(-8.313309843317,-3.5));
#368 = ( GEOMETRIC_REPRESENTATION_CONTEXT(2) 
PARAMETRIC_REPRESENTATION_CONTEXT() REPRESENTATION_CONTEXT('2D SPACE',''
  ) );
#369 = ADVANCED_FACE('',(#370),#356,.F.);
#370 = FACE_BOUND('',#371,.T.);
#371 = EDGE_LOOP('',(#372,#400,#401,#425));
#372 = ORIENTED_EDGE('',*,*,#373,.F.);
#373 = EDGE_CURVE('',#315,#374,#376,.T.);
#374 = VERTEX_POINT('',#375);
#375 = CARTESIAN_POINT('',(-33.62539095453,19.773371996476,7.5));
#376 = SURFACE_CURVE('',#377,(#382,#389),.PCURVE_S1.);
#377 = CIRCLE('',#378,1.8);
#378 = AXIS2_PLACEMENT_3D('',#379,#380,#381);
#379 = CARTESIAN_POINT('',(-32.,19.,7.5));
#380 = DIRECTION('',(0.,0.,-1.));
#381 = DIRECTION('',(-0.443346047137,0.896350535498,0.));
#382 = PCURVE('',#356,#383);
#383 = DEFINITIONAL_REPRESENTATION('',(#384),#388);
#384 = LINE('',#385,#386);
#385 = CARTESIAN_POINT('',(-8.313309843317,-4.5));
#386 = VECTOR('',#387,1.);
#387 = DIRECTION('',(1.,-0.));
#388 = ( GEOMETRIC_REPRESENTATION_CONTEXT(2) 
PARAMETRIC_REPRESENTATION_CONTEXT() REPRESENTATION_CONTEXT('2D SPACE',''
  ) );
#389 = PCURVE('',#132,#390);
#390 = DEFINITIONAL_REPRESENTATION('',(#391),#399);
#391 = ( BOUNDED_CURVE() B_SPLINE_CURVE(2,(#392,#393,#394,#395,#396,#397
,#398),.UNSPECIFIED.,.T.,.F.) B_SPLINE_CURVE_WITH_KNOTS((1,2,2,2,2,1),(
    -2.094395102393,0.,2.094395102393,4.188790204786,6.28318530718,
8.377580409573),.UNSPECIFIED.) CURVE() GEOMETRIC_REPRESENTATION_ITEM() 
RATIONAL_B_SPLINE_CURVE((1.,0.5,1.,0.5,1.,0.5,1.)) REPRESENTATION_ITEM(
  '') );
#392 = CARTESIAN_POINT('',(-34.08922325849,20.613430963897));
#393 = CARTESIAN_POINT('',(-31.29467885451,21.995647146054));
#394 = CARTESIAN_POINT('',(-31.49491672923,18.88439260913));
#395 = CARTESIAN_POINT('',(-31.69515460395,15.773138072206));
#396 = CARTESIAN_POINT('',(-34.28946113321,17.502176426973));
#397 = CARTESIAN_POINT('',(-36.88376766246,19.23121478174));
#398 = CARTESIAN_POINT('',(-34.08922325849,20.613430963897));
#399 = ( GEOMETRIC_REPRESENTATION_CONTEXT(2) 
PARAMETRIC_REPRESENTATION_CONTEXT() REPRESENTATION_CONTEXT('2D SPACE',''
  ) );
#400 = ORIENTED_EDGE('',*,*,#338,.T.);
#401 = ORIENTED_EDGE('',*,*,#402,.F.);
#402 = EDGE_CURVE('',#403,#290,#405,.T.);
#403 = VERTEX_POINT('',#404);
#404 = CARTESIAN_POINT('',(-33.62539095453,19.773371996476,6.5));
#405 = SURFACE_CURVE('',#406,(#411,#418),.PCURVE_S1.);
#406 = CIRCLE('',#407,1.8);
#407 = AXIS2_PLACEMENT_3D('',#408,#409,#410);
#408 = CARTESIAN_POINT('',(-32.,19.,6.5));
#409 = DIRECTION('',(0.,0.,1.));
#410 = DIRECTION('',(-0.902994974739,0.429651109153,0.));
#411 = PCURVE('',#356,#412);
#412 = DEFINITIONAL_REPRESENTATION('',(#413),#417);
#413 = LINE('',#414,#415);
#414 = CARTESIAN_POINT('',(-2.697486282936,-3.5));
#415 = VECTOR('',#416,1.);
#416 = DIRECTION('',(-1.,-0.));
#417 = ( GEOMETRIC_REPRESENTATION_CONTEXT(2) 
PARAMETRIC_REPRESENTATION_CONTEXT() REPRESENTATION_CONTEXT('2D SPACE',''
  ) );
#418 = PCURVE('',#47,#419);
#419 = DEFINITIONAL_REPRESENTATION('',(#420),#424);
#420 = CIRCLE('',#421,1.8);
#421 = AXIS2_PLACEMENT_2D('',#422,#423);
#422 = CARTESIAN_POINT('',(-33.29120037364,19.));
#423 = DIRECTION('',(-0.902994974739,0.429651109153));
#424 = ( GEOMETRIC_REPRESENTATION_CONTEXT(2) 
PARAMETRIC_REPRESENTATION_CONTEXT() REPRESENTATION_CONTEXT('2D SPACE',''
  ) );
#425 = ORIENTED_EDGE('',*,*,#426,.F.);
#426 = EDGE_CURVE('',#374,#403,#427,.T.);
#427 = SURFACE_CURVE('',#428,(#434,#443),.PCURVE_S1.);
#428 = B_SPLINE_CURVE_WITH_KNOTS('',4,(#429,#430,#431,#432,#433),
  .UNSPECIFIED.,.F.,.F.,(5,5),(0.,1.),.PIECEWISE_BEZIER_KNOTS.);
#429 = CARTESIAN_POINT('',(-33.62539095453,19.773371996476,7.5000006));
#430 = CARTESIAN_POINT('',(-33.62539095453,19.773371996476,7.2500003));
#431 = CARTESIAN_POINT('',(-33.62539095453,19.773371996476,7.));
#432 = CARTESIAN_POINT('',(-33.62539095453,19.773371996476,6.7499997));
#433 = CARTESIAN_POINT('',(-33.62539095453,19.773371996476,6.4999994));
#434 = PCURVE('',#356,#435);
#435 = DEFINITIONAL_REPRESENTATION('',(#436),#442);
#436 = B_SPLINE_CURVE_WITH_KNOTS('',4,(#437,#438,#439,#440,#441),
  .UNSPECIFIED.,.F.,.F.,(5,5),(5.999992799071E-07,0.999999400001),
  .PIECEWISE_BEZIER_KNOTS.);
#437 = CARTESIAN_POINT('',(-2.697486282936,-4.5));
#438 = CARTESIAN_POINT('',(-2.697486282936,-4.25));
#439 = CARTESIAN_POINT('',(-2.697486282936,-4.));
#440 = CARTESIAN_POINT('',(-2.697486282936,-3.75));
#441 = CARTESIAN_POINT('',(-2.697486282936,-3.5));
#442 = ( GEOMETRIC_REPRESENTATION_CONTEXT(2) 
PARAMETRIC_REPRESENTATION_CONTEXT() REPRESENTATION_CONTEXT('2D SPACE',''
  ) );
#443 = PCURVE('',#444,#452);
#444 = SURFACE_OF_LINEAR_EXTRUSION('',#445,#450);
#445 = ELLIPSE('',#446,42.,33.);
#446 = AXIS2_PLACEMENT_3D('',#447,#448,#449);
#447 = CARTESIAN_POINT('',(0.,0.,6.5));
#448 = DIRECTION('',(0.,0.,1.));
#449 = DIRECTION('',(1.,0.,0.));
#450 = VECTOR('',#451,1.);
#451 = DIRECTION('',(-0.,-0.,-1.));
#452 = DEFINITIONAL_REPRESENTATION('',(#453),#459);
#453 = B_SPLINE_CURVE_WITH_KNOTS('',4,(#454,#455,#456,#457,#458),
  .UNSPECIFIED.,.F.,.F.,(5,5),(0.,1.),.PIECEWISE_BEZIER_KNOTS.);
#454 = CARTESIAN_POINT('',(2.499099800247,-1.0000006));
#455 = CARTESIAN_POINT('',(2.499099800247,-0.7500003));
#456 = CARTESIAN_POINT('',(2.499099800247,-0.5));
#457 = CARTESIAN_POINT('',(2.499099800247,-0.2499997));
#458 = CARTESIAN_POINT('',(2.499099800247,5.999999999062E-07));
#459 = ( GEOMETRIC_REPRESENTATION_CONTEXT(2) 
PARAMETRIC_REPRESENTATION_CONTEXT() REPRESENTATION_CONTEXT('2D SPACE',''
  ) );
#460 = ADVANCED_FACE('',(#461),#444,.F.);
#461 = FACE_BOUND('',#462,.F.);
#462 = EDGE_LOOP('',(#463,#487,#488,#512));
#463 = ORIENTED_EDGE('',*,*,#464,.F.);
#464 = EDGE_CURVE('',#403,#465,#467,.T.);
#465 = VERTEX_POINT('',#466);
#466 = CARTESIAN_POINT('',(-33.62539095453,-19.77337199647,6.5));
#467 = SURFACE_CURVE('',#468,(#473,#480),.PCURVE_S1.);
#468 = ELLIPSE('',#469,42.,33.);
#469 = AXIS2_PLACEMENT_3D('',#470,#471,#472);
#470 = CARTESIAN_POINT('',(0.,0.,6.5));
#471 = DIRECTION('',(0.,0.,1.));
#472 = DIRECTION('',(1.,0.,0.));
#473 = PCURVE('',#444,#474);
#474 = DEFINITIONAL_REPRESENTATION('',(#475),#479);
#475 = LINE('',#476,#477);
#476 = CARTESIAN_POINT('',(0.,0.));
#477 = VECTOR('',#478,1.);
#478 = DIRECTION('',(1.,0.));
#479 = ( GEOMETRIC_REPRESENTATION_CONTEXT(2) 
PARAMETRIC_REPRESENTATION_CONTEXT() REPRESENTATION_CONTEXT('2D SPACE',''
  ) );
#480 = PCURVE('',#47,#481);
#481 = DEFINITIONAL_REPRESENTATION('',(#482),#486);
#482 = ELLIPSE('',#483,42.,33.);
#483 = AXIS2_PLACEMENT_2D('',#484,#485);
#484 = CARTESIAN_POINT('',(-1.291200373646,-8.959445402093E-16));
#485 = DIRECTION('',(1.,0.));
#486 = ( GEOMETRIC_REPRESENTATION_CONTEXT(2) 
PARAMETRIC_REPRESENTATION_CONTEXT() REPRESENTATION_CONTEXT('2D SPACE',''
  ) );
#487 = ORIENTED_EDGE('',*,*,#426,.F.);
#488 = ORIENTED_EDGE('',*,*,#489,.T.);
#489 = EDGE_CURVE('',#374,#490,#492,.T.);
#490 = VERTEX_POINT('',#491);
#491 = CARTESIAN_POINT('',(-33.62539095453,-19.77337199647,7.5));
#492 = SURFACE_CURVE('',#493,(#498,#505),.PCURVE_S1.);
#493 = ELLIPSE('',#494,42.,33.);
#494 = AXIS2_PLACEMENT_3D('',#495,#496,#497);
#495 = CARTESIAN_POINT('',(0.,0.,7.5));
#496 = DIRECTION('',(0.,0.,1.));
#497 = DIRECTION('',(1.,0.,0.));
#498 = PCURVE('',#444,#499);
#499 = DEFINITIONAL_REPRESENTATION('',(#500),#504);
#500 = LINE('',#501,#502);
#501 = CARTESIAN_POINT('',(0.,-1.));
#502 = VECTOR('',#503,1.);
#503 = DIRECTION('',(1.,0.));
#504 = ( GEOMETRIC_REPRESENTATION_CONTEXT(2) 
PARAMETRIC_REPRESENTATION_CONTEXT() REPRESENTATION_CONTEXT('2D SPACE',''
  ) );
#505 = PCURVE('',#132,#506);
#506 = DEFINITIONAL_REPRESENTATION('',(#507),#511);
#507 = ELLIPSE('',#508,42.,33.);
#508 = AXIS2_PLACEMENT_2D('',#509,#510);
#509 = CARTESIAN_POINT('',(-1.291200373646,-8.959445402093E-16));
#510 = DIRECTION('',(1.,0.));
#511 = ( GEOMETRIC_REPRESENTATION_CONTEXT(2) 
PARAMETRIC_REPRESENTATION_CONTEXT() REPRESENTATION_CONTEXT('2D SPACE',''
  ) );
#512 = ORIENTED_EDGE('',*,*,#513,.T.);
#513 = EDGE_CURVE('',#490,#465,#514,.T.);
#514 = SURFACE_CURVE('',#515,(#521,#530),.PCURVE_S1.);
#515 = B_SPLINE_CURVE_WITH_KNOTS('',4,(#516,#517,#518,#519,#520),
  .UNSPECIFIED.,.F.,.F.,(5,5),(0.,1.),.PIECEWISE_BEZIER_KNOTS.);
#516 = CARTESIAN_POINT('',(-33.62539095453,-19.77337199647,7.5000006));
#517 = CARTESIAN_POINT('',(-33.62539095453,-19.77337199647,7.2500003));
#518 = CARTESIAN_POINT('',(-33.62539095453,-19.77337199647,7.));
#519 = CARTESIAN_POINT('',(-33.62539095453,-19.77337199647,6.7499997));
#520 = CARTESIAN_POINT('',(-33.62539095453,-19.77337199647,6.4999994));
#521 = PCURVE('',#444,#522);
#522 = DEFINITIONAL_REPRESENTATION('',(#523),#529);
#523 = B_SPLINE_CURVE_WITH_KNOTS('',4,(#524,#525,#526,#527,#528),
  .UNSPECIFIED.,.F.,.F.,(5,5),(0.,1.),.PIECEWISE_BEZIER_KNOTS.);
#524 = CARTESIAN_POINT('',(3.784085506932,-1.0000006));
#525 = CARTESIAN_POINT('',(3.784085506932,-0.7500003));
#526 = CARTESIAN_POINT('',(3.784085506932,-0.5));
#527 = CARTESIAN_POINT('',(3.784085506932,-0.2499997));
#528 = CARTESIAN_POINT('',(3.784085506932,5.999999999062E-07));
#529 = ( GEOMETRIC_REPRESENTATION_CONTEXT(2) 
PARAMETRIC_REPRESENTATION_CONTEXT() REPRESENTATION_CONTEXT('2D SPACE',''
  ) );
#530 = PCURVE('',#531,#536);
#531 = CYLINDRICAL_SURFACE('',#532,1.8);
#532 = AXIS2_PLACEMENT_3D('',#533,#534,#535);
#533 = CARTESIAN_POINT('',(-32.,-19.,3.));
#534 = DIRECTION('',(-0.,-0.,-1.));
#535 = DIRECTION('',(1.,0.,0.));
#536 = DEFINITIONAL_REPRESENTATION('',(#537),#543);
#537 = B_SPLINE_CURVE_WITH_KNOTS('',4,(#538,#539,#540,#541,#542),
  .UNSPECIFIED.,.F.,.F.,(5,5),(5.999992799071E-07,0.999999400001),
  .PIECEWISE_BEZIER_KNOTS.);
#538 = CARTESIAN_POINT('',(-9.868884331423,-4.5));
#539 = CARTESIAN_POINT('',(-9.868884331423,-4.25));
#540 = CARTESIAN_POINT('',(-9.868884331423,-4.));
#541 = CARTESIAN_POINT('',(-9.868884331423,-3.75));
#542 = CARTESIAN_POINT('',(-9.868884331423,-3.5));
#543 = ( GEOMETRIC_REPRESENTATION_CONTEXT(2) 
PARAMETRIC_REPRESENTATION_CONTEXT() REPRESENTATION_CONTEXT('2D SPACE',''
  ) );
#544 = ADVANCED_FACE('',(#545),#531,.F.);
#545 = FACE_BOUND('',#546,.T.);
#546 = EDGE_LOOP('',(#547,#575,#576,#600));
#547 = ORIENTED_EDGE('',*,*,#548,.F.);
#548 = EDGE_CURVE('',#490,#549,#551,.T.);
#549 = VERTEX_POINT('',#550);
#550 = CARTESIAN_POINT('',(-32.79802288484,-20.61343096389,7.5));
#551 = SURFACE_CURVE('',#552,(#557,#564),.PCURVE_S1.);
#552 = CIRCLE('',#553,1.8);
#553 = AXIS2_PLACEMENT_3D('',#554,#555,#556);
#554 = CARTESIAN_POINT('',(-32.,-19.,7.5));
#555 = DIRECTION('',(-0.,0.,-1.));
#556 = DIRECTION('',(-0.902994974739,-0.429651109153,0.));
#557 = PCURVE('',#531,#558);
#558 = DEFINITIONAL_REPRESENTATION('',(#559),#563);
#559 = LINE('',#560,#561);
#560 = CARTESIAN_POINT('',(-9.868884331423,-4.5));
#561 = VECTOR('',#562,1.);
#562 = DIRECTION('',(1.,-0.));
#563 = ( GEOMETRIC_REPRESENTATION_CONTEXT(2) 
PARAMETRIC_REPRESENTATION_CONTEXT() REPRESENTATION_CONTEXT('2D SPACE',''
  ) );
#564 = PCURVE('',#132,#565);
#565 = DEFINITIONAL_REPRESENTATION('',(#566),#574);
#566 = ( BOUNDED_CURVE() B_SPLINE_CURVE(2,(#567,#568,#569,#570,#571,#572
,#573),.UNSPECIFIED.,.T.,.F.) B_SPLINE_CURVE_WITH_KNOTS((1,2,2,2,2,1),(
    -2.094395102393,0.,2.094395102393,4.188790204786,6.28318530718,
8.377580409573),.UNSPECIFIED.) CURVE() GEOMETRIC_REPRESENTATION_ITEM() 
RATIONAL_B_SPLINE_CURVE((1.,0.5,1.,0.5,1.,0.5,1.)) REPRESENTATION_ITEM(
  '') );
#567 = CARTESIAN_POINT('',(-34.91659132817,-19.77337199647));
#568 = CARTESIAN_POINT('',(-36.25611091922,-16.95811228106));
#569 = CARTESIAN_POINT('',(-33.1482646919,-17.20568414405));
#570 = CARTESIAN_POINT('',(-30.04041846458,-17.45325600704));
#571 = CARTESIAN_POINT('',(-31.80874510085,-20.02094385946));
#572 = CARTESIAN_POINT('',(-33.57707173712,-22.58863171188));
#573 = CARTESIAN_POINT('',(-34.91659132817,-19.77337199647));
#574 = ( GEOMETRIC_REPRESENTATION_CONTEXT(2) 
PARAMETRIC_REPRESENTATION_CONTEXT() REPRESENTATION_CONTEXT('2D SPACE',''
  ) );
#575 = ORIENTED_EDGE('',*,*,#513,.T.);
#576 = ORIENTED_EDGE('',*,*,#577,.F.);
#577 = EDGE_CURVE('',#578,#465,#580,.T.);
#578 = VERTEX_POINT('',#579);
#579 = CARTESIAN_POINT('',(-32.79802288484,-20.61343096389,6.5));
#580 = SURFACE_CURVE('',#581,(#586,#593),.PCURVE_S1.);
#581 = CIRCLE('',#582,1.8);
#582 = AXIS2_PLACEMENT_3D('',#583,#584,#585);
#583 = CARTESIAN_POINT('',(-32.,-19.,6.5));
#584 = DIRECTION('',(0.,0.,1.));
#585 = DIRECTION('',(-0.443346047137,-0.896350535498,0.));
#586 = PCURVE('',#531,#587);
#587 = DEFINITIONAL_REPRESENTATION('',(#588),#592);
#588 = LINE('',#589,#590);
#589 = CARTESIAN_POINT('',(-4.253060771042,-3.5));
#590 = VECTOR('',#591,1.);
#591 = DIRECTION('',(-1.,-0.));
#592 = ( GEOMETRIC_REPRESENTATION_CONTEXT(2) 
PARAMETRIC_REPRESENTATION_CONTEXT() REPRESENTATION_CONTEXT('2D SPACE',''
  ) );
#593 = PCURVE('',#47,#594);
#594 = DEFINITIONAL_REPRESENTATION('',(#595),#599);
#595 = CIRCLE('',#596,1.8);
#596 = AXIS2_PLACEMENT_2D('',#597,#598);
#597 = CARTESIAN_POINT('',(-33.29120037364,-19.));
#598 = DIRECTION('',(-0.443346047137,-0.896350535498));
#599 = ( GEOMETRIC_REPRESENTATION_CONTEXT(2) 
PARAMETRIC_REPRESENTATION_CONTEXT() REPRESENTATION_CONTEXT('2D SPACE',''
  ) );
#600 = ORIENTED_EDGE('',*,*,#601,.F.);
#601 = EDGE_CURVE('',#549,#578,#602,.T.);
#602 = SURFACE_CURVE('',#603,(#609,#618),.PCURVE_S1.);
#603 = B_SPLINE_CURVE_WITH_KNOTS('',4,(#604,#605,#606,#607,#608),
  .UNSPECIFIED.,.F.,.F.,(5,5),(0.,1.),.PIECEWISE_BEZIER_KNOTS.);
#604 = CARTESIAN_POINT('',(-32.79802288484,-20.61343096389,7.5000006));
#605 = CARTESIAN_POINT('',(-32.79802288484,-20.61343096389,7.2500003));
#606 = CARTESIAN_POINT('',(-32.79802288484,-20.61343096389,7.));
#607 = CARTESIAN_POINT('',(-32.79802288484,-20.61343096389,6.7499997));
#608 = CARTESIAN_POINT('',(-32.79802288484,-20.61343096389,6.4999994));
#609 = PCURVE('',#531,#610);
#610 = DEFINITIONAL_REPRESENTATION('',(#611),#617);
#611 = B_SPLINE_CURVE_WITH_KNOTS('',4,(#612,#613,#614,#615,#616),
  .UNSPECIFIED.,.F.,.F.,(5,5),(5.999992799071E-07,0.999999400001),
  .PIECEWISE_BEZIER_KNOTS.);
#612 = CARTESIAN_POINT('',(-4.253060771042,-4.5));
#613 = CARTESIAN_POINT('',(-4.253060771042,-4.25));
#614 = CARTESIAN_POINT('',(-4.253060771042,-4.));
#615 = CARTESIAN_POINT('',(-4.253060771042,-3.75));
#616 = CARTESIAN_POINT('',(-4.253060771042,-3.5));
#617 = ( GEOMETRIC_REPRESENTATION_CONTEXT(2) 
PARAMETRIC_REPRESENTATION_CONTEXT() REPRESENTATION_CONTEXT('2D SPACE',''
  ) );
#618 = PCURVE('',#619,#627);
#619 = SURFACE_OF_LINEAR_EXTRUSION('',#620,#625);
#620 = ELLIPSE('',#621,42.,33.);
#621 = AXIS2_PLACEMENT_3D('',#622,#623,#624);
#622 = CARTESIAN_POINT('',(0.,0.,6.5));
#623 = DIRECTION('',(0.,0.,1.));
#624 = DIRECTION('',(1.,0.,0.));
#625 = VECTOR('',#626,1.);
#626 = DIRECTION('',(-0.,-0.,-1.));
#627 = DEFINITIONAL_REPRESENTATION('',(#628),#634);
#628 = B_SPLINE_CURVE_WITH_KNOTS('',4,(#629,#630,#631,#632,#633),
  .UNSPECIFIED.,.F.,.F.,(5,5),(0.,1.),.PIECEWISE_BEZIER_KNOTS.);
#629 = CARTESIAN_POINT('',(3.816275169431,-1.0000006));
#630 = CARTESIAN_POINT('',(3.816275169431,-0.7500003));
#631 = CARTESIAN_POINT('',(3.816275169431,-0.5));
#632 = CARTESIAN_POINT('',(3.816275169431,-0.2499997));
#633 = CARTESIAN_POINT('',(3.816275169431,5.999999999062E-07));
#634 = ( GEOMETRIC_REPRESENTATION_CONTEXT(2) 
PARAMETRIC_REPRESENTATION_CONTEXT() REPRESENTATION_CONTEXT('2D SPACE',''
  ) );
#635 = ADVANCED_FACE('',(#636),#619,.F.);
#636 = FACE_BOUND('',#637,.F.);
#637 = EDGE_LOOP('',(#638,#669,#691,#692));
#638 = ORIENTED_EDGE('',*,*,#639,.T.);
#639 = EDGE_CURVE('',#640,#642,#644,.T.);
#640 = VERTEX_POINT('',#641);
#641 = CARTESIAN_POINT('',(32.798022884846,-20.61343096389,7.5));
#642 = VERTEX_POINT('',#643);
#643 = CARTESIAN_POINT('',(32.798022884846,-20.61343096389,6.5));
#644 = SURFACE_CURVE('',#645,(#651,#660),.PCURVE_S1.);
#645 = B_SPLINE_CURVE_WITH_KNOTS('',4,(#646,#647,#648,#649,#650),
  .UNSPECIFIED.,.F.,.F.,(5,5),(0.,1.),.PIECEWISE_BEZIER_KNOTS.);
#646 = CARTESIAN_POINT('',(32.798022884847,-20.61343096389,7.5000006));
#647 = CARTESIAN_POINT('',(32.798022884847,-20.61343096389,7.2500003));
#648 = CARTESIAN_POINT('',(32.798022884847,-20.61343096389,7.));
#649 = CARTESIAN_POINT('',(32.798022884847,-20.61343096389,6.7499997));
#650 = CARTESIAN_POINT('',(32.798022884847,-20.61343096389,6.4999994));
#651 = PCURVE('',#619,#652);
#652 = DEFINITIONAL_REPRESENTATION('',(#653),#659);
#653 = B_SPLINE_CURVE_WITH_KNOTS('',4,(#654,#655,#656,#657,#658),
  .UNSPECIFIED.,.F.,.F.,(5,5),(0.,1.),.PIECEWISE_BEZIER_KNOTS.);
#654 = CARTESIAN_POINT('',(5.608502791339,-1.0000006));
#655 = CARTESIAN_POINT('',(5.608502791339,-0.7500003));
#656 = CARTESIAN_POINT('',(5.608502791339,-0.5));
#657 = CARTESIAN_POINT('',(5.608502791339,-0.2499997));
#658 = CARTESIAN_POINT('',(5.608502791339,5.999999999062E-07));
#659 = ( GEOMETRIC_REPRESENTATION_CONTEXT(2) 
PARAMETRIC_REPRESENTATION_CONTEXT() REPRESENTATION_CONTEXT('2D SPACE',''
  ) );
#660 = PCURVE('',#102,#661);
#661 = DEFINITIONAL_REPRESENTATION('',(#662),#668);
#662 = B_SPLINE_CURVE_WITH_KNOTS('',4,(#663,#664,#665,#666,#667),
  .UNSPECIFIED.,.F.,.F.,(5,5),(5.999992799071E-07,0.999999400001),
  .PIECEWISE_BEZIER_KNOTS.);
#663 = CARTESIAN_POINT('',(-11.4549024969,-4.5));
#664 = CARTESIAN_POINT('',(-11.4549024969,-4.25));
#665 = CARTESIAN_POINT('',(-11.4549024969,-4.));
#666 = CARTESIAN_POINT('',(-11.4549024969,-3.75));
#667 = CARTESIAN_POINT('',(-11.4549024969,-3.5));
#668 = ( GEOMETRIC_REPRESENTATION_CONTEXT(2) 
PARAMETRIC_REPRESENTATION_CONTEXT() REPRESENTATION_CONTEXT('2D SPACE',''
  ) );
#669 = ORIENTED_EDGE('',*,*,#670,.F.);
#670 = EDGE_CURVE('',#578,#642,#671,.T.);
#671 = SURFACE_CURVE('',#672,(#677,#684),.PCURVE_S1.);
#672 = ELLIPSE('',#673,42.,33.);
#673 = AXIS2_PLACEMENT_3D('',#674,#675,#676);
#674 = CARTESIAN_POINT('',(0.,0.,6.5));
#675 = DIRECTION('',(0.,0.,1.));
#676 = DIRECTION('',(1.,0.,0.));
#677 = PCURVE('',#619,#678);
#678 = DEFINITIONAL_REPRESENTATION('',(#679),#683);
#679 = LINE('',#680,#681);
#680 = CARTESIAN_POINT('',(0.,0.));
#681 = VECTOR('',#682,1.);
#682 = DIRECTION('',(1.,0.));
#683 = ( GEOMETRIC_REPRESENTATION_CONTEXT(2) 
PARAMETRIC_REPRESENTATION_CONTEXT() REPRESENTATION_CONTEXT('2D SPACE',''
  ) );
#684 = PCURVE('',#47,#685);
#685 = DEFINITIONAL_REPRESENTATION('',(#686),#690);
#686 = ELLIPSE('',#687,42.,33.);
#687 = AXIS2_PLACEMENT_2D('',#688,#689);
#688 = CARTESIAN_POINT('',(-1.291200373646,-8.959445402093E-16));
#689 = DIRECTION('',(1.,0.));
#690 = ( GEOMETRIC_REPRESENTATION_CONTEXT(2) 
PARAMETRIC_REPRESENTATION_CONTEXT() REPRESENTATION_CONTEXT('2D SPACE',''
  ) );
#691 = ORIENTED_EDGE('',*,*,#601,.F.);
#692 = ORIENTED_EDGE('',*,*,#693,.T.);
#693 = EDGE_CURVE('',#549,#640,#694,.T.);
#694 = SURFACE_CURVE('',#695,(#700,#707),.PCURVE_S1.);
#695 = ELLIPSE('',#696,42.,33.);
#696 = AXIS2_PLACEMENT_3D('',#697,#698,#699);
#697 = CARTESIAN_POINT('',(0.,0.,7.5));
#698 = DIRECTION('',(0.,0.,1.));
#699 = DIRECTION('',(1.,0.,0.));
#700 = PCURVE('',#619,#701);
#701 = DEFINITIONAL_REPRESENTATION('',(#702),#706);
#702 = LINE('',#703,#704);
#703 = CARTESIAN_POINT('',(0.,-1.));
#704 = VECTOR('',#705,1.);
#705 = DIRECTION('',(1.,0.));
#706 = ( GEOMETRIC_REPRESENTATION_CONTEXT(2) 
PARAMETRIC_REPRESENTATION_CONTEXT() REPRESENTATION_CONTEXT('2D SPACE',''
  ) );
#707 = PCURVE('',#132,#708);
#708 = DEFINITIONAL_REPRESENTATION('',(#709),#713);
#709 = ELLIPSE('',#710,42.,33.);
#710 = AXIS2_PLACEMENT_2D('',#711,#712);
#711 = CARTESIAN_POINT('',(-1.291200373646,-8.959445402093E-16));
#712 = DIRECTION('',(1.,0.));
#713 = ( GEOMETRIC_REPRESENTATION_CONTEXT(2) 
PARAMETRIC_REPRESENTATION_CONTEXT() REPRESENTATION_CONTEXT('2D SPACE',''
  ) );
#714 = ADVANCED_FACE('',(#715,#751),#132,.T.);
#715 = FACE_BOUND('',#716,.T.);
#716 = EDGE_LOOP('',(#717,#718,#719,#720,#721,#722,#723,#724,#725));
#717 = ORIENTED_EDGE('',*,*,#116,.T.);
#718 = ORIENTED_EDGE('',*,*,#144,.T.);
#719 = ORIENTED_EDGE('',*,*,#263,.F.);
#720 = ORIENTED_EDGE('',*,*,#314,.T.);
#721 = ORIENTED_EDGE('',*,*,#373,.T.);
#722 = ORIENTED_EDGE('',*,*,#489,.T.);
#723 = ORIENTED_EDGE('',*,*,#548,.T.);
#724 = ORIENTED_EDGE('',*,*,#693,.T.);
#725 = ORIENTED_EDGE('',*,*,#726,.T.);
#726 = EDGE_CURVE('',#640,#83,#727,.T.);
#727 = SURFACE_CURVE('',#728,(#733,#744),.PCURVE_S1.);
#728 = CIRCLE('',#729,1.8);
#729 = AXIS2_PLACEMENT_3D('',#730,#731,#732);
#730 = CARTESIAN_POINT('',(32.,-19.,7.5));
#731 = DIRECTION('',(0.,-0.,-1.));
#732 = DIRECTION('',(0.443346047137,-0.896350535498,0.));
#733 = PCURVE('',#132,#734);
#734 = DEFINITIONAL_REPRESENTATION('',(#735),#743);
#735 = ( BOUNDED_CURVE() B_SPLINE_CURVE(2,(#736,#737,#738,#739,#740,#741
,#742),.UNSPECIFIED.,.T.,.F.) B_SPLINE_CURVE_WITH_KNOTS((1,2,2,2,2,1),(
    -2.094395102393,0.,2.094395102393,4.188790204786,6.28318530718,
8.377580409573),.UNSPECIFIED.) CURVE() GEOMETRIC_REPRESENTATION_ITEM() 
RATIONAL_B_SPLINE_CURVE((1.,0.5,1.,0.5,1.,0.5,1.)) REPRESENTATION_ITEM(
  '') );
#736 = CARTESIAN_POINT('',(31.506822511201,-20.61343096389));
#737 = CARTESIAN_POINT('',(28.712278107226,-21.99564714605));
#738 = CARTESIAN_POINT('',(28.912515981944,-18.88439260913));
#739 = CARTESIAN_POINT('',(29.112753856661,-15.7731380722));
#740 = CARTESIAN_POINT('',(31.707060385918,-17.50217642697));
#741 = CARTESIAN_POINT('',(34.301366915175,-19.23121478174));
#742 = CARTESIAN_POINT('',(31.506822511201,-20.61343096389));
#743 = ( GEOMETRIC_REPRESENTATION_CONTEXT(2) 
PARAMETRIC_REPRESENTATION_CONTEXT() REPRESENTATION_CONTEXT('2D SPACE',''
  ) );
#744 = PCURVE('',#102,#745);
#745 = DEFINITIONAL_REPRESENTATION('',(#746),#750);
#746 = LINE('',#747,#748);
#747 = CARTESIAN_POINT('',(-11.4549024969,-4.5));
#748 = VECTOR('',#749,1.);
#749 = DIRECTION('',(1.,-0.));
#750 = ( GEOMETRIC_REPRESENTATION_CONTEXT(2) 
PARAMETRIC_REPRESENTATION_CONTEXT() REPRESENTATION_CONTEXT('2D SPACE',''
  ) );
#751 = FACE_BOUND('',#752,.T.);
#752 = EDGE_LOOP('',(#753));
#753 = ORIENTED_EDGE('',*,*,#754,.F.);
#754 = EDGE_CURVE('',#755,#755,#757,.T.);
#755 = VERTEX_POINT('',#756);
#756 = CARTESIAN_POINT('',(35.,0.,7.5));
#757 = SURFACE_CURVE('',#758,(#763,#770),.PCURVE_S1.);
#758 = ELLIPSE('',#759,35.,26.);
#759 = AXIS2_PLACEMENT_3D('',#760,#761,#762);
#760 = CARTESIAN_POINT('',(0.,0.,7.5));
#761 = DIRECTION('',(0.,0.,1.));
#762 = DIRECTION('',(1.,0.,0.));
#763 = PCURVE('',#132,#764);
#764 = DEFINITIONAL_REPRESENTATION('',(#765),#769);
#765 = ELLIPSE('',#766,35.,26.);
#766 = AXIS2_PLACEMENT_2D('',#767,#768);
#767 = CARTESIAN_POINT('',(-1.291200373646,-8.959445402093E-16));
#768 = DIRECTION('',(1.,0.));
#769 = ( GEOMETRIC_REPRESENTATION_CONTEXT(2) 
PARAMETRIC_REPRESENTATION_CONTEXT() REPRESENTATION_CONTEXT('2D SPACE',''
  ) );
#770 = PCURVE('',#771,#779);
#771 = SURFACE_OF_LINEAR_EXTRUSION('',#772,#777);
#772 = ELLIPSE('',#773,35.,26.);
#773 = AXIS2_PLACEMENT_3D('',#774,#775,#776);
#774 = CARTESIAN_POINT('',(0.,0.,6.5));
#775 = DIRECTION('',(0.,0.,1.));
#776 = DIRECTION('',(1.,0.,0.));
#777 = VECTOR('',#778,1.);
#778 = DIRECTION('',(-0.,-0.,-1.));
#779 = DEFINITIONAL_REPRESENTATION('',(#780),#784);
#780 = LINE('',#781,#782);
#781 = CARTESIAN_POINT('',(0.,-1.));
#782 = VECTOR('',#783,1.);
#783 = DIRECTION('',(1.,0.));
#784 = ( GEOMETRIC_REPRESENTATION_CONTEXT(2) 
PARAMETRIC_REPRESENTATION_CONTEXT() REPRESENTATION_CONTEXT('2D SPACE',''
  ) );
#785 = ADVANCED_FACE('',(#786),#771,.T.);
#786 = FACE_BOUND('',#787,.T.);
#787 = EDGE_LOOP('',(#788,#811,#812,#813));
#788 = ORIENTED_EDGE('',*,*,#789,.T.);
#789 = EDGE_CURVE('',#790,#755,#792,.T.);
#790 = VERTEX_POINT('',#791);
#791 = CARTESIAN_POINT('',(35.,0.,6.5));
#792 = SEAM_CURVE('',#793,(#797,#804),.PCURVE_S1.);
#793 = LINE('',#794,#795);
#794 = CARTESIAN_POINT('',(35.,0.,6.5));
#795 = VECTOR('',#796,1.);
#796 = DIRECTION('',(0.,0.,1.));
#797 = PCURVE('',#771,#798);
#798 = DEFINITIONAL_REPRESENTATION('',(#799),#803);
#799 = LINE('',#800,#801);
#800 = CARTESIAN_POINT('',(0.,0.));
#801 = VECTOR('',#802,1.);
#802 = DIRECTION('',(0.,-1.));
#803 = ( GEOMETRIC_REPRESENTATION_CONTEXT(2) 
PARAMETRIC_REPRESENTATION_CONTEXT() REPRESENTATION_CONTEXT('2D SPACE',''
  ) );
#804 = PCURVE('',#771,#805);
#805 = DEFINITIONAL_REPRESENTATION('',(#806),#810);
#806 = LINE('',#807,#808);
#807 = CARTESIAN_POINT('',(6.28318530718,0.));
#808 = VECTOR('',#809,1.);
#809 = DIRECTION('',(0.,-1.));
#810 = ( GEOMETRIC_REPRESENTATION_CONTEXT(2) 
PARAMETRIC_REPRESENTATION_CONTEXT() REPRESENTATION_CONTEXT('2D SPACE',''
  ) );
#811 = ORIENTED_EDGE('',*,*,#754,.T.);
#812 = ORIENTED_EDGE('',*,*,#789,.F.);
#813 = ORIENTED_EDGE('',*,*,#814,.F.);
#814 = EDGE_CURVE('',#790,#790,#815,.T.);
#815 = SURFACE_CURVE('',#816,(#821,#828),.PCURVE_S1.);
#816 = ELLIPSE('',#817,35.,26.);
#817 = AXIS2_PLACEMENT_3D('',#818,#819,#820);
#818 = CARTESIAN_POINT('',(0.,0.,6.5));
#819 = DIRECTION('',(0.,0.,1.));
#820 = DIRECTION('',(1.,0.,0.));
#821 = PCURVE('',#771,#822);
#822 = DEFINITIONAL_REPRESENTATION('',(#823),#827);
#823 = LINE('',#824,#825);
#824 = CARTESIAN_POINT('',(0.,0.));
#825 = VECTOR('',#826,1.);
#826 = DIRECTION('',(1.,0.));
#827 = ( GEOMETRIC_REPRESENTATION_CONTEXT(2) 
PARAMETRIC_REPRESENTATION_CONTEXT() REPRESENTATION_CONTEXT('2D SPACE',''
  ) );
#828 = PCURVE('',#47,#829);
#829 = DEFINITIONAL_REPRESENTATION('',(#830),#834);
#830 = ELLIPSE('',#831,35.,26.);
#831 = AXIS2_PLACEMENT_2D('',#832,#833);
#832 = CARTESIAN_POINT('',(-1.291200373646,-8.959445402093E-16));
#833 = DIRECTION('',(1.,0.));
#834 = ( GEOMETRIC_REPRESENTATION_CONTEXT(2) 
PARAMETRIC_REPRESENTATION_CONTEXT() REPRESENTATION_CONTEXT('2D SPACE',''
  ) );
#835 = ADVANCED_FACE('',(#836),#102,.F.);
#836 = FACE_BOUND('',#837,.T.);
#837 = EDGE_LOOP('',(#838,#839,#840,#862));
#838 = ORIENTED_EDGE('',*,*,#726,.F.);
#839 = ORIENTED_EDGE('',*,*,#639,.T.);
#840 = ORIENTED_EDGE('',*,*,#841,.F.);
#841 = EDGE_CURVE('',#60,#642,#842,.T.);
#842 = SURFACE_CURVE('',#843,(#848,#855),.PCURVE_S1.);
#843 = CIRCLE('',#844,1.8);
#844 = AXIS2_PLACEMENT_3D('',#845,#846,#847);
#845 = CARTESIAN_POINT('',(32.,-19.,6.5));
#846 = DIRECTION('',(-0.,0.,1.));
#847 = DIRECTION('',(0.902994974739,-0.429651109153,0.));
#848 = PCURVE('',#102,#849);
#849 = DEFINITIONAL_REPRESENTATION('',(#850),#854);
#850 = LINE('',#851,#852);
#851 = CARTESIAN_POINT('',(-5.839078936526,-3.5));
#852 = VECTOR('',#853,1.);
#853 = DIRECTION('',(-1.,-0.));
#854 = ( GEOMETRIC_REPRESENTATION_CONTEXT(2) 
PARAMETRIC_REPRESENTATION_CONTEXT() REPRESENTATION_CONTEXT('2D SPACE',''
  ) );
#855 = PCURVE('',#47,#856);
#856 = DEFINITIONAL_REPRESENTATION('',(#857),#861);
#857 = CIRCLE('',#858,1.8);
#858 = AXIS2_PLACEMENT_2D('',#859,#860);
#859 = CARTESIAN_POINT('',(30.708799626354,-19.));
#860 = DIRECTION('',(0.902994974739,-0.429651109153));
#861 = ( GEOMETRIC_REPRESENTATION_CONTEXT(2) 
PARAMETRIC_REPRESENTATION_CONTEXT() REPRESENTATION_CONTEXT('2D SPACE',''
  ) );
#862 = ORIENTED_EDGE('',*,*,#82,.F.);
#863 = ADVANCED_FACE('',(#864,#875),#47,.F.);
#864 = FACE_BOUND('',#865,.F.);
#865 = EDGE_LOOP('',(#866,#867,#868,#869,#870,#871,#872,#873,#874));
#866 = ORIENTED_EDGE('',*,*,#59,.T.);
#867 = ORIENTED_EDGE('',*,*,#21,.T.);
#868 = ORIENTED_EDGE('',*,*,#202,.F.);
#869 = ORIENTED_EDGE('',*,*,#289,.T.);
#870 = ORIENTED_EDGE('',*,*,#402,.F.);
#871 = ORIENTED_EDGE('',*,*,#464,.T.);
#872 = ORIENTED_EDGE('',*,*,#577,.F.);
#873 = ORIENTED_EDGE('',*,*,#670,.T.);
#874 = ORIENTED_EDGE('',*,*,#841,.F.);
#875 = FACE_BOUND('',#876,.F.);
#876 = EDGE_LOOP('',(#877));
#877 = ORIENTED_EDGE('',*,*,#814,.F.);
#878 = ( GEOMETRIC_REPRESENTATION_CONTEXT(3) 
GLOBAL_UNCERTAINTY_ASSIGNED_CONTEXT((#882)) GLOBAL_UNIT_ASSIGNED_CONTEXT
((#879,#880,#881)) REPRESENTATION_CONTEXT('Context #1',
  '3D Context with UNIT and UNCERTAINTY') );
#879 = ( LENGTH_UNIT() NAMED_UNIT(*) SI_UNIT(.MILLI.,.METRE.) );
#880 = ( NAMED_UNIT(*) PLANE_ANGLE_UNIT() SI_UNIT($,.RADIAN.) );
#881 = ( NAMED_UNIT(*) SI_UNIT($,.STERADIAN.) SOLID_ANGLE_UNIT() );
#882 = UNCERTAINTY_MEASURE_WITH_UNIT(LENGTH_MEASURE(2.E-06),#879,
  'distance_accuracy_value','confusion accuracy');
#883 = PRODUCT_RELATED_PRODUCT_CATEGORY('part',$,(#7));
ENDSEC;
END-ISO-10303-21;
